<svg xmlns="http://www.w3.org/2000/svg" xmlns:svg="http://www.w3.org/2000/svg" xmlns:xlink="http://www.w3.org/1999/xlink" id="svg7762" width="48" height="48"><defs id="defs7764"><radialGradient id="radialGradient7403" cx="302.854" cy="86.963" r=".784" fx="302.854" fy="86.963" gradientTransform="matrix(1.6443661,0,0,2.1729477,-195.14919,-102.18432)" gradientUnits="userSpaceOnUse" xlink:href="#linearGradient7010"/><linearGradient id="linearGradient7010"><stop id="stop7012" offset="0" stop-color="#fff" stop-opacity="1"/><stop id="stop7014" offset="1" stop-color="#fff" stop-opacity="0"/></linearGradient><radialGradient id="radialGradient7401" cx="302.854" cy="86.963" r=".784" fx="302.854" fy="86.963" gradientTransform="matrix(1.6443661,0,0,2.1729477,-195.14919,-102.18432)" gradientUnits="userSpaceOnUse" xlink:href="#linearGradient7010"/><linearGradient id="linearGradient7399" x1="181.841" x2="191.141" y1="149.632" y2="181.3" gradientUnits="userSpaceOnUse" xlink:href="#linearGradient6002"/><linearGradient id="linearGradient6002"><stop id="stop6004" offset="0" stop-color="#fff" stop-opacity="1"/><stop id="stop6006" offset="1" stop-color="#fff" stop-opacity="0"/></linearGradient><linearGradient id="linearGradient7397" x1="181.841" x2="191.141" y1="149.632" y2="181.3" gradientUnits="userSpaceOnUse" xlink:href="#linearGradient6002"/><linearGradient id="linearGradient6992"><stop id="stop6994" offset="0" stop-color="#fff" stop-opacity="1"/><stop id="stop6996" offset="1" stop-color="#fff" stop-opacity="0"/></linearGradient><radialGradient id="radialGradient7395" cx="326.02" cy="58.371" r="11.093" fx="326.02" fy="58.371" gradientTransform="matrix(1.4476199,-5.1119044e-6,2.2611777e-6,0.6403339,-145.93333,19.733632)" gradientUnits="userSpaceOnUse" xlink:href="#linearGradient6992"/><radialGradient id="radialGradient7393" cx="4.392" cy="32.308" r="6.375" fx="4.392" fy="32.308" gradientTransform="matrix(1,0,0,0.509804,0,16.05392)" gradientUnits="userSpaceOnUse" xlink:href="#linearGradient2315"/><linearGradient id="linearGradient2315"><stop id="stop2317" offset="0" stop-color="#fff" stop-opacity="1"/><stop id="stop2319" offset="1" stop-color="#fff" stop-opacity="0"/></linearGradient><radialGradient id="radialGradient7391" cx="4.392" cy="32.308" r="6.375" fx="4.392" fy="32.308" gradientTransform="matrix(1,0,0,0.509804,0,16.05392)" gradientUnits="userSpaceOnUse" xlink:href="#linearGradient2315"/><linearGradient id="linearGradient6982"><stop id="stop6984" offset="0" stop-color="#fff" stop-opacity="1"/><stop id="stop6986" offset="1" stop-color="#fff" stop-opacity="0"/></linearGradient><radialGradient id="radialGradient7389" cx="29.674" cy="13.772" r="17.742" fx="29.674" fy="13.772" gradientTransform="matrix(0.9571167,0,1.3684827e-8,1.4032972,297.21212,42.648718)" gradientUnits="userSpaceOnUse" xlink:href="#linearGradient6982"/><radialGradient id="radialGradient7383" cx="72.5" cy="212" r="44.5" fx="72.5" fy="212" gradientTransform="matrix(1,0,0,0.2921348,0,150.06742)" gradientUnits="userSpaceOnUse" xlink:href="#linearGradient5957"/><filter id="filter5944" width="1.317" height="2.087" x="-.159" y="-.543"><feGaussianBlur id="feGaussianBlur5946" stdDeviation="7.064"/></filter><linearGradient id="linearGradient5957"><stop id="stop5959" offset="0" stop-color="#000" stop-opacity="1"/><stop id="stop5961" offset="1" stop-color="#000" stop-opacity="0"/></linearGradient><radialGradient id="radialGradient8066" cx="72.5" cy="212" r="44.5" fx="72.5" fy="212" gradientTransform="matrix(1,0,0,0.2921348,0,150.06742)" gradientUnits="userSpaceOnUse" xlink:href="#linearGradient5957"/><linearGradient id="linearGradient5048"><stop id="stop5050" offset="0" stop-color="#000" stop-opacity="0"/><stop id="stop5056" offset=".5" stop-color="#000" stop-opacity="1"/><stop id="stop5052" offset="1" stop-color="#000" stop-opacity="0"/></linearGradient><linearGradient id="linearGradient3731" x1="302.857" x2="302.857" y1="366.648" y2="609.505" gradientTransform="matrix(4.7723729e-2,0,0,2.3250043e-2,0.751563,24.480981)" gradientUnits="userSpaceOnUse" xlink:href="#linearGradient5048"/><radialGradient id="radialGradient3728" cx="605.714" cy="486.648" r="117.143" fx="605.714" fy="486.648" gradientTransform="matrix(-4.7723729e-2,0,0,2.3250043e-2,35.239614,24.480981)" gradientUnits="userSpaceOnUse" xlink:href="#linearGradient5060"/><linearGradient id="linearGradient5060"><stop id="stop5062" offset="0" stop-color="#000" stop-opacity="1"/><stop id="stop5064" offset="1" stop-color="#000" stop-opacity="0"/></linearGradient><radialGradient id="radialGradient3768" cx="605.714" cy="486.648" r="117.143" fx="605.714" fy="486.648" gradientTransform="matrix(4.7723729e-2,0,0,2.3250043e-2,0.760955,24.480981)" gradientUnits="userSpaceOnUse" xlink:href="#linearGradient5060"/><radialGradient id="radialGradient3805" cx="33.967" cy="35.737" r="86.708" fx="33.967" fy="35.737" gradientTransform="matrix(0.7569622,0,0,0.8650516,-1.6825665,-0.5296751)" gradientUnits="userSpaceOnUse" xlink:href="#linearGradient259"/><linearGradient id="linearGradient259"><stop id="stop260" offset="0" stop-color="#828282" stop-opacity="1"/><stop id="stop261" offset="1" stop-color="#434343" stop-opacity="1"/></linearGradient><linearGradient id="linearGradient3522"><stop id="stop3524" offset="0" stop-color="#729fcf" stop-opacity="1"/><stop id="stop3526" offset="1" stop-color="#3465a4" stop-opacity="1"/></linearGradient><linearGradient id="linearGradient3799" x1="12.872" x2="12.906" y1="5.056" y2="19.321" gradientTransform="matrix(1.6477826,0,0,1.6034787,-2.2661644,0.9720028)" gradientUnits="userSpaceOnUse" xlink:href="#linearGradient3522"/><radialGradient id="radialGradient8029" cx="33.967" cy="35.737" r="86.708" fx="33.967" fy="35.737" gradientTransform="matrix(0.7644018,0,0,0.8644726,-0.5130573,-0.5276452)" gradientUnits="userSpaceOnUse" xlink:href="#linearGradient259"/></defs><metadata id="metadata7767"/><g id="layer1"><rect id="rect4173" width="23.044" height="5.646" x="6.478" y="33.006" fill="url(#linearGradient3731)" fill-opacity="1" fill-rule="nonzero" stroke="none" stroke-dasharray="none" stroke-dashoffset="0" stroke-linecap="round" stroke-linejoin="round" stroke-miterlimit="4" stroke-opacity="1" stroke-width="1" marker-end="none" marker-mid="none" marker-start="none" display="inline" opacity=".402" overflow="visible" visibility="visible" style="marker:none"/><path id="path5018" fill="url(#radialGradient3728)" fill-opacity="1" fill-rule="nonzero" stroke="none" stroke-dasharray="none" stroke-dashoffset="0" stroke-linecap="round" stroke-linejoin="round" stroke-miterlimit="4" stroke-opacity="1" stroke-width="1" marker-end="none" marker-mid="none" marker-start="none" d="M 6.4784108,33.005755 C 6.4784108,33.005755 6.4784108,38.651881 6.4784108,38.651881 C 4.0207568,38.662511 0.537,37.386871 0.537,35.828455 C 0.537,34.27004 3.279557,33.005755 6.4784108,33.005755 z" display="inline" opacity=".402" overflow="visible" visibility="visible" style="marker:none"/><path id="path5058" fill="url(#radialGradient3768)" fill-opacity="1" fill-rule="nonzero" stroke="none" stroke-dasharray="none" stroke-dashoffset="0" stroke-linecap="round" stroke-linejoin="round" stroke-miterlimit="4" stroke-opacity="1" stroke-width="1" marker-end="none" marker-mid="none" marker-start="none" d="M 29.522153,33.005755 C 29.522153,33.005755 29.522153,38.651881 29.522153,38.651881 C 31.979807,38.662511 35.463566,37.386871 35.463564,35.828455 C 35.463564,34.27004 32.721007,33.005755 29.522153,33.005755 z" display="inline" opacity=".402" overflow="visible" visibility="visible" style="marker:none"/><path id="path3385" fill="url(#radialGradient3805)" fill-opacity="1" fill-rule="nonzero" stroke="#333" stroke-dasharray="none" stroke-dashoffset="0" stroke-linecap="butt" stroke-linejoin="round" stroke-miterlimit="4" stroke-opacity="1" stroke-width="1" marker-end="none" marker-mid="none" marker-start="none" d="M 8.4999299,36.49993 C 6.9022808,36.49993 5.3046326,36.49993 3.7069835,36.49993 C 3.3186574,36.097355 3.6139448,35.298077 3.5216778,34.728153 C 3.5216778,24.050579 3.5216778,13.373007 3.5216778,2.6954336 L 3.5758329,2.5571654 L 3.7069835,2.5000699 L 3.7069835,2.5000699 C 5.3698096,2.5000699 6.7719249,2.5000699 8.434752,2.5000699" display="block" overflow="visible" visibility="visible" style="marker:none"/><path id="rect15391" fill="url(#radialGradient8029)" fill-opacity="1" fill-rule="nonzero" stroke="#333" stroke-dasharray="none" stroke-dashoffset="0" stroke-linecap="butt" stroke-linejoin="round" stroke-miterlimit="4" stroke-opacity="1" stroke-width="1" marker-end="none" marker-mid="none" marker-start="none" d="M 27.50007,2.5000704 C 29.11207,2.5000704 30.717175,2.5000704 32.310237,2.5000704 C 32.536382,2.5000704 32.497361,3.5673936 32.497361,4.2706611 C 32.497361,14.941084 32.497363,25.61151 32.497363,36.281931 C 32.111761,36.691062 31.346188,36.379953 30.80029,36.477169 C 29.713712,36.477169 28.627136,36.477169 27.540559,36.477169" display="block" overflow="visible" visibility="visible" style="marker:none"/><rect id="rect3457" width="19" height="34" x="8.5" y="2.5" fill="url(#linearGradient3799)" fill-opacity="1" stroke="#333" stroke-dasharray="none" stroke-dashoffset="0" stroke-linecap="butt" stroke-linejoin="round" stroke-miterlimit="4" stroke-opacity="1" stroke-width="1" rx="0" ry="0"/><path id="path3460" fill="none" fill-rule="evenodd" stroke="#333" stroke-dasharray="none" stroke-linecap="square" stroke-linejoin="round" stroke-miterlimit="4" stroke-opacity="1" stroke-width="1" d="M 9.4719328,19.499596 L 26.474908,19.499596"/><path id="rect15660" fill="none" fill-opacity="1" fill-rule="nonzero" stroke="#fff" stroke-dasharray="none" stroke-dashoffset="0" stroke-linecap="square" stroke-linejoin="round" stroke-miterlimit="4" stroke-opacity="1" stroke-width="1" marker-end="none" marker-mid="none" marker-start="none" d="M 9.5004308,3.4995974 C 15.166998,3.4995974 20.833566,3.4995974 26.500134,3.4995974" display="block" opacity=".366" overflow="visible" visibility="visible" style="marker:none"/><rect id="rect3464" width="2" height="1.5" x="5" y="6.5" fill="#eeeeec" fill-opacity="1" stroke="none" stroke-dasharray="none" stroke-dashoffset="0" stroke-linecap="butt" stroke-linejoin="round" stroke-miterlimit="4" stroke-opacity="1" stroke-width="1"/><rect id="rect3466" width="2" height="1.5" x="5" y="9.5" fill="#eeeeec" fill-opacity="1" stroke="none" stroke-dasharray="none" stroke-dashoffset="0" stroke-linecap="butt" stroke-linejoin="round" stroke-miterlimit="4" stroke-opacity="1" stroke-width="1"/><rect id="rect3468" width="2" height="1.5" x="5" y="12.5" fill="#eeeeec" fill-opacity="1" stroke="none" stroke-dasharray="none" stroke-dashoffset="0" stroke-linecap="butt" stroke-linejoin="round" stroke-miterlimit="4" stroke-opacity="1" stroke-width="1"/><rect id="rect3470" width="2" height="1.5" x="5" y="15.5" fill="#eeeeec" fill-opacity="1" stroke="none" stroke-dasharray="none" stroke-dashoffset="0" stroke-linecap="butt" stroke-linejoin="round" stroke-miterlimit="4" stroke-opacity="1" stroke-width="1"/><rect id="rect3472" width="2" height="1.5" x="5" y="18.5" fill="#eeeeec" fill-opacity="1" stroke="none" stroke-dasharray="none" stroke-dashoffset="0" stroke-linecap="butt" stroke-linejoin="round" stroke-miterlimit="4" stroke-opacity="1" stroke-width="1"/><rect id="rect3474" width="2" height="1.5" x="5" y="21.5" fill="#eeeeec" fill-opacity="1" stroke="none" stroke-dasharray="none" stroke-dashoffset="0" stroke-linecap="butt" stroke-linejoin="round" stroke-miterlimit="4" stroke-opacity="1" stroke-width="1"/><rect id="rect3476" width="2" height="1.5" x="5" y="24.5" fill="#eeeeec" fill-opacity="1" stroke="none" stroke-dasharray="none" stroke-dashoffset="0" stroke-linecap="butt" stroke-linejoin="round" stroke-miterlimit="4" stroke-opacity="1" stroke-width="1"/><rect id="rect3478" width="2" height="1.5" x="5" y="27.5" fill="#eeeeec" fill-opacity="1" stroke="none" stroke-dasharray="none" stroke-dashoffset="0" stroke-linecap="butt" stroke-linejoin="round" stroke-miterlimit="4" stroke-opacity="1" stroke-width="1"/><rect id="rect3480" width="2" height="1.5" x="5" y="30.5" fill="#eeeeec" fill-opacity="1" stroke="none" stroke-dasharray="none" stroke-dashoffset="0" stroke-linecap="butt" stroke-linejoin="round" stroke-miterlimit="4" stroke-opacity="1" stroke-width="1"/><rect id="rect3482" width="2" height="1.5" x="5" y="33.5" fill="#eeeeec" fill-opacity="1" stroke="none" stroke-dasharray="none" stroke-dashoffset="0" stroke-linecap="butt" stroke-linejoin="round" stroke-miterlimit="4" stroke-opacity="1" stroke-width="1"/><path id="path3360" fill="none" fill-opacity="1" fill-rule="nonzero" stroke="#fff" stroke-dasharray="none" stroke-dashoffset="0" stroke-linecap="square" stroke-linejoin="round" stroke-miterlimit="4" stroke-opacity="1" stroke-width="1" marker-end="none" marker-mid="none" marker-start="none" d="M 9.5004308,20.499596 C 15.166998,20.499596 20.833566,20.499596 26.500134,20.499596" display="block" opacity=".366" overflow="visible" visibility="visible" style="marker:none"/><path id="path8064" fill="url(#radialGradient8066)" fill-opacity="1" fill-rule="evenodd" stroke="none" stroke-dasharray="none" stroke-dashoffset="0" stroke-linecap="round" stroke-linejoin="round" stroke-miterlimit="4" stroke-opacity="1" stroke-width="2" marker-end="none" marker-mid="none" marker-start="none" d="M 117,212 A 44.5,13 0 1 1 28,212 A 44.5,13 0 1 1 117,212 z" display="inline" enable-background="accumulate" filter="url(#filter5944)" overflow="visible" transform="matrix(0.2323146,0,0,0.1986123,19.986907,-1.6877685)" visibility="visible" style="marker:none"/><rect id="rect8033" width="2" height="1.5" x="29" y="9.5" fill="#eeeeec" fill-opacity="1" stroke="none" stroke-dasharray="none" stroke-dashoffset="0" stroke-linecap="butt" stroke-linejoin="round" stroke-miterlimit="4" stroke-opacity="1" stroke-width="1"/><rect id="rect8039" width="2" height="1.5" x="29" y="18.5" fill="#eeeeec" fill-opacity="1" stroke="none" stroke-dasharray="none" stroke-dashoffset="0" stroke-linecap="butt" stroke-linejoin="round" stroke-miterlimit="4" stroke-opacity="1" stroke-width="1"/><rect id="rect8049" width="2" height="1.5" x="29" y="33.5" fill="#eeeeec" fill-opacity="1" stroke="none" stroke-dasharray="none" stroke-dashoffset="0" stroke-linecap="butt" stroke-linejoin="round" stroke-miterlimit="4" stroke-opacity="1" stroke-width="1"/><g id="g7116" display="inline" transform="translate(-291.99974,-45.999807)"><path id="path6353" fill="url(#radialGradient7383)" fill-opacity="1" fill-rule="evenodd" stroke="none" stroke-dasharray="none" stroke-dashoffset="0" stroke-linecap="round" stroke-linejoin="round" stroke-miterlimit="4" stroke-opacity="1" stroke-width="2" marker-end="none" marker-mid="none" marker-start="none" d="M 117,212 A 44.5,13 0 1 1 28,212 A 44.5,13 0 1 1 117,212 z" display="inline" enable-background="accumulate" filter="url(#filter5944)" overflow="visible" transform="matrix(0.2323146,0,0,0.1986123,290.98693,47.055039)" visibility="visible" style="marker:none"/><path id="path7042" fill="#a7cc5c" fill-opacity="1" fill-rule="nonzero" stroke="#42770c" stroke-dashoffset="0" stroke-linecap="round" stroke-linejoin="round" stroke-miterlimit="4" stroke-opacity="1" stroke-width="1" marker-end="none" marker-mid="none" marker-start="none" d="M 337.56459,54.596927 C 337.56459,54.596927 314.50209,58.492233 314.50209,58.492233 L 314.50209,82.129638 C 312.85613,81.571987 310.57031,81.426209 308.06459,81.942138 C 303.70828,82.839107 300.58673,85.241625 301.06459,87.285888 C 301.54245,89.330151 305.45828,90.276608 309.81459,89.379638 C 313.93123,88.532018 317.49871,86.341836 317.41722,84.379638 L 317.57347,65.348388 C 317.57347,65.348388 334.50393,62.453082 334.50393,62.453082 L 334.50393,79.737696 C 324.25393,78.237696 321.21173,82.630932 321.68959,84.675196 C 322.16745,86.719459 326.08328,87.665915 330.43959,86.768946 C 334.30497,85.973061 337.072,84.005735 337.34584,82.143946 L 337.56459,54.596927 z" display="block" visibility="visible" style="marker:none"/><path id="path2311" fill="none" fill-opacity="1" fill-rule="nonzero" stroke="url(#radialGradient7389)" stroke-dasharray="none" stroke-dashoffset="0" stroke-linecap="butt" stroke-linejoin="miter" stroke-miterlimit="4" stroke-opacity="1" stroke-width="1" marker-end="none" marker-mid="none" marker-start="none" d="M 336.66863,55.785801 C 336.66863,55.785801 315.48686,59.415942 315.48686,59.415942 L 315.48686,83.287211 C 307.9216,81.381901 301.75375,85.12162 302.20818,87.065655 C 302.91262,90.38469 316.58656,88.167889 316.50906,83.926895 L 316.65765,64.453729 C 316.65765,64.453729 335.50803,61.561397 335.50803,61.561397 L 335.50803,80.998563 C 327.94174,79.071916 322.24253,82.374947 322.69696,84.318983 C 323.27639,87.513018 335.07519,86.432345 336.4606,81.661837 L 336.66863,55.785801 z" display="block" opacity=".512" visibility="visible" style="marker:none"/><path id="path2313" fill="url(#radialGradient7391)" fill-opacity="1" fill-rule="nonzero" stroke="none" stroke-dasharray="none" stroke-dashoffset="0" stroke-linecap="butt" stroke-linejoin="miter" stroke-miterlimit="4" stroke-opacity="1" stroke-width="1" marker-end="none" marker-mid="none" marker-start="none" d="M 12.25,32.75 A 6.375,3.25 0 1 1 -0.5,32.75 A 6.375,3.25 0 1 1 12.25,32.75 z" display="block" opacity=".512" overflow="visible" transform="matrix(0.734516,-0.111645,0.111645,0.734516,299.84295,61.9441)" visibility="visible" style="marker:none"/><path id="path2323" fill="url(#radialGradient7393)" fill-opacity="1" fill-rule="nonzero" stroke="none" stroke-dasharray="none" stroke-dashoffset="0" stroke-linecap="butt" stroke-linejoin="miter" stroke-miterlimit="4" stroke-opacity="1" stroke-width="1" marker-end="none" marker-mid="none" marker-start="none" d="M 12.25,32.75 A 6.375,3.25 0 1 1 -0.5,32.75 A 6.375,3.25 0 1 1 12.25,32.75 z" display="block" opacity=".512" overflow="visible" transform="matrix(0.734516,-0.111645,0.111645,0.734516,319.68546,59.109454)" visibility="visible" style="marker:none"/><path id="path6990" fill="url(#radialGradient7395)" fill-opacity="1" fill-rule="evenodd" stroke="none" stroke-linecap="butt" stroke-linejoin="miter" stroke-opacity="1" stroke-width="1" d="M 314.92768,59.141752 L 315.01607,62.235345 L 337.11316,58.523034 L 337.02477,55.164277 L 314.92768,59.141752 z"/><path stroke-width="2" style="marker:none" id="path7000" fill="url(#linearGradient7397)" fill-opacity="1" fill-rule="evenodd" stroke="none" stroke-dasharray="none" stroke-dashoffset="0" stroke-linecap="round" stroke-linejoin="round" stroke-miterlimit="4" stroke-opacity="1" marker-end="none" marker-mid="none" marker-start="none" d="M 217.5,159.5 A 32.5,14 0 1 1 152.5,159.5 A 32.5,14 0 1 1 217.5,159.5 z" display="inline" enable-background="accumulate" opacity=".68" overflow="visible" transform="matrix(0.1666704,-2.8476107e-2,3.7049941e-2,0.1281007,272.75652,69.086018)" visibility="visible"/><path stroke-width="2" style="marker:none" id="path7004" fill="url(#linearGradient7399)" fill-opacity="1" fill-rule="evenodd" stroke="none" stroke-dasharray="none" stroke-dashoffset="0" stroke-linecap="round" stroke-linejoin="round" stroke-miterlimit="4" stroke-opacity="1" marker-end="none" marker-mid="none" marker-start="none" d="M 217.5,159.5 A 32.5,14 0 1 1 152.5,159.5 A 32.5,14 0 1 1 217.5,159.5 z" display="inline" enable-background="accumulate" opacity=".68" overflow="visible" transform="matrix(0.1666704,-2.8476107e-2,3.7049941e-2,0.1281007,293.00652,66.836018)" visibility="visible"/><path id="path7008" fill="url(#radialGradient7401)" fill-opacity="1" fill-rule="evenodd" stroke="none" stroke-dasharray="none" stroke-dashoffset="0" stroke-linecap="round" stroke-linejoin="round" stroke-miterlimit="4" stroke-opacity="1" stroke-width="0" marker-end="none" marker-mid="none" marker-start="none" d="M 303.63807,87.117538 A 0.78358209,1.0354477 0 1 1 302.07091,87.117538 A 0.78358209,1.0354477 0 1 1 303.63807,87.117538 z" display="inline" enable-background="new" overflow="visible" transform="translate(-0.2238806,-0.3358209)" visibility="visible" style="marker:none"/><path id="path7018" fill="url(#radialGradient7403)" fill-opacity="1" fill-rule="evenodd" stroke="none" stroke-dasharray="none" stroke-dashoffset="0" stroke-linecap="round" stroke-linejoin="round" stroke-miterlimit="4" stroke-opacity="1" stroke-width="0" marker-end="none" marker-mid="none" marker-start="none" d="M 303.63807,87.117538 A 0.78358209,1.0354477 0 1 1 302.07091,87.117538 A 0.78358209,1.0354477 0 1 1 303.63807,87.117538 z" display="inline" enable-background="new" overflow="visible" transform="translate(20.541045,-2.9664179)" visibility="visible" style="marker:none"/></g><rect id="rect8027" width="2" height="1.5" x="5" y="3.5" fill="#eeeeec" fill-opacity="1" stroke="none" stroke-dasharray="none" stroke-dashoffset="0" stroke-linecap="butt" stroke-linejoin="round" stroke-miterlimit="4" stroke-opacity="1" stroke-width="1"/><rect id="rect8031" width="2" height="1.5" x="29" y="6.5" fill="#eeeeec" fill-opacity="1" stroke="none" stroke-dasharray="none" stroke-dashoffset="0" stroke-linecap="butt" stroke-linejoin="round" stroke-miterlimit="4" stroke-opacity="1" stroke-width="1"/><rect id="rect8041" width="2" height="1.5" x="29" y="21.5" fill="#eeeeec" fill-opacity="1" stroke="none" stroke-dasharray="none" stroke-dashoffset="0" stroke-linecap="butt" stroke-linejoin="round" stroke-miterlimit="4" stroke-opacity="1" stroke-width="1"/><rect id="rect8043" width="2" height="1.5" x="29" y="24.5" fill="#eeeeec" fill-opacity="1" stroke="none" stroke-dasharray="none" stroke-dashoffset="0" stroke-linecap="butt" stroke-linejoin="round" stroke-miterlimit="4" stroke-opacity="1" stroke-width="1"/><rect id="rect8045" width="2" height="1.5" x="29" y="27.5" fill="#eeeeec" fill-opacity="1" stroke="none" stroke-dasharray="none" stroke-dashoffset="0" stroke-linecap="butt" stroke-linejoin="round" stroke-miterlimit="4" stroke-opacity="1" stroke-width="1"/><rect id="rect8047" width="2" height="1.5" x="29" y="30.5" fill="#eeeeec" fill-opacity="1" stroke="none" stroke-dasharray="none" stroke-dashoffset="0" stroke-linecap="butt" stroke-linejoin="round" stroke-miterlimit="4" stroke-opacity="1" stroke-width="1"/><rect id="rect8051" width="2" height="1.5" x="29" y="3.5" fill="#eeeeec" fill-opacity="1" stroke="none" stroke-dasharray="none" stroke-dashoffset="0" stroke-linecap="butt" stroke-linejoin="round" stroke-miterlimit="4" stroke-opacity="1" stroke-width="1"/></g></svg>