<svg xmlns="http://www.w3.org/2000/svg" xmlns:svg="http://www.w3.org/2000/svg" xmlns:xlink="http://www.w3.org/1999/xlink" id="svg5887" width="48" height="48"><defs id="defs5889"><linearGradient id="linearGradient3169"><stop id="stop3171" offset="0" stop-color="#000" stop-opacity="1"/><stop id="stop3173" offset="1" stop-color="#000" stop-opacity="0"/></linearGradient><radialGradient id="radialGradient3907" cx="13.172" cy="21.698" r="17.504" fx="13.172" fy="21.698" gradientTransform="matrix(2.03989,0,0,1.032958,-64.86939,-4.409191)" gradientUnits="userSpaceOnUse" xlink:href="#linearGradient3002"/><linearGradient id="linearGradient3002"><stop id="stop3004" offset="0" stop-color="#babdb6" stop-opacity="1"/><stop id="stop3006" offset="1" stop-color="#2e3436" stop-opacity="1"/></linearGradient><linearGradient id="linearGradient3909" x1="80.992" x2="84.554" y1="15.317" y2="5.708" gradientUnits="userSpaceOnUse" xlink:href="#linearGradient3010"/><linearGradient id="linearGradient3010"><stop id="stop3012" offset="0" stop-color="#fff" stop-opacity="1"/><stop id="stop3014" offset="1" stop-color="#fff" stop-opacity=".427"/></linearGradient><linearGradient id="linearGradient3107" x1="76.937" x2="93.064" y1="15.875" y2="15.875" gradientTransform="translate(-60.00002,1.4238419e-5)" gradientUnits="userSpaceOnUse" xlink:href="#linearGradient3101"/><linearGradient id="linearGradient3101"><stop id="stop3103" offset="0" stop-color="#2e3436" stop-opacity="1"/><stop id="stop3109" offset=".128" stop-color="#555753" stop-opacity="1"/><stop id="stop3111" offset=".56" stop-color="#555753" stop-opacity="1"/><stop id="stop3105" offset="1" stop-color="#2e3436" stop-opacity="1"/></linearGradient><linearGradient id="linearGradient3099" x1="91.339" x2="105.304" y1="19.334" y2="19.334" gradientTransform="translate(-60.00002,1.4238419e-5)" gradientUnits="userSpaceOnUse" xlink:href="#linearGradient3093"/><linearGradient id="linearGradient3093"><stop id="stop3095" offset="0" stop-color="#555753" stop-opacity="1"/><stop id="stop2022" offset=".723" stop-color="#888a85" stop-opacity="1"/><stop id="stop3097" offset="1" stop-color="#71736e" stop-opacity="1"/></linearGradient><linearGradient id="linearGradient3096" x1="87.5" x2="90.249" y1="13.75" y2="14.447" gradientTransform="translate(-60.00002,1.4238419e-5)" gradientUnits="userSpaceOnUse" xlink:href="#linearGradient3089"/><linearGradient id="linearGradient3089"><stop id="stop3092" offset="0" stop-color="#000" stop-opacity="1"/><stop id="stop3094" offset="1" stop-color="#2e3436" stop-opacity="1"/></linearGradient><linearGradient id="linearGradient6599" x1="26.642" x2="24.358" y1="8.501" y2="10.499" gradientUnits="userSpaceOnUse" xlink:href="#linearGradient6593"/><linearGradient id="linearGradient6593"><stop id="stop6595" offset="0" stop-color="#2e3436" stop-opacity="1"/><stop id="stop6601" offset=".5" stop-color="#424a4d" stop-opacity="1"/><stop id="stop6597" offset="1" stop-color="#2e3436" stop-opacity="1"/></linearGradient><linearGradient id="linearGradient3060" x1="18.738" x2="44.68" y1="16.695" y2="23.5" gradientTransform="translate(-2e-5,-0.99998576)" gradientUnits="userSpaceOnUse" xlink:href="#linearGradient2982"/><linearGradient id="linearGradient2982"><stop id="stop2984" offset="0" stop-color="#000" stop-opacity="0"/><stop id="stop2990" offset=".055" stop-color="#000" stop-opacity="1"/><stop id="stop2992" offset=".91" stop-color="#000" stop-opacity="1"/><stop id="stop2986" offset="1" stop-color="#000" stop-opacity="0"/></linearGradient><radialGradient id="radialGradient2998" cx="25.547" cy="10" r="8.453" fx="25.547" fy="10" gradientTransform="matrix(1,0,0,0.469501,-2e-5,5.3050052)" gradientUnits="userSpaceOnUse" xlink:href="#linearGradient2992"/><linearGradient id="linearGradient2992"><stop id="stop2994" offset="0" stop-color="#000" stop-opacity="1"/><stop id="stop2996" offset="1" stop-color="#000" stop-opacity="0"/></linearGradient><linearGradient id="linearGradient3047" x1="63.5" x2="104.795" y1="29.438" y2="29.438" gradientTransform="translate(-60,0)" gradientUnits="userSpaceOnUse" xlink:href="#linearGradient3041"/><linearGradient id="linearGradient3041"><stop id="stop3043" offset="0" stop-color="#555753" stop-opacity="1"/><stop id="stop3049" offset=".326" stop-color="#898b86" stop-opacity="1"/><stop id="stop3051" offset=".63" stop-color="#525450" stop-opacity="1"/><stop id="stop3053" offset=".858" stop-color="#535551" stop-opacity="1"/><stop id="stop3045" offset="1" stop-color="#3e3f3d" stop-opacity="1"/></linearGradient><linearGradient id="linearGradient2988" x1="61.933" x2="106.097" y1="31.25" y2="31.25" gradientTransform="translate(-60,0)" gradientUnits="userSpaceOnUse" xlink:href="#linearGradient2982"/><linearGradient id="linearGradient3000" x1="62.313" x2="106.069" y1="40" y2="40" gradientTransform="translate(-60,0)" gradientUnits="userSpaceOnUse" xlink:href="#linearGradient2982"/><linearGradient id="linearGradient3122" x1="75.875" x2="77.375" y1="28.625" y2="39.406" gradientUnits="userSpaceOnUse" xlink:href="#linearGradient3116"/><linearGradient id="linearGradient3116"><stop id="stop3118" offset="0" stop-color="#fff" stop-opacity="1"/><stop id="stop3120" offset="1" stop-color="#fff" stop-opacity="0"/></linearGradient><linearGradient id="linearGradient3062" x1="18.738" x2="44.68" y1="15.695" y2="22.5" gradientTransform="translate(-2e-5,1.4238419e-5)" gradientUnits="userSpaceOnUse" xlink:href="#linearGradient2982"/><linearGradient id="linearGradient3087" x1="77" x2="80.391" y1="13.525" y2="-5.02" gradientUnits="userSpaceOnUse" xlink:href="#linearGradient3032"/><linearGradient id="linearGradient3032"><stop id="stop3034" offset="0" stop-color="#fff" stop-opacity="1"/><stop id="stop3036" offset="1" stop-color="#fff" stop-opacity="0"/></linearGradient><radialGradient id="radialGradient5689" cx="13.672" cy="7.895" r="17.504" fx="13.672" fy="7.895" gradientTransform="matrix(2.396145,0,0,1.213358,-19.88514,-7.5792708)" gradientUnits="userSpaceOnUse" xlink:href="#linearGradient5683"/><linearGradient id="linearGradient5683"><stop id="stop5685" offset="0" stop-color="#fff" stop-opacity="1"/><stop id="stop5687" offset="1" stop-color="#888a85" stop-opacity="1"/></linearGradient><linearGradient id="linearGradient5743" x1="81.922" x2="81.691" y1="14.494" y2="3.17" gradientUnits="userSpaceOnUse" xlink:href="#linearGradient5737"/><linearGradient id="linearGradient5737"><stop id="stop5739" offset="0" stop-color="#fff" stop-opacity="1"/><stop id="stop5741" offset="1" stop-color="#fff" stop-opacity=".322"/></linearGradient><linearGradient id="linearGradient3003" x1="25.5" x2="24.942" y1="15.453" y2="1.223" gradientTransform="translate(-2e-5,1.4238419e-5)" gradientUnits="userSpaceOnUse" xlink:href="#linearGradient2996"/><linearGradient id="linearGradient2996"><stop id="stop2998" offset="0" stop-color="#fff" stop-opacity="1"/><stop id="stop3000" offset="1" stop-color="#fff" stop-opacity="0"/></linearGradient><linearGradient id="linearGradient3005" x1="22.438" x2="28.25" y1="32.25" y2="31.75" gradientTransform="translate(14.74998,-0.74998576)" gradientUnits="userSpaceOnUse" xlink:href="#linearGradient2998"/><linearGradient id="linearGradient2998"><stop id="stop3001" offset="0" stop-color="#fff" stop-opacity="0"/><stop id="stop3007" offset=".5" stop-color="#fff" stop-opacity="1"/><stop id="stop3003" offset="1" stop-color="#fff" stop-opacity="0"/></linearGradient><linearGradient id="linearGradient3017" x1="44.332" x2="46.909" y1="22.492" y2="22.693" gradientTransform="translate(-2e-5,1.4238419e-5)" gradientUnits="userSpaceOnUse" xlink:href="#linearGradient2998"/><radialGradient id="radialGradient5885" cx="85.5" cy="17" r="22.249" fx="85.5" fy="17" gradientTransform="matrix(0.970504,0,0,0.407216,-56.50941,11.327094)" gradientUnits="userSpaceOnUse" xlink:href="#linearGradient3169"/></defs><metadata id="metadata5892"/><g id="layer1"><path id="path3141" fill="url(#radialGradient5885)" fill-opacity="1" fill-rule="nonzero" stroke="none" stroke-width="1" d="M 37.265698,10.402857 C 26.947139,7.9031664 13.725293,9.3896894 7.767865,13.71928 1.810438,18.048871 5.353219,23.596654 15.671781,26.096344 25.990342,28.596035 39.212186,27.10951 45.16961,22.77992 51.127039,18.450331 47.584268,12.902547 37.265698,10.402857 z" color="#000" display="inline" opacity=".8" overflow="visible" visibility="visible" style="marker:none"/><path id="path2995" fill="none" stroke="#888a85" stroke-dasharray="none" stroke-dashoffset="1.2" stroke-linecap="round" stroke-linejoin="round" stroke-miterlimit="4" stroke-opacity="1" stroke-width="2" d="m 26.513512,3.0693472 c 0.980536,0.075308 1.112183,0.194794 1.080165,0.309793 l -2.240402,3.8223792 c -0.112096,0.191248 -0.494787,0.312314 -1.045801,0.404334 -0.558359,0.04192 -0.99297,0.02283 -1.292042,-0.113896 L 16.895233,4.6864712 c -0.233586,-0.140411 -0.07365,-0.366503 2.595656,-1.116674 1.493098,-0.311582 3.100057,-0.504139 4.766242,-0.569783 0.980065,0.014582 1.773392,0.032239 2.256381,0.069333 z m 4.769259,0.584203 c 0.467401,0.052237 1.297071,0.217645 2.512877,0.51487 1.371162,0.437699 2.552224,0.97177 3.504499,1.5828932 1.491206,1.259807 1.382428,1.492165 1.026565,1.560372 l -8.368688,1.030693 c -0.434687,0.05325 -0.847575,-0.04923 -1.317893,-0.235383 -0.329455,-0.190968 -0.494168,-0.371223 -0.389079,-0.550517 l 2.240402,-3.8223802 c 0.07844,-0.08553 0.251416,-0.140885 0.791317,-0.080548 z M 14.624107,5.6358384 c 0.04864,0.0069 0.102468,0.01825 0.142837,0.03229 l 6.128287,2.791687 c 0.303011,0.138521 0.324776,0.344599 0.227898,0.604724 -0.200607,0.247419 -0.444848,0.420911 -0.858769,0.471614 l -8.360601,1.0168936 c -0.379206,0.02207 -0.743872,-0.157443 -0.837367,-1.5519856 0.07401,-0.373641 0.208065,-0.741361 0.427664,-1.11602 0.219598,-0.374659 0.50569,-0.723755 0.850255,-1.064255 1.393112,-1.028938 1.961857,-1.230127 2.279796,-1.184944 z m 24.631108,3.017148 c 0.324762,0.03354 0.597263,0.33778 0.678353,1.5472976 -0.07401,0.373641 -0.208065,0.741361 -0.427664,1.11602 -0.219598,0.37466 -0.50569,0.723755 -0.850255,1.064255 -1.606219,1.186338 -2.118366,1.258444 -2.422633,1.152658 L 30.104729,10.74153 c -0.287109,-0.131252 -0.32861,-0.322638 -0.252162,-0.563326 0.01016,-0.01345 0.01374,-0.02841 0.02426,-0.0414 0.0051,-0.01365 0.01836,-0.02743 0.02426,-0.0414 0.197043,-0.2259156 0.442305,-0.3821736 0.834504,-0.4302156 l 8.360601,-1.016894 c 0.05031,-0.0029 0.109335,-4.43e-4 0.159014,0.0047 z M 21.647807,10.874018 c 0.205098,0.03494 0.418793,0.09967 0.637643,0.181637 0.376547,0.20564 0.575554,0.397961 0.463458,0.589208 l -2.240402,3.82238 c -0.146347,0.159575 -0.684,0.206229 -3.304194,-0.434322 -1.371163,-0.437696 -2.552223,-0.971771 -3.504499,-1.582893 -1.491203,-1.259807 -1.382427,-1.492167 -1.026565,-1.560372 l 8.368688,-1.030693 c 0.204271,-0.02502 0.400773,-0.01988 0.605871,0.01505 z m 5.82574,0.713615 c 0.204195,0.01804 0.367427,0.05612 0.510981,0.121752 l 6.120199,2.805486 c 0.233588,0.140408 0.07365,0.366501 -2.595656,1.116673 -1.493097,0.311581 -3.100058,0.504141 -4.766242,0.569783 -2.969743,-0.04418 -3.384338,-0.207478 -3.336546,-0.379125 l 2.240402,-3.82238 c 0.116407,-0.198604 0.527034,-0.317628 1.11426,-0.410739 0.263248,-0.01747 0.508408,-0.01949 0.712602,-0.0015 z" color="#000" display="inline" overflow="visible" visibility="visible" style="marker:none"/><g id="g3901" display="inline" transform="matrix(0.976118,0,0,0.976118,49.414859,6.4418144)"><path stroke-opacity="1" style="marker:none" id="path2984" fill="none" stroke="#2e3436" stroke-dasharray="none" stroke-dashoffset="1.2" stroke-linecap="round" stroke-linejoin="round" stroke-miterlimit="4" stroke-width="2.049" d="m -23.486468,3.069333 c 0.980536,0.075308 1.112183,0.194794 1.080165,0.309793 l -2.240402,3.822379 c -0.112096,0.191248 -0.494787,0.312314 -1.045801,0.404334 -0.558359,0.041924 -0.99297,0.022826 -1.292042,-0.113896 l -6.120199,-2.805486 c -0.233586,-0.140411 -0.07365,-0.366503 2.595656,-1.116674 1.493098,-0.311582 3.100057,-0.504139 4.766242,-0.569783 0.980065,0.014582 1.773392,0.032239 2.256381,0.069333 z m 4.769259,0.584203 c 0.467401,0.052237 1.297071,0.217645 2.512877,0.51487 1.371162,0.437699 2.552224,0.97177 3.504499,1.582893 1.491206,1.259807 1.382428,1.492165 1.026565,1.560372 l -8.368688,1.030693 c -0.434687,0.053248 -0.847575,-0.049233 -1.317893,-0.235383 -0.329455,-0.190968 -0.494168,-0.371223 -0.389079,-0.550517 l 2.240402,-3.82238 c 0.07844,-0.08553 0.251416,-0.140885 0.791317,-0.080548 z m -16.658664,1.982288 c 0.04864,0.00691 0.102468,0.018251 0.142837,0.032286 l 6.128287,2.791687 c 0.303011,0.138521 0.324776,0.344599 0.227898,0.604724 -0.200607,0.247419 -0.444848,0.420911 -0.858769,0.471614 l -8.360601,1.016894 c -0.379206,0.02207 -0.743872,-0.157443 -0.837367,-1.551986 0.07401,-0.373641 0.208065,-0.741361 0.427664,-1.11602 0.219598,-0.374659 0.50569,-0.723755 0.850255,-1.064255 1.393112,-1.028938 1.961857,-1.230127 2.279796,-1.184944 z m 24.631108,3.017148 c 0.324762,0.033543 0.597263,0.33778 0.678353,1.547298 -0.07401,0.373641 -0.208065,0.741361 -0.427664,1.11602 -0.219598,0.37466 -0.50569,0.723755 -0.850255,1.064255 -1.606219,1.186338 -2.118366,1.258444 -2.422633,1.152658 l -6.128287,-2.791687 c -0.287109,-0.131252 -0.32861,-0.322638 -0.252162,-0.563326 0.01016,-0.01345 0.01374,-0.02841 0.02426,-0.0414 0.0051,-0.01365 0.01836,-0.02743 0.02426,-0.0414 0.197043,-0.225916 0.442305,-0.382174 0.834504,-0.430216 l 8.360601,-1.016894 c 0.05031,-0.00293 0.109335,-4.43e-4 0.159014,0.00469 z m -17.607408,2.221032 c 0.205098,0.03494 0.418793,0.09967 0.637643,0.181637 0.376547,0.20564 0.575554,0.397961 0.463458,0.589208 l -2.240402,3.82238 c -0.146347,0.159575 -0.684,0.206229 -3.304194,-0.434322 -1.371163,-0.437696 -2.552223,-0.971771 -3.504499,-1.582893 -1.491203,-1.259807 -1.382427,-1.492167 -1.026565,-1.560372 l 8.368688,-1.030693 c 0.204271,-0.02502 0.400773,-0.01988 0.605871,0.01505 z m 5.82574,0.713615 c 0.204195,0.01804 0.367427,0.05612 0.510981,0.121752 l 6.120199,2.805486 c 0.233588,0.140408 0.07365,0.366501 -2.595656,1.116673 -1.493097,0.311581 -3.100058,0.504141 -4.766242,0.569783 -2.969743,-0.04418 -3.384338,-0.207478 -3.336546,-0.379125 l 2.240402,-3.82238 c 0.116407,-0.198604 0.527034,-0.317628 1.11426,-0.410739 0.263248,-0.01747 0.508408,-0.01949 0.712602,-0.0015 z" color="#000" display="inline" overflow="visible" visibility="visible"/><path d="m -19.970667,2.274237 c -9.330839,-1.142967 -18.932843,1.391352 -21.433035,5.656962 -2.500193,4.265612 3.043528,8.655181 12.374369,9.798148 9.330839,1.142966 18.932841,-1.391351 21.433035,-5.656963 2.500192,-4.265611 -3.043529,-8.655181 -12.374369,-9.798147 z M -23.486468,3 c 0.980536,0.075308 1.112183,0.194794 1.080165,0.309793 l -2.240402,3.822379 c -0.112096,0.191248 -0.494787,0.312314 -1.045801,0.404334 -0.558359,0.041924 -0.99297,0.022826 -1.292042,-0.113896 l -6.120199,-2.805486 c -0.233586,-0.140411 -0.07365,-0.366503 2.595656,-1.116674 1.493098,-0.311582 3.100057,-0.504139 4.766242,-0.569783 0.980065,0.014582 1.773392,0.032239 2.256381,0.069333 z m 4.769259,0.584203 c 0.467401,0.052237 1.297071,0.217645 2.512877,0.51487 1.371162,0.437699 2.552224,0.97177 3.504499,1.582893 1.491206,1.259807 1.382428,1.492165 1.026565,1.560372 l -8.368688,1.030693 c -0.434687,0.053248 -0.847575,-0.049233 -1.317893,-0.235383 -0.329455,-0.190968 -0.494168,-0.371223 -0.389079,-0.550517 l 2.240402,-3.82238 c 0.07844,-0.08553 0.251416,-0.140885 0.791317,-0.080548 z m -16.658664,1.982288 c 0.04864,0.00691 0.102468,0.018251 0.142837,0.032286 l 6.128287,2.791687 c 0.303011,0.138521 0.324776,0.344599 0.227898,0.604724 -0.200607,0.247419 -0.444848,0.420911 -0.858769,0.471614 l -8.360601,1.016894 c -0.379206,0.02207 -0.743872,-0.157443 -0.837367,-1.551986 0.07401,-0.373641 0.208065,-0.741361 0.427664,-1.11602 0.219598,-0.374659 0.50569,-0.723755 0.850255,-1.064255 1.393112,-1.028938 1.961857,-1.230127 2.279796,-1.184944 z m 24.631108,3.017148 c 0.324762,0.033543 0.597263,0.33778 0.678353,1.547298 -0.07401,0.373641 -0.208065,0.741361 -0.427664,1.11602 -0.219598,0.37466 -0.50569,0.723755 -0.850255,1.064255 -1.606219,1.186338 -2.118366,1.258444 -2.422633,1.152658 l -6.128287,-2.791687 c -0.287109,-0.131252 -0.32861,-0.322638 -0.252162,-0.563326 0.01016,-0.01345 0.01374,-0.02841 0.02426,-0.0414 0.0051,-0.01365 0.01836,-0.02743 0.02426,-0.0414 0.197043,-0.225916 0.442305,-0.382174 0.834504,-0.430216 l 8.360601,-1.016894 c 0.05031,-0.00293 0.109335,-4.43e-4 0.159014,0.00469 z m -17.607408,2.221032 c 0.205098,0.03494 0.418793,0.09967 0.637643,0.181637 0.376547,0.20564 0.575554,0.397961 0.463458,0.589208 l -2.240402,3.82238 c -0.146347,0.159575 -0.684,0.206229 -3.304194,-0.434322 -1.371163,-0.437696 -2.552223,-0.971771 -3.504499,-1.582893 -1.491203,-1.259807 -1.382427,-1.492167 -1.026565,-1.560372 l 8.368688,-1.030693 c 0.204271,-0.02502 0.400773,-0.01988 0.605871,0.01506 z m 5.82574,0.713615 c 0.204195,0.01804 0.367427,0.05612 0.510981,0.121752 l 6.120199,2.805486 c 0.233588,0.140408 0.07365,0.366501 -2.595656,1.116673 -1.493097,0.311581 -3.100058,0.504141 -4.766242,0.569783 -2.969743,-0.04418 -3.384338,-0.207478 -3.336546,-0.379125 l 2.240402,-3.82238 c 0.116407,-0.198604 0.527034,-0.317628 1.11426,-0.410739 0.263248,-0.01747 0.508408,-0.01949 0.712602,-0.0015 z" style="marker:none" id="path2998" fill="url(#radialGradient3907)" fill-opacity="1" fill-rule="nonzero" stroke="none" stroke-width=".696" color="#000" display="inline" overflow="visible" visibility="visible"/><path id="path2986" fill="none" stroke="#555753" stroke-dasharray="none" stroke-dashoffset="1.2" stroke-linecap="round" stroke-linejoin="miter" stroke-miterlimit="4" stroke-opacity="1" stroke-width=".77" d="m 100.1875,10.8125 c 0,3.2085 -6.664,5.8125 -14.875,5.8125 -8.211,0 -14.875,-2.604 -14.875,-5.8125 C 70.4375,7.604 77.1015,5 85.3125,5 c 8.211,0 14.875,2.604 14.875,5.8125 z" color="#000" display="inline" overflow="visible" transform="matrix(1.210083,0,0,1.462367,-127.7352,-5.811834)" visibility="visible" style="marker:none"/><path id="path2988" fill="none" stroke="url(#linearGradient3909)" stroke-dasharray="none" stroke-dashoffset="1.2" stroke-linecap="round" stroke-linejoin="miter" stroke-miterlimit="4" stroke-opacity="1" stroke-width=".844" d="m 100.1875,10.8125 c 0,3.2085 -6.664,5.8125 -14.875,5.8125 -8.211,0 -14.875,-2.604 -14.875,-5.8125 C 70.4375,7.604 77.1015,5 85.3125,5 c 8.211,0 14.875,2.604 14.875,5.8125 z" color="#000" display="inline" opacity=".5" overflow="visible" transform="matrix(1.142856,0,0,1.290324,-121.9999,-3.951621)" visibility="visible" style="marker:none"/></g><path id="path2003" fill="url(#linearGradient3107)" fill-opacity="1" fill-rule="nonzero" stroke="#000" stroke-dasharray="none" stroke-dashoffset="1.2" stroke-linecap="round" stroke-linejoin="round" stroke-miterlimit="4" stroke-opacity="1" stroke-width="1" d="m 25.49998,5.5000142 c -4.963845,0 -9,2.0201602 -9,4.4999998 l 0,6 c 0,2.47984 4.036157,4.5 9,4.5 4.963845,0 9,-2.02016 9,-4.5 l 0,-6 c 0,-2.4798396 -4.036152,-4.4999998 -9,-4.4999998 z" color="#000" display="inline" overflow="visible" visibility="visible" style="marker:none"/><path id="rect2953" fill="url(#linearGradient3099)" fill-opacity="1" stroke="url(#linearGradient3096)" stroke-dasharray="none" stroke-dashoffset="0" stroke-linecap="round" stroke-linejoin="miter" stroke-miterlimit="4" stroke-opacity="1" stroke-width="1.011" d="m 22.812492,20.281264 18.788828,4 c 5.25389,1.118514 4.88994,5.080109 4.88994,5.080109 l 0,-7.875 c 0,0 -0.358577,-3.822692 -4.88994,-4.673859 L 23.99998,13.506296" display="inline"/><path id="path5706" fill="url(#linearGradient6599)" fill-opacity="1" fill-rule="nonzero" stroke="none" stroke-width="2" d="m 34,9.5 a 8.5,3.5 0 1 1 -17,0 8.5,3.5 0 1 1 17,0 z" color="#000" display="inline" overflow="visible" transform="matrix(1,0,0,1.142857,-2e-5,-0.85712876)" visibility="visible" style="marker:none"/><path id="path3043" fill="none" stroke="url(#linearGradient3060)" stroke-dasharray="1 1" stroke-dashoffset=".7" stroke-linecap="butt" stroke-linejoin="miter" stroke-miterlimit="4" stroke-opacity="1" stroke-width="1" d="m 17.56248,15.000014 c 0,0.536843 0.36494,1.18169 1.3125,1.8125 0.94756,0.63081 2.38961,1.168418 4.09375,1.4375 0.02083,-6.16e-4 0.04167,-6.16e-4 0.0625,0 l 18.78125,4 c 1.61746,0.344345 2.881906,0.829834 3.75,1.5625" color="#000" display="inline" opacity=".4" overflow="visible" visibility="visible" style="marker:none"/><path id="path3099" fill="url(#radialGradient2998)" fill-opacity="1" fill-rule="nonzero" stroke="none" stroke-width="1.97" d="m 26.34373,6.0312644 -1.0625,1.8125 c -0.112096,0.191248 -0.480236,0.31423 -1.03125,0.40625 -0.558358,0.04192 -0.982178,0.04297 -1.28125,-0.09375 l -2.75,-1.25 c -0.783275,0.295659 -1.479546,0.624656 -2,1.03125 l 2.625,1.1875 c 0.303011,0.138521 0.315628,0.333625 0.21875,0.59375 -0.200606,0.247419 -0.429829,0.4180466 -0.84375,0.4687496 l -3.125,0.375 c 0.140637,0.468502 0.451544,0.910739 0.90625,1.3125 l 2.96875,-0.375 c 0.204271,-0.02502 0.419902,-0.0037 0.625,0.03125 0.205098,0.03494 0.40615,0.105532 0.625,0.1875 0.376548,0.20564 0.580846,0.402503 0.46875,0.59375 l -0.78125,1.3125 c 0.894152,0.197195 1.875517,0.304355 2.90625,0.34375 l 0.78125,-1.3125 c 0.116406,-0.198604 0.506524,-0.313139 1.09375,-0.40625 0.263247,-0.01747 0.514556,-0.01804 0.71875,0 0.204196,0.01804 0.387696,0.05937 0.53125,0.125 l 2.15625,0.96875 c 0.838054,-0.254842 1.586684,-0.564067 2.1875,-0.9375 l -2.25,-1 c -0.28711,-0.131252 -0.326448,-0.321812 -0.25,-0.5625 0.01016,-0.01345 0.02072,-0.04952 0.03125,-0.0625 0.0051,-0.01365 0.02534,-0.01728 0.03125,-0.03125 0.197043,-0.225916 0.451551,-0.389458 0.84375,-0.4375 l 3.3125,-0.4062496 c -0.02333,-0.471718 -0.220541,-0.925894 -0.5625,-1.34375 l -3.53125,0.4375 c -0.434687,0.05325 -0.842182,-0.06385 -1.3125,-0.25 -0.329454,-0.190968 -0.511339,-0.351956 -0.40625,-0.53125 l 1.0625,-1.78125 c -0.894111,-0.208546 -1.868403,-0.357555 -2.90625,-0.40625 z" color="#000" display="inline" opacity=".398" overflow="visible" visibility="visible" style="marker:none"/><path id="path3030" fill="none" stroke="#fff" stroke-dasharray="none" stroke-dashoffset="1.2" stroke-linecap="round" stroke-linejoin="miter" stroke-miterlimit="4" stroke-opacity="1" stroke-width="1" d="m 25.5,6.5625 c -2.338476,0 -4.437463,0.4997517 -5.875,1.21875 C 18.187463,8.5002483 17.5625,9.3337568 17.5625,10 l 0,6 c 0,0.536843 0.36494,1.18169 1.3125,1.8125 0.94756,0.63081 2.38961,1.168418 4.09375,1.4375 a 1.057518,1.057518 0 0 1 0.0625,0 l 18.78125,4 c 1.61746,0.344345 2.756906,0.986084 3.625,1.71875 l 0,-3.375 c 0,0 -0.06264,-0.723979 -0.59375,-1.59375 -0.531108,-0.869771 -1.451476,-1.82687 -3.4375,-2.15625 L 34.3125,16.65625 A 1.057518,1.057518 0 0 1 33.4375,15.625 l 0,-5.625 C 33.4375,9.3337563 32.812537,8.5002482 31.375,7.78125 29.937463,7.0622518 27.838477,6.5625 25.5,6.5625 z" color="#000" display="inline" opacity=".1" overflow="visible" transform="translate(-2e-5,1.4238419e-5)" visibility="visible" style="marker:none"/><g id="g3035" display="inline" transform="translate(-2e-5,1.4238419e-5)"><path id="rect2949" fill="url(#linearGradient3047)" fill-opacity="1" stroke="#2e3436" stroke-dashoffset="0" stroke-linecap="butt" stroke-linejoin="miter" stroke-miterlimit="4" stroke-opacity="1" stroke-width="1" d="m 1.50002,29.499973 c 0,0 2.032802,-2 7.006302,-2 l 23.006301,0 c 12.671147,0 14.987387,-2.496855 14.987387,-6 0,2.674178 0,8.000013 0,8.000013 0,5.85981 -2.27708,8.447529 -14.987387,9 l -23.006301,1 c -4.659233,0.441942 -7.006302,4 -7.006302,4 l 0,-14.000013 z"/><path id="path2978" fill="none" stroke="url(#linearGradient2988)" stroke-dasharray="1 1" stroke-dashoffset=".5" stroke-linecap="butt" stroke-linejoin="miter" stroke-miterlimit="4" stroke-opacity="1" stroke-width="1" d="m 2.12502,31.874973 c 0,0 1.407802,-2.375 6.381302,-2.375 l 23.006301,0 c 12.671147,0 14.987387,-2.496855 14.987387,-6" opacity=".6"/><path id="path2980" fill="none" stroke="url(#linearGradient3000)" stroke-dasharray="1 1" stroke-dashoffset=".9" stroke-linecap="butt" stroke-linejoin="miter" stroke-miterlimit="4" stroke-opacity="1" stroke-width="1" d="m 46.56251,25.968736 c 0,5.85981 -0.62539,10.53125 -15.049887,10.53125 l -23.006301,1 c -4.659233,0.441942 -7.006302,4 -7.006302,4" opacity=".6"/><path id="path3004" fill="#babdb6" fill-opacity="1" stroke="none" d="m 45.0625,28.71875 c -0.68942,0.481573 -1.31414,1.058426 -3.0625,1.5 l 0,3.21875 c 3.16645,-1.260421 3.06242,-2.81484 3.0625,-2.84375 l 0,-1.875 z M 41,30.40625 c -0.79343,0.14652 -1.78811,0.277136 -3,0.375 l 0,3.6875 c 1.187273,-0.1969 2.17881,-0.431233 3,-0.6875 l 0,-3.375 z m -4,0.4375 C 35.848926,30.914726 34.565444,30.981472 33,31 l 0,3.96875 c 1.511976,-0.07443 2.84389,-0.18776 4,-0.34375 l 0,-3.78125 z M 32,31 28,31.03125 28,35.1875 32,35.03125 32,31 z m -5,0.03125 -4,0.03125 0,4.3125 4,-0.15625 0,-4.1875 z m -5,0.0625 -4,0.03125 0,4.46875 4,-0.15625 0,-4.34375 z m -5,0.03125 -4,0.03125 0,4.625 4,-0.15625 0,-4.5 z M 12,31.15625 8.34375,31.1875 C 8.225387,31.1844 8.117212,31.186 8,31.1875 l 0,4.84375 C 8.163488,36.00883 8.337513,35.9741 8.46875,35.96875 L 12,35.8125 12,31.15625 z M 7,31.25 c -1.128671,0.136685 -2.169896,0.459176 -3,0.875 l 0,5.25 C 4.94283,36.868709 6.054189,36.456108 7,36.21875 L 7,31.25 z m -4,1.5 C 2.399986,33.209949 2.017888,33.69653 2,34.125 L 2,39.25 C 2.138532,38.805351 2.509781,38.379775 3,38 l 0,-5.25 z" opacity=".3"/><path id="path3065" fill="none" stroke="url(#linearGradient3122)" stroke-dashoffset="0" stroke-linecap="butt" stroke-linejoin="miter" stroke-miterlimit="4" stroke-opacity="1" stroke-width="1" d="m 105.5,25.8125 c -0.38131,0.319085 -0.79831,0.654125 -1.3125,0.90625 C 101.75082,27.913525 97.901254,28.5 91.5,28.5 l -23,0 c -2.352706,0 -3.96483,0.461373 -4.96875,0.90625 -0.770931,0.34163 -0.898382,0.510083 -1.03125,0.625 l 0,11 C 63.789632,39.926876 65.68087,38.758511 68.40625,38.5 a 1.0001,1.0001 0 0 1 0.0625,0 l 23,-1 c 6.290085,-0.273407 9.89437,-1.100091 11.75,-2.34375 C 105.07438,33.912591 105.5,32.299656 105.5,29.5 c 0,0 0,-2.205668 0,-3.6875 z" opacity=".2" transform="translate(-60,0)"/><rect id="rect3114" width=".964" height="12.031" x="2.018" y="29.531" fill="#888a85" fill-opacity="1" stroke="none" rx=".428" ry=".479"/></g><path id="path3046" fill="none" stroke="url(#linearGradient3062)" stroke-dasharray="1 1" stroke-dashoffset="1.4" stroke-linecap="butt" stroke-linejoin="miter" stroke-miterlimit="4" stroke-opacity="1" stroke-width="1" d="m 44.84373,21.000014 c -0.531108,-0.869771 -1.451476,-1.82687 -3.4375,-2.15625 l -7.09375,-1.1875 C 28.132866,16.621791 17.500873,15.47807 17.500873,11.390772" color="#000" display="inline" opacity=".4" overflow="visible" visibility="visible" style="marker:none"/><path id="path3071" fill="#fff" fill-opacity="1" fill-rule="nonzero" stroke="none" stroke-width="2" d="m 17.99998,13.875014 0,2.03125 2,0.75 0,-1.875 c -0.840205,-0.340575 -1.530192,-0.647349 -2,-0.90625 z m 3,1.28125 0,1.875 2,0.75 0,-2.03125 c -0.554526,-0.101007 -1.26623,-0.329078 -2,-0.59375 z m 3,0.8125 0,2.03125 2,0.40625 0,-2.03125 -2,-0.40625 z m 3,0.59375 0,2.03125 2,0.40625 0,-2.03125 -2,-0.40625 z m 3,0.625 0,2.03125 2,0.40625 0,-2.03125 -2,-0.40625 z m 3,0.59375 0,2.03125 2,0.40625 0,-2 -2,-0.4375 z m 3,0.625 0,2.03125 2,0.40625 0,-2.03125 -2,-0.40625 z m 3,0.625 0,2 2,0.40625 0,-2 -2,-0.40625 z m 3,0.59375 0,2.0625 c 0.817262,0.217293 1.456287,0.509887 2,0.90625 l 0,-2.28125 c -0.596627,-0.283527 -1.252264,-0.528313 -2,-0.6875 z m 3,1.25 0,2.59375 0.4375,0.4375 0.5625,-1.75 0,-0.46875 c -0.310104,-0.295349 -0.64,-0.568968 -1,-0.8125 z" color="#000" display="inline" opacity=".15" overflow="visible" visibility="visible" style="marker:none"/><path id="path2966" fill="none" stroke="url(#linearGradient3087)" stroke-dasharray="none" stroke-dashoffset="1.2" stroke-linecap="round" stroke-linejoin="miter" stroke-miterlimit="4" stroke-opacity="1" stroke-width=".823" d="m 100.1875,10.8125 a 14.875,5.8125 0 1 1 -29.75,0 14.875,5.8125 0 1 1 29.75,0 z" color="#000" display="inline" overflow="visible" transform="matrix(1.142857,0,0,1.290323,-72.00003,-3.9515958)" visibility="visible" style="marker:none"/><path id="path3165" fill="none" stroke="#888a85" stroke-dasharray="none" stroke-dashoffset="1.2" stroke-linecap="round" stroke-linejoin="miter" stroke-miterlimit="4" stroke-opacity="1" stroke-width=".752" d="m 100.1875,10.8125 a 14.875,5.8125 0 1 1 -29.75,0 14.875,5.8125 0 1 1 29.75,0 z" color="#000" display="inline" overflow="visible" transform="matrix(1.210083,0,0,1.462367,-77.73521,-5.8118198)" visibility="visible" style="marker:none"/><path id="path2992" fill="url(#radialGradient5689)" fill-opacity="1" fill-rule="nonzero" stroke="none" stroke-width=".696" d="M 30.029313,2.2742512 C 20.698474,1.1312842 11.09647,3.6656032 8.596278,7.9312134 6.096085,12.196825 11.639806,16.586394 20.970647,17.729361 30.301486,18.872327 39.903488,16.33801 42.403682,12.072398 44.903874,7.8067874 39.360153,3.4172172 30.029313,2.2742512 z m -3.515801,0.725763 c 0.980536,0.075308 1.112183,0.194794 1.080165,0.309793 l -2.240402,3.8223792 c -0.112096,0.191248 -0.494787,0.312314 -1.045801,0.404334 -0.558359,0.04192 -0.99297,0.02283 -1.292042,-0.113896 L 16.895233,4.6171382 c -0.233586,-0.140411 -0.07365,-0.366503 2.595656,-1.116674 1.493098,-0.311582 3.100057,-0.504139 4.766242,-0.569783 0.980065,0.014582 1.773392,0.032239 2.256381,0.069333 z m 4.769259,0.584203 c 0.467401,0.052237 1.297071,0.217645 2.512877,0.51487 1.371162,0.437699 2.552224,0.97177 3.504499,1.5828932 1.491206,1.259807 1.382428,1.492165 1.026565,1.560372 l -8.368688,1.030693 c -0.434687,0.05325 -0.847575,-0.04923 -1.317893,-0.235383 -0.329455,-0.190968 -0.494168,-0.371223 -0.389079,-0.550517 l 2.240402,-3.8223802 c 0.07844,-0.08553 0.251416,-0.140885 0.791317,-0.080548 z M 14.624107,5.5665054 c 0.04864,0.0069 0.102468,0.01825 0.142837,0.03229 l 6.128287,2.791687 c 0.303011,0.138521 0.324776,0.344599 0.227898,0.604724 -0.200607,0.247419 -0.444848,0.420911 -0.858769,0.471614 L 11.903759,10.48371 c -0.379206,0.02207 -0.743872,-0.157443 -0.837367,-1.5519856 0.07401,-0.373641 0.208065,-0.741361 0.427664,-1.11602 0.219598,-0.374659 0.50569,-0.723755 0.850255,-1.064255 1.393112,-1.028938 1.961857,-1.230127 2.279796,-1.184944 z m 24.631108,3.017148 c 0.324762,0.03354 0.597263,0.33778 0.678353,1.5472976 -0.07401,0.373641 -0.208065,0.741361 -0.427664,1.11602 -0.219598,0.37466 -0.50569,0.723755 -0.850255,1.064255 -1.606219,1.186338 -2.118366,1.258444 -2.422633,1.152658 l -6.128287,-2.791687 c -0.287109,-0.131252 -0.32861,-0.322638 -0.252162,-0.563326 0.01016,-0.01345 0.01374,-0.02841 0.02426,-0.0414 0.0051,-0.01365 0.01836,-0.02743 0.02426,-0.0414 0.197043,-0.2259156 0.442305,-0.3821736 0.834504,-0.4302156 l 8.360601,-1.016894 c 0.05031,-0.0029 0.109335,-4.43e-4 0.159014,0.0047 z M 21.647807,10.804685 c 0.205098,0.03494 0.418793,0.09967 0.637643,0.181637 0.376547,0.20564 0.575554,0.397961 0.463458,0.589208 l -2.240402,3.82238 c -0.146347,0.159575 -0.684,0.206229 -3.304194,-0.434322 -1.371163,-0.437696 -2.552223,-0.971771 -3.504499,-1.582893 -1.491203,-1.259807 -1.382427,-1.492167 -1.026565,-1.560372 l 8.368688,-1.030693 c 0.204271,-0.02502 0.400773,-0.01988 0.605871,0.01506 z m 5.82574,0.713615 c 0.204195,0.01804 0.367427,0.05612 0.510981,0.121752 l 6.120199,2.805486 c 0.233588,0.140408 0.07365,0.366501 -2.595656,1.116673 -1.493097,0.311581 -3.100058,0.504141 -4.766242,0.569783 -2.969743,-0.04418 -3.384338,-0.207478 -3.336546,-0.379125 l 2.240402,-3.82238 c 0.116407,-0.198604 0.527034,-0.317628 1.11426,-0.410739 0.263248,-0.01747 0.508408,-0.01949 0.712602,-0.0015 z" color="#000" display="inline" overflow="visible" visibility="visible" style="marker:none"/><path id="path3882" fill="none" stroke="url(#linearGradient5743)" stroke-dasharray="none" stroke-dashoffset="1.2" stroke-linecap="round" stroke-linejoin="miter" stroke-miterlimit="4" stroke-opacity="1" stroke-width=".823" d="m 100.1875,10.8125 a 14.875,5.8125 0 1 1 -29.75,0 14.875,5.8125 0 1 1 29.75,0 z" color="#000" display="inline" overflow="visible" transform="matrix(1.142856,0,0,1.290324,-71.99991,-3.9516068)" visibility="visible" style="marker:none"/><path id="path6550" fill="url(#linearGradient3003)" fill-opacity="1" fill-rule="nonzero" stroke="none" stroke-width=".696" d="m 24.21873,2.4687642 c -1.689287,0.066554 -3.290403,0.244866 -4.8125,0.5625 -0.01041,-3.45e-4 -0.02084,-3.45e-4 -0.03125,0 -1.344647,0.377894 -2.05684,0.640261 -2.46875,0.84375 -0.205955,0.101745 -0.372505,0.149698 -0.5,0.4375 -0.06375,0.143901 -0.04661,0.370559 0.03125,0.5 0.07786,0.129441 0.154626,0.180205 0.21875,0.21875 0.02003,0.011946 0.04092,0.022392 0.0625,0.03125 l 6.09375,2.8125002 c 0.464573,0.212382 0.954382,0.168314 1.53125,0.125 0.01041,3.45e-4 0.02084,3.45e-4 0.03125,0 0.29236,-0.04882 0.55752,-0.102888 0.78125,-0.1875 0.22373,-0.08461 0.446027,-0.185467 0.59375,-0.4375 l 2.25,-3.8125002 c 0.02692,-0.038335 0.04798,-0.080463 0.0625,-0.125 0.03853,-0.138389 -0.0114,-0.397329 -0.125,-0.53125 -0.113603,-0.133921 -0.224173,-0.176797 -0.34375,-0.21875 -0.239154,-0.083906 -0.554571,-0.11724 -1.0625,-0.15625 -0.515031,-0.039555 -1.301469,-0.047922 -2.28125,-0.0625 -0.01041,-3.45e-4 -0.02084,-3.45e-4 -0.03125,0 z m 0.03125,0.46875 c 0.980065,0.014582 1.767011,0.025406 2.25,0.0625 0.980535,0.075308 1.125768,0.197501 1.09375,0.3125 l -2.25,3.8125002 c -0.112095,0.191248 -0.480236,0.31423 -1.03125,0.40625 -0.558358,0.04192 -1.013428,0.04297 -1.3125,-0.09375 L 16.90623,4.6250142 c -0.233585,-0.140411 -0.07556,-0.374829 2.59375,-1.125 1.493097,-0.311582 3.083815,-0.496856 4.75,-0.5625 z m 6.40625,0.15625 c -0.181825,0.019221 -0.373862,0.112461 -0.5,0.25 -0.02274,0.018833 -0.04367,0.039758 -0.0625,0.0625 l -2.25,3.8437502 c -0.133465,0.227708 -0.07743,0.596965 0.0625,0.78125 0.139933,0.184285 0.281237,0.297558 0.46875,0.40625 0.02003,0.01195 0.04092,0.02239 0.0625,0.03125 0.500739,0.19819 1.038113,0.349314 1.59375,0.28125 l 8.34375,-1.03125 c 0.01041,3.45e-4 0.02084,3.45e-4 0.03125,0 0.132642,-0.02542 0.302161,-0.06469 0.46875,-0.28125 0.166589,-0.216558 0.155807,-0.524833 0.0625,-0.71875 -0.186614,-0.387833 -0.55049,-0.762486 -1.3125,-1.4062502 -0.02003,-0.011946 -0.04092,-0.022392 -0.0625,-0.03125 -0.99762,-0.640223 -2.222217,-1.177206 -3.625,-1.625 -0.0099,-0.010899 -0.02035,-0.021327 -0.03125,-0.03125 -1.227465,-0.300075 -2.055941,-0.443387 -2.5625,-0.5 -0.285831,-0.031943 -0.505675,-0.050471 -0.6875,-0.03125 z m 0.0625,0.46875 c 0.120537,-0.016988 0.29255,0.00108 0.5625,0.03125 0.467401,0.052237 1.284194,0.202775 2.5,0.5 1.37116,0.437699 2.578975,0.982627 3.53125,1.5937502 1.491206,1.259807 1.355863,1.494293 1,1.5625 l -8.34375,1.03125 c -0.434687,0.05325 -0.873432,-0.06385 -1.34375,-0.25 -0.329454,-0.190968 -0.480089,-0.351956 -0.375,-0.53125 l 2.25,-3.8437502 c 0.03922,-0.042765 0.09821,-0.076762 0.21875,-0.09375 z m -16.03125,1.53125 c -0.591481,-0.084057 -1.206329,0.233435 -2.625,1.2812502 -0.02158,0.0089 -0.04247,0.0193 -0.0625,0.03125 -0.367918,0.363577 -0.662626,0.7406 -0.90625,1.15625 -0.243911,0.416138 -0.41508,0.852539 -0.5,1.28125 -0.0055,0.04148 -0.0055,0.08352 0,0.125 0.04946,0.737663 0.16096,1.1900026 0.40625,1.5312496 0.24529,0.341247 0.673435,0.452867 0.9375,0.4375 0.01041,3.45e-4 0.02084,3.45e-4 0.03125,0 l 8.34375,-0.9999996 c 0.517057,-0.06334 0.927867,-0.304783 1.1875,-0.625 0.03002,-0.04792 0.05119,-0.100844 0.0625,-0.15625 0.06641,-0.178308 0.130502,-0.374772 0.0625,-0.625 -0.068,-0.250228 -0.293576,-0.485098 -0.53125,-0.59375 l -6.125,-2.7812502 c -0.01041,-3.45e-4 -0.02084,-3.45e-4 -0.03125,0 -0.126265,-0.043898 -0.196676,-0.054922 -0.25,-0.0625 z m -0.0625,0.4687502 c 0.04864,0.0069 0.115881,0.01722 0.15625,0.03125 l 6.125,2.78125 c 0.303012,0.138521 0.315628,0.364875 0.21875,0.625 -0.200608,0.247419 -0.461079,0.418047 -0.875,0.46875 l -8.34375,0.9999996 c -0.379206,0.02207 -0.750255,-0.136707 -0.84375,-1.5312496 0.07401,-0.373641 0.217901,-0.750341 0.4375,-1.125 0.219598,-0.374659 0.499185,-0.722 0.84375,-1.0625 1.393112,-1.028938 1.963311,-1.232683 2.28125,-1.1875 z m 24.40625,2.5625 -8.34375,1 c -0.459764,0.05632 -0.807717,0.267513 -1.0625,0.53125 -0.001,6.89e-4 -0.02638,0.02853 -0.03125,0.03125 -0.0097,0.01056 -0.02191,0.02054 -0.03125,0.03125 -0.0109,0.0099 -0.02133,0.02035 -0.03125,0.03125 l -0.03125,0 c 0.05074,-0.06259 0.04103,-0.03314 -0.03125,0.0625 -3.45e-4,0.01041 -3.45e-4,0.02084 0,0.03125 -0.0245,0.02864 -0.04548,0.06012 -0.0625,0.09375 -0.05796,0.1824806 -0.113527,0.4243346 -0.03125,0.6562496 0.08228,0.231915 0.303664,0.427209 0.53125,0.53125 l 6.125,2.78125 c 0.01041,3.45e-4 0.02084,3.45e-4 0.03125,0 0.264968,0.09212 0.629153,0.08633 1.0625,-0.09375 0.433347,-0.180084 0.993404,-0.520024 1.8125,-1.125 0.02158,-0.0089 0.04247,-0.0193 0.0625,-0.03125 0.367917,-0.363577 0.662626,-0.740598 0.90625,-1.15625 0.243911,-0.416137 0.415081,-0.852536 0.5,-1.28125 0.0055,-0.04148 0.0055,-0.08352 0,-0.125 -0.04282,-0.6386556 -0.136245,-1.0753546 -0.3125,-1.4062496 -0.176255,-0.330895 -0.495318,-0.532968 -0.78125,-0.5625 -0.09964,-0.01029 -0.193024,-0.0033 -0.25,0 -0.01041,-3.45e-4 -0.02084,-3.45e-4 -0.03125,0 z m 0.0625,0.46875 c 0.05031,-0.0029 0.106571,-0.0051 0.15625,0 0.324763,0.03354 0.60641,0.321732 0.6875,1.5312496 -0.07401,0.373641 -0.217901,0.750341 -0.4375,1.125 -0.219598,0.37466 -0.499185,0.722 -0.84375,1.0625 -1.60622,1.186338 -2.133233,1.262036 -2.4375,1.15625 l -6.125,-2.78125 c -0.28711,-0.131252 -0.326448,-0.353062 -0.25,-0.59375 0.01016,-0.01345 0.02072,-0.01827 0.03125,-0.03125 0.0051,-0.01365 0.02534,-0.01728 0.03125,-0.03125 0.197044,-0.2259156 0.451551,-0.3894576 0.84375,-0.4374996 l 8.34375,-1 z m -18.125,1.7187496 -8.34375,1.03125 c -0.01041,-3.45e-4 -0.02084,-3.45e-4 -0.03125,0 -0.132642,0.02542 -0.302161,0.06469 -0.46875,0.28125 -0.166589,0.216559 -0.155807,0.524834 -0.0625,0.71875 0.186614,0.387833 0.550492,0.762486 1.3125,1.40625 0.02003,0.01195 0.04092,0.02239 0.0625,0.03125 0.997619,0.640221 2.222213,1.177209 3.625,1.625 0.0099,0.0109 0.02035,0.02133 0.03125,0.03125 1.319416,0.322554 2.137429,0.477396 2.65625,0.53125 0.25941,0.02693 0.449598,0.02638 0.625,0 0.175402,-0.02638 0.346219,-0.116394 0.46875,-0.25 0.02274,-0.01883 0.04367,-0.03976 0.0625,-0.0625 l 2.25,-3.84375 c 0.07468,-0.127419 0.126286,-0.308636 0.09375,-0.46875 -0.03254,-0.160114 -0.139085,-0.288817 -0.21875,-0.375 -0.15933,-0.172365 -0.32771,-0.263843 -0.53125,-0.375 -0.02003,-0.01195 -0.04092,-0.02239 -0.0625,-0.03125 -0.224409,-0.08405 -0.428975,-0.174712 -0.6875,-0.21875 -0.227726,-0.03879 -0.505043,-0.06508 -0.78125,-0.03125 z m 0.0625,0.46875 c 0.204271,-0.02502 0.419902,-0.0037 0.625,0.03125 0.205098,0.03494 0.40615,0.105532 0.625,0.1875 0.376548,0.20564 0.580846,0.371253 0.46875,0.5625 l -2.25,3.84375 c -0.146347,0.159575 -0.661056,0.203051 -3.28125,-0.4375 -1.371163,-0.437696 -2.578974,-0.982628 -3.53125,-1.59375 -1.491203,-1.259807 -1.355862,-1.494295 -1,-1.5625 l 8.34375,-1.03125 z m 5.65625,0.28125 c -0.307212,0.04871 -0.578781,0.105473 -0.8125,0.1875 -0.233719,0.08203 -0.470488,0.173882 -0.625,0.4375 l -2.25,3.8125 c -0.02692,0.03834 -0.04798,0.08046 -0.0625,0.125 -0.03257,0.116959 -0.01691,0.307646 0.0625,0.4375 0.07941,0.129854 0.19427,0.175108 0.28125,0.21875 0.17396,0.08728 0.335874,0.119668 0.59375,0.15625 0.515753,0.07316 1.38203,0.134039 2.875,0.15625 0.01041,3.45e-4 0.02084,3.45e-4 0.03125,0 1.689287,-0.06655 3.290404,-0.244867 4.8125,-0.5625 0.01041,3.45e-4 0.02084,3.45e-4 0.03125,0 1.344648,-0.377894 2.056841,-0.64026 2.46875,-0.84375 0.205955,-0.101745 0.372505,-0.149696 0.5,-0.4375 0.06375,-0.143902 0.04661,-0.37056 -0.03125,-0.5 -0.07786,-0.12944 -0.154626,-0.180205 -0.21875,-0.21875 -0.02003,-0.01195 -0.04092,-0.02239 -0.0625,-0.03125 l -6.09375,-2.8125 c -0.265259,-0.121265 -0.492631,-0.107787 -0.6875,-0.125 -0.238868,-0.0211 -0.498863,-0.01874 -0.78125,0 -0.01041,-3.45e-4 -0.02084,-3.45e-4 -0.03125,0 z m 0.0625,0.46875 c 0.263248,-0.01747 0.514556,-0.01804 0.71875,0 0.204196,0.01804 0.387696,0.02812 0.53125,0.09375 l 6.09375,2.8125 c 0.233587,0.140408 0.07556,0.374828 -2.59375,1.125 -1.493096,0.311581 -3.083816,0.496858 -4.75,0.5625 -2.969743,-0.04418 -3.391542,-0.203353 -3.34375,-0.375 l 2.25,-3.8125 c 0.116406,-0.198604 0.506524,-0.313139 1.09375,-0.40625 z" color="#000" display="inline" opacity=".7" overflow="visible" visibility="visible" style="marker:none"/><path id="path2111" fill="url(#linearGradient3005)" fill-opacity="1" fill-rule="evenodd" stroke="none" d="m 32.74998,28.125014 c 3.915221,-0.135959 6.913593,-0.615736 9.5,-1.25 l 2.4375,7.9375 c -3.543556,2.535992 -8.150282,3.181906 -13.1875,3.0625 l 1.25,-9.75 z" display="inline" opacity=".297"/><path id="path3009" fill="url(#linearGradient3017)" fill-opacity="1" fill-rule="evenodd" stroke="none" d="m 41.100562,23.560636 c 1.44527,0.362073 2.501292,0.801997 3.358757,1.281631 1.203321,-0.869012 2.5954,-3.201949 0.265165,-6.010408 0.249846,1.105443 0.457929,2.623294 -3.623922,4.728777 z" display="inline" opacity=".6"/></g></svg>