<svg xmlns="http://www.w3.org/2000/svg" xmlns:svg="http://www.w3.org/2000/svg" xmlns:xlink="http://www.w3.org/1999/xlink" id="svg3397" width="48" height="48"><defs id="defs3399"><linearGradient id="linearGradient2300"><stop id="stop2302" offset="0" stop-color="#555753" stop-opacity="1"/><stop id="stop2304" offset="1" stop-color="#555753" stop-opacity="0"/></linearGradient><radialGradient id="radialGradient2655" cx="24.013" cy="31.644" r="14.987" fx="24.013" fy="31.644" gradientTransform="matrix(3.323547,0,0,2.772052,-55.795639,-48.866195)" gradientUnits="userSpaceOnUse" xlink:href="#linearGradient2649"/><linearGradient id="linearGradient2649"><stop id="stop2651" offset="0" stop-color="#d3d7cf" stop-opacity="1"/><stop id="stop2653" offset="1" stop-color="#d3d7cf" stop-opacity="0"/></linearGradient><radialGradient id="radialGradient2629" cx="24.5" cy="18.593" r="14.5" fx="24.5" fy="18.593" gradientTransform="matrix(2.94027,0,0,2.433326,-47.536589,-23.366555)" gradientUnits="userSpaceOnUse" xlink:href="#linearGradient2623"/><linearGradient id="linearGradient2623"><stop id="stop2625" offset="0" stop-color="#babdb6" stop-opacity="1"/><stop id="stop2627" offset="1" stop-color="#babdb6" stop-opacity="0"/></linearGradient><linearGradient id="linearGradient2639" x1="24.613" x2="29.182" y1="20.16" y2="12.246" gradientTransform="translate(1.9731731e-6,0.99998521)" gradientUnits="userSpaceOnUse" xlink:href="#linearGradient2632"/><linearGradient id="linearGradient2632"><stop id="stop2635" offset="0" stop-color="#204a87" stop-opacity="1"/><stop id="stop2637" offset="1" stop-color="#204a87" stop-opacity="0"/></linearGradient><linearGradient id="linearGradient2713" x1="18" x2="18" y1="39" y2="45.78" gradientTransform="matrix(1,0,0,0.833333,9.7317314e-7,7.4999852)" gradientUnits="userSpaceOnUse" xlink:href="#linearGradient2707"/><linearGradient id="linearGradient2707"><stop id="stop2709" offset="0" stop-color="#eeeeec" stop-opacity="1"/><stop id="stop2711" offset="1" stop-color="#eeeeec" stop-opacity="0"/></linearGradient><radialGradient id="radialGradient3502" cx="17.984" cy="40.604" r="21.031" fx="17.984" fy="40.604" gradientTransform="matrix(1.113818,0,0,0.539348,-2.124098,18.94132)" gradientUnits="userSpaceOnUse" xlink:href="#linearGradient2300"/></defs><metadata id="metadata3402"/><g id="layer1"><path id="path2290" fill="url(#radialGradient3502)" fill-opacity="1" fill-rule="evenodd" stroke="none" d="m 39.692827,41.416107 a 21.030567,10.183721 0 1 1 -42.0611341,0 21.030567,10.183721 0 1 1 42.0611341,0 z" opacity=".5" transform="matrix(1.141197,0,0,0.834666,2.702705,4.9313782)"/><path id="path2773" fill="#edd400" fill-opacity="1" fill-rule="evenodd" stroke="#786100" stroke-dasharray="none" stroke-miterlimit="4" stroke-opacity="1" stroke-width="1.05" d="m 32.823063,18.894651 a 6.330162,2.1770399 0 1 1 -12.660324,0 6.330162,2.1770399 0 1 1 12.660324,0 z" transform="matrix(0.790399,0,0,1.147562,20.585601,17.320405)"/><path id="path2775" fill="none" stroke="none" d="m 32.823063,18.894651 a 6.330162,2.1770399 0 1 1 -12.660324,0 6.330162,2.1770399 0 1 1 12.660324,0 z" opacity=".6" transform="matrix(0.632511,0,0,0.687532,24.766131,26.012525)"/><path id="path2777" fill="#edd400" fill-opacity="1" fill-rule="evenodd" stroke="#8c7200" stroke-dasharray="none" stroke-miterlimit="4" stroke-opacity="1" stroke-width="1.05" d="m 32.823063,18.894651 a 6.330162,2.1770399 0 1 1 -12.660324,0 6.330162,2.1770399 0 1 1 12.660324,0 z" transform="matrix(0.790399,0,0,1.147562,20.595241,15.326835)"/><path id="path2779" fill="none" stroke="none" d="m 32.823063,18.894651 a 6.330162,2.1770399 0 1 1 -12.660324,0 6.330162,2.1770399 0 1 1 12.660324,0 z" opacity=".6" transform="matrix(0.632511,0,0,0.687532,24.775771,24.018955)"/><rect id="rect1354" width="35.041" height="34.996" x="6.473" y="2.502" fill="#eeeeec" fill-opacity="1" fill-rule="evenodd" stroke="#555753" stroke-dasharray="none" stroke-miterlimit="4" stroke-opacity="1" stroke-width="1" rx="2" ry="2"/><path id="path2781" fill="#edd400" fill-opacity="1" fill-rule="evenodd" stroke="#8c7200" stroke-dasharray="none" stroke-miterlimit="4" stroke-opacity="1" stroke-width="1.05" d="m 32.823063,18.894651 a 6.330162,2.1770399 0 1 1 -12.660324,0 6.330162,2.1770399 0 1 1 12.660324,0 z" transform="matrix(0.790399,0,0,1.147562,20.595241,13.326845)"/><rect id="rect2229" width="29.974" height="25" x="9.026" y="6" fill="url(#radialGradient2655)" fill-opacity="1" fill-rule="evenodd" stroke="none" rx="1.625" ry="1.625"/><path id="path2783" fill="none" stroke="none" d="m 32.823063,18.894651 a 6.330162,2.1770399 0 1 1 -12.660324,0 6.330162,2.1770399 0 1 1 12.660324,0 z" opacity=".6" transform="matrix(0.632511,0,0,0.687532,24.775771,22.018955)"/><path id="rect2281" fill="url(#radialGradient2629)" fill-opacity="1" fill-rule="evenodd" stroke="none" d="m 14.031252,5.9999852 0,4 -4.03125,0 0,0.9999998 4.03125,0 0,4 -4.03125,0 0,1 4.03125,0 0,4 -4.03125,0 0,1 4.03125,0 0,4 -4.03125,0 0,1 4.03125,0 0,4 1,0 0,-4 4,0 0,4 1,0 0,-4 4,0 0,4 1,0 0,-4 4,0 0,4 1,0 0,-4 4,0 0,4 1,0 0,-4 3.96875,0 0,-1 -3.96875,0 0,-4 3.96875,0 0,-1 -3.96875,0 0,-4 3.96875,0 0,-1 -3.96875,0 0,-4 3.96875,0 0,-0.9999998 -3.96875,0 0,-4 -1,0 0,4 -4,0 0,-4 -1,0 0,4 -4,0 0,-4 -1,0 0,4 -4,0 0,-4 -1,0 0,4 -4,0 0,-4 -1,0 z m 1,4.9999998 4,0 0,4 -4,0 0,-4 z m 5,0 4,0 0,4 -4,0 0,-4 z m 5,0 4,0 0,4 -4,0 0,-4 z m 5,0 4,0 0,4 -4,0 0,-4 z m -15,5 4,0 0,4 -4,0 0,-4 z m 5,0 4,0 0,4 -4,0 0,-4 z m 5,0 4,0 0,4 -4,0 0,-4 z m 5,0 4,0 0,4 -4,0 0,-4 z m -15,5 4,0 0,4 -4,0 0,-4 z m 5,0 4,0 0,4 -4,0 0,-4 z m 5,0 4,0 0,4 -4,0 0,-4 z m 5,0 4,0 0,4 -4,0 0,-4 z"/><path id="path2785" fill="#edd400" fill-opacity="1" fill-rule="evenodd" stroke="#8c7200" stroke-dasharray="none" stroke-miterlimit="4" stroke-opacity="1" stroke-width="1.05" d="m 32.823063,18.894651 a 6.330162,2.1770399 0 1 1 -12.660324,0 6.330162,2.1770399 0 1 1 12.660324,0 z" transform="matrix(0.790399,0,0,1.147562,20.582671,11.321915)"/><path id="rect2293" fill="url(#linearGradient2639)" fill-opacity="1" fill-rule="evenodd" stroke="none" d="m 28.531252,12.999985 -4.883016,8.817147 -8.609782,-4.797282 -6.007202,9.480135 0.875,0.5 5.412175,-8.726766 8.70144,4.78125 5.386385,-9.554484 -0.875,-0.5 z"/><rect id="rect2600" width="1" height="30" x="30" y="-39" fill="#888a85" fill-opacity="1" fill-rule="evenodd" stroke="none" transform="matrix(0,1,-1,0,0,0)"/><path id="path2787" fill="none" stroke="none" d="m 32.823063,18.894651 a 6.330162,2.1770399 0 1 1 -12.660324,0 6.330162,2.1770399 0 1 1 12.660324,0 z" opacity=".6" transform="matrix(0.632511,0,0,0.687532,24.775771,20.012515)"/><rect id="rect2231" width="1" height="25" x="9.026" y="6" fill="#888a85" fill-opacity="1" fill-rule="evenodd" stroke="none"/><path id="path2321" fill="#4e9a06" fill-opacity="1" fill-rule="evenodd" stroke="#2e5c02" stroke-miterlimit="4" stroke-opacity="1" stroke-width="1" d="m 1.499841,34.489065 24.000325,0 0,6.025232 -24.000325,0 0,-6.025232 z"/><path id="path2323" fill="#59af05" fill-opacity="1" fill-rule="evenodd" stroke="#2e5c02" stroke-miterlimit="4" stroke-opacity="1" stroke-width="1" d="m 4.325883,28.50068 20.27169,0 0.902432,6.009461 -24.000006,0 2.825884,-6.009461 z"/><rect id="rect2325" width="23" height="1" x="2" y="38.037" fill="#2e5c02" fill-opacity="1" fill-rule="evenodd" stroke="none"/><rect id="rect2327" width="23" height="1" x="2" y="36.037" fill="#2e5c02" fill-opacity="1" fill-rule="evenodd" stroke="none"/><path id="path2329" fill="none" stroke="#fff" stroke-miterlimit="4" stroke-opacity="1" stroke-width="1" d="m 4.937599,29.552134 -1.96875,3.9375 21.34375,0 -0.59375,-3.9375 -18.78125,0 z" opacity=".25"/><rect id="rect2341" width="4.937" height="6.109" x="11.531" y="34.474" fill="#eeeeec" fill-opacity="1" fill-rule="evenodd" stroke="#555753" stroke-dasharray="none" stroke-miterlimit="4" stroke-opacity="1" stroke-width="1"/><path id="path2746" fill="#2e5c02" fill-opacity="1" fill-rule="evenodd" stroke="none" d="m 19.622213,-0.43681452 a 7.0710678,3.6239223 0 1 1 -14.1421353,0 7.0710678,3.6239223 0 1 1 14.1421353,0 z" transform="matrix(0.707107,0,0,0.413916,5.124997,31.680795)"/><path id="path2715" fill="#d3d7cf" fill-opacity="1" fill-rule="evenodd" stroke="#555753" stroke-dasharray="none" stroke-miterlimit="4" stroke-opacity="1" stroke-width="1" d="m 12.500001,28.495693 -1,5.637161 0,6.37143 5,0 0,-6.425371 -1.09375,-5.58322 -2.90625,0 z"/><path id="rect2271" fill="#4e9a06" fill-opacity="1" fill-rule="evenodd" stroke="#2e5c02" stroke-miterlimit="4" stroke-opacity="1" stroke-width="1" d="m 5.491464,39.471053 24.008514,0 0,6.039078 -24.008514,0 0,-6.039078 z"/><path id="path3816" fill="#57ae06" fill-opacity="1" fill-rule="evenodd" stroke="#2e5c02" stroke-miterlimit="4" stroke-opacity="1" stroke-width="1" d="m 7.450819,33.505006 20.208675,0 1.839885,5.993972 -23.999394,0 1.950834,-5.993972 z"/><path id="path2413" fill="#ecd300" fill-opacity="1" fill-rule="evenodd" stroke="#786100" stroke-dasharray="none" stroke-miterlimit="4" stroke-opacity="1" stroke-width="1.05" d="m 32.823063,18.894651 a 6.330162,2.1770399 0 1 1 -12.660324,0 6.330162,2.1770399 0 1 1 12.660324,0 z" transform="matrix(0.790399,0,0,1.147562,15.575961,20.313975)"/><path id="path2789" fill="#edd400" fill-opacity="1" fill-rule="evenodd" stroke="#8c7200" stroke-dasharray="none" stroke-miterlimit="4" stroke-opacity="1" stroke-width="1.05" d="m 32.823063,18.894651 a 6.330162,2.1770399 0 1 1 -12.660324,0 6.330162,2.1770399 0 1 1 12.660324,0 z" transform="matrix(0.790399,0,0,1.147562,20.595241,9.3204212)"/><rect id="rect2441" width="23" height="1" x="6" y="43" fill="#2e5c02" fill-opacity="1" fill-rule="evenodd" stroke="none"/><path id="path2415" fill="none" stroke="none" d="m 32.823063,18.894651 a 6.330162,2.1770399 0 1 1 -12.660324,0 6.330162,2.1770399 0 1 1 12.660324,0 z" opacity=".6" transform="matrix(0.632511,0,0,0.687532,19.756491,29.006095)"/><rect id="rect2443" width="23" height="1" x="6" y="41" fill="#2e5c02" fill-opacity="1" fill-rule="evenodd" stroke="none"/><path id="path2417" fill="#ecd300" fill-opacity="1" fill-rule="evenodd" stroke="#8c7200" stroke-dasharray="none" stroke-miterlimit="4" stroke-opacity="1" stroke-width="1.05" d="m 32.823063,18.894651 a 6.330162,2.1770399 0 1 1 -12.660324,0 6.330162,2.1770399 0 1 1 12.660324,0 z" transform="matrix(0.790399,0,0,1.147562,15.585601,18.320405)"/><path id="path2791" fill="none" stroke="none" d="m 32.823063,18.894651 a 6.330162,2.1770399 0 1 1 -12.660324,0 6.330162,2.1770399 0 1 1 12.660324,0 z" opacity=".6" transform="matrix(0.632511,0,0,0.687532,24.775771,18.012525)"/><path id="path2419" fill="none" stroke="none" d="m 32.823063,18.894651 a 6.330162,2.1770399 0 1 1 -12.660324,0 6.330162,2.1770399 0 1 1 12.660324,0 z" opacity=".6" transform="matrix(0.632511,0,0,0.687532,19.766131,27.012525)"/><path id="path2421" fill="#ecd300" fill-opacity="1" fill-rule="evenodd" stroke="#8c7200" stroke-dasharray="none" stroke-miterlimit="4" stroke-opacity="1" stroke-width="1.05" d="m 32.823063,18.894651 a 6.330162,2.1770399 0 1 1 -12.660324,0 6.330162,2.1770399 0 1 1 12.660324,0 z" transform="matrix(0.790399,0,0,1.147562,15.585601,16.320415)"/><path id="path2797" fill="#edd400" fill-opacity="1" fill-rule="evenodd" stroke="#8c7200" stroke-dasharray="none" stroke-miterlimit="4" stroke-opacity="1" stroke-width="1.05" d="m 32.823063,18.894651 a 6.330162,2.1770399 0 1 1 -12.660324,0 6.330162,2.1770399 0 1 1 12.660324,0 z" transform="matrix(0.790399,0,0,1.147562,20.595241,7.3253372)"/><path id="path2269" fill="none" stroke="#fff" stroke-miterlimit="4" stroke-opacity="1" stroke-width="1" d="m 8.218751,34.531235 -1.28125,3.9375 21.15625,0 -1.21875,-3.9375 -18.65625,0 z" opacity=".25"/><path id="path2423" fill="none" stroke="none" d="m 32.823063,18.894651 a 6.330162,2.1770399 0 1 1 -12.660324,0 6.330162,2.1770399 0 1 1 12.660324,0 z" opacity=".6" transform="matrix(0.632511,0,0,0.687532,19.766131,25.012525)"/><path id="path2425" fill="#ecd300" fill-opacity="1" fill-rule="evenodd" stroke="#8c7200" stroke-dasharray="none" stroke-miterlimit="4" stroke-opacity="1" stroke-width="1.05" d="m 32.823063,18.894651 a 6.330162,2.1770399 0 1 1 -12.660324,0 6.330162,2.1770399 0 1 1 12.660324,0 z" transform="matrix(0.790399,0,0,1.147562,15.573031,14.315485)"/><path id="path2427" fill="none" stroke="none" d="m 32.823063,18.894651 a 6.330162,2.1770399 0 1 1 -12.660324,0 6.330162,2.1770399 0 1 1 12.660324,0 z" opacity=".6" transform="matrix(0.632511,0,0,0.687532,19.766131,23.006085)"/><path id="path2799" fill="#edd400" fill-opacity="1" fill-rule="evenodd" stroke="#8c7200" stroke-dasharray="none" stroke-miterlimit="4" stroke-opacity="1" stroke-width="1.05" d="m 32.823063,18.894651 a 6.330162,2.1770399 0 1 1 -12.660324,0 6.330162,2.1770399 0 1 1 12.660324,0 z" transform="matrix(0.790399,0,0,1.147562,20.582671,5.3204072)"/><path id="path2429" fill="#ecd300" fill-opacity="1" fill-rule="evenodd" stroke="#8c7200" stroke-dasharray="none" stroke-miterlimit="4" stroke-opacity="1" stroke-width="1.05" d="m 32.823063,18.894651 a 6.330162,2.1770399 0 1 1 -12.660324,0 6.330162,2.1770399 0 1 1 12.660324,0 z" transform="matrix(0.790399,0,0,1.147562,15.585601,12.313995)"/><path id="path2431" fill="none" stroke="none" d="m 32.823063,18.894651 a 6.330162,2.1770399 0 1 1 -12.660324,0 6.330162,2.1770399 0 1 1 12.660324,0 z" opacity=".6" transform="matrix(0.632511,0,0,0.687532,19.766131,21.006095)"/><path id="path2267" fill="#2e5c02" fill-opacity="1" fill-rule="evenodd" stroke="none" d="m 19.622213,-0.43681452 a 7.0710678,3.6239223 0 1 1 -14.1421353,0 7.0710678,3.6239223 0 1 1 14.1421353,0 z" transform="matrix(0.141421,0,0,0.137972,8.193789,33.544785)"/><path id="path3843" fill="#2e5c02" fill-opacity="1" fill-rule="evenodd" stroke="none" d="m 19.622213,-0.43681452 a 7.0710678,3.6239223 0 1 1 -14.1421353,0 7.0710678,3.6239223 0 1 1 14.1421353,0 z" transform="matrix(0.141421,0,0,0.137972,23.193791,33.544785)"/><path id="path3837" fill="#2e5c02" fill-opacity="1" fill-rule="evenodd" stroke="none" d="m 19.622213,-0.43681452 a 7.0710678,3.6239223 0 1 1 -14.1421353,0 7.0710678,3.6239223 0 1 1 14.1421353,0 z" transform="matrix(0.707106,0,0,0.413916,9.125007,36.680795)"/><path id="path3839" fill="#2e5c02" fill-opacity="1" fill-rule="evenodd" stroke="none" d="m 19.622213,-0.43681452 a 7.0710678,3.6239223 0 1 1 -14.1421353,0 7.0710678,3.6239223 0 1 1 14.1421353,0 z" transform="matrix(0.214339,0,0,0.137972,6.794192,37.544785)"/><path id="path3841" fill="#2e5c02" fill-opacity="1" fill-rule="evenodd" stroke="none" d="m 19.622213,-0.43681452 a 7.0710678,3.6239223 0 1 1 -14.1421353,0 7.0710678,3.6239223 0 1 1 14.1421353,0 z" transform="matrix(0.212132,0,0,0.137972,22.837501,37.560255)"/><path id="rect1372" fill="#d3d7cf" fill-opacity="1" fill-rule="evenodd" stroke="#555753" stroke-dasharray="none" stroke-miterlimit="4" stroke-opacity="1" stroke-width="1" d="m 16.500001,33.521293 -1,5.625214 0,6.357927 5,0 0,-6.411754 -1.09375,-5.571387 -2.90625,0 z"/><rect id="rect2721" width="4" height="5" x="16" y="40" fill="#888a85" fill-opacity="1" fill-rule="evenodd" stroke="none"/><rect id="rect2673" width="4" height="5" x="16" y="40" fill="url(#linearGradient2713)" fill-opacity="1" fill-rule="evenodd" stroke="none"/><path id="path2691" fill="#2e5c02" fill-opacity="1" fill-rule="evenodd" stroke="none" d="m 19.622213,-0.43681452 a 7.0710678,3.6239223 0 1 1 -14.1421353,0 7.0710678,3.6239223 0 1 1 14.1421353,0 z" transform="matrix(0.212132,0,0,0.137972,21.837501,35.560255)"/><path id="path2693" fill="#2e5c02" fill-opacity="1" fill-rule="evenodd" stroke="none" d="m 19.622213,-0.43681452 a 7.0710678,3.6239223 0 1 1 -14.1421353,0 7.0710678,3.6239223 0 1 1 14.1421353,0 z" transform="matrix(0.212132,0,0,0.137972,7.837501,35.560255)"/><path id="rect2743" fill="#fff" fill-opacity="1" fill-rule="evenodd" stroke="none" d="m 9.000002,5.9999852 30,0 c -12.160656,3.9101256 -11.337571,17.9999998 -30,17.9999998 l 0,-17.9999998 z" opacity=".2"/><path id="path2748" fill="#2e5c02" fill-opacity="1" fill-rule="evenodd" stroke="none" d="m 19.622213,-0.43681452 a 7.0710678,3.6239223 0 1 1 -14.1421353,0 7.0710678,3.6239223 0 1 1 14.1421353,0 z" transform="matrix(0.214339,0,0,0.137972,2.794191,32.560255)"/><path id="path2750" fill="#2e5c02" fill-opacity="1" fill-rule="evenodd" stroke="none" d="m 19.622213,-0.43681452 a 7.0710678,3.6239223 0 1 1 -14.1421353,0 7.0710678,3.6239223 0 1 1 14.1421353,0 z" transform="matrix(0.212132,0,0,0.137972,19.837501,32.560255)"/><path id="path2752" fill="#2e5c02" fill-opacity="1" fill-rule="evenodd" stroke="none" d="m 19.622213,-0.43681452 a 7.0710678,3.6239223 0 1 1 -14.1421353,0 7.0710678,3.6239223 0 1 1 14.1421353,0 z" transform="matrix(0.212132,0,0,0.137972,18.837501,30.560255)"/><path id="path2754" fill="#2e5c02" fill-opacity="1" fill-rule="evenodd" stroke="none" d="m 19.622213,-0.43681452 a 7.0710678,3.6239223 0 1 1 -14.1421353,0 7.0710678,3.6239223 0 1 1 14.1421353,0 z" transform="matrix(0.212132,0,0,0.137972,3.837502,30.560255)"/><path id="path2801" fill="#edd400" fill-opacity="1" fill-rule="evenodd" stroke="#8c7200" stroke-dasharray="none" stroke-miterlimit="4" stroke-opacity="1" stroke-width="1.05" d="m 32.823063,18.894651 a 6.330162,2.1770399 0 1 1 -12.660324,0 6.330162,2.1770399 0 1 1 12.660324,0 z" transform="matrix(0.790399,0,0,1.147562,20.595241,3.3189132)"/><path id="path2809" fill="#edd400" fill-opacity="1" fill-rule="evenodd" stroke="#8c7200" stroke-dasharray="none" stroke-miterlimit="4" stroke-opacity="1" stroke-width="1.05" d="m 32.823063,18.894651 a 6.330162,2.1770399 0 1 1 -12.660324,0 6.330162,2.1770399 0 1 1 12.660324,0 z" transform="matrix(0.790399,0,0,1.147562,20.595241,1.3189133)"/><path id="path2793" fill="#fce94f" fill-opacity="1" fill-rule="evenodd" stroke="#8c7200" stroke-dasharray="none" stroke-miterlimit="4" stroke-opacity="1" stroke-width="1.05" d="m 32.823063,18.894651 a 6.330162,2.1770399 0 1 1 -12.660324,0 6.330162,2.1770399 0 1 1 12.660324,0 z" transform="matrix(0.790399,0,0,1.147562,20.575961,-0.68450979)"/><path id="path2761" fill="#fce94f" fill-opacity="1" fill-rule="evenodd" stroke="#8c7200" stroke-dasharray="none" stroke-miterlimit="4" stroke-opacity="1" stroke-width="1.05" d="m 32.823063,18.894651 a 6.330162,2.1770399 0 1 1 -12.660324,0 6.330162,2.1770399 0 1 1 12.660324,0 z" transform="matrix(0.790399,0,0,1.147562,15.566321,10.313995)"/><path id="path2763" fill="none" stroke="#fff" stroke-dasharray="none" stroke-miterlimit="4" stroke-opacity="1" stroke-width="1.516" d="m 32.823063,18.894651 a 6.330162,2.1770399 0 1 1 -12.660324,0 6.330162,2.1770399 0 1 1 12.660324,0 z" opacity=".5" transform="matrix(0.632511,0,0,0.687532,19.746851,19.006095)"/><path id="path2795" fill="none" stroke="#fff" stroke-dasharray="none" stroke-miterlimit="4" stroke-opacity="1" stroke-width="1.516" d="m 32.823063,18.894651 a 6.330162,2.1770399 0 1 1 -12.660324,0 6.330162,2.1770399 0 1 1 12.660324,0 z" opacity=".5" transform="matrix(0.632511,0,0,0.687532,24.748691,8.0060922)"/></g></svg>