<svg xmlns="http://www.w3.org/2000/svg" xmlns:svg="http://www.w3.org/2000/svg" xmlns:xlink="http://www.w3.org/1999/xlink" id="svg7195" width="48" height="48"><defs id="defs7197"><linearGradient id="linearGradient6975"><stop id="stop6977" offset="0" stop-color="#fff" stop-opacity="1"/><stop id="stop6979" offset="1" stop-color="#fff" stop-opacity="0"/></linearGradient><linearGradient id="linearGradient7002" x1="22.539" x2="23.246" y1="41.656" y2="31.737" gradientUnits="userSpaceOnUse" xlink:href="#linearGradient6975"/><linearGradient id="linearGradient6964"><stop id="stop6967" offset="0" stop-color="#fff" stop-opacity="1"/><stop id="stop6969" offset="1" stop-color="#fff" stop-opacity="0"/></linearGradient><linearGradient id="linearGradient7000" x1="19.75" x2="19.75" y1="22.501" y2="13.937" gradientUnits="userSpaceOnUse" xlink:href="#linearGradient6964"/><linearGradient id="linearGradient6962"><stop id="stop6964" offset="0" stop-color="#babdb6" stop-opacity="1"/><stop id="stop6966" offset="1" stop-color="#babdb6" stop-opacity="0"/></linearGradient><linearGradient id="linearGradient6998" x1="8.438" x2="8.438" y1="11" y2="7.092" gradientTransform="matrix(1.8421053,0,0,1.9998392,2.8157881,0.503458)" gradientUnits="userSpaceOnUse" xlink:href="#linearGradient6962"/><linearGradient id="linearGradient6970"><stop id="stop6972" offset="0" stop-color="#eeeeec" stop-opacity="1"/><stop id="stop6974" offset="1" stop-color="#eeeeec" stop-opacity="0"/></linearGradient><linearGradient id="linearGradient6996" x1="10.563" x2="10.563" y1="11.85" y2="7.055" gradientTransform="matrix(1.8421053,0,0,1.9998392,2.8157881,0.503458)" gradientUnits="userSpaceOnUse" xlink:href="#linearGradient6970"/><linearGradient id="linearGradient7129"><stop id="stop7131" offset="0" stop-color="#000" stop-opacity="1"/><stop id="stop7133" offset="1" stop-color="#000" stop-opacity="0"/></linearGradient><radialGradient id="radialGradient5955" cx="11.314" cy="18.641" r="7.159" fx="11.314" fy="18.641" gradientTransform="matrix(1,0,0,0.4320988,0,10.586385)" gradientUnits="userSpaceOnUse" xlink:href="#linearGradient7129"/></defs><metadata id="metadata7200"/><g id="layer1"><path id="path5975" fill="url(#radialGradient5955)" fill-opacity="1" fill-rule="evenodd" stroke="none" stroke-dasharray="none" stroke-linecap="round" stroke-linejoin="miter" stroke-miterlimit="4" stroke-opacity="1" stroke-width="1" d="M 18.473165,18.641243 A 7.1594563,3.0935922 0 1 1 4.1542521,18.641243 A 7.1594563,3.0935922 0 1 1 18.473165,18.641243 z" opacity=".15" transform="matrix(2.5432565,0,0,1.5691033,-4.7741547,11.749798)"/><g id="g7012" transform="translate(-4.9294662e-4,-2.0001669)"><rect id="rect5987" width="38.987" height="19.962" x="4.508" y="6.521" fill="#d3d7cf" fill-opacity="1" fill-rule="evenodd" stroke="#888a85" stroke-dasharray="none" stroke-linecap="round" stroke-linejoin="miter" stroke-miterlimit="4" stroke-opacity="1" stroke-width="1" rx="4.484" ry="4.484"/><rect id="rect6983" width="29" height="8" x="9.5" y="12.5" fill="#fff" fill-opacity="1" fill-rule="evenodd" stroke="#babdb6" stroke-dasharray="none" stroke-linecap="round" stroke-linejoin="miter" stroke-miterlimit="4" stroke-opacity="1" stroke-width="1" rx="2.038" ry="2.038"/><rect id="rect6959" width="36.996" height="18.004" x="5.504" y="7.5" fill="none" fill-opacity="1" fill-rule="evenodd" stroke="#fff" stroke-dasharray="none" stroke-linecap="round" stroke-linejoin="miter" stroke-miterlimit="4" stroke-opacity="1" stroke-width="1" opacity=".55" rx="3.507" ry="3.507"/><rect id="rect5981" width="15" height="5" x="11" y="14" fill="#888a85" fill-opacity="1" fill-rule="evenodd" stroke="none" stroke-dasharray="none" stroke-linecap="round" stroke-linejoin="miter" stroke-miterlimit="4" stroke-opacity="1" stroke-width="1" rx=".535" ry=".535"/></g><g id="g6991" transform="translate(-4.9294662e-4,-1.6685546e-4)"><path id="path5977" fill="url(#linearGradient6996)" fill-opacity="1" fill-rule="evenodd" stroke="url(#linearGradient6998)" stroke-dasharray="none" stroke-dashoffset="0" stroke-linecap="round" stroke-linejoin="miter" stroke-miterlimit="4" stroke-opacity="1" stroke-width="1" marker-end="none" marker-mid="none" marker-start="none" d="M 18.506578,13.5 L 18.5,29.5 L 11.499998,29.501126 L 23.999999,43.5 L 36.499999,29.501126 L 29.520162,29.501126 L 29.520162,13.5 L 18.506578,13.5 z" display="inline" enable-background="accumulate" overflow="visible" visibility="visible" style="marker:none"/><path stroke-width="1" style="marker:none" id="path6962" fill="none" fill-opacity="1" fill-rule="evenodd" stroke="url(#linearGradient7000)" stroke-dashoffset="0" stroke-linecap="round" stroke-linejoin="miter" stroke-miterlimit="4" stroke-opacity="1" marker-end="none" marker-mid="none" marker-start="none" d="M 19.5,12.5 L 19.5,28.5 C 19.499945,29.052262 19.052262,29.499945 18.5,29.5 L 13.71875,29.5 L 24,41 L 34.28125,29.5 L 29.53125,29.5 C 28.978988,29.499945 28.531305,29.052262 28.53125,28.5 L 28.53125,12.5 L 19.5,12.5 z" display="inline" enable-background="accumulate" overflow="visible" transform="translate(0,1)" visibility="visible"/><path id="path6973" fill="url(#linearGradient7002)" fill-opacity="1" fill-rule="evenodd" stroke="none" stroke-dashoffset="0" stroke-linecap="round" stroke-linejoin="miter" stroke-miterlimit="4" stroke-opacity="1" stroke-width="1" marker-end="none" marker-mid="none" marker-start="none" d="M 19.0625,28.5 C 19.06368,28.649543 19.004796,28.793303 18.89905,28.89905 C 18.793303,29.004796 18.649543,29.06368 18.5,29.0625 L 12.75,29.0625 L 24,41.65625 L 35.25,29.0625 L 29.53125,29.0625 C 29.381707,29.06368 29.237947,29.004796 29.1322,28.89905 C 29.026454,28.793303 28.96757,28.649543 28.96875,28.5 L 19.0625,28.5 z" display="inline" enable-background="accumulate" opacity=".272" overflow="visible" transform="translate(0,1)" visibility="visible" style="marker:none"/></g></g></svg>