<svg xmlns="http://www.w3.org/2000/svg" xmlns:svg="http://www.w3.org/2000/svg" xmlns:xlink="http://www.w3.org/1999/xlink" id="svg8277" width="32" height="32"><defs id="defs8279"><linearGradient id="linearGradient4305-4-8-8" x1="71.999" x2="71.999" y1="14.258" y2="19.958" gradientTransform="matrix(1.0033404,0,0,1,-8.2374684,8)" gradientUnits="userSpaceOnUse"><stop id="stop4307-0-1-5" offset=".004" stop-color="#feebd6" stop-opacity="0"/><stop id="stop4309-8-0-7" offset=".461" stop-color="#f5f5f5" stop-opacity=".53"/><stop id="stop4311-0-3-4" offset="1" stop-color="#f5f5f5" stop-opacity="0"/></linearGradient><linearGradient id="linearGradient10493" x1="7.238" x2="132.86" y1="36.005" y2="35.858" gradientTransform="matrix(0.206832,0,0,0.942809,-1.3627107,-26.279216)" gradientUnits="userSpaceOnUse" xlink:href="#linearGradient4305-4-8-8"/><linearGradient id="linearGradient9065"><stop id="stop9067" offset="0" stop-color="#3465a4" stop-opacity="1"/><stop id="stop9069" offset="1" stop-color="#204a87" stop-opacity="1"/></linearGradient><linearGradient id="linearGradient10491" x1="144" x2="144.004" y1="97.02" y2="110.001" gradientTransform="translate(-133.99892,-91.000007)" gradientUnits="userSpaceOnUse" xlink:href="#linearGradient9065"/><linearGradient id="linearGradient9051"><stop id="stop9053" offset="0" stop-color="#8fb3d9" stop-opacity="1"/><stop id="stop9055" offset="1" stop-color="#3465a4" stop-opacity="1"/></linearGradient><linearGradient id="linearGradient10489" x1="28.109" x2="28.109" y1="327.612" y2="406.286" gradientTransform="matrix(0.1721822,0,0,0.1780642,7.1612795,-53.343896)" gradientUnits="userSpaceOnUse" xlink:href="#linearGradient9051"/><linearGradient id="linearGradient17648"><stop id="stop17650" offset="0" stop-color="#fff" stop-opacity=".6"/><stop id="stop17652" offset="1" stop-color="#fff" stop-opacity="0"/></linearGradient><linearGradient id="linearGradient6327" x1="24.69" x2="24.648" y1="9.903" y2="42.05" gradientTransform="matrix(0.4276737,0,0,0.4666684,1.4589973,-1.6235601)" gradientUnits="userSpaceOnUse" xlink:href="#linearGradient17648"/><linearGradient id="linearGradient6293"><stop id="stop6295" offset="0" stop-color="#888a85" stop-opacity="1"/><stop id="stop6297" offset="1" stop-color="#555753" stop-opacity="0"/></linearGradient><linearGradient id="linearGradient17644" x1="25.147" x2="25.146" y1="8.933" y2="32.88" gradientTransform="matrix(0.4357475,0,0,0.4664545,1.044256,-2.2591361)" gradientUnits="userSpaceOnUse" xlink:href="#linearGradient6293"/><radialGradient id="radialGradient2099" cx="605.714" cy="486.648" r="117.143" fx="605.714" fy="486.648" gradientTransform="matrix(-3.0266061,0,0,2.3636471,203.87112,-1112.9945)" gradientUnits="userSpaceOnUse" xlink:href="#linearGradient5060"/><linearGradient id="linearGradient5060"><stop id="stop5062" offset="0" stop-color="#000" stop-opacity="1"/><stop id="stop5064" offset="1" stop-color="#000" stop-opacity="0"/></linearGradient><radialGradient id="radialGradient2097" cx="605.714" cy="486.648" r="117.143" fx="605.714" fy="486.648" gradientTransform="matrix(3.0266061,0,0,2.3636471,-1982.7418,-1112.9945)" gradientUnits="userSpaceOnUse" xlink:href="#linearGradient5060"/><linearGradient id="linearGradient5048"><stop id="stop5050" offset="0" stop-color="#000" stop-opacity="0"/><stop id="stop5056" offset=".5" stop-color="#000" stop-opacity="1"/><stop id="stop5052" offset="1" stop-color="#000" stop-opacity="0"/></linearGradient><linearGradient id="linearGradient2095" x1="302.857" x2="302.857" y1="366.648" y2="609.505" gradientTransform="matrix(3.0266061,0,0,2.3636471,-1983.3374,-1112.9945)" gradientUnits="userSpaceOnUse" xlink:href="#linearGradient5048"/><linearGradient id="linearGradient8342" x1="302.857" x2="302.857" y1="366.648" y2="609.505" gradientTransform="matrix(3.0266061,0,0,2.3636471,-1983.3374,-1112.9945)" gradientUnits="userSpaceOnUse" xlink:href="#linearGradient5048"/><radialGradient id="radialGradient8344" cx="605.714" cy="486.648" r="117.143" fx="605.714" fy="486.648" gradientTransform="matrix(3.0266061,0,0,2.3636471,-1982.7418,-1112.9945)" gradientUnits="userSpaceOnUse" xlink:href="#linearGradient5060"/><radialGradient id="radialGradient8346" cx="605.714" cy="486.648" r="117.143" fx="605.714" fy="486.648" gradientTransform="matrix(-3.0266061,0,0,2.3636471,203.87112,-1112.9945)" gradientUnits="userSpaceOnUse" xlink:href="#linearGradient5060"/><linearGradient id="linearGradient8348" x1="25.147" x2="25.146" y1="8.933" y2="32.88" gradientTransform="matrix(0.4357475,0,0,0.4664545,10.044256,7.7408641)" gradientUnits="userSpaceOnUse" xlink:href="#linearGradient6293"/><linearGradient id="linearGradient8350" x1="24.69" x2="24.648" y1="9.903" y2="42.05" gradientTransform="matrix(0.4276737,0,0,0.4666684,10.458997,8.3764401)" gradientUnits="userSpaceOnUse" xlink:href="#linearGradient17648"/><linearGradient id="linearGradient8352" x1="28.109" x2="28.109" y1="327.612" y2="406.286" gradientTransform="matrix(0.1721822,0,0,0.1780642,16.161279,-43.343896)" gradientUnits="userSpaceOnUse" xlink:href="#linearGradient9051"/><linearGradient id="linearGradient8354" x1="144" x2="144.004" y1="97.02" y2="110.001" gradientTransform="translate(-124.99892,-81.000003)" gradientUnits="userSpaceOnUse" xlink:href="#linearGradient9065"/><linearGradient id="linearGradient8356" x1="7.238" x2="132.86" y1="36.005" y2="35.858" gradientTransform="matrix(0.206832,0,0,0.942809,7.6372891,-16.279216)" gradientUnits="userSpaceOnUse" xlink:href="#linearGradient4305-4-8-8"/></defs><metadata id="metadata8282"/><g id="layer1"><g id="g13071" display="inline" transform="matrix(9.9321963e-3,0,0,5.2262208e-3,20.835133,18.287575)"><rect id="rect13073" width="1461.418" height="574.029" x="-1620.145" y="-246.368" fill="url(#linearGradient2095)" fill-opacity="1" fill-rule="nonzero" stroke="none" stroke-dasharray="none" stroke-dashoffset="0" stroke-linecap="round" stroke-linejoin="miter" stroke-miterlimit="4" stroke-opacity="1" stroke-width="1" marker-end="none" marker-mid="none" marker-start="none" display="inline" opacity=".402" overflow="visible" visibility="visible" style="marker:none"/><path id="path13075" fill="url(#radialGradient2097)" fill-opacity="1" fill-rule="nonzero" stroke="none" stroke-dasharray="none" stroke-dashoffset="0" stroke-linecap="round" stroke-linejoin="miter" stroke-miterlimit="4" stroke-opacity="1" stroke-width="1" marker-end="none" marker-mid="none" marker-start="none" d="M -158.72638,-246.3485 C -158.72638,-246.3485 -158.72638,327.64843 -158.72638,327.64843 C -2.8636605,328.72897 218.07384,199.04484 218.07375,40.613027 C 218.07375,-117.81881 44.142695,-246.34848 -158.72638,-246.3485 z" display="inline" opacity=".402" overflow="visible" visibility="visible" style="marker:none"/><path id="path13077" fill="url(#radialGradient2099)" fill-opacity="1" fill-rule="nonzero" stroke="none" stroke-dasharray="none" stroke-dashoffset="0" stroke-linecap="round" stroke-linejoin="miter" stroke-miterlimit="4" stroke-opacity="1" stroke-width="1" marker-end="none" marker-mid="none" marker-start="none" d="M -1620.1447,-246.3485 C -1620.1447,-246.3485 -1620.1447,327.64843 -1620.1447,327.64843 C -1776.0075,328.72897 -1996.9449,199.04484 -1996.9449,40.613027 C -1996.9449,-117.81881 -1823.0139,-246.34848 -1620.1447,-246.3485 z" display="inline" opacity=".402" overflow="visible" visibility="visible" style="marker:none"/></g><path id="path15" fill="#eeeeec" fill-opacity="1" stroke="url(#linearGradient17644)" stroke-dasharray="none" stroke-miterlimit="4" stroke-width="1" d="M 21.502084,5.0000339 C 21.503428,4.743413 21.248162,4.5000339 21.002084,4.5000339 L 11.002194,4.5000339 L 9.2510825,3.0000339 C 9.0217735,2.8165329 8.7510725,2.5039399 8.5010825,2.5000339 L 3.0020828,2.5000339 C 2.6739799,2.5000339 2.5010828,2.6578739 2.5010828,3.0000339 L 2.5010828,18.5 L 21.501084,18.5 L 21.502084,5.0000339 z"/><path id="path7263" fill="none" fill-opacity="1" stroke="url(#linearGradient6327)" stroke-dasharray="none" stroke-miterlimit="4" stroke-opacity="1" stroke-width="1" d="M 20.502084,5.7500006 C 20.50886,5.4982601 20.507835,5.4945096 20.251084,5.5000339 L 10.601084,5.5000339 L 8.9010825,4.0000339 C 8.1550335,3.4013773 8.4065965,3.5141133 8.0010825,3.5000339 L 3.7510825,3.5000339 C 3.4455736,3.5000339 3.5010825,3.4290786 3.5010825,3.7500006 L 3.5010825,5.0000339 L 3.5020828,17.5 L 20.502084,17.5 L 20.502084,5.7500006 z" opacity="1"/><path id="path11507" fill="url(#linearGradient10489)" fill-opacity="1" stroke="url(#linearGradient10491)" stroke-dasharray="none" stroke-miterlimit="4" stroke-opacity="1" stroke-width="1" d="M 22.001084,18 C 22.001084,18.495153 21.517091,18.507964 21.001084,18.5 L 3.0010831,18.5 C 2.504995,18.5 2.0041775,18.504478 2.0010831,18 L 1.5010831,7.0000003 C 1.4803631,6.7070813 1.7160031,6.5000003 2.0010831,6.5000003 L 22.001084,6.5000003 C 22.286174,6.5000003 22.522854,6.7070813 22.501084,7.0000003 L 22.001084,18 z" display="inline" enable-background="new" opacity=".9"/><rect id="rect3521-5-0-1" width="20" height="1" x="2.001" y="7" fill="url(#linearGradient10493)" fill-opacity="1" stroke="none" display="inline" enable-background="new" rx="0" ry="0"/><g id="g8326" display="inline" transform="matrix(9.9321963e-3,0,0,5.2262208e-3,28.835133,29.287575)"><rect id="rect8328" width="1461.418" height="574.029" x="-1620.145" y="-246.368" fill="url(#linearGradient8342)" fill-opacity="1" fill-rule="nonzero" stroke="none" stroke-dasharray="none" stroke-dashoffset="0" stroke-linecap="round" stroke-linejoin="miter" stroke-miterlimit="4" stroke-opacity="1" stroke-width="1" marker-end="none" marker-mid="none" marker-start="none" display="inline" opacity=".402" overflow="visible" visibility="visible" style="marker:none"/><path id="path8330" fill="url(#radialGradient8344)" fill-opacity="1" fill-rule="nonzero" stroke="none" stroke-dasharray="none" stroke-dashoffset="0" stroke-linecap="round" stroke-linejoin="miter" stroke-miterlimit="4" stroke-opacity="1" stroke-width="1" marker-end="none" marker-mid="none" marker-start="none" d="M -158.72638,-246.3485 C -158.72638,-246.3485 -158.72638,327.64843 -158.72638,327.64843 C -2.8636605,328.72897 218.07384,199.04484 218.07375,40.613027 C 218.07375,-117.81881 44.142695,-246.34848 -158.72638,-246.3485 z" display="inline" opacity=".402" overflow="visible" visibility="visible" style="marker:none"/><path id="path8332" fill="url(#radialGradient8346)" fill-opacity="1" fill-rule="nonzero" stroke="none" stroke-dasharray="none" stroke-dashoffset="0" stroke-linecap="round" stroke-linejoin="miter" stroke-miterlimit="4" stroke-opacity="1" stroke-width="1" marker-end="none" marker-mid="none" marker-start="none" d="M -1620.1447,-246.3485 C -1620.1447,-246.3485 -1620.1447,327.64843 -1620.1447,327.64843 C -1776.0075,328.72897 -1996.9449,199.04484 -1996.9449,40.613027 C -1996.9449,-117.81881 -1823.0139,-246.34848 -1620.1447,-246.3485 z" display="inline" opacity=".402" overflow="visible" visibility="visible" style="marker:none"/></g><path id="path8334" fill="#eeeeec" fill-opacity="1" stroke="url(#linearGradient8348)" stroke-dasharray="none" stroke-miterlimit="4" stroke-width="1" d="M 29.502084,16.000034 C 29.503428,15.743413 29.248162,15.500034 29.002084,15.500034 L 19.002194,15.500034 L 17.251082,14.000034 C 17.021773,13.816533 16.751072,13.50394 16.501082,13.500034 L 11.002083,13.500034 C 10.67398,13.500034 10.501083,13.657874 10.501083,14.000034 L 10.501083,29.5 L 29.501084,29.5 L 29.502084,16.000034 z"/><path id="path8336" fill="none" fill-opacity="1" stroke="url(#linearGradient8350)" stroke-dasharray="none" stroke-miterlimit="4" stroke-opacity="1" stroke-width="1" d="M 28.502084,16.750001 C 28.50886,16.49826 28.507835,16.49451 28.251084,16.500034 L 18.601083,16.500034 L 16.901082,15.000034 C 16.155033,14.401377 16.406596,14.514113 16.001082,14.500034 L 11.751082,14.500034 C 11.445573,14.500034 11.501082,14.429079 11.501082,14.750001 L 11.501082,16.000034 L 11.502083,28.5 L 28.502084,28.5 L 28.502084,16.750001 z" opacity="1"/><path id="path8338" fill="url(#linearGradient8352)" fill-opacity="1" stroke="url(#linearGradient8354)" stroke-dasharray="none" stroke-miterlimit="4" stroke-opacity="1" stroke-width="1" d="M 30.001084,29 C 30.001084,29.495153 29.517091,29.507964 29.001084,29.5 L 11.001083,29.5 C 10.504995,29.5 10.004177,29.504478 10.001083,29 L 9.5010831,18 C 9.4803631,17.707081 9.7160031,17.5 10.001083,17.5 L 30.001084,17.5 C 30.286174,17.5 30.522854,17.707081 30.501084,18 L 30.001084,29 z" display="inline" enable-background="new" opacity=".9"/><rect id="rect8340" width="20" height="1" x="10.001" y="18" fill="url(#linearGradient8356)" fill-opacity="1" stroke="none" display="inline" enable-background="new" rx="0" ry="0"/></g></svg>