<svg xmlns="http://www.w3.org/2000/svg" xmlns:svg="http://www.w3.org/2000/svg" xmlns:xlink="http://www.w3.org/1999/xlink" id="svg7204" width="32" height="32"><defs id="defs7206"><linearGradient id="linearGradient5113"><stop id="stop5115" offset="0" stop-color="#fff" stop-opacity="1"/><stop id="stop5117" offset="1" stop-color="#fff" stop-opacity="0"/></linearGradient><linearGradient id="linearGradient5807" x1="58.749" x2="105.324" y1="2.048" y2="58.048" gradientTransform="matrix(0.6206105,0,0,0.6141579,-31.743596,0.3689402)" gradientUnits="userSpaceOnUse" xlink:href="#linearGradient5113"/><linearGradient id="linearGradient3163"><stop id="stop3165" offset="0" stop-color="#729fcf" stop-opacity="1"/><stop id="stop3167" offset="1" stop-color="#3465a4" stop-opacity="1"/></linearGradient><linearGradient id="linearGradient3169" x1="17" x2="17" y1="7" y2="26" gradientTransform="translate(-3.0010625e-4,2.0861625e-7)" gradientUnits="userSpaceOnUse" xlink:href="#linearGradient3163"/><linearGradient id="linearGradient5105"><stop id="stop5107" offset="0" stop-color="#000" stop-opacity="1"/><stop id="stop5109" offset="1" stop-color="#000" stop-opacity="0"/></linearGradient><radialGradient id="radialGradient5817" cx="11.25" cy="19.031" r="8.063" fx="11.25" fy="19.031" gradientTransform="matrix(1,0,0,0.282946,0,13.64644)" gradientUnits="userSpaceOnUse" xlink:href="#linearGradient5105"/></defs><metadata id="metadata7209"/><g id="layer1"><path id="path5786" fill="url(#radialGradient5817)" fill-opacity="1" fill-rule="nonzero" stroke="none" stroke-dasharray="none" stroke-dashoffset="0" stroke-linecap="butt" stroke-linejoin="miter" stroke-miterlimit="4" stroke-opacity="1" stroke-width="1" marker-end="none" marker-mid="none" marker-start="none" d="M 19.3125,19.03125 A 8.0625,2.28125 0 1 1 3.1875,19.03125 A 8.0625,2.28125 0 1 1 19.3125,19.03125 z" display="inline" opacity=".163" overflow="visible" transform="matrix(1.5518507,0,0,1.4807107,-0.6325241,-6.2789898)" visibility="visible" style="marker:none"/><path id="path5792" fill="url(#linearGradient3169)" fill-opacity="1" fill-rule="nonzero" stroke="#204a87" stroke-dasharray="none" stroke-dashoffset="0" stroke-linecap="butt" stroke-linejoin="miter" stroke-miterlimit="4" stroke-opacity="1" stroke-width="1" marker-end="none" marker-mid="none" marker-start="none" d="M 28.4997,17.50775 L 21.06499,26.5 L 13.66754,17.50775 L 17.43071,17.50775 C 18.69542,14.1385 16.19337,12.14955 13.18597,12 C 10.5236,11.8676 8.03218,13.43449 6.9997,16 C 6.62262,16.57116 5.372041,17.21622 5.499181,15.2507 C 5.468324,10.74191 9.49742,6.4896701 15.25719,6.5000001 C 21.01696,6.5103301 24.894,10.83581 24.57704,17.50775 L 28.4997,17.50775 z" display="inline" overflow="visible" visibility="visible" style="marker:none"/><path id="path5798" fill="none" fill-opacity="1" fill-rule="nonzero" stroke="url(#linearGradient5807)" stroke-dasharray="none" stroke-dashoffset="0" stroke-linecap="butt" stroke-linejoin="miter" stroke-miterlimit="4" stroke-opacity="1" stroke-width="1" marker-end="none" marker-mid="none" marker-start="none" d="M 26.43055,18.5316 L 21.06499,25.0937 L 15.67816,18.5316 L 18.11179,18.56472 C 19.9997,15.18886 17.54156,11.10517 13.7076,11 C 10.62141,10.91534 8.0629,11.94747 6.882961,14.24197 C 6.635564,11.52012 10.36989,7.5031201 15.21819,7.4817101 C 20.06649,7.4603001 24.21185,10.53814 23.59513,18.5316 L 26.43055,18.5316 z" display="inline" enable-background="accumulate" opacity=".354" overflow="visible" visibility="visible" style="marker:none"/></g></svg>