<svg xmlns="http://www.w3.org/2000/svg" xmlns:svg="http://www.w3.org/2000/svg" xmlns:xlink="http://www.w3.org/1999/xlink" id="svg6011" width="48" height="48" version="1.1"><defs id="defs6013"><linearGradient id="linearGradient2542" x1="302.342" x2="271.077" y1="1498.557" y2="1455.524" gradientUnits="userSpaceOnUse" xlink:href="#SVGID_35_"/><linearGradient id="SVGID_35_" x1="302.342" x2="271.077" y1="1498.557" y2="1455.524" gradientUnits="userSpaceOnUse"><stop id="stop2188" offset="0" stop-color="#9b9b9b" stop-opacity="1"/><stop id="stop2190" offset="1" stop-color="#ececec" stop-opacity="1"/></linearGradient></defs><g id="layer1"><g id="g2179" opacity=".3" transform="translate(-262.064,-1453.039)"><g id="g2181"><path id="path2183" d="m 306.349,1454.041 -40.281,0 c -1.657,0 -3.004,1.348 -3.004,3.004 l 0,39.99 c 0,1.656 1.347,3.004 3.004,3.004 l 40.281,0 c 1.658,0 3.006,-1.348 3.006,-3.004 l 0,-39.99 c 0,-1.656 -1.348,-3.004 -3.006,-3.004 z m 1.006,42.993 c 0,0.556 -0.449,1.006 -1.006,1.006 l -40.28,0 c -0.555,0 -1.005,-0.45 -1.005,-1.006 l 0,-39.988 c 0,-0.556 0.45,-1.006 1.005,-1.006 l 40.28,0 c 0.557,0 1.006,0.45 1.006,1.006 l 0,39.988 z"/></g></g><g id="g2185" transform="translate(-262.064,-1453.039)"><linearGradient id="linearGradient5520" x1="302.342" x2="271.077" y1="1498.557" y2="1455.524" gradientUnits="userSpaceOnUse"><stop id="stop5522" offset="0" stop-color="#9b9b9b" stop-opacity="1"/><stop id="stop5524" offset="1" stop-color="#ececec" stop-opacity="1"/></linearGradient><path id="path2192" fill="url(#linearGradient2542)" d="m 307.355,1497.034 c 0,0.556 -0.449,1.006 -1.006,1.006 l -40.28,0 c -0.555,0 -1.005,-0.45 -1.005,-1.006 l 0,-39.988 c 0,-0.556 0.45,-1.006 1.005,-1.006 l 40.28,0 c 0.557,0 1.006,0.45 1.006,1.006 l 0,39.988 z"/></g><g id="g2194" opacity=".2" transform="translate(-262.064,-1453.039)"><g id="g2196"><path id="path2198" fill="#fff" d="m 306.349,1456.04 -40.28,0 c -0.555,0 -1.005,0.45 -1.005,1.006 l 0,39.988 c 0,0.556 0.45,1.006 1.005,1.006 l 40.28,0 c 0.557,0 1.006,-0.45 1.006,-1.006 l 0,-39.988 c 0,-0.556 -0.449,-1.006 -1.006,-1.006 z m 0,41 -40.28,0 -0.004,-39.993 40.284,-0.01 0.006,39.994 -0.006,0.01 z"/></g></g><g id="g2200" opacity=".2" transform="translate(-262.064,-1453.039)"><g id="g2202"><path id="path2204" fill="#fff" d="m 266.065,1457.047 41.289,-0.01 c -0.003,-0.553 -0.45,-1 -1.005,-1 l -40.28,0 c -0.555,0 -1.005,0.45 -1.005,1.006 l 0,39.988 c 0,0.556 0.45,1.006 1.005,1.006 l -0.004,-40.993 z"/></g></g></g></svg>