<svg xmlns="http://www.w3.org/2000/svg" xmlns:svg="http://www.w3.org/2000/svg" xmlns:xlink="http://www.w3.org/1999/xlink" id="svg3773" width="48" height="48" version="1.1"><defs id="defs3775"><linearGradient id="linearGradient3090" x1="39.098" x2="13.965" y1="42.162" y2="7.57" gradientTransform="translate(0,1.121)" gradientUnits="userSpaceOnUse" xlink:href="#SVGID_1_"/><linearGradient id="SVGID_1_" x1="39.098" x2="13.965" y1="42.162" y2="7.57" gradientUnits="userSpaceOnUse"><stop id="stop252" offset="0" stop-color="#9b9b9b" stop-opacity="1"/><stop id="stop254" offset="1" stop-color="#ececec" stop-opacity="1"/></linearGradient><linearGradient id="linearGradient3888" x1="37.841" x2="37.841" y1="13.068" y2="29.068" gradientUnits="userSpaceOnUse" xlink:href="#SVGID_3_"/><linearGradient id="SVGID_3_" x1="37.841" x2="37.841" y1="13.068" y2="29.068" gradientUnits="userSpaceOnUse"><stop id="stop3770" offset="0" stop-color="#ff6363" stop-opacity="1"/><stop id="stop3772" offset="1" stop-color="#c00" stop-opacity="1"/></linearGradient></defs><g id="layer1"><g id="g238" opacity=".3" transform="translate(0,1.121)"><g id="g240"><path id="path242" d="M 19.267,7.046 C 18.677,6.757 18.016,6.605 17.36,6.605 c -0.958,0 -1.902,0.324 -2.664,0.912 L 7.485,13.115 4.34,13.117 c -1.143,0 -2.263,0.462 -3.07,1.271 C 0.462,15.193 0,16.314 0,17.457 l 0,10.846 c 0,2.396 1.948,4.344 4.419,4.344 l 3.066,0 7.217,5.602 c 0.759,0.584 1.702,0.905 2.655,0.905 0.661,0 1.321,-0.152 1.911,-0.441 1.502,-0.736 2.432,-2.23 2.432,-3.901 l 0,-23.869 C 21.697,9.272 20.767,7.78 19.267,7.046 z m 0.435,27.765 c 0,0.898 -0.508,1.711 -1.312,2.105 -0.328,0.16 -0.68,0.238 -1.031,0.238 -0.51,0 -1.016,-0.166 -1.435,-0.49 l -7.754,-6.017 -3.83,0 c -1.293,0 -2.342,-1.049 -2.342,-2.344 l 0,-10.847 c 0,-0.617 0.25,-1.22 0.686,-1.655 0.437,-0.437 1.039,-0.687 1.656,-0.687 l 3.832,-0.001 7.75,-6.016 c 0.708,-0.549 1.662,-0.647 2.467,-0.253 0.805,0.394 1.312,1.206 1.312,2.104 l 0,23.863 0.001,0 z"/></g></g><path id="path256" fill="url(#linearGradient3090)" d="m 19.702,12.068 0,23.864 c 0,0.898 -0.508,1.711 -1.312,2.105 -0.328,0.16 -0.68,0.238 -1.031,0.238 -0.51,0 -1.016,-0.166 -1.435,-0.49 l -7.754,-6.017 -3.75,0 c -0.026,0 -0.053,0 -0.08,0 -1.293,0 -2.342,-1.049 -2.342,-2.344 l 0,-10.847 c 0,-0.617 0.25,-1.22 0.686,-1.655 0.437,-0.437 1.039,-0.687 1.656,-0.687 l 3.832,-10e-4 7.75,-6.016 c 0.708,-0.549 1.662,-0.647 2.467,-0.253 0.805,0.394 1.312,1.206 1.313,2.103 z"/><path id="path262" fill="#fff" d="m 8.653,32.143 7.27,5.643 c 0.163,0.126 0.342,0.221 0.527,0.299 l -7.654,-5.941 -0.143,0 0,-10e-4 z m 7.269,-21.925 -7.75,6.016 -3.832,10e-4 c -0.617,0 -1.219,0.25 -1.656,0.687 -0.436,0.436 -0.686,1.039 -0.686,1.655 l 0,10.847 c 0,0.991 0.617,1.834 1.486,2.177 -0.521,-0.43 -0.861,-1.072 -0.861,-1.802 l 0,-10.847 c 0,-0.617 0.25,-1.22 0.686,-1.655 C 3.746,16.86 4.348,16.61 4.965,16.61 l 3.832,-10e-4 7.75,-6.016 c 0.669,-0.519 1.554,-0.619 2.329,-0.298 -0.148,-0.126 -0.307,-0.242 -0.487,-0.33 -0.805,-0.394 -1.758,-0.297 -2.467,0.253 z" opacity=".5"/><g id="g3875" transform="translate(0,-0.4194583)"><g id="Layer_7" transform="translate(0.2192096,3.2099582)"><path id="path3766" d="m 42.772,31.208 c -0.642,0 -1.242,-0.247 -1.691,-0.699 l -3.239,-3.239 -3.241,3.241 c -0.443,0.443 -1.061,0.697 -1.691,0.697 -0.628,0 -1.222,-0.241 -1.674,-0.679 l -2.694,-2.696 c -0.438,-0.425 -0.699,-1.05 -0.699,-1.692 0,-0.629 0.256,-1.246 0.701,-1.691 l 3.239,-3.239 -3.239,-3.239 c -0.927,-0.937 -0.927,-2.447 -0.011,-3.375 l 2.685,-2.682 c 0.452,-0.454 1.053,-0.704 1.692,-0.704 0.646,0 1.25,0.253 1.701,0.712 l 3.231,3.23 3.239,-3.239 c 0.425,-0.439 1.05,-0.702 1.691,-0.702 0.63,0 1.246,0.256 1.692,0.702 l 2.674,2.674 c 0.439,0.425 0.701,1.05 0.701,1.692 0,0.629 -0.256,1.246 -0.701,1.691 l -3.239,3.239 3.239,3.239 c 0.454,0.452 0.701,1.053 0.701,1.691 0,0.64 -0.247,1.24 -0.701,1.692 l -2.672,2.676 c -0.451,0.453 -1.052,0.7 -1.694,0.7 l 0,0 z" opacity=".3"/></g><g id="Layer_9" transform="translate(0.2192096,3.2099582)"><linearGradient id="linearGradient3856" x1="37.841" x2="37.841" y1="13.068" y2="29.068" gradientUnits="userSpaceOnUse"><stop id="stop3858" offset="0" stop-color="#ff6363" stop-opacity="1"/><stop id="stop3860" offset="1" stop-color="#c00" stop-opacity="1"/></linearGradient><path id="path3774" fill="url(#linearGradient3888)" d="m 41.073,21.069 4.652,-4.653 c 0.073,-0.073 0.115,-0.175 0.115,-0.278 0,-0.103 -0.042,-0.205 -0.115,-0.279 L 43.05,13.185 c -0.073,-0.074 -0.175,-0.115 -0.278,-0.115 -0.104,0 -0.206,0.041 -0.278,0.115 l -4.653,4.652 -4.653,-4.652 c -0.153,-0.154 -0.402,-0.154 -0.557,0 l -2.674,2.674 c -0.154,0.154 -0.154,0.404 0,0.558 l 4.652,4.653 -4.653,4.652 c -0.073,0.073 -0.115,0.175 -0.115,0.278 0,0.103 0.042,0.205 0.115,0.278 l 2.675,2.675 c 0.073,0.073 0.175,0.115 0.278,0.115 0.104,0 0.206,-0.042 0.278,-0.115 l 4.653,-4.652 4.653,4.652 c 0.074,0.074 0.173,0.115 0.278,0.115 0.105,0 0.204,-0.041 0.278,-0.115 l 2.675,-2.675 c 0.074,-0.074 0.115,-0.173 0.115,-0.278 0,-0.105 -0.041,-0.204 -0.115,-0.278 l -4.651,-4.653 z"/></g><g id="Layer_8" transform="translate(0.2192096,3.2099582)"><g id="g3778" opacity=".4"><g id="g3780"><path id="path3782" fill="#fff" d="m 43.051,13.184 c -0.073,-0.074 -0.175,-0.115 -0.278,-0.115 -0.104,0 -0.206,0.042 -0.278,0.115 l -4.497,4.497 0.531,0.531 4.653,-4.652 c 0.043,-0.043 0.096,-0.071 0.153,-0.091 l -0.284,-0.285 z m -7.754,8.26 -4.652,-4.653 c -0.154,-0.153 -0.154,-0.403 0,-0.558 l 2.674,-2.674 c 0.045,-0.044 0.098,-0.072 0.153,-0.091 l -0.284,-0.284 c -0.153,-0.154 -0.402,-0.154 -0.557,0 l -2.674,2.674 c -0.154,0.154 -0.154,0.404 0,0.557 l 4.652,4.653 -4.653,4.653 c -0.073,0.073 -0.115,0.175 -0.115,0.278 0,0.103 0.042,0.205 0.115,0.278 l 2.675,2.675 c 0.073,0.073 0.175,0.115 0.278,0.115 0.043,0 0.084,-0.012 0.125,-0.024 l -2.391,-2.391 c -0.073,-0.073 -0.115,-0.175 -0.115,-0.278 0,-0.103 0.042,-0.205 0.115,-0.278 l 4.654,-4.652 z m 3.075,3.388 4.122,4.121 c 0.074,0.074 0.173,0.115 0.278,0.115 0.044,0 0.085,-0.011 0.125,-0.024 l -4.369,-4.368 -0.156,0.156 z"/></g></g></g></g></g></svg>