<svg xmlns="http://www.w3.org/2000/svg" xmlns:svg="http://www.w3.org/2000/svg" xmlns:xlink="http://www.w3.org/1999/xlink" id="svg14223" width="48" height="48" version="1.1"><defs id="defs14225"><linearGradient id="linearGradient2774" x1="24" x2="24" y1="45.131" y2="4.001" gradientUnits="userSpaceOnUse" xlink:href="#SVGID_4_"/><linearGradient id="SVGID_4_" x1="24" x2="24" y1="45.131" y2="4.001" gradientUnits="userSpaceOnUse"><stop id="stop279" offset="0" stop-color="#9b9b9b" stop-opacity="1"/><stop id="stop281" offset="1" stop-color="#ececec" stop-opacity="1"/></linearGradient><linearGradient id="SVGID_5_" x1="5.626" x2="5.626" y1="12.206" y2="2" gradientUnits="userSpaceOnUse"><stop id="stop303" offset="0" stop-color="#9b9b9b" stop-opacity="1"/><stop id="stop305" offset="1" stop-color="#ececec" stop-opacity="1"/></linearGradient><linearGradient id="linearGradient14217" x1="24" x2="24" y1="45.131" y2="4.001" gradientUnits="userSpaceOnUse" xlink:href="#SVGID_4_"/><linearGradient id="linearGradient14219" x1="24" x2="24" y1="45.131" y2="4.001" gradientUnits="userSpaceOnUse" xlink:href="#SVGID_4_"/><linearGradient id="linearGradient14221" x1="24" x2="24" y1="45.131" y2="4.001" gradientUnits="userSpaceOnUse" xlink:href="#SVGID_4_"/></defs><g id="layer1"><g id="Layer_2" opacity=".3" transform="translate(0,0.435)"><g id="g238"><g id="g240"><path id="path242" d="m 44.088,2.002 -5.74,0 c -2.158,0 -3.912,1.753 -3.912,3.912 l 0,5.169 c -0.548,-0.292 -1.164,-0.474 -1.827,-0.474 l -5.739,0 c -2.157,0 -3.913,1.756 -3.913,3.914 l 0,5.169 C 22.41,19.4 21.794,19.218 21.131,19.218 l -5.739,0 c -2.158,0 -3.912,1.756 -3.912,3.914 l 0,5.169 C 10.932,28.009 10.316,27.827 9.652,27.827 l -5.739,0 c -2.158,0 -3.912,1.753 -3.912,3.911 l 0,11.479 c 0,2.158 1.753,3.914 3.912,3.914 l 5.739,0 c 1.138,0 2.154,-0.496 2.87,-1.273 0.715,0.777 1.731,1.273 2.869,1.273 l 5.739,0 c 1.138,0 2.154,-0.496 2.869,-1.273 0.716,0.777 1.732,1.273 2.87,1.273 l 5.739,0 c 1.138,0 2.154,-0.496 2.869,-1.273 0.716,0.777 1.731,1.273 2.87,1.273 l 5.74,0 c 2.157,0 3.911,-1.754 3.911,-3.912 l 0,-37.305 C 47.999,3.755 46.245,2.002 44.088,2.002 z M 11.565,43.218 c 0,1.057 -0.857,1.913 -1.913,1.913 l -5.739,0 C 2.856,45.131 2,44.274 2,43.218 L 2,31.739 c 0,-1.057 0.856,-1.913 1.913,-1.913 l 5.739,0 c 1.056,0 1.913,0.856 1.913,1.913 l 0,11.479 0,0 z m 11.478,0 c 0,1.057 -0.856,1.913 -1.913,1.913 l -5.739,0 c -1.056,0 -1.913,-0.856 -1.913,-1.913 l 0,-20.087 c 0,-1.057 0.857,-1.913 1.913,-1.913 l 5.739,0 c 1.057,0 1.913,0.856 1.913,1.913 l 0,20.087 z m 11.478,0 c 0,1.057 -0.856,1.913 -1.913,1.913 l -5.739,0 c -1.056,0 -1.913,-0.856 -1.913,-1.913 l 0,-28.696 c 0,-1.057 0.857,-1.913 1.913,-1.913 l 5.739,0 c 1.057,0 1.913,0.856 1.913,1.913 l 0,28.696 z m 11.479,0 c 0,1.057 -0.856,1.913 -1.913,1.913 l -5.739,0 c -1.057,0 -1.913,-0.856 -1.913,-1.913 l 0,-37.305 C 36.435,4.857 37.291,4 38.348,4 l 5.739,0 C 45.144,4 46,4.857 46,5.913 l 0,37.305 z"/></g></g></g><g id="g2825" transform="translate(0,0.435)"><path id="path2799" fill="url(#linearGradient14217)" d="m 21.13,21.218 -5.739,0 c -1.056,0 -1.913,0.856 -1.913,1.913 l 0,20.087 c 0,1.057 0.857,1.913 1.913,1.913 l 5.739,0 c 1.057,0 1.913,-0.856 1.913,-1.913 l 0,-20.087 c 0,-1.057 -0.856,-1.913 -1.913,-1.913 z"/><path id="path2815" fill="#fff" d="m 21.13,21.218 -5.739,0 c -1.056,0 -1.913,0.856 -1.913,1.913 l 0,20.087 c 0,0.432 0.148,0.825 0.389,1.145 -0.087,-0.219 -0.139,-0.457 -0.139,-0.707 l 0,-20.088 c 0,-1.057 0.857,-1.913 1.913,-1.913 l 5.739,0 c 0.625,0 1.175,0.304 1.524,0.769 -0.281,-0.706 -0.967,-1.206 -1.774,-1.206 z" opacity=".4"/></g><g id="g2817" opacity=".3" transform="translate(0,0.435)"><path id="path283" fill="url(#linearGradient14219)" d="m 44.087,4 -5.739,0 c -1.057,0 -1.913,0.857 -1.913,1.913 l 0,37.305 c 0,1.057 0.856,1.913 1.913,1.913 l 5.739,0 C 45.144,45.131 46,44.275 46,43.218 L 46,5.913 C 46,4.857 45.144,4 44.087,4 z"/><path id="path2813" fill="#fff" d="m 44.087,4 -5.739,0 c -1.057,0 -1.913,0.857 -1.913,1.913 l 0,37.305 c 0,0.432 0.147,0.825 0.389,1.145 -0.087,-0.219 -0.139,-0.457 -0.139,-0.707 l 0,-37.305 c 0,-1.056 0.856,-1.913 1.913,-1.913 l 5.739,0 c 0.625,0 1.175,0.305 1.524,0.769 C 45.58,4.5 44.894,4 44.087,4 z" opacity=".4"/></g><g id="g2829" transform="translate(0,0.435)"><path id="path2801" fill="url(#linearGradient14221)" d="m 9.652,29.826 -5.739,0 C 2.856,29.826 2,30.683 2,31.739 l 0,11.479 c 0,1.057 0.856,1.913 1.913,1.913 l 5.739,0 c 1.056,0 1.913,-0.856 1.913,-1.913 l 0,-11.479 c 0,-1.056 -0.857,-1.913 -1.913,-1.913 z"/><path id="path2811" fill="#fff" d="m 9.652,29.826 -5.739,0 C 2.856,29.826 2,30.683 2,31.739 L 2,43.218 C 2,43.65 2.148,44.043 2.389,44.363 2.302,44.144 2.25,43.906 2.25,43.656 l 0,-11.479 c 0,-1.057 0.856,-1.913 1.913,-1.913 l 5.739,0 c 0.625,0 1.175,0.305 1.524,0.769 -0.281,-0.707 -0.968,-1.207 -1.774,-1.207 z" opacity=".4"/></g><g id="g2821" opacity=".3" transform="translate(0,0.435)"><path id="path2797" fill="url(#linearGradient2774)" d="m 32.608,12.609 -5.739,0 c -1.056,0 -1.913,0.856 -1.913,1.913 l 0,28.696 c 0,1.057 0.857,1.913 1.913,1.913 l 5.739,0 c 1.057,0 1.913,-0.856 1.913,-1.913 l 0,-28.696 c 0,-1.057 -0.856,-1.913 -1.913,-1.913 z"/><path id="path290" fill="#fff" d="m 32.608,12.609 -5.739,0 c -1.056,0 -1.913,0.856 -1.913,1.913 l 0,28.696 c 0,0.431 0.148,0.824 0.389,1.145 -0.087,-0.219 -0.139,-0.457 -0.139,-0.707 l 0,-28.697 c 0,-1.057 0.857,-1.913 1.913,-1.913 l 5.739,0 c 0.625,0 1.175,0.304 1.524,0.768 -0.28,-0.705 -0.967,-1.205 -1.774,-1.205 z" opacity=".4"/></g><g id="Layer_6_copy_2" opacity=".3" transform="translate(0,0.435)"><g id="g293"><g id="g295"><path id="path297" d="m 10.628,8.766 c 0.133,-0.267 0.208,-0.569 0.208,-0.888 l 0,-1.989 c 0,-0.249 -0.045,-0.487 -0.129,-0.709 0.249,-0.333 0.395,-0.744 0.395,-1.192 l 0,-1.988 c 0,-1.106 -0.894,-2 -2,-2 L 2,0 C 0.894,0 0,0.894 0,2 l 0,10.207 c 0,1.105 0.894,1.999 2,1.999 l 7.253,0 c 1.105,0 2,-0.894 2,-1.999 l 0,-1.989 C 11.252,9.646 11.012,9.13 10.628,8.766 z M 9.252,12.206 2,12.206 2,2 l 7.103,0 0,1.989 -4.472,0 0,1.9 4.204,0 0,1.989 -4.204,0 0,2.338 4.621,0 0,1.99 z"/></g></g></g><g id="Layer_12" transform="translate(0,0.435)"><g id="g300"><linearGradient id="linearGradient14210" x1="5.626" x2="5.626" y1="12.206" y2="2" gradientUnits="userSpaceOnUse"><stop id="stop14212" offset="0" stop-color="#9b9b9b" stop-opacity="1"/><stop id="stop14214" offset="1" stop-color="#ececec" stop-opacity="1"/></linearGradient><path id="path307" fill="url(#SVGID_5_)" d="m 2,2 7.103,0 0,1.989 -4.472,0 0,1.9 4.204,0 0,1.989 -4.204,0 0,2.338 4.621,0 0,1.989 L 2,12.205 2,2 z"/></g></g></g></svg>