<svg xmlns="http://www.w3.org/2000/svg" xmlns:svg="http://www.w3.org/2000/svg" id="svg3162" width="48" height="48" version="1.1"><defs id="defs3164"><linearGradient id="SVGID_1_" x1="41.105" x2="66.912" y1="48.662" y2="-.638" gradientTransform="matrix(-1.1029,0,0,1,82.3554,0)" gradientUnits="userSpaceOnUse"><stop id="stop248" offset="0" stop-color="#9b9b9b" stop-opacity="1"/><stop id="stop250" offset="1" stop-color="#ececec" stop-opacity="1"/></linearGradient></defs><g id="layer1"><g id="Layer_2" transform="translate(1.169,2.2512453e-4)"><g id="g238" opacity=".3"><g id="g240"><path id="path242" d="m 42.355,0.001 -7.722,0 c -1.822,0 -3.307,1.345 -3.307,2.998 l 0,42.001 c 0,1.652 1.484,2.998 3.307,2.998 l 7.722,0 c 1.823,0 3.307,-1.346 3.307,-2.998 l 0,-42.001 c 0,-1.653 -1.484,-2.998 -3.307,-2.998 z M 43.458,45 c 0,0.553 -0.493,1 -1.103,1 l -7.721,0 c -0.609,0 -1.103,-0.447 -1.103,-1 l 0,-42 c 0,-0.552 0.493,-1 1.103,-1 l 7.721,0 c 0.609,0 1.103,0.448 1.103,1 l 0,42 0,0 z M 5.218,0.826 C 4.336,0 3.021,-0.234 1.886,0.249 0.756,0.726 0.013,1.83 0,3.061 l 0,41.861 c 0.013,1.245 0.752,2.348 1.884,2.832 1.146,0.48 2.456,0.244 3.352,-0.595 L 27.981,26.29 c 0.495,-0.449 0.836,-1.065 0.958,-1.728 0.032,-0.17 0.05,-0.368 0.05,-0.567 0,-0.876 -0.374,-1.713 -1.03,-2.298 L 5.218,0.826 z m 21.684,23.368 c -0.041,0.224 -0.155,0.427 -0.323,0.58 L 3.815,45.66 C 3.516,45.942 3.077,46.021 2.698,45.86 2.319,45.7 2.072,45.33 2.069,44.921 l 0,-41.84 C 2.072,2.67 2.32,2.303 2.699,2.142 3.078,1.981 3.517,2.059 3.816,2.341 l 22.763,20.887 c 0.27,0.244 0.393,0.61 0.323,0.966 z"/></g></g></g><g id="Layer_1" transform="translate(1.169,2.2512453e-4)"><g id="g245"><linearGradient id="linearGradient3263" x1="41.105" x2="66.912" y1="48.662" y2="-.638" gradientTransform="matrix(-1.1029,0,0,1,82.3554,0)" gradientUnits="userSpaceOnUse"><stop id="stop3265" offset="0" stop-color="#9b9b9b" stop-opacity="1"/><stop id="stop3267" offset="1" stop-color="#ececec" stop-opacity="1"/></linearGradient><path id="path252" fill="url(#SVGID_1_)" d="m 33.532,45 0,-42 c 0,-0.552 0.493,-1 1.103,-1 l 7.721,0 c 0.609,0 1.103,0.448 1.103,1 l 0,42 c 0,0.553 -0.493,1 -1.103,1 l -7.721,0 c -0.61,0 -1.103,-0.447 -1.103,-1 z m -31.463,-0.079 0,-41.84 C 2.072,2.67 2.32,2.303 2.699,2.142 3.078,1.981 3.517,2.059 3.816,2.341 l 22.763,20.887 c 0.271,0.244 0.394,0.61 0.323,0.966 -0.041,0.224 -0.155,0.427 -0.323,0.58 L 3.815,45.66 C 3.516,45.942 3.077,46.021 2.698,45.86 2.32,45.7 2.072,45.33 2.069,44.921 z"/></g></g><g id="Layer_4" transform="translate(1.169,2.2512453e-4)"><path id="path256" fill="#a8a8a8" d="m 2.069,44.921 0,-0.019 c 0.26,0 0.516,-0.087 0.711,-0.271 L 25.543,23.743 c 0.169,-0.152 0.283,-0.356 0.323,-0.579 0.049,-0.242 0,-0.485 -0.115,-0.694 l 0.827,0.758 c 0.271,0.244 0.394,0.61 0.323,0.966 -0.041,0.224 -0.155,0.427 -0.323,0.58 L 3.815,45.66 C 3.516,45.942 3.077,46.021 2.698,45.86 2.32,45.7 2.072,45.33 2.069,44.921 z" opacity=".4"/><path id="path258" fill="#fff" d="m 33.532,45 0,-42 c 0,-0.552 0.493,-1 1.103,-1 l 7.721,0 c 0.609,0 1.103,0.448 1.103,1 l -7.721,0 c -0.609,0 -1.103,0.448 -1.103,1 l 0,42 c -0.61,0 -1.103,-0.447 -1.103,-1 z" opacity=".4"/></g><g id="Layer_5" transform="translate(1.169,2.2512453e-4)"><path id="path3302_2_" fill="#fff" d="M 3.622,45.79 C 3.343,45.953 2.992,45.983 2.684,45.853 2.305,45.693 2.073,45.33 2.07,44.92 l 0,-41.839 C 2.072,2.67 2.305,2.309 2.684,2.147 2.992,2.018 3.343,2.049 3.622,2.212 3.302,2.393 3.107,2.711 3.104,3.081 l 0,41.84 c 0.003,0.37 0.198,0.689 0.518,0.869 z" opacity=".3"/><rect id="rect3406_2_" width="1.103" height="42" x="42.355" y="3" fill="#8c8c8c" opacity=".3"/></g></g></svg>