<svg xmlns="http://www.w3.org/2000/svg" xmlns:svg="http://www.w3.org/2000/svg" id="svg7258" width="48" height="48" version="1.1"><defs id="defs7260"><linearGradient id="firewire_3_" x1="17.719" x2="17.719" y1="36.538" y2="13.68" gradientUnits="userSpaceOnUse"><stop id="stop271" offset="0" stop-color="#262626" stop-opacity="1"/><stop id="stop273" offset=".989" stop-color="#5c5c5c" stop-opacity="1"/></linearGradient><linearGradient id="SVGID_35_" x1="302.342" x2="271.077" y1="1498.557" y2="1455.524" gradientUnits="userSpaceOnUse"><stop id="stop2188" offset="0" stop-color="#9b9b9b" stop-opacity="1"/><stop id="stop2190" offset="1" stop-color="#ececec" stop-opacity="1"/></linearGradient></defs><g id="layer1"><g id="Layer_20" transform="translate(-262.064,-1453.039)"><g id="g2177"><g id="g2179" opacity=".3"><g id="g2181"><path id="path2183" d="m 301.349,1453.041 -29.281,0 c -1.657,0 -3.004,1.348 -3.004,3.004 l 0,41.99 c 0,1.656 1.347,3.004 3.004,3.004 l 29.281,0 c 1.658,0 3.006,-1.348 3.006,-3.004 l 0,-41.99 c 0,-1.656 -1.348,-3.004 -3.006,-3.004 z m 1.006,44.993 c 0,0.556 -0.449,1.006 -1.006,1.006 l -29.28,0 c -0.555,0 -1.005,-0.45 -1.005,-1.006 l 0,-41.988 c 0,-0.556 0.45,-1.006 1.005,-1.006 l 29.28,0 c 0.557,0 1.006,0.45 1.006,1.006 l 0,41.988 z"/></g></g><g id="g2185"><linearGradient id="linearGradient5520" x1="302.342" x2="271.077" y1="1498.557" y2="1455.524" gradientUnits="userSpaceOnUse"><stop id="stop5522" offset="0" stop-color="#9b9b9b" stop-opacity="1"/><stop id="stop5524" offset="1" stop-color="#ececec" stop-opacity="1"/></linearGradient><path id="path2192" fill="url(#SVGID_35_)" d="m 302.355,1498.034 c 0,0.556 -0.449,1.006 -1.006,1.006 l -29.28,0 c -0.555,0 -1.005,-0.45 -1.005,-1.006 l 0,-41.988 c 0,-0.556 0.45,-1.006 1.005,-1.006 l 29.28,0 c 0.557,0 1.006,0.45 1.006,1.006 l 0,41.988 z"/></g><g id="g2194" opacity=".2"><g id="g2196"><path id="path2198" fill="#fff" d="m 301.349,1455.04 -29.28,0 c -0.555,0 -1.005,0.45 -1.005,1.006 l 0,41.988 c 0,0.556 0.45,1.006 1.005,1.006 l 29.28,0 c 0.557,0 1.006,-0.45 1.006,-1.006 l 0,-41.988 c 0,-0.556 -0.449,-1.006 -1.006,-1.006 z m 0,43 -29.28,0 -0.004,-41.993 29.284,-0.01 0.006,41.994 -0.006,0.01 0,-10e-4 z"/></g></g><g id="g2200" opacity=".2"><g id="g2202"><path id="path2204" fill="#fff" d="m 272.065,1456.047 30.289,-0.01 c -0.003,-0.553 -0.45,-1 -1.005,-1 l -29.28,0 c -0.555,0 -1.005,0.45 -1.005,1.006 l 0,41.988 c 0,0.556 0.45,1.006 1.005,1.006 l -0.004,-42.993 0,0 z"/></g></g><linearGradient id="linearGradient5533" x1="286.647" x2="286.647" y1="1489.773" y2="1464.799" gradientUnits="userSpaceOnUse"><stop id="stop5535" offset="0" stop-color="#262626" stop-opacity="1"/><stop id="stop5537" offset=".989" stop-color="#5c5c5c" stop-opacity="1"/></linearGradient></g></g><g id="Layer_6" transform="translate(7.354003,0.001957)"><linearGradient id="linearGradient7082" x1="17.719" x2="17.719" y1="36.538" y2="13.68" gradientUnits="userSpaceOnUse"><stop id="stop7084" offset="0" stop-color="#262626" stop-opacity="1"/><stop id="stop7086" offset=".989" stop-color="#5c5c5c" stop-opacity="1"/></linearGradient><path id="firewire" fill="url(#firewire_3_)" d="m 17.719,20.376 c -2.511,0 -4.546,2.035 -4.546,4.546 0,2.511 2.036,4.546 4.546,4.546 2.509,0 4.545,-2.035 4.545,-4.546 0,-2.511 -2.036,-4.546 -4.545,-4.546 z m 0,7.577 c -1.674,0 -3.03,-1.357 -3.03,-3.03 0,-1.674 1.356,-3.031 3.03,-3.031 1.673,0 3.03,1.357 3.03,3.031 0,1.671 -1.357,3.03 -3.03,3.03 z m -3.031,5.049 6.06,0 0,-2.02 -6.06,0 0,2.02 0,0 z m 0,3.536 6.06,0 0,-2.021 -6.06,0 0,2.021 0,0 z m -0.83,-19.977 -4.105,4.092 1.368,1.364 4.106,-4.092 -1.369,-1.364 0,0 z m -2.737,-2.707 -4.105,4.093 1.368,1.365 4.106,-4.116 -1.369,-1.342 0,0 z m 13.714,-0.174 -4.507,4.493 3.585,3.551 4.508,-4.448 -3.586,-3.596 0,0 z"/></g><g id="Layer_8" transform="translate(7.354003,0.001957)"><g id="g277" opacity=".6"><g id="g279"><path id="path281" fill="#fff" d="m 14.533,16.99 -0.122,0.122 0.816,0.813 -3.984,3.97 0.553,0.551 4.106,-4.092 -1.369,-1.364 0,0 z m -2.737,-2.706 -0.118,0.117 0.812,0.796 -3.984,3.993 0.553,0.551 4.106,-4.116 -1.369,-1.341 0,0 z m 4.679,13.395 c -0.673,-0.556 -1.111,-1.387 -1.111,-2.328 0,-1.674 1.356,-3.03 3.03,-3.03 0.444,0 0.863,0.101 1.243,0.272 -0.523,-0.432 -1.186,-0.702 -1.917,-0.702 -1.675,0 -3.031,1.357 -3.031,3.031 -10e-4,1.229 0.734,2.282 1.786,2.757 l 0,0 z m 9.035,-13.57 -0.124,0.124 3.035,3.043 -4.387,4.328 0.554,0.549 4.508,-4.448 -3.586,-3.596 z m -5.027,7.228 c 1.076,0.831 1.781,2.12 1.781,3.585 0,2.511 -2.036,4.546 -4.545,4.546 -0.759,0 -1.464,-0.204 -2.093,-0.532 0.769,0.594 1.721,0.962 2.768,0.962 2.509,0 4.545,-2.035 4.545,-4.547 0,-1.752 -1.003,-3.255 -2.456,-4.014 l 0,0 z m 0.266,11.665 -5.385,0 0,0.429 6.06,0 0,-2.02 -0.675,0 0,1.591 z m 0,3.536 -5.385,0 0,0.43 6.06,0 0,-2.021 -0.675,0 0,1.591 z"/></g></g></g></g></svg>