<svg xmlns="http://www.w3.org/2000/svg" xmlns:svg="http://www.w3.org/2000/svg" id="svg4398" width="48" height="48" version="1.1"><defs id="defs4400"><linearGradient id="SVGID_1_" x1="68.698" x2="39.71" y1="49.096" y2="-1.113" gradientTransform="translate(-31.3281,0)" gradientUnits="userSpaceOnUse"><stop id="stop248" offset="0" stop-color="#9b9b9b" stop-opacity="1"/><stop id="stop250" offset="1" stop-color="#ececec" stop-opacity="1"/></linearGradient></defs><g id="layer1"><g id="Layer_2" transform="translate(1.169,2.9360495e-4)"><g id="g238" opacity=".3"><g id="g240"><path id="path242" d="m 11.028,0.002 -7.721,0 C 1.484,0.002 0,1.347 0,3 l 0,42 c 0,1.652 1.484,2.998 3.307,2.998 l 7.722,0 c 1.823,0 3.307,-1.346 3.307,-2.998 l 0,-42 C 14.335,1.347 12.852,0.002 11.028,0.002 z M 12.131,45 c 0,0.553 -0.493,1 -1.103,1 l -7.72,0 C 2.699,46 2.205,45.553 2.205,45 l 0,-42 c 0,-0.552 0.493,-1 1.103,-1 l 7.721,0 c 0.609,0 1.103,0.448 1.103,1 l 0,42 -10e-4,0 z M 43.777,0.246 C 42.631,-0.234 41.321,0.002 40.425,0.841 L 17.681,21.71 c -0.495,0.449 -0.836,1.065 -0.958,1.728 -0.032,0.17 -0.05,0.368 -0.05,0.567 0,0.876 0.374,1.713 1.03,2.298 l 22.74,20.87 c 0.882,0.827 2.196,1.061 3.332,0.577 1.13,-0.477 1.873,-1.581 1.886,-2.812 l 0,-41.86 C 45.648,1.833 44.909,0.73 43.777,0.246 z m -0.185,44.672 c -0.003,0.411 -0.25,0.778 -0.629,0.939 -0.379,0.161 -0.818,0.083 -1.117,-0.199 L 19.083,24.772 c -0.271,-0.244 -0.394,-0.61 -0.323,-0.966 0.041,-0.224 0.155,-0.427 0.323,-0.58 L 41.846,2.34 c 0.299,-0.282 0.738,-0.361 1.117,-0.2 0.379,0.16 0.626,0.53 0.629,0.939 l 0,41.839 0,0 z"/></g></g></g><g id="Layer_1" transform="translate(1.169,2.9360495e-4)"><g id="g245"><linearGradient id="linearGradient4499" x1="68.698" x2="39.71" y1="49.096" y2="-1.113" gradientTransform="translate(-31.3281,0)" gradientUnits="userSpaceOnUse"><stop id="stop4501" offset="0" stop-color="#9b9b9b" stop-opacity="1"/><stop id="stop4503" offset="1" stop-color="#ececec" stop-opacity="1"/></linearGradient><path id="path252" fill="url(#SVGID_1_)" d="m 2.205,45 0,-42 c 0,-0.552 0.493,-1 1.103,-1 l 7.721,0 c 0.609,0 1.103,0.448 1.103,1 l 0,42 c 0,0.553 -0.493,1 -1.103,1 L 3.308,46 C 2.698,46 2.205,45.553 2.205,45 z m 41.387,-41.921 0,41.839 c -0.003,0.411 -0.25,0.778 -0.629,0.939 -0.379,0.161 -0.818,0.083 -1.117,-0.199 L 19.083,24.772 c -0.271,-0.244 -0.394,-0.61 -0.323,-0.966 0.041,-0.224 0.155,-0.427 0.323,-0.58 L 41.846,2.34 c 0.299,-0.282 0.738,-0.361 1.117,-0.2 0.379,0.16 0.626,0.53 0.629,0.939 z"/></g></g><g id="Layer_4" transform="translate(1.169,2.9360495e-4)"><path id="path256" fill="#fff" d="m 43.592,3.079 0,0.019 c -0.26,0 -0.516,0.087 -0.711,0.271 L 20.118,24.257 c -0.169,0.152 -0.283,0.356 -0.323,0.579 -0.049,0.242 0,0.485 0.115,0.694 l -0.827,-0.758 c -0.271,-0.244 -0.394,-0.61 -0.323,-0.966 0.041,-0.224 0.155,-0.427 0.323,-0.58 L 41.846,2.34 c 0.299,-0.282 0.738,-0.361 1.117,-0.2 0.379,0.16 0.626,0.53 0.629,0.939 z" opacity=".4"/><path id="path258" fill="#fff" d="m 2.205,45 0,-42 c 0,-0.552 0.493,-1 1.103,-1 l 7.721,0 c 0.609,0 1.103,0.448 1.103,1 L 4.41,3 C 3.801,3 3.308,3.449 3.308,4 l 0,42 C 2.698,46 2.205,45.553 2.205,45 z" opacity=".4"/></g><g id="Layer_5" transform="translate(1.169,2.9360495e-4)"><path id="path3302_2_" fill="gray" d="m 42.04,2.21 c 0.278,-0.163 0.63,-0.193 0.938,-0.063 0.379,0.16 0.611,0.523 0.614,0.933 l 0,41.839 c -0.003,0.411 -0.235,0.772 -0.614,0.934 -0.308,0.129 -0.659,0.099 -0.938,-0.064 0.319,-0.181 0.515,-0.499 0.518,-0.869 l 0,-41.841 C 42.555,2.709 42.359,2.39 42.04,2.21 z" opacity=".3"/><rect id="rect3406_2_" width="1.103" height="42" x="11.028" y="3" fill="#8c8c8c" opacity=".3"/></g></g></svg>