<svg xmlns="http://www.w3.org/2000/svg" xmlns:svg="http://www.w3.org/2000/svg" id="svg10439" width="48" height="48" version="1.1"><defs id="defs10441"><linearGradient id="SVGID_1_" x1="41.83" x2="6.17" y1="48.541" y2="-.54" gradientUnits="userSpaceOnUse"><stop id="stop8539" offset="0" stop-color="#9b9b9b" stop-opacity="1"/><stop id="stop8541" offset="1" stop-color="#ececec" stop-opacity="1"/></linearGradient><linearGradient id="path3499_1_" x1="24" x2="24" y1="35.917" y2="12.083" gradientUnits="userSpaceOnUse"><stop id="stop8556" offset="0" stop-color="#1f1f1f" stop-opacity="1"/><stop id="stop8558" offset="1" stop-color="#000" stop-opacity="1"/></linearGradient><linearGradient id="rect3503_2_" x1="22.383" x2="22.383" y1="33.567" y2="30.768" gradientUnits="userSpaceOnUse"><stop id="stop8564" offset=".472" stop-color="#fff" stop-opacity="1"/><stop id="stop8566" offset="1" stop-color="#737373" stop-opacity="1"/></linearGradient><linearGradient id="rect3505_1_" x1="28.736" x2="28.736" y1="33.672" y2="30.661" gradientUnits="userSpaceOnUse"><stop id="stop8570" offset=".472" stop-color="#fff" stop-opacity="1"/><stop id="stop8572" offset="1" stop-color="#737373" stop-opacity="1"/></linearGradient><linearGradient id="rect3507_1_" x1="25.558" x2="25.558" y1="33.672" y2="30.661" gradientUnits="userSpaceOnUse"><stop id="stop8576" offset=".472" stop-color="#fff" stop-opacity="1"/><stop id="stop8578" offset="1" stop-color="#737373" stop-opacity="1"/></linearGradient><linearGradient id="rect3509_1_" x1="19.205" x2="19.205" y1="33.567" y2="30.768" gradientUnits="userSpaceOnUse"><stop id="stop8582" offset=".472" stop-color="#fff" stop-opacity="1"/><stop id="stop8584" offset="1" stop-color="#737373" stop-opacity="1"/></linearGradient><linearGradient id="rect3503_3_" x1="16.029" x2="16.029" y1="33.567" y2="30.768" gradientUnits="userSpaceOnUse"><stop id="stop8588" offset=".472" stop-color="#fff" stop-opacity="1"/><stop id="stop8590" offset="1" stop-color="#737373" stop-opacity="1"/></linearGradient><linearGradient id="rect3512_1_" x1="31.914" x2="31.914" y1="33.672" y2="30.661" gradientUnits="userSpaceOnUse"><stop id="stop8594" offset=".472" stop-color="#fff" stop-opacity="1"/><stop id="stop8596" offset="1" stop-color="#737373" stop-opacity="1"/></linearGradient></defs><g id="layer1"><g id="Layer_2" opacity=".3"><g id="g8529"><g id="g8531"><path id="path8533" d="M 45,0 H 3 C 1.345,0 0,1.345 0,3 v 42 c 0,1.655 1.345,3 3,3 h 42 c 1.652,0 2.997,-1.345 2.997,-3 V 3 C 47.998,1.345 46.653,0 45,0 z m 1,45 c 0,0.553 -0.447,1 -1,1 H 3 C 2.448,46 2,45.553 2,45 V 3 C 2,2.448 2.448,2 3,2 h 42 c 0.553,0 1,0.448 1,1 v 42 z"/></g></g></g><g id="Layer_4"><g id="g8536"><linearGradient id="linearGradient10375" x1="41.83" x2="6.17" y1="48.541" y2="-.54" gradientUnits="userSpaceOnUse"><stop id="stop10377" offset="0" stop-color="#9b9b9b" stop-opacity="1"/><stop id="stop10379" offset="1" stop-color="#ececec" stop-opacity="1"/></linearGradient><path id="path8543" fill="url(#SVGID_1_)" d="m 46,45 c 0,0.553 -0.447,1 -1,1 H 3 C 2.448,46 2,45.553 2,45 V 3 C 2,2.448 2.448,2 3,2 h 42 c 0.553,0 1,0.448 1,1 v 42 z"/></g></g><g id="Layer_5"><g id="g8546" opacity=".4"><g id="g8548"><path id="path8550" fill="#fff" d="M 45,2 H 3 C 2.448,2 2,2.448 2,3 v 42 c 0,0.553 0.448,1 1,1 h 42 c 0.553,0 1,-0.447 1,-1 V 3 C 46,2.448 45.552,2 45,2 z m 0,43.001 H 3 L 3.001,2.999 H 45 v 42.002 z"/></g></g></g><g id="Layer_3"><path id="path3499_3_" fill="#fff" d="m 21.028,13.083 v 1.986 H 15.07 v 3.973 H 11.096 V 36.918 H 38.904 V 19.042 h -3.971 v -3.973 h -5.961 v -1.986 h -7.944 z" opacity=".4"/></g><g id="Layer_1"><linearGradient id="linearGradient10389" x1="24" x2="24" y1="35.917" y2="12.083" gradientUnits="userSpaceOnUse"><stop id="stop10391" offset="0" stop-color="#1f1f1f" stop-opacity="1"/><stop id="stop10393" offset="1" stop-color="#000" stop-opacity="1"/></linearGradient><path id="path3499_2_" fill="url(#path3499_1_)" d="m 20.028,12.083 v 1.986 H 14.07 v 3.973 H 10.096 V 35.918 H 37.904 V 18.042 h -3.971 v -3.973 h -5.961 v -1.986 h -7.944 z"/><g id="g8561"><linearGradient id="linearGradient10397" x1="22.383" x2="22.383" y1="33.567" y2="30.768" gradientUnits="userSpaceOnUse"><stop id="stop10399" offset=".472" stop-color="#fff" stop-opacity="1"/><stop id="stop10401" offset="1" stop-color="#737373" stop-opacity="1"/></linearGradient><rect id="rect3503_4_" width="1.541" height="2.799" x="21.612" y="30.768" fill="url(#rect3503_2_)"/><linearGradient id="linearGradient10404" x1="28.736" x2="28.736" y1="33.672" y2="30.661" gradientUnits="userSpaceOnUse"><stop id="stop10406" offset=".472" stop-color="#fff" stop-opacity="1"/><stop id="stop10408" offset="1" stop-color="#737373" stop-opacity="1"/></linearGradient><rect id="rect3505_2_" width="1.657" height="3.012" x="27.908" y="30.661" fill="url(#rect3505_1_)"/><linearGradient id="linearGradient10411" x1="25.558" x2="25.558" y1="33.672" y2="30.661" gradientUnits="userSpaceOnUse"><stop id="stop10413" offset=".472" stop-color="#fff" stop-opacity="1"/><stop id="stop10415" offset="1" stop-color="#737373" stop-opacity="1"/></linearGradient><rect id="rect3507_2_" width="1.655" height="3.012" x="24.731" y="30.661" fill="url(#rect3507_1_)"/><linearGradient id="linearGradient10418" x1="19.205" x2="19.205" y1="33.567" y2="30.768" gradientUnits="userSpaceOnUse"><stop id="stop10420" offset=".472" stop-color="#fff" stop-opacity="1"/><stop id="stop10422" offset="1" stop-color="#737373" stop-opacity="1"/></linearGradient><rect id="rect3509_2_" width="1.54" height="2.799" x="18.436" y="30.768" fill="url(#rect3509_1_)"/><linearGradient id="linearGradient10425" x1="16.029" x2="16.029" y1="33.567" y2="30.768" gradientUnits="userSpaceOnUse"><stop id="stop10427" offset=".472" stop-color="#fff" stop-opacity="1"/><stop id="stop10429" offset="1" stop-color="#737373" stop-opacity="1"/></linearGradient><rect id="rect3503_1_" width="1.541" height="2.799" x="15.259" y="30.768" fill="url(#rect3503_3_)"/><linearGradient id="linearGradient10432" x1="31.914" x2="31.914" y1="33.672" y2="30.661" gradientUnits="userSpaceOnUse"><stop id="stop10434" offset=".472" stop-color="#fff" stop-opacity="1"/><stop id="stop10436" offset="1" stop-color="#737373" stop-opacity="1"/></linearGradient><rect id="rect3512_2_" width="1.654" height="3.012" x="31.086" y="30.661" fill="url(#rect3512_1_)"/></g></g></g></svg>