<svg xmlns="http://www.w3.org/2000/svg" xmlns:svg="http://www.w3.org/2000/svg" id="svg4820" width="48" height="48" version="1.1"><defs id="defs4822"><linearGradient id="SVGID_1_" x1="23.947" x2="23.947" y1="26.249" y2="13.211" gradientUnits="userSpaceOnUse"><stop id="stop242" offset="0" stop-color="#0d0d0d" stop-opacity="1"/><stop id="stop244" offset="1" stop-color="#8c8c8c" stop-opacity="1"/></linearGradient><linearGradient id="SVGID_2_" x1="305.946" x2="305.946" y1="-364.435" y2="-349.479" gradientTransform="matrix(1,0,0,-1,-282,-323.999)" gradientUnits="userSpaceOnUse"><stop id="stop253" offset="0" stop-color="#9b9b9b" stop-opacity="1"/><stop id="stop255" offset="1" stop-color="#ececec" stop-opacity="1"/></linearGradient><linearGradient id="SVGID_3_" x1="23.947" x2="23.947" y1="37.751" y2="25.812" gradientUnits="userSpaceOnUse"><stop id="stop270" offset="0" stop-color="#0d0d0d" stop-opacity="1"/><stop id="stop272" offset="1" stop-color="#8c8c8c" stop-opacity="1"/></linearGradient><linearGradient id="SVGID_4_" x1="321.476" x2="321.476" y1="-366.073" y2="-367.607" gradientTransform="matrix(1,0,0,-1,-282,-323.999)" gradientUnits="userSpaceOnUse"><stop id="stop277" offset=".192" stop-color="#ecebf7" stop-opacity="1"/><stop id="stop279" offset=".53" stop-color="#9e9e9e" stop-opacity="1"/></linearGradient><linearGradient id="SVGID_5_" x1="290.417" x2="290.417" y1="-366.073" y2="-367.607" gradientTransform="matrix(1,0,0,-1,-282,-323.999)" gradientUnits="userSpaceOnUse"><stop id="stop284" offset=".192" stop-color="#ecebf7" stop-opacity="1"/><stop id="stop286" offset=".53" stop-color="#9e9e9e" stop-opacity="1"/></linearGradient><linearGradient id="SVGID_6_" x1="305.946" x2="305.946" y1="-368.758" y2="-369.218" gradientTransform="matrix(1,0,0,-1,-282,-323.999)" gradientUnits="userSpaceOnUse"><stop id="stop291" offset=".192" stop-color="#ecebf7" stop-opacity="1"/><stop id="stop293" offset=".53" stop-color="#9e9e9e" stop-opacity="1"/></linearGradient><linearGradient id="SVGID_7_" x1="305.947" x2="305.947" y1="-368.325" y2="-365.305" gradientTransform="matrix(1,0,0,-1,-282,-323.999)" gradientUnits="userSpaceOnUse"><stop id="stop298" offset="0" stop-color="#727275" stop-opacity="1"/><stop id="stop300" offset=".53" stop-color="#151517" stop-opacity="1"/></linearGradient><linearGradient id="SVGID_8_" x1="305.945" x2="305.945" y1="-326.09" y2="-349.481" gradientTransform="matrix(1,0,0,-1,-282,-323.999)" gradientUnits="userSpaceOnUse"><stop id="stop307" offset="0" stop-color="#fcfcfc" stop-opacity="1"/><stop id="stop309" offset=".174" stop-color="#fff" stop-opacity="1"/><stop id="stop311" offset=".826" stop-color="#fff" stop-opacity="1"/><stop id="stop313" offset="1" stop-color="#a2a2a3" stop-opacity="1"/></linearGradient><linearGradient id="SVGID_9_" x1="305.946" x2="305.946" y1="-326.09" y2="-349.481" gradientTransform="matrix(1,0,0,-1,-282,-323.999)" gradientUnits="userSpaceOnUse"><stop id="stop318" offset="0" stop-color="#fcfcfc" stop-opacity="1"/><stop id="stop320" offset=".174" stop-color="#eee" stop-opacity="1"/><stop id="stop322" offset=".826" stop-color="#eee" stop-opacity="1"/><stop id="stop324" offset="1" stop-color="#a2a2a3" stop-opacity="1"/></linearGradient><radialGradient id="SVGID_10_" cx="314.372" cy="-335.823" r="5.981" gradientTransform="matrix(0.8757,-0.131,-0.1048,-0.7,-279.3049,-182.217)" gradientUnits="userSpaceOnUse"><stop id="stop329" offset=".213" stop-color="#c4c4c4" stop-opacity="1"/><stop id="stop331" offset=".927" stop-color="#eee" stop-opacity="1"/></radialGradient><linearGradient id="SVGID_11_" x1="310.383" x2="312.828" y1="-325.388" y2="-335.646" gradientTransform="matrix(1,0,0,-1,-282,-323.999)" gradientUnits="userSpaceOnUse"><stop id="stop336" offset="0" stop-color="#fcfdfd" stop-opacity="1"/><stop id="stop338" offset="1" stop-color="#eee" stop-opacity="1"/></linearGradient></defs><g id="layer1"><g id="Layer_2" transform="translate(0.053,0)"><g id="g239"><linearGradient id="linearGradient4725" x1="23.947" x2="23.947" y1="26.249" y2="13.211" gradientUnits="userSpaceOnUse"><stop id="stop4727" offset="0" stop-color="#0d0d0d" stop-opacity="1"/><stop id="stop4729" offset="1" stop-color="#8c8c8c" stop-opacity="1"/></linearGradient><rect id="rect246" width="29.142" height="13.038" x="9.375" y="13.211" fill="url(#SVGID_1_)"/><path id="path248" fill="#ecebf7" d="m 45.803,40.436 0,-13.068 c 0,-1.459 -1.527,-2.653 -3.004,-2.653 l -37.705,0 c -1.477,0 -3.004,1.194 -3.004,2.653 l 0,13.068 43.713,0 z"/><g id="g250"><linearGradient id="linearGradient4734" x1="305.946" x2="305.946" y1="-364.435" y2="-349.479" gradientTransform="matrix(1,0,0,-1,-282,-323.999)" gradientUnits="userSpaceOnUse"><stop id="stop4736" offset="0" stop-color="#9b9b9b" stop-opacity="1"/><stop id="stop4738" offset="1" stop-color="#ececec" stop-opacity="1"/></linearGradient><path id="path257" fill="url(#SVGID_2_)" d="m 45.419,40.436 0,-12.304 c 0,-1.458 -1.187,-2.651 -2.637,-2.651 l -37.672,0 c -1.45,0 -2.637,1.193 -2.637,2.651 l 0,12.304 42.946,0 z"/></g><path id="path259" fill="#333" d="m 45.803,40.157 0,4.218 c 0,0.422 -0.345,0.767 -0.767,0.767 l -42.179,0 c -0.422,0 -0.767,-0.345 -0.767,-0.767 l 0,-4.218 43.713,0 z"/><g id="g261"><path id="path263" fill="#333" d="m 2.473,40.923 0,3.835 c 0,0.211 0.172,0.383 0.384,0.383 l 42.179,0 c 0.211,0 0.383,-0.172 0.383,-0.383 l 0,-3.835 -42.946,0 z"/></g><path id="path265" fill="#cbc8e6" d="m 38.9,37.368 c 0,0.422 -0.345,0.767 -0.767,0.767 l -28.375,0 c -0.421,0 -0.766,-0.345 -0.766,-0.767 l 0,-8.436 c 0,-0.422 0.345,-0.767 0.766,-0.767 l 28.375,0 c 0.422,0 0.767,0.345 0.767,0.767 l 0,8.436 z"/><g id="g267"><linearGradient id="linearGradient4746" x1="23.947" x2="23.947" y1="37.751" y2="25.812" gradientUnits="userSpaceOnUse"><stop id="stop4748" offset="0" stop-color="#0d0d0d" stop-opacity="1"/><stop id="stop4750" offset="1" stop-color="#8c8c8c" stop-opacity="1"/></linearGradient><rect id="rect274" width="29.142" height="11.939" x="9.375" y="25.812" fill="url(#SVGID_3_)"/></g><linearGradient id="linearGradient4753" x1="321.476" x2="321.476" y1="-366.073" y2="-367.607" gradientTransform="matrix(1,0,0,-1,-282,-323.999)" gradientUnits="userSpaceOnUse"><stop id="stop4755" offset=".192" stop-color="#ecebf7" stop-opacity="1"/><stop id="stop4757" offset=".53" stop-color="#9e9e9e" stop-opacity="1"/></linearGradient><rect id="rect281" width="1.917" height="3.835" x="38.518" y="42.074" fill="url(#SVGID_4_)"/><linearGradient id="linearGradient4760" x1="290.417" x2="290.417" y1="-366.073" y2="-367.607" gradientTransform="matrix(1,0,0,-1,-282,-323.999)" gradientUnits="userSpaceOnUse"><stop id="stop4762" offset=".192" stop-color="#ecebf7" stop-opacity="1"/><stop id="stop4764" offset=".53" stop-color="#9e9e9e" stop-opacity="1"/></linearGradient><rect id="rect288" width="1.917" height="3.835" x="7.458" y="42.074" fill="url(#SVGID_5_)"/><linearGradient id="linearGradient4767" x1="305.946" x2="305.946" y1="-368.758" y2="-369.218" gradientTransform="matrix(1,0,0,-1,-282,-323.999)" gradientUnits="userSpaceOnUse"><stop id="stop4769" offset=".192" stop-color="#ecebf7" stop-opacity="1"/><stop id="stop4771" offset=".53" stop-color="#9e9e9e" stop-opacity="1"/></linearGradient><rect id="rect295" width="29.142" height="1.15" x="9.375" y="44.758" fill="url(#SVGID_6_)"/><linearGradient id="linearGradient4774" x1="305.947" x2="305.947" y1="-368.325" y2="-365.305" gradientTransform="matrix(1,0,0,-1,-282,-323.999)" gradientUnits="userSpaceOnUse"><stop id="stop4776" offset="0" stop-color="#727275" stop-opacity="1"/><stop id="stop4778" offset=".53" stop-color="#151517" stop-opacity="1"/></linearGradient><polygon id="polygon302" fill="url(#SVGID_7_)" points="38.518 44.758 9.375 44.758 9.375 42.074 9.758 41.307 38.134 41.307 38.518 42.074 38.518 42.074"/><rect id="rect304" width="29.142" height="1.15" x="9.375" y="24.714" fill="#333336"/><linearGradient id="linearGradient4782" x1="305.945" x2="305.945" y1="-326.09" y2="-349.481" gradientTransform="matrix(1,0,0,-1,-282,-323.999)" gradientUnits="userSpaceOnUse"><stop id="stop4784" offset="0" stop-color="#fcfcfc" stop-opacity="1"/><stop id="stop4786" offset=".174" stop-color="#fff" stop-opacity="1"/><stop id="stop4788" offset=".826" stop-color="#fff" stop-opacity="1"/><stop id="stop4790" offset="1" stop-color="#a2a2a3" stop-opacity="1"/></linearGradient><path id="path315" fill="url(#SVGID_8_)" d="m 36.6,25.865 -25.308,0 c 0,0 0,-22.234 0,-22.741 0,-0.507 0.521,-1.033 1.022,-1.033 0.382,0 8.232,0 11.3,0 2.697,0 12.985,11.629 12.985,13.23 0.001,2.067 0.001,10.544 0.001,10.544 z"/><linearGradient id="linearGradient4793" x1="305.946" x2="305.946" y1="-326.09" y2="-349.481" gradientTransform="matrix(1,0,0,-1,-282,-323.999)" gradientUnits="userSpaceOnUse"><stop id="stop4795" offset="0" stop-color="#fcfcfc" stop-opacity="1"/><stop id="stop4797" offset=".174" stop-color="#eee" stop-opacity="1"/><stop id="stop4799" offset=".826" stop-color="#eee" stop-opacity="1"/><stop id="stop4801" offset="1" stop-color="#a2a2a3" stop-opacity="1"/></linearGradient><path id="path326" fill="url(#SVGID_9_)" d="m 36.217,25.865 -24.541,0 c 0,0 0,-22.234 0,-22.741 0,-0.507 0.505,-1.033 0.991,-1.033 0.37,0 7.998,0 10.97,0 2.612,0 12.58,11.629 12.58,13.23 0,2.067 0,10.544 0,10.544 z"/><radialGradient id="radialGradient4804" cx="314.372" cy="-335.823" r="5.981" gradientTransform="matrix(0.8757,-0.131,-0.1048,-0.7,-279.3049,-182.217)" gradientUnits="userSpaceOnUse"><stop id="stop4806" offset=".213" stop-color="#c4c4c4" stop-opacity="1"/><stop id="stop4808" offset=".927" stop-color="#eee" stop-opacity="1"/></radialGradient><path id="path333" fill="url(#SVGID_10_)" d="m 34.77,12.804 c 0.288,1.927 -0.425,3.631 -2.837,3.992 -2.409,0.361 -5.605,-0.758 -5.894,-2.685 -0.289,-1.928 0.586,-2.558 2.996,-2.919 2.41,-0.36 3.856,0.521 5.735,1.612 z"/><linearGradient id="linearGradient4811" x1="310.383" x2="312.828" y1="-325.388" y2="-335.646" gradientTransform="matrix(1,0,0,-1,-282,-323.999)" gradientUnits="userSpaceOnUse"><stop id="stop4813" offset="0" stop-color="#fcfdfd" stop-opacity="1"/><stop id="stop4815" offset="1" stop-color="#eee" stop-opacity="1"/></linearGradient><path id="path340" fill="url(#SVGID_11_)" d="M 36.6,15.321 C 36.6,12.233 26.343,12.228 26.343,12.228 26.333,13.25 26.447,2.09 23.614,2.09 26.312,2.091 36.6,14.29 36.6,15.321 z"/><rect id="rect342" width="29.078" height=".384" x="9.375" y="25.865" fill="#333336"/><path id="path344" d="m 42.798,22.624 -2.189,0 0,-9.414 c 0,-1.154 -0.937,-2.09 -2.091,-2.09 l -2.054,0 C 33.745,7.616 28.252,1.685 25.174,0.362 24.615,0.119 24.112,0 23.637,0 L 12.314,0 C 10.655,0 9.201,1.458 9.201,3.124 l 0,8.002 C 8.129,11.217 7.285,12.114 7.285,13.21 l 0,9.413 -2.191,0 C 2.38,22.624 0,24.839 0,27.368 l 0,17.008 c 0,1.294 0.893,2.432 2.146,2.752 0.229,0.067 0.47,0.104 0.71,0.104 l 2.984,0 C 6.222,47.7 6.807,48 7.458,48 l 32.975,0 c 0.651,0 1.236,-0.301 1.618,-0.769 l 2.983,0 c 1.578,0 2.858,-1.281 2.858,-2.856 l 0,-17.007 c 0.002,-2.529 -2.38,-4.744 -5.094,-4.744 z m 3.005,21.751 c 0,0.422 -0.345,0.767 -0.767,0.767 l -4.602,0 0,0.768 -32.976,0 0,-0.768 -4.601,0 c -0.053,0 -0.103,-0.011 -0.149,-0.03 C 2.359,45.04 2.09,44.744 2.09,44.375 l 0,-17.007 c 0,-1.459 1.527,-2.653 3.004,-2.653 l 4.282,0 0,-11.504 1.917,0 0,-10.087 c 0,-0.506 0.521,-1.033 1.022,-1.033 l 11.322,0 c 0.192,0 0.429,0.07 0.694,0.188 2.672,1.147 8.57,7.459 11.089,10.933 l 3.098,0 0,11.503 4.281,0 c 1.477,0 3.004,1.194 3.004,2.653 l 0,17.007 z" opacity=".3"/></g></g></g></svg>