<svg xmlns="http://www.w3.org/2000/svg" xmlns:svg="http://www.w3.org/2000/svg" xmlns:xlink="http://www.w3.org/1999/xlink" id="svg3170" width="48" height="48" version="1.1"><defs id="defs3172"><linearGradient id="linearGradient2549" x1="68.698" x2="39.71" y1="49.096" y2="-1.113" gradientTransform="translate(-25.1591,0)" gradientUnits="userSpaceOnUse" xlink:href="#SVGID_1_"/><linearGradient id="SVGID_1_" x1="68.698" x2="39.71" y1="49.096" y2="-1.113" gradientTransform="translate(-31.3281,0)" gradientUnits="userSpaceOnUse"><stop id="stop248" offset="0" stop-color="#9b9b9b" stop-opacity="1"/><stop id="stop250" offset="1" stop-color="#ececec" stop-opacity="1"/></linearGradient><linearGradient id="linearGradient2547" x1="68.698" x2="39.71" y1="49.096" y2="-1.113" gradientTransform="translate(-3.1591,0)" gradientUnits="userSpaceOnUse" xlink:href="#SVGID_1_"/></defs><g id="layer1"><path id="path242" d="m 17.197,0.002 -7.721,0 C 7.653,0.002 6.169,1.347 6.169,3 l 0,42 c 0,1.652 1.484,2.998 3.307,2.998 l 7.722,0 c 1.823,0 3.307,-1.346 3.307,-2.998 l 0,-42 C 20.504,1.347 19.021,0.002 17.197,0.002 z M 18.3,45 c 0,0.553 -0.493,1 -1.103,1 l -7.72,0 C 8.868,46 8.374,45.553 8.374,45 l 0,-42 c 0,-0.552 0.493,-1 1.103,-1 l 7.721,0 c 0.609,0 1.103,0.448 1.103,1 l 0,42 -10e-4,0 z" opacity=".3"/><path id="path2527" fill="url(#linearGradient2549)" d="m 8.374,45 0,-42 c 0,-0.552 0.493,-1 1.103,-1 l 7.721,0 c 0.609,0 1.103,0.448 1.103,1 l 0,42 c 0,0.553 -0.493,1 -1.103,1 L 9.477,46 C 8.867,46 8.374,45.553 8.374,45 z"/><path id="path258" fill="#fff" d="m 8.374,45 0,-42 c 0,-0.552 0.493,-1 1.103,-1 l 7.721,0 c 0.609,0 1.103,0.448 1.103,1 L 10.579,3 C 9.97,3 9.477,3.449 9.477,4 l 0,42 C 8.867,46 8.374,45.553 8.374,45 z" opacity=".4"/><g id="Layer_5" transform="translate(6.169,0)"><rect id="rect3406_2_" width="1.103" height="42" x="11.028" y="3" fill="#8c8c8c" opacity=".3"/></g><path id="path2537" d="m 39.197,0.002 -7.721,0 c -1.823,0 -3.307,1.345 -3.307,2.998 l 0,42 c 0,1.652 1.484,2.998 3.307,2.998 l 7.722,0 c 1.823,0 3.307,-1.346 3.307,-2.998 l 0,-42 C 42.504,1.347 41.021,0.002 39.197,0.002 z M 40.3,45 c 0,0.553 -0.493,1 -1.103,1 l -7.72,0 c -0.609,0 -1.103,-0.447 -1.103,-1 l 0,-42 c 0,-0.552 0.493,-1 1.103,-1 l 7.721,0 c 0.609,0 1.103,0.448 1.103,1 l 0,42 -0.001,0 z" opacity=".3"/><path id="path2539" fill="url(#linearGradient2547)" d="m 30.374,45 0,-42 c 0,-0.552 0.493,-1 1.103,-1 l 7.721,0 c 0.609,0 1.103,0.448 1.103,1 l 0,42 c 0,0.553 -0.493,1 -1.103,1 l -7.721,0 c -0.61,0 -1.103,-0.447 -1.103,-1 z"/><path id="path2541" fill="#fff" d="m 30.374,45 0,-42 c 0,-0.552 0.493,-1 1.103,-1 l 7.721,0 c 0.609,0 1.103,0.448 1.103,1 L 32.579,3 C 31.97,3 31.477,3.449 31.477,4 l 0,42 c -0.61,0 -1.103,-0.447 -1.103,-1 z" opacity=".4"/><g id="g2543" transform="translate(28.169,0)"><rect id="rect2545" width="1.103" height="42" x="11.028" y="3" fill="#8c8c8c" opacity=".3"/></g></g></svg>