<svg xmlns="http://www.w3.org/2000/svg" xmlns:svg="http://www.w3.org/2000/svg" id="svg9184" width="48" height="48" version="1.1"><defs id="defs9186"><linearGradient id="SVGID_1_" x1="38.025" x2="9.975" y1="35.303" y2="-3.304" gradientUnits="userSpaceOnUse"><stop id="stop248" offset="0" stop-color="#878787" stop-opacity="1"/><stop id="stop250" offset=".253" stop-color="#8f8f8f" stop-opacity="1"/><stop id="stop252" offset=".349" stop-color="#a1a1a1" stop-opacity="1"/><stop id="stop254" offset=".609" stop-color="#cdcdcd" stop-opacity="1"/><stop id="stop256" offset=".81" stop-color="#e8e8e8" stop-opacity="1"/><stop id="stop258" offset=".929" stop-color="#f2f2f2" stop-opacity="1"/></linearGradient></defs><g id="layer1"><g id="Layer_2" opacity=".3" transform="translate(0,8.001)"><g id="g238"><g id="g240"><path id="path242" d="M 44.999,0 3,0 C 1.345,0 0,1.345 0,3 l 0,25.998 c 0,1.654 1.345,3 3,3 l 41.999,0 c 1.655,0 3,-1.346 3,-3 L 47.999,3 c 0,-1.655 -1.345,-3 -3,-3 z M 46,28.999 c 0,0.553 -0.447,1 -1,1 l -42,0 c -0.552,0 -1,-0.447 -1,-1 l 0,-26 c 0,-0.552 0.448,-1 1,-1 l 42,0 c 0.553,0 1,0.448 1,1 l 0,26 z"/></g></g></g><g id="Layer_3" transform="translate(0,8.001)"><g id="g245"><linearGradient id="linearGradient9150" x1="38.025" x2="9.975" y1="35.303" y2="-3.304" gradientUnits="userSpaceOnUse"><stop id="stop9152" offset="0" stop-color="#878787" stop-opacity="1"/><stop id="stop9154" offset=".253" stop-color="#8f8f8f" stop-opacity="1"/><stop id="stop9156" offset=".349" stop-color="#a1a1a1" stop-opacity="1"/><stop id="stop9158" offset=".609" stop-color="#cdcdcd" stop-opacity="1"/><stop id="stop9160" offset=".81" stop-color="#e8e8e8" stop-opacity="1"/><stop id="stop9162" offset=".929" stop-color="#f2f2f2" stop-opacity="1"/></linearGradient><path id="path260" fill="url(#SVGID_1_)" d="m 46,28.999 c 0,0.553 -0.447,1 -1,1 l -42,0 c -0.552,0 -1,-0.447 -1,-1 l 0,-26 c 0,-0.552 0.448,-1 1,-1 l 42,0 c 0.553,0 1,0.448 1,1 l 0,26 z"/></g></g><g id="Layer_4" transform="translate(0,8.001)"><g id="g264" opacity=".4"><g id="g266"><path id="path268" fill="#fff" d="m 2.625,29.749 0,-26 c 0,-0.552 0.448,-1 1,-1 l 42,0 c 0.12,0 0.231,0.03 0.338,0.068 C 45.875,2.355 45.488,1.999 45,1.999 l -42,0 c -0.552,0 -1,0.448 -1,1 l 0,26 c 0,0.433 0.278,0.792 0.662,0.932 C 2.649,29.87 2.625,29.813 2.625,29.749 z"/></g></g></g><g id="Layer_4_copy" transform="translate(0,8.001)"><g id="g271" opacity=".2"><g id="g273"><path id="path275" fill="#fff" d="m 45,1.999 -42,0 c -0.552,0 -1,0.448 -1,1 l 0,26 c 0,0.553 0.448,1 1,1 l 42,0 c 0.553,0 1,-0.447 1,-1 l 0,-26 c 0,-0.552 -0.448,-1 -1,-1 z m 0.18,26.306 c 0,0.521 -0.423,0.944 -0.944,0.944 l -40.667,0 c -0.521,0 -0.944,-0.423 -0.944,-0.944 l 0,-24.612 c 0,-0.521 0.423,-0.944 0.944,-0.944 l 40.667,0 c 0.521,0 0.944,0.423 0.944,0.944 l 0,24.612 0,0 z"/></g></g></g><g id="Layer_1" transform="translate(0,8.001)"><rect id="rect5272" width="20" height="1" x="5.5" y="15.874" fill="#2a2a2a" opacity=".618"/><rect id="rect5274" width="25" height="1" x="5.5" y="19.874" fill="#2a2a2a" opacity=".618"/><rect id="rect5276" width="17" height="1" x="5.5" y="23.874" fill="#2a2a2a" opacity=".618"/><g id="g281"><rect id="rect5270" width="7" height="8" x="35" y="5.874" fill="#2a2a2a" opacity=".618"/><path id="rect3197" fill="#fff" d="m 42,5.874 0,8.017 -7,0 0,0.983 8,0 0,-9 -1,0 0,0 z" opacity=".33"/></g><rect id="rect3186" width="20" height="1" x="5.5" y="16.874" fill="#fff" opacity=".19"/><rect id="rect3188" width="25" height="1" x="5.5" y="20.874" fill="#fff" opacity=".19"/><rect id="rect3190" width="17" height="1" x="5.5" y="24.874" fill="#fff" opacity=".19"/></g></g></svg>