<svg xmlns="http://www.w3.org/2000/svg" xmlns:svg="http://www.w3.org/2000/svg" xmlns:xlink="http://www.w3.org/1999/xlink" id="svg10316" width="48" height="48"><defs id="defs10318"><linearGradient id="linearGradient4099-6-7"><stop id="stop4101-1-8" offset="0" stop-color="#ddd" stop-opacity="1"/><stop id="stop4107-2-2" offset=".345" stop-color="#fff" stop-opacity="1"/><stop id="stop4109-5-7" offset=".727" stop-color="#737373" stop-opacity="1"/><stop id="stop4103-9-2" offset="1" stop-color="#bbb" stop-opacity="1"/></linearGradient><linearGradient id="linearGradient649" x1="-158.75" x2="-158.75" y1="115.938" y2="134.25" gradientTransform="matrix(0.1892115,-0.1892253,0.1892115,0.1892253,49.738733,-37.732231)" gradientUnits="userSpaceOnUse" xlink:href="#linearGradient4099-6-7"/><linearGradient id="linearGradient4117-1-0"><stop id="stop4121-0-5" offset="0" stop-color="#f9a9a9" stop-opacity="1"/><stop id="stop4119-1-6" offset="1" stop-color="#ab5f5f" stop-opacity="1"/></linearGradient><radialGradient id="radialGradient691" cx="-138.837" cy="128.001" r="9.127" fx="-138.837" fy="128.001" gradientTransform="matrix(0.320394,-0.3203948,0.322414,0.3224148,50.518433,-74.157887)" gradientUnits="userSpaceOnUse" xlink:href="#linearGradient4117-1-0"/><linearGradient id="linearGradient6437"><stop id="stop6439" offset="0" stop-color="#e9b96e" stop-opacity="1"/><stop id="stop6441" offset="1" stop-color="#fff" stop-opacity="1"/></linearGradient><linearGradient id="linearGradient6488" x1="26.379" x2="25.485" y1="34.39" y2="32.714" gradientUnits="userSpaceOnUse" xlink:href="#linearGradient6437"/><linearGradient id="linearGradient2301"><stop id="stop2303" offset="0" stop-color="#ce5c00" stop-opacity="1"/><stop id="stop2305" offset="1" stop-color="#ce5c00"/></linearGradient><linearGradient id="linearGradient6486" x1="23.448" x2="22.81" y1="21.481" y2="22.119" gradientTransform="translate(6.39225,12.18459)" gradientUnits="userSpaceOnUse" xlink:href="#linearGradient2301"/><linearGradient id="linearGradient6445"><stop id="stop6447" offset="0" stop-color="#fcaf3e" stop-opacity="1"/><stop id="stop6449" offset="1" stop-color="#ce5c00"/></linearGradient><linearGradient id="linearGradient6484" x1="28.079" x2="30.432" y1="12.338" y2="14.691" gradientTransform="translate(6.39225,12.18459)" gradientUnits="userSpaceOnUse" xlink:href="#linearGradient6445"/><linearGradient id="linearGradient1813"><stop id="stop1815" offset="0" stop-color="#000" stop-opacity="1"/><stop id="stop1817" offset="1" stop-color="#000" stop-opacity="0"/></linearGradient><linearGradient id="linearGradient6482" x1="18.188" x2="32.938" y1="18.538" y2="18.392" gradientTransform="matrix(1,0,0,0.415008,6.5485,26.7669)" gradientUnits="userSpaceOnUse" xlink:href="#linearGradient1813"/><linearGradient id="linearGradient4333"><stop id="stop4335" offset="0" stop-color="#000" stop-opacity="1"/><stop id="stop4337" offset="1" stop-color="#000" stop-opacity="0"/></linearGradient><radialGradient id="radialGradient4339" cx="37.375" cy="33.188" r="14.625" fx="37.375" fy="33.188" gradientTransform="matrix(1,0,0,0.226496,0,25.67067)" gradientUnits="userSpaceOnUse" xlink:href="#linearGradient4333"/><linearGradient id="linearGradient3656"><stop id="stop3658" offset="0" stop-color="#fff" stop-opacity="1"/><stop id="stop3660" offset="1" stop-color="#fff" stop-opacity="0"/></linearGradient><linearGradient id="linearGradient5816" x1="-26.754" x2="-24.75" y1="11.566" y2="9.688" gradientUnits="userSpaceOnUse" xlink:href="#linearGradient3656"/><linearGradient id="linearGradient3520"><stop id="stop3522" offset="0" stop-color="#000" stop-opacity=".413"/><stop id="stop3524" offset="1" stop-color="#000" stop-opacity="0"/></linearGradient><linearGradient id="linearGradient5836" x1="-18.589" x2="-28.789" y1="11.053" y2="14.07" gradientTransform="matrix(0.9223058,0,0,0.9185751,-92.447368,61.3257)" gradientUnits="userSpaceOnUse" xlink:href="#linearGradient3520"/><linearGradient id="linearGradient3671"><stop id="stop3673" offset="0" stop-color="#fff" stop-opacity="1"/><stop id="stop3691" offset=".475" stop-color="#fff" stop-opacity="1"/><stop id="stop3675" offset="1" stop-color="#fff" stop-opacity="0"/></linearGradient><radialGradient id="radialGradient5839" cx="-26.305" cy="10.108" r="7.042" fx="-26.305" fy="10.108" gradientTransform="matrix(0.4073362,-0.2798276,0.7510293,1.0932492,-115.18484,51.56213)" gradientUnits="userSpaceOnUse" xlink:href="#linearGradient3671"/><linearGradient id="linearGradient6469"><stop id="stop6471" offset="0" stop-color="#000" stop-opacity="1"/><stop id="stop6473" offset="1" stop-color="#000" stop-opacity="0"/></linearGradient><linearGradient id="linearGradient6475" x1="58.282" x2="61.181" y1="70.752" y2="67.799" gradientTransform="translate(-180,0)" gradientUnits="userSpaceOnUse" xlink:href="#linearGradient6469"/><linearGradient id="linearGradient3741"><stop id="stop3743" offset="0" stop-color="#fff" stop-opacity="1"/><stop id="stop3745" offset="1" stop-color="#fff" stop-opacity="0"/></linearGradient><radialGradient id="radialGradient5810" cx="4" cy="5.3" r="17" fx="4" fy="5.3" gradientTransform="matrix(1.8860258,0,0,1.1764706,-3.5441033,-4.2352941)" gradientUnits="userSpaceOnUse" xlink:href="#linearGradient3741"/><linearGradient id="linearGradient3613"><stop id="stop3615" offset="0" stop-color="#888a85" stop-opacity="1"/><stop id="stop3617" offset="1" stop-color="#babdb6" stop-opacity="1"/></linearGradient><linearGradient id="linearGradient5845" x1="-47.5" x2="-62.75" y1="49.021" y2="-22.502" gradientTransform="translate(-90,60)" gradientUnits="userSpaceOnUse" xlink:href="#linearGradient3613"/><linearGradient id="linearGradient3683"><stop id="stop3685" offset="0" stop-color="#f6f6f5" stop-opacity="1"/><stop id="stop3689" offset="1" stop-color="#d3d7cf" stop-opacity="1"/></linearGradient><radialGradient id="radialGradient5843" cx="-30.25" cy="35.357" r="18" fx="-30.25" fy="35.357" gradientTransform="matrix(3.9957492,0,0,1.9350367,0.62141,28.832578)" gradientUnits="userSpaceOnUse" xlink:href="#linearGradient3683"/><linearGradient id="linearGradient5804" x1="25.058" x2="25.058" y1="47.028" y2="39.999" gradientUnits="userSpaceOnUse" xlink:href="#linearGradient3702"/><radialGradient id="radialGradient5802" cx="4.993" cy="43.5" r="2.5" fx="4.993" fy="43.5" gradientTransform="matrix(2.003784,0,0,1.4,-20.01187,-104.4)" gradientUnits="userSpaceOnUse" xlink:href="#linearGradient3688"/><radialGradient id="radialGradient5800" cx="4.993" cy="43.5" r="2.5" fx="4.993" fy="43.5" gradientTransform="matrix(2.003784,0,0,1.4,27.98813,-17.4)" gradientUnits="userSpaceOnUse" xlink:href="#linearGradient3688"/><linearGradient id="linearGradient3702"><stop id="stop3704" offset="0" stop-color="#000" stop-opacity="0"/><stop id="stop3710" offset=".5" stop-color="#000" stop-opacity="1"/><stop id="stop3706" offset="1" stop-color="#000" stop-opacity="0"/></linearGradient><linearGradient id="linearGradient5798" x1="25.058" x2="25.058" y1="47.028" y2="39.999" gradientUnits="userSpaceOnUse" xlink:href="#linearGradient3702"/><radialGradient id="radialGradient5796" cx="4.993" cy="43.5" r="2.5" fx="4.993" fy="43.5" gradientTransform="matrix(2.003784,0,0,1.4,-20.01187,-104.4)" gradientUnits="userSpaceOnUse" xlink:href="#linearGradient3688"/><linearGradient id="linearGradient3688"><stop id="stop3690" offset="0" stop-color="#000" stop-opacity="1"/><stop id="stop3692" offset="1" stop-color="#000" stop-opacity="0"/></linearGradient><radialGradient id="radialGradient5794" cx="4.993" cy="43.5" r="2.5" fx="4.993" fy="43.5" gradientTransform="matrix(2.003784,0,0,1.4,27.98813,-17.4)" gradientUnits="userSpaceOnUse" xlink:href="#linearGradient3688"/></defs><metadata id="metadata10321"/><g id="layer1"><g id="g6015" display="inline" transform="translate(150,-60)"><rect id="rect5504" width="48" height="48" x="-150" y="60" fill="#000" fill-opacity="1" stroke="none" stroke-dasharray="none" stroke-miterlimit="4" stroke-width="1" display="inline" opacity="0"/><g id="g5508" display="inline" opacity=".656" transform="matrix(1.0464281,0,0,0.8888889,-151.18572,65.72224)"><g id="g5511" opacity=".4" transform="matrix(1.052632,0,0,1.285713,-1.263158,-13.42854)"><rect id="rect5513" width="5" height="7" x="38" y="40" fill="url(#radialGradient5794)" fill-opacity="1" stroke="none" stroke-dasharray="none" stroke-linecap="round" stroke-linejoin="miter" stroke-miterlimit="4" stroke-opacity="1" stroke-width="1" opacity="1"/><rect id="rect5515" width="5" height="7" x="-10" y="-47" fill="url(#radialGradient5796)" fill-opacity="1" stroke="none" stroke-dasharray="none" stroke-linecap="round" stroke-linejoin="miter" stroke-miterlimit="4" stroke-opacity="1" stroke-width="1" opacity="1" transform="scale(-1,-1)"/><rect id="rect5517" width="28" height="7" x="10" y="40" fill="url(#linearGradient5798)" fill-opacity="1" stroke="none" stroke-dasharray="none" stroke-linecap="round" stroke-linejoin="miter" stroke-miterlimit="4" stroke-opacity="1" stroke-width="1" opacity="1"/></g></g><g id="g5519" display="inline" transform="matrix(0.9548466,0,0,0.5555562,-148.98776,79.888875)"><g id="g5521" opacity=".4" transform="matrix(1.052632,0,0,1.285713,-1.263158,-13.42854)"><rect id="rect5523" width="5" height="7" x="38" y="40" fill="url(#radialGradient5800)" fill-opacity="1" stroke="none" stroke-dasharray="none" stroke-linecap="round" stroke-linejoin="miter" stroke-miterlimit="4" stroke-opacity="1" stroke-width="1" opacity="1"/><rect id="rect5525" width="5" height="7" x="-10" y="-47" fill="url(#radialGradient5802)" fill-opacity="1" stroke="none" stroke-dasharray="none" stroke-linecap="round" stroke-linejoin="miter" stroke-miterlimit="4" stroke-opacity="1" stroke-width="1" opacity="1" transform="scale(-1,-1)"/><rect id="rect5527" width="28" height="7" x="10" y="40" fill="url(#linearGradient5804)" fill-opacity="1" stroke="none" stroke-dasharray="none" stroke-linecap="round" stroke-linejoin="miter" stroke-miterlimit="4" stroke-opacity="1" stroke-width="1" opacity="1"/></g></g><path id="path5529" fill="url(#radialGradient5843)" fill-opacity="1" stroke="url(#linearGradient5845)" stroke-miterlimit="4" stroke-width="1" d="M -141.47614,63.5 C -141.47614,63.5 -124,63.5 -122.5,63.5 C -118.62295,63.572942 -116,66 -113.5,68.5 C -111,71 -108.89232,73.752625 -108.5,77.5 C -108.5,79 -108.5,102.47614 -108.5,102.47614 C -108.5,103.59736 -109.40264,104.5 -110.52385,104.5 L -141.47614,104.5 C -142.59736,104.5 -143.5,103.59736 -143.5,102.47614 L -143.5,65.523858 C -143.5,64.402641 -142.59736,63.5 -141.47614,63.5 z" display="inline"/><path id="path5531" fill="url(#radialGradient5810)" fill-opacity="1" stroke="none" stroke-miterlimit="4" stroke-width="1" d="M 8.53125,4 C 7.6730803,4 7,4.6730802 7,5.53125 L 7,42.46875 C 7,43.32692 7.6730802,44 8.53125,44 L 39.46875,44 C 40.326919,44 41,43.326918 41,42.46875 C 41,42.46875 41,19 41,17.5 C 41,16.10803 40.513021,13.200521 38.65625,11.34375 C 36.65625,9.34375 35.65625,8.34375 33.65625,6.34375 C 31.799479,4.4869792 28.89197,4 27.5,4 C 26,4 8.53125,4 8.53125,4 z" display="inline" opacity=".68" transform="translate(-150,60)"/><path id="rect5857" fill="url(#linearGradient6475)" fill-opacity="1" fill-rule="evenodd" stroke="none" stroke-dasharray="none" stroke-dashoffset="0" stroke-linecap="round" stroke-linejoin="round" stroke-miterlimit="4" stroke-opacity="1" stroke-width="1" marker-end="none" marker-mid="none" marker-start="none" d="M -138.59375,69.125 C -138.81243,69.125 -139,69.312565 -139,69.53125 C -139,69.749934 -138.81243,69.937499 -138.59375,69.9375 L -117.40625,69.9375 C -117.18757,69.9375 -117,69.749934 -117,69.53125 C -117,69.312566 -117.18757,69.125 -117.40625,69.125 L -138.59375,69.125 z M -138.53125,71.0625 C -138.79094,71.0625 -139,71.271563 -139,71.53125 C -139,71.790937 -138.79094,72 -138.53125,72 L -116.46875,72 C -116.20906,72 -116,71.790937 -116,71.53125 C -116,71.271563 -116.20906,71.0625 -116.46875,71.0625 L -138.53125,71.0625 z M -138.53125,73.0625 C -138.79094,73.0625 -139,73.271563 -139,73.53125 C -139,73.790937 -138.79094,74 -138.53125,74 L -113.34375,74 C -113.08406,74 -112.875,73.790937 -112.875,73.53125 C -112.875,73.271563 -113.08406,73.0625 -113.34375,73.0625 L -138.53125,73.0625 z M -138.53125,75.0625 C -138.79094,75.0625 -139,75.271563 -139,75.53125 C -139,75.790937 -138.79094,76 -138.53125,76 L -113.34375,76 C -113.08406,76 -112.875,75.790937 -112.875,75.53125 C -112.875,75.271563 -113.08406,75.0625 -113.34375,75.0625 L -138.53125,75.0625 z M -138.53125,77.0625 C -138.79094,77.0625 -139,77.271563 -139,77.53125 C -139,77.790937 -138.79094,78 -138.53125,78 L -113.34375,78 C -113.08406,78 -112.875,77.790937 -112.875,77.53125 C -112.875,77.271563 -113.08406,77.0625 -113.34375,77.0625 L -138.53125,77.0625 z" display="inline" opacity=".15" overflow="visible" visibility="visible" style="marker:none"/><path id="path5533" fill="url(#radialGradient5839)" fill-opacity="1" stroke="none" stroke-miterlimit="4" stroke-width="1" d="M -122.5,64 C -123.88889,64 -122.54207,64.497088 -121.15625,65.125 C -119.77043,65.752912 -116.18337,68.340052 -117,72 C -112.67669,71.569417 -110.32087,75.122378 -110,76.28125 C -109.67913,77.440122 -109,78.888889 -109,77.5 C -108.97167,73.694419 -111.84543,71.068299 -113.84375,68.84375 C -115.84207,66.619201 -118.84621,64.476761 -122.5,64 z" display="inline"/><path id="path5535" fill="url(#linearGradient5836)" fill-opacity="1" stroke="none" stroke-miterlimit="4" stroke-width="1" d="M -121.39912,65.014353 C -120.47682,65.014353 -118.39068,71.210015 -119.31298,75.343603 C -115.01802,74.915844 -110.4596,75.43178 -110,76.28125 C -110.32087,75.122378 -112.67669,71.569417 -117,72 C -116.13534,68.124761 -120.18657,65.382702 -121.39912,65.014353 z" display="inline" opacity=".879"/><path id="path5537" fill="none" fill-opacity="1" stroke="url(#linearGradient5816)" stroke-miterlimit="4" stroke-width="1" d="M -51.46875,4.5 C -52.051916,4.5 -52.5,4.9480842 -52.5,5.53125 L -52.5,42.46875 C -52.5,43.051915 -52.051914,43.5 -51.46875,43.5 L -20.53125,43.5 C -19.948085,43.5 -19.5,43.051914 -19.5,42.46875 C -19.5,42.46875 -19.5,19 -19.5,17.5 C -19.5,16.220971 -19.980469,13.394531 -21.6875,11.6875 C -23.6875,9.6875 -24.6875,8.6875 -26.6875,6.6875 C -28.394531,4.9804687 -31.220971,4.5 -32.5,4.5 C -34,4.5 -51.46875,4.5 -51.46875,4.5 z" display="inline" transform="translate(-90,60)"/><g id="g5539" fill="#000" display="inline" opacity=".15" transform="matrix(0.928889,0,0,1,-148.28889,60)"><rect id="rect5549" width="28.125" height=".938" x="10" y="19.063" fill="#000" fill-opacity="1" fill-rule="evenodd" stroke="none" stroke-dasharray="none" stroke-dashoffset="0" stroke-linecap="round" stroke-linejoin="round" stroke-miterlimit="4" stroke-opacity="1" stroke-width="1" marker-end="none" marker-mid="none" marker-start="none" display="inline" opacity="1" overflow="visible" rx=".505" ry=".469" visibility="visible" style="marker:none"/><rect id="rect5553" width="28.125" height=".938" x="10" y="21.063" fill="#000" fill-opacity="1" fill-rule="evenodd" stroke="none" stroke-dasharray="none" stroke-dashoffset="0" stroke-linecap="round" stroke-linejoin="round" stroke-miterlimit="4" stroke-opacity="1" stroke-width="1" marker-end="none" marker-mid="none" marker-start="none" display="inline" opacity="1" overflow="visible" rx=".505" ry=".469" visibility="visible" style="marker:none"/><rect id="rect5555" width="28.125" height=".938" x="10" y="23.063" fill="#000" fill-opacity="1" fill-rule="evenodd" stroke="none" stroke-dasharray="none" stroke-dashoffset="0" stroke-linecap="round" stroke-linejoin="round" stroke-miterlimit="4" stroke-opacity="1" stroke-width="1" marker-end="none" marker-mid="none" marker-start="none" display="inline" opacity="1" overflow="visible" rx=".505" ry=".469" visibility="visible" style="marker:none"/><rect id="rect5557" width="28.125" height=".938" x="10" y="25.063" fill="#000" fill-opacity="1" fill-rule="evenodd" stroke="none" stroke-dasharray="none" stroke-dashoffset="0" stroke-linecap="round" stroke-linejoin="round" stroke-miterlimit="4" stroke-opacity="1" stroke-width="1" marker-end="none" marker-mid="none" marker-start="none" display="inline" opacity="1" overflow="visible" rx=".505" ry=".469" visibility="visible" style="marker:none"/><rect id="rect5559" width="28.125" height=".938" x="10" y="27.063" fill="#000" fill-opacity="1" fill-rule="evenodd" stroke="none" stroke-dasharray="none" stroke-dashoffset="0" stroke-linecap="round" stroke-linejoin="round" stroke-miterlimit="4" stroke-opacity="1" stroke-width="1" marker-end="none" marker-mid="none" marker-start="none" display="inline" opacity="1" overflow="visible" rx=".505" ry=".469" visibility="visible" style="marker:none"/><rect id="rect5561" width="28.125" height=".938" x="10" y="29.063" fill="#000" fill-opacity="1" fill-rule="evenodd" stroke="none" stroke-dasharray="none" stroke-dashoffset="0" stroke-linecap="round" stroke-linejoin="round" stroke-miterlimit="4" stroke-opacity="1" stroke-width="1" marker-end="none" marker-mid="none" marker-start="none" display="inline" opacity="1" overflow="visible" rx=".505" ry=".469" visibility="visible" style="marker:none"/><rect id="rect5563" width="28.125" height=".938" x="10" y="31.063" fill="#000" fill-opacity="1" fill-rule="evenodd" stroke="none" stroke-dasharray="none" stroke-dashoffset="0" stroke-linecap="round" stroke-linejoin="round" stroke-miterlimit="4" stroke-opacity="1" stroke-width="1" marker-end="none" marker-mid="none" marker-start="none" display="inline" opacity="1" overflow="visible" rx=".505" ry=".469" visibility="visible" style="marker:none"/><rect id="rect5565" width="28.125" height=".938" x="10" y="33.063" fill="#000" fill-opacity="1" fill-rule="evenodd" stroke="none" stroke-dasharray="none" stroke-dashoffset="0" stroke-linecap="round" stroke-linejoin="round" stroke-miterlimit="4" stroke-opacity="1" stroke-width="1" marker-end="none" marker-mid="none" marker-start="none" display="inline" opacity="1" overflow="visible" rx=".505" ry=".469" visibility="visible" style="marker:none"/><rect id="rect5567" width="28.125" height=".938" x="10" y="35.063" fill="#000" fill-opacity="1" fill-rule="evenodd" stroke="none" stroke-dasharray="none" stroke-dashoffset="0" stroke-linecap="round" stroke-linejoin="round" stroke-miterlimit="4" stroke-opacity="1" stroke-width="1" marker-end="none" marker-mid="none" marker-start="none" display="inline" opacity="1" overflow="visible" rx=".505" ry=".469" visibility="visible" style="marker:none"/><rect id="rect5569" width="12.919" height=".938" x="10" y="37.063" fill="#000" fill-opacity="1" fill-rule="evenodd" stroke="none" stroke-dasharray="none" stroke-dashoffset="0" stroke-linecap="round" stroke-linejoin="round" stroke-miterlimit="4" stroke-opacity="1" stroke-width="1" marker-end="none" marker-mid="none" marker-start="none" display="inline" opacity="1" overflow="visible" rx="1.005" ry=".469" visibility="visible" style="marker:none"/></g></g><g id="layer1-7" display="inline" transform="matrix(1.0000135,0,0,1,-2.000297,2.000003)"><path id="path4331" fill="url(#radialGradient4339)" fill-opacity="1" stroke="none" d="M 52,33.1875 A 14.625,3.3125 0 1 1 22.75,33.1875 A 14.625,3.3125 0 1 1 52,33.1875 z" opacity=".07" transform="matrix(0.897436,0,0,0.981132,1.333333,1.688679)"/><g id="g6471"><path id="path2334" fill="url(#linearGradient6482)" fill-opacity="1" fill-rule="evenodd" stroke="none" d="M 41.07975,28.46584 L 26.07975,32.938753 L 25.95475,33.003593 L 25.861,33.081403 L 23.111,35.934581 L 30.5485,35.091597 L 30.82975,35.065657 L 31.01725,34.987847 L 41.07975,32.304654 L 41.07975,28.465833 L 41.07975,28.46584 L 41.07975,28.46584 z" display="inline" opacity=".4"/><g id="g6462"><g id="g6458"><path id="path2273" fill="url(#linearGradient6484)" fill-opacity="1" fill-rule="evenodd" stroke="url(#linearGradient6486)" stroke-dasharray="none" stroke-linecap="butt" stroke-linejoin="round" stroke-miterlimit="4" stroke-opacity="1" stroke-width="1" d="M 25.89225,30.18459 L 44.89225,11.18459 C 47.067299,11.544551 47.976969,12.916815 48.39225,14.68459 L 29.39225,33.68459 L 24.776133,34.389095 L 25.89225,30.18459 L 25.89225,30.18459 L 25.89225,30.18459 z"/><path id="path2313" fill="none" stroke="#fff" stroke-dasharray="none" stroke-linecap="butt" stroke-linejoin="miter" stroke-miterlimit="4" stroke-opacity="1" stroke-width="1" d="M 26.792248,30.68459 L 45.289998,12.286842 C 46.379743,12.465277 46.807259,13.274786 47.289998,14.286842 L 28.89225,32.784592 L 25.592247,33.684593 L 26.792248,30.68459 L 26.792248,30.68459 L 26.792248,30.68459 z" display="inline" opacity=".282"/></g><g id="g6451"><path id="path2298" fill="url(#linearGradient6488)" fill-opacity="1" fill-rule="evenodd" stroke="none" d="M 24.549577,34.633026 L 26.215899,30.452717 C 26.215899,30.452717 27.415434,30.698077 28.148076,31.427806 C 28.880718,32.157535 29.146467,33.371634 29.146467,33.371634 L 24.549577,34.633026 z"/><path id="path5446" fill="none" stroke="#e9b96e" stroke-dasharray="none" stroke-linecap="round" stroke-linejoin="round" stroke-miterlimit="4" stroke-opacity="1" stroke-width="1" d="M 23,21.5 L 17.5,23 L 19.5,18" transform="translate(6.39225,12.18459)"/><path id="path2283" fill="#000" fill-opacity="1" fill-rule="evenodd" stroke="none" d="M 23.95475,33.68459 L 23.0485,35.93459 L 25.39225,35.27834 C 25.39425,35.2465 25.39225,35.21693 25.39225,35.18459 C 25.39225,34.382465 24.746942,33.724789 23.95475,33.68459 z" display="inline"/></g></g></g><path id="path4113-1" fill="url(#radialGradient691)" fill-opacity="1" fill-rule="nonzero" stroke="#ef2929" stroke-width="1" d="M 42.821682,13.147263 C 44.655834,12.646732 46.706734,14.798738 46.271593,16.597182 L 48.46699,14.40178 C 49.533501,11.935217 47.334738,9.9920671 44.972276,10.907057 L 42.821682,13.147263 L 42.821682,13.147263 z" display="inline" enable-background="new" overflow="visible" visibility="visible" style="marker:none"/><path id="path4095-8" fill="url(#linearGradient649)" fill-opacity="1" fill-rule="nonzero" stroke="#888a85" stroke-width="1" d="M 40.561976,15.25084 C 42.498424,14.722356 44.663708,16.994546 44.204297,18.893426 L 46.522138,16.575416 C 47.276595,14.97964 44.477505,12.237921 42.832513,12.885525 L 40.561976,15.25084 L 40.561976,15.25084 z" display="inline" enable-background="new" overflow="visible" visibility="visible" style="marker:none"/></g></g></svg>