<svg xmlns="http://www.w3.org/2000/svg" xmlns:svg="http://www.w3.org/2000/svg" xmlns:xlink="http://www.w3.org/1999/xlink" id="svg7187" width="48" height="48"><defs id="defs7189"><linearGradient id="linearGradient4873"><stop id="stop4875" offset="0" stop-color="#fff" stop-opacity="1"/><stop id="stop4877" offset="1" stop-color="#fff" stop-opacity="0"/></linearGradient><linearGradient id="linearGradient2704" x1="62.746" x2="62.609" y1="-13.445" y2="7.107" gradientTransform="matrix(2.3440063,0,0,2.3440063,-121.79862,31.22942)" gradientUnits="userSpaceOnUse" xlink:href="#linearGradient4873"/><linearGradient id="linearGradient3811"><stop id="stop3813" offset="0" stop-color="#a40000" stop-opacity="1"/><stop id="stop3815" offset="1" stop-color="#c22f2f" stop-opacity="1"/></linearGradient><linearGradient id="linearGradient3927" x1="15.047" x2="15.047" y1="44.788" y2="3.885" gradientTransform="matrix(1.0805272,0,0,1.0805026,-1.508285,-3.3507596)" gradientUnits="userSpaceOnUse" xlink:href="#linearGradient3811"/><linearGradient id="linearGradient5106"><stop id="stop5108" offset="0" stop-color="#e78181" stop-opacity="1"/><stop id="stop8208" offset=".253" stop-color="#e15f5f" stop-opacity="1"/><stop id="stop8210" offset=".683" stop-color="#c22f2f" stop-opacity="1"/><stop id="stop5110" offset="1" stop-color="#a40000" stop-opacity="1"/></linearGradient><radialGradient id="radialGradient2707" cx="62.202" cy="-5.713" r="9.755" fx="62.202" fy="-5.713" gradientTransform="matrix(-7.565785,-6.219707e-7,3.9644633e-7,-4.8230546,494.60904,-26.555114)" gradientUnits="userSpaceOnUse" xlink:href="#linearGradient5106"/><linearGradient id="linearGradient10691"><stop id="stop10693" offset="0" stop-color="#000" stop-opacity="1"/><stop id="stop10695" offset="1" stop-color="#000" stop-opacity="0"/></linearGradient><radialGradient id="radialGradient3080" cx="6.703" cy="73.616" r="7.228" fx="6.703" fy="73.616" gradientTransform="scale(1.902215,0.525703)" gradientUnits="userSpaceOnUse" xlink:href="#linearGradient10691"/></defs><metadata id="metadata7192"/><g id="layer1"><path id="path2625" fill="url(#radialGradient3080)" fill-opacity="1" fill-rule="nonzero" stroke="none" stroke-dashoffset="0" stroke-linecap="butt" stroke-linejoin="miter" stroke-miterlimit="4" stroke-opacity="1" stroke-width=".8" marker-end="none" marker-mid="none" marker-start="none" d="M 26.5,38.700001 A 13.75,3.8 0 1 1 -1,38.700001 A 13.75,3.8 0 1 1 26.5,38.700001 z" display="inline" opacity=".5" overflow="visible" transform="matrix(1.6,0,0,1.8421053,3.6,-30.289477)" visibility="visible" style="marker:none"/><path id="path6495" fill="url(#radialGradient2707)" fill-opacity="1" fill-rule="nonzero" stroke="url(#linearGradient3927)" stroke-dasharray="none" stroke-miterlimit="4" stroke-width="1" d="M 45.499979,22.999239 C 45.499979,34.87373 35.873401,44.49998 24.000271,44.49998 C 12.126053,44.49998 2.500021,34.873621 2.500021,22.999239 C 2.500021,11.12529 12.126053,1.5000204 24.000271,1.5000204 C 35.873401,1.5000204 45.499979,11.12529 45.499979,22.999239 L 45.499979,22.999239 z"/><path id="path8655" fill="none" fill-opacity="1" fill-rule="nonzero" stroke="url(#linearGradient2704)" stroke-dasharray="none" stroke-miterlimit="4" stroke-opacity="1" stroke-width="1" d="M 44.49904,22.999272 C 44.49904,34.321462 35.320423,43.499975 23.999791,43.499975 C 12.678124,43.499975 3.500025,34.321356 3.500025,22.999272 C 3.500025,11.677606 12.678124,2.5000254 23.999791,2.5000254 C 35.320423,2.5000254 44.49904,11.677606 44.49904,22.999272 L 44.49904,22.999272 z" opacity=".6"/><path id="path2975" fill="#000" fill-opacity="1" stroke="none" stroke-dasharray="none" stroke-linecap="round" stroke-linejoin="round" stroke-miterlimit="4" stroke-opacity="1" stroke-width=".769" d="M 9.9999996,24 C 19.333334,24 28.666667,24 38,24 C 38,22.333334 38,20.666667 38,19 C 28.666667,19 19.333334,19 9.9999996,19 C 9.9999996,20.666667 9.9999996,22.333334 9.9999996,24 z" font-family="Georgia" font-size="89.631" font-stretch="normal" font-style="normal" font-variant="normal" font-weight="normal" opacity=".15" text-anchor="start" writing-mode="lr-tb" style="text-align:start;line-height:125%"/><path id="path3360" fill="#fff" fill-opacity="1" stroke="none" stroke-dasharray="none" stroke-linecap="round" stroke-linejoin="round" stroke-miterlimit="4" stroke-opacity="1" stroke-width=".769" d="M 9.9999996,26 C 19.333334,26 28.666667,26 38,26 C 38,24.000001 38,22 38,20 C 28.666667,20 19.333334,20 9.9999996,20 C 9.9999996,22 9.9999996,24.000001 9.9999996,26 z" font-family="Georgia" font-size="89.631" font-stretch="normal" font-style="normal" font-variant="normal" font-weight="normal" text-anchor="start" writing-mode="lr-tb" style="text-align:start;line-height:125%"/></g></svg>