<svg xmlns="http://www.w3.org/2000/svg" xmlns:svg="http://www.w3.org/2000/svg" xmlns:xlink="http://www.w3.org/1999/xlink" id="svg7306" width="48" height="48"><defs id="defs7308"><linearGradient id="linearGradient3212"><stop id="stop3214" offset="0" stop-color="#fff" stop-opacity="1"/><stop id="stop3216" offset="1" stop-color="#fff" stop-opacity="0"/></linearGradient><linearGradient id="linearGradient3218" x1="22" x2="22" y1="12" y2="48" gradientUnits="userSpaceOnUse" xlink:href="#linearGradient3212"/><linearGradient id="linearGradient7344"><stop id="stop7346" offset="0" stop-color="#eeeeec" stop-opacity="1"/><stop id="stop7348" offset="1" stop-color="#babdb6" stop-opacity="1"/></linearGradient><linearGradient id="linearGradient3210" x1="22" x2="22" y1="-38" y2="-13" gradientUnits="userSpaceOnUse" xlink:href="#linearGradient7344"/><linearGradient id="linearGradient6889"><stop id="stop6891" offset="0" stop-color="#000" stop-opacity="1"/><stop id="stop6893" offset="1" stop-color="#000" stop-opacity="0"/></linearGradient><radialGradient id="radialGradient7899" cx="21.578" cy="24.484" r="3.172" fx="21.578" fy="24.484" gradientTransform="matrix(1,0,0,2.2315271,0,-80.153171)" gradientUnits="userSpaceOnUse" xlink:href="#linearGradient6889"/><linearGradient id="linearGradient6866"><stop id="stop6868" offset="0" stop-color="#fff" stop-opacity="1"/><stop id="stop6870" offset="1" stop-color="#fff" stop-opacity="0"/></linearGradient><linearGradient id="linearGradient7897" x1="22" x2="22" y1="12" y2="48" gradientUnits="userSpaceOnUse" xlink:href="#linearGradient6866"/><linearGradient id="linearGradient6844"><stop id="stop6846" offset="0" stop-color="#eeeeec" stop-opacity="1"/><stop id="stop6848" offset="1" stop-color="#babdb6" stop-opacity="1"/></linearGradient><linearGradient id="linearGradient3208" x1="22" x2="22" y1="-38" y2="-13" gradientUnits="userSpaceOnUse" xlink:href="#linearGradient6844"/></defs><metadata id="metadata7311"/><g id="layer1"><g id="g7411" transform="translate(-4.19e-4,50.00004)"><g id="g6954" opacity=".5" transform="translate(0,-50)"><path id="path6939" fill="#000" fill-opacity="1" fill-rule="evenodd" stroke="none" stroke-linecap="square" stroke-linejoin="miter" stroke-miterlimit="4" stroke-opacity="1" stroke-width="1" d="M 31.235169,37.96875 C 30.525485,37.84123 30.01085,37.221028 30.016419,36.5 L 30.016419,34.96875 L 28.485169,34.96875 C 25.942721,34.968749 23.474286,33.900531 21.516419,32.15625 C 21.504985,32.146064 21.496537,32.135231 21.485169,32.125 C 19.705399,33.793323 17.505646,34.96875 14.985169,34.96875 C 11.656787,34.96875 10.485169,34.96875 10.485169,34.96875 L 8.485169,34.96875 C 7.6766974,34.962276 7.0228926,34.308472 7.016419,33.5 L 7.016419,29.5 C 7.0228926,28.691528 7.6766974,28.037724 8.485169,28.03125 L 10.485169,28.03125 C 10.485169,28.03125 11.656787,28.03125 14.985169,28.03125 C 15.881915,28.03125 16.595832,27.742907 17.110169,27.21875 C 17.624506,26.694593 18.016419,25.866365 18.016419,24.5 L 24.953919,24.5 C 24.953919,25.499884 25.414405,26.296614 26.203919,27 C 26.93845,27.6544 28.158579,28.03125 28.485169,28.03125 L 30.016419,28.03125 L 30.016419,26.5 C 30.01049,25.941999 30.318789,25.428058 30.813885,25.170608 C 31.308981,24.913158 31.906772,24.955932 32.360169,25.28125 L 39.360169,30.28125 C 39.760796,30.557645 40,31.01328 40,31.5 C 40,31.98672 39.760796,32.442355 39.360169,32.71875 L 32.360169,37.71875 C 32.034318,37.95059 31.628543,38.040762 31.235169,37.96875 z" opacity=".24"/><path id="path6906" fill="#000" fill-opacity="1" fill-rule="evenodd" stroke="none" stroke-linecap="square" stroke-linejoin="miter" stroke-miterlimit="4" stroke-opacity="1" stroke-width="1" d="M 31.25,11.03125 C 30.540316,11.15877 30.025681,11.778972 30.03125,12.5 L 30.03125,14.03125 L 28.5,14.03125 C 25.957552,14.031251 23.489117,15.099469 21.53125,16.84375 C 21.519816,16.853936 21.511368,16.864769 21.5,16.875 C 19.72023,15.206677 17.520477,14.03125 15,14.03125 C 11.671618,14.03125 10.5,14.03125 10.5,14.03125 L 8.5,14.03125 C 7.6915284,14.037724 7.0377236,14.691528 7.03125,15.5 L 7.03125,19.5 C 7.0377236,20.308472 7.6915284,20.962276 8.5,20.96875 L 10.5,20.96875 C 10.5,20.96875 11.671618,20.96875 15,20.96875 C 15.896746,20.96875 16.610663,21.257093 17.125,21.78125 C 17.639337,22.305407 18.03125,23.133635 18.03125,24.5 L 24.96875,24.5 C 24.96875,23.500116 25.429236,22.703386 26.21875,22 C 26.953281,21.3456 28.17341,20.96875 28.5,20.96875 L 30.03125,20.96875 L 30.03125,22.5 C 30.025321,23.058001 30.33362,23.571942 30.828716,23.829392 C 31.323812,24.086842 31.921603,24.044068 32.375,23.71875 L 39.375,18.71875 C 39.775627,18.442355 40.014831,17.98672 40.014831,17.5 C 40.014831,17.01328 39.775627,16.557645 39.375,16.28125 L 32.375,11.28125 C 32.049149,11.04941 31.643374,10.959238 31.25,11.03125 z" opacity=".24"/></g><path id="path6793" fill="url(#linearGradient3208)" fill-opacity="1" fill-rule="evenodd" stroke="#888a85" stroke-dasharray="none" stroke-linecap="square" stroke-linejoin="miter" stroke-miterlimit="4" stroke-opacity="1" stroke-width="1" d="M 31.5,-13.5 L 31.5,-16.5 L 28.5,-16.5 C 26.37778,-16.500001 24.25302,-17.403558 22.53125,-18.9375 C 20.80948,-20.471442 19.5,-22.765079 19.5,-25.5 C 19.5,-28.83603 17.46087,-30.5 15,-30.5 C 11.67162,-30.5 10.5,-30.5 10.5,-30.5 L 8.5,-30.5 L 8.5,-34.5 L 10.5,-34.5 C 10.5,-34.5 11.67162,-34.5 15,-34.5 C 19.53913,-34.5 23.5,-30.70856 23.5,-25.5 C 23.5,-24.034921 24.19052,-22.822308 25.21875,-21.90625 C 26.24698,-20.990192 27.62222,-20.5 28.5,-20.5 L 31.5,-20.5 L 31.5,-23.5 L 38.5,-18.5 L 31.5,-13.5 z"/><path id="path6854" fill="none" fill-opacity="1" fill-rule="evenodd" stroke="url(#linearGradient7897)" stroke-dasharray="none" stroke-linecap="square" stroke-linejoin="miter" stroke-miterlimit="4" stroke-opacity="1" stroke-width=".8" d="M 9.3125,16.3125 L 9.3125,18.6875 L 10.5,18.6875 C 10.5,18.6875 11.671618,18.6875 15,18.6875 C 16.413566,18.6875 17.766294,19.185013 18.75,20.1875 C 19.733706,21.189987 20.3125,22.66644 20.3125,24.5 C 20.3125,26.975571 21.488317,29.066296 23.0625,30.46875 C 24.654703,31.887258 26.608398,32.687499 28.5,32.6875 L 31.5,32.6875 C 31.948713,32.687545 32.312455,33.051287 32.3125,33.5 L 32.3125,34.9375 L 37.125,31.5 L 32.3125,28.0625 L 32.3125,29.5 C 32.312455,29.948713 31.948713,30.312455 31.5,30.3125 L 28.5,30.3125 C 27.31973,30.3125 25.876909,29.747156 24.6875,28.6875 C 23.528266,27.654728 22.6875,26.220378 22.6875,24.5 C 22.6875,19.703353 19.086683,16.3125 15,16.3125 C 11.671618,16.3125 10.5,16.3125 10.5,16.3125 L 9.3125,16.3125 z" opacity="1" transform="translate(0,-50)"/><path id="path6876" fill="url(#radialGradient7899)" fill-opacity="1" fill-rule="evenodd" stroke="none" stroke-dasharray="none" stroke-linecap="square" stroke-linejoin="miter" stroke-miterlimit="4" stroke-opacity="1" stroke-width="1" d="M 20.96875,-32.59375 C 19.81873,-31.410981 18.90005,-29.926235 18.40625,-28.1875 C 18.8073,-27.506382 19.03125,-26.625565 19.03125,-25.5 C 19.03125,-22.612396 20.41009,-20.205101 22.21875,-18.59375 C 22.2805,-18.538734 22.34351,-18.49099 22.40625,-18.4375 C 23.53305,-19.736061 24.36172,-21.355695 24.75,-23.15625 C 24.2715,-23.835386 23.96875,-24.607475 23.96875,-25.5 C 23.96875,-28.400128 22.79538,-30.894254 20.96875,-32.59375 z" opacity=".6"/><path id="path6784" fill="url(#linearGradient3210)" fill-opacity="1" fill-rule="evenodd" stroke="#888a85" stroke-dasharray="none" stroke-linecap="square" stroke-linejoin="miter" stroke-miterlimit="4" stroke-opacity="1" stroke-width="1" d="M 31.5,-37.5 L 31.5,-34.5 L 28.5,-34.5 C 26.37778,-34.499999 24.25302,-33.596442 22.53125,-32.0625 C 20.80948,-30.528558 19.5,-28.234921 19.5,-25.5 C 19.5,-22.16397 17.46087,-20.5 15,-20.5 C 11.67162,-20.5 10.5,-20.5 10.5,-20.5 L 8.5,-20.5 L 8.5,-16.5 L 10.5,-16.5 C 10.5,-16.5 11.67162,-16.5 15,-16.5 C 19.53913,-16.5 23.5,-20.29144 23.5,-25.5 C 23.5,-26.965079 24.19052,-28.177692 25.21875,-29.09375 C 26.24698,-30.009808 27.62222,-30.5 28.5,-30.5 L 31.5,-30.5 L 31.5,-27.5 L 38.5,-32.5 L 31.5,-37.5 z"/><path id="path6816" fill="none" fill-opacity="1" fill-rule="evenodd" stroke="url(#linearGradient3218)" stroke-dasharray="none" stroke-linecap="square" stroke-linejoin="miter" stroke-miterlimit="4" stroke-opacity="1" stroke-width=".8" d="M 32.34375,14.15625 L 32.34375,15.5 C 32.338947,15.963986 31.963986,16.338947 31.5,16.34375 L 28.5,16.34375 C 26.619762,16.343751 24.679569,17.14968 23.09375,18.5625 C 21.526839,19.958475 20.34375,22.037208 20.34375,24.5 C 20.34375,26.341717 19.773152,27.832911 18.78125,28.84375 C 17.789348,29.854589 16.42259,30.34375 15,30.34375 C 11.671618,30.34375 10.5,30.34375 10.5,30.34375 L 9.34375,30.34375 L 9.34375,32.65625 L 10.5,32.65625 C 10.5,32.65625 11.671618,32.65625 15,32.65625 C 19.064388,32.65625 22.65625,29.27635 22.65625,24.5 C 22.65625,22.767042 23.490561,21.319774 24.65625,20.28125 C 25.853601,19.214519 27.304825,18.65625 28.5,18.65625 L 31.5,18.65625 C 31.963986,18.661053 32.338947,19.036014 32.34375,19.5 L 32.34375,20.84375 L 37.03125,17.5 L 32.34375,14.15625 z" opacity="1" transform="translate(0,-50)"/></g></g></svg>