<svg xmlns="http://www.w3.org/2000/svg" xmlns:svg="http://www.w3.org/2000/svg" xmlns:xlink="http://www.w3.org/1999/xlink" id="svg7365" width="48" height="48"><defs id="defs7367"><linearGradient id="linearGradient3201"><stop id="stop3203" offset="0" stop-color="#fff" stop-opacity="1"/><stop id="stop3205" offset="1" stop-color="#fff" stop-opacity="0"/></linearGradient><linearGradient id="linearGradient3207" x1="24" x2="24" y1="13" y2="48" gradientUnits="userSpaceOnUse" xlink:href="#linearGradient3201"/><linearGradient id="linearGradient7344"><stop id="stop7346" offset="0" stop-color="#eeeeec" stop-opacity="1"/><stop id="stop7348" offset="1" stop-color="#babdb6" stop-opacity="1"/></linearGradient><linearGradient id="linearGradient3199" x1="-26" x2="-26" y1="-37" y2="-13" gradientUnits="userSpaceOnUse" xlink:href="#linearGradient7344"/></defs><metadata id="metadata7370"/><g id="layer1"><g id="g7423" transform="translate(50,50.000079)"><g id="g7289" opacity=".4" transform="translate(-50,-50)"><path id="path7261" fill="#000" fill-opacity="1" stroke="none" stroke-dasharray="none" stroke-dashoffset=".7" stroke-linecap="round" stroke-linejoin="round" stroke-miterlimit="4" stroke-opacity="1" stroke-width="1" d="M 13.5,13 C 9.935113,13 7,15.935113 7,19.5 L 7,28.5625 C 7,32.127387 9.935113,35.0625 13.5,35.0625 L 18.5,35.0625 C 19.327799,35.060985 19.998485,34.390299 20,33.5625 L 20,31.5 L 11,31.5 L 11,17 L 37,17 L 37,31.5 L 21,31.5 C 21,31.982841 21.23341,32.436274 21.625,32.71875 L 28.625,37.71875 C 29.082441,38.044816 29.687707,38.100223 30.1875,37.84375 C 30.687293,37.587277 30.998151,37.061754 31,36.5 L 31,35.0625 L 34.5,35.0625 C 38.064887,35.0625 40.999997,32.127386 41,28.5625 L 41,19.5 C 41,15.935113 38.064888,13 34.5,13 L 13.5,13 z" opacity=".24"/><path id="path7255" fill="#000" fill-opacity="1" stroke="none" stroke-dasharray="none" stroke-dashoffset=".7" stroke-linecap="round" stroke-linejoin="round" stroke-miterlimit="4" stroke-opacity="1" stroke-width="1" d="M 11,17 L 11,31.5 L 20,31.5 L 20,29.5625 C 19.998485,28.734701 19.327799,28.064015 18.5,28.0625 L 14,28.0625 L 14,20 L 34,20 L 34,28.0625 L 31,28.0625 L 31,26.5 C 30.998151,25.938246 30.687293,25.412723 30.1875,25.15625 C 29.687707,24.899776 29.082441,24.955184 28.625,25.28125 L 21.625,30.28125 C 21.23341,30.563726 21,31.017159 21,31.5 L 37,31.5 L 37,17 L 11,17 z" opacity=".24"/></g><path id="rect7213" fill="url(#linearGradient3199)" fill-opacity="1" stroke="#888a85" stroke-dasharray="none" stroke-dashoffset=".7" stroke-linecap="round" stroke-linejoin="round" stroke-miterlimit="4" stroke-opacity="1" stroke-width="1" d="M -36.5,-35.5 C -39.235898,-35.5 -41.5,-33.235898 -41.5,-30.5 L -41.5,-21.4375 C -41.5,-18.701602 -39.235898,-16.4375 -36.5,-16.4375 L -31.5,-16.4375 L -31.5,-20.4375 L -36.5,-20.4375 C -37.089087,-20.4375 -37.5,-20.848413 -37.5,-21.4375 L -37.5,-30.5 C -37.5,-31.089086 -37.089087,-31.5 -36.5,-31.5 L -15.5,-31.5 C -14.910909,-31.5 -14.5,-31.089087 -14.5,-30.5 L -14.5,-21.4375 C -14.5,-20.848414 -14.910913,-20.4375 -15.5,-20.4375 L -20.5,-20.4375 L -20.5,-23.5 L -27.5,-18.5 L -20.5,-13.5 L -20.5,-16.4375 L -15.5,-16.4375 C -12.764102,-16.4375 -10.500002,-18.701602 -10.5,-21.4375 L -10.5,-30.5 C -10.5,-33.235898 -12.764101,-35.5 -15.5,-35.5 L -36.5,-35.5 z" opacity="1"/><path id="path7239" fill="none" fill-opacity="1" stroke="url(#linearGradient3207)" stroke-dasharray="none" stroke-dashoffset=".7" stroke-linecap="round" stroke-linejoin="miter" stroke-miterlimit="4" stroke-opacity="1" stroke-width=".8" d="M 13.5,15.40625 C 11.264082,15.40625 9.40625,17.264082 9.40625,19.5 L 9.40625,28.5625 C 9.40625,30.798418 11.264082,32.65625 13.5,32.65625 L 17.59375,32.65625 L 17.59375,30.46875 L 13.5,30.46875 C 12.489481,30.46875 11.59375,29.573019 11.59375,28.5625 L 11.59375,19.5 C 11.59375,18.489482 12.48948,17.59375 13.5,17.59375 L 34.5,17.59375 C 35.51052,17.59375 36.40625,18.489485 36.40625,19.5 L 36.40625,28.5625 C 36.40625,29.573018 35.51052,30.46875 34.5,30.46875 L 29.5,30.46875 C 28.999513,30.4687 28.5938,30.062987 28.59375,29.5625 L 28.59375,28.28125 L 24.09375,31.5 L 28.59375,34.71875 L 28.59375,33.5625 C 28.5938,33.062013 28.999513,32.6563 29.5,32.65625 L 34.5,32.65625 C 36.735918,32.65625 38.593748,30.798419 38.59375,28.5625 L 38.59375,19.5 C 38.59375,17.264082 36.735919,15.40625 34.5,15.40625 L 13.5,15.40625 z" opacity="1" transform="translate(-50,-50)"/></g></g></svg>