<svg xmlns="http://www.w3.org/2000/svg" xmlns:svg="http://www.w3.org/2000/svg" xmlns:xlink="http://www.w3.org/1999/xlink" id="svg7387" width="48" height="48"><defs id="defs7389"><radialGradient id="radialGradient3213" cx="27.577" cy="15.048" r="3.834" fx="27.577" fy="15.048" gradientTransform="matrix(1.341804,0,0,1.341804,-9.425986,-5.222852)" gradientUnits="userSpaceOnUse" xlink:href="#linearGradient11494"/><linearGradient id="linearGradient11494"><stop id="stop11496" offset="0" stop-color="#ef2929" stop-opacity="1"/><stop id="stop11498" offset="1" stop-color="#ef2929" stop-opacity="0"/></linearGradient><radialGradient id="radialGradient3211" cx="27.577" cy="15.259" r="3.834" fx="27.577" fy="15.259" gradientTransform="matrix(1.478479,0,0,1.478479,-13.1951,-7.329062)" gradientUnits="userSpaceOnUse" xlink:href="#linearGradient11494"/><linearGradient id="linearGradient2660"><stop id="stop2662" offset="0" stop-color="#edeeec" stop-opacity="1"/><stop id="stop2664" offset="1" stop-color="#babdb6" stop-opacity="1"/></linearGradient><radialGradient id="radialGradient3209" cx="17.62" cy="21.611" r="8" fx="17.62" fy="21.611" gradientTransform="matrix(4.072994,0,0,2.874492,-48.88488,-43.21542)" gradientUnits="userSpaceOnUse" xlink:href="#linearGradient2660"/><linearGradient id="linearGradient15653"><stop id="stop15655" offset="0" stop-color="#f0f1ee" stop-opacity="1"/><stop id="stop15657" offset="1" stop-color="#d5d9d1" stop-opacity="1"/></linearGradient><radialGradient id="radialGradient3207" cx="22.75" cy="10.25" r="19.875" fx="22.75" fy="10.25" gradientTransform="matrix(1.616548,0,0,1.708051,-14.02647,-8.007523)" gradientUnits="userSpaceOnUse" xlink:href="#linearGradient15653"/><linearGradient id="linearGradient15679"><stop id="stop15681" offset="0" stop-color="#000" stop-opacity="1"/><stop id="stop15683" offset="1" stop-color="#000" stop-opacity="0"/></linearGradient><radialGradient id="radialGradient15685" cx="23.313" cy="40.938" r="17.188" fx="23.313" fy="40.938" gradientTransform="matrix(1,0,0,0.316364,0,27.98636)" gradientUnits="userSpaceOnUse" xlink:href="#linearGradient15679"/></defs><metadata id="metadata7392"/><g id="layer1"><path id="path15677" fill="url(#radialGradient15685)" fill-opacity="1" fill-rule="nonzero" stroke="none" stroke-dasharray="none" stroke-dashoffset="0" stroke-linecap="round" stroke-linejoin="round" stroke-miterlimit="4" stroke-opacity="1" stroke-width="1" marker-end="none" marker-mid="none" marker-start="none" d="M 40.5,40.9375 A 17.1875,5.4375 0 1 1 6.125,40.9375 A 17.1875,5.4375 0 1 1 40.5,40.9375 z" display="block" opacity=".369" overflow="visible" transform="translate(-0.125151,0.625)" visibility="visible" style="marker:none"/><g id="g3215" transform="translate(-1.5095767e-4,0)"><g id="g3152" transform="matrix(1.006289,0,0,1,0.477995,0.5)"><path id="path15651" fill="url(#radialGradient3207)" fill-opacity="1" fill-rule="nonzero" stroke="#888a85" stroke-dasharray="none" stroke-dashoffset="0" stroke-linecap="round" stroke-linejoin="round" stroke-miterlimit="4" stroke-opacity="1" stroke-width=".997" marker-end="none" marker-mid="none" marker-start="none" d="M 23,3 C 15.599034,8.5765861 4,12 4,12 C 7,37.75 23.375,44 23.375,44 C 23.375,44 39.5,37.5 42.75,11.625 C 42.75,11.625 28.75,6.5 23,3 z" display="block" opacity="1" overflow="visible" visibility="visible" style="marker:none"/><path id="path15665" fill="none" fill-opacity="1" fill-rule="nonzero" stroke="#fff" stroke-dasharray="none" stroke-dashoffset="0" stroke-linecap="round" stroke-linejoin="round" stroke-miterlimit="4" stroke-opacity="1" stroke-width=".997" marker-end="none" marker-mid="none" marker-start="none" d="M 23.023587,4.289309 C 16.08809,9.5151669 5.218554,12.723272 5.218554,12.723272 C 8.029875,36.853777 23.335694,42.710696 23.335694,42.710696 C 23.335694,42.710696 38.485853,36.619501 41.53145,12.371857 C 41.53145,12.371857 28.411952,7.5691835 23.023587,4.289309 z" display="block" opacity="1" overflow="visible" visibility="visible" style="marker:none"/><path id="path15667" fill="url(#radialGradient3209)" fill-opacity="1" fill-rule="nonzero" stroke="none" stroke-dasharray="none" stroke-dashoffset="0" stroke-linecap="round" stroke-linejoin="round" stroke-miterlimit="4" stroke-opacity="1" stroke-width="1" marker-end="none" marker-mid="none" marker-start="none" d="M 22.88299,7 L 22.88299,40 C 22.88299,40 10.564533,34.740576 6.8829905,14 C 12.13299,13.125 22.88299,7 22.88299,7 z" display="block" opacity="1" overflow="visible" visibility="visible" style="marker:none"/></g><g id="g3168" transform="translate(0,1)"><path id="path11482" fill="#ef2929" fill-opacity="1" fill-rule="evenodd" stroke="none" stroke-dasharray="none" stroke-dashoffset="0" stroke-linecap="butt" stroke-linejoin="miter" stroke-miterlimit="10" stroke-opacity="1" stroke-width="1" marker-end="none" marker-mid="none" marker-start="none" d="M 30.910667,18.604561 A 3.3335035,3.3335035 0 1 1 24.24366,18.604561 A 3.3335035,3.3335035 0 1 1 30.910667,18.604561 z" display="inline" overflow="visible" transform="matrix(0,-0.513163,-0.513163,0,33.54717,35.4008)" visibility="visible" style="marker:none"/><path id="path11488" fill="none" fill-opacity="1" fill-rule="evenodd" stroke="url(#radialGradient3211)" stroke-dasharray="none" stroke-dashoffset="0" stroke-linecap="butt" stroke-linejoin="miter" stroke-miterlimit="10" stroke-opacity="1" stroke-width="1.587" marker-end="none" marker-mid="none" marker-start="none" d="M 30.910667,18.604561 A 3.3335035,3.3335035 0 1 1 24.24366,18.604561 A 3.3335035,3.3335035 0 1 1 30.910667,18.604561 z" display="inline" overflow="visible" transform="matrix(0,-1.773758,-1.773758,0,56.99999,70.16445)" visibility="visible" style="marker:none"/><path id="path11490" fill="none" fill-opacity="1" fill-rule="evenodd" stroke="url(#radialGradient3213)" stroke-dasharray="none" stroke-dashoffset="0" stroke-linecap="butt" stroke-linejoin="miter" stroke-miterlimit="10" stroke-opacity="1" stroke-width=".811" marker-end="none" marker-mid="none" marker-start="none" d="M 30.910667,18.604561 A 3.3335035,3.3335035 0 1 1 24.24366,18.604561 A 3.3335035,3.3335035 0 1 1 30.910667,18.604561 z" display="inline" overflow="visible" transform="matrix(0,-3.46785,-3.46785,0,88.51783,116.8829)" visibility="visible" style="marker:none"/></g></g></g></svg>