<svg xmlns="http://www.w3.org/2000/svg" xmlns:svg="http://www.w3.org/2000/svg" xmlns:xlink="http://www.w3.org/1999/xlink" id="svg7331" width="48" height="48"><defs id="defs7333"><filter id="filter5186-4" width="1.335" height="1.67" x="-.168" y="-.335"><feGaussianBlur id="feGaussianBlur5188-3" stdDeviation="1.815"/></filter><radialGradient id="radialGradient5136-7-125" cx="22" cy="38.5" r="13" fx="22" fy="38.5" gradientTransform="matrix(1,0,0,0.5,0,19.25)" gradientUnits="userSpaceOnUse" xlink:href="#linearGradient5130-4-585"/><linearGradient id="linearGradient5130-4-585"><stop id="stop7221" offset="0" stop-color="#000" stop-opacity="1"/><stop id="stop7223" offset="1" stop-color="#000" stop-opacity="0"/></linearGradient><linearGradient id="linearGradient9746-7-50" x1="22.097" x2="24.238" y1="8.008" y2="38.437" gradientUnits="userSpaceOnUse" xlink:href="#linearGradient9738-2-558"/><linearGradient id="linearGradient9738-2-558"><stop id="stop7227" offset="0" stop-color="#8d8d8d" stop-opacity="1"/><stop id="stop7229" offset=".644" stop-color="#8d8d8d" stop-opacity="1"/><stop id="stop7231" offset="1" stop-color="#b9b9b9" stop-opacity="1"/></linearGradient><linearGradient id="linearGradient10889-569" x1="22.097" x2="22.097" y1="19.875" y2="39.53" gradientUnits="userSpaceOnUse" xlink:href="#linearGradient10883-13"/><linearGradient id="linearGradient10883-13"><stop id="stop7235" offset="0" stop-color="#747474" stop-opacity="1"/><stop id="stop7237" offset="1" stop-color="#5e5e5e" stop-opacity="1"/></linearGradient><linearGradient id="linearGradient5208-4-387" x1="22.109" x2="22.109" y1="11.344" y2="49.613" gradientUnits="userSpaceOnUse" xlink:href="#linearGradient5202-3-401"/><linearGradient id="linearGradient5202-3-401"><stop id="stop7241" offset="0" stop-color="#fff" stop-opacity="1"/><stop id="stop7243" offset="1" stop-color="#fff" stop-opacity="0"/></linearGradient><linearGradient id="linearGradient9803-906" x1="132.25" x2="34" y1="93" y2="207" gradientTransform="matrix(0.182877,0,0,0.182877,-2.233974,-5.1275515)" gradientUnits="userSpaceOnUse" xlink:href="#linearGradient9690-0-142"/><linearGradient id="linearGradient9690-0-142"><stop id="stop7247" offset="0" stop-color="#fff" stop-opacity="1"/><stop id="stop7249" offset="1" stop-color="#fff" stop-opacity="0"/></linearGradient></defs><metadata id="metadata7336"/><g id="layer1"><g id="layer1-9" display="inline" transform="translate(-0.4507394,-0.9610005)"><path id="path4551-4" fill="url(#radialGradient5136-7-125)" fill-opacity="1" fill-rule="nonzero" stroke="none" stroke-width="1" d="M 35,38.5 A 13,6.5 0 1 1 9,38.5 A 13,6.5 0 1 1 35,38.5 z" display="inline" enable-background="accumulate" filter="url(#filter5186-4)" opacity=".434" overflow="visible" transform="matrix(1.3257204,0,0,1.3060079,-3.6937336,-12.797355)" visibility="visible" style="marker:none"/><path id="path4547-2" fill="url(#linearGradient9746-7-50)" fill-opacity="1" fill-rule="nonzero" stroke="url(#linearGradient10889-569)" stroke-dasharray="none" stroke-dashoffset="0" stroke-linecap="butt" stroke-linejoin="miter" stroke-miterlimit="4" stroke-opacity="1" stroke-width="1" d="M 35.099492,35.723338 L 26.703003,33.840596 L 22.097088,41.10911 L 17.491173,33.840597 L 9.094684,35.723338 L 10.977425,27.32685 L 3.7089119,22.720934 L 10.977425,18.115019 L 9.0946839,9.71853 L 17.491172,11.601271 L 22.097088,4.3327579 L 26.703002,11.601271 L 35.099492,9.71853 L 33.21675,18.115018 L 40.485264,22.720934 L 33.216751,27.326849 L 35.099492,35.723338 z" display="inline" enable-background="accumulate" overflow="visible" transform="matrix(1.1209343,0,0,1.1042669,-0.1974224,-1.3744715)" visibility="visible" style="marker:none"/><path id="path5198-26" fill="none" stroke="url(#linearGradient5208-4-387)" stroke-dasharray="none" stroke-dashoffset="0" stroke-linecap="butt" stroke-linejoin="miter" stroke-miterlimit="4" stroke-opacity="1" stroke-width="1" d="M 22.09375,6.28125 L 18.375,12.15625 C 18.144232,12.525755 17.707972,12.712723 17.28125,12.625 L 10.46875,11.09375 L 12,17.90625 C 12.087723,18.332972 11.900755,18.769232 11.53125,19 L 5.65625,22.71875 L 11.53125,26.4375 C 11.900755,26.668268 12.087723,27.104528 12,27.53125 L 10.46875,34.34375 L 17.28125,32.8125 C 17.707972,32.724777 18.144232,32.911745 18.375,33.28125 L 22.09375,39.15625 L 25.8125,33.28125 C 26.043268,32.911745 26.479528,32.724777 26.90625,32.8125 L 33.71875,34.34375 L 32.1875,27.53125 C 32.099777,27.104528 32.286745,26.668268 32.65625,26.4375 L 38.5625,22.71875 L 32.65625,19 C 32.286745,18.769232 32.099777,18.332972 32.1875,17.90625 L 33.71875,11.09375 L 26.90625,12.625 C 26.479528,12.712723 26.043268,12.525755 25.8125,12.15625 L 22.09375,6.28125 z" display="inline" enable-background="accumulate" opacity=".337" overflow="visible" transform="matrix(1.1263736,0,0,1.1263736,-0.2940419,-1.8085508)" visibility="visible" xlink:href="#path4547-2" style="marker:none"/><path id="rect4610-4" fill="#e4e4e4" fill-opacity="1" fill-rule="nonzero" stroke="none" stroke-width=".907" d="M 21.723958,31 C 21.030184,31 20.484375,30.400625 20.484375,29.651042 L 20.484375,24 L 16.359375,24 L 25.036458,17 L 33.203125,24 L 29.442708,24 L 29.442708,29.651042 C 29.442708,30.400626 28.860441,31 28.166667,31 L 21.723958,31 L 21.723958,31 z" display="inline" enable-background="accumulate" overflow="visible" visibility="visible" style="marker:none"/><path id="path9688-2" fill="url(#linearGradient9803-906)" fill-opacity="1" fill-rule="nonzero" stroke="none" stroke-width="2" d="M 12.579065,29.893399 C 19.998861,24.564906 28.499973,21.716979 36.35308,18.555024 L 38.456162,10.325557 L 29.403749,12.062889 L 24.64895,4.747808 L 19.802706,11.880014 L 10.933173,10.051242 L 13.127695,18.829339 L 5.4468617,23.767018 L 12.862214,28.370356 L 12.579065,29.893399 L 12.579065,29.893399 z" display="inline" enable-background="accumulate" opacity=".364" overflow="visible" visibility="visible" style="marker:none"/></g></g></svg>