<svg xmlns="http://www.w3.org/2000/svg" xmlns:svg="http://www.w3.org/2000/svg" xmlns:xlink="http://www.w3.org/1999/xlink" id="svg1331" width="48" height="48" version="1.0"><defs id="defs1333"><filter id="filter10542" width="1.259" height="1.591" x="-.129" y="-.296"><feGaussianBlur id="feGaussianBlur10544" stdDeviation=".863"/></filter><linearGradient id="linearGradient3276"><stop id="stop3278" offset="0" stop-color="#2863b7" stop-opacity="1"/><stop id="stop3280" offset="1" stop-color="#14325c" stop-opacity="1"/></linearGradient><linearGradient id="linearGradient10910" x1="15.378" x2="22.869" y1="12.744" y2="29.821" gradientUnits="userSpaceOnUse" xlink:href="#linearGradient3276"/><linearGradient id="linearGradient3284"><stop id="stop3286" offset="0" stop-color="#173867" stop-opacity="1"/><stop id="stop8875" offset="1" stop-color="#173867" stop-opacity="0"/></linearGradient><linearGradient id="linearGradient10914" x1="23.221" x2="-4.138" y1="24.7" y2="-5.417" gradientUnits="userSpaceOnUse" xlink:href="#linearGradient3284"/><linearGradient id="linearGradient10912" x1="4.526" x2="9.744" y1="2.681" y2="9.959" gradientUnits="userSpaceOnUse" xlink:href="#linearGradient2804"/><linearGradient id="linearGradient10992" x1="106.331" x2="109.778" y1="61.759" y2="61.759" gradientUnits="userSpaceOnUse" xlink:href="#linearGradient10986"/><linearGradient id="linearGradient10996" x1="106.331" x2="109.778" y1="61.759" y2="61.759" gradientUnits="userSpaceOnUse" xlink:href="#linearGradient10986"/><linearGradient id="linearGradient11003" x1="106.331" x2="109.778" y1="61.759" y2="61.759" gradientUnits="userSpaceOnUse" xlink:href="#linearGradient10986"/><linearGradient id="linearGradient10986"><stop id="stop10988" offset="0" stop-color="#888a85" stop-opacity="1"/><stop id="stop10990" offset="1" stop-color="#888a85" stop-opacity="0"/></linearGradient><linearGradient id="linearGradient11005" x1="106.331" x2="109.778" y1="61.759" y2="61.759" gradientUnits="userSpaceOnUse" xlink:href="#linearGradient10986"/><linearGradient id="linearGradient2804"><stop id="stop2806" offset="0" stop-color="#fff" stop-opacity="1"/><stop id="stop2808" offset="1" stop-color="#fff" stop-opacity="0"/></linearGradient></defs><metadata id="metadata1336"/><g id="layer1"><rect id="rect10599" width="48" height="48" x="-1" y="-1" fill="#babdb6" fill-opacity="1" fill-rule="nonzero" stroke="none" stroke-width="2" marker-end="none" marker-mid="none" marker-start="none" display="inline" enable-background="accumulate" opacity="0" overflow="visible" visibility="visible" style="marker:none"/><path id="path10631" fill="#2e3436" fill-opacity="1" fill-rule="evenodd" stroke="none" stroke-miterlimit="4" stroke-opacity="1" stroke-width="1" d="M 52.000003,144.5 C 52.000003,146.432 48.416002,148 44.000003,148 C 39.584003,148 36.000003,146.432 36.000003,144.5 C 36.000003,142.568 39.584003,141 44.000003,141 C 48.416002,141 52.000003,142.568 52.000003,144.5 z" display="inline" enable-background="new" filter="url(#filter10542)" opacity=".75" transform="matrix(2.1000004,0,0,2.0998147,-67.912496,-266.22267)"/><path id="path10859" fill="#729fcf" fill-opacity="1" fill-rule="evenodd" stroke="url(#linearGradient10910)" stroke-dasharray="none" stroke-dashoffset="0" stroke-linecap="butt" stroke-linejoin="miter" stroke-miterlimit="4" stroke-opacity="1" stroke-width=".683" marker-end="none" marker-mid="none" marker-start="none" d="M 29.935402,16.57217 A 14.345175,14.345175 0 1 1 1.2450523,16.57217 A 14.345175,14.345175 0 1 1 29.935402,16.57217 z" display="inline" enable-background="new" overflow="visible" transform="matrix(1.4638725,0,0,1.4635016,0.6783911,-1.747581)" visibility="visible" style="marker:none"/><path id="path10861" fill="#8ab0d7" fill-opacity="1" stroke="none" stroke-dasharray="none" stroke-miterlimit="4" stroke-opacity="1" stroke-width="1" d="M -0.61557221,3.303823 A 3.1932809,3.3471739 0 1 1 -7.0021341,3.303823 A 3.1932809,3.3471739 0 1 1 -0.61557221,3.303823 z" display="inline" enable-background="new" transform="matrix(6.1376159,0,0,5.855484,46.86977,3.157873)"/><path stroke-width=".797" style="marker:none" id="path10863" fill="#babdb6" fill-opacity="1" fill-rule="evenodd" stroke="url(#linearGradient10914)" stroke-dasharray="none" stroke-dashoffset="0" stroke-linecap="butt" stroke-linejoin="miter" stroke-miterlimit="4" stroke-opacity="1" marker-end="none" marker-mid="none" marker-start="none" d="M 29.935402,16.57217 A 14.345175,14.345175 0 1 1 1.2450523,16.57217 A 14.345175,14.345175 0 1 1 29.935402,16.57217 z" display="inline" enable-background="new" opacity=".403" overflow="visible" transform="matrix(1.2547773,0,0,1.2547774,3.9377361,1.705616)" visibility="visible"/><path id="path10865" fill="#fff" fill-opacity="1" stroke="none" stroke-dasharray="none" stroke-miterlimit="4" stroke-opacity="1" stroke-width="1" d="M 7.6561793,7.5551186 A 1.615877,1.3273276 0 1 1 4.4244252,7.5551186 A 1.615877,1.3273276 0 1 1 7.6561793,7.5551186 z" display="inline" enable-background="new" transform="matrix(10.830033,0,0,13.184386,-41.916671,-77.109597)"/><path id="path10867" fill="none" fill-opacity="1" stroke="url(#linearGradient10912)" stroke-dasharray="none" stroke-miterlimit="4" stroke-opacity="1" stroke-width=".262" d="M 13,7 A 5.5,5 0 1 1 2,7 A 5.5,5 0 1 1 13,7 z" display="inline" enable-background="new" opacity=".767" transform="matrix(3.6363636,0,0,3.9999999,-3.7727269,-5.499999)"/><path id="rect10962" fill="#2e3436" fill-opacity="1" fill-rule="nonzero" stroke="none" stroke-dashoffset="0" stroke-linecap="square" stroke-linejoin="miter" stroke-miterlimit="4" stroke-opacity=".957" stroke-width="1" marker-end="none" marker-mid="none" marker-start="none" d="M 32.80086,13.267032 C 33.14936,13.615536 33.14937,14.176675 32.80086,14.525183 L 25.51954,21.73862 C 25.17103,22.08713 24.60989,22.08712 24.26138,21.73862 C 23.91287,21.39011 23.91287,20.82898 24.26138,20.48047 L 31.5427,13.267031 C 31.89121,12.918523 32.45234,12.918521 32.80086,13.267032 z" display="inline" enable-background="accumulate" overflow="visible" visibility="visible" style="marker:none"/><path id="rect10964" fill="#555753" fill-opacity="1" fill-rule="nonzero" stroke="none" stroke-dashoffset="0" stroke-linecap="square" stroke-linejoin="miter" stroke-miterlimit="4" stroke-opacity=".957" stroke-width="1" marker-end="none" marker-mid="none" marker-start="none" d="M 31.80114,30.73862 C 32.14965,30.39011 32.14965,29.82898 31.80114,29.48047 L 25.51956,23.26141 C 25.17105,22.9129 24.60991,22.9129 24.2614,23.26141 C 23.91289,23.60991 23.91289,24.17105 24.2614,24.51956 L 30.54298,30.73862 C 30.89149,31.08713 31.45263,31.08713 31.80114,30.73862 z" display="inline" enable-background="accumulate" overflow="visible" visibility="visible" style="marker:none"/><rect id="rect10966" width="5" height="5" x="20" y="-26" fill="#2e3436" fill-opacity="1" stroke="none" stroke-dasharray="none" stroke-miterlimit="4" stroke-opacity="1" stroke-width="1" display="inline" enable-background="new" rx="2.5" ry="2.5" transform="matrix(0,1,-1,0,0,0)"/><rect id="rect10968" width="3" height="3" x="21" y="-25" fill="#fff" fill-opacity="1" stroke="none" stroke-dasharray="none" stroke-miterlimit="4" stroke-opacity="1" stroke-width="1" display="inline" enable-background="new" rx="1.5" ry="1.5" transform="matrix(0,1,-1,0,0,0)"/><path stroke-width="1" style="marker:none" id="path10982" fill="url(#linearGradient10992)" fill-opacity="1" fill-rule="nonzero" stroke="none" stroke-dasharray="none" stroke-dashoffset="0" stroke-linecap="square" stroke-linejoin="miter" stroke-miterlimit="4" stroke-opacity=".957" marker-end="none" marker-mid="none" marker-start="none" d="M 109.77834,61.759155 A 1.7235727,2.0771263 0 1 1 106.33119,61.759155 A 1.7235727,2.0771263 0 1 1 109.77834,61.759155 z" display="inline" enable-background="accumulate" opacity="1" overflow="visible" transform="matrix(0.8406311,0.2252464,-0.1869066,0.6975449,-68.791007,-44.918736)" visibility="visible"/><path stroke-width="1" style="marker:none" id="path10994" fill="url(#linearGradient10996)" fill-opacity="1" fill-rule="nonzero" stroke="none" stroke-dasharray="none" stroke-dashoffset="0" stroke-linecap="square" stroke-linejoin="miter" stroke-miterlimit="4" stroke-opacity=".957" marker-end="none" marker-mid="none" marker-start="none" d="M 109.77834,61.759155 A 1.7235727,2.0771263 0 1 1 106.33119,61.759155 A 1.7235727,2.0771263 0 1 1 109.77834,61.759155 z" display="inline" enable-background="accumulate" opacity="1" overflow="visible" transform="matrix(-0.8406311,0.2252464,0.1869066,0.6975449,115.79069,-44.918423)" visibility="visible"/><path stroke-width="1" style="marker:none" id="path10999" fill="url(#linearGradient11003)" fill-opacity="1" fill-rule="nonzero" stroke="none" stroke-dasharray="none" stroke-dashoffset="0" stroke-linecap="square" stroke-linejoin="miter" stroke-miterlimit="4" stroke-opacity=".957" marker-end="none" marker-mid="none" marker-start="none" d="M 109.77834,61.759155 A 1.7235727,2.0771263 0 1 1 106.33119,61.759155 A 1.7235727,2.0771263 0 1 1 109.77834,61.759155 z" display="inline" enable-background="accumulate" opacity="1" overflow="visible" transform="matrix(0.2252464,-0.8406311,0.6975449,0.1869066,-43.919045,114.791)" visibility="visible"/><path stroke-width="1" style="marker:none" id="path11001" fill="url(#linearGradient11005)" fill-opacity="1" fill-rule="nonzero" stroke="none" stroke-dasharray="none" stroke-dashoffset="0" stroke-linecap="square" stroke-linejoin="miter" stroke-miterlimit="4" stroke-opacity=".957" marker-end="none" marker-mid="none" marker-start="none" d="M 109.77834,61.759155 A 1.7235727,2.0771263 0 1 1 106.33119,61.759155 A 1.7235727,2.0771263 0 1 1 109.77834,61.759155 z" display="inline" enable-background="accumulate" opacity="1" overflow="visible" transform="matrix(0.2252464,0.8406311,0.6975449,-0.1869066,-43.918732,-69.790698)" visibility="visible"/></g></svg>