<svg xmlns="http://www.w3.org/2000/svg" xmlns:svg="http://www.w3.org/2000/svg" xmlns:xlink="http://www.w3.org/1999/xlink" id="svg2" width="48" height="48" version="1.0"><defs id="defs4"><filter id="filter10542" width="1.259" height="1.591" x="-.129" y="-.296"><feGaussianBlur id="feGaussianBlur10544" stdDeviation=".863"/></filter><filter id="filter10591" width="1.588" height="1.493" x="-.294" y="-.247"><feGaussianBlur id="feGaussianBlur10593" stdDeviation=".433"/></filter><linearGradient id="linearGradient3275"><stop id="stop3277" offset="0" stop-color="#2e3436" stop-opacity="1"/><stop id="stop3279" offset="1" stop-color="#61635f" stop-opacity="1"/></linearGradient><linearGradient id="linearGradient9476" x1="14.346" x2="6.81" y1="14.694" y2="4.345" gradientTransform="matrix(2.798139,0,0,2.7981393,1.1148802,0.1148595)" gradientUnits="userSpaceOnUse" xlink:href="#linearGradient3275"/><linearGradient id="linearGradient3295"><stop id="stop3297" offset="0" stop-color="#babdb6" stop-opacity="1"/><stop id="stop3299" offset="1" stop-color="#888a85" stop-opacity="1"/></linearGradient><linearGradient id="linearGradient9474" x1="4.837" x2="12.06" y1="3.566" y2="13.822" gradientTransform="matrix(2.798139,0,0,2.7981393,1.1148802,0.1148595)" gradientUnits="userSpaceOnUse" xlink:href="#linearGradient3295"/><linearGradient id="linearGradient3303"><stop id="stop3305" offset="0" stop-color="#fff" stop-opacity="1"/><stop id="stop3307" offset="1" stop-color="#fff" stop-opacity="0"/></linearGradient><linearGradient id="linearGradient9906" x1="6.849" x2="-3.385" y1="8.68" y2="-4.135" gradientTransform="matrix(-3.0771036,0,0,-3.0770117,48.11683,47.1155)" gradientUnits="userSpaceOnUse" xlink:href="#linearGradient3303"/><linearGradient id="linearGradient11259"><stop id="stop11261" offset="0" stop-color="#fff" stop-opacity="1"/><stop id="stop11263" offset="1" stop-color="#fff" stop-opacity="0"/></linearGradient><radialGradient id="radialGradient9837" cx="11.736" cy="7.369" r="9.975" fx="11.801" fy="1.173" gradientTransform="matrix(1.023438,0,0,0.8870879,-0.2709505,0.7064648)" gradientUnits="userSpaceOnUse" xlink:href="#linearGradient11259"/></defs><metadata id="metadata7"/><g id="layer1"><rect id="rect9231" width="48" height="48" x="-1" y="-1" fill="#babdb6" fill-opacity="1" fill-rule="nonzero" stroke="none" stroke-width="2" marker-end="none" marker-mid="none" marker-start="none" display="inline" enable-background="accumulate" opacity="0" overflow="visible" visibility="visible" style="marker:none"/><path id="path9247" fill="#2e3436" fill-opacity="1" fill-rule="evenodd" stroke="none" stroke-miterlimit="4" stroke-opacity="1" stroke-width="1" d="M 52.000003,144.5 C 52.000003,146.432 48.416002,148 44.000003,148 C 39.584003,148 36.000003,146.432 36.000003,144.5 C 36.000003,142.568 39.584003,141 44.000003,141 C 48.416002,141 52.000003,142.568 52.000003,144.5 z" display="inline" enable-background="new" filter="url(#filter10542)" opacity=".75" transform="matrix(2.1000004,0,0,2.0998147,-67.9125,-266.22267)"/><path id="path9448" fill="#fff" fill-opacity="1" stroke="none" d="M 13.350222,4.7465701 A 1.8659533,1.9428998 0 1 1 9.6183158,4.7465701 A 1.8659533,1.9428998 0 1 1 13.350222,4.7465701 z" display="inline" enable-background="new" filter="url(#filter10591)" opacity=".2" transform="matrix(6.1643533,-3.5894243,2.6453701,4.6210964,-64.04477,36.18816)"/><path id="path9450" fill="url(#linearGradient9474)" fill-opacity="1" stroke="url(#linearGradient9476)" stroke-miterlimit="4" stroke-opacity="1" stroke-width="1" d="M 38.34994,37.34994 C 30.15104,45.54881 16.84411,45.55019 8.6469402,37.35301 C 0.44981016,29.15587 0.45119016,15.848925 8.6500502,7.6500325 C 16.84893,-0.54883053 30.15584,-0.55021053 38.35302,7.6469275 C 46.55019,15.84411 46.54881,29.15104 38.34994,37.34994 z" display="inline" enable-background="new"/><path id="path9904" fill="none" fill-opacity="1" stroke="url(#linearGradient9906)" stroke-miterlimit="4" stroke-opacity="1" stroke-width="1" d="M 23.49996,42.5 C 28.6307,42.49945 33.73146,40.53829 37.63542,36.63442 C 45.45575,28.81435 45.45394,16.18269 37.63542,8.3644175 C 29.81694,0.54610647 17.18488,0.54427547 9.3645602,8.3644175 C 1.5441802,16.18449 1.5460502,28.81618 9.3645602,36.63442 C 13.26763,40.53743 18.37048,42.50054 23.49996,42.5 z" display="inline" enable-background="new" opacity=".4"/><path id="path9829" fill="url(#radialGradient9837)" fill-opacity="1" stroke="none" stroke-dasharray="none" stroke-miterlimit="4" stroke-opacity="1" stroke-width=".512" d="M 21.781414,10.983024 A 9.975256,9.975256 0 1 1 1.8309021,10.983024 A 9.975256,9.975256 0 1 1 21.781414,10.983024 z" display="inline" enable-background="new" transform="matrix(1.6929363,-0.9774173,0.9774173,1.6929363,-7.2230198,15.445035)"/><path id="path9454" fill="#fff" fill-opacity="1" stroke="#555753" stroke-dasharray="none" stroke-miterlimit="4" stroke-opacity="1" stroke-width="1" d="M 33.66749,12.109112 C 31.99906,10.446002 30.17036,9.8112175 28.50195,11.474326 L 23.48262,16.47762 L 18.4633,11.474326 C 16.79487,9.8112175 14.85773,10.658597 13.1893,12.321721 C 11.52086,13.984831 10.77167,15.815176 12.44011,17.478286 L 17.45944,22.48159 L 12.44011,27.48492 C 10.77167,29.148 11.51416,31.2804 13.1826,32.94351 C 14.85099,34.6066 16.79487,35.15199 18.4633,33.48889 L 23.48262,28.48557 L 28.50195,33.48889 C 30.17036,35.15199 32.21263,34.61583 33.88104,32.95273 C 35.54947,31.28964 36.19355,29.148 34.5251,27.48492 L 29.50581,22.48159 L 34.5251,17.478286 C 36.19355,15.815176 35.33588,13.772176 33.66749,12.109112 z" display="inline" enable-background="new"/><rect id="rect9456" width="11" height="11" x="18" y="17" fill="#fff" fill-opacity="1" stroke="none" display="inline" enable-background="new"/></g></svg>