<svg xmlns="http://www.w3.org/2000/svg" xmlns:svg="http://www.w3.org/2000/svg" xmlns:xlink="http://www.w3.org/1999/xlink" id="svg7214" width="22" height="22" version="1.0"><defs id="defs7216"><linearGradient id="linearGradient8303"><stop id="stop8305" offset="0" stop-color="#fff" stop-opacity="1"/><stop id="stop8307" offset="1" stop-color="#fff" stop-opacity="0"/></linearGradient><linearGradient id="linearGradient8309" x1="11" x2="11" y1="9.885" y2="22.059" gradientUnits="userSpaceOnUse" xlink:href="#linearGradient8303"/><linearGradient id="linearGradient4305-4-8-8" x1="71.999" x2="71.999" y1="14.258" y2="19.958" gradientTransform="matrix(1.0033404,0,0,1,-8.2374684,8)" gradientUnits="userSpaceOnUse"><stop id="stop4307-0-1-5" offset=".004" stop-color="#feebd6" stop-opacity="0"/><stop id="stop4309-8-0-7" offset=".461" stop-color="#f5f5f5" stop-opacity=".53"/><stop id="stop4311-0-3-4" offset="1" stop-color="#f5f5f5" stop-opacity="0"/></linearGradient><linearGradient id="linearGradient10493" x1="7.238" x2="132.86" y1="36.005" y2="35.858" gradientTransform="matrix(0.206832,0,0,0.942809,-2.3627107,-25.279216)" gradientUnits="userSpaceOnUse" xlink:href="#linearGradient4305-4-8-8"/><linearGradient id="linearGradient9065"><stop id="stop9067" offset="0" stop-color="#3465a4" stop-opacity="1"/><stop id="stop9069" offset="1" stop-color="#204a87" stop-opacity="1"/></linearGradient><linearGradient id="linearGradient10491" x1="144" x2="144.004" y1="97.02" y2="110.001" gradientTransform="translate(-134.99892,-90.000007)" gradientUnits="userSpaceOnUse" xlink:href="#linearGradient9065"/><linearGradient id="linearGradient9051"><stop id="stop9053" offset="0" stop-color="#8fb3d9" stop-opacity="1"/><stop id="stop9055" offset="1" stop-color="#3465a4" stop-opacity="1"/></linearGradient><linearGradient id="linearGradient10489" x1="28.109" x2="28.109" y1="327.612" y2="406.286" gradientTransform="matrix(0.1721822,0,0,0.1780642,6.161279,-52.343896)" gradientUnits="userSpaceOnUse" xlink:href="#linearGradient9051"/><linearGradient id="linearGradient17648"><stop id="stop17650" offset="0" stop-color="#fff" stop-opacity=".6"/><stop id="stop17652" offset="1" stop-color="#fff" stop-opacity="0"/></linearGradient><linearGradient id="linearGradient6327" x1="24.69" x2="24.648" y1="9.903" y2="42.05" gradientTransform="matrix(0.4276737,0,0,0.4666684,0.4589973,-0.6235603)" gradientUnits="userSpaceOnUse" xlink:href="#linearGradient17648"/><linearGradient id="linearGradient6293"><stop id="stop6295" offset="0" stop-color="#888a85" stop-opacity="1"/><stop id="stop6297" offset="1" stop-color="#555753" stop-opacity="0"/></linearGradient><linearGradient id="linearGradient17644" x1="25.147" x2="25.146" y1="8.933" y2="32.88" gradientTransform="matrix(0.4357475,0,0,0.4664545,4.4256114e-2,-1.2591364)" gradientUnits="userSpaceOnUse" xlink:href="#linearGradient6293"/><radialGradient id="radialGradient2099" cx="605.714" cy="486.648" r="117.143" fx="605.714" fy="486.648" gradientTransform="matrix(-3.0266061,0,0,2.3636471,203.87112,-1112.9945)" gradientUnits="userSpaceOnUse" xlink:href="#linearGradient5060"/><linearGradient id="linearGradient5060"><stop id="stop5062" offset="0" stop-color="#000" stop-opacity="1"/><stop id="stop5064" offset="1" stop-color="#000" stop-opacity="0"/></linearGradient><radialGradient id="radialGradient2097" cx="605.714" cy="486.648" r="117.143" fx="605.714" fy="486.648" gradientTransform="matrix(3.0266061,0,0,2.3636471,-1982.7418,-1112.9945)" gradientUnits="userSpaceOnUse" xlink:href="#linearGradient5060"/><linearGradient id="linearGradient5048"><stop id="stop5050" offset="0" stop-color="#000" stop-opacity="0"/><stop id="stop5056" offset=".5" stop-color="#000" stop-opacity="1"/><stop id="stop5052" offset="1" stop-color="#000" stop-opacity="0"/></linearGradient><linearGradient id="linearGradient2095" x1="302.857" x2="302.857" y1="366.648" y2="609.505" gradientTransform="matrix(3.0266061,0,0,2.3636471,-1983.3374,-1112.9945)" gradientUnits="userSpaceOnUse" xlink:href="#linearGradient5048"/></defs><metadata id="metadata7219"/><g id="layer1"><g id="g13071" display="inline" transform="matrix(9.9321963e-3,0,0,5.2262208e-3,19.835133,19.287575)"><rect id="rect13073" width="1461.418" height="574.029" x="-1620.145" y="-246.368" fill="url(#linearGradient2095)" fill-opacity="1" fill-rule="nonzero" stroke="none" stroke-dasharray="none" stroke-dashoffset="0" stroke-linecap="round" stroke-linejoin="miter" stroke-miterlimit="4" stroke-opacity="1" stroke-width="1" marker-end="none" marker-mid="none" marker-start="none" display="inline" opacity=".402" overflow="visible" visibility="visible" style="marker:none"/><path id="path13075" fill="url(#radialGradient2097)" fill-opacity="1" fill-rule="nonzero" stroke="none" stroke-dasharray="none" stroke-dashoffset="0" stroke-linecap="round" stroke-linejoin="miter" stroke-miterlimit="4" stroke-opacity="1" stroke-width="1" marker-end="none" marker-mid="none" marker-start="none" d="M -158.72638,-246.3485 C -158.72638,-246.3485 -158.72638,327.64843 -158.72638,327.64843 C -2.8636605,328.72897 218.07384,199.04484 218.07375,40.613027 C 218.07375,-117.81881 44.142695,-246.34848 -158.72638,-246.3485 z" display="inline" opacity=".402" overflow="visible" visibility="visible" style="marker:none"/><path id="path13077" fill="url(#radialGradient2099)" fill-opacity="1" fill-rule="nonzero" stroke="none" stroke-dasharray="none" stroke-dashoffset="0" stroke-linecap="round" stroke-linejoin="miter" stroke-miterlimit="4" stroke-opacity="1" stroke-width="1" marker-end="none" marker-mid="none" marker-start="none" d="M -1620.1447,-246.3485 C -1620.1447,-246.3485 -1620.1447,327.64843 -1620.1447,327.64843 C -1776.0075,328.72897 -1996.9449,199.04484 -1996.9449,40.613027 C -1996.9449,-117.81881 -1823.0139,-246.34848 -1620.1447,-246.3485 z" display="inline" opacity=".402" overflow="visible" visibility="visible" style="marker:none"/></g><path id="path15" fill="#eeeeec" fill-opacity="1" stroke="url(#linearGradient17644)" stroke-dasharray="none" stroke-miterlimit="4" stroke-width="1" d="M 20.502084,6.0000336 C 20.503428,5.7434127 20.248162,5.5000336 20.002084,5.5000336 L 10.002194,5.5000336 L 8.251082,4.0000337 C 8.021773,3.8165327 7.751072,3.5039397 7.501082,3.5000337 L 2.0020828,3.5000337 C 1.6739799,3.5000337 1.5010828,3.6578737 1.5010828,4.0000337 L 1.5010828,19.5 L 20.501084,19.5 L 20.502084,6.0000336 z"/><path id="path7263" fill="none" fill-opacity="1" stroke="url(#linearGradient6327)" stroke-dasharray="none" stroke-miterlimit="4" stroke-opacity="1" stroke-width="1" d="M 19.502084,6.7500003 C 19.50886,6.4982598 19.507835,6.4945093 19.251084,6.5000336 L 9.601083,6.5000336 L 7.901082,5.0000336 C 7.155033,4.4013771 7.406596,4.5141131 7.001082,4.5000337 L 2.7510825,4.5000337 C 2.4455736,4.5000337 2.5010825,4.4290784 2.5010825,4.7500004 L 2.5010825,6.0000336 L 2.5020828,18.5 L 19.502084,18.5 L 19.502084,6.7500003 z" opacity="1"/><path id="path11507" fill="url(#linearGradient10489)" fill-opacity="1" stroke="url(#linearGradient10491)" stroke-dasharray="none" stroke-miterlimit="4" stroke-opacity="1" stroke-width="1" d="M 21.001084,19 C 21.001084,19.495153 20.517091,19.507964 20.001084,19.5 L 2.0010831,19.5 C 1.504995,19.5 1.0041775,19.504478 1.0010831,19 L 0.50108311,8.0000001 C 0.48036311,7.7070811 0.71600311,7.5000001 1.0010831,7.5000001 L 21.001084,7.5000001 C 21.286174,7.5000001 21.522854,7.7070811 21.501084,8.0000001 L 21.001084,19 z" display="inline" enable-background="new" opacity=".9"/><rect id="rect3521-5-0-1" width="20" height="1" x="1.001" y="8" fill="url(#linearGradient10493)" fill-opacity="1" stroke="none" display="inline" enable-background="new" rx="0" ry="0"/><path id="path3290" fill="url(#linearGradient8309)" fill-opacity="1" stroke="none" stroke-dasharray="none" stroke-dashoffset="0" stroke-linecap="butt" stroke-linejoin="miter" stroke-miterlimit="4" stroke-opacity="1" stroke-width="1" d="M 16.5,14 L 11,19 L 5.5,14 L 9,14 L 9,8.9999998 L 13,8.9999998 L 13,14 L 16.5,14 L 16.5,14 z" display="inline" opacity="1" overflow="visible" visibility="visible" style="marker:none"/></g></svg>