<svg xmlns="http://www.w3.org/2000/svg" xmlns:svg="http://www.w3.org/2000/svg" xmlns:xlink="http://www.w3.org/1999/xlink" id="svg7261" width="22" height="22" version="1.0"><defs id="defs7263"><linearGradient id="linearGradient6854"><stop id="stop6856" offset="0" stop-color="#fff" stop-opacity="1"/><stop id="stop6858" offset="1" stop-color="#fff" stop-opacity="0"/></linearGradient><linearGradient id="linearGradient6860" x1="16.305" x2="16.305" y1="15.895" y2="26.736" gradientTransform="matrix(0.8377877,0,0,0.8434922,-2.2156633,-2.2438107)" gradientUnits="userSpaceOnUse" xlink:href="#linearGradient6854"/><linearGradient id="linearGradient4305-4-8-8" x1="71.999" x2="71.999" y1="14.258" y2="19.958" gradientTransform="matrix(1.0033404,0,0,1,-8.2374684,8)" gradientUnits="userSpaceOnUse"><stop id="stop4307-0-1-5" offset=".004" stop-color="#feebd6" stop-opacity="0"/><stop id="stop4309-8-0-7" offset=".461" stop-color="#f5f5f5" stop-opacity=".53"/><stop id="stop4311-0-3-4" offset="1" stop-color="#f5f5f5" stop-opacity="0"/></linearGradient><linearGradient id="linearGradient10493" x1="7.238" x2="132.86" y1="36.005" y2="35.858" gradientTransform="matrix(0.206832,0,0,0.942809,-2.3627107,-25.279216)" gradientUnits="userSpaceOnUse" xlink:href="#linearGradient4305-4-8-8"/><linearGradient id="linearGradient9065"><stop id="stop9067" offset="0" stop-color="#3465a4" stop-opacity="1"/><stop id="stop9069" offset="1" stop-color="#204a87" stop-opacity="1"/></linearGradient><linearGradient id="linearGradient10491" x1="144" x2="144.004" y1="97.02" y2="110.001" gradientTransform="translate(-134.99892,-90.000007)" gradientUnits="userSpaceOnUse" xlink:href="#linearGradient9065"/><linearGradient id="linearGradient9051"><stop id="stop9053" offset="0" stop-color="#8fb3d9" stop-opacity="1"/><stop id="stop9055" offset="1" stop-color="#3465a4" stop-opacity="1"/></linearGradient><linearGradient id="linearGradient10489" x1="28.109" x2="28.109" y1="327.612" y2="406.286" gradientTransform="matrix(0.1721822,0,0,0.1780642,6.1612795,-52.343896)" gradientUnits="userSpaceOnUse" xlink:href="#linearGradient9051"/><linearGradient id="linearGradient17648"><stop id="stop17650" offset="0" stop-color="#fff" stop-opacity=".6"/><stop id="stop17652" offset="1" stop-color="#fff" stop-opacity="0"/></linearGradient><linearGradient id="linearGradient6327" x1="24.69" x2="24.648" y1="9.903" y2="42.05" gradientTransform="matrix(0.4276737,0,0,0.4666684,0.4589973,-0.6235603)" gradientUnits="userSpaceOnUse" xlink:href="#linearGradient17648"/><linearGradient id="linearGradient6293"><stop id="stop6295" offset="0" stop-color="#888a85" stop-opacity="1"/><stop id="stop6297" offset="1" stop-color="#555753" stop-opacity="0"/></linearGradient><linearGradient id="linearGradient17644" x1="25.147" x2="25.146" y1="8.933" y2="32.88" gradientTransform="matrix(0.4357475,0,0,0.4664545,4.4256014e-2,-1.2591364)" gradientUnits="userSpaceOnUse" xlink:href="#linearGradient6293"/><radialGradient id="radialGradient2099" cx="605.714" cy="486.648" r="117.143" fx="605.714" fy="486.648" gradientTransform="matrix(-3.0266061,0,0,2.3636471,203.87112,-1112.9945)" gradientUnits="userSpaceOnUse" xlink:href="#linearGradient5060"/><linearGradient id="linearGradient5060"><stop id="stop5062" offset="0" stop-color="#000" stop-opacity="1"/><stop id="stop5064" offset="1" stop-color="#000" stop-opacity="0"/></linearGradient><radialGradient id="radialGradient2097" cx="605.714" cy="486.648" r="117.143" fx="605.714" fy="486.648" gradientTransform="matrix(3.0266061,0,0,2.3636471,-1982.7418,-1112.9945)" gradientUnits="userSpaceOnUse" xlink:href="#linearGradient5060"/><linearGradient id="linearGradient5048"><stop id="stop5050" offset="0" stop-color="#000" stop-opacity="0"/><stop id="stop5056" offset=".5" stop-color="#000" stop-opacity="1"/><stop id="stop5052" offset="1" stop-color="#000" stop-opacity="0"/></linearGradient><linearGradient id="linearGradient2095" x1="302.857" x2="302.857" y1="366.648" y2="609.505" gradientTransform="matrix(3.0266061,0,0,2.3636471,-1983.3374,-1112.9945)" gradientUnits="userSpaceOnUse" xlink:href="#linearGradient5048"/></defs><metadata id="metadata7266"/><g id="layer1"><g id="g13071" display="inline" transform="matrix(9.9321963e-3,0,0,5.2262208e-3,19.835134,19.287575)"><rect id="rect13073" width="1461.418" height="574.029" x="-1620.145" y="-246.368" fill="url(#linearGradient2095)" fill-opacity="1" fill-rule="nonzero" stroke="none" stroke-dasharray="none" stroke-dashoffset="0" stroke-linecap="round" stroke-linejoin="miter" stroke-miterlimit="4" stroke-opacity="1" stroke-width="1" marker-end="none" marker-mid="none" marker-start="none" display="inline" opacity=".402" overflow="visible" visibility="visible" style="marker:none"/><path id="path13075" fill="url(#radialGradient2097)" fill-opacity="1" fill-rule="nonzero" stroke="none" stroke-dasharray="none" stroke-dashoffset="0" stroke-linecap="round" stroke-linejoin="miter" stroke-miterlimit="4" stroke-opacity="1" stroke-width="1" marker-end="none" marker-mid="none" marker-start="none" d="M -158.72638,-246.3485 C -158.72638,-246.3485 -158.72638,327.64843 -158.72638,327.64843 C -2.8636605,328.72897 218.07384,199.04484 218.07375,40.613027 C 218.07375,-117.81881 44.142695,-246.34848 -158.72638,-246.3485 z" display="inline" opacity=".402" overflow="visible" visibility="visible" style="marker:none"/><path id="path13077" fill="url(#radialGradient2099)" fill-opacity="1" fill-rule="nonzero" stroke="none" stroke-dasharray="none" stroke-dashoffset="0" stroke-linecap="round" stroke-linejoin="miter" stroke-miterlimit="4" stroke-opacity="1" stroke-width="1" marker-end="none" marker-mid="none" marker-start="none" d="M -1620.1447,-246.3485 C -1620.1447,-246.3485 -1620.1447,327.64843 -1620.1447,327.64843 C -1776.0075,328.72897 -1996.9449,199.04484 -1996.9449,40.613027 C -1996.9449,-117.81881 -1823.0139,-246.34848 -1620.1447,-246.3485 z" display="inline" opacity=".402" overflow="visible" visibility="visible" style="marker:none"/></g><path id="path15" fill="#eeeeec" fill-opacity="1" stroke="url(#linearGradient17644)" stroke-dasharray="none" stroke-miterlimit="4" stroke-width="1" d="M 20.502085,6.0000337 C 20.503429,5.7434128 20.248163,5.5000337 20.002085,5.5000337 L 10.002195,5.5000337 L 8.2510825,4.0000336 C 8.0217735,3.8165326 7.7510725,3.5039396 7.5010825,3.5000336 L 2.0020828,3.5000336 C 1.6739799,3.5000336 1.5010828,3.6578736 1.5010828,4.0000336 L 1.5010828,19.5 L 20.501085,19.5 L 20.502085,6.0000337 z"/><path id="path7263" fill="none" fill-opacity="1" stroke="url(#linearGradient6327)" stroke-dasharray="none" stroke-miterlimit="4" stroke-opacity="1" stroke-width="1" d="M 19.502085,6.7500004 C 19.508861,6.4982599 19.507836,6.4945094 19.251085,6.5000337 L 9.6010835,6.5000337 L 7.9010825,5.0000337 C 7.1550335,4.401377 7.4065965,4.514113 7.0010825,4.5000336 L 2.7510825,4.5000336 C 2.4455736,4.5000336 2.5010825,4.4290783 2.5010825,4.7500003 L 2.5010825,6.0000337 L 2.5020828,18.5 L 19.502085,18.5 L 19.502085,6.7500004 z" opacity="1"/><path id="path11507" fill="url(#linearGradient10489)" fill-opacity="1" stroke="url(#linearGradient10491)" stroke-dasharray="none" stroke-miterlimit="4" stroke-opacity="1" stroke-width="1" d="M 21.001085,19 C 21.001085,19.495153 20.517092,19.507964 20.001085,19.5 L 2.0010831,19.5 C 1.504995,19.5 1.0041775,19.504478 1.0010831,19 L 0.50108311,8.0000001 C 0.48036311,7.7070811 0.71600311,7.5000001 1.0010831,7.5000001 L 21.001085,7.5000001 C 21.286175,7.5000001 21.522855,7.7070811 21.501085,8.0000001 L 21.001085,19 z" display="inline" enable-background="new" opacity=".9"/><rect id="rect3521-5-0-1" width="20" height="1" x="1.001" y="8" fill="url(#linearGradient10493)" fill-opacity="1" stroke="none" display="inline" enable-background="new" rx="0" ry="0"/><path id="path2347" fill="url(#linearGradient6860)" fill-opacity="1" fill-rule="evenodd" stroke="none" stroke-dasharray="none" stroke-dashoffset="0" stroke-linecap="square" stroke-linejoin="round" stroke-miterlimit="4" stroke-opacity="1" stroke-width="2.297" marker-end="none" marker-mid="none" marker-start="none" d="M 10.207941,10.003026 C 8.4218665,10.141449 7.0000005,11.661995 7.0000005,13.493509 C 6.9999985,15.415101 8.5726675,16.998477 10.481264,16.998477 C 11.416923,16.998477 12.270821,16.626667 12.898007,16.013608 C 12.93658,16.112747 13.000419,16.207925 13.070632,16.288792 C 13.1345,16.359538 13.215179,16.427885 13.300799,16.477074 L 15.602459,17.867474 C 16.039424,18.131441 16.606193,17.988783 16.868372,17.548843 C 17.130552,17.108903 16.988859,16.538274 16.551892,16.27431 L 14.250233,14.883909 C 14.094595,14.786404 13.914054,14.732878 13.73236,14.739077 C 13.879008,14.353341 13.94814,13.928869 13.94814,13.493509 C 13.94814,11.57192 12.389857,10.003026 10.481264,10.003026 C 10.391798,10.003026 10.29578,9.9962176 10.207941,10.003026 z M 10.394952,11.393427 C 10.421902,11.392413 10.454043,11.393427 10.481264,11.393427 C 11.642651,11.393428 12.567143,12.324213 12.567143,13.493509 C 12.567142,14.662805 11.642651,15.593593 10.481264,15.593593 C 9.3198735,15.593593 8.3953825,14.662805 8.3953825,13.493509 C 8.3953815,12.351617 9.2720085,11.435649 10.394952,11.393427 z" display="inline" opacity="1" overflow="visible" visibility="visible" style="marker:none"/></g></svg>