<svg xmlns="http://www.w3.org/2000/svg" xmlns:svg="http://www.w3.org/2000/svg" xmlns:xlink="http://www.w3.org/1999/xlink" id="svg7446" width="22" height="22" version="1.0"><defs id="defs7448"><linearGradient id="linearGradient204"><stop id="stop205" offset="0" stop-color="#7a7a7a" stop-opacity="1"/><stop id="stop207" offset=".198" stop-color="#ebebeb" stop-opacity="1"/><stop id="stop208" offset=".599" stop-color="#b9b9b9" stop-opacity="1"/><stop id="stop206" offset="1" stop-color="#878787" stop-opacity="1"/></linearGradient><linearGradient id="linearGradient6809" x1="23.1" x2="23.1" y1="36.035" y2="43.915" gradientTransform="matrix(0.5065613,0,0,0.4581256,43.136236,11.218305)" gradientUnits="userSpaceOnUse" xlink:href="#linearGradient204"/><linearGradient id="linearGradient178"><stop id="stop179" offset="0" stop-color="#fff" stop-opacity="0"/><stop id="stop180" offset=".108" stop-color="#d9d9d9" stop-opacity="1"/><stop id="stop181" offset=".921" stop-color="#d9d9d9" stop-opacity="1"/><stop id="stop182" offset="1" stop-color="#fff" stop-opacity="0"/></linearGradient><linearGradient id="linearGradient6807" x1="1.642" x2="15.343" y1="117.827" y2="117.827" gradientTransform="matrix(1.4618941,0,0,9.1235758e-2,42.703303,19.031256)" gradientUnits="userSpaceOnUse" xlink:href="#linearGradient178"/><linearGradient id="linearGradient6805" x1=".612" x2="5.086" y1="372.578" y2="372.578" gradientTransform="matrix(4.5825037,0,0,0.2235361,42.180164,-46.583959)" gradientUnits="userSpaceOnUse" xlink:href="#linearGradient272"/><linearGradient id="linearGradient272"><stop id="stop273" offset="0" stop-color="#474747" stop-opacity="0"/><stop id="stop275" offset=".1" stop-color="#474747" stop-opacity="1"/><stop id="stop276" offset=".9" stop-color="#474747" stop-opacity="1"/><stop id="stop274" offset="1" stop-color="#474747" stop-opacity="0"/></linearGradient><linearGradient id="linearGradient6803" x1=".612" x2="5.086" y1="372.578" y2="372.578" gradientTransform="matrix(4.582504,0,0,0.2235366,42.180162,-52.503654)" gradientUnits="userSpaceOnUse" xlink:href="#linearGradient272"/><linearGradient id="linearGradient6704"><stop id="stop6706" offset="0" stop-color="#000" stop-opacity="1"/><stop id="stop6708" offset="1" stop-color="#000" stop-opacity="0"/></linearGradient><radialGradient id="radialGradient6776" cx="1120.375" cy="394.781" r="20.625" fx="1120.375" fy="394.781" gradientTransform="matrix(1,0,0,0.1166667,0,348.72344)" gradientUnits="userSpaceOnUse" xlink:href="#linearGradient6704"/><linearGradient id="linearGradient4305-4-8-8" x1="71.999" x2="71.999" y1="14.258" y2="19.958" gradientTransform="matrix(1.0033404,0,0,1,-8.2374684,8)" gradientUnits="userSpaceOnUse"><stop id="stop4307-0-1-5" offset=".004" stop-color="#feebd6" stop-opacity="0"/><stop id="stop4309-8-0-7" offset=".461" stop-color="#f5f5f5" stop-opacity=".53"/><stop id="stop4311-0-3-4" offset="1" stop-color="#f5f5f5" stop-opacity="0"/></linearGradient><linearGradient id="linearGradient10493" x1="7.238" x2="132.86" y1="36.005" y2="35.858" gradientTransform="matrix(0.206832,0,0,0.942809,-2.3627107,-28.279221)" gradientUnits="userSpaceOnUse" xlink:href="#linearGradient4305-4-8-8"/><linearGradient id="linearGradient9065"><stop id="stop9067" offset="0" stop-color="#3465a4" stop-opacity="1"/><stop id="stop9069" offset="1" stop-color="#204a87" stop-opacity="1"/></linearGradient><linearGradient id="linearGradient10491" x1="144" x2="144.004" y1="97.02" y2="110.001" gradientTransform="translate(-134.99892,-93.000013)" gradientUnits="userSpaceOnUse" xlink:href="#linearGradient9065"/><linearGradient id="linearGradient9051"><stop id="stop9053" offset="0" stop-color="#8fb3d9" stop-opacity="1"/><stop id="stop9055" offset="1" stop-color="#3465a4" stop-opacity="1"/></linearGradient><linearGradient id="linearGradient10489" x1="28.109" x2="28.109" y1="327.612" y2="406.286" gradientTransform="matrix(0.1721822,0,0,0.1780642,6.1612791,-55.343901)" gradientUnits="userSpaceOnUse" xlink:href="#linearGradient9051"/><linearGradient id="linearGradient17648"><stop id="stop17650" offset="0" stop-color="#fff" stop-opacity=".6"/><stop id="stop17652" offset="1" stop-color="#fff" stop-opacity="0"/></linearGradient><linearGradient id="linearGradient6327" x1="24.69" x2="24.648" y1="9.903" y2="42.05" gradientTransform="matrix(0.4276737,0,0,0.4666684,0.4589973,-3.6235653)" gradientUnits="userSpaceOnUse" xlink:href="#linearGradient17648"/><linearGradient id="linearGradient6293"><stop id="stop6295" offset="0" stop-color="#888a85" stop-opacity="1"/><stop id="stop6297" offset="1" stop-color="#555753" stop-opacity="0"/></linearGradient><linearGradient id="linearGradient17644" x1="25.147" x2="25.146" y1="8.933" y2="32.88" gradientTransform="matrix(0.4357475,0,0,0.4664545,4.4256014e-2,-4.2591413)" gradientUnits="userSpaceOnUse" xlink:href="#linearGradient6293"/></defs><metadata id="metadata7451"/><g id="layer1"><path id="path15" fill="#eeeeec" fill-opacity="1" stroke="url(#linearGradient17644)" stroke-dasharray="none" stroke-miterlimit="4" stroke-width="1" d="M 20.502084,3.0000288 C 20.503428,2.7434079 20.248162,2.5000288 20.002084,2.5000288 L 10.002194,2.5000288 L 8.251082,1.0000288 C 8.021773,0.81652779 7.751072,0.50393479 7.501082,0.50002879 L 2.0020828,0.50002879 C 1.6739799,0.50002879 1.5010828,0.65786879 1.5010828,1.0000288 L 1.5010828,16.499995 L 20.501084,16.499995 L 20.502084,3.0000288 z"/><path id="path7263" fill="none" fill-opacity="1" stroke="url(#linearGradient6327)" stroke-dasharray="none" stroke-miterlimit="4" stroke-opacity="1" stroke-width="1" d="M 19.502084,3.7499955 C 19.50886,3.498255 19.507835,3.4945045 19.251084,3.5000288 L 9.601083,3.5000288 L 7.901082,2.0000288 C 7.155033,1.4013722 7.406596,1.5141082 7.001082,1.5000288 L 2.7510825,1.5000288 C 2.4455736,1.5000288 2.5010825,1.4290735 2.5010825,1.7499955 L 2.5010825,3.0000288 L 2.5020828,15.499995 L 19.502084,15.499995 L 19.502084,3.7499955 z" opacity="1"/><path id="path11507" fill="url(#linearGradient10489)" fill-opacity="1" stroke="url(#linearGradient10491)" stroke-dasharray="none" stroke-miterlimit="4" stroke-opacity="1" stroke-width="1" d="M 21.001084,15.999995 C 21.001084,16.495148 20.517091,16.507959 20.001084,16.499995 L 2.0010831,16.499995 C 1.504995,16.499995 1.0041775,16.504473 1.0010831,15.999995 L 0.50108311,4.9999952 C 0.48036311,4.7070762 0.71600311,4.4999952 1.0010831,4.4999952 L 21.001084,4.4999952 C 21.286174,4.4999952 21.522854,4.7070762 21.501084,4.9999952 L 21.001084,15.999995 z" display="inline" enable-background="new" opacity=".9"/><rect id="rect3521-5-0-1" width="20" height="1" x="1.001" y="5" fill="url(#linearGradient10493)" fill-opacity="1" stroke="none" display="inline" enable-background="new" rx="0" ry="0"/><path id="path6774" fill="url(#radialGradient6776)" fill-opacity="1" fill-rule="evenodd" stroke="none" d="M 1141,394.78125 A 20.625,2.40625 0 1 1 1099.75,394.78125 A 20.625,2.40625 0 1 1 1141,394.78125 z" display="inline" enable-background="new" opacity=".4" transform="matrix(0.4848485,0,0,0.6233766,-532.21215,-225.59739)"/><g id="g8659" display="inline" transform="translate(-44.235111,-10.281268)"><rect id="rect8661" width="20.5" height="1" x="44.985" y="30.281" fill="url(#linearGradient6803)" fill-opacity="1" fill-rule="nonzero" stroke="none" stroke-width="1" display="block" opacity=".65" overflow="visible" visibility="visible" style="marker:none"/><rect id="rect8663" width="20.5" height="1" x="44.985" y="28.281" fill="url(#linearGradient6805)" fill-opacity="1" fill-rule="nonzero" stroke="none" stroke-width="1" display="block" opacity=".65" overflow="visible" visibility="visible" style="marker:none"/><rect id="rect8665" width="19.496" height="1" x="45.371" y="29.281" fill="url(#linearGradient6807)" fill-opacity="1" fill-rule="nonzero" stroke="none" stroke-width="1" display="block" overflow="visible" visibility="visible" style="marker:none"/><path id="path8667" fill="url(#linearGradient6809)" fill-opacity="1" fill-rule="nonzero" stroke="#555753" stroke-dashoffset="0" stroke-linecap="butt" stroke-linejoin="miter" stroke-miterlimit="4" stroke-opacity="1" stroke-width="1" d="M 53.465041,27.781252 L 53.443991,27.781252 C 53.040576,27.781252 52.71991,28.028135 52.71991,28.381252 L 52.71991,31.147448 C 52.71991,31.500561 53.040576,31.781252 53.443991,31.781252 L 57.094743,31.781252 C 57.498154,31.781252 57.818825,31.500561 57.818825,31.147448 L 57.818825,28.381252 C 57.818825,28.028135 57.498154,27.781252 57.094743,27.781252 L 53.465041,27.781252 z" display="block" overflow="visible" visibility="visible" style="marker:none"/><g id="g8673" fill="#fff" fill-opacity=".72" transform="matrix(0.544365,0,0,0.9411763,42.076688,-8.6470511)"><path id="path8677" fill-rule="nonzero" stroke="none" stroke-width="1.14" d="M 19,40.625 A 0.53125,0.53125 0 1 1 17.9375,40.625 A 0.53125,0.53125 0 1 1 19,40.625 z" display="block" overflow="visible" transform="matrix(2.3232693,0,0,1.3437498,-21.42781,-14.839119)" visibility="visible" style="marker:none"/></g></g></g></svg>