<svg xmlns="http://www.w3.org/2000/svg" xmlns:svg="http://www.w3.org/2000/svg" xmlns:xlink="http://www.w3.org/1999/xlink" id="svg7773" width="48" height="48"><defs id="defs7775"><radialGradient id="radialGradient7035" cx="302.854" cy="86.963" r=".784" fx="302.854" fy="86.963" gradientTransform="matrix(1.6443661,0,0,2.1729477,-195.14919,-102.18432)" gradientUnits="userSpaceOnUse" xlink:href="#linearGradient7010"/><linearGradient id="linearGradient7010"><stop id="stop7012" offset="0" stop-color="#fff" stop-opacity="1"/><stop id="stop7014" offset="1" stop-color="#fff" stop-opacity="0"/></linearGradient><radialGradient id="radialGradient7033" cx="302.854" cy="86.963" r=".784" fx="302.854" fy="86.963" gradientTransform="matrix(1.6443661,0,0,2.1729477,-195.14919,-102.18432)" gradientUnits="userSpaceOnUse" xlink:href="#linearGradient7010"/><linearGradient id="linearGradient7031" x1="181.841" x2="191.141" y1="149.632" y2="181.3" gradientUnits="userSpaceOnUse" xlink:href="#linearGradient6002"/><linearGradient id="linearGradient6002"><stop id="stop6004" offset="0" stop-color="#fff" stop-opacity="1"/><stop id="stop6006" offset="1" stop-color="#fff" stop-opacity="0"/></linearGradient><linearGradient id="linearGradient7029" x1="181.841" x2="191.141" y1="149.632" y2="181.3" gradientUnits="userSpaceOnUse" xlink:href="#linearGradient6002"/><linearGradient id="linearGradient6992"><stop id="stop6994" offset="0" stop-color="#fff" stop-opacity="1"/><stop id="stop6996" offset="1" stop-color="#fff" stop-opacity="0"/></linearGradient><radialGradient id="radialGradient7027" cx="326.02" cy="58.371" r="11.093" fx="326.02" fy="58.371" gradientTransform="matrix(1.4476199,-5.1119044e-6,2.2611777e-6,0.6403339,-145.93333,19.733632)" gradientUnits="userSpaceOnUse" xlink:href="#linearGradient6992"/><radialGradient id="radialGradient7025" cx="4.392" cy="32.308" r="6.375" fx="4.392" fy="32.308" gradientTransform="matrix(1,0,0,0.509804,0,16.05392)" gradientUnits="userSpaceOnUse" xlink:href="#linearGradient2315"/><linearGradient id="linearGradient2315"><stop id="stop2317" offset="0" stop-color="#fff" stop-opacity="1"/><stop id="stop2319" offset="1" stop-color="#fff" stop-opacity="0"/></linearGradient><radialGradient id="radialGradient7023" cx="4.392" cy="32.308" r="6.375" fx="4.392" fy="32.308" gradientTransform="matrix(1,0,0,0.509804,0,16.05392)" gradientUnits="userSpaceOnUse" xlink:href="#linearGradient2315"/><linearGradient id="linearGradient6982"><stop id="stop6984" offset="0" stop-color="#fff" stop-opacity="1"/><stop id="stop6986" offset="1" stop-color="#fff" stop-opacity="0"/></linearGradient><radialGradient id="radialGradient7021" cx="29.674" cy="13.772" r="17.742" fx="29.674" fy="13.772" gradientTransform="matrix(0.9571167,0,1.3684827e-8,1.4032972,297.21212,42.648718)" gradientUnits="userSpaceOnUse" xlink:href="#linearGradient6982"/><filter id="filter6073" width="1.384" height="2.314" x="-.192" y="-.657"><feGaussianBlur id="feGaussianBlur6075" stdDeviation="8.543"/></filter><linearGradient id="linearGradient5948"><stop id="stop5950" offset="0" stop-color="#000" stop-opacity="1"/><stop id="stop5952" offset="1" stop-color="#000" stop-opacity="0"/></linearGradient><radialGradient id="radialGradient7019" cx="72.5" cy="212" r="44.5" fx="72.5" fy="212" gradientTransform="matrix(1,0,0,0.2921348,0,150.06742)" gradientUnits="userSpaceOnUse" xlink:href="#linearGradient5948"/><filter id="filter5944" width="1.317" height="2.087" x="-.159" y="-.543"><feGaussianBlur id="feGaussianBlur5946" stdDeviation="7.064"/></filter><linearGradient id="linearGradient5957"><stop id="stop5959" offset="0" stop-color="#000" stop-opacity="1"/><stop id="stop5961" offset="1" stop-color="#000" stop-opacity="0"/></linearGradient><radialGradient id="radialGradient7017" cx="72.5" cy="212" r="44.5" fx="72.5" fy="212" gradientTransform="matrix(1,0,0,0.2921348,0,150.06742)" gradientUnits="userSpaceOnUse" xlink:href="#linearGradient5957"/><linearGradient id="linearGradient6028"><stop id="stop6030" offset="0" stop-color="#fff" stop-opacity="1"/><stop id="stop6032" offset="1" stop-color="#fff" stop-opacity="0"/></linearGradient><linearGradient id="linearGradient3515" x1="28.703" x2="17.743" y1="31.495" y2="18.367" gradientUnits="userSpaceOnUse" xlink:href="#linearGradient6028"/><linearGradient id="linearGradient6036"><stop id="stop6038" offset="0" stop-color="#fff" stop-opacity="1"/><stop id="stop6040" offset="1" stop-color="#fff" stop-opacity="0"/></linearGradient><linearGradient id="linearGradient3519" x1="10.502" x2="48.799" y1="3.61" y2="54.698" gradientTransform="translate(-8.452e-2,-1.333323)" gradientUnits="userSpaceOnUse" xlink:href="#linearGradient6036"/><linearGradient id="linearGradient4409"><stop id="stop4411" offset="0" stop-color="#fff" stop-opacity="1"/><stop id="stop4413" offset="1" stop-color="#fff" stop-opacity="0"/></linearGradient><linearGradient id="linearGradient4415" x1="25.986" x2="15.889" y1="24.92" y2="11.67" gradientTransform="translate(0.5,-0.353553)" gradientUnits="userSpaceOnUse" xlink:href="#linearGradient4409"/><linearGradient id="aigrd2" x1="12.274" x2="35.391" y1="32.416" y2="14.203" gradientUnits="userSpaceOnUse"><stop id="stop3043" offset="0" stop-color="#FBFBFB"/><stop id="stop3045" offset=".5" stop-color="#B6B6B6"/><stop id="stop3047" offset="1" stop-color="#E4E4E4"/></linearGradient><linearGradient id="linearGradient3523" x1="12.274" x2="35.391" y1="32.416" y2="14.203" gradientTransform="matrix(1.190476,0,0,1.190476,-4.308944,-3.833324)" gradientUnits="userSpaceOnUse" xlink:href="#aigrd2"/><linearGradient id="aigrd1" x1="14.997" x2="32.511" y1="11.188" y2="34.307" gradientUnits="userSpaceOnUse"><stop id="stop3034" offset="0" stop-color="#EBEBEB"/><stop id="stop3036" offset=".5" stop-color="#FFF"/><stop id="stop3038" offset="1" stop-color="#EBEBEB"/></linearGradient><linearGradient id="linearGradient3526" x1="14.997" x2="32.511" y1="11.188" y2="34.307" gradientTransform="matrix(1.190476,0,0,1.190476,-4.308944,-3.833323)" gradientUnits="userSpaceOnUse" xlink:href="#aigrd1"/><linearGradient id="linearGradient23419"><stop id="stop23421" offset="0" stop-color="#000" stop-opacity="1"/><stop id="stop23423" offset="1" stop-color="#000" stop-opacity="0"/></linearGradient><radialGradient id="radialGradient3507" cx="23.335" cy="41.636" r="22.627" fx="23.335" fy="41.636" gradientTransform="matrix(1,0,0,0.25,0,31.22703)" gradientUnits="userSpaceOnUse" xlink:href="#linearGradient23419"/></defs><metadata id="metadata7778"/><g id="layer1"><g id="g2776" transform="translate(4.1245605e-4,4.418848e-4)"><path id="path23417" fill="url(#radialGradient3507)" fill-opacity="1" fill-rule="evenodd" stroke="none" stroke-dasharray="none" stroke-dashoffset="0" stroke-linecap="butt" stroke-linejoin="miter" stroke-miterlimit="4" stroke-opacity="1" stroke-width="2" marker-end="none" marker-mid="none" marker-start="none" d="M 45.961941,41.63604 A 22.627417,5.6568542 0 1 1 0.70710754,41.63604 A 22.627417,5.6568542 0 1 1 45.961941,41.63604 z" display="inline" opacity=".55" overflow="visible" transform="matrix(1,0,0,1.066291,0.91548,-4.218429)" visibility="visible" style="marker:none"/><path id="path2779" fill="url(#linearGradient3526)" fill-rule="nonzero" stroke="none" stroke-miterlimit="4" d="M 24.262486,2.8333435 C 12.714866,2.8333435 3.4291519,12.119058 3.4291519,23.666677 C 3.4291519,35.214297 12.714866,44.500012 24.262486,44.500012 C 35.810106,44.500012 45.095821,35.214297 45.095821,23.666677 C 45.095821,12.119058 35.810106,2.8333435 24.262486,2.8333435 L 24.262486,2.8333435 z M 24.262486,28.666678 C 21.524391,28.666678 19.262486,26.404773 19.262486,23.666677 C 19.262486,20.928582 21.524391,18.666677 24.262486,18.666677 C 27.000581,18.666677 29.262486,20.928582 29.262486,23.666677 C 29.262486,26.404773 27.000581,28.666678 24.262486,28.666678 z"/><path id="path2781" fill="url(#linearGradient3523)" fill-rule="nonzero" stroke="gray" stroke-miterlimit="4" stroke-opacity="1" d="M 24.262486,2.8333431 C 12.714866,2.8333431 3.429152,12.119058 3.429152,23.666677 C 3.429152,35.214297 12.714866,44.500012 24.262486,44.500012 C 35.810106,44.500012 45.095821,35.214297 45.095821,23.666677 C 45.095821,12.119058 35.810106,2.8333431 24.262486,2.8333431 L 24.262486,2.8333431 z M 24.262486,28.666678 C 21.524391,28.666678 19.262486,26.404773 19.262486,23.666677 C 19.262486,20.928582 21.524391,18.666677 24.262486,18.666677 C 27.000581,18.666677 29.262486,20.928582 29.262486,23.666677 C 29.262486,26.404773 27.000581,28.666678 24.262486,28.666678 z"/><path id="path2783" fill="url(#linearGradient4415)" fill-opacity="1" fill-rule="nonzero" stroke="none" stroke-miterlimit="4" stroke-opacity="1" d="M 23.410538,3.4587825 C 12.648847,3.864693 4.1109275,12.676135 4.1109275,23.541217 C 4.1109275,28.466722 5.858051,32.943607 8.7777601,36.427697 L 19.895113,27.017403 C 19.173772,26.174062 18.845878,24.974235 18.845878,23.791217 C 18.845878,20.400827 21.150167,18.223842 24.413253,18.223842 C 25.897178,18.223842 27.38434,18.897269 28.271719,19.97014 L 39.639072,10.684846 C 35.963901,6.2606919 30.394797,3.4587825 24.163253,3.4587825 C 23.902492,3.4587825 23.668819,3.4490406 23.410538,3.4587825 z"/><path id="path2785" fill="#eeeeec" fill-rule="nonzero" stroke="none" stroke-miterlimit="4" d="M 24.262486,13.562512 C 18.6199,13.562512 14.15832,18.155315 14.15832,23.666677 C 14.15832,29.309265 18.751124,33.770843 24.262486,33.770843 C 29.905072,33.770843 34.366652,29.178041 34.366652,23.666677 C 34.366652,18.024091 29.773848,13.562512 24.262486,13.562512 L 24.262486,13.562512 z M 24.262486,29.178041 C 21.244359,29.178041 18.751124,26.684806 18.751124,23.666677 C 18.751124,20.64855 21.244359,18.155315 24.262486,18.155315 C 27.280613,18.155315 29.773848,20.64855 29.773848,23.666677 C 29.773848,26.684806 27.280613,29.178041 24.262486,29.178041 z" opacity=".511"/><path id="path2787" fill="none" fill-rule="nonzero" stroke="url(#linearGradient3519)" stroke-miterlimit="4" stroke-opacity="1" d="M 24.262482,3.8690421 C 13.288938,3.8690421 4.4648511,12.693131 4.4648511,23.666674 C 4.4648511,34.640218 13.288938,43.464305 24.262482,43.464305 C 35.236026,43.464305 44.060113,34.640218 44.060113,23.666674 C 44.060113,12.693131 35.236026,3.8690421 24.262482,3.8690421 L 24.262482,3.8690421 z" opacity=".546"/><path id="path2789" fill="none" fill-opacity=".316" fill-rule="nonzero" stroke="url(#linearGradient3515)" stroke-dashoffset="0" stroke-linecap="butt" stroke-linejoin="miter" stroke-miterlimit="4" stroke-opacity="1" stroke-width=".931" marker-end="none" marker-mid="none" marker-start="none" d="M 30.405591,24.930641 A 6.0987959,6.0987959 0 1 1 18.207999,24.930641 A 6.0987959,6.0987959 0 1 1 30.405591,24.930641 z" display="inline" opacity=".672" overflow="visible" transform="translate(3.868e-3,-1.244934)" visibility="visible" style="marker:none"/></g><g id="g7116" display="inline" transform="translate(-294.06274,-51.996023)"><path marker-end="none" style="marker:none" id="path6353" fill="url(#radialGradient7017)" fill-opacity="1" fill-rule="evenodd" stroke="none" stroke-dasharray="none" stroke-dashoffset="0" stroke-linecap="round" stroke-linejoin="round" stroke-miterlimit="4" stroke-opacity="1" stroke-width="2" marker-mid="none" marker-start="none" d="M 117,212 A 44.5,13 0 1 1 28,212 A 44.5,13 0 1 1 117,212 z" display="inline" enable-background="accumulate" filter="url(#filter5944)" opacity=".5" overflow="visible" transform="matrix(0.1986123,0,0,0.1986123,291.9306,47.055039)" visibility="visible"/><path id="path6357" fill="url(#radialGradient7019)" fill-opacity="1" fill-rule="evenodd" stroke="none" stroke-dasharray="none" stroke-dashoffset="0" stroke-linecap="round" stroke-linejoin="round" stroke-miterlimit="4" stroke-opacity="1" stroke-width="2" marker-end="none" marker-mid="none" marker-start="none" d="M 117,212 A 44.5,13 0 1 1 28,212 A 44.5,13 0 1 1 117,212 z" display="inline" enable-background="accumulate" filter="url(#filter6073)" opacity=".2" overflow="visible" transform="matrix(0.229168,0,0,0.229168,315.13768,40.577223)" visibility="visible" style="marker:none"/><path id="path7042" fill="#a7cc5c" fill-opacity="1" fill-rule="nonzero" stroke="#42770c" stroke-dashoffset="0" stroke-linecap="round" stroke-linejoin="round" stroke-miterlimit="4" stroke-opacity="1" stroke-width="1" marker-end="none" marker-mid="none" marker-start="none" d="M 337.56459,54.596927 C 337.56459,54.596927 314.50209,58.492233 314.50209,58.492233 L 314.50209,82.129638 C 312.85613,81.571987 310.57031,81.426209 308.06459,81.942138 C 303.70828,82.839107 300.58673,85.241625 301.06459,87.285888 C 301.54245,89.330151 305.45828,90.276608 309.81459,89.379638 C 313.93123,88.532018 317.49871,86.341836 317.41722,84.379638 L 317.57347,65.348388 C 317.57347,65.348388 334.50393,62.453082 334.50393,62.453082 L 334.50393,79.737696 C 324.25393,78.237696 321.21173,82.630932 321.68959,84.675196 C 322.16745,86.719459 326.08328,87.665915 330.43959,86.768946 C 334.30497,85.973061 337.072,84.005735 337.34584,82.143946 L 337.56459,54.596927 z" display="block" visibility="visible" style="marker:none"/><path id="path2311" fill="none" fill-opacity="1" fill-rule="nonzero" stroke="url(#radialGradient7021)" stroke-dasharray="none" stroke-dashoffset="0" stroke-linecap="butt" stroke-linejoin="miter" stroke-miterlimit="4" stroke-opacity="1" stroke-width="1" marker-end="none" marker-mid="none" marker-start="none" d="M 336.66863,55.785801 C 336.66863,55.785801 315.48686,59.415942 315.48686,59.415942 L 315.48686,83.287211 C 307.9216,81.381901 301.75375,85.12162 302.20818,87.065655 C 302.91262,90.38469 316.58656,88.167889 316.50906,83.926895 L 316.65765,64.453729 C 316.65765,64.453729 335.50803,61.561397 335.50803,61.561397 L 335.50803,80.998563 C 327.94174,79.071916 322.24253,82.374947 322.69696,84.318983 C 323.27639,87.513018 335.07519,86.432345 336.4606,81.661837 L 336.66863,55.785801 z" display="block" opacity=".512" visibility="visible" style="marker:none"/><path id="path2313" fill="url(#radialGradient7023)" fill-opacity="1" fill-rule="nonzero" stroke="none" stroke-dasharray="none" stroke-dashoffset="0" stroke-linecap="butt" stroke-linejoin="miter" stroke-miterlimit="4" stroke-opacity="1" stroke-width="1" marker-end="none" marker-mid="none" marker-start="none" d="M 12.25,32.75 A 6.375,3.25 0 1 1 -0.5,32.75 A 6.375,3.25 0 1 1 12.25,32.75 z" display="block" opacity=".512" overflow="visible" transform="matrix(0.734516,-0.111645,0.111645,0.734516,299.84295,61.9441)" visibility="visible" style="marker:none"/><path id="path2323" fill="url(#radialGradient7025)" fill-opacity="1" fill-rule="nonzero" stroke="none" stroke-dasharray="none" stroke-dashoffset="0" stroke-linecap="butt" stroke-linejoin="miter" stroke-miterlimit="4" stroke-opacity="1" stroke-width="1" marker-end="none" marker-mid="none" marker-start="none" d="M 12.25,32.75 A 6.375,3.25 0 1 1 -0.5,32.75 A 6.375,3.25 0 1 1 12.25,32.75 z" display="block" opacity=".512" overflow="visible" transform="matrix(0.734516,-0.111645,0.111645,0.734516,319.68546,59.109454)" visibility="visible" style="marker:none"/><path id="path6990" fill="url(#radialGradient7027)" fill-opacity="1" fill-rule="evenodd" stroke="none" stroke-linecap="butt" stroke-linejoin="miter" stroke-opacity="1" stroke-width="1" d="M 314.92768,59.141752 L 315.01607,62.235345 L 337.11316,58.523034 L 337.02477,55.164277 L 314.92768,59.141752 z"/><path stroke-width="2" style="marker:none" id="path7000" fill="url(#linearGradient7029)" fill-opacity="1" fill-rule="evenodd" stroke="none" stroke-dasharray="none" stroke-dashoffset="0" stroke-linecap="round" stroke-linejoin="round" stroke-miterlimit="4" stroke-opacity="1" marker-end="none" marker-mid="none" marker-start="none" d="M 217.5,159.5 A 32.5,14 0 1 1 152.5,159.5 A 32.5,14 0 1 1 217.5,159.5 z" display="inline" enable-background="accumulate" opacity=".68" overflow="visible" transform="matrix(0.1666704,-2.8476107e-2,3.7049941e-2,0.1281007,272.75652,69.086018)" visibility="visible"/><path stroke-width="2" style="marker:none" id="path7004" fill="url(#linearGradient7031)" fill-opacity="1" fill-rule="evenodd" stroke="none" stroke-dasharray="none" stroke-dashoffset="0" stroke-linecap="round" stroke-linejoin="round" stroke-miterlimit="4" stroke-opacity="1" marker-end="none" marker-mid="none" marker-start="none" d="M 217.5,159.5 A 32.5,14 0 1 1 152.5,159.5 A 32.5,14 0 1 1 217.5,159.5 z" display="inline" enable-background="accumulate" opacity=".68" overflow="visible" transform="matrix(0.1666704,-2.8476107e-2,3.7049941e-2,0.1281007,293.00652,66.836018)" visibility="visible"/><path id="path7008" fill="url(#radialGradient7033)" fill-opacity="1" fill-rule="evenodd" stroke="none" stroke-dasharray="none" stroke-dashoffset="0" stroke-linecap="round" stroke-linejoin="round" stroke-miterlimit="4" stroke-opacity="1" stroke-width="0" marker-end="none" marker-mid="none" marker-start="none" d="M 303.63807,87.117538 A 0.78358209,1.0354477 0 1 1 302.07091,87.117538 A 0.78358209,1.0354477 0 1 1 303.63807,87.117538 z" display="inline" enable-background="new" overflow="visible" transform="translate(-0.2238806,-0.3358209)" visibility="visible" style="marker:none"/><path id="path7018" fill="url(#radialGradient7035)" fill-opacity="1" fill-rule="evenodd" stroke="none" stroke-dasharray="none" stroke-dashoffset="0" stroke-linecap="round" stroke-linejoin="round" stroke-miterlimit="4" stroke-opacity="1" stroke-width="0" marker-end="none" marker-mid="none" marker-start="none" d="M 303.63807,87.117538 A 0.78358209,1.0354477 0 1 1 302.07091,87.117538 A 0.78358209,1.0354477 0 1 1 303.63807,87.117538 z" display="inline" enable-background="new" overflow="visible" transform="translate(20.541045,-2.9664179)" visibility="visible" style="marker:none"/></g></g></svg>