<svg xmlns="http://www.w3.org/2000/svg" xmlns:svg="http://www.w3.org/2000/svg" xmlns:xlink="http://www.w3.org/1999/xlink" id="svg7216" width="48" height="48"><defs id="defs7218"><linearGradient id="linearGradient7153"><stop id="stop7155" offset="0" stop-color="#fff" stop-opacity="1"/><stop id="stop7157" offset="1" stop-color="#fff" stop-opacity="0"/></linearGradient><radialGradient id="radialGradient7159" cx="8.305" cy="1.126" r="2.051" fx="8.305" fy="1.126" gradientTransform="matrix(1.8597707,0,0,1.8172614,-7.1401269,-0.8942366)" gradientUnits="userSpaceOnUse" xlink:href="#linearGradient7153"/><linearGradient id="linearGradient7131"><stop id="stop7133" offset="0" stop-color="#fff" stop-opacity="1"/><stop id="stop7135" offset="1" stop-color="#d3d7cf" stop-opacity="1"/></linearGradient><radialGradient id="radialGradient7137" cx="8.906" cy="1.729" r="1.995" fx="8.906" fy="1.729" gradientTransform="matrix(0.7375073,0,0,0.7201806,2.4345312,0.6617371)" gradientUnits="userSpaceOnUse" xlink:href="#linearGradient7131"/><radialGradient id="radialGradient6006" cx="10.281" cy="9.842" r="4.525" fx="10.281" fy="9.842" gradientTransform="matrix(4.680847,0,0,1.2767377,-37.843708,-3.3008494)" gradientUnits="userSpaceOnUse" xlink:href="#linearGradient3362"/><radialGradient id="radialGradient6004" cx="10.281" cy="7.825" r="4.525" fx="10.281" fy="7.825" gradientTransform="matrix(0.6984472,0,0,0.5778597,3.1003396,2.7439118)" gradientUnits="userSpaceOnUse" xlink:href="#linearGradient3374"/><linearGradient id="linearGradient6979"><stop id="stop6981" offset="0" stop-color="#888a85" stop-opacity="1"/><stop id="stop6983" offset="1" stop-color="#555753" stop-opacity="1"/></linearGradient><linearGradient id="linearGradient6985" x1="39.068" x2="39.421" y1="28.5" y2="10.935" gradientUnits="userSpaceOnUse" xlink:href="#linearGradient6979"/><linearGradient id="linearGradient7101"><stop id="stop7103" offset="0" stop-color="#babdb6" stop-opacity="1"/><stop id="stop7105" offset="1" stop-color="#fff" stop-opacity="1"/></linearGradient><linearGradient id="linearGradient7121" x1="24.837" x2="21.036" y1="44.528" y2="21.042" gradientUnits="userSpaceOnUse" xlink:href="#linearGradient7101"/><radialGradient id="radialGradient6002" cx="10.281" cy="9.842" r="4.525" fx="10.281" fy="9.842" gradientTransform="matrix(4.680847,0,0,1.2767377,-37.843708,-3.3008494)" gradientUnits="userSpaceOnUse" xlink:href="#linearGradient3362"/><radialGradient id="radialGradient6000" cx="10.281" cy="8.071" r="4.525" fx="10.281" fy="8.071" gradientTransform="matrix(1,0,0,0.8273492,0,1.1222303)" gradientUnits="userSpaceOnUse" xlink:href="#linearGradient3374"/><linearGradient id="linearGradient6963"><stop id="stop6965" offset="0" stop-color="#000" stop-opacity="1"/><stop id="stop6967" offset="1" stop-color="#000" stop-opacity="0"/></linearGradient><linearGradient id="linearGradient6969" x1="11.225" x2="11.225" y1="43.135" y2="23.038" gradientUnits="userSpaceOnUse" xlink:href="#linearGradient6963"/><linearGradient id="linearGradient3362"><stop id="stop3364" offset="0" stop-color="#3465a4" stop-opacity="1"/><stop id="stop3366" offset="1" stop-color="#3465a4" stop-opacity="0"/></linearGradient><radialGradient id="radialGradient7129" cx="10.281" cy="10.018" r="4.525" fx="10.281" fy="10.018" gradientTransform="matrix(4.680847,0,0,1.2767377,-37.843708,-3.3008494)" gradientUnits="userSpaceOnUse" xlink:href="#linearGradient3362"/><linearGradient id="linearGradient3374"><stop id="stop3376" offset="0" stop-color="#729fcf" stop-opacity="1"/><stop id="stop3378" offset="1" stop-color="#729fcf" stop-opacity="0"/></linearGradient><radialGradient id="radialGradient7127" cx="10.281" cy="8.071" r="4.525" fx="10.281" fy="8.071" gradientTransform="matrix(1,0,0,0.8273492,0,1.1222303)" gradientUnits="userSpaceOnUse" xlink:href="#linearGradient3374"/><linearGradient id="linearGradient3268"><stop id="stop3270" offset="0" stop-color="#000" stop-opacity="1"/><stop id="stop3272" offset="1" stop-color="#000" stop-opacity="0"/></linearGradient><radialGradient id="radialGradient5998" cx="10.737" cy="19.5" r="8.263" fx="10.737" fy="19.5" gradientTransform="matrix(1,0,0,0.3025696,0,13.599894)" gradientUnits="userSpaceOnUse" xlink:href="#linearGradient3268"/></defs><metadata id="metadata7221"/><g id="layer1"><path id="path3258" fill="url(#radialGradient5998)" fill-opacity="1" stroke="none" stroke-dasharray="none" stroke-dashoffset="0" stroke-linecap="round" stroke-linejoin="round" stroke-miterlimit="4" stroke-opacity="1" stroke-width="1" d="M 19,19.5 A 8.2625628,2.5 0 1 1 2.4748745,19.5 A 8.2625628,2.5 0 1 1 19,19.5 z" opacity=".1" transform="matrix(2.3050967,0,0,2.3778947,-1.19852,-5.8196834)"/><path id="path7125" fill="url(#radialGradient7127)" fill-opacity="1" stroke="url(#radialGradient7129)" stroke-dasharray="none" stroke-dashoffset="0" stroke-linecap="round" stroke-linejoin="round" stroke-miterlimit="4" stroke-opacity="1" stroke-width=".2" d="M 14.5625,6.5 A 4.28125,3.5 0 1 1 6,6.5 A 4.28125,3.5 0 1 1 14.5625,6.5 z" opacity=".6" transform="matrix(4.5547445,0,0,5.5069915,-22.828467,-20.795633)"/><path id="path6961" fill="url(#linearGradient6969)" fill-opacity="1" fill-rule="evenodd" stroke="none" stroke-linecap="butt" stroke-linejoin="miter" stroke-opacity="1" stroke-width="1" d="M 23.875,12.5625 C 23.755186,12.593695 23.653478,12.672801 23.59375,12.78125 L 7.59375,43.78125 C 7.5217395,43.921791 7.5285298,44.089768 7.6116494,44.224038 C 7.694769,44.358309 7.8420946,44.439288 8,44.4375 L 11.5,44.4375 C 11.672029,44.438521 11.829638,44.341531 11.90625,44.1875 L 14.3125,39.1875 L 35.375,42.71875 L 36.09375,44.1875 C 36.170362,44.341531 36.327971,44.438521 36.5,44.4375 L 40,44.4375 C 40.157905,44.439288 40.305231,44.358309 40.388351,44.224038 C 40.47147,44.089768 40.478261,43.921791 40.40625,43.78125 L 24.40625,12.78125 C 24.304601,12.590301 24.081632,12.498491 23.875,12.5625 z M 24,19 L 27.1875,25.625 L 21.53125,24.15625 L 24,19 z M 20.25,26.84375 L 25.96875,28.3125 L 17.59375,32.40625 L 20.25,26.84375 z M 29.4375,30.375 L 33.3125,38.4375 L 18.09375,35.875 L 29.4375,30.375 z" opacity=".153" transform="matrix(1,0,0,0.4005165,2.9504882e-8,26.139378)"/><path id="path3319" fill="url(#radialGradient6000)" fill-opacity="1" stroke="url(#radialGradient6002)" stroke-dasharray="none" stroke-dashoffset="0" stroke-linecap="round" stroke-linejoin="round" stroke-miterlimit="4" stroke-opacity="1" stroke-width=".269" d="M 14.5625,6.5 A 4.28125,3.5 0 1 1 6,6.5 A 4.28125,3.5 0 1 1 14.5625,6.5 z" opacity=".8" transform="matrix(3.3868613,0,0,4.0945293,-10.821168,-11.614629)"/><g id="g7115" transform="translate(2.9504882e-8,-0.5001884)"><path id="path7060" fill="url(#linearGradient7121)" fill-opacity="1" fill-rule="evenodd" stroke="url(#linearGradient6985)" stroke-linecap="butt" stroke-linejoin="miter" stroke-opacity="1" stroke-width="1" d="M 24,13 L 8,44 L 11.5,44 L 14.0625,38.6875 L 35.6875,42.3125 L 36.5,44 L 40,44 L 24,13 z M 24,17.96875 L 28,26.3125 L 20.90625,24.46875 L 24,17.96875 z M 20,26.3125 L 27.28125,28.1875 L 16.625,33.375 L 20,26.3125 z M 29.65625,29.78125 L 34.09375,39 L 16.65625,36.09375 L 29.65625,29.78125 z"/><path id="path7092" fill="none" fill-opacity="1" fill-rule="evenodd" stroke="#fff" stroke-linecap="round" stroke-linejoin="miter" stroke-opacity="1" stroke-width="1" d="M 38.40625,43.03125 L 24,15.125 L 9.59375,43.03125"/><path id="path7097" fill="none" fill-rule="evenodd" stroke="#fff" stroke-linecap="round" stroke-linejoin="miter" stroke-opacity="1" stroke-width="1" d="M 15.78125,34.90625 L 28.8125,28.5625"/><path id="path7099" fill="none" fill-rule="evenodd" stroke="#fff" stroke-linecap="round" stroke-linejoin="miter" stroke-opacity="1" stroke-width="1" d="M 15.09375,36.84375 L 34.75,40.125"/></g><path id="path3382" fill="url(#radialGradient6004)" fill-opacity="1" stroke="url(#radialGradient6006)" stroke-dasharray="none" stroke-dashoffset="0" stroke-linecap="round" stroke-linejoin="round" stroke-miterlimit="4" stroke-opacity="1" stroke-width=".407" d="M 14.5625,6.5 A 4.28125,3.5 0 1 1 6,6.5 A 4.28125,3.5 0 1 1 14.5625,6.5 z" transform="matrix(2.2189781,0,0,2.7142858,1.186131,-2.6430464)"/><g id="g3232" transform="matrix(2.2398427,0,0,2.230092,-19.676933,9.3884335)"><path id="path3234" fill="url(#radialGradient7137)" fill-opacity="1" stroke="#555753" stroke-dasharray="none" stroke-dashoffset="0" stroke-linecap="round" stroke-linejoin="round" stroke-miterlimit="4" stroke-opacity="1" stroke-width=".397" d="M 11,2.25 A 1.796875,1.75 0 1 1 7.40625,2.25 A 1.796875,1.75 0 1 1 11,2.25 z" opacity="1" transform="matrix(1.1130433,0,0,1.1428572,9.2565233,-7.1428636e-2)"/><path id="path3236" fill="#fff" fill-opacity="1" stroke="none" stroke-dasharray="none" stroke-dashoffset="0" stroke-linecap="round" stroke-linejoin="round" stroke-miterlimit="4" stroke-opacity="1" stroke-width="1" d="M 20,1.5 A 0.5,0.5 0 1 1 19,1.5 A 0.5,0.5 0 1 1 20,1.5 z" opacity="1" transform="matrix(1.8125,0,0,1.8125,-16.465404,-0.9288198)"/></g><path id="path7147" fill="none" fill-opacity="1" stroke="url(#radialGradient7159)" stroke-dasharray="none" stroke-dashoffset="0" stroke-linecap="round" stroke-linejoin="round" stroke-miterlimit="4" stroke-opacity="1" stroke-width=".508" d="M 11,2.25 A 1.796875,1.75 0 1 1 7.40625,2.25 A 1.796875,1.75 0 1 1 11,2.25 z" transform="matrix(1.9478265,0,0,1.9910495,6.073908,10.483802)"/></g></svg>