<svg xmlns="http://www.w3.org/2000/svg" xmlns:svg="http://www.w3.org/2000/svg" xmlns:xlink="http://www.w3.org/1999/xlink" id="svg7555" width="16" height="16"><defs id="defs7557"><linearGradient id="linearGradient9491" x1="15.601" x2="68.321" y1="46.653" y2="-15.746" gradientTransform="matrix(0.9102435,2.9031103e-2,2.9031112e-2,0.9004102,2.1732823,-0.6795109)" gradientUnits="userSpaceOnUse" xlink:href="#linearGradient9477"/><linearGradient id="linearGradient9483" x1="17.298" x2="52.889" y1="44.64" y2="2.515" gradientUnits="userSpaceOnUse" xlink:href="#linearGradient9477"/><linearGradient id="linearGradient7620" x1="35.77" x2="-13.363" y1="22.518" y2="81.056" gradientUnits="userSpaceOnUse" xlink:href="#linearGradient9477"/><linearGradient id="linearGradient9477"><stop id="stop9479" offset="0" stop-color="#fff" stop-opacity="1"/><stop id="stop9481" offset="1" stop-color="#fff" stop-opacity="0"/></linearGradient><linearGradient id="linearGradient9485" x1="38.527" x2="2.936" y1="19.639" y2="61.764" gradientUnits="userSpaceOnUse" xlink:href="#linearGradient9477"/><linearGradient id="linearGradient9229" x1="71.999" x2="71.999" y1="14.258" y2="19.958" gradientTransform="matrix(1.0033404,0,0,1,-8.2374684,8)" gradientUnits="userSpaceOnUse"><stop id="stop9231" offset=".004" stop-color="#feebd6" stop-opacity="0"/><stop id="stop9233" offset=".461" stop-color="#f5f5f5" stop-opacity=".53"/><stop id="stop9235" offset="1" stop-color="#f5f5f5" stop-opacity="0"/></linearGradient><linearGradient id="linearGradient10493" x1="7.238" x2="132.86" y1="36.005" y2="35.858" gradientTransform="matrix(0.1447824,0,0,0.942809,-1.35465,-27.279266)" gradientUnits="userSpaceOnUse" xlink:href="#linearGradient9229"/><linearGradient id="linearGradient9239"><stop id="stop9241" offset="0" stop-color="#3465a4" stop-opacity="1"/><stop id="stop9243" offset="1" stop-color="#204a87" stop-opacity="1"/></linearGradient><linearGradient id="linearGradient9245" x1="9.066" x2="9.057" y1="2.836" y2="12.836" gradientTransform="translate(-5.80601e-2,2.1641571)" gradientUnits="userSpaceOnUse" xlink:href="#linearGradient9239"/><linearGradient id="linearGradient9247"><stop id="stop9249" offset="0" stop-color="#8fb3d9" stop-opacity="1"/><stop id="stop9251" offset="1" stop-color="#3465a4" stop-opacity="1"/></linearGradient><linearGradient id="linearGradient9237" x1="8" x2="8" y1="2.989" y2="14.001" gradientTransform="matrix(1.0000072,0,0,0.9971619,-2.5e-6,1.0383157)" gradientUnits="userSpaceOnUse" xlink:href="#linearGradient9247"/><linearGradient id="linearGradient17648"><stop id="stop17650" offset="0" stop-color="#fff" stop-opacity=".6"/><stop id="stop17652" offset="1" stop-color="#fff" stop-opacity="0"/></linearGradient><linearGradient id="linearGradient17646" x1="22.124" x2="22.124" y1="9.227" y2="41.879" gradientTransform="matrix(0.3513555,0,0,0.3333434,0.2264754,1.7539e-3)" gradientUnits="userSpaceOnUse" xlink:href="#linearGradient17648"/><linearGradient id="linearGradient6293"><stop id="stop6295" offset="0" stop-color="#888a85" stop-opacity="1"/><stop id="stop6297" offset="1" stop-color="#555753" stop-opacity="0"/></linearGradient><linearGradient id="linearGradient17644" x1="24.117" x2="24.065" y1="8" y2="31.932" gradientTransform="matrix(0.3513555,0,0,0.3333434,0.5672374,-0.6667471)" gradientUnits="userSpaceOnUse" xlink:href="#linearGradient6293"/></defs><metadata id="metadata7560"/><g id="layer1"><path id="path15" fill="#eeeeec" fill-opacity="1" stroke="url(#linearGradient17644)" stroke-dasharray="none" stroke-miterlimit="4" stroke-width="1" d="M 14.500017,4.0001546 C 14.501101,3.8167655 14.198435,3.5000444 14.000017,3.5000444 L 8.4998549,3.5000444 L 6.5000169,2.4999923 L 1.9998546,2.4999923 C 1.7352957,2.4999923 1.4998546,2.7555118 1.4998546,3.0000294 L 1.4998546,14.5 L 14.500017,14.5 L 14.500017,4.0001546 z"/><path id="path7263" fill="none" fill-opacity="1" stroke="url(#linearGradient17646)" stroke-dasharray="none" stroke-miterlimit="4" stroke-opacity="1" stroke-width="1" d="M 13.500017,4.7499918 C 13.501042,4.5104907 13.505832,4.5001546 13.250017,4.5001546 L 8.2000169,4.5001546 C 8.2000169,4.5001546 6.5030669,3.4993087 6.0000169,3.5001546 L 2.7500167,3.5001546 C 2.4990248,3.5001546 2.4998546,3.5207576 2.4998546,3.7499918 L 2.5100127,13.5 L 13.500017,13.5 L 13.500017,4.7499918 z" opacity="1"/><path id="path2185" fill="url(#linearGradient9237)" fill-opacity="1" fill-rule="evenodd" stroke="url(#linearGradient9245)" stroke-dasharray="none" stroke-linecap="butt" stroke-linejoin="miter" stroke-miterlimit="4" stroke-opacity="1" stroke-width="1" d="M 0.5,14.5 L 15.5,14.5 L 15.5,5.4998937 L 0.5,5.4998937 L 0.5,14.5 L 0.5,14.5 z" display="inline" enable-background="new" opacity=".9" overflow="visible"/><rect id="rect8457" width="14" height="1" x="1" y="6" fill="url(#linearGradient10493)" fill-opacity="1" stroke="none" display="inline" enable-background="new" rx="0" ry="0"/><g id="g1878" fill="url(#linearGradient9485)" fill-opacity="1" stroke="none" stroke-opacity="1" opacity="1" transform="matrix(-9.8348524e-2,-7.6515742e-2,-8.3092791e-2,9.056395e-2,13.420905,8.6976769)"><path id="path1880" fill="url(#linearGradient7620)" fill-opacity="1" fill-rule="nonzero" stroke="none" stroke-dasharray="none" stroke-dashoffset="0" stroke-linecap="butt" stroke-linejoin="miter" stroke-miterlimit="4" stroke-opacity="1" stroke-width="3.541" marker-end="none" marker-mid="none" marker-start="none" d="M 42.871144,50.601155 C 59.201486,31.272584 49.981004,12.455755 24.093607,12.652533 L 23.604169,1.1970942 L 7.2738279,20.525667 L 25.072486,35.563411 C 25.072486,35.563411 24.583047,24.107972 24.583047,24.107972 C 41.348148,27.93404 41.513454,28.569397 42.871144,50.601155 z" display="block" opacity="1" overflow="visible" visibility="visible" style="marker:none"/></g><g id="g2420" fill="url(#linearGradient9483)" fill-opacity="1" stroke="none" stroke-opacity="1" opacity="1" transform="matrix(0.1052137,9.0318855e-2,8.8893052e-2,-0.1069013,2.4212515,10.833273)"><path id="path2422" fill="url(#linearGradient9491)" fill-opacity="1" fill-rule="nonzero" stroke="none" stroke-dasharray="none" stroke-dashoffset="0" stroke-linecap="butt" stroke-linejoin="miter" stroke-miterlimit="4" stroke-opacity="1" stroke-width="3.541" marker-end="none" marker-mid="none" marker-start="none" d="M 43.733059,44.74401 C 57.090037,29.587119 50.014458,12.01275 25.227316,10.400017 L 24.293094,0.25628741 L 10.458461,16.630941 L 27.09576,30.687475 C 27.09576,30.687475 26.161538,20.543746 26.161538,20.543746 C 42.274047,24.673354 42.222057,24.294818 43.733059,44.74401 z" display="block" opacity="1" overflow="visible" visibility="visible" style="marker:none"/></g></g></svg>