<svg xmlns="http://www.w3.org/2000/svg" xmlns:svg="http://www.w3.org/2000/svg" xmlns:xlink="http://www.w3.org/1999/xlink" id="svg7331" width="16" height="16"><defs id="defs7333"><linearGradient id="linearGradient8303"><stop id="stop8305" offset="0" stop-color="#fff" stop-opacity="1"/><stop id="stop8307" offset="1" stop-color="#fff" stop-opacity="0"/></linearGradient><linearGradient id="linearGradient7329" x1="11" x2="11" y1="11.957" y2="21.023" gradientTransform="translate(-2.9999999,-3.9999997)" gradientUnits="userSpaceOnUse" xlink:href="#linearGradient8303"/><linearGradient id="linearGradient9229" x1="71.999" x2="71.999" y1="14.258" y2="19.958" gradientTransform="matrix(1.0033404,0,0,1,-8.2374684,8)" gradientUnits="userSpaceOnUse"><stop id="stop9231" offset=".004" stop-color="#feebd6" stop-opacity="0"/><stop id="stop9233" offset=".461" stop-color="#f5f5f5" stop-opacity=".53"/><stop id="stop9235" offset="1" stop-color="#f5f5f5" stop-opacity="0"/></linearGradient><linearGradient id="linearGradient10493" x1="7.238" x2="132.86" y1="36.005" y2="35.858" gradientTransform="matrix(0.1447824,0,0,0.942809,-1.35465,-27.279266)" gradientUnits="userSpaceOnUse" xlink:href="#linearGradient9229"/><linearGradient id="linearGradient9239"><stop id="stop9241" offset="0" stop-color="#3465a4" stop-opacity="1"/><stop id="stop9243" offset="1" stop-color="#204a87" stop-opacity="1"/></linearGradient><linearGradient id="linearGradient9245" x1="9.066" x2="9.057" y1="2.836" y2="12.836" gradientTransform="translate(-5.80601e-2,2.1641571)" gradientUnits="userSpaceOnUse" xlink:href="#linearGradient9239"/><linearGradient id="linearGradient9247"><stop id="stop9249" offset="0" stop-color="#8fb3d9" stop-opacity="1"/><stop id="stop9251" offset="1" stop-color="#3465a4" stop-opacity="1"/></linearGradient><linearGradient id="linearGradient9237" x1="8" x2="8" y1="2.989" y2="14.001" gradientTransform="matrix(1.0000072,0,0,0.9971619,-2.5e-6,1.0383157)" gradientUnits="userSpaceOnUse" xlink:href="#linearGradient9247"/><linearGradient id="linearGradient17648"><stop id="stop17650" offset="0" stop-color="#fff" stop-opacity=".6"/><stop id="stop17652" offset="1" stop-color="#fff" stop-opacity="0"/></linearGradient><linearGradient id="linearGradient17646" x1="22.124" x2="22.124" y1="9.227" y2="41.879" gradientTransform="matrix(0.3513555,0,0,0.3333434,0.2264754,1.7543e-3)" gradientUnits="userSpaceOnUse" xlink:href="#linearGradient17648"/><linearGradient id="linearGradient6293"><stop id="stop6295" offset="0" stop-color="#888a85" stop-opacity="1"/><stop id="stop6297" offset="1" stop-color="#555753" stop-opacity="0"/></linearGradient><linearGradient id="linearGradient17644" x1="24.117" x2="24.065" y1="8" y2="31.932" gradientTransform="matrix(0.3513555,0,0,0.3333434,0.5672374,-0.6667477)" gradientUnits="userSpaceOnUse" xlink:href="#linearGradient6293"/></defs><metadata id="metadata7336"/><g id="layer1"><path id="path15" fill="#eeeeec" fill-opacity="1" stroke="url(#linearGradient17644)" stroke-dasharray="none" stroke-miterlimit="4" stroke-width="1" d="M 14.500017,4.0001546 C 14.501101,3.8167655 14.198435,3.5000444 14.000017,3.5000444 L 8.4998549,3.5000444 L 6.5000169,2.4999923 L 1.9998546,2.4999923 C 1.7352957,2.4999923 1.4998546,2.7555118 1.4998546,3.0000294 L 1.4998546,14.5 L 14.500017,14.5 L 14.500017,4.0001546 z"/><path id="path7263" fill="none" fill-opacity="1" stroke="url(#linearGradient17646)" stroke-dasharray="none" stroke-miterlimit="4" stroke-opacity="1" stroke-width="1" d="M 13.500017,4.7499918 C 13.501042,4.5104907 13.505832,4.5001546 13.250017,4.5001546 L 8.2000169,4.5001546 C 8.2000169,4.5001546 6.5030669,3.4993087 6.0000169,3.5001546 L 2.7500167,3.5001546 C 2.4990248,3.5001546 2.4998546,3.5207576 2.4998546,3.7499918 L 2.5100127,13.5 L 13.500017,13.5 L 13.500017,4.7499918 z" opacity="1"/><path id="path2185" fill="url(#linearGradient9237)" fill-opacity="1" fill-rule="evenodd" stroke="url(#linearGradient9245)" stroke-dasharray="none" stroke-linecap="butt" stroke-linejoin="miter" stroke-miterlimit="4" stroke-opacity="1" stroke-width="1" d="M 0.5,14.5 L 15.5,14.5 L 15.5,5.4998937 L 0.5,5.4998937 L 0.5,14.5 L 0.5,14.5 z" display="inline" enable-background="new" opacity=".9" overflow="visible"/><rect id="rect8457" width="14" height="1" x="1" y="6" fill="url(#linearGradient10493)" fill-opacity="1" stroke="none" display="inline" enable-background="new" rx="0" ry="0"/><path id="path3290" fill="url(#linearGradient7329)" fill-opacity="1" stroke="none" stroke-dasharray="none" stroke-dashoffset="0" stroke-linecap="butt" stroke-linejoin="miter" stroke-miterlimit="4" stroke-opacity="1" stroke-width="1" d="M 13,10 L 7.9999999,14 L 3,10 L 5.9999999,10 L 5.9999999,7 L 9.9999999,7 L 9.9999999,10 L 13,10 L 13,10 z" display="inline" opacity="1" overflow="visible" visibility="visible" style="marker:none"/></g></svg>