<svg xmlns="http://www.w3.org/2000/svg" xmlns:svg="http://www.w3.org/2000/svg" xmlns:xlink="http://www.w3.org/1999/xlink" id="svg7317" width="16" height="16"><defs id="defs7319"><linearGradient id="linearGradient8606" x1="11" x2="11" y1="10.063" y2="27.975" gradientTransform="matrix(0.5,0,0,0.4969267,1.4999999,4.0522485)" gradientUnits="userSpaceOnUse" xlink:href="#linearGradient8598"/><linearGradient id="linearGradient8604" x1="11.463" x2="11.5" y1="11.466" y2="25.177" gradientTransform="matrix(0.6666666,0,0,0.6625684,0.3333342,1.4030058)" gradientUnits="userSpaceOnUse" xlink:href="#linearGradient8598"/><linearGradient id="linearGradient8598"><stop id="stop8600" offset="0" stop-color="#fff" stop-opacity="1"/><stop id="stop8602" offset="1" stop-color="#fff" stop-opacity="0"/></linearGradient><linearGradient id="linearGradient8608" x1="11" x2="11" y1="11.05" y2="22.05" gradientTransform="matrix(0.6,0,0,0.9938522,1.3999997,-4.8954875)" gradientUnits="userSpaceOnUse" xlink:href="#linearGradient8598"/><linearGradient id="linearGradient8372"><stop id="stop8374" offset="0" stop-color="#fff" stop-opacity="1"/><stop id="stop8376" offset="1" stop-color="#fff" stop-opacity="0"/></linearGradient><linearGradient id="linearGradient8378" x1="11" x2="11" y1="9.986" y2="21.031" gradientTransform="translate(-3.0000412,-3.9999584)" gradientUnits="userSpaceOnUse" xlink:href="#linearGradient8372"/><linearGradient id="linearGradient16534"><stop id="stop16536" offset="0" stop-color="#fff" stop-opacity="1"/><stop id="stop16538" offset="1" stop-color="#fff" stop-opacity="0"/></linearGradient><linearGradient id="linearGradient16540" x1="8.061" x2="8" y1="8.081" y2="17.054" gradientTransform="translate(6.06e-5,-1.443e-4)" gradientUnits="userSpaceOnUse" xlink:href="#linearGradient16534"/><linearGradient id="linearGradient9229" x1="71.999" x2="71.999" y1="14.258" y2="19.958" gradientTransform="matrix(1.0033404,0,0,1,-8.2374684,8)" gradientUnits="userSpaceOnUse"><stop id="stop9231" offset=".004" stop-color="#feebd6" stop-opacity="0"/><stop id="stop9233" offset=".461" stop-color="#f5f5f5" stop-opacity=".53"/><stop id="stop9235" offset="1" stop-color="#f5f5f5" stop-opacity="0"/></linearGradient><linearGradient id="linearGradient10493" x1="7.238" x2="132.86" y1="36.005" y2="35.858" gradientTransform="matrix(0.1447824,0,0,0.942809,-1.35465,-27.279266)" gradientUnits="userSpaceOnUse" xlink:href="#linearGradient9229"/><linearGradient id="linearGradient9239"><stop id="stop9241" offset="0" stop-color="#3465a4" stop-opacity="1"/><stop id="stop9243" offset="1" stop-color="#204a87" stop-opacity="1"/></linearGradient><linearGradient id="linearGradient9245" x1="9.066" x2="9.057" y1="2.836" y2="12.836" gradientTransform="translate(-5.80601e-2,2.1641571)" gradientUnits="userSpaceOnUse" xlink:href="#linearGradient9239"/><linearGradient id="linearGradient9247"><stop id="stop9249" offset="0" stop-color="#8fb3d9" stop-opacity="1"/><stop id="stop9251" offset="1" stop-color="#3465a4" stop-opacity="1"/></linearGradient><linearGradient id="linearGradient9237" x1="8" x2="8" y1="2.989" y2="14.001" gradientTransform="matrix(1.0000072,0,0,0.9971619,-2.5e-6,1.0383157)" gradientUnits="userSpaceOnUse" xlink:href="#linearGradient9247"/><linearGradient id="linearGradient17648"><stop id="stop17650" offset="0" stop-color="#fff" stop-opacity=".6"/><stop id="stop17652" offset="1" stop-color="#fff" stop-opacity="0"/></linearGradient><linearGradient id="linearGradient17646" x1="22.124" x2="22.124" y1="9.227" y2="41.879" gradientTransform="matrix(0.3513555,0,0,0.3333434,0.2264754,1.7541e-3)" gradientUnits="userSpaceOnUse" xlink:href="#linearGradient17648"/><linearGradient id="linearGradient6293"><stop id="stop6295" offset="0" stop-color="#888a85" stop-opacity="1"/><stop id="stop6297" offset="1" stop-color="#555753" stop-opacity="0"/></linearGradient><linearGradient id="linearGradient17644" x1="24.117" x2="24.065" y1="8" y2="31.932" gradientTransform="matrix(0.3513555,0,0,0.3333434,0.5672374,-0.6667472)" gradientUnits="userSpaceOnUse" xlink:href="#linearGradient6293"/></defs><metadata id="metadata7322"/><g id="layer1"><path id="path15" fill="#eeeeec" fill-opacity="1" stroke="url(#linearGradient17644)" stroke-dasharray="none" stroke-miterlimit="4" stroke-width="1" d="M 14.500017,4.0001546 C 14.501101,3.8167655 14.198435,3.5000444 14.000017,3.5000444 L 8.4998548,3.5000444 L 6.5000169,2.4999923 L 1.9998546,2.4999923 C 1.7352957,2.4999923 1.4998546,2.7555118 1.4998546,3.0000294 L 1.4998546,14.5 L 14.500017,14.5 L 14.500017,4.0001546 z"/><path id="path7263" fill="none" fill-opacity="1" stroke="url(#linearGradient17646)" stroke-dasharray="none" stroke-miterlimit="4" stroke-opacity="1" stroke-width="1" d="M 13.500017,4.7499918 C 13.501042,4.5104907 13.505832,4.5001546 13.250017,4.5001546 L 8.2000168,4.5001546 C 8.2000168,4.5001546 6.5030669,3.4993087 6.0000169,3.5001546 L 2.7500167,3.5001546 C 2.4990248,3.5001546 2.4998546,3.5207576 2.4998546,3.7499918 L 2.5100127,13.5 L 13.500017,13.5 L 13.500017,4.7499918 z" opacity="1"/><path id="path2185" fill="url(#linearGradient9237)" fill-opacity="1" fill-rule="evenodd" stroke="url(#linearGradient9245)" stroke-dasharray="none" stroke-linecap="butt" stroke-linejoin="miter" stroke-miterlimit="4" stroke-opacity="1" stroke-width="1" d="M 0.5,14.5 L 15.5,14.5 L 15.5,5.4998937 L 0.5,5.4998937 L 0.5,14.5 L 0.5,14.5 z" display="inline" enable-background="new" opacity=".9" overflow="visible"/><rect id="rect8457" width="14" height="1" x="1" y="6" fill="url(#linearGradient10493)" fill-opacity="1" stroke="none" display="inline" enable-background="new" rx="0" ry="0"/><path id="rect7600" fill="none" fill-opacity="1" stroke="url(#linearGradient8378)" stroke-linecap="round" stroke-linejoin="round" stroke-miterlimit="4" stroke-opacity="1" stroke-width="1" d="M 4.4999588,7.5000416 L 11.499959,7.5000416 L 11.499959,12.5 L 4.4999588,12.5 L 4.4999588,7.5000416 z"/><path id="path7034" fill="url(#linearGradient8606)" fill-opacity="1" fill-rule="evenodd" stroke="none" stroke-dasharray="none" stroke-dashoffset="0" stroke-linecap="round" stroke-linejoin="round" stroke-miterlimit="4" stroke-opacity="1" stroke-width="1" marker-end="none" marker-mid="none" marker-start="none" d="M 5.936908,11.000564 C 5.415139,11.03178 5,11.443665 5,11.943485 C 5,11.962787 5.0019385,11.980985 5.003155,12 L 6.996845,12 C 6.9980615,11.980985 7,11.962787 7,11.943485 C 7,11.423348 6.5516235,11.000564 6,11.000564 C 5.978452,11.000564 5.9581185,10.999295 5.936908,11.000564 z" display="inline" overflow="visible" visibility="visible" style="marker:none"/><path id="path7032" fill="url(#linearGradient8604)" fill-opacity="1" fill-rule="evenodd" stroke="none" stroke-linecap="butt" stroke-linejoin="miter" stroke-opacity="1" stroke-width="1" d="M 8.9060355,12 C 8.9060355,12 8.7946488,11.410213 8.7946488,11.048899 C 8.7977375,10.884071 10.355778,9.6000164 10.359796,9.4087515 L 9.9975663,9.7099286 L 9.7439193,9.0515496 L 10.599025,9.1360847 L 11,8.7535224 L 10.545865,9.0716062 L 10.38968,9.0377921 L 10.198053,8.3709594 L 10.295516,9.0208853 L 9.5877333,8.9870711 L 9.8092423,9.5249468 L 9.1956209,8.9448033 L 9.8446833,9.7522905 C 9.8447013,9.9323872 8.5654048,11.03181 8.5675808,10.842237 L 8.037005,10.163269 L 7.992703,9.2453886 L 8.3936749,9.1360847 L 8.7449582,8.3096308 L 8.281891,9.0734773 L 7.9203802,9.0578487 L 7.1111404,8.4057688 L 6,8 L 6.9492704,8.4977624 L 6.188324,8.5622409 L 7.1907577,8.5622409 L 7.7922162,9.1360847 L 7.863099,10.127301 L 6.7897846,9.1360847 L 7.2411397,9.6539038 L 6.589298,10.092491 L 7.305321,9.7099286 L 8.4379762,11.071108 L 8.3936749,12 L 8.9060355,12 z"/></g></svg>