<svg xmlns="http://www.w3.org/2000/svg" xmlns:svg="http://www.w3.org/2000/svg" xmlns:xlink="http://www.w3.org/1999/xlink" id="svg7610" width="48" height="48"><defs id="defs7612"><linearGradient id="linearGradient4099-6-7"><stop id="stop4101-1-8" offset="0" stop-color="#ddd" stop-opacity="1"/><stop id="stop4107-2-2" offset=".345" stop-color="#fff" stop-opacity="1"/><stop id="stop4109-5-7" offset=".727" stop-color="#737373" stop-opacity="1"/><stop id="stop4103-9-2" offset="1" stop-color="#bbb" stop-opacity="1"/></linearGradient><linearGradient id="linearGradient7872" x1="-158.75" x2="-158.75" y1="115.938" y2="134.25" gradientTransform="matrix(0.1892115,-0.1892253,0.1892115,0.1892253,49.738733,-37.732231)" gradientUnits="userSpaceOnUse" xlink:href="#linearGradient4099-6-7"/><linearGradient id="linearGradient4117-1-0"><stop id="stop4121-0-5" offset="0" stop-color="#f9a9a9" stop-opacity="1"/><stop id="stop4119-1-6" offset="1" stop-color="#ab5f5f" stop-opacity="1"/></linearGradient><radialGradient id="radialGradient7870" cx="-138.837" cy="128.001" r="9.127" fx="-138.837" fy="128.001" gradientTransform="matrix(0.320394,-0.3203948,0.322414,0.3224148,50.518433,-74.157887)" gradientUnits="userSpaceOnUse" xlink:href="#linearGradient4117-1-0"/><linearGradient id="linearGradient6437"><stop id="stop6439" offset="0" stop-color="#e9b96e" stop-opacity="1"/><stop id="stop6441" offset="1" stop-color="#fff" stop-opacity="1"/></linearGradient><linearGradient id="linearGradient7868" x1="26.379" x2="25.485" y1="34.39" y2="32.714" gradientUnits="userSpaceOnUse" xlink:href="#linearGradient6437"/><linearGradient id="linearGradient2301"><stop id="stop2303" offset="0" stop-color="#ce5c00" stop-opacity="1"/><stop id="stop2305" offset="1" stop-color="#ce5c00"/></linearGradient><linearGradient id="linearGradient7866" x1="23.448" x2="22.81" y1="21.481" y2="22.119" gradientTransform="translate(6.39225,12.18459)" gradientUnits="userSpaceOnUse" xlink:href="#linearGradient2301"/><linearGradient id="linearGradient6445"><stop id="stop6447" offset="0" stop-color="#fcaf3e" stop-opacity="1"/><stop id="stop6449" offset="1" stop-color="#ce5c00"/></linearGradient><linearGradient id="linearGradient7864" x1="28.079" x2="30.432" y1="12.338" y2="14.691" gradientTransform="translate(6.39225,12.18459)" gradientUnits="userSpaceOnUse" xlink:href="#linearGradient6445"/><linearGradient id="linearGradient1813"><stop id="stop1815" offset="0" stop-color="#000" stop-opacity="1"/><stop id="stop1817" offset="1" stop-color="#000" stop-opacity="0"/></linearGradient><linearGradient id="linearGradient7862" x1="18.188" x2="32.938" y1="18.538" y2="18.392" gradientTransform="matrix(1,0,0,0.415008,6.5485,26.7669)" gradientUnits="userSpaceOnUse" xlink:href="#linearGradient1813"/><linearGradient id="linearGradient4333"><stop id="stop4335" offset="0" stop-color="#000" stop-opacity="1"/><stop id="stop4337" offset="1" stop-color="#000" stop-opacity="0"/></linearGradient><radialGradient id="radialGradient7860" cx="37.375" cy="33.188" r="14.625" fx="37.375" fy="33.188" gradientTransform="matrix(1,0,0,0.226496,0,25.67067)" gradientUnits="userSpaceOnUse" xlink:href="#linearGradient4333"/><linearGradient id="linearGradient3524"><stop id="stop3526" offset="0" stop-color="#000" stop-opacity="1"/><stop id="stop3528" offset="1" stop-color="#000" stop-opacity="0"/></linearGradient><linearGradient id="linearGradient7874" x1="22.156" x2="26.906" y1="39.219" y2="38.438" gradientTransform="matrix(0.8823529,0,0,1,1.6470588,0)" gradientUnits="userSpaceOnUse" xlink:href="#linearGradient3524"/><linearGradient id="linearGradient3540"><stop id="stop3542" offset="0" stop-color="#babdb6" stop-opacity="1"/><stop id="stop3544" offset="1" stop-color="#555753" stop-opacity="1"/></linearGradient><linearGradient id="linearGradient3842" x1="10.125" x2="13.958" y1="18.5" y2="103.934" gradientTransform="translate(2.0004952,-5.89e-5)" gradientUnits="userSpaceOnUse" xlink:href="#linearGradient3540"/><linearGradient id="linearGradient3268"><stop id="stop3270" offset="0" stop-color="#000" stop-opacity="0"/><stop id="stop3276" offset=".5" stop-color="#000" stop-opacity="1"/><stop id="stop3272" offset="1" stop-color="#000" stop-opacity="0"/></linearGradient><linearGradient id="linearGradient3640" x1="19.578" x2="19.578" y1="40.999" y2="47.001" gradientUnits="userSpaceOnUse" xlink:href="#linearGradient3268"/><radialGradient id="radialGradient3638" cx="2" cy="44" r="2.969" fx="2" fy="44" gradientTransform="matrix(1.6842105,0,0,1.0105263,-9.3684213,-88.463158)" gradientUnits="userSpaceOnUse" xlink:href="#linearGradient3254"/><linearGradient id="linearGradient3254"><stop id="stop3256" offset="0" stop-color="#000" stop-opacity="1"/><stop id="stop3258" offset="1" stop-color="#000" stop-opacity="0"/></linearGradient><radialGradient id="radialGradient3636" cx="2" cy="44" r="2.969" fx="2" fy="44" gradientTransform="matrix(1.6842105,0,0,1.0105263,29.631579,-0.4631579)" gradientUnits="userSpaceOnUse" xlink:href="#linearGradient3254"/></defs><metadata id="metadata7615"/><g id="layer1"><g id="g3580" opacity=".15" transform="matrix(1.0755539,0,0,0.8526861,1.1294461,6.4817533)"><rect id="rect3582" width="5" height="6" x="33" y="41" fill="url(#radialGradient3636)" fill-opacity="1" stroke="none" stroke-dasharray="none" stroke-dashoffset="0" stroke-linecap="round" stroke-linejoin="miter" stroke-miterlimit="4" stroke-opacity="1" stroke-width="1" opacity="1"/><rect id="rect3584" width="5" height="6" x="-6" y="-47" fill="url(#radialGradient3638)" fill-opacity="1" stroke="none" stroke-dasharray="none" stroke-dashoffset="0" stroke-linecap="round" stroke-linejoin="miter" stroke-miterlimit="4" stroke-opacity="1" stroke-width="1" opacity="1" transform="scale(-1,-1)"/><rect id="rect3586" width="27" height="6" x="6" y="41" fill="url(#linearGradient3640)" fill-opacity="1" stroke="none" stroke-dasharray="none" stroke-dashoffset="0" stroke-linecap="round" stroke-linejoin="miter" stroke-miterlimit="4" stroke-opacity="1" stroke-width="1" opacity="1"/></g><rect id="rect3588" width="31" height="43" x="6.5" y="1.5" fill="#eeeeec" fill-opacity="1" stroke="url(#linearGradient3842)" stroke-dasharray="none" stroke-dashoffset="0" stroke-linecap="round" stroke-linejoin="round" stroke-miterlimit="4" stroke-opacity="1" stroke-width="1" rx="2.603" ry="2.519"/><path id="path3590" fill="#000" fill-opacity="1" stroke="none" stroke-dasharray="none" stroke-dashoffset="0" stroke-linecap="round" stroke-linejoin="round" stroke-miterlimit="4" stroke-opacity="1" stroke-width="1" d="M 8,11 C 6.9174206,11 6.03125,11.886171 6.03125,12.96875 L 6.03125,17.03125 C 6.03125,18.113829 6.9174206,19 8,19 L 31.03125,19 C 32.113829,19 32.999999,18.113829 33,17.03125 L 33,12.96875 C 33,11.88617 32.113829,11 31.03125,11 L 8,11 z" opacity=".07" transform="translate(2.0004952,0.9999411)"/><rect id="rect3592" width="27" height="7" x="8.5" y="11.5" fill="#729fcf" fill-opacity="1" stroke="#3465a4" stroke-dasharray="none" stroke-dashoffset="0" stroke-linecap="round" stroke-linejoin="round" stroke-miterlimit="4" stroke-opacity="1" stroke-width="1" rx="1.556" ry="1.485"/><rect id="rect3594" width="28.892" height="40.9" x="7.558" y="2.55" fill="none" fill-opacity="1" stroke="#fff" stroke-dasharray="none" stroke-dashoffset="0" stroke-linecap="round" stroke-linejoin="miter" stroke-miterlimit="4" stroke-opacity="1" stroke-width="1.1" rx="1.505" ry="1.455"/><rect id="rect3596" width="17" height="2" x="16" y="38" fill="#000" fill-opacity="1" stroke="none" stroke-dasharray="none" stroke-dashoffset="0" stroke-linecap="round" stroke-linejoin="round" stroke-miterlimit="4" stroke-opacity="1" stroke-width="1" opacity=".4" rx=".767" ry=".813"/><rect id="rect3616" width="17" height="2" x="16" y="6" fill="#000" fill-opacity="1" stroke="none" stroke-dasharray="none" stroke-dashoffset="0" stroke-linecap="round" stroke-linejoin="round" stroke-miterlimit="4" stroke-opacity="1" stroke-width="1" opacity=".4" rx=".59" ry=".625"/><rect id="rect3618" width="17" height="2" x="16" y="14" fill="#000" fill-opacity="1" stroke="none" stroke-dasharray="none" stroke-dashoffset="0" stroke-linecap="round" stroke-linejoin="round" stroke-miterlimit="4" stroke-opacity="1" stroke-width="1" opacity=".4" rx=".531" ry=".563"/><rect id="rect3620" width="17" height="2" x="16" y="22" fill="#000" fill-opacity="1" stroke="none" stroke-dasharray="none" stroke-dashoffset="0" stroke-linecap="round" stroke-linejoin="round" stroke-miterlimit="4" stroke-opacity="1" stroke-width="1" opacity=".4" rx=".75" ry=".75"/><path id="path3622" fill="none" fill-opacity="1" stroke="#fff" stroke-dasharray="none" stroke-dashoffset="0" stroke-linecap="round" stroke-linejoin="round" stroke-miterlimit="4" stroke-opacity="1" stroke-width=".98" d="M 8,12.5 C 7.7145401,12.5 7.53125,12.68329 7.53125,12.96875 L 7.53125,17.03125 C 7.53125,17.31671 7.7145401,17.5 8,17.5 L 31.03125,17.5 C 31.31671,17.5 31.5,17.316711 31.5,17.03125 L 31.5,12.96875 C 31.5,12.683291 31.316708,12.5 31.03125,12.5 L 8,12.5 z" opacity=".4" transform="matrix(1.041721,0,0,1,1.6862841,-5.89e-5)"/><rect id="rect3626" width="3" height="3" x="10.5" y="37.5" fill="#888a85" fill-opacity="1" stroke="#2e3436" stroke-dasharray="none" stroke-dashoffset="0" stroke-linecap="round" stroke-linejoin="miter" stroke-miterlimit="4" stroke-opacity="1" stroke-width="1" opacity=".3" rx=".862" ry=".862"/><rect id="rect3628" width="3" height="3" x="10.5" y="21.5" fill="#888a85" fill-opacity="1" stroke="#2e3436" stroke-dasharray="none" stroke-dashoffset="0" stroke-linecap="round" stroke-linejoin="miter" stroke-miterlimit="4" stroke-opacity="1" stroke-width="1" opacity=".3" rx=".862" ry=".862"/><rect id="rect3630" width="3" height="3" x="10.5" y="13.5" fill="#888a85" fill-opacity="1" stroke="#2e3436" stroke-dasharray="none" stroke-dashoffset="0" stroke-linecap="round" stroke-linejoin="miter" stroke-miterlimit="4" stroke-opacity="1" stroke-width="1" opacity=".3" rx=".862" ry=".862"/><rect id="rect3632" width="3" height="3" x="10.5" y="5.5" fill="#888a85" fill-opacity="1" stroke="#2e3436" stroke-dasharray="none" stroke-dashoffset="0" stroke-linecap="round" stroke-linejoin="miter" stroke-miterlimit="4" stroke-opacity="1" stroke-width="1" opacity=".3" rx=".862" ry=".862"/><g id="g3848" transform="translate(2.0004952,-8.0000586)"><rect id="rect3624" width="3" height="3" x="8.5" y="37.5" fill="#888a85" fill-opacity="1" stroke="#2e3436" stroke-dasharray="none" stroke-dashoffset="0" stroke-linecap="round" stroke-linejoin="miter" stroke-miterlimit="4" stroke-opacity="1" stroke-width="1" opacity=".3" rx=".862" ry=".862"/><rect id="rect3634" width="15" height="2" x="14" y="38" fill="url(#linearGradient7874)" fill-opacity="1" stroke="none" stroke-dasharray="none" stroke-dashoffset="0" stroke-linecap="round" stroke-linejoin="round" stroke-miterlimit="4" stroke-opacity="1" stroke-width="1" opacity=".4" rx=".677" ry=".813"/></g><g id="g10273" display="inline" transform="translate(-2.000002,-5.0000556)"><path id="path4331" fill="url(#radialGradient7860)" fill-opacity="1" stroke="none" d="M 52,33.1875 A 14.625,3.3125 0 1 1 22.75,33.1875 A 14.625,3.3125 0 1 1 52,33.1875 z" opacity=".07" transform="matrix(0.897436,0,0,0.981132,1.333333,1.688679)"/><g id="g10286"><path id="path2334" fill="url(#linearGradient7862)" fill-opacity="1" fill-rule="evenodd" stroke="none" d="M 41.07975,28.46584 L 26.07975,32.938753 L 25.95475,33.003593 L 25.861,33.081403 L 23.111,35.934581 L 30.5485,35.091597 L 30.82975,35.065657 L 31.01725,34.987847 L 41.07975,32.304654 L 41.07975,28.465833 L 41.07975,28.46584 L 41.07975,28.46584 z" display="inline" opacity=".4"/><g id="g10289"><g id="g10291"><path id="path2273" fill="url(#linearGradient7864)" fill-opacity="1" fill-rule="evenodd" stroke="url(#linearGradient7866)" stroke-dasharray="none" stroke-linecap="butt" stroke-linejoin="round" stroke-miterlimit="4" stroke-opacity="1" stroke-width="1" d="M 25.89225,30.18459 L 44.89225,11.18459 C 47.067299,11.544551 47.976969,12.916815 48.39225,14.68459 L 29.39225,33.68459 L 24.776133,34.389095 L 25.89225,30.18459 L 25.89225,30.18459 L 25.89225,30.18459 z"/><path id="path2313" fill="none" stroke="#fff" stroke-dasharray="none" stroke-linecap="butt" stroke-linejoin="miter" stroke-miterlimit="4" stroke-opacity="1" stroke-width="1" d="M 26.792248,30.68459 L 45.289998,12.286842 C 46.379743,12.465277 46.807259,13.274786 47.289998,14.286842 L 28.89225,32.784592 L 25.592247,33.684593 L 26.792248,30.68459 L 26.792248,30.68459 L 26.792248,30.68459 z" display="inline" opacity=".282"/></g><g id="g10295"><path id="path2298" fill="url(#linearGradient7868)" fill-opacity="1" fill-rule="evenodd" stroke="none" d="M 24.549577,34.633026 L 26.215899,30.452717 C 26.215899,30.452717 27.415434,30.698077 28.148076,31.427806 C 28.880718,32.157535 29.146467,33.371634 29.146467,33.371634 L 24.549577,34.633026 z"/><path id="path5446" fill="none" stroke="#e9b96e" stroke-dasharray="none" stroke-linecap="round" stroke-linejoin="round" stroke-miterlimit="4" stroke-opacity="1" stroke-width="1" d="M 23,21.5 L 17.5,23 L 19.5,18" transform="translate(6.39225,12.18459)"/><path id="path2283" fill="#000" fill-opacity="1" fill-rule="evenodd" stroke="none" d="M 23.95475,33.68459 L 23.0485,35.93459 L 25.39225,35.27834 C 25.39425,35.2465 25.39225,35.21693 25.39225,35.18459 C 25.39225,34.382465 24.746942,33.724789 23.95475,33.68459 z" display="inline"/></g></g></g><path id="path4113-1" fill="url(#radialGradient7870)" fill-opacity="1" fill-rule="nonzero" stroke="#ef2929" stroke-width="1" d="M 42.821682,13.147263 C 44.655834,12.646732 46.706734,14.798738 46.271593,16.597182 L 48.46699,14.40178 C 49.533501,11.935217 47.334738,9.9920671 44.972276,10.907057 L 42.821682,13.147263 L 42.821682,13.147263 z" display="inline" enable-background="new" overflow="visible" visibility="visible" style="marker:none"/><path id="path4095-8" fill="url(#linearGradient7872)" fill-opacity="1" fill-rule="nonzero" stroke="#888a85" stroke-width="1" d="M 40.561976,15.25084 C 42.498424,14.722356 44.663708,16.994546 44.204297,18.893426 L 46.522138,16.575416 C 47.276595,14.97964 44.477505,12.237921 42.832513,12.885525 L 40.561976,15.25084 L 40.561976,15.25084 z" display="inline" enable-background="new" overflow="visible" visibility="visible" style="marker:none"/></g></g></svg>