<svg xmlns="http://www.w3.org/2000/svg" xmlns:svg="http://www.w3.org/2000/svg" xmlns:xlink="http://www.w3.org/1999/xlink" id="svg7324" width="48" height="48"><defs id="defs7326"><linearGradient id="linearGradient13122"><stop id="stop13124" offset="0" stop-color="#fff" stop-opacity="1"/><stop id="stop13126" offset="1" stop-color="#fff" stop-opacity="0"/></linearGradient><linearGradient id="linearGradient13128" x1="43.223" x2="39.48" y1="26.509" y2="24.55" gradientTransform="translate(0.2702231,0.377493)" gradientUnits="userSpaceOnUse" xlink:href="#linearGradient13122"/><linearGradient id="linearGradient13130"><stop id="stop13132" offset="0" stop-color="#616161" stop-opacity="1"/><stop id="stop13134" offset="1" stop-color="#000" stop-opacity="0"/></linearGradient><linearGradient id="linearGradient13136" x1="43.774" x2="39.727" y1="27.865" y2="25.092" gradientTransform="translate(7.0596046e-6,-6e-6)" gradientUnits="userSpaceOnUse" xlink:href="#linearGradient13130"/><linearGradient id="linearGradient8127"><stop id="stop8129" offset="0" stop-color="#e5e5e5" stop-opacity="1"/><stop id="stop8131" offset="1" stop-color="#767676" stop-opacity="1"/></linearGradient><linearGradient id="linearGradient8133" x1="141.082" x2="141.461" y1="24.998" y2="28.502" gradientTransform="matrix(1.0046231,0,0,1,-100.41099,-6e-6)" gradientUnits="userSpaceOnUse" xlink:href="#linearGradient8127"/><linearGradient id="linearGradient8137"><stop id="stop8139" offset="0" stop-color="#efefef" stop-opacity="1"/><stop id="stop8141" offset="1" stop-color="#d7d7d7" stop-opacity="1"/></linearGradient><linearGradient id="linearGradient8143" x1="142.902" x2="144.288" y1="26.125" y2="26.851" gradientTransform="matrix(1.0046231,0,0,1,-100.41099,-6e-6)" gradientUnits="userSpaceOnUse" xlink:href="#linearGradient8137"/><linearGradient id="linearGradient4788-7"><stop id="stop4790-8" offset="0" stop-color="#fff" stop-opacity="1"/><stop id="stop4792-6" offset="1" stop-color="#fff" stop-opacity="0"/></linearGradient><radialGradient id="radialGradient9352" cx="326.021" cy="58" r="12.5" fx="326.021" fy="58" gradientTransform="matrix(-1.4890564,6.543068e-7,6.292703e-2,-1.0610574,793.03204,193.51979)" gradientUnits="userSpaceOnUse" xlink:href="#linearGradient4788-7"/><linearGradient id="linearGradient4788"><stop id="stop4790" offset="0" stop-color="#fff" stop-opacity="1"/><stop id="stop4792" offset="1" stop-color="#fff" stop-opacity="0"/></linearGradient><radialGradient id="radialGradient9350" cx="327.5" cy="58" r="12.5" fx="327.5" fy="58" gradientTransform="matrix(3.653637,3.5088616e-8,0,0.8687451,-871.67825,81.612783)" gradientUnits="userSpaceOnUse" xlink:href="#linearGradient4788"/><linearGradient id="linearGradient5687"><stop id="stop5689" offset="0" stop-color="#fff" stop-opacity="1"/><stop id="stop5691" offset="1" stop-color="#fff" stop-opacity="0"/></linearGradient><linearGradient id="linearGradient9348" x1="88" x2="178" y1="44.5" y2="202.5" gradientTransform="matrix(0.1250002,0,0,0.1129032,300.49993,123.87097)" gradientUnits="userSpaceOnUse" xlink:href="#linearGradient5687"/><linearGradient id="linearGradient2705"><stop id="stop2707" offset="0" stop-color="#729fcf" stop-opacity="1"/><stop id="stop2709" offset="1" stop-color="#204a87" stop-opacity="1"/></linearGradient><radialGradient id="radialGradient9346" cx="24.006" cy="37.922" r="19" fx="24.006" fy="37.922" gradientTransform="matrix(1.7493055,0,0,0.7111911,277.00609,120.29379)" gradientUnits="userSpaceOnUse" xlink:href="#linearGradient2705"/><linearGradient id="linearGradient4646"><stop id="stop4648" offset="0" stop-color="#fff" stop-opacity="1"/><stop id="stop4650" offset="1" stop-color="#fff" stop-opacity=".1"/></linearGradient><radialGradient id="radialGradient9344" cx="314.369" cy="75.284" r="22" fx="314.369" fy="75.284" gradientTransform="matrix(-2.0839328,-0.7169098,0.1444031,-0.4216123,965.51798,393.21598)" gradientUnits="userSpaceOnUse" xlink:href="#linearGradient4646"/><linearGradient id="linearGradient5538"><stop id="stop5540" offset="0" stop-color="#555753" stop-opacity="1"/><stop id="stop5542" offset="1" stop-color="#babdb6" stop-opacity="1"/></linearGradient><linearGradient id="linearGradient9342" x1="333.25" x2="293" y1="97" y2="54.018" gradientTransform="matrix(0.6888889,0,0,0.7004163,98.555556,90.314823)" gradientUnits="userSpaceOnUse" xlink:href="#linearGradient5538"/><linearGradient id="linearGradient4654"><stop id="stop4656" offset="0" stop-color="#eeeeec" stop-opacity="1"/><stop id="stop4658" offset="1" stop-color="#babdb6" stop-opacity="1"/></linearGradient><radialGradient id="radialGradient9340" cx="314.31" cy="61.655" r="23" fx="314.31" fy="61.655" gradientTransform="matrix(0.7759273,2.944255,-0.74027,0.2016738,114.42318,-805.60206)" gradientUnits="userSpaceOnUse" xlink:href="#linearGradient4654"/><linearGradient id="linearGradient2715"><stop id="stop2717" offset="0" stop-color="#fff" stop-opacity="1"/><stop id="stop2719" offset=".162" stop-color="#d3d7cf" stop-opacity="1"/><stop id="stop2721" offset=".856" stop-color="#d3d7cf" stop-opacity="1"/><stop id="stop2723" offset="1" stop-color="#fff" stop-opacity="1"/></linearGradient><linearGradient id="linearGradient9338" x1="311.625" x2="328.25" y1="93.5" y2="93.5" gradientTransform="matrix(0.6701389,0,0,0.9564971,104.58681,65.045763)" gradientUnits="userSpaceOnUse" xlink:href="#linearGradient2715"/><linearGradient id="linearGradient4713"><stop id="stop4715" offset="0" stop-color="#fff" stop-opacity="1"/><stop id="stop4717" offset="1" stop-color="#fff" stop-opacity="0"/></linearGradient><radialGradient id="radialGradient9336" cx="320.031" cy="91.506" r="8.438" fx="320.031" fy="91.506" gradientTransform="matrix(1.2735147,1.1189841e-8,0,0.1578689,-88.511772,138.06124)" gradientUnits="userSpaceOnUse" xlink:href="#linearGradient4713"/><linearGradient id="linearGradient2712"><stop id="stop2714" offset="0" stop-color="#555753" stop-opacity="1"/><stop id="stop2716" offset=".52" stop-color="#babdb6" stop-opacity="1"/><stop id="stop2718" offset=".817" stop-color="#888a85" stop-opacity="1"/><stop id="stop2720" offset="1" stop-color="#555753" stop-opacity="1"/></linearGradient><linearGradient id="linearGradient9334" x1="325.813" x2="325.813" y1="86.909" y2="93.876" gradientTransform="matrix(0.6875,0,0,0.7041466,99.03125,88.958141)" gradientUnits="userSpaceOnUse" xlink:href="#linearGradient2712"/><linearGradient id="linearGradient4693"><stop id="stop4695" offset="0" stop-color="#555753" stop-opacity="1"/><stop id="stop4701" offset=".301" stop-color="#babdb6" stop-opacity="1"/><stop id="stop3408" offset=".48" stop-color="#eeeeec" stop-opacity="1"/><stop id="stop4699" offset=".643" stop-color="#fff" stop-opacity="1"/><stop id="stop4697" offset="1" stop-color="#555753" stop-opacity="1"/></linearGradient><linearGradient id="linearGradient9332" x1="320.281" x2="320.281" y1="86.743" y2="93.069" gradientTransform="matrix(0.6875,0,0,0.7041466,99.03125,88.958141)" gradientUnits="userSpaceOnUse" xlink:href="#linearGradient4693"/><filter id="filter4768" width="1.228" height="2.135" x="-.114" y="-.568"><feGaussianBlur id="feGaussianBlur4770" stdDeviation=".946"/></filter><linearGradient id="linearGradient4772"><stop id="stop4774" offset="0" stop-color="#000" stop-opacity="1"/><stop id="stop4776" offset="1" stop-color="#000" stop-opacity="0"/></linearGradient><linearGradient id="linearGradient9330" x1="327.92" x2="327.92" y1="93.75" y2="88.849" gradientUnits="userSpaceOnUse" xlink:href="#linearGradient4772"/><filter id="filter6655" width="1.122" height="2.339" x="-.061" y="-.669"><feGaussianBlur id="feGaussianBlur6657" stdDeviation="1.168"/></filter><linearGradient id="linearGradient4612"><stop id="stop4614" offset="0" stop-color="#cecece" stop-opacity="1"/><stop id="stop4616" offset="1" stop-color="#fff" stop-opacity="1"/></linearGradient><linearGradient id="linearGradient7095" x1="42.381" x2="44.018" y1="42.278" y2="33.344" gradientTransform="matrix(1,0,0,1.0581711,7.0596046e-6,-1.858512)" gradientUnits="userSpaceOnUse" xlink:href="#linearGradient4612"/><linearGradient id="linearGradient13090"><stop id="stop13092" offset="0" stop-color="#7b7b7b" stop-opacity="1"/><stop id="stop13094" offset="1" stop-color="#505050" stop-opacity="1"/></linearGradient><linearGradient id="linearGradient13096" x1="40.321" x2="44.09" y1="26.521" y2="32.121" gradientTransform="translate(7.0596046e-6,-6e-6)" gradientUnits="userSpaceOnUse" xlink:href="#linearGradient13090"/><linearGradient id="linearGradient8115"><stop id="stop8117" offset="0" stop-color="#e3e3e3" stop-opacity="1"/><stop id="stop8123" offset=".5" stop-color="#d4d4d4" stop-opacity="1"/><stop id="stop8125" offset=".5" stop-color="#848484" stop-opacity="1"/><stop id="stop8119" offset="1" stop-color="#c1c1c1" stop-opacity="1"/></linearGradient><linearGradient id="linearGradient8121" x1="138.241" x2="146.803" y1="29.455" y2="29.286" gradientTransform="matrix(1.0216677,0,0,1,-102.97348,-6e-6)" gradientUnits="userSpaceOnUse" xlink:href="#linearGradient8115"/><linearGradient id="linearGradient8100"><stop id="stop8102" offset="0" stop-color="#1c427b" stop-opacity="1"/><stop id="stop8104" offset="1" stop-color="#1c427b" stop-opacity=".979"/></linearGradient><linearGradient id="linearGradient8106" x1="135.059" x2="142.382" y1="25.485" y2="25.485" gradientTransform="matrix(1.1353938,0.382705,-0.3814928,1.1317975,-110.42156,-58.017644)" gradientUnits="userSpaceOnUse" xlink:href="#linearGradient8100"/><linearGradient id="linearGradient8090"><stop id="stop8092" offset="0" stop-color="#214e90" stop-opacity="1"/><stop id="stop8094" offset="1" stop-color="#0d1f3a" stop-opacity="1"/></linearGradient><linearGradient id="linearGradient8096" x1="139.814" x2="137.043" y1="26.582" y2="26.142" gradientTransform="matrix(1.1353938,0.382705,-0.3814928,1.1317975,-110.42156,-58.017644)" gradientUnits="userSpaceOnUse" xlink:href="#linearGradient8090"/><radialGradient id="radialGradient3168" cx="25.969" cy="17.258" r="9.822" fx="25.969" fy="17.258" gradientTransform="matrix(5.0420652e-2,1.8168786,-1.2228576,3.3892491e-2,50.069619,-36.844368)" gradientUnits="userSpaceOnUse" xlink:href="#linearGradient8918"/><radialGradient id="radialGradient3198" cx="24.479" cy="17.574" r="2.972" fx="24.479" fy="17.574" gradientTransform="matrix(0.1814985,6.5401739,-0.4881366,1.3531535e-2,34.418516,-149.3207)" gradientUnits="userSpaceOnUse" xlink:href="#linearGradient8918"/><radialGradient id="radialGradient3183" cx="24.653" cy="18.944" r="8.617" fx="24.652" fy="18.944" gradientTransform="matrix(5.5772624e-2,2.0097336,-1.434522,3.9778707e-2,54.922798,-38.96569)" gradientUnits="userSpaceOnUse" xlink:href="#linearGradient8918"/><linearGradient id="linearGradient8918"><stop id="stop8920" offset="0" stop-color="#abe14b" stop-opacity="1"/><stop id="stop8922" offset="1" stop-color="#8cb029" stop-opacity="1"/></linearGradient><radialGradient id="radialGradient3218" cx="25.135" cy="14.542" r="4.135" fx="25.135" fy="14.542" gradientTransform="matrix(0.1304562,4.7009044,-0.6598342,1.8278205e-2,36.344914,-107.3288)" gradientUnits="userSpaceOnUse" xlink:href="#linearGradient8918"/><linearGradient id="linearGradient5154"><stop id="stop5156" offset="0" stop-color="#bcd1f0" stop-opacity="1"/><stop id="stop5158" offset="1" stop-color="#89aee3" stop-opacity=".407"/></linearGradient><linearGradient id="linearGradient7065" x1="15.865" x2="15.877" y1="14.684" y2="52.398" gradientUnits="userSpaceOnUse" xlink:href="#linearGradient5154"/><linearGradient id="linearGradient4173"><stop id="stop4175" offset="0" stop-color="#4b81c7" stop-opacity="1"/><stop id="stop4177" offset="1" stop-color="#3364a3" stop-opacity="1"/></linearGradient><linearGradient id="linearGradient7063" x1="11.167" x2="17.795" y1="15.976" y2="48.41" gradientUnits="userSpaceOnUse" xlink:href="#linearGradient4173"/><filter id="filter14190"><feGaussianBlur id="feGaussianBlur14192" stdDeviation=".789"/></filter><linearGradient id="linearGradient13101"><stop id="stop13103" offset="0" stop-color="#000" stop-opacity="1"/><stop id="stop13105" offset="1" stop-color="#000" stop-opacity="0"/></linearGradient><radialGradient id="radialGradient7061" cx="16.537" cy="31.564" r="16.336" fx="16.537" fy="31.564" gradientUnits="userSpaceOnUse" xlink:href="#linearGradient13101"/></defs><metadata id="metadata7329"/><g id="layer1"><path id="path7005" fill="url(#radialGradient7061)" fill-opacity="1" fill-rule="nonzero" stroke="none" stroke-dasharray="none" stroke-dashoffset="0" stroke-linecap="round" stroke-linejoin="miter" stroke-miterlimit="4" stroke-opacity="1" stroke-width="1.021" d="M 32.872257,31.563871 A 16.335602,16.335602 0 1 1 0.20105362,31.563871 A 16.335602,16.335602 0 1 1 32.872257,31.563871 z" filter="url(#filter14190)" opacity=".62" transform="matrix(0.9794558,0,0,0.3529652,13.303087,20.613048)"/><g id="g7007" transform="translate(7.0596046e-6,39.999994)"><path id="path7009" fill="url(#linearGradient7063)" fill-opacity="1" fill-rule="nonzero" stroke="#1e4886" stroke-dasharray="none" stroke-dashoffset="0" stroke-linecap="round" stroke-linejoin="miter" stroke-miterlimit="4" stroke-opacity="1" stroke-width="1.021" d="M 32.872257,31.563871 A 16.335602,16.335602 0 1 1 0.20105362,31.563871 A 16.335602,16.335602 0 1 1 32.872257,31.563871 z" opacity="1" transform="matrix(0.9794558,0,0,0.9794558,13.303077,-52.415417)"/><path id="path7011" fill="none" fill-opacity="1" fill-rule="nonzero" stroke="url(#linearGradient7065)" stroke-dasharray="none" stroke-dashoffset="0" stroke-linecap="round" stroke-linejoin="miter" stroke-miterlimit="4" stroke-opacity="1" stroke-width="1.089" d="M 32.872257,31.563871 A 16.335602,16.335602 0 1 1 0.20105362,31.563871 A 16.335602,16.335602 0 1 1 32.872257,31.563871 z" opacity="1" transform="matrix(0.9182398,0,0,0.9182398,14.315385,-50.483203)"/><g id="g7013" transform="translate(0,-40)"><path id="path7015" fill="#93d442" fill-opacity="1" fill-rule="nonzero" stroke="none" stroke-miterlimit="4" stroke-width="1.008" d="M 30.552973,6.9150373 L 30.493137,7.3180186 L 30.909866,7.5869178 L 31.621934,7.1165279 L 31.26594,6.7131383 L 30.790193,6.982446 L 30.553137,6.9150373"/><path id="path7017" fill="url(#radialGradient3218)" fill-opacity="1" fill-rule="nonzero" stroke="none" stroke-miterlimit="4" stroke-width="1.008" d="M 31.437887,5.0682654 C 30.764489,4.8597635 30.129743,4.3854346 29.391015,4.5097261 C 28.931217,4.5717358 28.463963,4.6014541 28.009293,4.7054379 C 27.400133,4.8252107 26.81348,5.0320052 26.21163,5.1803991 C 25.957089,5.2562292 25.498402,5.4251962 25.647828,5.7719078 C 25.902807,6.063423 26.322031,6.1580983 26.609894,6.419488 C 26.891222,6.609885 26.99778,7.1068782 26.664546,7.2947891 C 26.400515,7.5244657 26.343842,7.9404792 26.557189,8.2229751 C 26.759332,8.4416135 26.735004,8.835345 27.058892,8.9558381 C 27.366169,9.0858196 27.618655,8.7673159 27.706976,8.5085139 C 27.943643,8.0162475 28.438645,7.651926 28.988255,7.6115645 C 29.552171,7.336793 30.19645,7.2235731 30.702939,6.8360743 C 31.01597,6.2769675 31.181404,5.6523833 31.437887,5.0681839"/><path id="path7019" fill="#93d442" fill-opacity="1" fill-rule="nonzero" stroke="none" stroke-miterlimit="4" stroke-width="1.008" d="M 31.732671,9.8063414 L 31.494797,9.2007255 L 31.078068,9.3355429 L 31.197823,10.074424 L 31.732671,9.8063414"/><path id="path7021" fill="#93d442" fill-opacity="1" fill-rule="nonzero" stroke="none" stroke-miterlimit="4" stroke-width="1.008" d="M 32.277912,9.6707067 C 32.238266,9.9398785 32.19862,10.20905 32.158974,10.478222 C 32.376902,10.433283 32.594831,10.388344 32.812759,10.343405 C 32.971096,10.186744 33.129433,10.030084 33.287769,9.8734236 C 33.149133,9.7388512 33.010497,9.6042789 32.871861,9.4697065 C 32.734158,9.1024614 32.569559,8.7460172 32.396848,8.3941093 C 32.278184,8.3941094 32.15952,8.3941096 32.040855,8.3941097 C 32.040855,8.5284367 32.040855,8.6627636 32.040855,8.7970905 C 32.119874,8.8867235 32.198893,8.9763565 32.277912,9.0659895 C 32.277912,9.2675893 32.277912,9.469189 32.277912,9.6707888"/><path id="path7023" fill="url(#radialGradient3183)" fill-opacity="1" fill-rule="nonzero" stroke="none" stroke-miterlimit="4" stroke-width="1.008" d="M 16.79571,16.529799 C 17.715858,15.85142 18.823356,15.453565 19.93692,15.164761 C 20.928617,14.857237 20.878981,13.351945 21.949497,13.20967 C 22.128299,12.339517 23.809216,12.692969 23.643118,11.759112 C 23.254306,11.708849 21.959678,11.818229 22.993482,11.431423 C 23.650338,11.414938 25.647487,11.029841 24.361302,10.279695 C 24.252095,9.83228 24.16285,9.0493171 23.434926,9.5413319 C 23.72886,8.5717132 22.227562,8.594011 22.306036,9.5488961 C 22.228138,10.166395 21.424799,10.638433 21.242705,10.92562 C 21.270097,10.059418 19.047113,9.7199187 20.621941,9.0109059 C 21.422783,8.9057125 22.651764,7.2399912 21.252091,7.2688601 C 20.580704,8.0315852 19.473095,8.5580779 18.825541,9.5297959 C 16.86392,11.79661 15.638138,14.672496 15.295162,17.646012"/><path id="path7025" fill="url(#radialGradient3198)" fill-opacity="1" fill-rule="nonzero" stroke="none" stroke-miterlimit="4" stroke-width="1.008" d="M 22.427233,6.9315114 C 22.365854,7.2074836 21.915479,7.7585956 22.447767,7.6752517 C 22.929089,7.7595054 22.821852,7.0906169 23.152129,6.892363 C 23.43464,6.7199997 23.74451,6.3528386 24.108856,6.5534356 C 24.529057,6.6984502 24.863621,7.0070019 25.238093,7.2365399 C 25.55214,7.6517808 25.867952,7.2160332 26.11369,6.9785959 C 26.036621,6.7418458 25.53449,6.8124733 25.424871,6.5108728 C 25.388292,5.984935 24.84064,5.9943268 24.443544,5.9649423 C 24.126654,6.0944904 24.061898,5.6747747 23.971007,5.5974504 C 23.615359,5.5941308 23.364588,5.8795841 23.24232,6.1393114 C 23.131805,5.9662557 22.922624,5.3412805 22.855388,5.8878814 C 22.934518,6.2887471 22.889667,6.7004452 22.471803,6.8936707 L 22.427233,6.9315114 L 22.427233,6.9315114 z"/><path id="path7027" fill="url(#radialGradient3168)" fill-opacity="1" fill-rule="nonzero" stroke="none" stroke-miterlimit="4" stroke-width="1.008" d="M 43.842289,16.459602 C 43.35454,17.45661 41.004402,14.685321 41.601032,16.383844 C 42.322752,17.19882 43.701296,16.901771 42.564995,18.345975 C 41.627839,19.371201 40.401864,19.902825 40.298147,18.111186 C 40.09355,16.969052 38.131362,15.007899 39.235835,17.224936 C 39.675148,18.626987 40.403008,19.919708 41.862954,19.824139 C 41.80765,21.586395 39.472083,22.889522 40.248689,24.789409 C 40.850695,26.192294 38.316561,26.523549 39.181672,27.628863 C 38.795845,28.783631 36.802136,30.98991 36.009444,29.537191 C 35.069749,27.496616 35.516381,25.376316 35.086153,23.253871 C 34.920915,21.847484 34.384694,20.451384 32.583403,21.178144 C 30.890957,22.057607 29.657593,19.177095 30.138913,17.708957 C 30.550261,15.689212 32.571325,13.427597 34.79071,14.271847 C 35.796541,15.484672 37.361048,15.054341 38.749709,14.848775 C 39.154858,14.039881 37.18169,13.729154 36.858565,13.260405 C 36.782893,15.255634 35.021832,11.137924 35.807031,13.011706 C 35.322283,14.710044 35.113857,11.481904 33.804344,12.67017 C 33.103864,13.18531 31.839625,15.088704 31.540523,13.214103 C 31.719421,11.995322 33.197284,12.561636 32.482858,11.386624 C 33.769317,11.275858 34.02314,9.0229236 35.221278,10.317474 C 35.631259,10.02379 37.510959,8.7748132 36.230051,8.7668821 C 36.55154,6.7436668 35.263567,8.9313061 35.204748,9.7191003 C 34.537889,9.0752724 33.021006,9.7201621 34.048088,8.295925 C 35.012456,6.995502 36.882108,6.3912356 38.246561,7.573568 C 36.795011,7.5569396 38.238404,8.9159031 38.810053,7.9072968 C 40.571298,8.7270914 41.577667,10.858624 42.597712,12.473186 C 43.209745,13.729297 43.634271,15.077544 43.842289,16.459602 z"/></g></g><path id="path7111" fill="url(#linearGradient8096)" fill-opacity="1" fill-rule="evenodd" stroke="url(#linearGradient8106)" stroke-linecap="butt" stroke-linejoin="miter" stroke-opacity="1" stroke-width="1" d="M 41.152158,26.165817 C 39.370828,27.675554 36.426208,28.503866 34.743058,29.155507 L 33.956568,24.063382 C 36.955538,23.309388 38.681378,22.556882 40.894348,21.205071 L 41.152158,26.165817 z"/><path id="path8098" fill="#0d1f3a" fill-opacity="1" fill-rule="evenodd" stroke="none" stroke-linecap="butt" stroke-linejoin="miter" stroke-opacity="1" stroke-width="1" d="M 40.674558,26.107852 L 36.202188,23.969306 C 37.704728,23.435366 39.197508,22.8142 40.464688,22.03561 L 40.674558,26.107852 z"/><path id="path8110" fill="url(#linearGradient8121)" fill-opacity="1" fill-rule="evenodd" stroke="url(#linearGradient13096)" stroke-linecap="butt" stroke-linejoin="miter" stroke-opacity="1" stroke-width="1" d="M 46.48541,27.455795 L 40.400494,24.716951 L 36.481519,26.036453 L 36.534521,28.654703 L 42.679319,32.44792 L 46.492969,30.816019 L 46.48541,27.455795 z"/><path id="path8135" fill="none" fill-rule="evenodd" stroke="#7b7b7b" stroke-dasharray="none" stroke-linecap="butt" stroke-linejoin="miter" stroke-miterlimit="4" stroke-opacity="1" stroke-width="3.5" d="M 44.409727,30.004694 C 46.888422,33.113112 45.957287,39.442185 42.392787,41.589286 C 37.962697,44.25778 30.965677,38.847815 22.014007,41.371135"/><path id="path7035" fill="none" fill-rule="evenodd" stroke="url(#linearGradient7095)" stroke-dasharray="none" stroke-linecap="butt" stroke-linejoin="miter" stroke-miterlimit="4" stroke-opacity="1" stroke-width="1.3" d="M 44.578612,30.089136 C 46.726574,32.768306 45.957287,39.442185 42.392787,41.589286 C 37.962697,44.25778 30.965677,38.847815 22.014007,41.371135"/><g id="g10554" display="inline" transform="translate(-301,-111)"><rect id="rect2678" width="46" height="4.188" x="297" y="90.813" fill="#2e3436" fill-opacity="1" fill-rule="nonzero" stroke="none" stroke-width="1" display="inline" enable-background="accumulate" filter="url(#filter6655)" opacity=".06" overflow="visible" rx="1.581" ry="1.439" transform="matrix(0.6650818,0,0,0.6567162,106.20507,94.630959)" visibility="visible" style="marker:none"/><path id="path2680" fill="url(#linearGradient9330)" fill-opacity="1" stroke="none" d="M 316.05693,91 L 323.83253,91 L 329.21687,95 L 310.62455,95 L 316.05693,91 L 316.05693,91 z" filter="url(#filter4768)" opacity=".526" transform="matrix(0.8943975,0,0,0.859375,32.830532,74.003369)"/><path id="path2682" fill="url(#linearGradient9332)" fill-opacity="1" stroke="url(#linearGradient9334)" stroke-dasharray="none" stroke-dashoffset=".5" stroke-linecap="round" stroke-linejoin="round" stroke-miterlimit="4" stroke-opacity="1" stroke-width="1" d="M 315.53125,147.05024 C 315.53125,147.05024 315.53125,151.97926 315.53125,151.97926 C 315.51605,153.24812 313.27344,154.0917 313.27344,154.0917 C 312.75688,154.154 312.5,154.40576 312.5,154.79585 C 312.5,155.18595 312.84776,155.49999 313.27344,155.49999 L 324.83203,155.49999 C 325.25771,155.49999 325.60547,155.18595 325.60547,154.79585 C 325.60547,154.40576 325.34859,154.15397 324.83203,154.0917 C 324.83203,154.0917 322.52691,153.24812 322.51172,151.97926 C 322.51172,151.97926 322.51172,147.05024 322.51172,147.05024 L 315.53125,147.05024 L 315.53125,147.05024 z" display="inline" enable-background="new"/><path id="path2692" fill="none" stroke="url(#radialGradient9336)" stroke-dashoffset=".5" stroke-linecap="round" stroke-linejoin="round" stroke-miterlimit="4" stroke-opacity="1" stroke-width="1" d="M 316.54297,147.78071 C 316.54297,148.83181 316.54297,151.86274 316.54297,151.86274 C 316.54297,152.72005 315.82498,154.57604 313.5957,154.56978 L 324.50977,154.56978 C 322.26242,154.56978 321.5,152.72272 321.5,151.86274 C 321.5,151.86274 321.5,148.83181 321.5,147.78071 L 316.54297,147.78071 z" display="inline" enable-background="new"/><rect id="rect2694" width="12.063" height=".956" x="313" y="154" fill="url(#linearGradient9338)" fill-opacity="1" stroke="none" display="inline" enable-background="new" rx=".478" ry=".478"/><g id="g2835"><rect id="rect2686" width="31" height="21" x="303.5" y="128.5" fill="url(#radialGradient9340)" fill-opacity="1" stroke="url(#linearGradient9342)" stroke-dasharray="none" stroke-dashoffset=".5" stroke-linecap="round" stroke-linejoin="round" stroke-miterlimit="4" stroke-opacity="1" stroke-width="1" rx=".732" ry=".744"/><rect id="rect2690" width="29" height="18.938" x="304.5" y="129.5" fill="none" stroke="url(#radialGradient9344)" stroke-dasharray="none" stroke-dashoffset=".5" stroke-linecap="round" stroke-linejoin="round" stroke-miterlimit="4" stroke-opacity="1" stroke-width="1" display="inline" enable-background="new" rx="0" ry="0"/><rect id="rect2698" width="29" height="19" x="304.5" y="129.5" fill="none" stroke="#fff" stroke-dasharray="none" stroke-dashoffset=".5" stroke-linecap="round" stroke-linejoin="round" stroke-miterlimit="4" stroke-opacity="1" stroke-width="1" display="inline" enable-background="new" opacity=".15" rx="0" ry="0"/></g><path id="path2700" fill="#888a85" fill-opacity="1" stroke="#555753" stroke-dashoffset=".5" stroke-linecap="butt" stroke-linejoin="round" stroke-miterlimit="4" stroke-opacity="1" stroke-width="1" d="M 330.50544,149.5 C 330.50544,149.5 330.50044,149.16542 330.50044,149.16542 C 330.50044,148.79679 330.93152,148.5 331.46701,148.5 C 332.0025,148.5 332.43358,148.79679 332.43358,149.16542 C 332.43358,149.16542 332.44868,149.49717 332.44868,149.49717"/><rect id="rect2688" width="27" height="15" x="305.5" y="131.5" fill="url(#radialGradient9346)" fill-opacity="1" fill-rule="evenodd" stroke="#204a87" stroke-linecap="butt" stroke-linejoin="miter" stroke-opacity="1" stroke-width="1" display="inline" enable-background="new"/><rect id="rect3470" width="26" height="14" x="306" y="132" fill="url(#linearGradient9348)" fill-opacity="1" fill-rule="evenodd" stroke="none" display="inline" enable-background="new" opacity=".15"/><path id="path2696" fill="url(#radialGradient9350)" fill-opacity="1" stroke="none" d="M 325.06033,132 L 332,132 L 332,145.70649 L 318.23272,145.70649 L 325.06033,132 z" opacity=".245"/><path id="path10735" fill="url(#radialGradient9352)" fill-opacity="1" stroke="none" d="M 317.26416,131.97868 L 322.15988,131.97868 L 316.86293,144.62487 L 314.45579,144.48278 L 317.26416,131.97868 z" display="inline" enable-background="new" opacity=".245"/></g><path id="path8108" fill="url(#linearGradient8143)" fill-opacity="1" fill-rule="evenodd" stroke="url(#linearGradient8133)" stroke-linecap="butt" stroke-linejoin="miter" stroke-opacity="1" stroke-width="1" d="M 45.882523,27.238579 L 40.66158,24.472029 L 37.525397,25.780801 L 42.667459,28.790835 L 45.882523,27.238579 z"/><rect id="rect13100" width=".671" height="2.409" x="-6.602" y="50.195" fill="#f57900" fill-opacity="1" fill-rule="nonzero" stroke="none" stroke-dasharray="none" stroke-dashoffset="0" stroke-linecap="round" stroke-linejoin="miter" stroke-miterlimit="4" stroke-opacity="1" stroke-width="3.5" opacity="1" rx=".6" ry="0" transform="matrix(0.9376924,-0.3474664,0.894154,0.4477595,0,0)"/><path id="path13098" fill="url(#linearGradient13136)" fill-opacity="1" fill-rule="evenodd" stroke="none" stroke-linecap="butt" stroke-linejoin="miter" stroke-opacity="1" stroke-width="1" d="M 40.362273,25.092322 L 39.022525,25.537772 L 42.932998,27.980408 L 44.16343,27.374914 L 40.362273,25.092322 z" opacity="1"/><rect id="rect13120" width=".689" height="2.387" x="-7.36" y="50.179" fill="#73d216" fill-opacity="1" fill-rule="nonzero" stroke="none" stroke-dasharray="none" stroke-dashoffset="0" stroke-linecap="round" stroke-linejoin="miter" stroke-miterlimit="4" stroke-opacity="1" stroke-width="3.5" opacity="1" rx="0" ry="0" transform="matrix(0.9376924,-0.3474664,0.894154,0.4477595,0,0)"/><path id="path9151" fill="url(#linearGradient13128)" fill-opacity="1" fill-rule="evenodd" stroke="none" stroke-linecap="butt" stroke-linejoin="miter" stroke-opacity="1" stroke-width="1" d="M 40.12708,24.736683 L 38.381934,25.317137 L 43.420337,27.370003 L 44.996596,26.64257 L 40.12708,24.736683 z" opacity="1"/></g></svg>