<svg xmlns="http://www.w3.org/2000/svg" xmlns:svg="http://www.w3.org/2000/svg" xmlns:xlink="http://www.w3.org/1999/xlink" id="svg7378" width="48" height="48"><defs id="defs7380"><linearGradient id="linearGradient7277"><stop id="stop7279" offset="0" stop-color="#729fcf" stop-opacity="1"/><stop id="stop7281" offset=".6" stop-color="#729fcf" stop-opacity="1"/><stop id="stop7283" offset="1" stop-color="#729fcf" stop-opacity="0"/></linearGradient><radialGradient id="radialGradient6984" cx="60.641" cy="22.656" r="2.619" fx="60.641" fy="22.656" gradientTransform="matrix(2.1454532,0,0,3.0191635,-69.461,-45.746674)" gradientUnits="userSpaceOnUse" xlink:href="#linearGradient7277"/><linearGradient id="linearGradient7269"><stop id="stop7271" offset="0" stop-color="#729fcf" stop-opacity="1"/><stop id="stop7273" offset=".6" stop-color="#729fcf" stop-opacity="1"/><stop id="stop7275" offset="1" stop-color="#729fcf" stop-opacity="0"/></linearGradient><radialGradient id="radialGradient6976" cx="70.531" cy="22.734" r="3.598" fx="70.531" fy="22.734" gradientTransform="matrix(1.8087117,0,0,3.5234273,-57.039447,-57.368542)" gradientUnits="userSpaceOnUse" xlink:href="#linearGradient7269"/><linearGradient id="linearGradient6700"><stop id="stop6702" offset="0" stop-color="#fff" stop-opacity="1"/><stop id="stop6704" offset="1" stop-color="#fff" stop-opacity="0"/></linearGradient><linearGradient id="linearGradient6706" x1="17.5" x2="28.555" y1="25.587" y2="25.699" gradientUnits="userSpaceOnUse" xlink:href="#linearGradient6700"/><linearGradient id="linearGradient6628"><stop id="stop6630" offset="0" stop-color="#000" stop-opacity="1"/><stop id="stop6632" offset="1" stop-color="#000" stop-opacity="0"/></linearGradient><linearGradient id="linearGradient6634" x1="23.238" x2="29.893" y1="12.159" y2="26.354" gradientUnits="userSpaceOnUse" xlink:href="#linearGradient6628"/><linearGradient id="linearGradient6607"><stop id="stop6609" offset="0" stop-color="#eeeeec" stop-opacity="1"/><stop id="stop6611" offset="1" stop-color="#babdb6" stop-opacity="1"/></linearGradient><radialGradient id="radialGradient6625" cx="30.685" cy="42.261" r="8.228" fx="30.685" fy="42.261" gradientTransform="matrix(3.9866298,0.1169977,0,-2.530036,-104.62697,112.74341)" gradientUnits="userSpaceOnUse" xlink:href="#linearGradient6607"/><linearGradient id="linearGradient6589"><stop id="stop6591" offset="0" stop-color="#babdb6" stop-opacity="1"/><stop id="stop6593" offset="1" stop-color="#555753" stop-opacity="1"/></linearGradient><radialGradient id="radialGradient6603" cx="20.884" cy="20.434" r="4" fx="20.884" fy="20.434" gradientTransform="matrix(1.3093938,0,0,1.5604932,-8.3888506,-9.7844831)" gradientUnits="userSpaceOnUse" xlink:href="#linearGradient6589"/><linearGradient id="linearGradient6643"><stop id="stop6645" offset="0" stop-color="#555753" stop-opacity="1"/><stop id="stop6647" offset="1" stop-color="#d3d7cf" stop-opacity="1"/></linearGradient><linearGradient id="linearGradient6801" x1="33.431" x2="33.431" y1="45.052" y2=".31" gradientUnits="userSpaceOnUse" xlink:href="#linearGradient6643"/><linearGradient id="linearGradient6667"><stop id="stop6669" offset="0" stop-color="#babdb6" stop-opacity="1"/><stop id="stop6671" offset="1" stop-color="#555753" stop-opacity="1"/></linearGradient><radialGradient id="radialGradient6595" cx="23.165" cy="30.233" r="8.189" fx="23.165" fy="30.233" gradientTransform="matrix(1.7346265,-0.1698771,0.327755,3.6175226,-27.429343,-73.69679)" gradientUnits="userSpaceOnUse" xlink:href="#linearGradient6667"/><linearGradient id="linearGradient6573"><stop id="stop6575" offset="0" stop-color="#fff" stop-opacity="1"/><stop id="stop6577" offset="1" stop-color="#fff" stop-opacity="0"/></linearGradient><linearGradient id="linearGradient6579" x1="12.198" x2="12.198" y1="9.26" y2="47.497" gradientUnits="userSpaceOnUse" xlink:href="#linearGradient6573"/><linearGradient id="linearGradient6379"><stop id="stop6381" offset="0" stop-color="#fff" stop-opacity="0"/><stop id="stop21606" offset=".5" stop-color="#fff" stop-opacity="1"/><stop id="stop6383" offset="1" stop-color="#fff" stop-opacity="0"/></linearGradient><linearGradient id="linearGradient6641" x1="20.226" x2="11.438" y1="20.334" y2="21.75" gradientTransform="matrix(0.6666667,0,0,1,1.9997867,-1.0000003)" gradientUnits="userSpaceOnUse" xlink:href="#linearGradient6379"/><linearGradient id="linearGradient6651"><stop id="stop6653" offset="0" stop-color="#fff" stop-opacity="1"/><stop id="stop6655" offset="1" stop-color="#fff" stop-opacity="0"/></linearGradient><radialGradient id="radialGradient6657" cx="23.987" cy="27.053" r="7.75" fx="23.987" fy="27.053" gradientTransform="matrix(-0.2432942,0,0,-1.2543129,25.221399,61.870636)" gradientUnits="userSpaceOnUse" xlink:href="#linearGradient6651"/><linearGradient id="linearGradient6627"><stop id="stop6629" offset="0" stop-color="#555753" stop-opacity="1"/><stop id="stop6631" offset="1" stop-color="#babdb6" stop-opacity="1"/></linearGradient><linearGradient id="linearGradient6545" x1="7.75" x2="4.643" y1="33.047" y2="12.064" gradientTransform="matrix(0.9114584,0,0,0.8787879,2.7003077,4.6666542)" gradientUnits="userSpaceOnUse" xlink:href="#linearGradient6627"/><linearGradient id="linearGradient6633"><stop id="stop6635" offset="0" stop-color="#eeeeec" stop-opacity="1"/><stop id="stop6637" offset="1" stop-color="#61635f" stop-opacity="1"/></linearGradient><radialGradient id="radialGradient6553" cx="9.32" cy="18.817" r="12.5" fx="9.32" fy="18.817" gradientTransform="matrix(0.7132478,0.5221478,-0.9280778,1.1784895,22.51693,-6.7083004)" gradientUnits="userSpaceOnUse" xlink:href="#linearGradient6633"/><linearGradient id="linearGradient6546"><stop id="stop6548" offset="0" stop-color="#555753" stop-opacity="1"/><stop id="stop6550" offset="1" stop-color="#888a85" stop-opacity="1"/></linearGradient><linearGradient id="linearGradient6558" x1="80.693" x2="77.125" y1="31.561" y2="14" gradientTransform="translate(-70.000213,1.9999997)" gradientUnits="userSpaceOnUse" xlink:href="#linearGradient6546"/><linearGradient id="linearGradient6531"><stop id="stop6533" offset="0" stop-color="#fff" stop-opacity="1"/><stop id="stop6535" offset="1" stop-color="#fff" stop-opacity="0"/></linearGradient><linearGradient id="linearGradient6537" x1="3.845" x2="3.845" y1="15.561" y2="39.884" gradientUnits="userSpaceOnUse" xlink:href="#linearGradient6531"/><linearGradient id="linearGradient5533"><stop id="stop5535" offset="0" stop-color="#555753" stop-opacity="1"/><stop id="stop5537" offset="1" stop-color="#babdb6" stop-opacity="1"/></linearGradient><linearGradient id="linearGradient5547" x1="80.063" x2="80.063" y1="14" y2="-4.009" gradientTransform="matrix(0.90625,0,0,1,-65.922088,19)" gradientUnits="userSpaceOnUse" xlink:href="#linearGradient5533"/><linearGradient id="linearGradient2793"><stop id="stop2795" offset="0" stop-color="#babdb6" stop-opacity="1"/><stop id="stop2801" offset=".253" stop-color="#eeeeec" stop-opacity="1"/><stop id="stop2797" offset="1" stop-color="#555753" stop-opacity="1"/></linearGradient><linearGradient id="linearGradient5545" x1="78.5" x2="78.5" y1="-4.007" y2="14.001" gradientTransform="matrix(0.90625,0,0,1,-65.922088,19)" gradientUnits="userSpaceOnUse" xlink:href="#linearGradient2793"/><linearGradient id="linearGradient17123"><stop id="stop17125" offset="0" stop-color="#000" stop-opacity="1"/><stop id="stop17127" offset="1" stop-color="#000" stop-opacity="0"/></linearGradient><radialGradient id="radialGradient7118" cx="11.402" cy="36.863" r="10.695" fx="11.402" fy="36.863" gradientTransform="matrix(1,0,0,0.330579,0,24.67693)" gradientUnits="userSpaceOnUse" xlink:href="#linearGradient17123"/></defs><metadata id="metadata7383"/><g id="layer1"><path id="path16236" fill="url(#radialGradient7118)" fill-opacity="1" stroke="none" stroke-dasharray="none" stroke-dashoffset="1.2" stroke-linecap="round" stroke-linejoin="round" stroke-miterlimit="4" stroke-opacity="1" stroke-width="1" d="M 22.097087,36.863068 A 10.69499,3.5355339 0 1 1 0.70710659,36.863068 A 10.69499,3.5355339 0 1 1 22.097087,36.863068 z" display="inline" opacity=".2" transform="matrix(1.5365906,0,0,2.4199734,-1.1725333,-56.384863)"/><path id="path5330" fill="#2e3436" fill-opacity="1" stroke="#555753" stroke-dasharray="none" stroke-dashoffset="0" stroke-linecap="round" stroke-linejoin="miter" stroke-miterlimit="4" stroke-opacity="1" stroke-width="1.303" d="M 8,25 A 4,7 0 1 1 0,25 A 4,7 0 1 1 8,25 z" display="inline" transform="matrix(0.75,0,0,0.7857143,1.4997867,4.3571557)"/><path id="path6659" fill="#babdb6" fill-opacity="1" stroke="none" stroke-dasharray="none" stroke-dashoffset="1.2" stroke-linecap="round" stroke-linejoin="round" stroke-miterlimit="4" stroke-opacity="1" stroke-width="1" d="M 4.5,20.75 A 0.75,0.75 0 1 1 3,20.75 A 0.75,0.75 0 1 1 4.5,20.75 z" display="inline" opacity="1" transform="translate(-1.5314633,0.6562497)"/><path id="path2766" fill="url(#linearGradient5545)" fill-opacity="1" stroke="url(#linearGradient5547)" stroke-dasharray="none" stroke-dashoffset="0" stroke-linecap="round" stroke-linejoin="miter" stroke-miterlimit="4" stroke-opacity="1" stroke-width="1" d="M 6.1247867,15.500014 C 4.1237907,15.500014 2.4997877,19.308036 2.4997867,24.000014 C 2.4997867,28.691991 4.1237907,32.500015 6.1247867,32.500014 L 9.7497869,32.500014 C 11.750783,32.500014 13.374787,28.69199 13.374787,24.000014 C 13.374787,19.308037 11.750783,15.500014 9.7497869,15.500014 L 6.1247867,15.500014 z" display="inline"/><path id="path5556" fill="none" fill-opacity="1" stroke="url(#linearGradient6537)" stroke-dasharray="none" stroke-dashoffset="0" stroke-linecap="round" stroke-linejoin="miter" stroke-miterlimit="4" stroke-opacity="1" stroke-width="1.058" d="M 5.5,14.5 C 4.974,14.5 4.2339165,15.045895 3.59375,16.40625 C 2.9535835,17.766605 2.5000005,19.78201 2.5,22 C 2.5,24.21799 2.9535834,26.233394 3.59375,27.59375 C 4.2339166,28.954106 4.9740003,29.5 5.5,29.5 L 9.5,29.5 C 10.025999,29.5 10.766083,28.954106 11.40625,27.59375 C 12.046417,26.233394 12.5,24.217988 12.5,22 C 12.5,19.782012 12.046417,17.766606 11.40625,16.40625 C 10.766083,15.045894 10.026,14.5 9.5,14.5 L 5.5,14.5 z" display="inline" opacity=".6" transform="matrix(0.89375,0,0,1,1.2654117,1.9999997)"/><path id="path6556" fill="url(#linearGradient6558)" fill-opacity="1" stroke="none" stroke-dasharray="none" stroke-dashoffset="0" stroke-linecap="round" stroke-linejoin="miter" stroke-miterlimit="4" stroke-opacity="1" stroke-width="1" d="M 9.6967119,16 C 7.6560129,16 5.9997877,19.57702 5.9997867,23.984375 C 5.9997867,28.391729 7.6560129,31.968751 9.6967119,31.96875 L 10.334112,31.96875 C 12.374811,31.96875 14.031037,28.391728 14.031037,23.984375 C 14.031037,19.577021 12.374811,16 10.334112,16 L 9.6967119,16 z" display="inline" opacity="1"/><path id="path1871" fill="url(#radialGradient6553)" fill-opacity="1" stroke="url(#linearGradient6545)" stroke-dasharray="none" stroke-dashoffset="0" stroke-linecap="round" stroke-linejoin="miter" stroke-miterlimit="4" stroke-opacity="1" stroke-width="1" d="M 8.6247879,24 C 8.6247879,33.227273 17.811762,38.499999 23.499789,38.499999 C 27.437289,38.499999 30.499789,32.003996 30.499789,24 C 30.499789,15.996003 27.437289,9.4999998 23.499789,9.4999998 C 17.811762,9.4999998 8.6247879,14.772728 8.6247879,24 z" display="inline"/><path id="path6649" fill="url(#radialGradient6657)" fill-opacity="1" stroke="none" stroke-dasharray="none" stroke-dashoffset="0" stroke-linecap="round" stroke-linejoin="miter" stroke-miterlimit="4" stroke-opacity="1" stroke-width=".878" d="M 33,27.9375 A 7.75,16.5625 0 1 1 17.5,27.9375 A 7.75,16.5625 0 1 1 33,27.9375 z" display="inline" transform="matrix(1.3225807,0,0,1.026415,-12.145375,-4.6754714)"/><path id="path6639" fill="url(#linearGradient6641)" fill-opacity="1" fill-rule="evenodd" stroke="none" stroke-linecap="butt" stroke-linejoin="miter" stroke-opacity="1" stroke-width="1" d="M 15.999787,13.375 C 13.416454,14.769678 10.541454,17.570921 7.9997869,21.5 C 10.699347,20.373913 13.491079,19.539527 15.999787,19.75 L 15.999787,13.375 z" display="inline" opacity=".734"/><path id="path6567" fill="none" fill-opacity="1" stroke="url(#linearGradient6579)" stroke-dasharray="none" stroke-dashoffset="0" stroke-linecap="round" stroke-linejoin="miter" stroke-miterlimit="4" stroke-opacity="1" stroke-width="1.127" d="M 22.8125,6.5 C 20.016701,6.5000001 16.088488,7.9333131 12.96875,10.59375 C 9.8490125,13.254187 7.5,17.073741 7.5,22 C 7.5,26.92626 9.8490125,30.745813 12.96875,33.40625 C 16.088487,36.066687 20.016701,37.5 22.8125,37.5 C 24.394999,37.5 26.045271,36.056265 27.34375,33.25 C 28.642229,30.443735 29.5,26.429214 29.5,22 C 29.5,17.570787 28.642229,13.556265 27.34375,10.75 C 26.045271,7.943735 24.394999,6.5 22.8125,6.5 z" display="inline" opacity=".586" transform="matrix(0.9034091,0,0,0.8709678,2.8492187,4.8387092)"/><path id="path1873" fill="url(#radialGradient6595)" fill-opacity="1" stroke="url(#linearGradient6801)" stroke-dasharray="none" stroke-dashoffset="0" stroke-linecap="round" stroke-linejoin="miter" stroke-miterlimit="4" stroke-opacity="1" stroke-width=".832" d="M 33,27.9375 A 7.75,16.5625 0 1 1 17.5,27.9375 A 7.75,16.5625 0 1 1 33,27.9375 z" display="inline" transform="matrix(1.2258059,0,0,1.1773585,-8.9518073,-8.8924531)"/><path id="path3672" fill="url(#radialGradient6603)" fill-opacity="1" stroke="#555753" stroke-dashoffset="0" stroke-linecap="round" stroke-linejoin="miter" stroke-miterlimit="4" stroke-opacity="1" stroke-width="1" d="M 21.615904,24.000008 C 21.615904,26.484005 19.232972,28.49999 17.549521,28.49999 C 15.866068,28.49999 14.499788,26.483992 14.499788,23.999995 C 14.499788,21.515998 15.866068,19.5 17.549521,19.5 C 19.232972,19.5 21.615904,21.51601 21.615904,24.000008 z" display="inline"/><path id="path6605" fill="url(#radialGradient6625)" fill-opacity="1" stroke="none" stroke-dasharray="none" stroke-dashoffset="0" stroke-linecap="round" stroke-linejoin="miter" stroke-miterlimit="4" stroke-opacity="1" stroke-width=".903" d="M 21.999787,4.9999997 C 19.367339,4.9999996 17.141759,7.2498261 15.562287,10.6875 C 13.982815,14.125173 13.031037,18.830125 13.031037,24 C 13.031037,29.169874 13.982815,33.874826 15.562287,37.3125 C 17.141759,40.750172 19.367339,43 21.999787,43 C 24.632236,43 26.857815,40.750173 28.437287,37.3125 C 29.424457,35.163953 30.174398,32.501281 30.593537,29.5625 C 30.606754,29.469828 30.612218,29.374514 30.624787,29.28125 C 30.701192,28.714302 30.760518,28.149758 30.812287,27.5625 C 30.863159,27.016086 30.909928,26.469464 30.937287,25.90625 C 30.938725,25.875286 30.935918,25.843507 30.937287,25.8125 C 30.964756,25.216652 30.968537,24.611754 30.968537,24 C 30.968537,23.355639 30.967727,22.720382 30.937287,22.09375 C 30.911436,21.537127 30.860025,20.979033 30.812287,20.4375 C 30.760518,19.850242 30.701192,19.285698 30.624787,18.71875 C 30.61129,18.623565 30.607748,18.532009 30.593537,18.4375 C 30.174398,15.498719 29.424457,12.836046 28.437287,10.6875 C 26.857815,7.2498257 24.632236,4.9999997 21.999787,4.9999997 z M 22.499787,6.9999997 C 24.422061,6.9999999 26.280155,8.7656494 27.687287,11.84375 C 28.566744,13.767562 29.264166,16.179117 29.656037,18.875 C 29.734411,19.414177 29.789632,19.97021 29.843537,20.53125 C 29.890997,21.056658 29.942621,21.584653 29.968537,22.125 C 30.000413,22.745494 30.031037,23.361156 30.031037,24 C 30.031037,24.595745 29.996317,25.170104 29.968537,25.75 C 29.966703,25.790974 29.970498,25.834105 29.968537,25.875 C 29.940962,26.411772 29.893542,26.948299 29.843537,27.46875 C 29.789632,28.029789 29.734411,28.585823 29.656037,29.125 C 29.264166,31.820883 28.566744,34.232438 27.687287,36.15625 C 26.280155,39.23435 24.422061,41 22.499787,41 C 20.577514,40.999998 18.719419,39.234351 17.312287,36.15625 C 15.905154,33.078149 14.968537,28.765963 14.968537,24 C 14.968537,19.234036 15.905155,14.92185 17.312287,11.84375 C 18.719418,8.7656493 20.577514,6.9999997 22.499787,6.9999997 z" display="inline" opacity="1"/><path id="path6615" fill="none" fill-opacity="1" stroke="url(#linearGradient6634)" stroke-dasharray="none" stroke-dashoffset="0" stroke-linecap="round" stroke-linejoin="miter" stroke-miterlimit="4" stroke-opacity="1" stroke-width="1.054" d="M 33,27.9375 A 7.75,16.5625 0 1 1 17.5,27.9375 A 7.75,16.5625 0 1 1 33,27.9375 z" display="inline" opacity=".366" transform="matrix(0.9032258,0,0,0.9962264,-0.3066663,-3.8320752)"/><path id="path6661" fill="#fff" fill-opacity="1" stroke="none" stroke-dasharray="none" stroke-dashoffset="1.2" stroke-linecap="round" stroke-linejoin="round" stroke-miterlimit="4" stroke-opacity="1" stroke-width="1" d="M 21.5,13.5 A 1,1 0 1 1 19.5,13.5 A 1,1 0 1 1 21.5,13.5 z" display="inline" opacity="1" transform="translate(-16.000213,5.3124997)"/><path id="path6698" fill="none" fill-opacity="1" stroke="url(#linearGradient6706)" stroke-dasharray="none" stroke-dashoffset="0" stroke-linecap="round" stroke-linejoin="miter" stroke-miterlimit="4" stroke-opacity="1" stroke-width=".903" d="M 33,27.9375 A 7.75,16.5625 0 1 1 17.5,27.9375 A 7.75,16.5625 0 1 1 33,27.9375 z" display="inline" opacity=".655" transform="matrix(1.0967748,0,0,1.1169811,-5.6937722,-7.2056605)"/><path id="path5501" fill="#fff" fill-opacity="1" stroke="none" stroke-dasharray="none" stroke-dashoffset="1.2" stroke-linecap="round" stroke-linejoin="round" stroke-miterlimit="4" stroke-opacity="1" stroke-width="1" d="M 21.5,13.5 A 1,1 0 1 1 19.5,13.5 A 1,1 0 1 1 21.5,13.5 z" display="inline" opacity="1" transform="translate(-5.000213,-1.8750003)"/><g id="g27916" stroke="#729fcf" stroke-dasharray="none" stroke-miterlimit="4" stroke-width="1" display="inline" transform="matrix(0.5164697,0,0,1.2242975,3.5432387,-4.2214557)"><path id="path21632" fill="none" fill-opacity="1" stroke="url(#radialGradient6976)" stroke-dasharray="none" stroke-dashoffset="1.2" stroke-linecap="round" stroke-linejoin="round" stroke-miterlimit="4" stroke-opacity="1" stroke-width="1.258" d="M 67.5625,34.78125 C 71.176369,31.899733 73.499999,27.47788 73.5,22.5 C 73.5,17.793936 71.43603,13.569699 68.15625,10.6875" display="inline" opacity="1"/></g><g id="g28807" stroke="#729fcf" stroke-dasharray="none" stroke-miterlimit="4" stroke-width="1" display="inline" transform="matrix(0.3535062,0,0,1.2242975,13.435464,-3.8006057)"><path id="path27920" fill="none" fill-opacity="1" stroke="url(#radialGradient6984)" stroke-dasharray="none" stroke-dashoffset="1.2" stroke-linecap="round" stroke-linejoin="round" stroke-miterlimit="4" stroke-opacity="1" stroke-width="1.52" d="M 58.78125,30.15625 C 61.050824,28.375887 62.5,25.606103 62.5,22.5 C 62.5,19.560794 61.188424,16.939552 59.125,15.15625" display="inline" opacity="1"/></g></g></svg>