<svg xmlns="http://www.w3.org/2000/svg" xmlns:svg="http://www.w3.org/2000/svg" xmlns:xlink="http://www.w3.org/1999/xlink" id="svg7758" width="22" height="22" version="1.0"><defs id="defs7760"><linearGradient id="linearGradient4788-7"><stop id="stop4790-8" offset="0" stop-color="#fff" stop-opacity="1"/><stop id="stop4792-6" offset="1" stop-color="#fff" stop-opacity="0"/></linearGradient><radialGradient id="radialGradient10620" cx="326.021" cy="58" r="12.5" fx="326.021" fy="58" gradientTransform="matrix(-0.8608208,3.7825356e-7,4.195139e-2,-0.6133953,586.48445,215.55548)" gradientUnits="userSpaceOnUse" xlink:href="#linearGradient4788-7"/><linearGradient id="linearGradient4788"><stop id="stop4790" offset="0" stop-color="#fff" stop-opacity="1"/><stop id="stop4792" offset="1" stop-color="#fff" stop-opacity="0"/></linearGradient><radialGradient id="radialGradient10623" cx="327.5" cy="58" r="12.5" fx="327.5" fy="58" gradientTransform="matrix(2.9199174,2.560001e-8,0,0.6338204,-639.95678,143.23841)" gradientUnits="userSpaceOnUse" xlink:href="#linearGradient4788"/><linearGradient id="linearGradient5687"><stop id="stop5689" offset="0" stop-color="#fff" stop-opacity="1"/><stop id="stop5691" offset="1" stop-color="#fff" stop-opacity="0"/></linearGradient><linearGradient id="linearGradient10630" x1="88" x2="178" y1="44.5" y2="202.5" gradientTransform="matrix(7.692331e-2,0,0,7.258063e-2,302.61531,174.77419)" gradientUnits="userSpaceOnUse" xlink:href="#linearGradient5687"/><linearGradient id="linearGradient2711"><stop id="stop2713" offset="0" stop-color="#729fcf" stop-opacity="1"/><stop id="stop2715" offset="1" stop-color="#204a87" stop-opacity="1"/></linearGradient><radialGradient id="radialGradient10633" cx="24.006" cy="37.922" r="19" fx="24.006" fy="37.922" gradientTransform="matrix(1.1011252,0,0,0.4728361,287.58732,172.07816)" gradientUnits="userSpaceOnUse" xlink:href="#linearGradient2711"/><linearGradient id="linearGradient5538"><stop id="stop5540" offset="0" stop-color="#555753" stop-opacity="1"/><stop id="stop5542" offset="1" stop-color="#babdb6" stop-opacity="1"/></linearGradient><linearGradient id="linearGradient10596" x1="315.04" x2="291.661" y1="89.237" y2="45.184" gradientTransform="matrix(0.4667846,0,0,0.4669448,164.62624,152.04321)" gradientUnits="userSpaceOnUse" xlink:href="#linearGradient5538"/><linearGradient id="linearGradient4654"><stop id="stop4656" offset="0" stop-color="#eeeeec" stop-opacity="1"/><stop id="stop4658" offset="1" stop-color="#babdb6" stop-opacity="1"/></linearGradient><radialGradient id="radialGradient10594" cx="314.31" cy="61.655" r="23" fx="314.31" fy="61.655" gradientTransform="matrix(0.525761,1.962839,-0.5015999,0.1344494,175.37799,-445.23546)" gradientUnits="userSpaceOnUse" xlink:href="#linearGradient4654"/><linearGradient id="linearGradient3380"><stop id="stop3382" offset="0" stop-color="#555753" stop-opacity="1"/><stop id="stop3410" offset=".479" stop-color="#babdb6" stop-opacity="1"/><stop id="stop3412" offset=".769" stop-color="#888a85" stop-opacity="1"/><stop id="stop3384" offset="1" stop-color="#555753" stop-opacity="1"/></linearGradient><linearGradient id="linearGradient10609" x1="336.563" x2="336.563" y1="192.875" y2="196.993" gradientTransform="translate(-20,-1)" gradientUnits="userSpaceOnUse" xlink:href="#linearGradient3380"/><linearGradient id="linearGradient4693"><stop id="stop4695" offset="0" stop-color="#555753" stop-opacity="1"/><stop id="stop4701" offset=".301" stop-color="#babdb6" stop-opacity="1"/><stop id="stop3408" offset=".48" stop-color="#eeeeec" stop-opacity="1"/><stop id="stop4699" offset=".643" stop-color="#fff" stop-opacity="1"/><stop id="stop4697" offset="1" stop-color="#555753" stop-opacity="1"/></linearGradient><linearGradient id="linearGradient10607" x1="333.563" x2="333.563" y1="192.913" y2="196.265" gradientTransform="translate(-20,-1)" gradientUnits="userSpaceOnUse" xlink:href="#linearGradient4693"/><filter id="filter6655" width="1.122" height="2.339" x="-.061" y="-.669"><feGaussianBlur id="feGaussianBlur6657" stdDeviation="1.168"/></filter><filter id="filter4768" width="1.228" height="2.135" x="-.114" y="-.568"><feGaussianBlur id="feGaussianBlur4770" stdDeviation=".946"/></filter><linearGradient id="linearGradient4772"><stop id="stop4774" offset="0" stop-color="#000" stop-opacity="1"/><stop id="stop4776" offset="1" stop-color="#000" stop-opacity="0"/></linearGradient><linearGradient id="linearGradient10611" x1="327.92" x2="327.92" y1="93.75" y2="88.849" gradientUnits="userSpaceOnUse" xlink:href="#linearGradient4772"/></defs><metadata id="metadata7763"/><g id="layer1"><g id="g10635" display="inline" transform="translate(-302.99969,-175.99999)"><path id="path3416" fill="url(#linearGradient10611)" fill-opacity="1" stroke="none" d="M 316.05693,91 L 323.83253,91 L 329.21687,95 L 310.62455,95 L 316.05693,91 L 316.05693,91 z" display="inline" enable-background="new" filter="url(#filter4768)" opacity=".526" transform="matrix(0.666447,0,0,0.741913,100.76278,126.5244)"/><rect id="rect3414" width="46" height="4.188" x="297" y="90.813" fill="#2e3436" fill-opacity="1" fill-rule="nonzero" stroke="none" stroke-width="1" display="inline" enable-background="accumulate" filter="url(#filter6655)" opacity=".06" overflow="visible" rx="1.581" ry="1.439" transform="matrix(0.4293482,0,0,0.4328354,176.60856,156.63063)" visibility="visible" style="marker:none"/><path id="path3576" fill="url(#linearGradient10607)" fill-opacity="1" stroke="url(#linearGradient10609)" stroke-dashoffset="0" stroke-linecap="square" stroke-linejoin="round" stroke-miterlimit="4" stroke-opacity="1" stroke-width="1" d="M 311.90625,189.5 C 311.65546,189.5876 311.49085,189.82824 311.5,190.09375 L 311.5,193.90625 C 311.49973,193.91665 311.49973,193.92705 311.5,193.93755 L 310.34375,194.6563 C 310.11972,194.76524 309.9231,194.832 309.75,195 C 309.7167,195.0323 309.63787,195.0953 309.5625,195.25 C 309.4871,195.40465 309.5,195.55668 309.5,195.65625 C 309.5,195.65625 309.5,196.53125 309.5,196.53125 L 318.5,196.53125 C 318.5,196.53125 318.5,195.65625 318.5,195.65625 C 318.5,195.55665 318.5129,195.40465 318.4375,195.25 C 318.3621,195.09535 318.28328,195.0323 318.25,195 C 318.0769,194.832 317.88028,194.76524 317.65625,194.65625 L 316.5,193.9375 L 316.5,190.09375 C 316.493,189.76875 316.23125,189.50693 315.90625,189.5 L 312.09375,189.5 C 312.03165,189.49 311.96837,189.49 311.90625,189.5 L 311.90625,189.5 z"/><path id="path3559" fill="none" stroke="#fff" stroke-dasharray="none" stroke-dashoffset="0" stroke-linecap="square" stroke-linejoin="round" stroke-miterlimit="4" stroke-opacity="1" stroke-width="1" d="M 312.5625,191.5625 L 312.5625,194.9375 C 312.56834,195.348 312.33719,195.72515 311.96875,195.90625 L 310.8125,196.46875 L 317.1875,196.46875 L 316.03125,195.90625 C 315.66281,195.72515 315.43166,195.348 315.4375,194.9375 L 315.4375,191.5625 L 312.5625,191.5625 z" display="inline" enable-background="new" opacity=".196" transform="translate(0,-1)"/><rect id="rect3428" width="8" height="1" x="310" y="195" fill="#eeeeec" fill-opacity="1" stroke="none" display="inline" enable-background="new" rx=".5" ry=".5"/><path id="path3759" fill="#f9f9f9" fill-opacity="1" stroke="none" d="M 311.08279,195.50287 A 0.50823301,0.55242717 0 1 1 310.06632,195.50287 A 0.50823301,0.55242717 0 1 1 311.08279,195.50287 z" transform="matrix(1.2446752,0,0,1.1450853,-76.064424,-28.367455)"/><path id="path3761" fill="#f9f9f9" fill-opacity="1" stroke="none" d="M 311.08279,195.50287 A 0.50823301,0.55242717 0 1 1 310.06632,195.50287 A 0.50823301,0.55242717 0 1 1 311.08279,195.50287 z" display="inline" enable-background="new" transform="matrix(1.2446752,0,0,1.1450853,-69.064424,-28.367455)"/><rect id="rect3420" width="21.005" height="14" x="303.495" y="177.5" fill="url(#radialGradient10594)" fill-opacity="1" stroke="url(#linearGradient10596)" stroke-dasharray="none" stroke-dashoffset=".5" stroke-linecap="round" stroke-linejoin="round" stroke-miterlimit="4" stroke-opacity="1" stroke-width="1" display="inline" enable-background="new" rx=".496" ry=".496"/><rect id="rect3432" width="19" height="12" x="304.5" y="178.5" fill="none" stroke="#fff" stroke-dasharray="none" stroke-dashoffset=".5" stroke-linecap="round" stroke-linejoin="round" stroke-miterlimit="4" stroke-opacity="1" stroke-width="1" display="inline" enable-background="new" opacity=".15" rx="0" ry="0"/><rect id="rect3422" width="17.042" height="10" x="305.5" y="179.5" fill="url(#radialGradient10633)" fill-opacity="1" fill-rule="evenodd" stroke="#204a87" stroke-linecap="butt" stroke-linejoin="miter" stroke-opacity="1" stroke-width="1" display="inline" enable-background="new"/><rect id="rect3474" width="16" height="9" x="306" y="180" fill="url(#linearGradient10630)" fill-opacity="1" fill-rule="evenodd" stroke="none" display="inline" enable-background="new" opacity=".15"/><path id="path3430" fill="url(#radialGradient10623)" fill-opacity="1" stroke="none" d="M 317.45292,180 L 322,180 L 322,190 L 311.99643,190 L 317.45292,180 L 317.45292,180 z" display="inline" enable-background="new" opacity=".356"/><path id="path10739" fill="url(#radialGradient10620)" fill-opacity="1" stroke="none" d="M 311.76717,179.97868 L 314.59738,179.97868 L 311.4688,187.28942 L 310.07798,187.20732 L 311.76717,179.97872 L 311.76717,179.97868 z" display="inline" enable-background="new" opacity=".389"/></g></g></svg>