<svg xmlns="http://www.w3.org/2000/svg" xmlns:svg="http://www.w3.org/2000/svg" xmlns:xlink="http://www.w3.org/1999/xlink" id="svg7640" width="32" height="32"><defs id="defs7642"><linearGradient id="linearGradient10457" x1="319.5" x2="319.5" y1="150.005" y2="146.204" gradientUnits="userSpaceOnUse" xlink:href="#linearGradient6481"/><linearGradient id="linearGradient10455" x1="319.5" x2="319.5" y1="150.005" y2="146.204" gradientUnits="userSpaceOnUse" xlink:href="#linearGradient6481"/><linearGradient id="linearGradient10453" x1="319.5" x2="319.5" y1="150.005" y2="146.204" gradientUnits="userSpaceOnUse" xlink:href="#linearGradient6481"/><linearGradient id="linearGradient10451" x1="319.5" x2="319.5" y1="150.005" y2="146.204" gradientUnits="userSpaceOnUse" xlink:href="#linearGradient6481"/><linearGradient id="linearGradient10449" x1="319.5" x2="319.5" y1="150.005" y2="146.204" gradientUnits="userSpaceOnUse" xlink:href="#linearGradient6481"/><linearGradient id="linearGradient10447" x1="319.5" x2="319.5" y1="150.005" y2="146.204" gradientUnits="userSpaceOnUse" xlink:href="#linearGradient6481"/><linearGradient id="linearGradient10445" x1="319.5" x2="319.5" y1="150.005" y2="146.204" gradientUnits="userSpaceOnUse" xlink:href="#linearGradient6481"/><linearGradient id="linearGradient10443" x1="319.5" x2="319.5" y1="150.005" y2="146.204" gradientUnits="userSpaceOnUse" xlink:href="#linearGradient6481"/><linearGradient id="linearGradient10441" x1="319.5" x2="319.5" y1="150.005" y2="146.204" gradientUnits="userSpaceOnUse" xlink:href="#linearGradient6481"/><linearGradient id="linearGradient10439" x1="319.5" x2="319.5" y1="150.005" y2="146.204" gradientUnits="userSpaceOnUse" xlink:href="#linearGradient6481"/><linearGradient id="linearGradient10437" x1="319.5" x2="319.5" y1="150.005" y2="146.204" gradientUnits="userSpaceOnUse" xlink:href="#linearGradient6481"/><linearGradient id="linearGradient10435" x1="319.5" x2="319.5" y1="150.005" y2="146.204" gradientUnits="userSpaceOnUse" xlink:href="#linearGradient6481"/><linearGradient id="linearGradient10433" x1="319.5" x2="319.5" y1="150.005" y2="146.204" gradientUnits="userSpaceOnUse" xlink:href="#linearGradient6481"/><linearGradient id="linearGradient10431" x1="319.5" x2="319.5" y1="150.005" y2="146.204" gradientUnits="userSpaceOnUse" xlink:href="#linearGradient6481"/><linearGradient id="linearGradient10429" x1="319.5" x2="319.5" y1="150.005" y2="146.204" gradientUnits="userSpaceOnUse" xlink:href="#linearGradient6481"/><linearGradient id="linearGradient10427" x1="319.5" x2="319.5" y1="150.005" y2="146.204" gradientUnits="userSpaceOnUse" xlink:href="#linearGradient6481"/><linearGradient id="linearGradient10425" x1="319.5" x2="319.5" y1="150.005" y2="146.204" gradientUnits="userSpaceOnUse" xlink:href="#linearGradient6481"/><linearGradient id="linearGradient10423" x1="319.5" x2="319.5" y1="150.005" y2="146.204" gradientUnits="userSpaceOnUse" xlink:href="#linearGradient6481"/><linearGradient id="linearGradient10421" x1="319.5" x2="319.5" y1="150.005" y2="146.204" gradientUnits="userSpaceOnUse" xlink:href="#linearGradient6481"/><linearGradient id="linearGradient10419" x1="319.5" x2="319.5" y1="150.005" y2="146.204" gradientUnits="userSpaceOnUse" xlink:href="#linearGradient6481"/><linearGradient id="linearGradient10417" x1="319.5" x2="319.5" y1="150.005" y2="146.204" gradientUnits="userSpaceOnUse" xlink:href="#linearGradient6481"/><linearGradient id="linearGradient10415" x1="319.5" x2="319.5" y1="150.005" y2="146.204" gradientUnits="userSpaceOnUse" xlink:href="#linearGradient6481"/><linearGradient id="linearGradient10413" x1="319.5" x2="319.5" y1="150.005" y2="146.204" gradientUnits="userSpaceOnUse" xlink:href="#linearGradient6481"/><linearGradient id="linearGradient10411" x1="319.5" x2="319.5" y1="150.005" y2="146.204" gradientUnits="userSpaceOnUse" xlink:href="#linearGradient6481"/><linearGradient id="linearGradient10409" x1="319.5" x2="319.5" y1="150.005" y2="146.204" gradientUnits="userSpaceOnUse" xlink:href="#linearGradient6481"/><linearGradient id="linearGradient10407" x1="319.5" x2="319.5" y1="150.005" y2="146.204" gradientUnits="userSpaceOnUse" xlink:href="#linearGradient6481"/><linearGradient id="linearGradient10405" x1="319.5" x2="319.5" y1="150.005" y2="146.204" gradientUnits="userSpaceOnUse" xlink:href="#linearGradient6481"/><linearGradient id="linearGradient10403" x1="319.5" x2="319.5" y1="150.005" y2="146.204" gradientUnits="userSpaceOnUse" xlink:href="#linearGradient6481"/><linearGradient id="linearGradient6481"><stop id="stop6483" offset="0" stop-color="#babdb6" stop-opacity="1"/><stop id="stop6485" offset="1" stop-color="#babdb6" stop-opacity="0"/></linearGradient><linearGradient id="linearGradient10459" x1="319.5" x2="319.5" y1="150.005" y2="146.204" gradientUnits="userSpaceOnUse" xlink:href="#linearGradient6481"/><linearGradient id="linearGradient4574"><stop id="stop4576" offset="0" stop-color="#2e3436" stop-opacity="1"/><stop id="stop4578" offset="1" stop-color="#888a85" stop-opacity="1"/></linearGradient><linearGradient id="linearGradient10401" x1="316.183" x2="316.183" y1="83.225" y2="90.82" gradientTransform="matrix(0.5967076,0,0,0.6000005,178.03457,99.799948)" gradientUnits="userSpaceOnUse" xlink:href="#linearGradient4574"/><linearGradient id="linearGradient3833"><stop id="stop3835" offset="0" stop-color="#fff" stop-opacity="1"/><stop id="stop3837" offset="1" stop-color="#fff" stop-opacity="0"/></linearGradient><linearGradient id="linearGradient10399" x1="178.917" x2="178.917" y1="409.985" y2="371.447" gradientUnits="userSpaceOnUse" xlink:href="#linearGradient3833"/><linearGradient id="linearGradient10397" x1="147.5" x2="145.437" y1="353.404" y2="404.662" gradientUnits="userSpaceOnUse" xlink:href="#linearGradient2740"/><filter id="filter3523" width="1.012" height="1.733" x="-.006" y="-.366"><feGaussianBlur id="feGaussianBlur3525" stdDeviation=".572"/></filter><linearGradient id="linearGradient2748"><stop id="stop2750" offset="0" stop-color="#eeeeec" stop-opacity="1"/><stop id="stop2752" offset="1" stop-color="#babdb6" stop-opacity="1"/></linearGradient><radialGradient id="radialGradient10395" cx="139.852" cy="260.935" r="112.594" fx="139.852" fy="260.935" gradientTransform="matrix(-0.9950172,-1.7234204,1.1254929,-0.6498033,7.41235,817.82855)" gradientUnits="userSpaceOnUse" xlink:href="#linearGradient2748"/><clipPath id="clipPath3519" clipPathUnits="userSpaceOnUse"><path id="path3521" fill="#000" fill-opacity="1" stroke="none" stroke-dashoffset=".361" stroke-linecap="square" stroke-linejoin="miter" stroke-miterlimit="4" stroke-opacity="1" stroke-width="1" d="M 49.053018,377.91849 C 48.342312,377.99122 47.713462,378.41045 47.372978,379.03851 L 33.092643,405.42136 C 32.920748,405.74568 32.837999,406.09423 32.843749,406.44805 C 32.843921,406.45862 32.843421,406.46859 32.843749,406.47916 L 32.843749,409.46589 L 32.843749,409.77701 L 32.905972,409.77701 C 32.951307,410.03663 33.015025,410.28987 33.154867,410.5237 C 33.54293,411.17259 34.234402,411.57735 34.990466,411.5815 L 255.85342,411.5815 C 256.61879,411.58325 257.33012,411.18224 257.72013,410.5237 C 257.85756,410.29166 257.92585,410.03519 257.96903,409.77701 C 258.01775,409.48565 258.03125,408.90588 258.03125,408.90588 L 258.03125,406.82139 C 258.03125,406.32941 257.99578,405.83393 257.75124,405.39024 L 242.9109,379.0074 C 242.52232,378.32737 241.79626,377.91078 241.01307,377.91849 L 49.270801,377.91849 C 49.198253,377.91482 49.125565,377.91482 49.053018,377.91849 z" display="inline" enable-background="new"/></clipPath><linearGradient id="linearGradient4538"><stop id="stop4540" offset="0" stop-color="#555753" stop-opacity="1"/><stop id="stop4542" offset="1" stop-color="#888a85" stop-opacity="1"/></linearGradient><linearGradient id="linearGradient10393" x1="110.532" x2="110.532" y1="416.369" y2="360.967" gradientUnits="userSpaceOnUse" xlink:href="#linearGradient4538"/><linearGradient id="linearGradient2740"><stop id="stop2742" offset="0" stop-color="#888a85" stop-opacity="1"/><stop id="stop2744" offset="1" stop-color="#888a85" stop-opacity="0"/></linearGradient><linearGradient id="linearGradient10391" x1="147.5" x2="145.437" y1="353.404" y2="404.662" gradientUnits="userSpaceOnUse" xlink:href="#linearGradient2740"/><linearGradient id="linearGradient4788-7"><stop id="stop4790-8" offset="0" stop-color="#fff" stop-opacity="1"/><stop id="stop4792-6" offset="1" stop-color="#fff" stop-opacity="0"/></linearGradient><radialGradient id="radialGradient2824" cx="326.021" cy="58" r="12.5" fx="326.021" fy="58" gradientTransform="matrix(-1.4890564,6.543068e-7,6.292703e-2,-1.0610574,793.03204,193.51979)" gradientUnits="userSpaceOnUse" xlink:href="#linearGradient4788-7"/><linearGradient id="linearGradient4788"><stop id="stop4790" offset="0" stop-color="#fff" stop-opacity="1"/><stop id="stop4792" offset="1" stop-color="#fff" stop-opacity="0"/></linearGradient><radialGradient id="radialGradient2822" cx="327.5" cy="58" r="12.5" fx="327.5" fy="58" gradientTransform="matrix(3.653637,3.5088616e-8,0,0.8687451,-871.67825,81.612783)" gradientUnits="userSpaceOnUse" xlink:href="#linearGradient4788"/><linearGradient id="linearGradient5687"><stop id="stop5689" offset="0" stop-color="#fff" stop-opacity="1"/><stop id="stop5691" offset="1" stop-color="#fff" stop-opacity="0"/></linearGradient><linearGradient id="linearGradient2820" x1="88" x2="178" y1="44.5" y2="202.5" gradientTransform="matrix(0.1250002,0,0,0.1048387,300.49993,124.45161)" gradientUnits="userSpaceOnUse" xlink:href="#linearGradient5687"/><linearGradient id="linearGradient2705"><stop id="stop2707" offset="0" stop-color="#729fcf" stop-opacity="1"/><stop id="stop2709" offset="1" stop-color="#204a87" stop-opacity="1"/></linearGradient><radialGradient id="radialGradient2818" cx="24.006" cy="37.922" r="19" fx="24.006" fy="37.922" gradientTransform="matrix(1.7493055,0,0,0.6637784,277.00609,121.04087)" gradientUnits="userSpaceOnUse" xlink:href="#linearGradient2705"/><linearGradient id="linearGradient4646"><stop id="stop4648" offset="0" stop-color="#fff" stop-opacity="1"/><stop id="stop4650" offset="1" stop-color="#fff" stop-opacity=".1"/></linearGradient><radialGradient id="radialGradient10080" cx="314.369" cy="75.284" r="22" fx="314.369" fy="75.284" gradientTransform="matrix(-2.0839328,-0.7169098,0.1444031,-0.4216123,965.51798,393.21598)" gradientUnits="userSpaceOnUse" xlink:href="#linearGradient4646"/><linearGradient id="linearGradient5538"><stop id="stop5540" offset="0" stop-color="#555753" stop-opacity="1"/><stop id="stop5542" offset="1" stop-color="#babdb6" stop-opacity="1"/></linearGradient><linearGradient id="linearGradient10078" x1="333.25" x2="293" y1="97" y2="54.018" gradientTransform="matrix(0.6888889,0,0,0.7004163,98.555556,90.314823)" gradientUnits="userSpaceOnUse" xlink:href="#linearGradient5538"/><linearGradient id="linearGradient4654"><stop id="stop4656" offset="0" stop-color="#eeeeec" stop-opacity="1"/><stop id="stop4658" offset="1" stop-color="#babdb6" stop-opacity="1"/></linearGradient><radialGradient id="radialGradient10076" cx="314.31" cy="61.655" r="23" fx="314.31" fy="61.655" gradientTransform="matrix(0.7759273,2.944255,-0.74027,0.2016738,114.42318,-805.60206)" gradientUnits="userSpaceOnUse" xlink:href="#linearGradient4654"/><linearGradient id="linearGradient2715"><stop id="stop2717" offset="0" stop-color="#fff" stop-opacity="1"/><stop id="stop2719" offset=".162" stop-color="#d3d7cf" stop-opacity="1"/><stop id="stop2721" offset=".856" stop-color="#d3d7cf" stop-opacity="1"/><stop id="stop2723" offset="1" stop-color="#fff" stop-opacity="1"/></linearGradient><linearGradient id="linearGradient10088" x1="311.625" x2="328.25" y1="93.5" y2="93.5" gradientTransform="matrix(0.6701389,0,0,0.9564971,104.58681,65.045763)" gradientUnits="userSpaceOnUse" xlink:href="#linearGradient2715"/><linearGradient id="linearGradient4713"><stop id="stop4715" offset="0" stop-color="#fff" stop-opacity="1"/><stop id="stop4717" offset="1" stop-color="#fff" stop-opacity="0"/></linearGradient><radialGradient id="radialGradient10086" cx="320.031" cy="91.506" r="8.438" fx="320.031" fy="91.506" gradientTransform="matrix(1.2735147,1.1189841e-8,0,0.1578689,-88.511772,138.06124)" gradientUnits="userSpaceOnUse" xlink:href="#linearGradient4713"/><linearGradient id="linearGradient2712"><stop id="stop2714" offset="0" stop-color="#555753" stop-opacity="1"/><stop id="stop2716" offset=".52" stop-color="#babdb6" stop-opacity="1"/><stop id="stop2718" offset=".817" stop-color="#888a85" stop-opacity="1"/><stop id="stop2720" offset="1" stop-color="#555753" stop-opacity="1"/></linearGradient><linearGradient id="linearGradient10084" x1="325.813" x2="325.813" y1="86.909" y2="93.876" gradientTransform="matrix(0.6875,0,0,0.7041466,99.03125,88.958141)" gradientUnits="userSpaceOnUse" xlink:href="#linearGradient2712"/><linearGradient id="linearGradient4693"><stop id="stop4695" offset="0" stop-color="#555753" stop-opacity="1"/><stop id="stop4701" offset=".301" stop-color="#babdb6" stop-opacity="1"/><stop id="stop3408" offset=".48" stop-color="#eeeeec" stop-opacity="1"/><stop id="stop4699" offset=".643" stop-color="#fff" stop-opacity="1"/><stop id="stop4697" offset="1" stop-color="#555753" stop-opacity="1"/></linearGradient><linearGradient id="linearGradient10082" x1="320.281" x2="320.281" y1="86.743" y2="93.069" gradientTransform="matrix(0.6875,0,0,0.7041466,99.03125,88.958141)" gradientUnits="userSpaceOnUse" xlink:href="#linearGradient4693"/><filter id="filter4768" width="1.228" height="2.135" x="-.114" y="-.568"><feGaussianBlur id="feGaussianBlur4770" stdDeviation=".946"/></filter><linearGradient id="linearGradient4772"><stop id="stop4774" offset="0" stop-color="#000" stop-opacity="1"/><stop id="stop4776" offset="1" stop-color="#000" stop-opacity="0"/></linearGradient><linearGradient id="linearGradient10094" x1="327.92" x2="327.92" y1="93.75" y2="88.849" gradientUnits="userSpaceOnUse" xlink:href="#linearGradient4772"/><filter id="filter6655" width="1.122" height="2.339" x="-.061" y="-.669"><feGaussianBlur id="feGaussianBlur6657" stdDeviation="1.168"/></filter><linearGradient id="linearGradient3847"><stop id="stop3849" offset="0" stop-color="#babdb6" stop-opacity="1"/><stop id="stop3851" offset="1" stop-color="#babdb6" stop-opacity="0"/></linearGradient><linearGradient id="linearGradient10264" x1="328.628" x2="327.479" y1="74.433" y2="67.362" gradientTransform="matrix(0.6443737,0,0,0.9724074,-189.2533,-48.71767)" gradientUnits="userSpaceOnUse" xlink:href="#linearGradient3847"/></defs><metadata id="metadata7645"/><g id="layer1"><path id="path4941" fill="none" fill-opacity="1" fill-rule="evenodd" stroke="url(#linearGradient10264)" stroke-dasharray="none" stroke-linecap="butt" stroke-linejoin="miter" stroke-miterlimit="4" stroke-opacity="1" stroke-width="1" d="M 26.563859,30.500008 C 26.563859,30.500008 24.446559,27.743408 24.941019,25.704088 C 25.542699,23.222588 31.499999,25.614668 31.499999,23.867348 C 31.499999,21.060908 18.048729,23.949248 17.705869,22.030628" display="inline" enable-background="new"/><g id="g10096" display="inline" transform="translate(-303,-126)"><g id="g2831" transform="translate(0,-5)"><rect id="rect2678" width="46" height="4.188" x="297" y="90.813" fill="#2e3436" fill-opacity="1" fill-rule="nonzero" stroke="none" stroke-dasharray="none" stroke-dashoffset="0" stroke-linecap="round" stroke-linejoin="miter" stroke-miterlimit="4" stroke-opacity="1" stroke-width="1" marker-end="none" marker-mid="none" marker-start="none" display="inline" enable-background="accumulate" filter="url(#filter6655)" opacity=".06" overflow="visible" rx="1.581" ry="1.439" transform="matrix(0.6650818,0,0,0.6567162,106.20507,94.630959)" visibility="visible" style="marker:none"/><path id="path2680" fill="url(#linearGradient10094)" fill-opacity="1" stroke="none" stroke-dashoffset=".5" stroke-linecap="round" stroke-linejoin="round" stroke-miterlimit="4" stroke-opacity="1" stroke-width="1" d="M 316.05693,91 L 323.83253,91 L 329.21687,95 L 310.62455,95 L 316.05693,91 z" filter="url(#filter4768)" opacity=".526" transform="matrix(0.8943975,0,0,0.859375,32.830532,74.003369)"/></g><g id="g2826" transform="translate(0,-5)"><path id="path2682" fill="url(#linearGradient10082)" fill-opacity="1" stroke="url(#linearGradient10084)" stroke-dasharray="none" stroke-dashoffset=".5" stroke-linecap="round" stroke-linejoin="round" stroke-miterlimit="4" stroke-opacity="1" stroke-width="1" d="M 315.53125,147.05024 C 315.53125,147.05024 315.53125,151.97926 315.53125,151.97926 C 315.51606,153.24812 313.27344,154.0917 313.27344,154.0917 C 312.75688,154.15397 312.5,154.40576 312.5,154.79585 C 312.5,155.18595 312.84776,155.49999 313.27344,155.49999 L 324.83203,155.49999 C 325.25771,155.49999 325.60547,155.18595 325.60547,154.79585 C 325.60547,154.40576 325.34859,154.15397 324.83203,154.0917 C 324.83203,154.0917 322.52691,153.24812 322.51172,151.97926 C 322.51172,151.97926 322.51172,147.05024 322.51172,147.05024 L 315.53125,147.05024 z" display="inline" enable-background="new"/><path id="path2692" fill="none" fill-opacity="1" stroke="url(#radialGradient10086)" stroke-dashoffset=".5" stroke-linecap="round" stroke-linejoin="round" stroke-miterlimit="4" stroke-opacity="1" stroke-width="1" d="M 316.54297,147.78071 C 316.54297,148.83181 316.54297,151.86274 316.54297,151.86274 C 316.54297,152.72005 315.82498,154.57604 313.5957,154.56978 L 324.50977,154.56978 C 322.26242,154.56978 321.5,152.72272 321.5,151.86274 C 321.5,151.86274 321.5,148.83181 321.5,147.78071 L 316.54297,147.78071 z" display="inline" enable-background="new"/><rect id="rect2694" width="12.063" height=".956" x="313" y="154" fill="url(#linearGradient10088)" fill-opacity="1" stroke="none" stroke-dasharray="none" stroke-dashoffset=".5" stroke-linecap="round" stroke-linejoin="round" stroke-miterlimit="4" stroke-opacity="1" stroke-width="1" display="inline" enable-background="new" rx=".478" ry=".478"/></g><g id="g2840" transform="matrix(1,0,0,0.9090909,0,9.636364)"><g id="g2835"><rect id="rect2686" width="31" height="21" x="303.5" y="128.5" fill="url(#radialGradient10076)" fill-opacity="1" stroke="url(#linearGradient10078)" stroke-dasharray="none" stroke-dashoffset=".5" stroke-linecap="round" stroke-linejoin="round" stroke-miterlimit="4" stroke-opacity="1" stroke-width="1.049" rx=".732" ry=".744"/><rect id="rect2690" width="29" height="18.938" x="304.5" y="129.5" fill="none" fill-opacity="1" stroke="url(#radialGradient10080)" stroke-dasharray="none" stroke-dashoffset=".5" stroke-linecap="round" stroke-linejoin="round" stroke-miterlimit="4" stroke-opacity="1" stroke-width="1.049" display="inline" enable-background="new" rx="0" ry="0"/><rect id="rect2698" width="29" height="18.7" x="304.5" y="129.65" fill="none" fill-opacity="1" stroke="#fff" stroke-dasharray="none" stroke-dashoffset=".5" stroke-linecap="round" stroke-linejoin="round" stroke-miterlimit="4" stroke-opacity="1" stroke-width="1.049" display="inline" enable-background="new" opacity=".15" rx="0" ry="0"/></g><path id="path2700" fill="#888a85" fill-opacity="1" stroke="#555753" stroke-dashoffset=".5" stroke-linecap="butt" stroke-linejoin="round" stroke-miterlimit="4" stroke-opacity="1" stroke-width="1.049" d="M 330.50544,149.5 C 330.50544,149.5 330.5,149.16542 330.5,149.16542 C 330.5,148.79679 330.93108,148.5 331.46657,148.5 C 332.00206,148.5 332.43314,148.79679 332.43314,149.16542 C 332.43314,149.16542 332.44824,149.49717 332.44824,149.49717"/></g><g id="g2811" transform="translate(0,-3)"><rect id="rect2688" width="27" height="14" x="305.5" y="131.5" fill="url(#radialGradient2818)" fill-opacity="1" fill-rule="evenodd" stroke="#204a87" stroke-linecap="butt" stroke-linejoin="miter" stroke-opacity="1" stroke-width="1" display="inline" enable-background="new"/><rect id="rect3470" width="26" height="13" x="306" y="132" fill="url(#linearGradient2820)" fill-opacity="1" fill-rule="evenodd" stroke="none" stroke-linecap="butt" stroke-linejoin="miter" stroke-opacity="1" stroke-width=".198" display="inline" enable-background="new" opacity=".15"/><g id="g2807"><path id="path2696" fill="url(#radialGradient2822)" fill-opacity="1" stroke="none" stroke-dashoffset=".5" stroke-linecap="round" stroke-linejoin="round" stroke-miterlimit="4" stroke-opacity="1" stroke-width="1" d="M 325.06033,132 L 332,132 L 332,145.70649 L 318.23272,145.70649 L 325.06033,132 z" opacity=".245"/><path id="path10735" fill="url(#radialGradient2824)" fill-opacity="1" stroke="none" d="M 317.26416,131.97868 L 322.15988,131.97868 L 316.86293,144.62487 L 314.45579,144.48278 L 317.26416,131.97868 z" display="inline" enable-background="new" opacity=".245"/></g></g></g><g id="g10352" display="inline" transform="translate(-353,-126)"><path id="path4945" fill="url(#linearGradient10391)" fill-opacity="1" stroke="url(#linearGradient10393)" stroke-dasharray="none" stroke-dashoffset=".361" stroke-linecap="square" stroke-linejoin="miter" stroke-miterlimit="4" stroke-opacity="1" stroke-width="7.738" d="M 48.84375,375.8125 C 47.435282,375.95664 46.206014,376.78657 45.53125,378.03125 L 31.25,404.40625 C 30.914755,405.03876 30.73848,405.75988 30.75,406.46875 C 30.748746,406.39129 30.746329,406.41294 30.75,406.53125 L 30.75,409.46875 L 30.75,409.78125 C 30.745943,410.21651 30.87696,410.64231 31.125,411 C 31.201261,411.21987 31.198308,411.38181 31.34375,411.625 C 32.103454,412.89529 33.491398,413.67922 35,413.6875 L 255.84375,413.6875 C 257.35566,413.69094 258.75604,412.9027 259.53125,411.59375 C 259.86135,411.03642 259.96546,410.51837 260.03125,410.125 C 260.14476,409.44634 260.125,408.96875 260.125,408.96875 C 260.12531,408.94792 260.12531,408.92708 260.125,408.90625 L 260.125,406.8125 C 260.125,406.21586 260.11907,405.29688 259.59375,404.34375 L 244.75,377.96875 C 244.73958,377.96867 244.72917,377.96867 244.71875,377.96875 C 243.94931,376.62222 242.5196,375.79723 240.96875,375.8125 L 49.375,375.8125 C 49.341697,375.81082 49.314423,375.81341 49.28125,375.8125 C 49.170672,375.80948 49.079762,375.80688 48.96875,375.8125 C 48.927093,375.81126 48.885407,375.81126 48.84375,375.8125 z" display="inline" enable-background="new" transform="matrix(0.1265319,0,0,0.1320016,350.55874,102.89259)"/><g id="g4947" clip-path="url(#clipPath3519)" display="inline" transform="matrix(0.123996,0,0,0.1188147,350.92754,108.09809)"><path id="path4949" fill="url(#radialGradient10395)" fill-opacity="1" stroke="none" stroke-dashoffset=".361" stroke-linecap="square" stroke-linejoin="miter" stroke-miterlimit="4" stroke-opacity="1" stroke-width="1" d="M 49.053018,377.91849 C 48.342312,377.99122 47.713462,378.41045 47.372978,379.03851 L 33.092643,405.42136 C 32.920748,405.74568 32.837999,406.09423 32.843749,406.44805 C 32.843921,406.45862 32.843421,406.46859 32.843749,406.47916 L 32.843749,409.46589 L 32.843749,409.77701 L 32.905972,409.77701 C 32.951307,410.03663 33.015025,410.28987 33.154867,410.5237 C 33.54293,411.17259 34.234402,411.57735 34.990466,411.5815 L 255.85342,411.5815 C 256.61879,411.58325 257.33012,411.18224 257.72013,410.5237 C 257.85756,410.29166 257.92585,410.03519 257.96903,409.77701 C 258.01775,409.48565 258.03125,408.90588 258.03125,408.90588 L 258.03125,406.82139 C 258.03125,406.32941 257.99578,405.83393 257.75124,405.39024 L 242.9109,379.0074 C 242.52232,378.32737 241.79626,377.91078 241.01307,377.91849 L 49.270801,377.91849 C 49.198253,377.91482 49.125565,377.91482 49.053018,377.91849 z" display="inline" enable-background="new"/><path id="path4951" fill="#fff" fill-opacity="1" stroke="none" stroke-dashoffset=".361" stroke-linecap="square" stroke-linejoin="miter" stroke-miterlimit="4" stroke-opacity="1" stroke-width="1" d="M 32.84375,407.84375 L 32.84375,409.46875 L 32.84375,409.78125 L 32.90625,409.78125 C 32.95158,410.04087 33.01641,410.29742 33.15625,410.53125 C 33.5443,411.18013 34.24393,411.5896 35,411.59375 L 255.84375,411.59375 C 256.60915,411.59549 257.32874,411.18979 257.71875,410.53125 C 257.85616,410.2992 257.92557,410.03943 257.96875,409.78125 C 258.01744,409.48989 258.03125,408.90625 258.03125,408.90625 L 258.03125,407.84375 C 257.62159,408.34791 257.0046,408.65776 256.34375,408.65625 L 34.5,408.65625 C 33.84719,408.65267 33.24985,408.34097 32.84375,407.84375 z" display="inline" enable-background="new" filter="url(#filter3523)" opacity="1"/><path id="path4953" fill="url(#linearGradient10397)" fill-opacity="1" stroke="none" stroke-dashoffset=".361" stroke-linecap="square" stroke-linejoin="miter" stroke-miterlimit="4" stroke-opacity="1" stroke-width="1" d="M 49.053018,377.91849 C 48.342312,377.99122 47.713462,378.41045 47.372978,379.03851 L 33.092643,405.42136 C 32.920748,405.74568 32.837999,406.09423 32.843749,406.44805 C 32.843921,406.45862 32.843421,406.46859 32.843749,406.47916 L 32.843749,409.46589 L 32.843749,409.77701 L 32.905972,409.77701 C 32.951307,410.03663 33.015025,410.28987 33.154867,410.5237 C 33.54293,411.17259 34.234402,411.57735 34.990466,411.5815 L 255.85342,411.5815 C 256.61879,411.58325 257.33012,411.18224 257.72013,410.5237 C 257.85756,410.29166 257.92585,410.03519 257.96903,409.77701 C 258.01775,409.48565 258.03125,408.90588 258.03125,408.90588 L 258.03125,406.82139 C 258.03125,406.32941 257.99578,405.83393 257.75124,405.39024 L 242.9109,379.0074 C 242.52232,378.32737 241.79626,377.91078 241.01307,377.91849 L 49.270801,377.91849 C 49.198253,377.91482 49.125565,377.91482 49.053018,377.91849 z" display="inline" enable-background="new"/></g><path id="path4955" fill="#555753" fill-opacity="1" fill-rule="evenodd" stroke="none" stroke-linecap="butt" stroke-linejoin="miter" stroke-opacity="1" stroke-width="1" d="M 357.94131,152 L 356.43067,156 L 372.58142,155.99501 L 372.15467,152 L 357.94131,152 z M 372.89299,152 L 373.12715,154.02598 L 376.28441,154.02598 L 375.84254,152 L 372.89299,152 z M 376.58185,152.6392 L 377.42781,155.99501 L 381.49239,155.99501 L 380.19323,152.6392 L 376.58185,152.6392 z M 374.29413,154.55681 L 374.37721,155.196 L 373.33865,155.196 L 373.44439,155.99501 L 376.76405,155.99501 L 376.55633,155.196 L 375.49132,155.196 L 375.35915,154.55681 L 374.29413,154.55681 z" display="inline" enable-background="new" opacity=".831"/><path id="path4957" fill="none" fill-opacity="1" stroke="url(#linearGradient10399)" stroke-dasharray="none" stroke-dashoffset=".361" stroke-linecap="square" stroke-linejoin="round" stroke-miterlimit="4" stroke-opacity="1" stroke-width="8.819" d="M 49.5,380.40625 L 35.34375,406.53125 L 35.34375,409.09375 L 255.53125,409.09375 C 255.5417,408.94999 255.53125,408.84375 255.53125,408.84375 L 255.53125,406.8125 C 255.53125,406.44538 255.47213,406.42979 255.5625,406.59375 L 240.8125,380.40625 L 49.5,380.40625 z" display="inline" enable-background="new" opacity=".845" transform="matrix(0.1229396,0,0,0.1045771,351.08126,113.71824)"/><path id="path4959" fill="url(#linearGradient10401)" fill-opacity="1" fill-rule="evenodd" stroke="none" stroke-linecap="butt" stroke-linejoin="miter" stroke-opacity="1" stroke-width="1" d="M 357.96079,152 L 356.45015,155 L 372.6009,154.99626 L 372.17415,152 L 357.96079,152 z M 372.91247,152 L 373.14664,153.51949 L 376.30389,153.51949 L 375.86202,152 L 372.91247,152 z M 376.60133,152.4794 L 377.44729,154.99626 L 381.51187,154.99626 L 380.21271,152.4794 L 376.60133,152.4794 z M 374.31361,153.9176 L 374.39669,154.397 L 373.35813,154.397 L 373.46387,154.99626 L 376.78353,154.99626 L 376.57581,154.397 L 375.5108,154.397 L 375.37863,153.9176 L 374.31361,153.9176 z" display="inline" enable-background="new"/><g id="g6429" fill="url(#linearGradient10459)" fill-opacity="1" transform="translate(49.949366,4)"><rect id="rect6011" width="1" height="1" x="307" y="150" fill="url(#linearGradient10403)" fill-opacity="1" stroke="none" stroke-dasharray="none" stroke-dashoffset=".361" stroke-linecap="round" stroke-linejoin="round" stroke-miterlimit="4" stroke-opacity="1" stroke-width="1" display="inline" enable-background="new" opacity=".554" rx=".281" ry=".281"/><rect id="rect6013" width="1" height="1" x="308" y="149" fill="url(#linearGradient10405)" fill-opacity="1" stroke="none" stroke-dasharray="none" stroke-dashoffset=".361" stroke-linecap="round" stroke-linejoin="round" stroke-miterlimit="4" stroke-opacity="1" stroke-width="1" display="inline" enable-background="new" opacity=".554" rx=".281" ry=".281"/><rect id="rect6019" width="1" height="1" x="310" y="149" fill="url(#linearGradient10407)" fill-opacity="1" stroke="none" stroke-dasharray="none" stroke-dashoffset=".361" stroke-linecap="round" stroke-linejoin="round" stroke-miterlimit="4" stroke-opacity="1" stroke-width="1" display="inline" enable-background="new" opacity=".554" rx=".281" ry=".281"/><rect id="rect6023" width="1" height="1" x="309" y="150" fill="url(#linearGradient10409)" fill-opacity="1" stroke="none" stroke-dasharray="none" stroke-dashoffset=".361" stroke-linecap="round" stroke-linejoin="round" stroke-miterlimit="4" stroke-opacity="1" stroke-width="1" display="inline" enable-background="new" opacity=".554" rx=".281" ry=".281"/><rect id="rect6027" width="1" height="1" x="312" y="149" fill="url(#linearGradient10411)" fill-opacity="1" stroke="none" stroke-dasharray="none" stroke-dashoffset=".361" stroke-linecap="round" stroke-linejoin="round" stroke-miterlimit="4" stroke-opacity="1" stroke-width="1" display="inline" enable-background="new" opacity=".554" rx=".281" ry=".281"/><rect id="rect6029" width="1" height="1" x="314" y="149" fill="url(#linearGradient10413)" fill-opacity="1" stroke="none" stroke-dasharray="none" stroke-dashoffset=".361" stroke-linecap="round" stroke-linejoin="round" stroke-miterlimit="4" stroke-opacity="1" stroke-width="1" display="inline" enable-background="new" opacity=".554" rx=".281" ry=".281"/><rect id="rect6035" width="1" height="1" x="316" y="149" fill="url(#linearGradient10415)" fill-opacity="1" stroke="none" stroke-dasharray="none" stroke-dashoffset=".361" stroke-linecap="round" stroke-linejoin="round" stroke-miterlimit="4" stroke-opacity="1" stroke-width="1" display="inline" enable-background="new" opacity=".554" rx=".281" ry=".281"/><rect id="rect6043" width="1" height="1" x="318" y="149" fill="url(#linearGradient10417)" fill-opacity="1" stroke="none" stroke-dasharray="none" stroke-dashoffset=".361" stroke-linecap="round" stroke-linejoin="round" stroke-miterlimit="4" stroke-opacity="1" stroke-width="1" display="inline" enable-background="new" opacity=".554" rx=".281" ry=".281"/><rect id="rect6049" width="1" height="1" x="319" y="150" fill="url(#linearGradient10419)" fill-opacity="1" stroke="none" stroke-dasharray="none" stroke-dashoffset=".361" stroke-linecap="round" stroke-linejoin="round" stroke-miterlimit="4" stroke-opacity="1" stroke-width="1" display="inline" enable-background="new" opacity=".554" rx=".281" ry=".281"/><rect id="rect6051" width="1" height="1" x="320" y="149" fill="url(#linearGradient10421)" fill-opacity="1" stroke="none" stroke-dasharray="none" stroke-dashoffset=".361" stroke-linecap="round" stroke-linejoin="round" stroke-miterlimit="4" stroke-opacity="1" stroke-width="1" display="inline" enable-background="new" opacity=".554" rx=".281" ry=".281"/><rect id="rect6053" width="1" height="1" x="322" y="149" fill="url(#linearGradient10423)" fill-opacity="1" stroke="none" stroke-dasharray="none" stroke-dashoffset=".361" stroke-linecap="round" stroke-linejoin="round" stroke-miterlimit="4" stroke-opacity="1" stroke-width="1" display="inline" enable-background="new" opacity=".554" rx=".281" ry=".281"/><rect id="rect6059" width="1" height="1" x="321" y="150" fill="url(#linearGradient10425)" fill-opacity="1" stroke="none" stroke-dasharray="none" stroke-dashoffset=".361" stroke-linecap="round" stroke-linejoin="round" stroke-miterlimit="4" stroke-opacity="1" stroke-width="1" display="inline" enable-background="new" opacity=".554" rx=".281" ry=".281"/><rect id="rect6061" width="1" height="1" x="325" y="150" fill="url(#linearGradient10427)" fill-opacity="1" stroke="none" stroke-dasharray="none" stroke-dashoffset=".361" stroke-linecap="round" stroke-linejoin="round" stroke-miterlimit="4" stroke-opacity="1" stroke-width="1" display="inline" enable-background="new" opacity=".554" rx=".281" ry=".281"/><rect id="rect6075" width="1" height="1" x="327" y="150" fill="url(#linearGradient10429)" fill-opacity="1" stroke="none" stroke-dasharray="none" stroke-dashoffset=".361" stroke-linecap="round" stroke-linejoin="round" stroke-miterlimit="4" stroke-opacity="1" stroke-width="1" display="inline" enable-background="new" opacity=".554" rx=".281" ry=".281"/><rect id="rect6079" width="1" height="1" x="328" y="149" fill="url(#linearGradient10431)" fill-opacity="1" stroke="none" stroke-dasharray="none" stroke-dashoffset=".361" stroke-linecap="round" stroke-linejoin="round" stroke-miterlimit="4" stroke-opacity="1" stroke-width="1" display="inline" enable-background="new" opacity=".554" rx=".281" ry=".281"/><rect id="rect6081" width="1" height="1" x="330" y="149" fill="url(#linearGradient10433)" fill-opacity="1" stroke="none" stroke-dasharray="none" stroke-dashoffset=".361" stroke-linecap="round" stroke-linejoin="round" stroke-miterlimit="4" stroke-opacity="1" stroke-width="1" display="inline" enable-background="new" opacity=".554" rx=".281" ry=".281"/><rect id="rect6085" width="1" height="1" x="329" y="150" fill="url(#linearGradient10435)" fill-opacity="1" stroke="none" stroke-dasharray="none" stroke-dashoffset=".361" stroke-linecap="round" stroke-linejoin="round" stroke-miterlimit="4" stroke-opacity="1" stroke-width="1" display="inline" enable-background="new" opacity=".554" rx=".281" ry=".281"/><rect id="rect6129" width="1" height="1" x="309" y="148" fill="url(#linearGradient10437)" fill-opacity="1" stroke="none" stroke-dasharray="none" stroke-dashoffset=".361" stroke-linecap="round" stroke-linejoin="round" stroke-miterlimit="4" stroke-opacity="1" stroke-width="1" display="inline" enable-background="new" opacity=".554" rx=".281" ry=".281"/><rect id="rect6131" width="1" height="1" x="311" y="148" fill="url(#linearGradient10439)" fill-opacity="1" stroke="none" stroke-dasharray="none" stroke-dashoffset=".361" stroke-linecap="round" stroke-linejoin="round" stroke-miterlimit="4" stroke-opacity="1" stroke-width="1" display="inline" enable-background="new" opacity=".554" rx=".281" ry=".281"/><rect id="rect6137" width="1" height="1" x="313" y="148" fill="url(#linearGradient10441)" fill-opacity="1" stroke="none" stroke-dasharray="none" stroke-dashoffset=".361" stroke-linecap="round" stroke-linejoin="round" stroke-miterlimit="4" stroke-opacity="1" stroke-width="1" display="inline" enable-background="new" opacity=".554" rx=".281" ry=".281"/><rect id="rect6139" width="1" height="1" x="315" y="148" fill="url(#linearGradient10443)" fill-opacity="1" stroke="none" stroke-dasharray="none" stroke-dashoffset=".361" stroke-linecap="round" stroke-linejoin="round" stroke-miterlimit="4" stroke-opacity="1" stroke-width="1" display="inline" enable-background="new" opacity=".554" rx=".281" ry=".281"/><rect id="rect6145" width="1" height="1" x="317" y="148" fill="url(#linearGradient10445)" fill-opacity="1" stroke="none" stroke-dasharray="none" stroke-dashoffset=".361" stroke-linecap="round" stroke-linejoin="round" stroke-miterlimit="4" stroke-opacity="1" stroke-width="1" display="inline" enable-background="new" opacity=".554" rx=".281" ry=".281"/><rect id="rect6147" width="1" height="1" x="319" y="148" fill="url(#linearGradient10447)" fill-opacity="1" stroke="none" stroke-dasharray="none" stroke-dashoffset=".361" stroke-linecap="round" stroke-linejoin="round" stroke-miterlimit="4" stroke-opacity="1" stroke-width="1" display="inline" enable-background="new" opacity=".554" rx=".281" ry=".281"/><rect id="rect6153" width="1" height="1" x="321" y="148" fill="url(#linearGradient10449)" fill-opacity="1" stroke="none" stroke-dasharray="none" stroke-dashoffset=".361" stroke-linecap="round" stroke-linejoin="round" stroke-miterlimit="4" stroke-opacity="1" stroke-width="1" display="inline" enable-background="new" opacity=".554" rx=".281" ry=".281"/><rect id="rect6155" width="1" height="1" x="323" y="148" fill="url(#linearGradient10451)" fill-opacity="1" stroke="none" stroke-dasharray="none" stroke-dashoffset=".361" stroke-linecap="round" stroke-linejoin="round" stroke-miterlimit="4" stroke-opacity="1" stroke-width="1" display="inline" enable-background="new" opacity=".554" rx=".281" ry=".281"/><rect id="rect6161" width="1" height="1" x="327" y="148" fill="url(#linearGradient10453)" fill-opacity="1" stroke="none" stroke-dasharray="none" stroke-dashoffset=".361" stroke-linecap="round" stroke-linejoin="round" stroke-miterlimit="4" stroke-opacity="1" stroke-width="1" display="inline" enable-background="new" opacity=".554" rx=".281" ry=".281"/><rect id="rect6163" width="1" height="1" x="329" y="148" fill="url(#linearGradient10455)" fill-opacity="1" stroke="none" stroke-dasharray="none" stroke-dashoffset=".361" stroke-linecap="round" stroke-linejoin="round" stroke-miterlimit="4" stroke-opacity="1" stroke-width="1" display="inline" enable-background="new" opacity=".554" rx=".281" ry=".281"/><rect id="rect6173" width="1" height="1" x="325" y="148" fill="url(#linearGradient10457)" fill-opacity="1" stroke="none" stroke-dasharray="none" stroke-dashoffset=".361" stroke-linecap="round" stroke-linejoin="round" stroke-miterlimit="4" stroke-opacity="1" stroke-width="1" display="inline" enable-background="new" opacity=".554" rx=".281" ry=".281"/></g></g></g></svg>