<svg xmlns="http://www.w3.org/2000/svg" xmlns:svg="http://www.w3.org/2000/svg" id="svg1468" width="1000" height="1000" version="1.0" viewBox="0 0 321 368" xml:space="preserve"><metadata id="metadata108"/><style id="style1470" type="text/css"/><path id="rect139_1_" fill="#97bf60" fill-opacity="1" d="M 164.5164,144.88258 L 176.6932,144.88258 C 179.6698,144.88258 182.0828,147.29758 182.0828,150.27518 L 182.0828,162.45098 C 182.0828,165.42848 179.6697,167.84158 176.6932,167.84158 L 164.5164,167.84158 C 161.5398,167.84158 159.1248,165.42848 159.1248,162.45098 L 159.1248,150.27518 C 159.1248,147.29758 161.5398,144.88258 164.5164,144.88258 z"/><path id="rect145_1_" fill="#709937" fill-opacity="1" d="M 194.1248,144.88258 L 206.2996,144.88258 C 209.2781,144.88258 211.6912,147.29758 211.6912,150.27518 L 211.6912,162.45098 C 211.6912,165.42848 209.2781,167.84158 206.2996,167.84158 L 194.1248,167.84158 C 191.1463,167.84158 188.7322,165.42848 188.7322,162.45098 L 188.7322,150.27518 C 188.7322,147.29758 191.1462,144.88258 194.1248,144.88258 z"/><path id="rect157_1_" fill="#51751e" fill-opacity="1" d="M 223.7312,144.88258 L 235.907,144.88258 C 238.8845,144.88258 241.2976,147.29758 241.2976,150.27518 L 241.2976,162.45098 C 241.2976,165.42848 238.8845,167.84158 235.907,167.84158 L 223.7312,167.84158 C 220.7537,167.84158 218.3396,165.42848 218.3396,162.45098 L 218.3396,150.27518 C 218.3396,147.29758 220.7537,144.88258 223.7312,144.88258 z"/><path id="rect140_1_" fill="#faa546" d="M 164.5164,85.667682 L 176.6932,85.667682 C 179.6698,85.667682 182.0828,88.082682 182.0828,91.060282 L 182.0828,103.23608 C 182.0828,106.21358 179.6697,108.62668 176.6932,108.62668 L 164.5164,108.62668 C 161.5398,108.62668 159.1248,106.21358 159.1248,103.23608 L 159.1248,91.060282 C 159.1248,88.082782 161.5398,85.667682 164.5164,85.667682 z"/><path id="rect146_1_" fill="#e07a1f" d="M 194.1248,85.667682 L 206.2996,85.667682 C 209.2781,85.667682 211.6912,88.082682 211.6912,91.060282 L 211.6912,103.23608 C 211.6912,106.21358 209.2781,108.62668 206.2996,108.62668 L 194.1248,108.62668 C 191.1463,108.62668 188.7322,106.21358 188.7322,103.23608 L 188.7322,91.060282 C 188.7322,88.082782 191.1462,85.667682 194.1248,85.667682 z"/><path id="rect158_1_" fill="#ce5c00" d="M 223.7312,85.667682 L 235.907,85.667682 C 238.8845,85.667682 241.2976,88.082682 241.2976,91.060282 L 241.2976,103.23608 C 241.2976,106.21358 238.8845,108.62668 235.907,108.62668 L 223.7312,108.62668 C 220.7537,108.62668 218.3396,106.21358 218.3396,103.23608 L 218.3396,91.060282 C 218.3396,88.082782 220.7537,85.667682 223.7312,85.667682 z"/><path id="rect141_3_" fill="#729fcf" d="M 164.5164,174.49188 L 176.6932,174.49188 C 179.6698,174.49188 182.0828,176.90498 182.0828,179.88248 L 182.0828,192.05728 C 182.0828,195.03578 179.6697,197.44988 176.6932,197.44988 L 164.5164,197.44988 C 161.5398,197.44988 159.1248,195.03578 159.1248,192.05728 L 159.1248,179.88248 C 159.1248,176.90498 161.5398,174.49188 164.5164,174.49188 z"/><path id="rect147_3_" fill="#3465a4" d="M 194.1248,174.49188 L 206.2996,174.49188 C 209.2781,174.49188 211.6912,176.90498 211.6912,179.88248 L 211.6912,192.05728 C 211.6912,195.03578 209.2781,197.44988 206.2996,197.44988 L 194.1248,197.44988 C 191.1463,197.44988 188.7322,195.03578 188.7322,192.05728 L 188.7322,179.88248 C 188.7322,176.90498 191.1462,174.49188 194.1248,174.49188 z"/><path id="rect159_3_" fill="#204a87" d="M 223.7312,174.49188 L 235.907,174.49188 C 238.8845,174.49188 241.2976,176.90498 241.2976,179.88248 L 241.2976,192.05728 C 241.2976,195.03578 238.8845,197.44988 235.907,197.44988 L 223.7312,197.44988 C 220.7537,197.44988 218.3396,195.03578 218.3396,192.05728 L 218.3396,179.88248 C 218.3396,176.90498 220.7537,174.49188 223.7312,174.49188 z"/><path id="rect168_1_" fill="#eeeeec" d="M 164.5164,278.50948 L 176.6932,278.50948 C 179.6698,278.50948 182.0828,280.92258 182.0828,283.90108 L 182.0828,296.07788 C 182.0828,299.05448 179.6697,301.46948 176.6932,301.46948 L 164.5164,301.46948 C 161.5398,301.46948 159.1248,299.05448 159.1248,296.07788 L 159.1248,283.90108 C 159.1248,280.92258 161.5398,278.50948 164.5164,278.50948 z"/><path id="rect169_1_" fill="#d3d7cf" d="M 194.1248,278.50948 L 206.2996,278.50948 C 209.2781,278.50948 211.6912,280.92258 211.6912,283.90108 L 211.6912,296.07788 C 211.6912,299.05448 209.2781,301.46948 206.2996,301.46948 L 194.1248,301.46948 C 191.1463,301.46948 188.7322,299.05448 188.7322,296.07788 L 188.7322,283.90108 C 188.7322,280.92258 191.1462,278.50948 194.1248,278.50948 z"/><path id="rect181_1_" fill="#babdb6" d="M 223.7312,278.50948 L 235.907,278.50948 C 238.8845,278.50948 241.2976,280.92258 241.2976,283.90108 L 241.2976,296.07788 C 241.2976,299.05448 238.8845,301.46948 235.907,301.46948 L 223.7312,301.46948 C 220.7537,301.46948 218.3396,299.05448 218.3396,296.07788 L 218.3396,283.90108 C 218.3396,280.92258 220.7537,278.50948 223.7312,278.50948 z"/><path id="rect171_1_" fill="#555753" d="M 194.1248,308.11688 L 206.2996,308.11688 C 209.2781,308.11688 211.6912,310.53288 211.6912,313.50848 L 211.6912,325.68428 C 211.6912,328.66278 209.2781,331.07488 206.2996,331.07488 L 194.1248,331.07488 C 191.1463,331.07488 188.7322,328.66278 188.7322,325.68428 L 188.7322,313.50848 C 188.7322,310.53288 191.1462,308.11688 194.1248,308.11688 z"/><path id="rect183_1_" fill="#2e3436" d="M 223.7312,308.11688 L 235.907,308.11688 C 238.8845,308.11688 241.2976,310.53288 241.2976,313.50848 L 241.2976,325.68428 C 241.2976,328.66278 238.8845,331.07488 235.907,331.07488 L 223.7312,331.07488 C 220.7537,331.07488 218.3396,328.66278 218.3396,325.68428 L 218.3396,313.50848 C 218.3396,310.53288 220.7537,308.11688 223.7312,308.11688 z"/><path id="rect193_1_" fill="#888a85" d="M 164.5164,308.11688 L 176.6932,308.11688 C 179.6698,308.11688 182.0828,310.53288 182.0828,313.50848 L 182.0828,325.68428 C 182.0828,328.66278 179.6697,331.07488 176.6932,331.07488 L 164.5164,331.07488 C 161.5398,331.07488 159.1248,328.66278 159.1248,325.68428 L 159.1248,313.50848 C 159.1248,310.53288 161.5398,308.11688 164.5164,308.11688 z"/><path id="rect301_1_" fill="#fce94f" d="M 164.5164,56.061282 L 176.6932,56.061282 C 179.6698,56.061282 182.0828,58.474382 182.0828,61.451882 L 182.0828,73.627682 C 182.0828,76.605182 179.6697,79.019282 176.6932,79.019282 L 164.5164,79.019282 C 161.5398,79.019282 159.1248,76.605182 159.1248,73.627682 L 159.1248,61.451882 C 159.1248,58.474382 161.5398,56.061282 164.5164,56.061282 z"/><path id="rect302_1_" fill="#edd400" d="M 194.1248,56.061282 L 206.2996,56.061282 C 209.2781,56.061282 211.6912,58.474382 211.6912,61.451882 L 211.6912,73.627682 C 211.6912,76.605182 209.2781,79.019282 206.2996,79.019282 L 194.1248,79.019282 C 191.1463,79.019282 188.7322,76.605182 188.7322,73.627682 L 188.7322,61.451882 C 188.7322,58.474382 191.1462,56.061282 194.1248,56.061282 z"/><path id="rect303_1_" fill="#c4a000" d="M 223.7312,56.061282 L 235.907,56.061282 C 238.8845,56.061282 241.2976,58.474382 241.2976,61.451882 L 241.2976,73.627682 C 241.2976,76.605182 238.8845,79.019282 235.907,79.019282 L 223.7312,79.019282 C 220.7537,79.019282 218.3396,76.605182 218.3396,73.627682 L 218.3396,61.451882 C 218.3396,58.474382 220.7537,56.061282 223.7312,56.061282 z"/><path id="rect305_1_" fill="#b49372" d="M 164.5164,115.27608 L 176.6932,115.27608 C 179.6698,115.27608 182.0828,117.68918 182.0828,120.66768 L 182.0828,132.84248 C 182.0828,135.81998 179.6697,138.23408 176.6932,138.23408 L 164.5164,138.23408 C 161.5398,138.23408 159.1248,135.81998 159.1248,132.84248 L 159.1248,120.66768 C 159.1248,117.68918 161.5398,115.27608 164.5164,115.27608 z"/><path id="rect306_1_" fill="#906e4c" d="M 194.1248,115.27608 L 206.2996,115.27608 C 209.2781,115.27608 211.6912,117.68918 211.6912,120.66768 L 211.6912,132.84248 C 211.6912,135.81998 209.2781,138.23408 206.2996,138.23408 L 194.1248,138.23408 C 191.1463,138.23408 188.7322,135.81998 188.7322,132.84248 L 188.7322,120.66768 C 188.7322,117.68918 191.1462,115.27608 194.1248,115.27608 z"/><path id="rect307_1_" fill="#745536" d="M 223.7312,115.27608 L 235.907,115.27608 C 238.8845,115.27608 241.2976,117.68918 241.2976,120.66768 L 241.2976,132.84248 C 241.2976,135.81998 238.8845,138.23408 235.907,138.23408 L 223.7312,138.23408 C 220.7537,138.23408 218.3396,135.81998 218.3396,132.84248 L 218.3396,120.66768 C 218.3396,117.68918 220.7537,115.27608 223.7312,115.27608 z"/><path id="rect141_2_" fill="#ad7fa8" d="M 164.5164,204.49188 L 176.6932,204.49188 C 179.6698,204.49188 182.0828,206.90498 182.0828,209.88248 L 182.0828,222.05728 C 182.0828,225.03578 179.6697,227.44988 176.6932,227.44988 L 164.5164,227.44988 C 161.5398,227.44988 159.1248,225.03578 159.1248,222.05728 L 159.1248,209.88248 C 159.1248,206.90498 161.5398,204.49188 164.5164,204.49188 z"/><path id="rect147_2_" fill="#75507b" d="M 194.1248,204.49188 L 206.2996,204.49188 C 209.2781,204.49188 211.6912,206.90498 211.6912,209.88248 L 211.6912,222.05728 C 211.6912,225.03578 209.2781,227.44988 206.2996,227.44988 L 194.1248,227.44988 C 191.1463,227.44988 188.7322,225.03578 188.7322,222.05728 L 188.7322,209.88248 C 188.7322,206.90498 191.1462,204.49188 194.1248,204.49188 z"/><path id="rect159_2_" fill="#5c3566" d="M 223.7312,204.49188 L 235.907,204.49188 C 238.8845,204.49188 241.2976,206.90498 241.2976,209.88248 L 241.2976,222.05728 C 241.2976,225.03578 238.8845,227.44988 235.907,227.44988 L 223.7312,227.44988 C 220.7537,227.44988 218.3396,225.03578 218.3396,222.05728 L 218.3396,209.88248 C 218.3396,206.90498 220.7537,204.49188 223.7312,204.49188 z"/><text font-size="12" style="line-height:100%" id="text1533" x="106.278" y="70.43" fill="#a7a7a7" fill-opacity="1" font-family="Trebuchet MS" font-stretch="normal" font-style="normal" font-variant="normal" font-weight="bold" text-anchor="start"><tspan id="tspan1535" x="106.278" y="70.43" font-family="Trebuchet MS" font-size="11">Butter</tspan></text><text font-size="12" style="line-height:100%" id="text1537" x="106.364" y="100.037" fill="#a7a7a7" fill-opacity="1" font-family="Trebuchet MS" font-stretch="normal" font-style="normal" font-variant="normal" font-weight="bold" text-anchor="start"><tspan id="tspan1539" x="106.364" y="100.037" font-family="Trebuchet MS" font-size="11">Human</tspan></text><text font-size="12" style="line-height:100%" id="text1541" x="117.278" y="129.645" fill="#a7a7a7" fill-opacity="1" font-family="Trebuchet MS" font-stretch="normal" font-style="normal" font-variant="normal" font-weight="bold" text-anchor="start"><tspan id="tspan1543" x="117.278" y="129.645" font-family="Trebuchet MS" font-size="11">Dust</tspan></text><text font-size="12" style="line-height:100%" id="text1545" x="118.153" y="159.252" fill="#a7a7a7" fill-opacity="1" font-family="Trebuchet MS" font-stretch="normal" font-style="normal" font-variant="normal" font-weight="bold" text-anchor="start"><tspan id="tspan1547" x="118.153" y="159.252" font-family="Trebuchet MS" font-size="11">Wise</tspan></text><text font-size="12" style="line-height:100%" id="text1549" x="115.534" y="188.86" fill="#a7a7a7" fill-opacity="1" font-family="Trebuchet MS" font-stretch="normal" font-style="normal" font-variant="normal" font-weight="bold" text-anchor="start"><tspan id="tspan1551" x="115.534" y="188.86" font-family="Trebuchet MS" font-size="11">Brave</tspan></text><text font-size="12" style="line-height:100%" id="text1557" x="117.358" y="218.86" fill="#a7a7a7" fill-opacity="1" font-family="Trebuchet MS" font-stretch="normal" font-style="normal" font-variant="normal" font-weight="bold" text-anchor="start"><tspan id="tspan1559" x="117.358" y="218.86" font-family="Trebuchet MS" font-size="11">Noble</tspan></text><text font-size="12" style="line-height:100%" id="text1561" x="118.153" y="248.466" fill="#a7a7a7" fill-opacity="1" font-family="Trebuchet MS" font-stretch="normal" font-style="normal" font-variant="normal" font-weight="bold" text-anchor="start"><tspan id="tspan1563" x="118.153" y="248.466" font-family="Trebuchet MS" font-size="11">Wine</tspan></text><text font-size="12" style="line-height:100%" id="text1565" x="87.839" y="292.878" fill="#a7a7a7" fill-opacity="1" font-family="Trebuchet MS" font-stretch="normal" font-style="normal" font-variant="normal" font-weight="bold" text-anchor="start"><tspan id="tspan1567" x="87.839" y="292.878" font-family="Trebuchet MS" font-size="11">Aluminium</tspan></text><path id="rect170_1_" fill="#df5757" fill-opacity="1" d="M 164.5164,234.09738 L 176.6932,234.09738 C 179.6698,234.09738 182.0828,236.51238 182.0828,239.48998 L 182.0828,251.66578 C 182.0828,254.64238 179.6697,257.05838 176.6932,257.05838 L 164.5164,257.05838 C 161.5398,257.05838 159.1248,254.64238 159.1248,251.66578 L 159.1248,239.48998 C 159.1248,236.51238 161.5398,234.09738 164.5164,234.09738 z"/><path id="rect182_1_" fill="#c22f2f" fill-opacity="1" d="M 194.1248,234.09738 L 206.2996,234.09738 C 209.2781,234.09738 211.6912,236.51238 211.6912,239.48998 L 211.6912,251.66578 C 211.6912,254.64238 209.2781,257.05838 206.2996,257.05838 L 194.1248,257.05838 C 191.1463,257.05838 188.7322,254.64238 188.7322,251.66578 L 188.7322,239.48998 C 188.7322,236.51238 191.1462,234.09738 194.1248,234.09738 z"/><path id="rect344_1_" fill="#a40000" d="M 223.3259,234.09738 L 235.5007,234.09738 C 238.4782,234.09738 240.8943,236.51238 240.8943,239.48998 L 240.8943,251.66578 C 240.8943,254.64238 238.4783,257.05838 235.5007,257.05838 L 223.3259,257.05838 C 220.3484,257.05838 217.9343,254.64238 217.9343,251.66578 L 217.9343,239.48998 C 217.9343,236.51238 220.3484,234.09738 223.3259,234.09738 z"/><g id="layer1" transform="translate(0,9.56808)"><text stroke-width="1" style="text-align:start;line-height:100%" id="text2362" x="162.728" y="66.333" fill="#000" fill-opacity="1" stroke="none" stroke-linecap="butt" stroke-linejoin="miter" stroke-opacity="1" font-family="Segoe" font-size="3.68" font-stretch="normal" font-style="normal" font-variant="normal" font-weight="normal" text-anchor="start" xml:space="preserve"><tspan id="tspan2364" x="162.728" y="66.333">#fce94f</tspan></text><text stroke-width="1" style="text-align:start;line-height:100%" id="text2366" x="162.728" y="95.583" fill="#000" fill-opacity="1" stroke="none" stroke-linecap="butt" stroke-linejoin="miter" stroke-opacity="1" font-family="Segoe" font-size="3.68" font-stretch="normal" font-style="normal" font-variant="normal" font-weight="normal" text-anchor="start" xml:space="preserve"><tspan id="tspan2368" x="162.728" y="95.583">#faa546</tspan></text><text stroke-width="1" style="text-align:start;line-height:100%" id="text2370" x="162.728" y="125.083" fill="#000" fill-opacity="1" stroke="none" stroke-linecap="butt" stroke-linejoin="miter" stroke-opacity="1" font-family="Segoe" font-size="3.68" font-stretch="normal" font-style="normal" font-variant="normal" font-weight="normal" text-anchor="start" xml:space="preserve"><tspan id="tspan2372" x="162.728" y="125.083">#b49372</tspan></text><text stroke-width="1" style="text-align:start;line-height:100%" id="text2374" x="162.728" y="154.333" fill="#000" fill-opacity="1" stroke="none" stroke-linecap="butt" stroke-linejoin="miter" stroke-opacity="1" font-family="Segoe" font-size="3.68" font-stretch="normal" font-style="normal" font-variant="normal" font-weight="normal" text-anchor="start" xml:space="preserve"><tspan id="tspan2376" x="162.728" y="154.333">#97bf60</tspan></text><text stroke-width="1" style="text-align:start;line-height:100%" id="text2378" x="162.728" y="183.833" fill="#000" fill-opacity="1" stroke="none" stroke-linecap="butt" stroke-linejoin="miter" stroke-opacity="1" font-family="Segoe" font-size="3.68" font-stretch="normal" font-style="normal" font-variant="normal" font-weight="normal" text-anchor="start" xml:space="preserve"><tspan id="tspan2380" x="162.728" y="183.833">#729fcf</tspan></text><text stroke-width="1" style="text-align:start;line-height:100%" id="text2382" x="162.728" y="214.083" fill="#fff" fill-opacity="1" stroke="none" stroke-linecap="butt" stroke-linejoin="miter" stroke-opacity="1" font-family="Segoe" font-size="3.68" font-stretch="normal" font-style="normal" font-variant="normal" font-weight="normal" text-anchor="start" xml:space="preserve"><tspan id="tspan2384" x="162.728" y="214.083">#ad7fa8</tspan></text><text stroke-width="1" style="text-align:start;line-height:100%" id="text2386" x="162.728" y="243.583" fill="#fff" fill-opacity="1" stroke="none" stroke-linecap="butt" stroke-linejoin="miter" stroke-opacity="1" font-family="Segoe" font-size="3.68" font-stretch="normal" font-style="normal" font-variant="normal" font-weight="normal" text-anchor="start" xml:space="preserve"><tspan id="tspan3256" x="162.728" y="243.583">#df5757</tspan></text><text stroke-width="1" style="text-align:start;line-height:100%" id="text2390" x="162.728" y="288.583" fill="#000" fill-opacity="1" stroke="none" stroke-linecap="butt" stroke-linejoin="miter" stroke-opacity="1" font-family="Segoe" font-size="3.68" font-stretch="normal" font-style="normal" font-variant="normal" font-weight="normal" text-anchor="start" xml:space="preserve"><tspan id="tspan2392" x="162.728" y="288.583">#eeeeec</tspan></text><text stroke-width="1" style="text-align:start;line-height:100%" id="text2394" x="162.728" y="317.583" fill="#fff" fill-opacity="1" stroke="none" stroke-linecap="butt" stroke-linejoin="miter" stroke-opacity="1" font-family="Segoe" font-size="3.68" font-stretch="normal" font-style="normal" font-variant="normal" font-weight="normal" text-anchor="start" xml:space="preserve"><tspan id="tspan2396" x="162.728" y="317.583">#888a85</tspan></text><text stroke-width="1" style="text-align:start;line-height:100%" id="text2398" x="192.728" y="66.333" fill="#000" fill-opacity="1" stroke="none" stroke-linecap="butt" stroke-linejoin="miter" stroke-opacity="1" font-family="Segoe" font-size="3.68" font-stretch="normal" font-style="normal" font-variant="normal" font-weight="normal" text-anchor="start" xml:space="preserve"><tspan id="tspan2400" x="192.728" y="66.333">#edd400</tspan></text><text stroke-width="1" style="text-align:start;line-height:100%" id="text2402" x="192.728" y="95.583" fill="#fff" fill-opacity="1" stroke="none" stroke-linecap="butt" stroke-linejoin="miter" stroke-opacity="1" font-family="Segoe" font-size="3.68" font-stretch="normal" font-style="normal" font-variant="normal" font-weight="normal" text-anchor="start" xml:space="preserve"><tspan id="tspan2404" x="192.728" y="95.583">#e07a1f</tspan></text><text stroke-width="1" style="text-align:start;line-height:100%" id="text2406" x="192.728" y="125.083" fill="#fff" fill-opacity="1" stroke="none" stroke-linecap="butt" stroke-linejoin="miter" stroke-opacity="1" font-family="Segoe" font-size="3.68" font-stretch="normal" font-style="normal" font-variant="normal" font-weight="normal" text-anchor="start" xml:space="preserve"><tspan id="tspan2408" x="192.728" y="125.083">#906e4c</tspan></text><text stroke-width="1" style="text-align:start;line-height:100%" id="text2410" x="192.728" y="154.333" fill="#000" fill-opacity="1" stroke="none" stroke-linecap="butt" stroke-linejoin="miter" stroke-opacity="1" font-family="Segoe" font-size="3.68" font-stretch="normal" font-style="normal" font-variant="normal" font-weight="normal" text-anchor="start" xml:space="preserve"><tspan id="tspan2412" x="192.728" y="154.333" fill="#fff" fill-opacity="1">#709937</tspan></text><text stroke-width="1" style="text-align:start;line-height:100%" id="text2414" x="192.728" y="183.833" fill="#fff" fill-opacity="1" stroke="none" stroke-linecap="butt" stroke-linejoin="miter" stroke-opacity="1" font-family="Segoe" font-size="3.68" font-stretch="normal" font-style="normal" font-variant="normal" font-weight="normal" text-anchor="start" xml:space="preserve"><tspan id="tspan2416" x="192.728" y="183.833">#3465a4</tspan></text><text stroke-width="1" style="text-align:start;line-height:100%" id="text2418" x="192.728" y="214.083" fill="#fff" fill-opacity="1" stroke="none" stroke-linecap="butt" stroke-linejoin="miter" stroke-opacity="1" font-family="Segoe" font-size="3.68" font-stretch="normal" font-style="normal" font-variant="normal" font-weight="normal" text-anchor="start" xml:space="preserve"><tspan id="tspan2420" x="192.728" y="214.083">#75507b</tspan></text><text stroke-width="1" style="text-align:start;line-height:100%" id="text2422" x="192.728" y="243.583" fill="#fff" fill-opacity="1" stroke="none" stroke-linecap="butt" stroke-linejoin="miter" stroke-opacity="1" font-family="Segoe" font-size="3.68" font-stretch="normal" font-style="normal" font-variant="normal" font-weight="normal" text-anchor="start" xml:space="preserve"><tspan id="tspan2424" x="192.728" y="243.583">#c22f2f</tspan></text><text stroke-width="1" style="text-align:start;line-height:100%" id="text2426" x="192.728" y="288.583" fill="#000" fill-opacity="1" stroke="none" stroke-linecap="butt" stroke-linejoin="miter" stroke-opacity="1" font-family="Segoe" font-size="3.68" font-stretch="normal" font-style="normal" font-variant="normal" font-weight="normal" text-anchor="start" xml:space="preserve"><tspan id="tspan2428" x="192.728" y="288.583">#d3d7cf</tspan></text><text stroke-width="1" style="text-align:start;line-height:100%" id="text2430" x="192.728" y="317.583" fill="#fff" fill-opacity="1" stroke="none" stroke-linecap="butt" stroke-linejoin="miter" stroke-opacity="1" font-family="Segoe" font-size="3.68" font-stretch="normal" font-style="normal" font-variant="normal" font-weight="normal" text-anchor="start" xml:space="preserve"><tspan id="tspan2432" x="192.728" y="317.583">#555753</tspan></text><text stroke-width="1" style="text-align:start;line-height:100%" id="text2434" x="222.728" y="66.333" fill="#fff" fill-opacity="1" stroke="none" stroke-linecap="butt" stroke-linejoin="miter" stroke-opacity="1" font-family="Segoe" font-size="3.68" font-stretch="normal" font-style="normal" font-variant="normal" font-weight="normal" text-anchor="start" xml:space="preserve"><tspan id="tspan2436" x="222.728" y="66.333">#c4a000</tspan></text><text stroke-width="1" style="text-align:start;line-height:100%" id="text2438" x="222.728" y="95.583" fill="#fff" fill-opacity="1" stroke="none" stroke-linecap="butt" stroke-linejoin="miter" stroke-opacity="1" font-family="Segoe" font-size="3.68" font-stretch="normal" font-style="normal" font-variant="normal" font-weight="normal" text-anchor="start" xml:space="preserve"><tspan id="tspan2440" x="222.728" y="95.583">#ce5c00</tspan></text><text stroke-width="1" style="text-align:start;line-height:100%" id="text2442" x="222.728" y="125.083" fill="#fff" fill-opacity="1" stroke="none" stroke-linecap="butt" stroke-linejoin="miter" stroke-opacity="1" font-family="Segoe" font-size="3.68" font-stretch="normal" font-style="normal" font-variant="normal" font-weight="normal" text-anchor="start" xml:space="preserve"><tspan id="tspan2444" x="222.728" y="125.083">#745536</tspan></text><text stroke-width="1" style="text-align:start;line-height:100%" id="text2446" x="222.728" y="154.333" fill="#fff" fill-opacity="1" stroke="none" stroke-linecap="butt" stroke-linejoin="miter" stroke-opacity="1" font-family="Segoe" font-size="3.68" font-stretch="normal" font-style="normal" font-variant="normal" font-weight="normal" text-anchor="start" xml:space="preserve"><tspan id="tspan2448" x="222.728" y="154.333">#51751e</tspan></text><text stroke-width="1" style="text-align:start;line-height:100%" id="text2450" x="222.728" y="183.833" fill="#fff" fill-opacity="1" stroke="none" stroke-linecap="butt" stroke-linejoin="miter" stroke-opacity="1" font-family="Segoe" font-size="3.68" font-stretch="normal" font-style="normal" font-variant="normal" font-weight="normal" text-anchor="start" xml:space="preserve"><tspan id="tspan2452" x="222.728" y="183.833">#204a87</tspan></text><text stroke-width="1" style="text-align:start;line-height:100%" id="text2454" x="222.728" y="214.083" fill="#fff" fill-opacity="1" stroke="none" stroke-linecap="butt" stroke-linejoin="miter" stroke-opacity="1" font-family="Segoe" font-size="3.68" font-stretch="normal" font-style="normal" font-variant="normal" font-weight="normal" text-anchor="start" xml:space="preserve"><tspan id="tspan2456" x="222.728" y="214.083">#5c3566</tspan></text><text stroke-width="1" style="text-align:start;line-height:100%" id="text2458" x="222.728" y="243.583" fill="#fff" fill-opacity="1" stroke="none" stroke-linecap="butt" stroke-linejoin="miter" stroke-opacity="1" font-family="Segoe" font-size="3.68" font-stretch="normal" font-style="normal" font-variant="normal" font-weight="normal" text-anchor="start" xml:space="preserve"><tspan id="tspan2460" x="222.728" y="243.583">#a40000</tspan></text><text stroke-width="1" style="text-align:start;line-height:100%" id="text2462" x="222.728" y="288.583" fill="#000" fill-opacity="1" stroke="none" stroke-linecap="butt" stroke-linejoin="miter" stroke-opacity="1" font-family="Segoe" font-size="3.68" font-stretch="normal" font-style="normal" font-variant="normal" font-weight="normal" text-anchor="start" xml:space="preserve"><tspan id="tspan2464" x="222.728" y="288.583">#babdb6</tspan></text><text stroke-width="1" style="text-align:start;line-height:100%" id="text2466" x="222.728" y="317.583" fill="#fff" fill-opacity="1" stroke="none" stroke-linecap="butt" stroke-linejoin="miter" stroke-opacity="1" font-family="Segoe" font-size="3.68" font-stretch="normal" font-style="normal" font-variant="normal" font-weight="normal" text-anchor="start" xml:space="preserve"><tspan id="tspan2468" x="222.728" y="317.583">#2e3436</tspan></text></g><path id="path7276" fill="#f9a1ac" fill-opacity="1" d="M 164.51654,26.4792 L 176.69334,26.4792 C 179.66994,26.4792 182.08294,28.8923 182.08294,31.8698 L 182.08294,44.0456 C 182.08294,47.0231 179.66984,49.4372 176.69334,49.4372 L 164.51654,49.4372 C 161.53994,49.4372 159.12494,47.0231 159.12494,44.0456 L 159.12494,31.8698 C 159.12494,28.8923 161.53994,26.4792 164.51654,26.4792 z"/><path id="path7278" fill="#dc6472" fill-opacity="1" d="M 194.12494,26.4792 L 206.29974,26.4792 C 209.27824,26.4792 211.69134,28.8923 211.69134,31.8698 L 211.69134,44.0456 C 211.69134,47.0231 209.27824,49.4372 206.29974,49.4372 L 194.12494,49.4372 C 191.14644,49.4372 188.73234,47.0231 188.73234,44.0456 L 188.73234,31.8698 C 188.73234,28.8923 191.14634,26.4792 194.12494,26.4792 z"/><path id="path7280" fill="#c6464b" fill-opacity="1" d="M 223.73134,26.4792 L 235.90714,26.4792 C 238.88464,26.4792 241.29774,28.8923 241.29774,31.8698 L 241.29774,44.0456 C 241.29774,47.0231 238.88464,49.4372 235.90714,49.4372 L 223.73134,49.4372 C 220.75384,49.4372 218.33974,47.0231 218.33974,44.0456 L 218.33974,31.8698 C 218.33974,28.8923 220.75384,26.4792 223.73134,26.4792 z"/><text font-size="12" style="line-height:100%" id="text7282" x="91.558" y="40.848" fill="#a7a7a7" fill-opacity="1" font-family="Trebuchet MS" font-stretch="normal" font-style="normal" font-variant="normal" font-weight="bold" text-anchor="start"><tspan id="tspan7284" x="91.558" y="40.848" font-family="Trebuchet MS" font-size="11">Illustrious</tspan></text><text stroke-width="1" style="text-align:start;line-height:100%" id="text7288" x="162.728" y="45.725" fill="#000" fill-opacity="1" stroke="none" stroke-linecap="butt" stroke-linejoin="miter" stroke-opacity="1" font-family="Segoe" font-size="3.68" font-stretch="normal" font-style="normal" font-variant="normal" font-weight="normal" text-anchor="start" xml:space="preserve"><tspan id="tspan7290" x="162.728" y="45.725">#f9a1ac</tspan></text><text stroke-width="1" style="text-align:start;line-height:100%" id="text7292" x="192.728" y="45.725" fill="#000" fill-opacity="1" stroke="none" stroke-linecap="butt" stroke-linejoin="miter" stroke-opacity="1" font-family="Segoe" font-size="3.68" font-stretch="normal" font-style="normal" font-variant="normal" font-weight="normal" text-anchor="start" xml:space="preserve"><tspan id="tspan7294" x="192.728" y="45.725" fill="#fff" fill-opacity="1">#dc6472</tspan></text><text stroke-width="1" style="text-align:start;line-height:100%" id="text7296" x="222.728" y="45.725" fill="#fff" fill-opacity="1" stroke="none" stroke-linecap="butt" stroke-linejoin="miter" stroke-opacity="1" font-family="Segoe" font-size="3.68" font-stretch="normal" font-style="normal" font-variant="normal" font-weight="normal" text-anchor="start" xml:space="preserve"><tspan id="tspan7298" x="222.728" y="45.725">#c6464b</tspan></text><text font-size="12" style="line-height:100%" id="text8048" x="107.113" y="351.874" fill="#a7a7a7" fill-opacity="1" font-family="Trebuchet MS" font-stretch="normal" font-style="normal" font-variant="normal" font-weight="bold" text-anchor="start"><tspan id="tspan8050" x="107.113" y="351.874" font-family="Trebuchet MS" font-size="11">Tribute</tspan></text><path id="path8052" fill="#bcbea7" fill-opacity="1" d="M 164.51641,337.5053 L 176.69321,337.5053 C 179.66981,337.5053 182.08281,339.9203 182.08281,342.8979 L 182.08281,355.0737 C 182.08281,358.0503 179.66971,360.4663 176.69321,360.4663 L 164.51641,360.4663 C 161.53981,360.4663 159.12481,358.0503 159.12481,355.0737 L 159.12481,342.8979 C 159.12481,339.9203 161.53981,337.5053 164.51641,337.5053 z"/><path id="path8054" fill="#9c9e8a" fill-opacity="1" d="M 194.12481,337.5053 L 206.29961,337.5053 C 209.27811,337.5053 211.69121,339.9203 211.69121,342.8979 L 211.69121,355.0737 C 211.69121,358.0503 209.27811,360.4663 206.29961,360.4663 L 194.12481,360.4663 C 191.14631,360.4663 188.73221,358.0503 188.73221,355.0737 L 188.73221,342.8979 C 188.73221,339.9203 191.14621,337.5053 194.12481,337.5053 z"/><path id="path8056" fill="#7d7e60" fill-opacity="1" d="M 223.32591,337.5053 L 235.50071,337.5053 C 238.47821,337.5053 240.89431,339.9203 240.89431,342.8979 L 240.89431,355.0737 C 240.89431,358.0503 238.47831,360.4663 235.50071,360.4663 L 223.32591,360.4663 C 220.34841,360.4663 217.93431,358.0503 217.93431,355.0737 L 217.93431,342.8979 C 217.93431,339.9203 220.34841,337.5053 223.32591,337.5053 z"/><text stroke-width="1" style="text-align:start;line-height:100%" id="text8058" x="162.728" y="357.053" fill="#000" fill-opacity="1" stroke="none" stroke-linecap="butt" stroke-linejoin="miter" stroke-opacity="1" font-family="Segoe" font-size="3.68" font-stretch="normal" font-style="normal" font-variant="normal" font-weight="normal" text-anchor="start" xml:space="preserve"><tspan id="tspan8060" x="162.728" y="357.053">#bcbea7</tspan></text><text stroke-width="1" style="text-align:start;line-height:100%" id="text8062" x="192.728" y="357.053" fill="#000" fill-opacity="1" stroke="none" stroke-linecap="butt" stroke-linejoin="miter" stroke-opacity="1" font-family="Segoe" font-size="3.68" font-stretch="normal" font-style="normal" font-variant="normal" font-weight="normal" text-anchor="start" xml:space="preserve"><tspan id="tspan8064" x="192.728" y="357.053" fill="#fff" fill-opacity="1">#9c9e8a</tspan></text><text stroke-width="1" style="text-align:start;line-height:100%" id="text8066" x="222.728" y="357.053" fill="#fff" fill-opacity="1" stroke="none" stroke-linecap="butt" stroke-linejoin="miter" stroke-opacity="1" font-family="Segoe" font-size="3.68" font-stretch="normal" font-style="normal" font-variant="normal" font-weight="normal" text-anchor="start" xml:space="preserve"><tspan id="tspan8068" x="222.728" y="357.053">#7d7e60</tspan></text></svg>