<svg xmlns="http://www.w3.org/2000/svg" xmlns:svg="http://www.w3.org/2000/svg" xmlns:xlink="http://www.w3.org/1999/xlink" id="svg8583" width="48" height="48"><defs id="defs8585"><linearGradient id="linearGradient8568"><stop id="stop8570" offset="0" stop-color="#fff" stop-opacity="1"/><stop id="stop8572" offset="1" stop-color="#fff" stop-opacity="0"/></linearGradient><linearGradient id="linearGradient8574" x1="24.899" x2="25" y1="-.121" y2="68.069" gradientTransform="translate(1.079483e-8,-3.7137712e-6)" gradientUnits="userSpaceOnUse" xlink:href="#linearGradient8568"/><linearGradient id="linearGradient7668"><stop id="stop7670" offset="0" stop-color="#94b6db" stop-opacity="1"/><stop id="stop7672" offset="1" stop-color="#3465a4" stop-opacity="1"/></linearGradient><linearGradient id="linearGradient7674" x1="25.071" x2="35.095" y1="4.714" y2="44.5" gradientTransform="translate(-3.9798921e-4,-3.7137712e-6)" gradientUnits="userSpaceOnUse" xlink:href="#linearGradient7668"/><radialGradient id="radialGradient10956" cx="5.455" cy="20.124" r="4.331" fx="5.455" fy="20.124" gradientTransform="matrix(0.941776,0,0,0.274284,0.317611,14.4024)" gradientUnits="userSpaceOnUse" xlink:href="#linearGradient10950"/><linearGradient id="linearGradient10950"><stop id="stop10952" offset="0" stop-color="#000" stop-opacity="1"/><stop id="stop10954" offset="1" stop-color="#000" stop-opacity="0"/></linearGradient><radialGradient id="radialGradient10960" cx="5.455" cy="20.124" r="4.331" fx="5.455" fy="20.124" gradientTransform="matrix(0.941776,0,0,0.274284,0.317611,14.4024)" gradientUnits="userSpaceOnUse" xlink:href="#linearGradient10950"/></defs><metadata id="metadata8588"/><g id="layer1"><path id="path10958" fill="url(#radialGradient10960)" fill-opacity="1" stroke="none" stroke-dasharray="none" stroke-dashoffset="0" stroke-linecap="round" stroke-linejoin="miter" stroke-miterlimit="4" stroke-opacity="1" stroke-width="1" d="M 9.7669125,19.812387 A 4.3310289,1.524699 0 1 1 1.1048546,19.812387 A 4.3310289,1.524699 0 1 1 9.7669125,19.812387 z" opacity=".3" transform="matrix(0.692676,0,0,0.9838008,40.234695,23.008553)"/><path id="path10060" fill="url(#radialGradient10956)" fill-opacity="1" stroke="none" stroke-dasharray="none" stroke-dashoffset="0" stroke-linecap="round" stroke-linejoin="miter" stroke-miterlimit="4" stroke-opacity="1" stroke-width="1" d="M 9.7669125,19.812387 A 4.3310289,1.524699 0 1 1 1.1048546,19.812387 A 4.3310289,1.524699 0 1 1 9.7669125,19.812387 z" opacity=".3" transform="matrix(3.4633802,0,0,1.6396679,-3.8265315,11.014264)"/><path id="path5556" fill="url(#linearGradient7674)" fill-opacity="1" fill-rule="evenodd" stroke="#204a87" stroke-linecap="round" stroke-linejoin="round" stroke-opacity="1" stroke-width="1" d="M 4.5710305,41.499996 C 4.5472205,32.023806 18.405985,4.6438863 24.856745,4.4999963 C 28.082723,4.4280373 32.916057,10.487561 36.981586,18.321027 C 41.047116,26.154493 44.344841,35.7619 44.499603,42.78571 C 44.499603,42.78571 28.89246,12.624997 24.999603,12.535711 C 21.035317,12.446425 10.27527,33.785299 11.555187,36.162288 C 12.805187,38.483717 35.999603,30.999996 35.999603,30.999996 C 35.499603,31.761901 20.356746,41.666663 8.9996015,43.999996 C 7.2853165,43.952377 4.7138875,43.976186 4.5710305,41.499996 z"/><path id="path6760" fill="none" fill-opacity=".75" fill-rule="evenodd" stroke="url(#linearGradient8574)" stroke-linecap="butt" stroke-linejoin="miter" stroke-opacity="1" stroke-width="1" d="M 5.6067705,41.131749 C 6.0126815,32.223918 18.66633,5.6369443 24.805507,5.5005993 C 30.945824,5.3642293 40.776438,26.289078 42.785297,37.385754 C 42.785297,37.385754 29.46772,11.441904 24.941465,11.500158 C 20.379496,11.558411 8.5608735,34.018217 10.644018,36.72758 C 12.709861,39.414443 28.937631,34.418627 28.937631,34.418627 C 28.068925,35.033434 18.80858,40.396818 9.9642905,42.786363 C 7.8685215,42.919812 5.7427265,43.478087 5.6067705,41.131749 z" opacity=".6"/></g></svg>