<svg xmlns="http://www.w3.org/2000/svg" xmlns:svg="http://www.w3.org/2000/svg" xmlns:xlink="http://www.w3.org/1999/xlink" id="svg7219" width="48" height="48"><defs id="defs7221"><linearGradient id="linearGradient33761" x1="19.695" x2="31.038" y1="28.338" y2="40.912" gradientTransform="translate(-1.7666466e-4,-2.3150115e-4)" gradientUnits="userSpaceOnUse" xlink:href="#linearGradient34648"/><linearGradient id="linearGradient32868" x1="23.02" x2="28.304" y1="30.235" y2="37.394" gradientTransform="matrix(0.83949,0,0,0.893955,1.1975353,3.8058689)" gradientUnits="userSpaceOnUse" xlink:href="#linearGradient19466"/><linearGradient id="linearGradient19472" x1="23.02" x2="28.304" y1="30.235" y2="37.394" gradientTransform="translate(-3.5001767,-2.3150115e-4)" gradientUnits="userSpaceOnUse" xlink:href="#linearGradient19466"/><linearGradient id="linearGradient31979" x1="167.755" x2="404.871" y1="464.587" y2="873.35" gradientUnits="userSpaceOnUse" xlink:href="#linearGradient25671"/><linearGradient id="linearGradient19466"><stop id="stop19468" offset="0" stop-color="#f1f1f1" stop-opacity="1"/><stop id="stop19470" offset="1" stop-color="#babdb6" stop-opacity="1"/></linearGradient><linearGradient id="linearGradient36440" x1="277.442" x2="255.778" y1="592.789" y2="737.884" gradientUnits="userSpaceOnUse" xlink:href="#linearGradient19466"/><linearGradient id="linearGradient34648"><stop id="stop34650" offset="0" stop-color="#fff" stop-opacity="1"/><stop id="stop34652" offset="1" stop-color="#fff" stop-opacity="0"/></linearGradient><linearGradient id="linearGradient35547" x1="37.018" x2="33.773" y1="48.147" y2="41.068" gradientTransform="translate(-1.7666466e-4,-2.3150115e-4)" gradientUnits="userSpaceOnUse" xlink:href="#linearGradient34648"/><linearGradient id="linearGradient27530" x1="10.445" x2="28.927" y1="-1.877" y2="30.1" gradientTransform="translate(-1.7666466e-4,-2.3150115e-4)" gradientUnits="userSpaceOnUse" xlink:href="#linearGradient25671"/><radialGradient id="radialGradient15914" cx="20.779" cy="17.633" r="12.685" fx="20.779" fy="17.633" gradientTransform="matrix(0.176863,0.27813,-0.416006,0.264538,23.304764,4.6950359)" gradientUnits="userSpaceOnUse" xlink:href="#linearGradient11455"/><linearGradient id="linearGradient28425" x1="13.921" x2="39.115" y1="-10.034" y2="15.865" gradientTransform="matrix(1.001472,0,0,0.958895,-4.7786565e-2,0.4915165)" gradientUnits="userSpaceOnUse" xlink:href="#linearGradient25671"/><linearGradient id="linearGradient25671"><stop id="stop25673" offset="0" stop-color="#fff" stop-opacity="1"/><stop id="stop25675" offset="1" stop-color="#fff" stop-opacity="0"/></linearGradient><linearGradient id="linearGradient25677" x1="9.295" x2="17.135" y1="3.546" y2="12.561" gradientTransform="translate(-1.7666466e-4,-2.3150115e-4)" gradientUnits="userSpaceOnUse" xlink:href="#linearGradient25671"/><linearGradient id="linearGradient11461" x1="13.144" x2="15.283" y1="3.771" y2="10.842" gradientTransform="matrix(1.095718,0,0,1.095718,-5.7170797,-1.7481015)" gradientUnits="userSpaceOnUse" xlink:href="#linearGradient11455"/><linearGradient id="linearGradient11455"><stop id="stop11457" offset="0" stop-color="#e7a53c" stop-opacity="1"/><stop id="stop11459" offset="1" stop-color="#c17d11" stop-opacity="1"/></linearGradient><linearGradient id="linearGradient14124" x1="30.288" x2="33.18" y1="9.984" y2="14.138" gradientTransform="translate(-3.5001767,-2.3150115e-4)" gradientUnits="userSpaceOnUse" xlink:href="#linearGradient11455"/><linearGradient id="linearGradient3816"><stop id="stop3818" offset="0" stop-color="#000" stop-opacity="1"/><stop id="stop3820" offset="1" stop-color="#000" stop-opacity="0"/></linearGradient><radialGradient id="radialGradient9675" cx="31.113" cy="19.009" r="8.662" fx="31.113" fy="19.009" gradientUnits="userSpaceOnUse" xlink:href="#linearGradient3816"/></defs><metadata id="metadata7224"/><g id="layer1"><path id="path4306" fill="url(#radialGradient9675)" fill-opacity="1" fill-rule="evenodd" stroke="none" stroke-dasharray="none" stroke-dashoffset="0" stroke-linecap="round" stroke-linejoin="round" stroke-miterlimit="4" stroke-opacity="1" stroke-width="1" marker-end="none" marker-mid="none" marker-start="none" d="M 39.774755,19.008621 A 8.6620579,8.6620579 0 1 1 22.45064,19.008621 A 8.6620579,8.6620579 0 1 1 39.774755,19.008621 z" display="inline" opacity=".4" overflow="visible" transform="matrix(2.483044,0,0,0.6466,-52.204926,30.096139)" visibility="visible" style="marker:none"/><path id="path916" fill="#c00" fill-opacity="1" fill-rule="evenodd" stroke="#a40000" stroke-dasharray="none" stroke-linecap="butt" stroke-linejoin="miter" stroke-miterlimit="4" stroke-opacity="1" stroke-width="1" d="M 29.857261,40.757828 C 30.112078,39.707904 33.920722,38.556367 35.187238,39.086037 C 36.58571,39.670892 38.171941,42.784085 37.852227,44.101406 C 37.597138,45.152454 34.561624,46.650668 33.462833,46.191142 C 31.896636,45.536142 29.537274,42.076273 29.857261,40.757828 z" display="inline"/><path id="path917" fill="#8f5902" fill-opacity="1" fill-rule="evenodd" stroke="none" stroke-linecap="butt" stroke-linejoin="miter" stroke-opacity="1" stroke-width="1pt" d="M 30.806973,14.411382 L 34.523669,16.211143 L 31.820852,15.378304 L 34.249221,17.82345 L 30.807835,16.157002 L 32.547927,18.268859 L 29.519507,16.802386 L 30.806973,14.411382 z" display="inline"/><path id="path919" fill="#8e580d" fill-opacity="1" fill-rule="evenodd" stroke="none" stroke-linecap="butt" stroke-linejoin="miter" stroke-opacity="1" stroke-width="1pt" d="M 13.701855,16.15565 L 9.9174033,17.840211 L 12.650987,17.090863 L 10.129003,19.459982 L 13.633125,17.900202 L 11.811964,19.957365 L 14.89559,18.584761 L 13.701855,16.15565 z" display="inline"/><path id="path837" fill="url(#linearGradient14124)" fill-opacity="1" fill-rule="evenodd" stroke="#8f5902" stroke-dasharray="none" stroke-linecap="butt" stroke-linejoin="miter" stroke-miterlimit="4" stroke-opacity="1" stroke-width="1.096" d="M 25.377654,9.6013199 C 27.226503,8.8496739 30.29693,8.7213329 32.418473,9.4909419 C 35.991942,10.787251 43.541281,15.360569 42.462692,15.799067 C 40.772886,16.486057 28.905154,14.605695 24.113289,12.867404 C 23.210142,12.539778 24.458108,9.9751599 25.377654,9.6013199 z" display="inline"/><path id="path839" fill="url(#linearGradient11461)" fill-opacity="1" fill-rule="evenodd" stroke="#8f5902" stroke-dasharray="none" stroke-miterlimit="4" stroke-opacity="1" stroke-width="1.096" d="M 18.765067,17.132152 C 19.011589,14.932494 18.225442,11.616183 16.766014,9.5827939 C 14.307794,6.1578139 7.1559373,-0.5262053 7.0121203,0.7570416 C 6.7868063,2.7674824 12.362255,14.871109 15.65862,19.463857 C 16.279906,20.329479 18.642458,18.226182 18.765067,17.132152 z" display="inline"/><path id="path866" fill="#a76f1c" fill-opacity="1" fill-rule="evenodd" stroke="#8b580c" stroke-dasharray="none" stroke-linecap="square" stroke-linejoin="miter" stroke-miterlimit="21" stroke-opacity="1" stroke-width=".599" d="M 19.179053,13.13396 L 17.898767,6.5466409 L 20.20733,9.9088639 L 20.784295,6.4875509 L 21.401121,9.9639669 L 24.006685,6.4135099 L 23.02918,12.049735 L 19.179053,13.13396 z" display="inline"/><path id="path21244" fill="none" fill-opacity="1" fill-rule="evenodd" stroke="url(#linearGradient25677)" stroke-dasharray="none" stroke-miterlimit="6.2" stroke-opacity=".471" stroke-width=".8" d="M 17.836619,16.181319 C 17.610712,14.213654 17.69389,12.44886 15.833797,9.9989819 C 14.523257,8.2729069 10.91109,4.1636029 8.3247365,2.3084132 C 9.6972734,7.0057469 12.538561,12.296831 14.911098,16.462915 C 15.34317,17.221617 17.948979,17.159965 17.836619,16.181319 z" display="inline" opacity="1"/><path id="path27532" fill="none" fill-opacity="1" fill-rule="evenodd" stroke="url(#linearGradient28425)" stroke-dasharray="none" stroke-linecap="butt" stroke-linejoin="miter" stroke-miterlimit="4" stroke-opacity="1" stroke-width="1.074" d="M 25.398695,11.046837 C 26.196933,9.8241209 30.286745,9.7409189 32.35599,10.611377 C 35.809535,12.064157 39.207618,14.172112 39.817425,14.62255 C 37.937356,14.562131 30.183228,13.777887 25.384309,12.11105 C 24.479832,11.796891 24.960092,11.718676 25.398695,11.046837 z" display="inline"/><path id="path826" fill="url(#radialGradient15914)" fill-opacity="1" fill-rule="evenodd" stroke="#8f5902" stroke-dasharray="none" stroke-linecap="butt" stroke-linejoin="miter" stroke-miterlimit="4" stroke-opacity="1" stroke-width="1" d="M 21.862298,11.362196 C 19.377246,11.61525 15.935148,14.034209 14.96468,16.238251 C 13.583687,19.374647 14.807916,23.668425 14.807916,27.383513 C 14.807916,31.098599 12.29337,37.748285 14.96468,38.528775 C 19.922551,39.977337 33.759036,37.135547 37.695466,34.07067 C 39.663816,32.538126 33.961587,27.969869 32.679015,24.736512 C 31.401107,21.514905 32.046312,17.218589 30.014028,14.705776 C 28.440739,12.760485 24.393695,11.104424 21.862298,11.362196 z" display="inline"/><path id="path26572" fill="none" fill-opacity="1" fill-rule="evenodd" stroke="url(#linearGradient27530)" stroke-linecap="butt" stroke-linejoin="miter" stroke-opacity="1" stroke-width="1" d="M 15.070037,32.708585 C 16.387846,27.926793 15.37211,23.279256 15.190409,18.978092 C 15.581331,14.227298 21.062286,10.972883 25.433018,12.908038 C 29.213229,14.399337 30.442885,15.875932 30.897871,21.469376 C 31.272872,23.991697 32.173781,26.554229 33.95517,28.454749 C 34.614245,29.626579 33.71709,31.261051 32.411271,31.438851 C 32.166537,31.545436 31.963188,31.734206 31.819629,31.957283" display="inline"/><path id="path34654" fill="none" fill-opacity="1" fill-rule="evenodd" stroke="url(#linearGradient35547)" stroke-dasharray="none" stroke-linecap="butt" stroke-linejoin="miter" stroke-miterlimit="4" stroke-opacity="1" stroke-width=".802" d="M 31.032782,40.800515 C 31.224031,39.899675 33.508026,39.132622 34.458589,39.58708 C 35.50819,40.088889 37.273235,42.539053 37.033279,43.669322 C 36.841825,44.571126 34.563569,45.856601 33.738888,45.462325 C 32.563404,44.900333 30.792621,41.931748 31.032782,40.800515 z" display="inline"/><path id="path829" fill="url(#linearGradient36440)" fill-opacity="1" fill-rule="evenodd" stroke="#2e3436" stroke-dasharray="none" stroke-miterlimit="4" stroke-width="14.666" d="M 488.60519,683.87244 A 167.95804,128.25887 0 1 1 152.68912,683.87244 A 167.95804,128.25887 0 1 1 488.60519,683.87244 z" display="inline" transform="matrix(7.560183e-2,-1.219804e-2,1.446975e-2,5.916334e-2,-8.3179437,-0.5613035)"/><path id="path31086" fill="none" fill-opacity="1" fill-rule="evenodd" stroke="url(#linearGradient31979)" stroke-dasharray="none" stroke-miterlimit="4" stroke-width="15.991" d="M 488.60519,683.87244 A 167.95804,123.25634 0 1 1 152.68912,683.87244 A 167.95804,123.25634 0 1 1 488.60519,683.87244 z" display="inline" transform="matrix(7.011866e-2,-1.106232e-2,1.342031e-2,5.365485e-2,-5.8420947,2.8195395)"/><path id="path850" fill="#454242" fill-rule="evenodd" stroke="#000" stroke-dasharray="none" stroke-miterlimit="4" stroke-width="1" d="M 30.641054,36.160408 C 30.286845,35.662003 31.773846,30.299205 32.678984,29.333935 C 33.080209,28.906048 34.808278,31.149784 34.560149,31.980933 C 34.128971,33.425273 30.9139,36.544336 30.641054,36.160408 z" display="inline"/><path id="path851" fill="#454242" fill-rule="evenodd" stroke="#2e3436" stroke-dasharray="none" stroke-miterlimit="4" stroke-width="1" d="M 21.821393,37.272798 C 21.953107,36.695049 18.418164,32.152259 17.186047,31.53597 C 16.639872,31.262779 15.922141,33.905874 16.486513,34.604357 C 17.467256,35.81815 21.719931,37.717845 21.821393,37.272798 z" display="inline"/><path id="path28427" fill="#453317" fill-opacity="1" fill-rule="evenodd" stroke="#8f5902" stroke-dasharray="none" stroke-miterlimit="4" stroke-width="3.427" d="M 460.10323,460.94629 A 37.663319,55.986012 0 1 1 384.77659,460.94629 A 37.663319,55.986012 0 1 1 460.10323,460.94629 z" display="inline" transform="matrix(8.135188e-2,-2.647581e-2,2.820187e-2,8.502398e-2,-27.585366,-2.9826765)"/><path id="path862" fill="#eeeeec" fill-rule="evenodd" stroke="#555753" stroke-width="7.694" d="M 460.10323,460.94629 A 37.663319,55.986012 0 1 1 384.77659,460.94629 A 37.663319,55.986012 0 1 1 460.10323,460.94629 z" display="inline" transform="matrix(8.19721e-2,-1.230666e-2,1.536351e-2,8.082109e-2,-21.421376,-7.5613145)"/><path id="path863" fill-rule="evenodd" stroke="#000" stroke-width="1pt" d="M 321.66509,487.41241 A 24.43026,23.412333 0 1 1 272.80457,487.41241 A 24.43026,23.412333 0 1 1 321.66509,487.41241 z" display="inline" transform="matrix(7.557461e-2,-1.630819e-2,1.276721e-2,9.653521e-2,-7.4746857,-15.785412)"/><path id="path30199" fill="#453317" fill-opacity="1" fill-rule="evenodd" stroke="#8f5902" stroke-dasharray="none" stroke-miterlimit="4" stroke-width="3.427" d="M 460.10323,460.94629 A 37.663319,55.986012 0 1 1 384.77659,460.94629 A 37.663319,55.986012 0 1 1 460.10323,460.94629 z" display="inline" transform="matrix(-8.524846e-2,-7.197017e-3,-8.038829e-3,8.921771e-2,68.161164,-14.208962)"/><path id="path828" fill="#eeeeec" fill-rule="evenodd" stroke="#555753" stroke-width="7.694" d="M 460.10323,460.94629 A 37.663319,55.986012 0 1 1 384.77659,460.94629 A 37.663319,55.986012 0 1 1 460.10323,460.94629 z" display="inline" transform="matrix(8.313358e-2,0,0,8.196622e-2,-7.3402607,-14.438682)"/><path id="path857" fill-rule="evenodd" stroke="#000" stroke-width="1pt" d="M 321.66509,487.41241 A 24.43026,23.412333 0 1 1 272.80457,487.41241 A 24.43026,23.412333 0 1 1 321.66509,487.41241 z" display="inline" transform="matrix(7.666583e-2,0,0,9.609642e-2,4.4445843,-21.369511)"/><path id="path16807" fill="#fff" fill-opacity="1" fill-rule="evenodd" stroke="none" stroke-width="1pt" d="M 321.66509,487.41241 A 24.43026,23.412333 0 1 1 272.80457,487.41241 A 24.43026,23.412333 0 1 1 321.66509,487.41241 z" display="inline" transform="matrix(4.035074e-2,-9.003869e-3,6.81666e-3,5.32978e-2,5.4976983,2.2340555)"/><path id="path17694" fill="#fff" fill-opacity="1" fill-rule="evenodd" stroke="none" stroke-width="1pt" d="M 321.66509,487.41241 A 24.43026,23.412333 0 1 1 272.80457,487.41241 A 24.43026,23.412333 0 1 1 321.66509,487.41241 z" display="inline" transform="matrix(4.035074e-2,-9.003869e-3,6.81666e-3,5.32978e-2,11.596494,1.1733945)"/><path id="path844" fill="url(#linearGradient19472)" fill-opacity="1" fill-rule="evenodd" stroke="#2e3436" stroke-dasharray="none" stroke-miterlimit="1" stroke-width="1" d="M 17.316112,30.50721 C 19.716634,28.547373 29.27048,26.980748 32.05193,28.19941 C 33.659869,28.903915 30.515649,33.622108 30.484294,36.276711 C 30.463394,38.045391 33.261139,41.353398 32.208698,42.190448 C 30.178121,43.805436 23.533168,44.50876 21.235213,43.632821 C 19.87534,43.114464 22.288577,39.239161 21.705505,37.286372 C 20.982209,34.863955 16.006552,31.576361 17.316112,30.50721 z" display="inline"/><path id="path32866" fill="url(#linearGradient32868)" fill-opacity="1" fill-rule="evenodd" stroke="url(#linearGradient33761)" stroke-dasharray="none" stroke-miterlimit="1" stroke-width="1" d="M 18.893573,30.901402 C 20.908787,29.149393 28.487202,28.676977 31.440921,28.882523 C 31.597527,29.910068 29.444122,33.86276 29.417799,36.235859 C 29.400253,37.816981 32.367651,40.862582 31.484137,41.610868 C 29.775487,43.049595 23.324198,43.007032 21.830066,42.767703 C 21.837514,41.685596 23.288879,38.795769 22.799395,37.050062 C 22.192196,34.884528 17.794211,31.857175 18.893573,30.901402 z" display="inline"/></g></svg>