<svg xmlns="http://www.w3.org/2000/svg" xmlns:svg="http://www.w3.org/2000/svg" xmlns:xlink="http://www.w3.org/1999/xlink" id="svg7436" width="48" height="48"><defs id="defs7438"><linearGradient id="linearGradient1467" x1="2.75" x2="9.188" y1="20.813" y2="28.375" gradientTransform="translate(2,0)" gradientUnits="userSpaceOnUse" xlink:href="#linearGradient2425"/><linearGradient id="linearGradient1465" x1="11.428" x2="11.844" y1="28.303" y2="22.063" gradientUnits="userSpaceOnUse" xlink:href="#linearGradient2437"/><linearGradient id="linearGradient2425"><stop id="stop2427" offset="0" stop-color="#EEEEEC"/><stop id="stop2429" offset="1" stop-color="#888A85"/></linearGradient><linearGradient id="linearGradient2431" x1="2.75" x2="9.188" y1="20.813" y2="28.375" gradientTransform="translate(2,0)" gradientUnits="userSpaceOnUse" xlink:href="#linearGradient2425"/><linearGradient id="linearGradient2437"><stop id="stop2439" offset="0" stop-color="#555753" stop-opacity="1"/><stop id="stop2441" offset="1" stop-color="#BABDB6"/></linearGradient><linearGradient id="linearGradient2443" x1="11.428" x2="11.844" y1="28.303" y2="22.063" gradientUnits="userSpaceOnUse" xlink:href="#linearGradient2437"/><linearGradient id="linearGradient2419" x1="8.181" x2="8.219" y1="24.199" y2="26.17" gradientUnits="userSpaceOnUse" xlink:href="#linearGradient2409"/><linearGradient id="linearGradient2409"><stop id="stop2411" offset="0" stop-color="#204A87" stop-opacity="1"/><stop id="stop2413" offset="1" stop-color="#729FCF"/></linearGradient><linearGradient id="linearGradient2415" x1="8.181" x2="8.219" y1="24.199" y2="26.17" gradientUnits="userSpaceOnUse" xlink:href="#linearGradient2409"/><linearGradient id="linearGradient2435" x1="8.187" x2="8.004" y1="18.338" y2="23.596" gradientTransform="translate(-1.0004,6.00325)" gradientUnits="userSpaceOnUse" xlink:href="#linearGradient2341"/><linearGradient id="linearGradient2341"><stop id="stop2343" offset="0" stop-color="#FFF" stop-opacity="1"/><stop id="stop2345" offset="1" stop-color="#FFF" stop-opacity="0"/></linearGradient><linearGradient id="linearGradient2433" x1="8.187" x2="8.004" y1="18.338" y2="23.596" gradientTransform="translate(0.9996,5.9996)" gradientUnits="userSpaceOnUse" xlink:href="#linearGradient2341"/><linearGradient id="linearGradient2305"><stop id="stop2307" offset="0" stop-color="#729FCF"/><stop id="stop2309" offset="1" stop-color="#3465A4"/></linearGradient><radialGradient id="radialGradient2311" cx="4.806" cy="21.569" r="6.022" fx="4.806" fy="21.569" gradientTransform="matrix(2.26743,0,0,2.82078,-3.95814,-35.9882)" gradientUnits="userSpaceOnUse" xlink:href="#linearGradient2305"/><linearGradient id="linearGradient2900"><stop id="stop2902" offset="0" stop-color="#555753"/><stop id="stop2904" offset="1" stop-color="#888A85"/></linearGradient><linearGradient id="linearGradient2382" x1="8.512" x2="14.544" y1="31.854" y2="11.463" gradientTransform="translate(0.9996,5.9996)" gradientUnits="userSpaceOnUse" xlink:href="#linearGradient2900"/><linearGradient id="linearGradient2361"><stop id="stop2363" offset="0" stop-color="#729FCF"/><stop id="stop2365" offset="1" stop-color="#3465A4"/></linearGradient><radialGradient id="radialGradient2359" cx="39.31" cy="25.268" r="6.003" fx="39.31" fy="25.268" gradientTransform="matrix(2.04356,1.68664e-7,-1.48145e-7,2.61267,-43.9309,-37.2482)" gradientUnits="userSpaceOnUse" xlink:href="#linearGradient2361"/><linearGradient id="linearGradient2854"><stop id="stop2856" offset="0" stop-color="#888A85" stop-opacity="1"/><stop id="stop2862" offset=".3" stop-color="#BABDB6" stop-opacity="1"/><stop id="stop2858" offset="1" stop-color="#888A85" stop-opacity="1"/></linearGradient><linearGradient id="linearGradient2860" x1="3.5" x2="44.5" y1="7" y2="7" gradientTransform="matrix(0.926403,0,0,1.625,1.75663,-0.4378997)" gradientUnits="userSpaceOnUse" xlink:href="#linearGradient2854"/><linearGradient id="linearGradient2384"><stop id="stop2386" offset="0" stop-color="#555753"/><stop id="stop2388" offset="1" stop-color="#888A85"/></linearGradient><linearGradient id="linearGradient2390" x1="40" x2="32.016" y1="25.524" y2="21.594" gradientTransform="translate(-1.0004,5.9996)" gradientUnits="userSpaceOnUse" xlink:href="#linearGradient2384"/><linearGradient id="linearGradient2497"><stop id="stop2499" offset="0" stop-color="#CE5C00" stop-opacity="0"/><stop id="stop2505" offset=".05" stop-color="#CE5C00" stop-opacity="0"/><stop id="stop2507" offset=".2" stop-color="#CE5C00" stop-opacity="1"/><stop id="stop2509" offset=".8" stop-color="#CE5C00" stop-opacity="1"/><stop id="stop2511" offset=".95" stop-color="#CE5C00" stop-opacity="0"/><stop id="stop2501" offset="1" stop-color="#CE5C00" stop-opacity="0"/></linearGradient><linearGradient id="linearGradient2357" x1="12.527" x2="34.814" y1="25.813" y2="25.813" gradientTransform="matrix(0.863725,0,0,1.39468,3.7347003,-6.0542697)" gradientUnits="userSpaceOnUse" xlink:href="#linearGradient2497"/><linearGradient id="linearGradient2477"><stop id="stop2487" offset="0" stop-color="#FCAF3E" stop-opacity="0"/><stop id="stop2489" offset=".1" stop-color="#FCAF3E" stop-opacity="0"/><stop id="stop2493" offset=".2" stop-color="#FECE88" stop-opacity="1"/><stop id="stop2495" offset=".8" stop-color="#FCAF3E" stop-opacity="1"/><stop id="stop2491" offset=".9" stop-color="#FCAF3E" stop-opacity="0"/><stop id="stop2485" offset="1" stop-color="#FCAF3E" stop-opacity="0"/></linearGradient><linearGradient id="linearGradient2360" x1="9.975" x2="36.459" y1="23.938" y2="23.938" gradientTransform="matrix(0.863725,0,0,1.39468,3.7347003,-6.0542697)" gradientUnits="userSpaceOnUse" xlink:href="#linearGradient2477"/><radialGradient id="radialGradient3253" cx="9.625" cy="40.75" r="7.5" fx="9.625" fy="40.75" gradientTransform="matrix(1,0,0,0.55,0,18.3375)" gradientUnits="userSpaceOnUse" xlink:href="#linearGradient3247"/><linearGradient id="linearGradient2758"><stop id="stop2760" offset="0" stop-color="#363636" stop-opacity="1"/><stop id="stop2762" offset="1" stop-color="#D3D7CF" stop-opacity="0"/></linearGradient><linearGradient id="linearGradient2343" x1="42.692" x2="42.692" y1="40.398" y2="44.846" gradientTransform="translate(-0.842422,8.70403)" gradientUnits="userSpaceOnUse" xlink:href="#linearGradient2758"/><linearGradient id="linearGradient2813"><stop id="stop2815" offset="0" stop-color="#000" stop-opacity="1"/><stop id="stop2817" offset="1" stop-color="#000" stop-opacity="0"/></linearGradient><linearGradient id="linearGradient2346" x1="37.06" x2="38.531" y1="38.638" y2="44.126" gradientTransform="translate(-0.842422,8.70403)" gradientUnits="userSpaceOnUse" xlink:href="#linearGradient2813"/><linearGradient id="linearGradient3247"><stop id="stop3249" offset="0" stop-color="#555753" stop-opacity="1"/><stop id="stop3251" offset="1" stop-color="#555753" stop-opacity="0"/></linearGradient><radialGradient id="radialGradient3257" cx="9.625" cy="40.75" r="7.5" fx="9.625" fy="40.75" gradientTransform="matrix(1,0,0,0.55,0,18.3375)" gradientUnits="userSpaceOnUse" xlink:href="#linearGradient3247"/></defs><metadata id="metadata7441"/><g id="layer1"><path id="path3255" fill="url(#radialGradient3257)" fill-opacity="1" stroke="none" stroke-dasharray="none" stroke-miterlimit="4" stroke-opacity="1" stroke-width="1" d="M 17.125,40.75 A 7.5,4.125 0 1 1 2.125,40.75 A 7.5,4.125 0 1 1 17.125,40.75 z" opacity=".5" transform="translate(26.8746,-0.6253997)"/><path id="path2809" fill="none" fill-opacity="1" fill-rule="evenodd" stroke="url(#linearGradient2346)" stroke-linecap="round" stroke-linejoin="miter" stroke-opacity="1" stroke-width="1" d="M 42.1576,32.204 C 34.4421,41.9341 44.0719,40.8595 45.1576,43.204 C 46.2671,45.6002 31.6871,43.8121 31.4996,46.9996 C 31.3364,49.6829 46.6565,46.5165 46.6565,49.204 C 46.6565,52.5218 36.969,49.579 37.1565,58.204" opacity=".4"/><path id="path2754" fill="none" fill-opacity="1" fill-rule="evenodd" stroke="url(#linearGradient2343)" stroke-linecap="round" stroke-linejoin="miter" stroke-opacity="1" stroke-width="1" d="M 42.1576,31.204 C 34.4421,40.9341 44.0719,39.8595 45.1576,42.204 C 46.2671,44.6002 31.6871,42.8121 31.4996,45.9996 C 31.3364,48.6829 46.6565,45.5165 46.6565,48.204 C 46.6565,51.5218 36.969,48.579 37.1565,57.204"/><path id="path2266" fill="url(#radialGradient3253)" fill-opacity="1" stroke="none" stroke-dasharray="none" stroke-miterlimit="4" stroke-opacity="1" stroke-width="1" d="M 17.125,40.75 A 7.5,4.125 0 1 1 2.125,40.75 A 7.5,4.125 0 1 1 17.125,40.75 z" opacity=".5" transform="translate(-4e-4,-3.997e-4)"/><path id="path1531" fill="none" fill-opacity="1" fill-rule="evenodd" stroke="url(#linearGradient2360)" stroke-dasharray="none" stroke-linecap="round" stroke-linejoin="miter" stroke-miterlimit="20" stroke-opacity="1" stroke-width="2.5" marker-mid="none" marker-start="none" d="M 15.8834,32.8696 L 17.9209,23.701 L 18.9397,35.4891 L 20.4696,27.4181 L 22.25,37.8783 L 24.0304,27.4181 L 25.0492,30.0377 L 26.4042,23.9314 L 27.9699,35.4864 L 29.1274,25.0108 L 30.1461,28.9402 L 31.1649,32.8696 L 32.1837,30.25"/><path id="path5525" fill="none" fill-opacity="1" fill-rule="evenodd" stroke="url(#linearGradient2357)" stroke-dasharray="none" stroke-linecap="round" stroke-linejoin="miter" stroke-miterlimit="9.3" stroke-opacity="1" stroke-width="1.25" marker-mid="none" marker-start="none" d="M 15.8834,32.8696 L 17.9209,23.701 L 18.9397,35.4891 L 20.4696,27.4181 L 22.25,37.8783 L 24.0304,27.4181 L 25.0492,30.0377 L 26.4042,23.9314 L 27.9699,35.3614 L 29.1274,25.0108 L 30.1461,28.9402 L 31.1649,32.8696 L 32.1837,30.25"/><rect id="rect2295" width="6" height="18" x="32.5" y="21.5" fill="url(#linearGradient2390)" fill-opacity="1" fill-rule="nonzero" stroke="#555753" stroke-dasharray="none" stroke-dashoffset="0" stroke-linecap="round" stroke-linejoin="round" stroke-miterlimit="4" stroke-opacity="1" stroke-width="1" display="inline" opacity="1" overflow="visible" rx="3" ry="3" visibility="visible" style="marker:none"/><path id="path2489" fill="none" fill-opacity=".75" fill-rule="evenodd" stroke="#555753" stroke-dasharray="none" stroke-linecap="round" stroke-linejoin="miter" stroke-miterlimit="4" stroke-opacity="1" stroke-width="3" d="M 5.3914403,19.0621 C 5.3914403,19.0621 5.1588003,2.8121003 23.9735,2.8121003 C 42.672,2.8121003 42.5555,19.0621 42.5555,19.0621"/><path id="path2487" fill="none" fill-opacity=".75" fill-rule="evenodd" stroke="url(#linearGradient2860)" stroke-dasharray="none" stroke-linecap="round" stroke-linejoin="miter" stroke-miterlimit="4" stroke-opacity="1" stroke-width="1" d="M 5.4622403,19.0621 C 5.4622403,19.0621 5.2274203,2.8121003 23.9903,2.8121003 C 42.8689,2.8121003 42.5183,19.0621 42.5183,19.0621"/><path id="path2291" fill="url(#radialGradient2359)" fill-opacity="1" fill-rule="nonzero" stroke="#204a87" stroke-dasharray="none" stroke-dashoffset="0" stroke-linecap="round" stroke-linejoin="round" stroke-miterlimit="4" stroke-opacity="1" stroke-width="1" d="M 37.6555,40.4958 C 41.4628,40.2278 44.5041,35.8433 44.5041,30.4958 C 44.5041,24.9758 41.2744,20.4958 37.295,20.4958 C 36.6732,20.4958 36.0685,20.6026 35.4928,20.8083 L 35.4928,40.1833 C 36.0685,40.3889 36.6732,40.4958 37.295,40.4958 C 37.4194,40.4958 37.5327,40.5044 37.6555,40.4958 z" display="inline" opacity="1" overflow="visible" visibility="visible" style="marker:none"/><rect id="rect2293" width="6" height="18" x="9.5" y="21.5" fill="url(#linearGradient2382)" fill-opacity="1" fill-rule="nonzero" stroke="#555753" stroke-dasharray="none" stroke-dashoffset="0" stroke-linecap="round" stroke-linejoin="round" stroke-miterlimit="4" stroke-opacity="1" stroke-width="1" display="inline" opacity="1" overflow="visible" rx="3" ry="3" visibility="visible" style="marker:none"/><path id="path1413" fill="url(#radialGradient2311)" fill-opacity="1" fill-rule="nonzero" stroke="#204a87" stroke-dasharray="none" stroke-dashoffset="0" stroke-linecap="round" stroke-linejoin="round" stroke-miterlimit="4" stroke-opacity="1" stroke-width="1" d="M 10.1025,20.5034 C 5.8727503,20.7714 2.494,25.1559 2.494,30.5034 C 2.494,36.0234 6.0820103,40.5034 10.503,40.5034 C 11.1937,40.5034 11.8656,40.3966 12.5052,40.1909 L 12.5052,20.8159 C 11.8656,20.6103 11.1937,20.5034 10.503,20.5034 C 10.3648,20.5034 10.239,20.4948 10.1025,20.5034 z" display="inline" opacity="1" overflow="visible" visibility="visible" style="marker:none"/><path id="path2317" fill="none" fill-opacity="1" fill-rule="nonzero" stroke="#fff" stroke-dasharray="none" stroke-dashoffset="0" stroke-linecap="round" stroke-linejoin="miter" stroke-miterlimit="4" stroke-opacity="1" stroke-width="1.063" d="M 8.96875,15.46875 C 4.8778032,15.703715 1.46875,19.604849 1.46875,24.5 C 1.46875,29.555241 5.0608949,33.531249 9.34375,33.53125 C 9.773344,33.531251 10.160155,33.418526 10.5625,33.34375 L 10.5625,15.65625 C 10.160156,15.581475 9.7733451,15.46875 9.34375,15.46875 C 9.1546599,15.46875 9.0492568,15.464126 8.96875,15.46875 z" display="inline" opacity=".2" overflow="visible" transform="matrix(0.885697,0,0,1,2.19747,5.9996)" visibility="visible" style="marker:none"/><path id="path2331" fill="url(#linearGradient2433)" fill-opacity="1" fill-rule="nonzero" stroke="none" stroke-dasharray="none" stroke-dashoffset="0" stroke-linecap="round" stroke-linejoin="miter" stroke-miterlimit="4" stroke-opacity="1" stroke-width="1" d="M 10.1246,22.9996 C 7.5440403,23.1667 5.4996003,25.0136 5.4996003,27.2496 C 5.4996003,29.5956 7.7396003,31.4996 10.4996,31.4996 C 11.0171,31.4996 11.53,31.4363 11.9996,31.3121 L 11.9996,23.1871 C 11.53,23.0629 11.0171,22.9996 10.4996,22.9996 C 10.3702,22.9996 10.2515,22.9914 10.1246,22.9996 z" display="inline" opacity=".4" overflow="visible" visibility="visible" style="marker:none"/><path id="path2354" fill="url(#linearGradient2435)" fill-opacity="1" fill-rule="nonzero" stroke="none" stroke-dasharray="none" stroke-dashoffset="0" stroke-linecap="round" stroke-linejoin="miter" stroke-miterlimit="4" stroke-opacity="1" stroke-width="1" d="M 36.1246,23.0033 C 36.0823,23.006 36.0416,23.0309 35.9996,23.0345 L 35.9996,31.472 C 36.1676,31.4865 36.3271,31.5033 36.4996,31.5033 C 39.2596,31.5033 41.4996,29.5993 41.4996,27.2533 C 41.4996,24.9073 39.2596,23.0033 36.4996,23.0033 C 36.3702,23.0033 36.2515,22.995 36.1246,23.0033 z" display="inline" opacity=".3" overflow="visible" visibility="visible" style="marker:none"/><path id="path2371" fill="none" fill-opacity="1" fill-rule="nonzero" stroke="#fff" stroke-dasharray="none" stroke-dashoffset="0" stroke-linecap="round" stroke-linejoin="miter" stroke-miterlimit="4" stroke-opacity="1" stroke-width="1.128" d="M 38.6875,15.5 C 38.272123,15.5 37.891634,15.585579 37.5,15.65625 L 37.5,33.34375 C 37.891635,33.414421 38.272124,33.5 38.6875,33.5 C 38.87686,33.499999 38.984393,33.504502 39.0625,33.5 C 43.125063,33.265858 46.5,29.388913 46.5,24.5 C 46.5,19.451365 42.940836,15.500001 38.6875,15.5 z" display="inline" opacity=".2" overflow="visible" transform="matrix(0.785653,0,0,1,6.9733303,5.9996)" visibility="visible" style="marker:none"/><path id="path2398" fill="#d3d7cf" fill-opacity="1" fill-rule="nonzero" stroke="url(#linearGradient2415)" stroke-dasharray="none" stroke-dashoffset="0" stroke-linecap="round" stroke-linejoin="miter" stroke-miterlimit="4" stroke-opacity="1" stroke-width=".744" d="M 9.34375,25.28125 A 1.125,1.09375 0 1 1 7.09375,25.28125 A 1.125,1.09375 0 1 1 9.34375,25.28125 z" display="inline" opacity="1" overflow="visible" transform="matrix(1.32249,0,0,1.36747,-1.88181,-3.5750997)" visibility="visible" style="marker:none"/><path id="path2417" fill="#d3d7cf" fill-opacity="1" fill-rule="nonzero" stroke="url(#linearGradient2419)" stroke-dasharray="none" stroke-dashoffset="0" stroke-linecap="round" stroke-linejoin="miter" stroke-miterlimit="4" stroke-opacity="1" stroke-width=".744" d="M 9.34375,25.28125 A 1.125,1.09375 0 1 1 7.09375,25.28125 A 1.125,1.09375 0 1 1 9.34375,25.28125 z" display="inline" opacity="1" overflow="visible" transform="matrix(1.32249,0,0,1.36747,28.1182,-3.5750997)" visibility="visible" style="marker:none"/><g id="g2445" transform="matrix(0.923991,0.482248,-0.382415,1.16521,10.2441,-2.8707697)"><path id="path2423" fill="none" fill-opacity="1" fill-rule="evenodd" stroke="url(#linearGradient2443)" stroke-dasharray="none" stroke-linecap="round" stroke-linejoin="miter" stroke-miterlimit="4" stroke-opacity="1" stroke-width="2.671" d="M 9,25 L 2.5,18.5"/><path id="path2421" fill="none" fill-opacity="1" fill-rule="evenodd" stroke="url(#linearGradient2431)" stroke-dasharray="none" stroke-linecap="round" stroke-linejoin="miter" stroke-miterlimit="4" stroke-opacity="1" stroke-width=".89" d="M 9,25 L 2.5,18.5"/></g><path id="path2806" fill="#fff" fill-opacity="1" fill-rule="nonzero" stroke="none" stroke-dasharray="none" stroke-dashoffset="0" stroke-linecap="round" stroke-linejoin="miter" stroke-miterlimit="4" stroke-opacity="1" stroke-width="2" d="M 4.0372916,16.674286 A 1.5415114,1.5598627 0 1 1 0.95426881,16.674286 A 1.5415114,1.5598627 0 1 1 4.0372916,16.674286 z" display="inline" opacity="1" overflow="visible" transform="matrix(0.540919,0,0,0.534556,3.9834203,10.9201)" visibility="visible" style="marker:none"/><path id="path2874" fill="#fff" fill-opacity="1" fill-rule="nonzero" stroke="none" stroke-dasharray="none" stroke-dashoffset="0" stroke-linecap="round" stroke-linejoin="miter" stroke-miterlimit="4" stroke-opacity="1" stroke-width="2" d="M 4.0372916,16.674286 A 1.5415114,1.5598627 0 1 1 0.95426881,16.674286 A 1.5415114,1.5598627 0 1 1 4.0372916,16.674286 z" display="inline" opacity="1" overflow="visible" transform="matrix(0.540919,0,0,0.534556,44.1423,15.5684)" visibility="visible" style="marker:none"/><g id="g1455" transform="matrix(-0.923991,0.465609,0.382415,1.12501,37.7349,-1.6506897)"><path id="path1457" fill="none" fill-opacity="1" fill-rule="evenodd" stroke="url(#linearGradient1465)" stroke-dasharray="none" stroke-linecap="round" stroke-linejoin="miter" stroke-miterlimit="4" stroke-opacity="1" stroke-width="2.719" d="M 9,25 L 2.5,18.5"/><path id="path1459" fill="none" fill-opacity="1" fill-rule="evenodd" stroke="url(#linearGradient1467)" stroke-dasharray="none" stroke-linecap="round" stroke-linejoin="miter" stroke-miterlimit="4" stroke-opacity="1" stroke-width=".906" d="M 9,25 L 2.5,18.5"/></g><path id="path1461" fill="#fff" fill-opacity="1" fill-rule="nonzero" stroke="none" stroke-dasharray="none" stroke-dashoffset="0" stroke-linecap="round" stroke-linejoin="miter" stroke-miterlimit="4" stroke-opacity="1" stroke-width="2" d="M 4.0372916,16.674286 A 1.5415114,1.5598627 0 1 1 0.95426881,16.674286 A 1.5415114,1.5598627 0 1 1 4.0372916,16.674286 z" display="inline" opacity="1" overflow="visible" transform="matrix(-0.540919,0,0,0.534556,43.6834,11.7524)" visibility="visible" style="marker:none"/></g></svg>