<svg xmlns="http://www.w3.org/2000/svg" xmlns:svg="http://www.w3.org/2000/svg" xmlns:xlink="http://www.w3.org/1999/xlink" id="svg7450" width="48" height="48"><defs id="defs7452"><linearGradient id="linearGradient5974"><stop id="stop5976" offset="0" stop-color="#ad7fa8" stop-opacity="1"/><stop id="stop5978" offset="1" stop-color="#dac6d8" stop-opacity="1"/></linearGradient><linearGradient id="linearGradient5980" x1="27.652" x2="21.591" y1="23.146" y2="20.619" gradientTransform="matrix(0.9768193,0,0,1,-1.3746639,-1.4e-6)" gradientUnits="userSpaceOnUse" xlink:href="#linearGradient5974"/><linearGradient id="linearGradient5999"><stop id="stop6001" offset="0" stop-color="#c4a000" stop-opacity="1"/><stop id="stop6003" offset="1" stop-color="#c4a000" stop-opacity="0"/></linearGradient><linearGradient id="linearGradient6005" x1="27.355" x2="23.489" y1="36.218" y2="34.728" gradientTransform="translate(-2.0000009,-1.4e-6)" gradientUnits="userSpaceOnUse" xlink:href="#linearGradient5999"/><linearGradient id="linearGradient5981"><stop id="stop5983" offset="0" stop-color="#fff" stop-opacity="1"/><stop id="stop5985" offset="1" stop-color="#fff" stop-opacity=".694"/></linearGradient><linearGradient id="linearGradient5973" x1="22.32" x2="18.986" y1="41.956" y2="37.029" gradientTransform="translate(-2.0000009,-1.4e-6)" gradientUnits="userSpaceOnUse" xlink:href="#linearGradient5981"/><linearGradient id="linearGradient5987"><stop id="stop5989" offset="0" stop-color="#d7c20f" stop-opacity="1"/><stop id="stop5991" offset="1" stop-color="#b6970d" stop-opacity="1"/></linearGradient><linearGradient id="linearGradient5993" x1="17.032" x2="29.494" y1="27.447" y2="37.846" gradientTransform="translate(-2.0000009,-1.4e-6)" gradientUnits="userSpaceOnUse" xlink:href="#linearGradient5987"/><linearGradient id="linearGradient5966"><stop id="stop5968" offset="0" stop-color="#fdef72" stop-opacity="1"/><stop id="stop5970" offset="1" stop-color="#e2cb0b" stop-opacity="1"/></linearGradient><linearGradient id="linearGradient5972" x1="20.934" x2="30.208" y1="25.061" y2="30.743" gradientTransform="translate(-2.0000009,-1.4e-6)" gradientUnits="userSpaceOnUse" xlink:href="#linearGradient5966"/><linearGradient id="linearGradient5984"><stop id="stop5986" offset="0" stop-color="#fff" stop-opacity="1"/><stop id="stop5988" offset="1" stop-color="#fff" stop-opacity=".134"/></linearGradient><linearGradient id="linearGradient5994" x1="28" x2="33.447" y1="8" y2="16.686" gradientUnits="userSpaceOnUse" xlink:href="#linearGradient5984"/><linearGradient id="linearGradient5996"><stop id="stop5998" offset="0" stop-color="#8f5902" stop-opacity="1"/><stop id="stop6000" offset="1" stop-color="#73521e" stop-opacity="1"/></linearGradient><linearGradient id="linearGradient6002" x1="30.325" x2="34" y1="9.241" y2="18" gradientTransform="translate(-2.0000009,-1.4e-6)" gradientUnits="userSpaceOnUse" xlink:href="#linearGradient5996"/><linearGradient id="linearGradient5958"><stop id="stop5960" offset="0" stop-color="#c17d11" stop-opacity="1"/><stop id="stop5962" offset="1" stop-color="#e9b96e" stop-opacity="1"/></linearGradient><linearGradient id="linearGradient5964" x1="28" x2="26" y1="16" y2="8" gradientTransform="translate(-2.0000009,-1.4e-6)" gradientUnits="userSpaceOnUse" xlink:href="#linearGradient5958"/><linearGradient id="linearGradient6019"><stop id="stop6021" offset="0" stop-color="#000" stop-opacity="1"/><stop id="stop6023" offset="1" stop-color="#000" stop-opacity="0"/></linearGradient><radialGradient id="radialGradient6025" cx="38" cy="69" r="20" fx="28.603" fy="69" gradientTransform="matrix(1,0,0,0.45,0,37.95)" gradientUnits="userSpaceOnUse" xlink:href="#linearGradient6019"/></defs><metadata id="metadata7455"/><g id="layer1"><path id="path6017" fill="url(#radialGradient6025)" fill-opacity="1" stroke="none" stroke-dasharray="none" stroke-linecap="round" stroke-linejoin="round" stroke-miterlimit="20" stroke-opacity="1" stroke-width="1" d="M 58,69 A 20,9 0 1 1 18,69 A 20,9 0 1 1 58,69 z" opacity=".25" transform="matrix(1,0,0,0.6666668,-14,-5.0000104)"/><path id="path5371" fill="url(#linearGradient5964)" fill-opacity="1" fill-rule="evenodd" stroke="url(#linearGradient6002)" stroke-linecap="butt" stroke-linejoin="miter" stroke-opacity="1" stroke-width="1" d="M 34.593749,2.4687486 C 26.390532,2.5743986 25.196949,18.716275 22.843749,21.624999 L 26.843749,23.062499 C 29.475622,18.689952 42.599745,4.1545016 35.406249,2.4999986 C 35.126759,2.4690296 34.858369,2.4653406 34.593749,2.4687486 z M 33.562499,4.5312486 C 33.756062,4.5125096 33.930485,4.5369676 34.093749,4.6249986 C 34.746805,4.9771216 34.817404,6.1198756 34.249999,7.1562486 C 33.682594,8.1926216 32.684303,8.7583716 32.031249,8.4062486 C 31.378196,8.0541256 31.307594,6.9113716 31.874999,5.8749986 C 32.300553,5.0977186 32.981811,4.5874646 33.562499,4.5312486 z"/><path id="path5992" fill="none" fill-opacity="1" fill-rule="evenodd" stroke="url(#linearGradient5994)" stroke-linecap="butt" stroke-linejoin="miter" stroke-opacity="1" stroke-width="1" d="M 36.59375,3.46875 C 34.872132,3.4909229 33.585825,4.3246243 32.40625,5.75 C 31.226675,7.1753757 30.257916,9.1916354 29.46875,11.34375 C 28.679584,13.495865 28.04471,15.77802 27.46875,17.71875 C 27.068859,19.066206 26.698893,20.125198 26.25,21.0625 L 28.4375,21.84375 C 30.056094,19.348126 33.476298,15.252572 35.96875,11.21875 C 37.294589,9.0729934 38.25245,7.0407089 38.46875,5.65625 C 38.5769,4.9640206 38.513818,4.4833206 38.34375,4.1875 C 38.179059,3.9010309 37.880274,3.6629145 37.21875,3.5 C 37.019255,3.4812162 36.817917,3.4658629 36.59375,3.46875 z" opacity=".267" transform="translate(-2.0000009,-1.4e-6)"/><path id="path5367" fill="url(#linearGradient5972)" fill-opacity="1" fill-rule="evenodd" stroke="url(#linearGradient5993)" stroke-dasharray="none" stroke-linecap="butt" stroke-linejoin="miter" stroke-miterlimit="20" stroke-opacity="1" stroke-width="1" d="M 20.499999,16.499999 C 21.209505,18.503006 19.958611,20.23783 19.499999,21.499999 C 14.308432,23.045673 10.713198,31.203725 5.3674161,35.453584 C 6.0352041,36.150982 6.8196431,36.897762 7.4999991,37.499999 L 11.562499,33.968749 L 8.4949431,38.493398 C 10.70418,40.284381 12.999999,41.499999 14.499999,41.999999 L 17.249999,38.343749 L 15.499999,42.499999 C 16.951993,43.088881 20.485285,43.982024 22.499999,43.999999 L 24.503889,40.597502 L 23.99072,44.062499 C 24.820283,44.220858 26.428885,44.436715 27.499999,44.468749 C 30.862185,38.968749 31.499999,29.999999 29.499999,25.999999 C 28.999999,23.999999 30.999999,21.499999 32.499999,20.499999 C 29.999999,18.499999 24.29441,16.196273 20.499999,16.499999 z"/><path id="path5975" fill="#c4a000" fill-rule="evenodd" stroke="none" stroke-linecap="butt" stroke-linejoin="miter" stroke-opacity="1" stroke-width="1" d="M 8.9999991,38.499999 C 13.816494,33.489104 13.465022,31.296073 19.116116,26.972271 C 16.133674,31.800702 15.650277,34.312329 11.999999,40.499999 L 8.9999991,38.499999 z" opacity=".267"/><path id="path5979" fill="#c4a000" fill-rule="evenodd" stroke="none" stroke-linecap="butt" stroke-linejoin="miter" stroke-opacity="1" stroke-width="1" d="M 16.149807,42.202451 L 20.495834,32.362304 C 22.160347,29.378577 23.355506,26.392252 25.024807,24.014951 C 23.422853,29.432988 20.134117,36.136744 17.493557,42.639951 L 16.149807,42.202451 z" opacity=".416"/><path id="path6014" fill="none" fill-opacity="1" fill-rule="evenodd" stroke="url(#linearGradient5973)" stroke-linecap="butt" stroke-linejoin="miter" stroke-opacity="1" stroke-width="1" d="M 21.624999,17.499999 C 21.721737,19.415145 20.702056,21.029644 20.406249,21.843749 C 20.302146,22.128458 20.070919,22.348123 19.781249,22.437499 C 14.327851,24.672143 12.151446,31.011537 6.7866101,35.523666 C 6.9882531,35.72352 7.2786411,35.94097 7.4811401,36.131897 L 16.499999,28.499999 L 9.9233841,38.310312 C 11.193417,39.337925 12.645585,40.194856 14.15004,40.799477 L 21.144393,31.499999 L 16.8695,41.911611 C 18.465069,42.437268 19.967803,42.738907 21.814509,42.999999 L 26.433239,35.312499 L 25.062499,43.219316 L 26.937499,43.445311 C 28.370712,40.909817 29.069881,37.778781 29.468749,34.656249 C 29.892694,31.337403 29.463785,28.115071 28.624999,26.437499 C 28.597836,26.37729 28.576894,26.314464 28.562499,26.249999 C 28.215641,24.862568 28.731641,23.504372 29.437499,22.374999 C 29.864392,21.69197 30.367871,21.08422 30.902458,20.573222 C 29.730976,19.790531 28.315761,19.113156 26.531249,18.468749 C 24.769172,17.832443 23.033251,17.518724 21.624999,17.499999 z" opacity=".478"/><path id="path5977" fill="url(#linearGradient6005)" fill-opacity="1" fill-rule="evenodd" stroke="none" stroke-linecap="butt" stroke-linejoin="miter" stroke-opacity="1" stroke-width="1" d="M 18.968749,42.999999 C 21.146315,37.248128 25.364665,32.931056 26.985662,27.064587 C 27.037205,30.72666 27.235382,37.268313 25.093749,43.781249 C 24.773983,43.783024 24.919822,43.67044 24.623869,43.662696 L 25.424661,37.938179 L 22.143175,43.492563 C 19.952367,43.336239 20.848564,43.525162 18.968749,42.999999 z" opacity=".247"/><path id="path5995" fill="#c4a000" fill-rule="evenodd" stroke="none" stroke-linecap="butt" stroke-linejoin="miter" stroke-opacity="1" stroke-width="1" d="M 21.003066,22.610446 C 19.751071,23.226825 18.940857,24.137724 18.01996,24.974834 C 19.246447,24.266191 20.398946,23.52584 22.019533,22.986096 L 21.003066,22.610446 z" opacity=".482"/><path id="path5997" fill="#c4a000" fill-rule="evenodd" stroke="none" stroke-linecap="butt" stroke-linejoin="miter" stroke-opacity="1" stroke-width="1" d="M 23.008697,23.061048 L 21.992232,25.049786 L 24.972945,23.461536 L 23.008697,23.061048 z" opacity=".482"/><path id="path6007" fill="#c4a000" fill-rule="evenodd" stroke="none" stroke-linecap="butt" stroke-linejoin="miter" stroke-opacity="1" stroke-width="1" d="M 22.939804,17.961398 L 22.044611,19.66842 L 23.610338,20.170504 L 22.939804,17.961398 z" opacity=".482"/><path id="path6009" fill="#c4a000" fill-rule="evenodd" stroke="none" stroke-linecap="butt" stroke-linejoin="miter" stroke-opacity="1" stroke-width="1" d="M 29.923253,19.885369 L 27.463005,21.720816 L 29.028732,22.2229 L 29.923253,19.885369 z" opacity=".482"/><path id="path6011" fill="#c4a000" fill-rule="evenodd" stroke="none" stroke-linecap="butt" stroke-linejoin="miter" stroke-opacity="1" stroke-width="1" d="M 26.012924,17.938565 L 24.499013,20.463179 L 26.06474,20.965263 L 26.012924,17.938565 z" opacity=".482"/><path id="path6013" fill="#000" fill-opacity="1" fill-rule="evenodd" stroke="none" stroke-linecap="butt" stroke-linejoin="round" stroke-opacity="1" stroke-width="1" d="M 18.967725,22.024698 C 18.400945,19.059214 28.30056,24.177601 30.004547,25.019067 C 29.998065,26.098135 30.004547,27.019067 29.027728,27.019067 C 26.46019,25.626087 22.492473,23.413924 18.967725,22.024698 z" opacity=".2"/><path id="path5373" fill="url(#linearGradient5980)" fill-opacity="1" fill-rule="evenodd" stroke="#5c3566" stroke-linecap="butt" stroke-linejoin="round" stroke-opacity="1" stroke-width="1" d="M 18.650132,21.499999 C 18.161722,20.499999 18.650132,19.499999 19.626952,19.499999 C 23.618392,20.475416 26.951827,21.706231 30.371964,23.499999 C 30.860374,24.499999 30.371964,25.499999 29.395145,25.499999 C 25.861202,23.635579 22.528434,22.425186 18.650132,21.499999 z"/></g></svg>