<svg xmlns="http://www.w3.org/2000/svg" xmlns:svg="http://www.w3.org/2000/svg" xmlns:xlink="http://www.w3.org/1999/xlink" id="svg7376" width="48" height="48"><defs id="defs7378"><linearGradient id="linearGradient3517"><stop id="stop3519" offset="0" stop-color="#fff" stop-opacity="1"/><stop id="stop3521" offset="1" stop-color="#fff" stop-opacity="0"/></linearGradient><linearGradient id="linearGradient3523" x1="33.934" x2="25.529" y1="35.35" y2="18.045" gradientTransform="matrix(1.057981,0,0,1.057981,-0.7333918,-2.8666574)" gradientUnits="userSpaceOnUse" xlink:href="#linearGradient3517"/><linearGradient id="linearGradient4253"><stop id="stop4255" offset="0" stop-color="#fff" stop-opacity="1"/><stop id="stop4257" offset="1" stop-color="#fff" stop-opacity="0"/></linearGradient><linearGradient id="linearGradient4259" x1="31.933" x2="19.493" y1="32.675" y2="4.853" gradientTransform="matrix(1.057981,0,0,1.057981,-0.7333918,-2.8666574)" gradientUnits="userSpaceOnUse" xlink:href="#linearGradient4253"/><linearGradient id="linearGradient10143"><stop id="stop10145" offset="0" stop-color="#000" stop-opacity="1"/><stop id="stop10147" offset="1" stop-color="#8f5802" stop-opacity="1"/></linearGradient><linearGradient id="linearGradient10141" x1="27.782" x2="30.036" y1="14.701" y2="6.502" gradientTransform="matrix(1.057981,0,0,1.057981,-0.7333918,-2.8666574)" gradientUnits="userSpaceOnUse" xlink:href="#linearGradient10143"/><linearGradient id="linearGradient10125"><stop id="stop10127" offset="0" stop-color="#fff" stop-opacity="1"/><stop id="stop10129" offset="1" stop-color="#fff" stop-opacity="0"/></linearGradient><linearGradient id="linearGradient10156" x1="22.888" x2="21.653" y1="37.79" y2="33.908" gradientUnits="userSpaceOnUse" xlink:href="#linearGradient10125"/><linearGradient id="linearGradient8661" x1="34.096" x2="28.207" y1="40.819" y2="43.469" gradientTransform="matrix(1.057981,0,0,1.057981,-0.1496748,-4.4536294)" gradientUnits="userSpaceOnUse" xlink:href="#linearGradient4991"/><linearGradient id="linearGradient3507"><stop id="stop3509" offset="0" stop-color="#e9b96e" stop-opacity="1"/><stop id="stop7929" offset=".429" stop-color="#bc8938" stop-opacity=".498"/><stop id="stop3511" offset="1" stop-color="#8f5902" stop-opacity="0"/></linearGradient><linearGradient id="linearGradient3513" x1="22.406" x2=".728" y1="43.575" y2="22.568" gradientTransform="matrix(1.057981,0,0,1.057981,-0.1496748,-4.4536294)" gradientUnits="userSpaceOnUse" xlink:href="#linearGradient3507"/><linearGradient id="linearGradient4991"><stop id="stop4993" offset="0" stop-color="#000" stop-opacity="1"/><stop id="stop4995" offset="1" stop-color="#b56102" stop-opacity=".34"/></linearGradient><linearGradient id="linearGradient4997" x1="30.313" x2="15.514" y1="49.283" y2="-7.347" gradientTransform="matrix(1.057981,0,0,1.057981,-1.1600888,-2.3866234)" gradientUnits="userSpaceOnUse" xlink:href="#linearGradient4991"/><radialGradient id="radialGradient10892" cx="35.375" cy="42.009" r="18.733" fx="35.375" fy="42.009" gradientTransform="matrix(-0.740014,-4.378545e-3,3.339861e-3,-6.695424e-2,50.27131,44.87974)" gradientUnits="userSpaceOnUse" xlink:href="#linearGradient10894"/><linearGradient id="linearGradient10894"><stop id="stop10896" offset="0" stop-color="#2c2c2c" stop-opacity=".66"/><stop id="stop10898" offset="1" stop-color="#fff" stop-opacity="0"/></linearGradient><radialGradient id="radialGradient2919" cx="37.434" cy="42.817" r="18.733" fx="37.434" fy="42.817" gradientTransform="matrix(-1.0146,-2.031293e-7,-1.415153e-3,-9.143772e-2,59.69957,45.74522)" gradientUnits="userSpaceOnUse" xlink:href="#linearGradient10894"/></defs><metadata id="metadata7381"/><g id="layer1"><path id="path2917" fill="url(#radialGradient2919)" fill-opacity="1" stroke="none" stroke-dasharray="none" stroke-linecap="round" stroke-linejoin="round" stroke-miterlimit="3.5" stroke-opacity="1" stroke-width=".884" d="M 42.96595,41.830151 A 18.732559,2.0070601 0 1 1 5.5008316,41.830151 A 18.732559,2.0070601 0 1 1 42.96595,41.830151 z" opacity=".736" transform="matrix(1.290804,-4.79254e-7,1.910279e-7,3.170813,-6.3195034,-89.551597)"/><path id="path10158" fill="url(#radialGradient10892)" fill-opacity="1" stroke="none" stroke-dasharray="none" stroke-linecap="round" stroke-linejoin="round" stroke-miterlimit="3.5" stroke-opacity="1" stroke-width=".884" d="M 42.96595,41.830151 A 18.732559,2.0070601 0 1 1 5.5008316,41.830151 A 18.732559,2.0070601 0 1 1 42.96595,41.830151 z" opacity=".456" transform="matrix(0.91382,0,0,3.170813,9.8779392,-89.551597)"/><path id="path4263" fill="url(#linearGradient4997)" fill-opacity="1" fill-rule="evenodd" stroke="none" stroke-linecap="butt" stroke-linejoin="miter" stroke-opacity="1" stroke-width="1" d="M 4.9233027,31.105093 L 8.7966892,28.29483 L 34.811271,35.700698 L 35.869252,42.048585 L 33.731778,43.952082 C 33.731778,43.952082 8.0668992,36.880685 6.1547588,34.933496 C 4.2691007,33.013275 4.9233027,31.105093 4.9233027,31.105093 z"/><path id="path3497" fill="none" fill-opacity=".75" fill-rule="evenodd" stroke="url(#linearGradient3513)" stroke-dasharray="none" stroke-linecap="round" stroke-linejoin="round" stroke-miterlimit="4" stroke-opacity="1" stroke-width="1" d="M 5.4172207,31.385482 C 5.4172207,31.385482 5.0775861,33.148535 6.6343342,34.648036 C 8.1531462,36.110996 30.636214,42.660571 32.974896,43.372495 C 35.379682,44.104543 36.346719,42.031043 36.346719,42.031043"/><path id="path7933" fill="none" fill-opacity=".75" fill-rule="evenodd" stroke="url(#linearGradient8661)" stroke-dasharray="none" stroke-linecap="round" stroke-linejoin="round" stroke-miterlimit="4" stroke-opacity="1" stroke-width="1" d="M 32.974896,43.372495 C 35.379682,44.104543 36.313469,42.064292 36.313469,42.064292"/><g id="g10149" transform="matrix(1.057981,0,0,1.057981,-1.7913728,-3.3538804)"><path id="path10117" fill="#edd400" fill-opacity="1" stroke="#c4a000" stroke-dasharray="none" stroke-linecap="round" stroke-linejoin="round" stroke-miterlimit="3.5" stroke-opacity="1" stroke-width=".884" d="M 1.1407408,16.415741 A 2.4953704,2.4953704 0 1 1 -3.85,16.415741 A 2.4953704,2.4953704 0 1 1 1.1407408,16.415741 z" opacity="1" transform="translate(23.292,19.10741)"/><path id="path10123" fill="url(#linearGradient10156)" fill-opacity="1" fill-rule="evenodd" stroke="none" stroke-linecap="butt" stroke-linejoin="miter" stroke-opacity="1" stroke-width="1" d="M 20.644571,36.226863 C 20.644571,36.226863 21.050414,35.120644 22.050414,35.673754 C 23.050414,36.226863 23.64421,35.226863 23.64421,35.226863 C 23.64421,35.226863 23.102809,37.102898 22,37 C 20.924274,36.899629 20.644571,36.226863 20.644571,36.226863 z" opacity=".654"/><path id="path10119" fill="none" fill-opacity="1" stroke="#fff" stroke-dasharray="none" stroke-linecap="round" stroke-linejoin="round" stroke-miterlimit="3.5" stroke-opacity="1" stroke-width=".884" d="M 1.1407408,16.415741 A 2.4953704,2.4953704 0 1 1 -3.85,16.415741 A 2.4953704,2.4953704 0 1 1 1.1407408,16.415741 z" opacity=".346" transform="matrix(0.702202,0,0,0.702202,22.8886,23.99598)"/></g><path id="path10133" fill="url(#linearGradient10141)" fill-opacity="1" fill-rule="evenodd" stroke="#583500" stroke-dasharray="none" stroke-linecap="round" stroke-linejoin="round" stroke-miterlimit="4" stroke-opacity="1" stroke-width="1" d="M 27.30311,5.5256798 L 30.022513,2.1225066 L 34.784408,3.4067782 L 34.708978,7.7131543 L 27.30311,5.5256798 z"/><path id="path2041" fill="#8f5802" fill-opacity="1" fill-rule="evenodd" stroke="#593600" stroke-dasharray="none" stroke-linecap="round" stroke-linejoin="round" stroke-miterlimit="4" stroke-opacity="1" stroke-width="1" d="M 5.385121,31.38706 C 5.385121,31.38706 5.9764068,30.089549 8.6255502,30.197761 C 11.348941,30.309004 21.662165,33.665727 21.662165,33.665727 C 21.662165,33.665727 33.257212,37.074819 34.836804,38.603609 C 36.453326,40.168142 35.756993,41.453279 36.390993,41.900747 L 41.056864,9.1487702 L 21.490664,3.8588644 L 5.385121,31.38706 z" opacity="1"/><path id="path3525" fill="none" fill-opacity="1" fill-rule="evenodd" stroke="url(#linearGradient4259)" stroke-dasharray="none" stroke-linecap="square" stroke-linejoin="miter" stroke-miterlimit="3.5" stroke-opacity="1" stroke-width="1" d="M 7.7830765,29.257372 C 7.7830765,29.257372 8.5466542,29.146497 9.9544642,29.376245 C 11.297826,29.595475 15.517446,30.707661 21.414226,32.530398 C 27.311004,34.353134 31.818493,35.810245 33.541579,36.667192 C 35.25388,37.518774 35.621596,37.828754 35.879036,38.263961 L 39.96433,9.886895 L 21.950459,4.9863356 L 7.7830765,29.257372 z" opacity=".396"/><path id="path3515" fill="url(#linearGradient3523)" fill-opacity="1" fill-rule="evenodd" stroke="none" stroke-linecap="butt" stroke-linejoin="miter" stroke-opacity="1" stroke-width="1" d="M 9.4436802,29.71795 C 9.4436802,29.71795 15.794925,19.770256 26.013939,21.171066 C 36.476198,22.605218 39.788213,14.488273 39.788213,14.488273 L 36.166036,39.6025 C 36.166036,39.6025 35.651894,38.170853 33.857264,37.326115 C 32.080335,36.48971 26.941249,34.734753 21.080681,32.886023 C 15.220112,31.037294 9.4436802,29.71795 9.4436802,29.71795 z" opacity=".549"/></g></svg>