<svg xmlns="http://www.w3.org/2000/svg" xmlns:svg="http://www.w3.org/2000/svg" xmlns:xlink="http://www.w3.org/1999/xlink" id="svg7653" width="48" height="48"><defs id="defs7655"><linearGradient id="linearGradient4825"><stop id="stop4827" offset="0" stop-color="#fff" stop-opacity="1"/><stop id="stop4829" offset="1" stop-color="#fff" stop-opacity="0"/></linearGradient><radialGradient id="radialGradient6098" cx="12.071" cy="12.493" r="6.718" fx="12.071" fy="12.493" gradientUnits="userSpaceOnUse" xlink:href="#linearGradient4825"/><radialGradient id="radialGradient6103" cx="17.904" cy="40.159" r="14.337" fx="17.904" fy="40.159" gradientTransform="matrix(0.25463,-0.898371,0.979785,0.277703,-18.008732,32.032978)" gradientUnits="userSpaceOnUse" xlink:href="#linearGradient2973"/><linearGradient id="linearGradient2973"><stop id="stop2975" offset="0" stop-color="#eeeeec" stop-opacity="1"/><stop id="stop2977" offset="1" stop-color="#eeeeec" stop-opacity="0"/></linearGradient><radialGradient id="radialGradient6106" cx="12.526" cy="38.09" r="14.337" fx="12.526" fy="38.09" gradientTransform="matrix(0.583269,-0.431533,0.577146,0.78008,-5.7999218,4.0039661)" gradientUnits="userSpaceOnUse" xlink:href="#linearGradient2973"/><linearGradient id="linearGradient1312"><stop id="stop1314" offset="0" stop-color="#fff" stop-opacity="1"/><stop id="stop1316" offset="1" stop-color="#fff" stop-opacity="0"/></linearGradient><radialGradient id="radialGradient6109" cx="65.8" cy="27.168" r="12.972" fx="65.8" fy="27.168" gradientTransform="matrix(0.768231,1.13675,-0.820972,0.554824,-3.7221821,-85.071402)" gradientUnits="userSpaceOnUse" xlink:href="#linearGradient1312"/><linearGradient id="linearGradient4989"><stop id="stop4991" offset="0" stop-color="#d3e9ff" stop-opacity="1"/><stop id="stop4993" offset=".155" stop-color="#d3e9ff" stop-opacity="1"/><stop id="stop4995" offset=".75" stop-color="#4074ae" stop-opacity="1"/><stop id="stop4997" offset="1" stop-color="#36486c" stop-opacity="1"/></linearGradient><radialGradient id="radialGradient6115" cx="16.652" cy="32.187" r="17.09" fx="16.652" fy="32.187" gradientTransform="matrix(1.486175,-1.536108,0.932321,0.902016,-38.104462,31.426318)" gradientUnits="userSpaceOnUse" xlink:href="#linearGradient4989"/><linearGradient id="linearGradient4114"><stop id="stop4116" offset="0" stop-color="#000" stop-opacity="1"/><stop id="stop4118" offset="1" stop-color="#000" stop-opacity="0"/></linearGradient><radialGradient id="radialGradient6090" cx="15.116" cy="63.965" r="12.289" fx="15.116" fy="63.965" gradientTransform="scale(1.64399,0.608276)" gradientUnits="userSpaceOnUse" xlink:href="#linearGradient4114"/></defs><metadata id="metadata7658"/><g id="layer1"><path id="path4112" fill="url(#radialGradient6090)" fill-opacity="1" stroke="none" stroke-opacity="1" d="M 45.052803,38.908627 A 20.203051,7.4751287 0 1 1 4.6467018,38.908627 A 20.203051,7.4751287 0 1 1 45.052803,38.908627 z" transform="matrix(0.947409,0,0,1.17786,1.2446729,-6.8535699)"/><path id="path2069" fill="url(#radialGradient6115)" fill-opacity="1" fill-rule="evenodd" stroke="none" stroke-linecap="butt" stroke-linejoin="miter" stroke-opacity="1" stroke-width=".075" d="M 23.943221,0.95599089 L 37.330841,18.266579 C 46.999293,29.846728 41.497218,43.923749 26.774498,45.000349 C 6.0600399,45.582513 6.5089209,27.374688 11.255611,18.609239 L 23.943221,0.95599089 z"/><path id="path2969" fill="#1b4075" fill-opacity="1" fill-rule="evenodd" stroke="none" stroke-linecap="butt" stroke-linejoin="miter" stroke-opacity="1" stroke-width=".075" d="M 35.111656,26.142991 C 28.97307,13.030444 17.560982,17.697815 17.274747,26.949832 C 16.895036,39.223273 34.749172,37.615287 36.715542,41.468636 C 28.821941,47.675337 14.973531,45.226366 10.962587,39.715062 C 6.9577759,34.212184 7.2386579,25.630121 10.784547,19.58749 C 24.158923,0.97851109 39.749425,24.383624 35.111656,26.142991 z"/><path id="path2071" fill="none" fill-opacity="1" fill-rule="evenodd" stroke="#fff" stroke-dasharray="none" stroke-linecap="butt" stroke-linejoin="miter" stroke-miterlimit="4" stroke-opacity=".366" stroke-width="1.1" d="M 23.997159,3.5431999 L 36.057649,19.150903 C 44.770039,29.582388 39.419644,42.41395 26.125479,43.508379 C 7.3920349,44.015144 7.4278049,28.119079 12.173138,20.3333 L 23.997159,3.5431999 z"/><path id="path3945" fill="url(#radialGradient6109)" fill-opacity="1" fill-rule="evenodd" stroke="none" stroke-linecap="butt" stroke-linejoin="miter" stroke-opacity="1" stroke-width=".075" d="M 23.941056,0.96477419 L 34.727665,14.90961 C 42.647506,24.392169 40.447602,20.283833 28.362779,21.278704 C 25.083463,11.203662 18.139008,11.859756 13.5241,15.675094 L 23.941056,0.96477419 z" opacity=".46"/><path id="path3868" fill="url(#radialGradient6106)" fill-opacity="1" fill-rule="evenodd" stroke="none" stroke-linecap="butt" stroke-linejoin="miter" stroke-opacity="1" stroke-width=".075" d="M 35.159999,26.173525 C 29.021413,13.060978 18.734325,17.978349 18.44809,27.230366 C 18.068379,39.503807 34.797515,37.645821 36.763885,41.49917 C 28.870284,47.705871 15.021874,45.2569 11.01093,39.745596 C 7.0061179,34.242718 7.2870009,25.660655 10.83289,19.618024 C 24.207266,1.009045 39.797768,24.414158 35.159999,26.173525 z"/><path id="path4874" fill="url(#radialGradient6103)" fill-opacity="1" fill-rule="evenodd" stroke="none" stroke-linecap="butt" stroke-linejoin="miter" stroke-opacity="1" stroke-width=".075" d="M 35.121093,26.141808 C 28.553625,12.81482 15.686266,17.224091 15.400031,26.476108 C 15.02032,38.749549 32.874456,37.141563 34.840826,40.994912 C 26.947225,47.201613 13.098815,44.752642 9.0878709,39.241338 C 5.0830599,33.73846 5.3639419,25.156397 8.9098309,19.113766 C 22.315807,0.47601659 40.032628,23.659971 35.121093,26.141808 z"/><path id="path4941" fill="url(#radialGradient6098)" fill-opacity="1" fill-rule="evenodd" stroke="none" stroke-dasharray="none" stroke-dashoffset="0" stroke-linecap="round" stroke-linejoin="round" stroke-miterlimit="4" stroke-opacity="1" stroke-width="1" marker-end="none" marker-mid="none" marker-start="none" d="M 18.788838,12.493138 A 6.7175145,6.7175145 0 1 1 5.3538089,12.493138 A 6.7175145,6.7175145 0 1 1 18.788838,12.493138 z" display="inline" opacity=".22" overflow="visible" transform="matrix(-0.829136,1.052307,1.239307,7.58326e-2,26.329278,25.585908)" visibility="visible" style="marker:none"/></g></svg>