<svg xmlns="http://www.w3.org/2000/svg" xmlns:svg="http://www.w3.org/2000/svg" xmlns:xlink="http://www.w3.org/1999/xlink" id="svg7390" width="48" height="48"><defs id="defs7392"><linearGradient id="linearGradient2878"><stop id="stop2880" offset="0" stop-color="#EEEEEC" stop-opacity="1"/><stop id="stop2882" offset="1" stop-color="#EEEEEC" stop-opacity="0"/></linearGradient><radialGradient id="radialGradient2884" cx="37.951" cy="44.125" r="20.607" fx="37.951" fy="44.125" gradientTransform="matrix(0.363953,-7.50235e-2,7.42693e-2,0.360296,-4.5896999,-2.1927505)" gradientUnits="userSpaceOnUse" xlink:href="#linearGradient2878"/><linearGradient id="linearGradient2850"><stop id="stop2852" offset="0" stop-color="#75507B" stop-opacity="1"/><stop id="stop2854" offset="1" stop-color="#75507B" stop-opacity="0"/></linearGradient><linearGradient id="linearGradient2856" x1="17.095" x2="38.881" y1="11.167" y2="33.131" gradientUnits="userSpaceOnUse" xlink:href="#linearGradient2850"/><linearGradient id="linearGradient2842"><stop id="stop2844" offset="0" stop-color="#5c3566" stop-opacity="1"/><stop id="stop2846" offset="1" stop-color="#2E3436" stop-opacity="0"/></linearGradient><linearGradient id="linearGradient2848" x1="40.845" x2="15.071" y1="39.56" y2="13.369" gradientUnits="userSpaceOnUse" xlink:href="#linearGradient2842"/><linearGradient id="linearGradient2818"><stop id="stop2820" offset="0" stop-color="#AD7FA8" stop-opacity="1"/><stop id="stop2822" offset="1" stop-color="#AD7FA8" stop-opacity="0"/></linearGradient><linearGradient id="linearGradient2824" x1="16.193" x2="35.434" y1="12.357" y2="35.195" gradientUnits="userSpaceOnUse" xlink:href="#linearGradient2818"/><linearGradient id="linearGradient2810"><stop id="stop2812" offset="0" stop-color="#5C3566" stop-opacity="1"/><stop id="stop2814" offset="1" stop-color="#ad7fa8" stop-opacity="1"/></linearGradient><linearGradient id="linearGradient2816" x1="32.182" x2="18.62" y1="37.113" y2="10.158" gradientUnits="userSpaceOnUse" xlink:href="#linearGradient2810"/><linearGradient id="linearGradient4493"><stop id="stop4495" offset="0" stop-color="#797979" stop-opacity="1"/><stop id="stop4497" offset="1" stop-color="#5F5F5F" stop-opacity="0"/></linearGradient><radialGradient id="radialGradient2802" cx="16" cy="27.875" r="12.125" fx="16" fy="27.875" gradientTransform="matrix(1,0,0,0.28866,0,19.8286)" gradientUnits="userSpaceOnUse" xlink:href="#linearGradient4493"/></defs><metadata id="metadata7395"/><g id="layer1"><path id="path1930" fill="url(#radialGradient2802)" fill-opacity="1" fill-rule="nonzero" stroke="none" stroke-dasharray="none" stroke-dashoffset="0" stroke-linecap="butt" stroke-linejoin="miter" stroke-miterlimit="4" stroke-opacity="1" stroke-width="1" d="M 28.125,27.875 A 12.125,3.5 0 1 1 3.875,27.875 A 12.125,3.5 0 1 1 28.125,27.875 z" display="inline" overflow="visible" transform="matrix(1.9793814,0,0,2.2857143,-7.6701029,-24.714286)" visibility="visible" style="marker:none"/><path id="path1912" fill="#75507b" fill-opacity="1" stroke="#5c3566" stroke-dasharray="none" stroke-miterlimit="4" stroke-opacity="1" stroke-width=".741" d="M 40.428572,24.142857 A 15,15 0 1 1 10.428572,24.142857 A 15,15 0 1 1 40.428572,24.142857 z" opacity="1" transform="matrix(1.36652,0,0,1.33304,-12.7465,-8.6877905)"/><path id="path1921" fill="url(#linearGradient2816)" fill-opacity="1" stroke="url(#linearGradient2824)" stroke-dasharray="none" stroke-miterlimit="4" stroke-opacity="1" stroke-width=".779" d="M 40.428572,24.142857 A 15,15 0 1 1 10.428572,24.142857 A 15,15 0 1 1 40.428572,24.142857 z" opacity="1" transform="matrix(1.3,0,0,1.26667,-11.0571,-7.0809505)"/><path id="path1910" fill="#5c3566" fill-opacity="1" stroke="#4e3566" stroke-dasharray="none" stroke-miterlimit="4" stroke-opacity="1" stroke-width=".789" d="M 40.428572,24.142857 A 15,15 0 1 1 10.428572,24.142857 A 15,15 0 1 1 40.428572,24.142857 z" opacity="1" transform="matrix(1.26667,0,0,1.26667,-4.7095399,-7.0809505)"/><path id="path1914" fill="url(#linearGradient2848)" fill-opacity="1" stroke="url(#linearGradient2856)" stroke-dasharray="none" stroke-miterlimit="4" stroke-opacity="1" stroke-width=".833" d="M 40.428572,24.142857 A 15,15 0 1 1 10.428572,24.142857 A 15,15 0 1 1 40.428572,24.142857 z" opacity="1" transform="matrix(1.2,0,0,1.2,-3.0142899,-5.4714405)"/><rect id="rect2876" width="15" height="15" x="5" y="3" fill="url(#radialGradient2884)" fill-opacity="1" fill-rule="evenodd" stroke="none" stroke-dasharray="none" stroke-dashoffset="0" stroke-linecap="butt" stroke-linejoin="miter" stroke-miterlimit="4" stroke-opacity="1" stroke-width="1" display="inline" opacity="1" overflow="visible" visibility="visible" style="marker:none"/><path id="path27129" fill="none" fill-opacity=".75" fill-rule="evenodd" stroke="#ead3ea" stroke-dasharray="none" stroke-linecap="round" stroke-linejoin="round" stroke-miterlimit="4" stroke-opacity="1" stroke-width="2" d="M 5.0002451,27.999756 L 45.999267,27.999756"/><path id="path6960" fill="none" fill-opacity=".75" fill-rule="evenodd" stroke="#ead3ea" stroke-dasharray="none" stroke-linecap="round" stroke-linejoin="round" stroke-miterlimit="4" stroke-opacity="1" stroke-width="2" d="M 5.0002451,24.000047 L 45.999267,24.000047"/><path id="path6962" fill="none" fill-opacity=".75" fill-rule="evenodd" stroke="#ead3ea" stroke-dasharray="none" stroke-linecap="round" stroke-linejoin="round" stroke-miterlimit="4" stroke-opacity="1" stroke-width="2" d="M 5.0000061,19.999994 L 45.999983,19.999994"/></g></svg>