<svg xmlns="http://www.w3.org/2000/svg" xmlns:svg="http://www.w3.org/2000/svg" xmlns:xlink="http://www.w3.org/1999/xlink" id="svg7208" width="48" height="48"><defs id="defs7210"><linearGradient id="linearGradient9200"><stop id="stop9202" offset="0" stop-color="#ffe84a" stop-opacity="1"/><stop id="stop9204" offset="1" stop-color="#ffe84a" stop-opacity="0"/></linearGradient><radialGradient id="radialGradient9206" cx="18.628" cy="11.902" r=".751" fx="18.628" fy="11.902" gradientUnits="userSpaceOnUse" xlink:href="#linearGradient9200"/><linearGradient id="linearGradient4175"><stop id="stop4177" offset="0" stop-color="#fff6b8" stop-opacity="1"/><stop id="stop4179" offset="1" stop-color="#ffef81" stop-opacity="1"/></linearGradient><linearGradient id="linearGradient7030" x1="3.019" x2="18.966" y1="10.119" y2="10.119" gradientTransform="matrix(1.834083,0,0,1.952742,2.8807629,0.5162302)" gradientUnits="userSpaceOnUse" xlink:href="#linearGradient4175"/><linearGradient id="linearGradient4182"><stop id="stop4184" offset="0" stop-color="#c03b00" stop-opacity="1"/><stop id="stop4186" offset="1" stop-color="#e74700" stop-opacity="1"/></linearGradient><linearGradient id="linearGradient4188" x1="6.464" x2="6.464" y1="13.196" y2="2.429" gradientUnits="userSpaceOnUse" xlink:href="#linearGradient4182"/><linearGradient id="linearGradient9234"><stop id="stop9236" offset="0" stop-color="#f57900" stop-opacity="1"/><stop id="stop9238" offset="1" stop-color="#f57900" stop-opacity="0"/></linearGradient><linearGradient id="linearGradient9240" x1="20.4" x2="20.4" y1="38.667" y2="27.292" gradientTransform="translate(1.8742981e-6,1.7621202e-4)" gradientUnits="userSpaceOnUse" xlink:href="#linearGradient9234"/><linearGradient id="linearGradient9208"><stop id="stop9210" offset="0" stop-color="#ffe000" stop-opacity="1"/><stop id="stop9212" offset="1" stop-color="#ffe000" stop-opacity="0"/></linearGradient><linearGradient id="linearGradient9214" x1="22" x2="22" y1="4.8" y2="14.142" gradientTransform="translate(1.8742981e-6,1.7621202e-4)" gradientUnits="userSpaceOnUse" xlink:href="#linearGradient9208"/><linearGradient id="linearGradient4201"><stop id="stop4203" offset="0" stop-color="#fcaf3e" stop-opacity="1"/><stop id="stop4205" offset="1" stop-color="#fce94f" stop-opacity="1"/></linearGradient><linearGradient id="linearGradient7028" x1="7.217" x2="7.217" y1="13.273" y2="4.593" gradientUnits="userSpaceOnUse" xlink:href="#linearGradient4201"/><linearGradient id="linearGradient4189"><stop id="stop4191" offset="0" stop-color="#e26f00" stop-opacity="1"/><stop id="stop4193" offset="1" stop-color="#ffae19" stop-opacity="1"/></linearGradient><linearGradient id="linearGradient7026" x1="1.979" x2="14.919" y1="7.512" y2="7.512" gradientUnits="userSpaceOnUse" xlink:href="#linearGradient4189"/><linearGradient id="linearGradient6839"><stop id="stop6841" offset="0" stop-color="#000" stop-opacity=".402"/><stop id="stop6843" offset="1" stop-color="#000" stop-opacity="0"/></linearGradient><radialGradient id="radialGradient10116" cx="14.98" cy="24.438" r="10.155" fx="14.98" fy="24.438" gradientUnits="userSpaceOnUse" xlink:href="#linearGradient6839"/><linearGradient id="linearGradient7263" x1="6.464" x2="6.464" y1="13.196" y2="2.429" gradientUnits="userSpaceOnUse" xlink:href="#linearGradient4182"/><linearGradient id="linearGradient7265" x1="6.464" x2="6.464" y1="13.196" y2="2.429" gradientUnits="userSpaceOnUse" xlink:href="#linearGradient4182"/><linearGradient id="linearGradient7267" x1="6.464" x2="6.464" y1="13.196" y2="2.429" gradientUnits="userSpaceOnUse" xlink:href="#linearGradient4182"/></defs><metadata id="metadata7213"/><g id="layer1"><path id="path5964" fill="url(#radialGradient10116)" fill-opacity="1" fill-rule="nonzero" stroke="none" stroke-dasharray="none" stroke-dashoffset="0" stroke-linecap="butt" stroke-linejoin="round" stroke-miterlimit="4" stroke-opacity="1" stroke-width="1" d="M 25.135029,24.437885 A 10.15484,10.15484 0 1 1 25.134977,24.405482" opacity="1" transform="matrix(2.067979,0,0,0.608807,-6.9787181,24.952706)"/><path id="path7012" fill="url(#linearGradient7026)" fill-opacity="1" fill-rule="nonzero" stroke="#ce5c00" stroke-dasharray="none" stroke-dashoffset="0" stroke-linecap="round" stroke-linejoin="round" stroke-miterlimit="4" stroke-opacity="1" stroke-width=".355" d="M 14.433895,7.5118856 A 7.2169476,7.3399639 0 1 1 14.433858,7.4884645" opacity="1" transform="matrix(2.840536,0,0,2.792929,3.5000019,1.0200112)"/><path id="path7014" fill="none" fill-opacity="1" fill-rule="nonzero" stroke="url(#linearGradient7028)" stroke-dasharray="none" stroke-dashoffset="0" stroke-linecap="round" stroke-linejoin="round" stroke-miterlimit="4" stroke-opacity="1" stroke-width=".374" d="M 14.433895,7.5118856 A 7.2169476,7.3399639 0 1 1 14.433858,7.4884645" opacity="1" transform="matrix(2.697833,0,0,2.653355,4.5475139,2.0797092)"/><path id="path7016" fill="url(#linearGradient9214)" fill-opacity="1" fill-rule="evenodd" stroke="none" stroke-linecap="butt" stroke-linejoin="miter" stroke-opacity="1" stroke-width="1" d="M 8.1903439,20.708487 C 8.1703559,6.3040755 26.116035,6.5571496 32.54392,12.445669 C 34.538428,14.694939 39.001541,13.044719 36.468668,10.166269 C 26.135037,-1.3617176 6.8962819,7.3198422 8.1903439,20.708487 z"/><path id="path7018" fill="url(#linearGradient9240)" fill-opacity="1" fill-rule="evenodd" stroke="none" stroke-linecap="butt" stroke-linejoin="miter" stroke-opacity="1" stroke-width="1" d="M 39.504472,27.299519 C 34.800075,42.328139 18.308684,36.590082 13.714706,29.33211 C 12.405004,26.672298 7.6414089,27.176112 9.2985819,30.575174 C 16.118642,44.23448 37.082704,40.548057 39.504472,27.299519 z"/><g id="g9460" fill="url(#linearGradient4188)" fill-opacity="1" transform="matrix(2.817613,0,0,2.817614,5.5366989,-0.4851126)"><path id="path7707" fill="url(#linearGradient7263)" fill-opacity="1" fill-rule="evenodd" stroke="none" stroke-linecap="butt" stroke-linejoin="miter" stroke-opacity="1" stroke-width="1" d="M 9.4516821,8.5573773 C 8.0906341,14.152458 5.7954321,13.026127 5.7954321,13.026127 C 5.4199681,12.717591 5.5573131,10.821517 5.9204321,10.338627 C 6.4032901,10.359871 6.8077121,10.615882 7.5766821,8.2448773 C 8.3364881,5.9021301 7.7927181,5.5778374 7.2641821,5.3073773 C 7.2333031,4.3181647 7.9730301,3.1933083 8.5141821,2.9323773 C 8.5141821,2.9323773 10.805552,2.9918052 9.4516821,8.5573773 z"/><path id="path8582" fill="url(#linearGradient7265)" fill-opacity="1" fill-rule="evenodd" stroke="none" stroke-linecap="butt" stroke-linejoin="miter" stroke-opacity="1" stroke-width="1" d="M 7.6134826,2.5599675 C 7.0256447,3.2228687 6.6494921,4.0864896 6.3947326,4.9974675 C 6.3947326,4.9974675 5.3695628,4.2706896 5.9122078,3.1548276 C 6.4668958,2.0142026 7.6134826,2.5599675 7.6134826,2.5599675 z"/><path id="path9458" fill="url(#linearGradient7267)" fill-opacity="1" fill-rule="evenodd" stroke="none" stroke-linecap="butt" stroke-linejoin="miter" stroke-opacity="1" stroke-width="1" d="M 5.1155026,10.157887 C 4.6936596,10.9488 4.6380996,11.855502 4.9488216,12.877993 C 4.9488216,12.877993 3.8683676,12.975254 3.8070878,11.427205 C 3.7458441,9.8800695 5.1155026,10.157887 5.1155026,10.157887 z"/></g><path id="path7020" fill="none" fill-opacity="1" fill-rule="evenodd" stroke="url(#linearGradient7030)" stroke-dasharray="none" stroke-linecap="round" stroke-linejoin="round" stroke-miterlimit="4" stroke-opacity="1" stroke-width="1" d="M 9.0604209,23.857368 C 9.4543129,22.162898 9.4344599,16.506036 10.635983,17.07949 C 11.837505,17.652943 12.731189,25.407438 13.866509,26.151181 C 15.001829,26.894923 14.438968,21.833042 15.177264,20.054461 C 15.915555,18.27588 15.884342,20.392452 16.819677,19.036863 C 17.755009,17.681272 17.884279,12.955942 18.918595,14.632101 C 19.952904,16.308261 19.832508,23.646462 20.956928,25.741504 C 22.081349,27.836549 22.255292,23.090947 23.416277,23.012275 C 24.57726,22.933602 24.929879,26.000269 25.600859,25.426818 C 26.271841,24.853364 25.668635,23.149981 26.100197,20.718464 C 26.53176,18.286945 26.152364,14.544815 27.327116,15.700748 C 28.501865,16.856681 29.420676,23.876487 30.799198,25.342187 C 32.177723,26.807889 31.285222,21.964936 32.841207,21.563548 C 34.39719,21.16216 35.977648,23.193367 37.023132,23.736638"/><path id="path7022" fill="#ffea53" fill-opacity="1" fill-rule="evenodd" stroke="none" stroke-linecap="butt" stroke-linejoin="miter" stroke-opacity="1" stroke-width="1" d="M 37.354568,22.429257 L 35.878769,15.933322 L 36.999493,22.549258 L 35.244304,17.837161 L 36.640129,22.723684 L 31.971967,19.448432 L 36.214162,23.113487 L 29.851344,23.675601 L 35.997712,23.515601 L 32.274506,24.939811 L 36.094207,23.98118 L 32.162303,26.240949 L 36.265877,24.585411 L 36.832612,24.952333 L 35.639682,29.52373 L 37.46708,24.88195 L 38.860761,29.323662 L 38.035954,24.944831 L 40.463774,27.383253 L 38.487524,24.373683 L 42.369682,25.221367 L 38.647466,23.785987 L 41.969644,21.327536 L 38.607991,23.439831 L 42.891949,17.680838 L 38.365426,22.939644 L 40.066244,19.550616 L 37.893047,22.554067 L 38.035954,19.487157 L 37.354568,22.429257 z"/><path id="path8325" fill="url(#radialGradient9206)" fill-opacity="1" fill-rule="nonzero" stroke="none" stroke-dasharray="none" stroke-dashoffset="0" stroke-linecap="butt" stroke-linejoin="round" stroke-miterlimit="4" stroke-opacity="1" stroke-width=".7" d="M 19.379145,11.901631 A 0.75130093,0.75130093 0 1 1 19.379141,11.899234" opacity="1" transform="matrix(4.922224,0,0,4.923363,-54.369898,-34.850514)"/><path id="path7024" fill="#fcf5c7" fill-opacity="1" fill-rule="nonzero" stroke="none" stroke-dasharray="none" stroke-dashoffset="0" stroke-linecap="butt" stroke-linejoin="round" stroke-miterlimit="4" stroke-opacity="1" stroke-width=".7" d="M 19.379145,11.901631 A 0.75130093,0.75130093 0 1 1 19.379141,11.899234" opacity="1" transform="matrix(1.952289,0,0,1.952741,0.9535819,0.5047432)"/></g></svg>