<svg xmlns="http://www.w3.org/2000/svg" xmlns:svg="http://www.w3.org/2000/svg" xmlns:xlink="http://www.w3.org/1999/xlink" id="svg7661" width="48" height="48"><defs id="defs7663"><linearGradient id="linearGradient7013"><stop id="stop7015" offset="0" stop-color="#c7d9ec" stop-opacity="1"/><stop id="stop7017" offset="1" stop-color="#dfe9f4" stop-opacity="0"/></linearGradient><linearGradient id="linearGradient1462" x1="23.307" x2="27.776" y1=".703" y2="7.376" gradientUnits="userSpaceOnUse" xlink:href="#linearGradient7013"/><linearGradient id="linearGradient14652"><stop id="stop14654" offset="0" stop-color="#badcff" stop-opacity="1"/><stop id="stop14656" offset="1" stop-color="#729fcf" stop-opacity="1"/></linearGradient><radialGradient id="radialGradient1464" cx="24.81" cy="3.112" r="4.046" fx="24.81" fy="3.112" gradientTransform="matrix(1.143376,0,0,1.33519,-3.557111,-1.043069)" gradientUnits="userSpaceOnUse" xlink:href="#linearGradient14652"/><linearGradient id="linearGradient1444" x1="28.748" x2="16.988" y1="19.856" y2="25.668" gradientTransform="translate(-1,0)" gradientUnits="userSpaceOnUse" xlink:href="#linearGradient12851"/><radialGradient id="radialGradient1466" cx="11.404" cy="11.82" r="3.918" fx="11.404" fy="11.82" gradientTransform="matrix(1,0,0,0.4375,0,6.648991)" gradientUnits="userSpaceOnUse" xlink:href="#linearGradient4380"/><linearGradient id="linearGradient3286"><stop id="stop3288" offset="0" stop-color="#c7d9ec" stop-opacity="1"/><stop id="stop3290" offset="1" stop-color="#dfe9f4" stop-opacity="0"/></linearGradient><linearGradient id="linearGradient1451" x1="7.658" x2="7.792" y1="14.21" y2="5.449" gradientTransform="matrix(2.045145,0,0,2.025318,-1.00833,4.027438)" gradientUnits="userSpaceOnUse" xlink:href="#linearGradient3286"/><linearGradient id="linearGradient12851"><stop id="stop12853" offset="0" stop-color="#3466a4" stop-opacity="1"/><stop id="stop12855" offset="1" stop-color="#3466a4" stop-opacity="0"/></linearGradient><linearGradient id="linearGradient1454" x1="-2.627" x2="12.854" y1="20.043" y2="25.106" gradientTransform="translate(-1,0)" gradientUnits="userSpaceOnUse" xlink:href="#linearGradient12851"/><linearGradient id="linearGradient16408"><stop id="stop16410" offset="0" stop-color="#87b2e0" stop-opacity="1"/><stop id="stop16412" offset="1" stop-color="#3f7ab9" stop-opacity="1"/></linearGradient><linearGradient id="linearGradient1457" x1="7.359" x2="7.424" y1="10.033" y2="15.283" gradientTransform="matrix(2.56247,0,0,2.753017,1.72403,4.215493)" gradientUnits="userSpaceOnUse" xlink:href="#linearGradient16408"/><radialGradient id="radialGradient1468" cx="11.404" cy="11.82" r="3.918" fx="11.404" fy="11.82" gradientTransform="matrix(1,0,0,0.4375,0,6.648991)" gradientUnits="userSpaceOnUse" xlink:href="#linearGradient4380"/><linearGradient id="linearGradient12932" x1="23.862" x2="27.891" y1="-2.917" y2="9.249" gradientUnits="userSpaceOnUse" xlink:href="#linearGradient4881"/><linearGradient id="linearGradient12930" x1="31.004" x2="25.406" y1="8.368" y2="3.629" gradientUnits="userSpaceOnUse" xlink:href="#linearGradient4921"/><radialGradient id="radialGradient12928" cx="24.744" cy="4.114" r="3.792" fx="24.744" fy="4.114" gradientTransform="matrix(1.712551,0,0,1.712551,-17.75761,-2.960849)" gradientUnits="userSpaceOnUse" xlink:href="#linearGradient3982"/><linearGradient id="linearGradient12926" x1="94.604" x2="76.438" y1="24.299" y2="36.313" gradientUnits="userSpaceOnUse" xlink:href="#linearGradient4921"/><linearGradient id="linearGradient12924" x1="53.064" x2="67.438" y1="27.984" y2="31.734" gradientUnits="userSpaceOnUse" xlink:href="#linearGradient4921"/><radialGradient id="radialGradient12922" cx="11.404" cy="11.82" r="3.918" fx="11.404" fy="11.82" gradientTransform="matrix(1,0,0,0.4375,0,6.648991)" gradientUnits="userSpaceOnUse" xlink:href="#linearGradient4380"/><linearGradient id="linearGradient4921"><stop id="stop4923" offset="0" stop-color="#3c7704" stop-opacity=".471"/><stop id="stop4925" offset="1" stop-color="#3c7704" stop-opacity="0"/></linearGradient><linearGradient id="linearGradient12920" x1="79.625" x2="76.313" y1="57.5" y2="56.62" gradientTransform="translate(0,-20)" gradientUnits="userSpaceOnUse" xlink:href="#linearGradient4921"/><linearGradient id="linearGradient12918" x1="10.759" x2="10.748" y1="23.056" y2="12.014" gradientTransform="matrix(1.780305,0,0,1.763045,52.00766,5.729276)" gradientUnits="userSpaceOnUse" xlink:href="#linearGradient4881"/><radialGradient id="radialGradient12916" cx="92.263" cy="22.261" r="13.999" fx="92.263" fy="22.261" gradientTransform="matrix(0,1.285957,-1.670002,0,108.4562,-92.71717)" gradientUnits="userSpaceOnUse" xlink:href="#linearGradient3982"/><linearGradient id="linearGradient4881"><stop id="stop4883" offset="0" stop-color="#fff" stop-opacity="1"/><stop id="stop4885" offset="1" stop-color="#fff" stop-opacity="0"/></linearGradient><linearGradient id="linearGradient12914" x1="76.49" x2="85.229" y1="33.121" y2="33.121" gradientTransform="translate(-20,0)" gradientUnits="userSpaceOnUse" xlink:href="#linearGradient4881"/><linearGradient id="linearGradient3982"><stop id="stop3984" offset="0" stop-color="#8ae234" stop-opacity="1"/><stop id="stop3986" offset="1" stop-color="#5da417" stop-opacity="1"/></linearGradient><linearGradient id="linearGradient12912" x1="7.056" x2="11.833" y1="33.673" y2="35.066" gradientTransform="matrix(0.80777,0,0,0.870503,52.36339,5.323742)" gradientUnits="userSpaceOnUse" xlink:href="#linearGradient3982"/><linearGradient id="linearGradient4380"><stop id="stop4382" offset="0" stop-color="#000" stop-opacity=".603"/><stop id="stop4384" offset="1" stop-color="#000" stop-opacity="0"/></linearGradient><radialGradient id="radialGradient12910" cx="11.404" cy="11.82" r="3.918" fx="11.404" fy="11.82" gradientTransform="matrix(1,0,0,0.4375,0,6.648991)" gradientUnits="userSpaceOnUse" xlink:href="#linearGradient4380"/></defs><metadata id="metadata7666"/><g id="layer1"><g id="g1470" transform="translate(-3.3167505e-7,-4.6109623e-4)"><path id="path3059" fill="url(#radialGradient1468)" fill-opacity="1" fill-rule="nonzero" stroke="none" stroke-dasharray="none" stroke-dashoffset="0" stroke-linecap="round" stroke-linejoin="round" stroke-miterlimit="4" stroke-opacity=".489" stroke-width="1" d="M 15.321829,11.820429 A 3.9179103,1.7140858 0 1 1 15.321809,11.814959" transform="matrix(3.733162,0,0,2.329796,-27.94648,4.028913)"/><path id="path3061" fill="#c7d9ec" fill-opacity="1" fill-rule="evenodd" stroke="#3465a4" stroke-linecap="butt" stroke-linejoin="round" stroke-opacity="1" stroke-width="1" d="M 9.122898,20.680857 C 5.209288,22.725279 -1.414947,27.628768 2.697568,30.143616 C 6.757209,32.62613 8.305129,23.484637 8.305129,23.484637"/><path id="path7031" fill="#74a3d5" fill-opacity="1" fill-rule="evenodd" stroke="none" stroke-linecap="butt" stroke-linejoin="miter" stroke-opacity="1" stroke-width="1" d="M 6.288412,25.022288 C 6.288412,25.022288 5.381474,30.217881 3.661444,28.735731 C 1.743963,27.083439 5.736173,25.125833 5.736173,25.125833 L 6.288412,25.022288 z"/><path id="path3064" fill="url(#linearGradient1457)" fill-opacity="1" fill-rule="evenodd" stroke="#3465a4" stroke-linecap="butt" stroke-linejoin="miter" stroke-opacity="1" stroke-width="1" d="M 14.799518,15.628382 C 9.689076,15.714988 -3.596507,33.332911 14.176025,33.33291 C 17.913894,33.33291 20.358953,32.548486 21.782636,31.313219 C 21.793103,31.304136 21.81384,31.322351 21.824202,31.313219 C 22.616863,31.644669 24.718843,30.766948 25.648291,30.15297 C 29.241579,27.779305 23.280192,22.151968 19.829025,19.023182 C 19.738019,18.940677 16.190264,15.755625 14.965783,15.671354 C 14.907541,15.667404 14.860115,15.627355 14.799518,15.628382 z"/><path id="path11101" fill="url(#linearGradient1454)" fill-opacity="1" fill-rule="evenodd" stroke="none" stroke-linecap="butt" stroke-linejoin="miter" stroke-opacity="1" stroke-width="1" d="M 14.858273,16.065881 C 10.000401,16.148207 -2.628578,32.895411 14.265594,32.89541 C 17.818729,32.89541 20.142947,32.149754 21.496269,30.975537 C 21.506218,30.966903 21.525931,30.984218 21.53578,30.975537 C 22.289266,31.290606 24.287362,30.456264 25.170874,29.87263 C 28.586573,27.616277 22.919812,22.267056 19.63921,19.292902 C 19.552701,19.214475 16.180285,16.186835 15.016321,16.106729 C 14.960957,16.102974 14.915875,16.064905 14.858273,16.065881 z" opacity=".609"/><path id="path3066" fill="none" fill-opacity=".75" fill-rule="evenodd" stroke="url(#linearGradient1451)" stroke-linecap="butt" stroke-linejoin="miter" stroke-opacity="1" stroke-width="1" d="M 14.370949,32.306628 C -1.867136,32.463312 10.771293,16.820783 14.648617,16.822838 C 16.238025,16.874794 24.19928,23.690184 25.480528,27.218804 C 26.685309,29.078926 23.302036,31.120206 22.016145,29.705616 C 21.080081,31.019439 18.640159,32.298048 14.370949,32.306628 z"/><path id="path3068" fill="#000" fill-opacity=".274" fill-rule="evenodd" stroke="none" stroke-linecap="butt" stroke-linejoin="miter" stroke-opacity="1" stroke-width="1" d="M 18.682495,26.137957 C 18.682495,26.137957 19.121214,31.207421 21.186443,31.207421 C 23.251671,31.207421 18.805638,26.13924 18.682495,26.137957 z"/><path id="path3070" fill="url(#radialGradient1466)" fill-opacity="1" fill-rule="nonzero" stroke="none" stroke-dasharray="none" stroke-dashoffset="0" stroke-linecap="round" stroke-linejoin="round" stroke-miterlimit="4" stroke-opacity=".489" stroke-width="1" d="M 15.321829,11.820429 A 3.9179103,1.7140858 0 1 1 15.321809,11.814959" transform="matrix(1.471073,0,0,2.07479,-2.53692,-6.00708)"/><path id="path3076" fill="none" fill-opacity=".929" fill-rule="evenodd" stroke="#c7d9ec" stroke-linecap="round" stroke-linejoin="round" stroke-opacity="1" stroke-width="1" d="M 22.167723,29.867057 C 20.943502,28.887637 19.965896,26.18786 19.982144,25.748465"/><path id="path3078" fill="none" fill-opacity=".929" fill-rule="evenodd" stroke="#3465a4" stroke-linecap="round" stroke-linejoin="round" stroke-opacity="1" stroke-width="1" d="M 23.107278,31.174088 C 19.805314,30.25986 19.002751,25.985474 19.002751,25.985474"/><path id="path12859" fill="url(#linearGradient1444)" fill-opacity="1" fill-rule="evenodd" stroke="none" stroke-linecap="butt" stroke-linejoin="miter" stroke-opacity="1" stroke-width="1" d="M 14.858273,16.065881 C 10.000401,16.148207 -2.628578,32.895411 14.265594,32.89541 C 17.818729,32.89541 20.142947,32.149754 21.496269,30.975537 C 21.506218,30.966903 21.525931,30.984218 21.53578,30.975537 C 22.289266,31.290606 24.287362,30.456264 25.170874,29.87263 C 28.586573,27.616277 22.919812,22.267056 19.63921,19.292902 C 19.552701,19.214475 16.180285,16.186835 15.016321,16.106729 C 14.960957,16.102974 14.915875,16.064905 14.858273,16.065881 z" opacity=".609"/><path id="path3072" fill="url(#radialGradient1464)" fill-opacity="1" fill-rule="nonzero" stroke="#3465a4" stroke-dasharray="none" stroke-dashoffset="0" stroke-linecap="round" stroke-linejoin="round" stroke-miterlimit="4" stroke-opacity="1" stroke-width=".479" d="M 29.981021,4.5758967 A 3.595403,3.595403 0 1 1 29.981003,4.5644242" transform="matrix(2.08726,0,0,2.086253,-40.82212,3.0125)"/><path id="path3074" fill="none" fill-opacity="1" fill-rule="nonzero" stroke="url(#linearGradient1462)" stroke-dasharray="none" stroke-dashoffset="0" stroke-linecap="round" stroke-linejoin="round" stroke-miterlimit="4" stroke-opacity="1" stroke-width=".555" d="M 29.981021,4.5758967 A 3.595403,3.595403 0 1 1 29.981003,4.5644242" transform="matrix(1.803523,0,0,1.801633,-33.34281,4.321291)"/></g><g id="g12878" transform="translate(-40,-4.6109623e-4)"><path id="path4388" fill="url(#radialGradient12910)" fill-opacity="1" fill-rule="nonzero" stroke="none" stroke-dasharray="none" stroke-dashoffset="0" stroke-linecap="round" stroke-linejoin="round" stroke-miterlimit="4" stroke-opacity=".489" stroke-width="1" d="M 15.321829,11.820429 A 3.9179103,1.7140858 0 1 1 15.321809,11.814959" transform="matrix(3.940754,0,0,2.617296,26.78344,10.29363)"/><path id="path8525" fill="url(#linearGradient12912)" fill-opacity="1" fill-rule="evenodd" stroke="#3c7704" stroke-linecap="butt" stroke-linejoin="round" stroke-opacity="1" stroke-width="1" d="M 64.825208,26.576415 C 60.753024,30.112875 52.765887,35.770449 57.65862,38.994769 C 62.488447,42.177634 64.330035,30.457203 64.330035,30.457203"/><path id="path7071" fill="none" fill-opacity="1" fill-rule="evenodd" stroke="url(#linearGradient12914)" stroke-linecap="butt" stroke-linejoin="round" stroke-opacity="1" stroke-width="1" d="M 64.729267,27.601405 C 61.579235,30.775966 54.196094,35.875368 58.103479,38.315047 C 61.811277,40.630108 63.588777,29.818771 63.588777,29.818771" opacity=".343"/><path id="path5023" fill="url(#radialGradient12916)" fill-opacity="1" fill-rule="evenodd" stroke="#3c7704" stroke-linecap="butt" stroke-linejoin="miter" stroke-opacity="1" stroke-width="1" d="M 72.510875,20.384594 C 66.106934,20.495633 49.458651,43.083807 71.72957,43.083806 C 76.413528,43.083806 79.477453,42.078085 81.26148,40.494333 C 81.2746,40.482688 81.30059,40.506041 81.31357,40.494333 C 82.30686,40.91929 84.94087,39.793952 86.10557,39.006762 C 90.60835,35.963454 83.13808,28.74857 78.813396,24.737112 C 78.699356,24.631331 74.253632,20.547734 72.719223,20.439689 C 72.64624,20.434624 72.586811,20.383277 72.510875,20.384594 z"/><path id="path5900" fill="none" fill-opacity=".75" fill-rule="evenodd" stroke="url(#linearGradient12918)" stroke-linecap="butt" stroke-linejoin="miter" stroke-opacity="1" stroke-width="1" d="M 71.929729,42.245473 C 50.843536,42.44636 67.255345,21.43591 72.290298,21.438545 C 74.354244,21.505158 84.62423,30.720738 86.28802,35.244829 C 87.8525,37.629716 83.25527,40.61378 81.58545,38.800115 C 80.36991,40.484586 77.47357,42.234472 71.929729,42.245473 z" opacity=".864"/><path id="path5265" fill="url(#linearGradient12920)" fill-opacity="1" fill-rule="evenodd" stroke="none" stroke-linecap="butt" stroke-linejoin="miter" stroke-opacity="1" stroke-width="1" d="M 77.07908,31.378493 C 75.420864,32.935149 68.431721,47.579763 80.77551,40.358685 C 83.061018,39.02167 77.986963,32.755138 77.07908,31.378493 z" opacity="1"/><path id="path3505" fill="url(#radialGradient12922)" fill-opacity="1" fill-rule="nonzero" stroke="none" stroke-dasharray="none" stroke-dashoffset="0" stroke-linecap="round" stroke-linejoin="round" stroke-miterlimit="4" stroke-opacity=".489" stroke-width="1" d="M 15.321829,11.820429 A 3.9179103,1.7140858 0 1 1 15.321809,11.814959" transform="matrix(1.886082,0,0,2.660116,50.35948,-7.354525)"/><path id="path14660" fill="none" fill-opacity="1" fill-rule="evenodd" stroke="#a1cc76" stroke-linecap="round" stroke-linejoin="round" stroke-opacity="1" stroke-width="1" d="M 81.62595,38.844029 C 80.05636,37.588301 78.482515,34.222535 78.503347,33.659181"/><path id="path10279" fill="none" fill-opacity=".929" fill-rule="evenodd" stroke="#3c7704" stroke-linecap="round" stroke-linejoin="round" stroke-opacity="1" stroke-width="1" d="M 83.23824,40.315951 C 78.678608,39.67379 77.975774,33.66356 77.975774,33.66356"/><path id="path3169" fill="url(#linearGradient12924)" fill-opacity="1" fill-rule="evenodd" stroke="none" stroke-linecap="butt" stroke-linejoin="miter" stroke-opacity="1" stroke-width="1" d="M 72.552258,20.699875 C 66.326213,20.807829 50.140403,42.768526 71.792657,42.768525 C 76.346499,42.768525 79.325312,41.790742 81.05978,40.250985 C 81.072536,40.239663 81.097804,40.262367 81.110423,40.250985 C 82.07612,40.664137 84.63696,39.57006 85.769306,38.804737 C 90.147003,35.845969 82.88425,28.831508 78.679701,24.931484 C 78.568829,24.828641 74.246603,20.858483 72.754819,20.753439 C 72.683863,20.748515 72.626085,20.698594 72.552258,20.699875 z"/><path id="path4929" fill="url(#linearGradient12926)" fill-opacity="1" fill-rule="evenodd" stroke="none" stroke-linecap="butt" stroke-linejoin="miter" stroke-opacity="1" stroke-width="1" d="M 72.552258,20.699875 C 66.326213,20.807829 50.140403,42.768526 71.792657,42.768525 C 76.346499,42.768525 79.325312,41.790742 81.05978,40.250985 C 81.072536,40.239663 81.097804,40.262367 81.110423,40.250985 C 82.07612,40.664137 84.63696,39.57006 85.769306,38.804737 C 90.147003,35.845969 82.88425,28.831508 78.679701,24.931484 C 78.568829,24.828641 74.246603,20.858483 72.754819,20.753439 C 72.683863,20.748515 72.626085,20.698594 72.552258,20.699875 z"/><path id="path2396" fill="url(#radialGradient12928)" fill-opacity="1" fill-rule="nonzero" stroke="#3c7704" stroke-dasharray="none" stroke-dashoffset="0" stroke-linecap="round" stroke-linejoin="round" stroke-miterlimit="4" stroke-opacity="1" stroke-width=".393" d="M 29.981021,4.5758967 A 3.595403,3.595403 0 1 1 29.981003,4.5644242" transform="matrix(2.545747,0,0,2.548324,5.07248,5.001384)"/><path id="path4933" fill="url(#linearGradient12930)" fill-opacity="1" fill-rule="nonzero" stroke="none" stroke-dasharray="none" stroke-dashoffset="0" stroke-linecap="round" stroke-linejoin="round" stroke-miterlimit="4" stroke-opacity="1" stroke-width=".393" d="M 29.981021,4.5758967 A 3.595403,3.595403 0 1 1 29.981003,4.5644242" transform="matrix(2.406821,0,0,2.409258,8.738122,5.637738)"/><path id="path2398" fill="none" fill-opacity="1" fill-rule="nonzero" stroke="url(#linearGradient12932)" stroke-dasharray="none" stroke-dashoffset="0" stroke-linecap="round" stroke-linejoin="round" stroke-miterlimit="4" stroke-opacity="1" stroke-width=".436" d="M 29.981021,4.5758967 A 3.595403,3.595403 0 1 1 29.981003,4.5644242" opacity=".719" transform="matrix(2.3031,0,0,2.282878,11.47677,6.132155)"/></g></g></svg>