<svg xmlns="http://www.w3.org/2000/svg" xmlns:svg="http://www.w3.org/2000/svg" xmlns:xlink="http://www.w3.org/1999/xlink" id="svg7194" width="48" height="48" version="1.1"><defs id="defs7196"><radialGradient id="radialGradient3749" cx="62.625" cy="4.625" r="10.625" fx="62.625" fy="4.625" gradientTransform="matrix(2.1647059,0,0,0.7529402,-111.56471,36.517647)" gradientUnits="userSpaceOnUse" xlink:href="#linearGradient8838"/><linearGradient id="linearGradient8838"><stop id="stop8840" offset="0" stop-color="#000" stop-opacity="1"/><stop id="stop8842" offset="1" stop-color="#000" stop-opacity="0"/></linearGradient><radialGradient id="radialGradient2852" cx="20.255" cy="4.816" r="23" fx="20.255" fy="4.816" gradientTransform="matrix(-1.3618602e-8,1.7826087,-1.4881952,-1.136937e-8,30.166509,-33.107075)" gradientUnits="userSpaceOnUse" xlink:href="#linearGradient3671"/><linearGradient id="linearGradient3671"><stop id="stop3673" offset="0" stop-color="#8fb3d9" stop-opacity="1"/><stop id="stop3675" offset=".262" stop-color="#729fcf" stop-opacity="1"/><stop id="stop3677" offset=".705" stop-color="#3465a4" stop-opacity="1"/><stop id="stop3679" offset="1" stop-color="#204a87" stop-opacity="1"/></linearGradient><linearGradient id="linearGradient2854" x1="18.139" x2="18.139" y1="45.218" y2="3" gradientUnits="userSpaceOnUse" xlink:href="#linearGradient3707"/><linearGradient id="linearGradient3707"><stop id="stop3709" offset="0" stop-color="#204a87" stop-opacity="1"/><stop id="stop3711" offset="1" stop-color="#3465a4" stop-opacity="1"/></linearGradient><radialGradient id="radialGradient3703" cx="23.402" cy="2.26" r="21.996" fx="23.402" fy="2.26" gradientTransform="matrix(0,1.5002999,-1.2268499,0,26.772631,-31.109747)" gradientUnits="userSpaceOnUse" xlink:href="#linearGradient4593"/><linearGradient id="linearGradient4593"><stop id="stop12409" offset="0" stop-color="#fff" stop-opacity=".702"/><stop id="stop12411" offset="1" stop-color="#fff" stop-opacity="0"/></linearGradient></defs><metadata id="metadata7199"/><g id="layer1"><g id="g8575" transform="translate(-4.008299e-4,0)"><path id="path8836" fill="url(#radialGradient3749)" fill-opacity="1" fill-rule="evenodd" stroke="none" stroke-width="1" d="m 46.999997,40 c 0,4.418278 -10.297452,8 -23,8 -12.702548,0 -23.0000002,-3.581722 -23.0000002,-8 0,-4.418278 10.2974522,-8 23.0000002,-8 12.702548,0 23,3.581722 23,8 l 0,0 z" display="inline" opacity=".3" overflow="visible" visibility="visible" style="marker:none"/><path id="path6145" fill="url(#radialGradient2852)" fill-opacity="1" fill-rule="evenodd" stroke="url(#linearGradient2854)" stroke-dasharray="none" stroke-dashoffset="0" stroke-linecap="butt" stroke-linejoin="round" stroke-miterlimit="4" stroke-opacity="1" stroke-width="1" d="M 20.81268,3.7833432 C 9.2946995,5.4814553 0.72562809,13.407581 1.5,22 c 0.501439,5.563942 4.8930294,10.08374 11,12.5 l -3,10 12,-8 c 1.391686,0.06652 2.544259,0.0581 4,0 C 38.027923,36 47.046506,27.087314 46.5,18 45.956628,8.9647924 34.908657,2.4973151 22.527879,3.6268593 21.947531,3.6798066 21.37914,3.6998293 20.81268,3.7833432 z" display="inline" overflow="visible" visibility="visible" style="marker:none"/><path id="path6179" fill="none" stroke="url(#radialGradient3703)" stroke-dasharray="none" stroke-dashoffset="0" stroke-linecap="butt" stroke-linejoin="miter" stroke-miterlimit="4" stroke-opacity="1" stroke-width=".995" d="M 21.094648,4.7623218 C 11,6 2,13 2.5,21.860582 2.8470404,28.010543 8,32 13.5,34 l -1.886071,7.942831 9.157595,-6.58386 C 22.006768,35.412641 24.20783,35.561532 25.5,35.5 36,35 46,28 45.5,18.272 45,9 33.258184,3.6525973 22.617637,4.6233737 c -0.51531,0.047014 -1.01993,0.065683 -1.522989,0.1389481 l 0,0 z" display="inline" opacity=".4" overflow="visible" visibility="visible" style="marker:none"/><path id="path3705" fill="#3465a4" fill-opacity="1" stroke-width="1" d="M 10,44 13,34.25 21.5,36 10,44 10,44 z"/></g><path id="path8595" fill="#000" fill-opacity="1" fill-rule="nonzero" stroke="#000" stroke-dasharray="none" stroke-linejoin="round" stroke-miterlimit="4" stroke-opacity="1" stroke-width="1" d="M 23.579474,21.498509 21.126999,8.576227 24.12517,8.471529 24.613763,22.463 23.579474,21.498509 z" display="inline" enable-background="new" opacity=".2"/><g id="g11161" fill="#fff" fill-opacity="1" fill-rule="nonzero" stroke="#fff" stroke-miterlimit="4" stroke-opacity="1" stroke-width=".98" display="inline" transform="matrix(0.8800893,0,0,0.8943381,4.4394752,-2.699145)"><path id="path11163" fill="#fff" fill-opacity="1" stroke="#fff" stroke-dasharray="none" stroke-linejoin="round" stroke-miterlimit="4" stroke-opacity="1" stroke-width="1.127" d="m 22.88423,27.056216 -2.786621,-14.44899 3.406667,-0.117068 0.555163,15.644499 -1.175209,-1.078441 z"/></g><path id="path7823" fill="#000" fill-opacity="1" stroke="none" d="m 20.668958,34.547359 a 2.2272584,2.4054391 0 1 1 -4.454516,0 2.2272584,2.4054391 0 1 1 4.454516,0 z" opacity=".2" transform="matrix(1.1224562,0,0,1.0393113,3.7999992,-8.4054609)"/><path id="path8287" fill="#fff" fill-opacity="1" stroke="none" d="m 20.668958,34.547359 a 2.2272584,2.4054391 0 1 1 -4.454516,0 2.2272584,2.4054391 0 1 1 4.454516,0 z" transform="matrix(1.1224562,0,0,1.0393113,4.7999992,-8.4054609)"/></g></svg>