<svg xmlns="http://www.w3.org/2000/svg" xmlns:svg="http://www.w3.org/2000/svg" xmlns:xlink="http://www.w3.org/1999/xlink" id="svg7383" width="48" height="48"><defs id="defs7385"><linearGradient id="linearGradient6380"><stop id="stop6382" offset="0" stop-color="#fff" stop-opacity="1"/><stop id="stop6384" offset="1" stop-color="#fff" stop-opacity="0"/></linearGradient><radialGradient id="radialGradient6386" cx="17.482" cy="8.304" r="21" fx="17.482" fy="8.304" gradientTransform="matrix(-2.2379957,0,0,1.0086877,55.098618,16.149308)" gradientUnits="userSpaceOnUse" xlink:href="#linearGradient6380"/><linearGradient id="linearGradient6288"><stop id="stop6290" offset="0" stop-color="#eeeeec" stop-opacity="1"/><stop id="stop6292" offset="1" stop-color="#babdb6" stop-opacity="1"/></linearGradient><radialGradient id="radialGradient8344" cx="11.031" cy="11.497" r="10.969" fx="11.031" fy="11.497" gradientTransform="matrix(3.0249844,0,0,2.0992192,-9.3693601,0.8779019)" gradientUnits="userSpaceOnUse" xlink:href="#linearGradient6288"/><linearGradient id="linearGradient3690"><stop id="stop3692" offset="0" stop-color="#fff" stop-opacity="1"/><stop id="stop3694" offset="1" stop-color="#fff" stop-opacity=".469"/></linearGradient><linearGradient id="linearGradient2289" x1="9.5" x2="9.5" y1="16.264" y2="13.409" gradientTransform="matrix(1.2605424,0,0,1.2058553,-7.4733927,-4.9459443)" gradientUnits="userSpaceOnUse" xlink:href="#linearGradient3690"/><linearGradient id="linearGradient3674"><stop id="stop3676" offset="0" stop-color="#555753" stop-opacity="1"/><stop id="stop3678" offset="1" stop-color="#888a85" stop-opacity="1"/></linearGradient><linearGradient id="linearGradient2292" x1="23.069" x2="23.069" y1="6.799" y2="12.403" gradientTransform="matrix(1.2446306,0,0,1.2707947,-7.0741541,-5.3017623)" gradientUnits="userSpaceOnUse" xlink:href="#linearGradient3674"/><linearGradient id="linearGradient2781"><stop id="stop2783" offset="0" stop-color="#d3d7cf" stop-opacity="1"/><stop id="stop2785" offset="1" stop-color="#eeeeec" stop-opacity="1"/></linearGradient><linearGradient id="linearGradient2295" x1="24.926" x2="25" y1="40" y2="18.788" gradientTransform="matrix(1.2446306,0,0,1.1767765,-7.0741541,-3.9826543)" gradientUnits="userSpaceOnUse" xlink:href="#linearGradient2781"/><radialGradient id="radialGradient2286" cx="51.438" cy="-12.203" r="2.172" fx="51.438" fy="-12.203" gradientTransform="matrix(-1.9576392,-9.2540676e-8,-1.2888861e-7,1.4565793,110.01781,62.73803)" gradientUnits="userSpaceOnUse" xlink:href="#linearGradient51765"/><linearGradient id="linearGradient51765"><stop id="stop51767" offset="0" stop-color="#000" stop-opacity="1"/><stop id="stop51769" offset="1" stop-color="#000" stop-opacity="0"/></linearGradient><radialGradient id="radialGradient2284" cx="51.438" cy="-12.203" r="2.172" fx="51.438" fy="-12.203" gradientTransform="matrix(1.9576392,-8.146468e-7,6.6614241e-7,1.4565793,-59.017557,62.738067)" gradientUnits="userSpaceOnUse" xlink:href="#linearGradient51765"/><linearGradient id="linearGradient47870"><stop id="stop47872" offset="0" stop-color="#000" stop-opacity="0"/><stop id="stop47878" offset=".5" stop-color="#000" stop-opacity="1"/><stop id="stop47874" offset="1" stop-color="#000" stop-opacity="0"/></linearGradient><linearGradient id="linearGradient2282" x1="32.085" x2="32.085" y1="-14.402" y2="-5.563" gradientTransform="matrix(0.9788196,0,0,0.7154223,-8.5008021,52.112719)" gradientUnits="userSpaceOnUse" xlink:href="#linearGradient47870"/></defs><metadata id="metadata7388"/><g id="layer1"><g id="g54724" transform="matrix(1.1257886,0,0,1.2632476,-4.7077482,-15.803368)"><rect id="rect46899" width="32.357" height="6.323" x="9.322" y="41.809" fill="url(#linearGradient2282)" fill-opacity="1" fill-rule="evenodd" stroke="none" stroke-dasharray="none" stroke-dashoffset="0" stroke-linecap="butt" stroke-linejoin="miter" stroke-miterlimit="4" stroke-opacity="1" stroke-width="1.024" opacity=".3"/><path id="path48849" fill="url(#radialGradient2284)" fill-opacity="1" fill-rule="evenodd" stroke="none" stroke-dasharray="none" stroke-dashoffset="0" stroke-linecap="butt" stroke-linejoin="miter" stroke-miterlimit="4" stroke-opacity="1" stroke-width="1.024" d="M 41.6785,41.799698 L 41.6785,48.126714 C 44.022298,48.102828 45.930248,46.705313 45.930248,44.974385 C 45.930248,43.243458 44.022299,41.823584 41.6785,41.799698 z" opacity=".3"/><path id="path52742" fill="url(#radialGradient2286)" fill-opacity="1" fill-rule="evenodd" stroke="none" stroke-dasharray="none" stroke-dashoffset="0" stroke-linecap="butt" stroke-linejoin="miter" stroke-miterlimit="4" stroke-opacity="1" stroke-width="1.024" d="M 9.3217476,41.799698 L 9.3217476,48.126714 C 6.9779494,48.102828 5.07,46.705313 5.07,44.974385 C 5.07,43.243458 6.9779484,41.823584 9.3217476,41.799698 z" opacity=".3"/></g><rect id="rect1915" width="41.073" height="35.892" x="3.505" y="6.608" fill="url(#linearGradient2295)" fill-opacity="1" stroke="#888a85" stroke-dasharray="none" stroke-miterlimit="4" stroke-opacity="1" stroke-width="1" rx="2" ry="2"/><path id="path1917" fill="url(#linearGradient2292)" fill-opacity="1" stroke="#555753" stroke-miterlimit="4" stroke-opacity="1" stroke-width="1" d="M 3.5052037,13 L 3.5052037,8.0415897 C 3.5052037,6.6335487 4.6154147,5.4999997 5.9944647,5.4999997 L 42.08875,5.4999997 C 43.4678,5.4999997 44.578011,6.6335487 44.578011,8.0415897 L 44.578011,13"/><rect id="rect1919" width="39.077" height="34.97" x="4.502" y="6.51" fill="none" fill-opacity="1" stroke="url(#linearGradient2289)" stroke-dasharray="none" stroke-miterlimit="4" stroke-opacity="1" stroke-width="1" opacity=".8" rx="1.511" ry="1.511"/><g id="g8333" transform="matrix(0.6808511,0,0,0.6808511,7.6599397,10.723031)"><rect id="rect5317" width="42.618" height="33.748" x="2.675" y="7.045" fill="url(#radialGradient8344)" fill-opacity="1" stroke="#888a85" stroke-dasharray="none" stroke-dashoffset=".7" stroke-linecap="round" stroke-linejoin="miter" stroke-miterlimit="4" stroke-opacity="1" stroke-width="1.469" rx="2.051" ry="2.051"/><rect id="rect6304" width="39.702" height="30.773" x="4.182" y="8.532" fill="none" fill-opacity="1" stroke="#fff" stroke-dasharray="none" stroke-dashoffset=".7" stroke-linecap="round" stroke-linejoin="miter" stroke-miterlimit="4" stroke-opacity="1" stroke-width="1.469" opacity=".45" rx="1.076" ry="1.076"/><rect id="rect6306" width="20.513" height="7.298" x="14.506" y="21.721" fill="#fff" fill-opacity="1" stroke="#babdb6" stroke-dasharray="none" stroke-dashoffset=".7" stroke-linecap="round" stroke-linejoin="miter" stroke-miterlimit="4" stroke-opacity="1" stroke-width="1.469" rx="1.031" ry="1.031"/><path id="path6308" fill="#000" fill-opacity="1" stroke="none" stroke-dasharray="none" stroke-dashoffset=".7" stroke-linecap="round" stroke-linejoin="miter" stroke-miterlimit="4" stroke-opacity="1" stroke-width="1" d="M 8.883029,11.769049 A 1.3037281,1.3479223 0 1 1 6.2755728,11.769049 A 1.3037281,1.3479223 0 1 1 8.883029,11.769049 z" transform="matrix(1.1505466,0,0,1.1128235,9.3968666,12.261899)"/><path id="path5346" fill="#000" fill-opacity="1" stroke="none" stroke-dasharray="none" stroke-dashoffset=".7" stroke-linecap="round" stroke-linejoin="miter" stroke-miterlimit="4" stroke-opacity="1" stroke-width="1" d="M 8.883029,11.769049 A 1.3037281,1.3479223 0 1 1 6.2755728,11.769049 A 1.3037281,1.3479223 0 1 1 8.883029,11.769049 z" transform="matrix(1.1505466,0,0,1.1128235,13.770101,12.278127)"/><path id="path5348" fill="#000" fill-opacity="1" stroke="none" stroke-dasharray="none" stroke-dashoffset=".7" stroke-linecap="round" stroke-linejoin="miter" stroke-miterlimit="4" stroke-opacity="1" stroke-width="1" d="M 8.883029,11.769049 A 1.3037281,1.3479223 0 1 1 6.2755728,11.769049 A 1.3037281,1.3479223 0 1 1 8.883029,11.769049 z" transform="matrix(1.1505466,0,0,1.1128235,18.185909,12.310582)"/><path id="path5350" fill="#000" fill-opacity="1" stroke="none" stroke-dasharray="none" stroke-dashoffset=".7" stroke-linecap="round" stroke-linejoin="miter" stroke-miterlimit="4" stroke-opacity="1" stroke-width="1" d="M 8.883029,11.769049 A 1.3037281,1.3479223 0 1 1 6.2755728,11.769049 A 1.3037281,1.3479223 0 1 1 8.883029,11.769049 z" transform="matrix(1.1505466,0,0,1.1128235,22.581478,12.309376)"/></g><path id="path6374" fill="url(#radialGradient6386)" fill-opacity="1" stroke="none" stroke-dasharray="none" stroke-dashoffset=".7" stroke-linecap="round" stroke-linejoin="miter" stroke-miterlimit="4" stroke-opacity="1" stroke-width="1" d="M 36.969243,16.081452 C 37.562912,16.081452 38.033073,16.551613 38.033073,17.145282 L 37.966782,22.999628 C 29.32661,28.575538 20.046607,30.482418 9.9897557,27.999628 L 10.056047,17.063458 C 10.056047,16.469789 10.526207,15.999628 11.119876,15.999628 L 36.969243,16.081452 z" opacity=".5"/></g></svg>