<svg xmlns="http://www.w3.org/2000/svg" xmlns:svg="http://www.w3.org/2000/svg" xmlns:xlink="http://www.w3.org/1999/xlink" id="svg7460" width="48" height="48"><defs id="defs7462"><linearGradient id="linearGradient6380"><stop id="stop6382" offset="0" stop-color="#fff" stop-opacity="1"/><stop id="stop6384" offset="1" stop-color="#fff" stop-opacity="0"/></linearGradient><radialGradient id="radialGradient6386" cx="17.482" cy="8.304" r="21" fx="17.482" fy="8.304" gradientTransform="matrix(-3.2870561,0,0,1.48151,69.675557,4.9698434)" gradientUnits="userSpaceOnUse" xlink:href="#linearGradient6380"/><linearGradient id="linearGradient3307"><stop id="stop3309" offset="0" stop-color="#888a85" stop-opacity="1"/><stop id="stop3311" offset="1" stop-color="#888a85" stop-opacity="0"/></linearGradient><linearGradient id="linearGradient3313" x1="36.202" x2="32.268" y1="37.667" y2="39.922" gradientUnits="userSpaceOnUse" xlink:href="#linearGradient3307"/><linearGradient id="linearGradient3315"><stop id="stop3317" offset="0" stop-color="#fff" stop-opacity="1"/><stop id="stop3319" offset="1" stop-color="#fff" stop-opacity="0"/></linearGradient><linearGradient id="linearGradient3321" x1="33.358" x2="33.046" y1="37.386" y2="46.324" gradientUnits="userSpaceOnUse" xlink:href="#linearGradient3315"/><linearGradient id="linearGradient3355"><stop id="stop3357" offset="0" stop-color="#6f716c" stop-opacity="1"/><stop id="stop3359" offset="1" stop-color="#888a85" stop-opacity="0"/></linearGradient><linearGradient id="linearGradient3329" x1="38.202" x2="38.98" y1="41.542" y2="44.495" gradientUnits="userSpaceOnUse" xlink:href="#linearGradient3355"/><linearGradient id="linearGradient3331"><stop id="stop3333" offset="0" stop-color="#d3d7cf" stop-opacity="1"/><stop id="stop3335" offset="1" stop-color="#d3d7cf" stop-opacity="0"/></linearGradient><linearGradient id="linearGradient3337" x1="35.119" x2="35.358" y1="40.171" y2="45.699" gradientUnits="userSpaceOnUse" xlink:href="#linearGradient3331"/><linearGradient id="linearGradient5354"><stop id="stop5356" offset="0" stop-color="#fff" stop-opacity="1"/><stop id="stop5358" offset="1" stop-color="#fff" stop-opacity="0"/></linearGradient><linearGradient id="linearGradient8346" x1="18.12" x2="18.12" y1="36.51" y2="40.376" gradientTransform="matrix(0.9545455,0,0,1,1.0909091,0)" gradientUnits="userSpaceOnUse" xlink:href="#linearGradient5354"/><linearGradient id="linearGradient6288"><stop id="stop6290" offset="0" stop-color="#eeeeec" stop-opacity="1"/><stop id="stop6292" offset="1" stop-color="#babdb6" stop-opacity="1"/></linearGradient><radialGradient id="radialGradient8344" cx="11.031" cy="11.497" r="10.969" fx="11.031" fy="11.497" gradientTransform="matrix(3.0249844,0,0,2.0992192,-9.3693601,0.8779019)" gradientUnits="userSpaceOnUse" xlink:href="#linearGradient6288"/><radialGradient id="radialGradient8405" cx="1" cy="37.5" r="2" fx="1" fy="37.5" gradientTransform="matrix(1,0,0,1.25,44,-9.375)" gradientUnits="userSpaceOnUse" xlink:href="#linearGradient8358"/><linearGradient id="linearGradient8368"><stop id="stop8370" offset="0" stop-color="#000" stop-opacity="0"/><stop id="stop8376" offset=".5" stop-color="#000" stop-opacity="1"/><stop id="stop8372" offset="1" stop-color="#000" stop-opacity="0"/></linearGradient><linearGradient id="linearGradient8403" x1="9" x2="9" y1="40" y2="35" gradientTransform="translate(-1,0)" gradientUnits="userSpaceOnUse" xlink:href="#linearGradient8368"/><linearGradient id="linearGradient8358"><stop id="stop8360" offset="0" stop-color="#000" stop-opacity="1"/><stop id="stop8362" offset="1" stop-color="#000" stop-opacity="0"/></linearGradient><radialGradient id="radialGradient8401" cx="1" cy="37.5" r="2" fx="1" fy="37.5" gradientTransform="matrix(1,0,0,1.25,-4,-84.375)" gradientUnits="userSpaceOnUse" xlink:href="#linearGradient8358"/></defs><metadata id="metadata7465"/><g id="layer1"><g id="g8396" opacity=".3" transform="matrix(1.0217391,0,0,1.1,-0.5217391,-4.0000005)"><rect id="rect8348" width="2" height="5" x="-3" y="-40" fill="url(#radialGradient8401)" fill-opacity="1" stroke="none" stroke-dasharray="none" stroke-dashoffset=".7" stroke-linecap="round" stroke-linejoin="miter" stroke-miterlimit="4" stroke-opacity="1" stroke-width="1" opacity="1" transform="scale(-1,-1)"/><rect id="rect8366" width="42" height="5" x="3" y="35" fill="url(#linearGradient8403)" fill-opacity="1" stroke="none" stroke-dasharray="none" stroke-dashoffset=".7" stroke-linecap="round" stroke-linejoin="miter" stroke-miterlimit="4" stroke-opacity="1" stroke-width="1" opacity="1"/><rect id="rect8390" width="2" height="5" x="45" y="35" fill="url(#radialGradient8405)" fill-opacity="1" stroke="none" stroke-dasharray="none" stroke-dashoffset=".7" stroke-linecap="round" stroke-linejoin="miter" stroke-miterlimit="4" stroke-opacity="1" stroke-width="1" opacity="1"/></g><g id="g8333" transform="translate(-9.9999999e-8,-3.0000005)"><rect id="rect5317" width="42.975" height="33.002" x="2.512" y="7.499" fill="url(#radialGradient8344)" fill-opacity="1" stroke="#888a85" stroke-dasharray="none" stroke-dashoffset=".7" stroke-linecap="round" stroke-linejoin="miter" stroke-miterlimit="4" stroke-opacity="1" stroke-width="1" rx="2.051" ry="2.051"/><rect id="rect6304" width="41" height="31" x="3.5" y="8.5" fill="none" fill-opacity="1" stroke="#fff" stroke-dasharray="none" stroke-dashoffset=".7" stroke-linecap="round" stroke-linejoin="miter" stroke-miterlimit="4" stroke-opacity="1" stroke-width="1" opacity=".45" rx="1.076" ry="1.076"/><rect id="rect6306" width="21" height="6" x="13.5" y="22.5" fill="#fff" fill-opacity="1" stroke="#babdb6" stroke-dasharray="none" stroke-dashoffset=".7" stroke-linecap="round" stroke-linejoin="miter" stroke-miterlimit="4" stroke-opacity="1" stroke-width="1" rx="1.031" ry="1.031"/><path id="path6308" fill="#000" fill-opacity="1" stroke="none" stroke-dasharray="none" stroke-dashoffset=".7" stroke-linecap="round" stroke-linejoin="miter" stroke-miterlimit="4" stroke-opacity="1" stroke-width="1" d="M 8.883029,11.769049 A 1.3037281,1.3479223 0 1 1 6.2755728,11.769049 A 1.3037281,1.3479223 0 1 1 8.883029,11.769049 z" transform="matrix(1.1505466,0,0,1.1128235,7.7796609,12.403126)"/><path id="path5346" fill="#000" fill-opacity="1" stroke="none" stroke-dasharray="none" stroke-dashoffset=".7" stroke-linecap="round" stroke-linejoin="miter" stroke-miterlimit="4" stroke-opacity="1" stroke-width="1" d="M 8.883029,11.769049 A 1.3037281,1.3479223 0 1 1 6.2755728,11.769049 A 1.3037281,1.3479223 0 1 1 8.883029,11.769049 z" transform="matrix(1.1505466,0,0,1.1128235,11.779661,12.403126)"/><path id="path5348" fill="#000" fill-opacity="1" stroke="none" stroke-dasharray="none" stroke-dashoffset=".7" stroke-linecap="round" stroke-linejoin="miter" stroke-miterlimit="4" stroke-opacity="1" stroke-width="1" d="M 8.883029,11.769049 A 1.3037281,1.3479223 0 1 1 6.2755728,11.769049 A 1.3037281,1.3479223 0 1 1 8.883029,11.769049 z" transform="matrix(1.1505466,0,0,1.1128235,15.779661,12.403126)"/><path id="path5350" fill="#000" fill-opacity="1" stroke="none" stroke-dasharray="none" stroke-dashoffset=".7" stroke-linecap="round" stroke-linejoin="miter" stroke-miterlimit="4" stroke-opacity="1" stroke-width="1" d="M 8.883029,11.769049 A 1.3037281,1.3479223 0 1 1 6.2755728,11.769049 A 1.3037281,1.3479223 0 1 1 8.883029,11.769049 z" transform="matrix(1.1505466,0,0,1.1128235,19.779661,12.403126)"/><rect id="rect5352" width="42" height="5" x="3" y="36" fill="url(#linearGradient8346)" fill-opacity="1" stroke="none" stroke-dasharray="none" stroke-dashoffset=".7" stroke-linecap="round" stroke-linejoin="miter" stroke-miterlimit="4" stroke-opacity="1" stroke-width="1" opacity=".656" rx="0" ry="0"/><rect id="rect6331" width="12" height="1" x="13" y="20" fill="#000" fill-opacity="1" stroke="none" stroke-dasharray="none" stroke-dashoffset=".7" stroke-linecap="round" stroke-linejoin="miter" stroke-miterlimit="4" stroke-opacity="1" stroke-width="1" opacity=".069" rx=".5" ry=".5"/></g><path id="path8417" fill="#000" fill-opacity="1" stroke="none" stroke-dasharray="none" stroke-dashoffset=".7" stroke-linecap="round" stroke-linejoin="miter" stroke-miterlimit="4" stroke-opacity="1" stroke-width="1" d="M 32.03125,26 C 31.361036,26.040205 30.708288,26.148665 30.0625,26.375 C 29.967283,26.401782 29.880485,26.470663 29.84375,26.5625 C 29.807015,26.654337 29.824521,26.758689 29.875,26.84375 C 29.892825,26.867389 29.913861,26.888425 29.9375,26.90625 L 34.25,31.21875 L 32.96875,33.75 L 30.4375,35.0625 L 26.125,30.75 C 26.11532,30.738872 26.104878,30.72843 26.09375,30.71875 C 26.011369,30.654298 25.912336,30.625051 25.8125,30.65625 C 25.712664,30.687448 25.624774,30.775109 25.59375,30.875 C 24.745566,33.26401 25.196751,35.974825 26.90625,38 L 41.90625,38 L 39.4375,35.53125 C 40.249195,33.001254 39.660868,30.129618 37.65625,28.125 C 36.116147,26.584897 34.04771,25.879036 32.03125,26 z" opacity=".112"/><g id="g3302" display="inline" transform="matrix(0.707107,-0.707107,0.707107,0.707107,-14.178071,34.842537)"><path id="path2343" fill="url(#linearGradient3337)" fill-opacity="1" fill-rule="nonzero" stroke="url(#linearGradient3329)" stroke-dasharray="none" stroke-dashoffset="1.4" stroke-linecap="round" stroke-linejoin="round" stroke-miterlimit="4" stroke-opacity="1" stroke-width="1" marker-end="none" marker-mid="none" marker-start="none" d="M 32.5,24.1875 C 30.13715,25.312159 28.5,27.710447 28.5,30.5 C 28.5,33.289555 30.137147,35.687838 32.5,36.8125 L 32.5,52.52167 L 38.53125,52.52167 L 38.53125,36.8125 C 40.880361,35.682677 42.5,33.279516 42.5,30.5 C 42.5,27.720486 40.880357,25.31732 38.53125,24.1875 L 38.53125,30.5 L 35.515625,31.5 L 32.5,30.5 L 32.5,24.1875 z" display="inline" opacity="1" overflow="visible" visibility="visible" style="marker:none"/><path id="path3297" fill="none" fill-opacity="1" fill-rule="nonzero" stroke="url(#linearGradient3321)" stroke-dashoffset="1.4" stroke-linecap="round" stroke-linejoin="miter" stroke-miterlimit="4" stroke-opacity="1" stroke-width="1" marker-end="none" marker-mid="none" marker-start="none" d="M 31.5,26.34375 C 30.359137,27.432066 29.5,28.792056 29.5,30.5 C 29.5,32.900502 30.909032,34.940748 32.9375,35.90625 C 33.284845,36.073728 33.504061,36.426909 33.5,36.8125 L 33.5,51.499573 L 37.53125,51.499573 L 37.53125,36.8125 C 37.527189,36.426909 37.746405,36.073728 38.09375,35.90625 C 40.107408,34.937766 41.5,32.893233 41.5,30.5 C 41.5,28.802203 40.65724,27.433848 39.53125,26.34375 L 39.53125,30.5 C 39.527628,30.92786 39.250736,31.305441 38.84375,31.4375 L 35.8125,32.4375 C 35.60958,32.504668 35.39042,32.504668 35.1875,32.4375 L 32.1875,31.4375 C 31.780514,31.305441 31.503622,30.92786 31.5,30.5 L 31.5,26.34375 z" display="inline" overflow="visible" visibility="visible" style="marker:none"/><rect id="rect3300" width="2" height="15" x="34.5" y="37.5" fill="none" fill-opacity="1" fill-rule="nonzero" stroke="url(#linearGradient3313)" stroke-dasharray="none" stroke-dashoffset="1.4" stroke-linecap="round" stroke-linejoin="miter" stroke-miterlimit="4" stroke-opacity="1" stroke-width="1" marker-end="none" marker-mid="none" marker-start="none" display="inline" opacity=".4" overflow="visible" rx="1" ry="1" visibility="visible" style="marker:none"/></g><path id="path6374" fill="url(#radialGradient6386)" fill-opacity="1" stroke="none" stroke-dasharray="none" stroke-dashoffset=".7" stroke-linecap="round" stroke-linejoin="miter" stroke-miterlimit="4" stroke-opacity="1" stroke-width="1" d="M 43.4375,4.9999995 C 44.309451,4.9999995 45,5.6905489 45,6.5624995 L 45,14.09375 C 32.309747,22.283368 17.771002,26.209098 2.9999996,22.5625 L 2.9999996,6.5624995 C 2.9999996,5.6905483 3.6905486,4.9999995 4.5624996,4.9999995 L 43.4375,4.9999995 z" opacity=".5"/></g></svg>