<svg xmlns="http://www.w3.org/2000/svg" xmlns:svg="http://www.w3.org/2000/svg" xmlns:xlink="http://www.w3.org/1999/xlink" id="svg7421" width="48" height="48"><defs id="defs7423"><linearGradient id="linearGradient3650"><stop id="stop3652" offset="0" stop-color="#fff" stop-opacity="1"/><stop id="stop3654" offset="1" stop-color="#fff" stop-opacity="0"/></linearGradient><radialGradient id="radialGradient3656" cx="20.542" cy="22.496" r="12.475" fx="20.542" fy="22.496" gradientUnits="userSpaceOnUse" xlink:href="#linearGradient3650"/><linearGradient id="linearGradient3630"><stop id="stop3632" offset="0" stop-color="#78a3d1" stop-opacity="1"/><stop id="stop3634" offset="1" stop-color="#316396" stop-opacity="1"/></linearGradient><radialGradient id="radialGradient3660" cx="18.883" cy="20.482" r="12.975" fx="18.883" fy="20.482" gradientTransform="matrix(0.651204,8.154067e-3,-8.829574e-3,0.708317,6.767187,5.820332)" gradientUnits="userSpaceOnUse" xlink:href="#linearGradient3630"/><linearGradient id="linearGradient3594" x1="20.304" x2="20.304" y1="17.112" y2="42" gradientTransform="matrix(0.273966,0,0,0.266767,14.48659,30.469647)" gradientUnits="userSpaceOnUse" xlink:href="#linearGradient3556"/><linearGradient id="linearGradient3590" x1="20.304" x2="20.304" y1="17.112" y2="42" gradientTransform="matrix(0.273966,0,0,0.266767,14.48659,16.469647)" gradientUnits="userSpaceOnUse" xlink:href="#linearGradient3556"/><linearGradient id="linearGradient3586" x1="20.304" x2="20.304" y1="16.202" y2="42" gradientTransform="matrix(0.913221,0,0,0.889223,0.4548007,14.065487)" gradientUnits="userSpaceOnUse" xlink:href="#linearGradient3556"/><linearGradient id="linearGradient3556"><stop id="stop3558" offset="0" stop-color="#e9b96e" stop-opacity="1"/><stop id="stop3560" offset="1" stop-color="#c17d11" stop-opacity="1"/></linearGradient><linearGradient id="linearGradient3582" x1="20.304" x2="20.304" y1="17.112" y2="36.328" gradientTransform="matrix(0.91322,0,0,0.889223,0.4548007,6.5484136e-2)" gradientUnits="userSpaceOnUse" xlink:href="#linearGradient3556"/><linearGradient id="linearGradient3608"><stop id="stop3610" offset="0" stop-color="#e7b05b" stop-opacity="1"/><stop id="stop3612" offset="1" stop-color="#c17d11" stop-opacity="1"/></linearGradient><linearGradient id="linearGradient3562" x1="20.304" x2="20.304" y1="12.143" y2="42" gradientTransform="matrix(1,0,0,1.004099,-1.9997793,-0.1700829)" gradientUnits="userSpaceOnUse" xlink:href="#linearGradient3608"/><radialGradient id="radialGradient3999" cx="605.714" cy="486.648" r="117.143" fx="605.714" fy="486.648" gradientTransform="matrix(-2.774389,0,0,1.969706,223.3192,-876.5339)" gradientUnits="userSpaceOnUse" xlink:href="#linearGradient5060"/><linearGradient id="linearGradient5060"><stop id="stop5062" offset="0" stop-color="#000" stop-opacity="1"/><stop id="stop5064" offset="1" stop-color="#000" stop-opacity="0"/></linearGradient><radialGradient id="radialGradient3997" cx="605.714" cy="486.648" r="117.143" fx="605.714" fy="486.648" gradientTransform="matrix(2.774389,0,0,1.969706,-1642.279,-873.7569)" gradientUnits="userSpaceOnUse" xlink:href="#linearGradient5060"/><linearGradient id="linearGradient5048"><stop id="stop5050" offset="0" stop-color="#000" stop-opacity="0"/><stop id="stop5056" offset=".5" stop-color="#000" stop-opacity="1"/><stop id="stop5052" offset="1" stop-color="#000" stop-opacity="0"/></linearGradient><linearGradient id="linearGradient3995" x1="302.857" x2="302.857" y1="366.648" y2="609.505" gradientTransform="matrix(3.061834,0,0,1.969706,-1816.115,-872.8854)" gradientUnits="userSpaceOnUse" xlink:href="#linearGradient5048"/></defs><metadata id="metadata7426"/><g id="layer1"><g id="g3987" display="inline" opacity=".453" transform="matrix(-1.754551e-2,0,0,1.659787e-2,8.5219007,39.561537)"><rect id="rect3989" width="1478.428" height="478.357" x="-1448.695" y="-150.697" fill="url(#linearGradient3995)" fill-opacity="1" fill-rule="nonzero" stroke="none" stroke-dasharray="none" stroke-dashoffset="0" stroke-linecap="round" stroke-linejoin="miter" stroke-miterlimit="4" stroke-opacity="1" stroke-width="1" marker-end="none" marker-mid="none" marker-start="none" display="inline" opacity=".402" overflow="visible" visibility="visible" style="marker:none"/><path id="path3991" fill="url(#radialGradient3997)" fill-opacity="1" fill-rule="nonzero" stroke="none" stroke-dasharray="none" stroke-dashoffset="0" stroke-linecap="round" stroke-linejoin="miter" stroke-miterlimit="4" stroke-opacity="1" stroke-width="1" marker-end="none" marker-mid="none" marker-start="none" d="M 29.732898,-151.55183 C 29.732898,-151.55183 29.732898,326.77896 29.732898,326.77896 C 172.60706,327.67941 375.13313,219.6093 375.13305,87.582782 C 375.13305,-44.443755 215.69622,-151.55181 29.732898,-151.55183 z" display="inline" opacity=".402" overflow="visible" visibility="visible" style="marker:none"/><path id="path3993" fill="url(#radialGradient3999)" fill-opacity="1" fill-rule="nonzero" stroke="none" stroke-dasharray="none" stroke-dashoffset="0" stroke-linecap="round" stroke-linejoin="miter" stroke-miterlimit="4" stroke-opacity="1" stroke-width="1" marker-end="none" marker-mid="none" marker-start="none" d="M -1448.6954,-154.32884 C -1448.6954,-154.32884 -1448.6954,324.00195 -1448.6954,324.00195 C -1591.5696,324.9024 -1794.0956,216.83229 -1794.0956,84.805778 C -1794.0956,-47.220759 -1634.6588,-154.32882 -1448.6954,-154.32884 z" display="inline" opacity=".402" overflow="visible" visibility="visible" style="marker:none"/></g><path id="path3477" fill="url(#linearGradient3562)" fill-opacity="1" fill-rule="evenodd" stroke="#8f5902" stroke-dashoffset="0" stroke-linecap="butt" stroke-linejoin="miter" stroke-miterlimit="4" stroke-opacity="1" stroke-width="1" marker-end="none" marker-mid="none" marker-start="none" d="M 9.4002137,6.5000101 L 31.60022,6.5000101 C 31.644459,6.5000101 34.500217,10.037179 34.500217,10.083343 L 34.500217,41.416738 C 34.500217,41.462903 34.455619,41.50007 34.400219,41.50007 L 6.6002147,41.50007 C 6.5448217,41.50007 6.5002197,41.462903 6.5002197,41.416738 L 6.5002197,10.083343 C 6.5002197,10.037179 9.3559727,6.5000101 9.4002137,6.5000101 z" display="inline" enable-background="accumulate" overflow="visible" visibility="visible" style="marker:none"/><rect stroke-miterlimit="4" style="marker:none" id="rect3617" width="20" height="10" x="11.5" y="14.5" fill="none" fill-opacity="1" fill-rule="evenodd" stroke="#fff" stroke-dasharray="none" stroke-dashoffset="0" stroke-linecap="butt" stroke-linejoin="miter" stroke-opacity="1" stroke-width="1" marker-end="none" marker-mid="none" marker-start="none" display="inline" enable-background="accumulate" opacity=".498" overflow="visible" rx="1" ry="1" visibility="visible"/><path id="path3481" fill="none" fill-opacity="1" fill-rule="evenodd" stroke="#fff" stroke-dasharray="none" stroke-dashoffset="0" stroke-linecap="butt" stroke-linejoin="miter" stroke-miterlimit="4" stroke-opacity="1" stroke-width="1" marker-end="none" marker-mid="none" marker-start="none" d="M 9.8282987,7.5000073 L 31.172152,7.5000073 C 31.213232,7.5000073 33.500231,10.299305 33.500231,10.342831 L 33.500231,40.42144 C 33.500231,40.464966 33.458819,40.500009 33.407373,40.500009 L 7.5930787,40.500009 C 7.5416347,40.500009 7.5002237,40.464966 7.5002237,40.42144 L 7.5002237,10.402359 C 7.5640887,10.207874 9.7872187,7.5000073 9.8282987,7.5000073 z" display="inline" enable-background="accumulate" opacity=".533" overflow="visible" visibility="visible" style="marker:none"/><path id="rect3513" fill="#fff" fill-opacity=".577" fill-rule="evenodd" stroke="none" stroke-dashoffset="0" stroke-linecap="butt" stroke-linejoin="miter" stroke-miterlimit="4" stroke-opacity="1" stroke-width="1" marker-end="none" marker-mid="none" marker-start="none" d="M 9.9447647,8.0049548 L 31.005169,7.979701 L 33.101235,10.595945 L 7.9749667,10.545437 L 9.9447647,8.0049548 z" display="inline" enable-background="accumulate" overflow="visible" visibility="visible" style="marker:none"/><rect stroke-miterlimit="4" style="marker:none" id="rect3580" width="20" height="10" x="10.5" y="13.5" fill="url(#linearGradient3582)" fill-opacity="1" fill-rule="evenodd" stroke="#8f5902" stroke-dasharray="none" stroke-dashoffset="0" stroke-linecap="butt" stroke-linejoin="miter" stroke-opacity="1" stroke-width="1" marker-end="none" marker-mid="none" marker-start="none" display="inline" enable-background="accumulate" opacity="1" overflow="visible" rx="1" ry="1" visibility="visible"/><rect stroke-miterlimit="4" style="marker:none" id="rect3621" width="20" height="10" x="11.5" y="28.5" fill="none" fill-opacity="1" fill-rule="evenodd" stroke="#fff" stroke-dasharray="none" stroke-dashoffset="0" stroke-linecap="butt" stroke-linejoin="miter" stroke-opacity="1" stroke-width="1" marker-end="none" marker-mid="none" marker-start="none" display="inline" enable-background="accumulate" opacity=".498" overflow="visible" rx="1" ry="1" visibility="visible"/><rect id="rect3584" width="20" height="10" x="10.5" y="27.5" fill="url(#linearGradient3586)" fill-opacity="1" fill-rule="evenodd" stroke="#8f5902" stroke-dasharray="none" stroke-dashoffset="0" stroke-linecap="butt" stroke-linejoin="miter" stroke-miterlimit="4" stroke-opacity="1" stroke-width="1" marker-end="none" marker-mid="none" marker-start="none" display="inline" enable-background="accumulate" opacity="1" overflow="visible" rx="1" ry="1" visibility="visible" style="marker:none"/><rect id="rect3588" width="6" height="3" x="17.5" y="20.5" fill="url(#linearGradient3590)" fill-opacity="1" fill-rule="evenodd" stroke="#8f5902" stroke-dasharray="none" stroke-dashoffset="0" stroke-linecap="butt" stroke-linejoin="miter" stroke-miterlimit="4" stroke-opacity="1" stroke-width="1" marker-end="none" marker-mid="none" marker-start="none" display="inline" enable-background="accumulate" opacity="1" overflow="visible" rx=".505" ry=".505" visibility="visible" style="marker:none"/><rect stroke-miterlimit="4" style="marker:none" id="rect3592" width="6" height="3" x="17.5" y="34.5" fill="url(#linearGradient3594)" fill-opacity="1" fill-rule="evenodd" stroke="#8f5902" stroke-dasharray="none" stroke-dashoffset="0" stroke-linecap="butt" stroke-linejoin="miter" stroke-opacity="1" stroke-width="1" marker-end="none" marker-mid="none" marker-start="none" display="inline" enable-background="accumulate" opacity="1" overflow="visible" rx=".303" ry=".303" visibility="visible"/><g id="g3544" transform="translate(-18.99978,1.0000061)"><path id="path3447" fill="url(#radialGradient3660)" fill-opacity="1" fill-rule="evenodd" stroke="#204a87" stroke-dasharray="none" stroke-dashoffset="0" stroke-linecap="butt" stroke-linejoin="miter" stroke-miterlimit="4" stroke-opacity="1" stroke-width="1.135" marker-end="none" marker-mid="none" marker-start="none" d="M 35.96143,26.534258 A 12.475384,12.475384 0 1 1 11.010662,26.534258 A 12.475384,12.475384 0 1 1 35.96143,26.534258 z" display="inline" enable-background="accumulate" overflow="visible" transform="matrix(0.881736,0,0,0.879764,32.79151,9.131509)" visibility="visible" style="marker:none"/><path id="path3455" fill="#fff" fill-opacity="1" fill-rule="evenodd" stroke="none" stroke-dasharray="none" stroke-dashoffset="0" stroke-linecap="butt" stroke-linejoin="miter" stroke-miterlimit="4" stroke-opacity="1" stroke-width=".855" marker-end="none" marker-mid="none" marker-start="none" d="M 51,23.250484 C 51,23.250484 52.268922,24.994204 56,23.162342 C 56,23.162342 51.950634,22.743969 51,23.250484 z" display="inline" enable-background="accumulate" opacity=".642" overflow="visible" visibility="visible" style="marker:none"/><path id="path3461" fill="#fff" fill-opacity="1" fill-rule="evenodd" stroke="none" stroke-dasharray="none" stroke-dashoffset="0" stroke-linecap="butt" stroke-linejoin="miter" stroke-miterlimit="4" stroke-opacity="1" stroke-width=".855" marker-end="none" marker-mid="none" marker-start="none" d="M 50.06066,41.474692 C 50.06066,41.474692 51.012627,41.331014 52.069448,41.066019 C 53.12627,40.801025 54.711501,41.419346 55.239912,41.419346 C 55.768322,41.419346 56.951687,41.345421 56.951687,41.345421 C 53.882204,42.534757 51.337539,41.67741 50.06066,41.474692 z" display="inline" enable-background="accumulate" opacity=".642" overflow="visible" visibility="visible" style="marker:none"/><path id="path3517" fill="#fff" fill-opacity="1" fill-rule="evenodd" stroke="none" stroke-dasharray="none" stroke-dashoffset="0" stroke-linecap="butt" stroke-linejoin="miter" stroke-miterlimit="4" stroke-opacity="1" stroke-width=".855" marker-end="none" marker-mid="none" marker-start="none" d="M 55.830738,27 C 55.866219,27.677344 56.193176,28.442404 55.830738,29 C 55.772387,29.526189 55.385923,29.262453 54.999991,29 C 54.995206,28.163786 55.395554,27.57141 55.830738,27 z" display="inline" enable-background="accumulate" opacity=".642" overflow="visible" visibility="visible" style="marker:none"/><path id="path3459" fill="#fff" fill-opacity="1" fill-rule="evenodd" stroke="none" stroke-dasharray="none" stroke-dashoffset="0" stroke-linecap="butt" stroke-linejoin="miter" stroke-miterlimit="4" stroke-opacity="1" stroke-width=".855" marker-end="none" marker-mid="none" marker-start="none" d="M 58.957107,24.740283 C 58.448524,25.124153 58.192827,26.096156 57.660188,27.031073 C 57.660188,27.031073 57.229592,27.857143 56.846938,28.303571 C 56.464286,28.75 56.464286,29.642857 56.464286,29.642857 L 55.11686,30.283176 L 55.571429,31.428571 L 56.464286,31.428571 L 57.256127,30.889267 L 58.26628,30.551994 L 59.748948,30.703517 L 61.239756,31.545866 L 63.084119,32.218746 L 63.067839,30.956055 C 63.158093,30.883776 62.174867,26.437385 58.957107,24.740283 z" display="inline" enable-background="accumulate" opacity=".642" overflow="visible" visibility="visible" style="marker:none"/><path stroke-width=".855" style="marker:none" id="path3624" fill="#fff" fill-opacity="1" fill-rule="evenodd" stroke="none" stroke-dasharray="none" stroke-dashoffset="0" stroke-linecap="butt" stroke-linejoin="miter" stroke-miterlimit="4" stroke-opacity="1" marker-end="none" marker-mid="none" marker-start="none" d="M 36,34 L 37,34 L 38,33.554819 L 39,33.504311 L 40,34 L 41,34 L 42,35 L 42,36 L 42,37 L 41.466762,39 L 41,40.423856 L 40,41.484516 L 39,41 L 38,37 L 36,37 L 35,36 C 35,36 35,35 35,35 L 36,34 z" display="inline" enable-background="accumulate" opacity=".642" overflow="visible" transform="translate(20,-2)" visibility="visible"/><path id="path3628" fill="#fff" fill-opacity="1" fill-rule="evenodd" stroke="none" stroke-dasharray="none" stroke-dashoffset="0" stroke-linecap="butt" stroke-linejoin="miter" stroke-miterlimit="4" stroke-opacity="1" stroke-width=".855" marker-end="none" marker-mid="none" marker-start="none" d="M 48.228975,39.513201 C 48.228975,39.513201 48.647849,40.420015 49.119833,39.758317 C 49.528836,39.184916 50,37.605352 50,37.158051 C 50,36.194569 49.991009,34.374714 49.991009,34.374714 L 49.561738,32.914818 L 47.164561,32 L 45.572437,32.340642 L 45,33.450113 C 45.077341,35.330718 45.86494,36.227763 47.254013,36.291895 L 47.611813,37.576456 L 48.228975,39.513201 z" display="inline" enable-background="accumulate" opacity=".642" overflow="visible" visibility="visible" style="marker:none"/><path stroke-width=".855" style="marker:none" id="path3636" fill="#fff" fill-opacity="1" fill-rule="evenodd" stroke="none" stroke-dasharray="none" stroke-dashoffset="0" stroke-linecap="butt" stroke-linejoin="miter" stroke-miterlimit="4" stroke-opacity="1" marker-end="none" marker-mid="none" marker-start="none" d="M 29.212183,26.090863 C 29.212183,26.090863 29,28 31,27 C 31,27 30.010153,29.050508 30.010153,29.050508 L 27.646447,30.444416 L 25.989847,30.989847 L 25,32 L 24.445692,33 L 26.010153,32.93934 L 24,34 C 24,34 23.991123,28.756594 29.212183,26.090863 z" display="inline" enable-background="accumulate" opacity=".642" overflow="visible" transform="translate(20,-2)" visibility="visible"/><path stroke-width="1.135" style="marker:none" id="path3640" fill="url(#radialGradient3656)" fill-opacity="1" fill-rule="evenodd" stroke="none" stroke-dasharray="none" stroke-dashoffset="0" stroke-linecap="butt" stroke-linejoin="miter" stroke-miterlimit="4" stroke-opacity="1" marker-end="none" marker-mid="none" marker-start="none" d="M 35.96143,26.534258 A 12.475384,12.475384 0 1 1 11.010662,26.534258 A 12.475384,12.475384 0 1 1 35.96143,26.534258 z" display="inline" enable-background="accumulate" opacity=".633" overflow="visible" transform="matrix(0.921905,0,0,0.919843,31.8481,8.068044)" visibility="visible"/><path stroke-width="1.243" style="marker:none" id="path3449" fill="none" fill-opacity="1" fill-rule="evenodd" stroke="#fff" stroke-dasharray="none" stroke-dashoffset="0" stroke-linecap="butt" stroke-linejoin="miter" stroke-miterlimit="4" stroke-opacity="1" marker-end="none" marker-mid="none" marker-start="none" d="M 35.96143,26.534258 A 12.475384,12.475384 0 1 1 11.010662,26.534258 A 12.475384,12.475384 0 1 1 35.96143,26.534258 z" display="inline" enable-background="accumulate" opacity=".729" overflow="visible" transform="matrix(0.807937,0,0,0.801578,34.60409,11.23071)" visibility="visible"/></g></g></svg>