<svg xmlns="http://www.w3.org/2000/svg" xmlns:svg="http://www.w3.org/2000/svg" xmlns:xlink="http://www.w3.org/1999/xlink" id="svg7229" width="48" height="48"><defs id="defs7231"><linearGradient id="linearGradient2251"><stop id="stop2253" offset="0" stop-color="#fff" stop-opacity="1"/><stop id="stop2255" offset="1" stop-color="#fff" stop-opacity="0"/></linearGradient><linearGradient id="linearGradient2257" x1="33.396" x2="34.17" y1="36.921" y2="38.07" gradientTransform="translate(1.46744e-5,4.1977096e-4)" gradientUnits="userSpaceOnUse" xlink:href="#linearGradient2251"/><linearGradient id="linearGradient2239"><stop id="stop2241" offset="0" stop-color="#fff" stop-opacity="1"/><stop id="stop2243" offset="1" stop-color="#fff" stop-opacity="0"/></linearGradient><linearGradient id="linearGradient2245" x1="25.683" x2="25.692" y1="12.172" y2="-.203" gradientTransform="translate(1.46744e-5,4.1977096e-4)" gradientUnits="userSpaceOnUse" xlink:href="#linearGradient2239"/><linearGradient id="linearGradient2224"><stop id="stop2226" offset="0" stop-color="#7c7c7c" stop-opacity="1"/><stop id="stop2228" offset="1" stop-color="#b8b8b8" stop-opacity="1"/></linearGradient><linearGradient id="linearGradient2230" x1="35.997" x2="33.665" y1="40.458" y2="37.771" gradientTransform="translate(1.46744e-5,4.1977096e-4)" gradientUnits="userSpaceOnUse" xlink:href="#linearGradient2224"/><linearGradient id="linearGradient2216"><stop id="stop2218" offset="0" stop-color="#000" stop-opacity="1"/><stop id="stop2220" offset="1" stop-color="#000" stop-opacity="0"/></linearGradient><linearGradient id="linearGradient2222" x1="36.813" x2="39.063" y1="39.156" y2="42.063" gradientTransform="translate(1.46744e-5,4.1977096e-4)" gradientUnits="userSpaceOnUse" xlink:href="#linearGradient2216"/><linearGradient id="linearGradient2287" x1="25.405" x2="25.464" y1="3.818" y2="9.323" gradientTransform="matrix(1.005222,0,0,0.883928,-0.6279083,0.8441698)" gradientUnits="userSpaceOnUse" xlink:href="#linearGradient15234"/><linearGradient id="linearGradient2283" x1="25.405" x2="25.405" y1="3.818" y2="6.481" gradientTransform="matrix(0.538743,0,0,0.511806,10.800815,-0.5822202)" gradientUnits="userSpaceOnUse" xlink:href="#linearGradient15234"/><linearGradient id="linearGradient15234"><stop id="stop15236" offset="0" stop-color="#97978a" stop-opacity="1"/><stop id="stop15242" offset=".5" stop-color="#c2c2b9" stop-opacity="1"/><stop id="stop15238" offset="1" stop-color="#7d7d6f" stop-opacity="1"/></linearGradient><linearGradient id="linearGradient15240" x1="25.405" x2="25.464" y1="3.818" y2="9.323" gradientTransform="matrix(1.052632,0,0,1,-1.7894593,4.1977096e-4)" gradientUnits="userSpaceOnUse" xlink:href="#linearGradient15234"/><linearGradient id="linearGradient2259"><stop id="stop2261" offset="0" stop-color="#fff" stop-opacity="1"/><stop id="stop2263" offset="1" stop-color="#fff" stop-opacity="0"/></linearGradient><linearGradient id="linearGradient2265" x1="26.076" x2="30.811" y1="26.697" y2="42.007" gradientTransform="translate(1.46744e-5,4.1977096e-4)" gradientUnits="userSpaceOnUse" xlink:href="#linearGradient2259"/><linearGradient id="linearGradient15218"><stop id="stop15220" offset="0" stop-color="#f0f0ef" stop-opacity="1"/><stop id="stop2269" offset=".599" stop-color="#e8e8e8" stop-opacity="1"/><stop id="stop2267" offset=".828" stop-color="#fff" stop-opacity="1"/><stop id="stop15222" offset="1" stop-color="#d8d8d3" stop-opacity="1"/></linearGradient><linearGradient id="linearGradient15224" x1="22.308" x2="35.785" y1="18.992" y2="39.498" gradientTransform="matrix(1.065698,0,0,0.987595,-1.5644243,7.5293071e-2)" gradientUnits="userSpaceOnUse" xlink:href="#linearGradient15218"/><linearGradient id="linearGradient14484"><stop id="stop14486" offset="0" stop-color="#c68827" stop-opacity="1"/><stop id="stop14488" offset="1" stop-color="#89601f" stop-opacity="1"/></linearGradient><linearGradient id="linearGradient14490" x1="6.107" x2="33.857" y1="10.451" y2="37.88" gradientTransform="translate(1.46744e-5,4.1977096e-4)" gradientUnits="userSpaceOnUse" xlink:href="#linearGradient14484"/><radialGradient id="radialGradient5031" cx="605.714" cy="486.648" r="117.143" fx="605.714" fy="486.648" gradientTransform="matrix(-2.774389,0,0,1.969706,112.7623,-872.8854)" gradientUnits="userSpaceOnUse" xlink:href="#linearGradient5060"/><linearGradient id="linearGradient5060"><stop id="stop5062" offset="0" stop-color="#000" stop-opacity="1"/><stop id="stop5064" offset="1" stop-color="#000" stop-opacity="0"/></linearGradient><radialGradient id="radialGradient5029" cx="605.714" cy="486.648" r="117.143" fx="605.714" fy="486.648" gradientTransform="matrix(2.774389,0,0,1.969706,-1891.633,-872.8854)" gradientUnits="userSpaceOnUse" xlink:href="#linearGradient5060"/><linearGradient id="linearGradient5048"><stop id="stop5050" offset="0" stop-color="#000" stop-opacity="0"/><stop id="stop5056" offset=".5" stop-color="#000" stop-opacity="1"/><stop id="stop5052" offset="1" stop-color="#000" stop-opacity="0"/></linearGradient><linearGradient id="linearGradient5027" x1="302.857" x2="302.857" y1="366.648" y2="609.505" gradientTransform="matrix(2.774389,0,0,1.969706,-1892.179,-872.8854)" gradientUnits="userSpaceOnUse" xlink:href="#linearGradient5048"/></defs><metadata id="metadata7234"/><g id="layer1"><g id="g5022" display="inline" transform="matrix(2.325216e-2,0,0,1.485743e-2,44.806285,43.06081)"><rect id="rect4173" width="1339.633" height="478.357" x="-1559.252" y="-150.697" fill="url(#linearGradient5027)" fill-opacity="1" fill-rule="nonzero" stroke="none" stroke-dasharray="none" stroke-dashoffset="0" stroke-linecap="round" stroke-linejoin="miter" stroke-miterlimit="4" stroke-opacity="1" stroke-width="1" marker-end="none" marker-mid="none" marker-start="none" display="inline" opacity=".402" overflow="visible" visibility="visible" style="marker:none"/><path id="path5058" fill="url(#radialGradient5029)" fill-opacity="1" fill-rule="nonzero" stroke="none" stroke-dasharray="none" stroke-dashoffset="0" stroke-linecap="round" stroke-linejoin="miter" stroke-miterlimit="4" stroke-opacity="1" stroke-width="1" marker-end="none" marker-mid="none" marker-start="none" d="M -219.61876,-150.68038 C -219.61876,-150.68038 -219.61876,327.65041 -219.61876,327.65041 C -76.744594,328.55086 125.78146,220.48075 125.78138,88.454235 C 125.78138,-43.572302 -33.655436,-150.68036 -219.61876,-150.68038 z" display="inline" opacity=".402" overflow="visible" visibility="visible" style="marker:none"/><path id="path5018" fill="url(#radialGradient5031)" fill-opacity="1" fill-rule="nonzero" stroke="none" stroke-dasharray="none" stroke-dashoffset="0" stroke-linecap="round" stroke-linejoin="miter" stroke-miterlimit="4" stroke-opacity="1" stroke-width="1" marker-end="none" marker-mid="none" marker-start="none" d="M -1559.2523,-150.68038 C -1559.2523,-150.68038 -1559.2523,327.65041 -1559.2523,327.65041 C -1702.1265,328.55086 -1904.6525,220.48075 -1904.6525,88.454235 C -1904.6525,-43.572302 -1745.2157,-150.68036 -1559.2523,-150.68038 z" display="inline" opacity=".402" overflow="visible" visibility="visible" style="marker:none"/></g><rect id="rect12368" width="39.036" height="41.045" x="4.464" y="4.5" fill="url(#linearGradient14490)" fill-opacity="1" fill-rule="evenodd" stroke="#714c16" stroke-dasharray="none" stroke-dashoffset="0" stroke-linecap="butt" stroke-linejoin="miter" stroke-miterlimit="4" stroke-opacity="1" stroke-width="1" opacity="1" rx="1.388" ry="1.388"/><rect id="rect12413" width="30.952" height="35.977" x="8.532" y="6.53" fill="url(#linearGradient15224)" fill-opacity="1" fill-rule="evenodd" stroke="#888a85" stroke-dasharray="none" stroke-dashoffset="0" stroke-linecap="butt" stroke-linejoin="miter" stroke-miterlimit="4" stroke-opacity="1" stroke-width="1" opacity="1" rx=".567" ry=".567"/><rect id="rect13756" width="12" height="4" x="18" y="0" fill="#5c5c5c" fill-opacity="1" fill-rule="evenodd" stroke="none" stroke-dasharray="none" stroke-dashoffset="0" stroke-linecap="butt" stroke-linejoin="miter" stroke-miterlimit="4" stroke-opacity="1" stroke-width="1" opacity="1" rx=".984" ry=".984"/><rect id="rect15244" width="29.014" height="34.041" x="9.517" y="7.467" fill="none" fill-opacity="1" fill-rule="evenodd" stroke="url(#linearGradient2265)" stroke-dasharray="none" stroke-dashoffset="0" stroke-linecap="butt" stroke-linejoin="miter" stroke-miterlimit="4" stroke-opacity="1" stroke-width="1" opacity="1" rx="0" ry="0"/><rect id="rect15974" width="37.086" height="39.093" x="5.439" y="5.431" fill="none" fill-opacity="1" fill-rule="evenodd" stroke="#c68827" stroke-dasharray="none" stroke-dashoffset="0" stroke-linecap="butt" stroke-linejoin="miter" stroke-miterlimit="4" stroke-opacity="1" stroke-width="1" opacity="1" rx=".479" ry=".479"/><rect id="rect2208" width="18.947" height="7" x="14.792" y="4.473" fill="#000" fill-opacity="1" fill-rule="evenodd" stroke="#000" stroke-dasharray="none" stroke-dashoffset="0" stroke-linecap="butt" stroke-linejoin="miter" stroke-miterlimit="4" stroke-opacity="1" stroke-width="1" opacity=".108" rx="1.388" ry="1.388"/><rect id="rect2285" width="18.947" height="7" x="14.526" y="3.5" fill="url(#linearGradient15240)" fill-opacity="1" fill-rule="evenodd" stroke="#5c5c5c" stroke-dasharray="none" stroke-dashoffset="0" stroke-linecap="butt" stroke-linejoin="miter" stroke-miterlimit="4" stroke-opacity="1" stroke-width="1" opacity="1" rx="1.388" ry="1.388"/><rect id="rect2281" width="9.697" height="3.583" x="19.151" y="1.209" fill="url(#linearGradient2283)" fill-opacity="1" fill-rule="evenodd" stroke="none" stroke-dasharray="none" stroke-dashoffset="0" stroke-linecap="butt" stroke-linejoin="miter" stroke-miterlimit="4" stroke-opacity="1" stroke-width="1" opacity="1" rx=".325" ry=".325"/><rect id="rect13754" width="18.094" height="6.188" x="14.953" y="3.938" fill="url(#linearGradient2287)" fill-opacity="1" fill-rule="evenodd" stroke="none" stroke-dasharray="none" stroke-dashoffset="0" stroke-linecap="butt" stroke-linejoin="miter" stroke-miterlimit="4" stroke-opacity="1" stroke-width="1" opacity="1" rx="1.013" ry="1.013"/><path id="path2212" fill="url(#linearGradient2222)" fill-opacity="1" fill-rule="evenodd" stroke="none" stroke-dasharray="none" stroke-dashoffset="0" stroke-linecap="butt" stroke-linejoin="miter" stroke-miterlimit="4" stroke-opacity="1" stroke-width="1" marker-end="none" marker-mid="none" marker-start="none" d="M 39.018321,36.25042 L 39.062515,42.06292 L 30.562515,42.018726 L 39.018321,36.25042 z" display="inline" opacity=".489" overflow="visible" visibility="visible" style="marker:none"/><path id="path2210" fill="url(#linearGradient2230)" fill-opacity="1" fill-rule="evenodd" stroke="#868a84" stroke-dasharray="none" stroke-dashoffset="0" stroke-linecap="butt" stroke-linejoin="miter" stroke-miterlimit="4" stroke-opacity="1" stroke-width="1" marker-end="none" marker-mid="none" marker-start="none" d="M 30.059097,42.087284 C 31.850238,42.254936 39.048824,37.717698 39.539937,33.699275 C 37.976675,36.122372 34.584986,35.667866 30.476228,35.826876 C 30.476228,35.826876 30.871597,41.587284 30.059097,42.087284 z" display="inline" opacity="1" overflow="visible" visibility="visible" style="marker:none"/><path id="rect2232" fill="none" fill-opacity="1" fill-rule="evenodd" stroke="url(#linearGradient2245)" stroke-dasharray="none" stroke-dashoffset="0" stroke-linecap="butt" stroke-linejoin="miter" stroke-miterlimit="4" stroke-opacity="1" stroke-width="1" d="M 19.468765,1.4691698 C 19.466669,1.4712654 19.470429,1.4979534 19.468765,1.5004198 C 19.467595,1.5031958 19.438131,1.4973955 19.437515,1.5004198 L 19.437515,4.3754198 C 19.437515,4.3818427 19.466425,4.4011179 19.468765,4.4066698 C 19.471231,4.4083333 19.465989,4.4367496 19.468765,4.4379198 L 15.937515,4.4379198 C 15.919755,4.4379198 15.8923,4.4361749 15.875015,4.4379198 C 15.840983,4.4430911 15.781469,4.457696 15.750015,4.4691698 C 15.611847,4.5274162 15.482343,4.6681897 15.437515,4.8129198 C 15.427006,4.8539546 15.437515,4.9247687 15.437515,4.9691698 L 15.437515,9.1254198 C 15.437515,9.1431803 15.43577,9.1706345 15.437515,9.1879198 C 15.442686,9.2219519 15.457291,9.2814654 15.468765,9.3129198 C 15.478473,9.3359479 15.487191,9.3855202 15.500015,9.4066698 C 15.504615,9.4134898 15.526351,9.4313403 15.531265,9.4379198 C 15.552139,9.4632336 15.599701,9.5107962 15.625015,9.5316698 C 15.638174,9.5414987 15.673415,9.5543702 15.687515,9.5629198 C 15.702053,9.5707979 15.734663,9.587698 15.750015,9.5941698 C 15.781469,9.6056436 15.840983,9.6202485 15.875015,9.6254198 C 15.8923,9.6271647 15.919755,9.6254198 15.937515,9.6254198 L 32.062515,9.6254198 C 32.080275,9.6254198 32.10773,9.6271647 32.125015,9.6254198 C 32.159047,9.6202485 32.218561,9.6056436 32.250015,9.5941698 C 32.265367,9.587698 32.297977,9.5707979 32.312515,9.5629198 C 32.326615,9.5543702 32.361856,9.5414987 32.375015,9.5316698 C 32.400329,9.5107962 32.447891,9.4632336 32.468765,9.4379198 C 32.473679,9.4313403 32.495415,9.4134898 32.500015,9.4066698 C 32.512839,9.3855202 32.521557,9.3359479 32.531265,9.3129198 C 32.542739,9.2814654 32.557344,9.2219519 32.562515,9.1879198 C 32.56426,9.1706345 32.562515,9.1431803 32.562515,9.1254198 L 32.562515,4.9691698 C 32.562515,4.9247687 32.573024,4.8539546 32.562515,4.8129198 C 32.517687,4.6681896 32.388183,4.5274162 32.250015,4.4691698 C 32.218561,4.457696 32.159047,4.4430911 32.125015,4.4379198 C 32.10773,4.4361749 32.080275,4.4379198 32.062515,4.4379198 L 28.531265,4.4379198 C 28.534041,4.4367496 28.528799,4.4083333 28.531265,4.4066698 C 28.533606,4.4011179 28.562515,4.3818427 28.562515,4.3754198 L 28.562515,1.5004198 C 28.561899,1.4973955 28.532435,1.5031958 28.531265,1.5004198 C 28.529601,1.4979534 28.533361,1.4712654 28.531265,1.4691698 C 28.528489,1.4679996 28.503039,1.4697855 28.500015,1.4691698 L 19.500015,1.4691698 C 19.496991,1.4697855 19.471541,1.4679996 19.468765,1.4691698 z" opacity=".317"/><path id="path2247" fill="none" fill-opacity="1" fill-rule="evenodd" stroke="url(#linearGradient2257)" stroke-dasharray="none" stroke-dashoffset="0" stroke-linecap="butt" stroke-linejoin="miter" stroke-miterlimit="4" stroke-opacity="1" stroke-width="1" marker-end="none" marker-mid="none" marker-start="none" d="M 31.509534,40.68747 C 32.879313,40.003641 36.038798,38.086436 37.338179,36.205432 C 35.545656,36.581916 34.347258,36.795005 31.610591,36.900914 C 31.610591,36.900914 31.697152,39.9125 31.509534,40.68747 z" display="inline" opacity=".369" overflow="visible" visibility="visible" style="marker:none"/><path id="path2240" fill="#888a85" fill-rule="evenodd" stroke="none" stroke-linecap="butt" stroke-linejoin="miter" stroke-opacity="1" stroke-width="1" d="M 30.450732,16.00042 L 15.000015,16.00042 L 15.000015,32.00042 L 32.000015,32.00042 L 32.000015,23.00042 L 22.000015,23.00042 L 22.000015,25.00042 L 30.000015,25.00042 L 30.000015,30.00042 L 17.000015,30.00042 L 17.000015,18.00042 L 31.000015,18.00042 L 31.000015,16.00042 L 30.450732,16.00042 z"/></g></svg>