<svg xmlns="http://www.w3.org/2000/svg" xmlns:svg="http://www.w3.org/2000/svg" xmlns:xlink="http://www.w3.org/1999/xlink" id="svg7206" width="48" height="48"><defs id="defs7208"><linearGradient id="linearGradient3690"><stop id="stop3692" offset="0" stop-color="#fff" stop-opacity="1"/><stop id="stop3694" offset="1" stop-color="#fff" stop-opacity=".469"/></linearGradient><linearGradient id="linearGradient3696" x1="9.5" x2="9.5" y1="16.264" y2="13.409" gradientTransform="translate(-0.9999994,2.7676813e-6)" gradientUnits="userSpaceOnUse" xlink:href="#linearGradient3690"/><linearGradient id="linearGradient3674"><stop id="stop3676" offset="0" stop-color="#555753" stop-opacity="1"/><stop id="stop3678" offset="1" stop-color="#888a85" stop-opacity="1"/></linearGradient><linearGradient id="linearGradient2992" x1="23.069" x2="23.069" y1="6.799" y2="12.403" gradientTransform="translate(-0.9999994,2.7676813e-6)" gradientUnits="userSpaceOnUse" xlink:href="#linearGradient3674"/><linearGradient id="linearGradient2781"><stop id="stop2783" offset="0" stop-color="#d3d7cf" stop-opacity="1"/><stop id="stop2785" offset="1" stop-color="#eeeeec" stop-opacity="1"/></linearGradient><linearGradient id="linearGradient2787" x1="24.926" x2="24.926" y1="40" y2="19.539" gradientTransform="translate(-0.9999994,2.7676813e-6)" gradientUnits="userSpaceOnUse" xlink:href="#linearGradient2781"/><radialGradient id="radialGradient3011" cx="605.714" cy="486.648" r="117.143" fx="605.714" fy="486.648" gradientTransform="matrix(-2.774389,0,0,1.969706,112.7623,-872.8854)" gradientUnits="userSpaceOnUse" xlink:href="#linearGradient5060"/><radialGradient id="radialGradient3009" cx="605.714" cy="486.648" r="117.143" fx="605.714" fy="486.648" gradientTransform="matrix(2.774389,0,0,1.969706,-1891.633,-872.8854)" gradientUnits="userSpaceOnUse" xlink:href="#linearGradient5060"/><linearGradient id="linearGradient3007" x1="302.857" x2="302.857" y1="366.648" y2="609.505" gradientTransform="matrix(2.774389,0,0,1.969706,-1892.179,-872.8854)" gradientUnits="userSpaceOnUse" xlink:href="#linearGradient5048"/><radialGradient id="radialGradient3847" cx="605.714" cy="486.648" r="117.143" fx="605.714" fy="486.648" gradientTransform="matrix(-2.774389,0,0,1.969706,112.7623,-872.8854)" gradientUnits="userSpaceOnUse" xlink:href="#linearGradient5060"/><linearGradient id="linearGradient5060"><stop id="stop5062" offset="0" stop-color="#000" stop-opacity="1"/><stop id="stop5064" offset="1" stop-color="#000" stop-opacity="0"/></linearGradient><radialGradient id="radialGradient3845" cx="605.714" cy="486.648" r="117.143" fx="605.714" fy="486.648" gradientTransform="matrix(2.774389,0,0,1.969706,-1891.633,-872.8854)" gradientUnits="userSpaceOnUse" xlink:href="#linearGradient5060"/><linearGradient id="linearGradient5048"><stop id="stop5050" offset="0" stop-color="#000" stop-opacity="0"/><stop id="stop5056" offset=".5" stop-color="#000" stop-opacity="1"/><stop id="stop5052" offset="1" stop-color="#000" stop-opacity="0"/></linearGradient><linearGradient id="linearGradient3843" x1="302.857" x2="302.857" y1="366.648" y2="609.505" gradientTransform="matrix(2.774389,0,0,1.969706,-1892.179,-872.8854)" gradientUnits="userSpaceOnUse" xlink:href="#linearGradient5048"/></defs><metadata id="metadata7211"/><g id="layer1"><g id="g5022" display="inline" opacity=".587" transform="matrix(1.231264e-2,0,0,1.254292e-2,26.451301,37.390183)"><rect id="rect4173" width="1339.633" height="478.357" x="-1559.252" y="-150.697" fill="url(#linearGradient3843)" fill-opacity="1" fill-rule="nonzero" stroke="none" stroke-dasharray="none" stroke-dashoffset="0" stroke-linecap="round" stroke-linejoin="miter" stroke-miterlimit="4" stroke-opacity="1" stroke-width="1" marker-end="none" marker-mid="none" marker-start="none" display="inline" opacity=".402" overflow="visible" visibility="visible" style="marker:none"/><path id="path5058" fill="url(#radialGradient3845)" fill-opacity="1" fill-rule="nonzero" stroke="none" stroke-dasharray="none" stroke-dashoffset="0" stroke-linecap="round" stroke-linejoin="miter" stroke-miterlimit="4" stroke-opacity="1" stroke-width="1" marker-end="none" marker-mid="none" marker-start="none" d="M -219.61876,-150.68038 C -219.61876,-150.68038 -219.61876,327.65041 -219.61876,327.65041 C -76.744594,328.55086 125.78146,220.48075 125.78138,88.454235 C 125.78138,-43.572302 -33.655436,-150.68036 -219.61876,-150.68038 z" display="inline" opacity=".402" overflow="visible" visibility="visible" style="marker:none"/><path id="path5018" fill="url(#radialGradient3847)" fill-opacity="1" fill-rule="nonzero" stroke="none" stroke-dasharray="none" stroke-dashoffset="0" stroke-linecap="round" stroke-linejoin="miter" stroke-miterlimit="4" stroke-opacity="1" stroke-width="1" marker-end="none" marker-mid="none" marker-start="none" d="M -1559.2523,-150.68038 C -1559.2523,-150.68038 -1559.2523,327.65041 -1559.2523,327.65041 C -1702.1265,328.55086 -1904.6525,220.48075 -1904.6525,88.454235 C -1904.6525,-43.572302 -1745.2157,-150.68036 -1559.2523,-150.68038 z" display="inline" opacity=".402" overflow="visible" visibility="visible" style="marker:none"/></g><g id="g2999" display="inline" opacity=".587" transform="matrix(8.8651e-3,0,0,1.254292e-2,43.884941,37.390183)"><rect id="rect3001" width="1339.633" height="478.357" x="-1559.252" y="-150.697" fill="url(#linearGradient3007)" fill-opacity="1" fill-rule="nonzero" stroke="none" stroke-dasharray="none" stroke-dashoffset="0" stroke-linecap="round" stroke-linejoin="miter" stroke-miterlimit="4" stroke-opacity="1" stroke-width="1" marker-end="none" marker-mid="none" marker-start="none" display="inline" opacity=".402" overflow="visible" visibility="visible" style="marker:none"/><path id="path3003" fill="url(#radialGradient3009)" fill-opacity="1" fill-rule="nonzero" stroke="none" stroke-dasharray="none" stroke-dashoffset="0" stroke-linecap="round" stroke-linejoin="miter" stroke-miterlimit="4" stroke-opacity="1" stroke-width="1" marker-end="none" marker-mid="none" marker-start="none" d="M -219.61876,-150.68038 C -219.61876,-150.68038 -219.61876,327.65041 -219.61876,327.65041 C -76.744594,328.55086 125.78146,220.48075 125.78138,88.454235 C 125.78138,-43.572302 -33.655436,-150.68036 -219.61876,-150.68038 z" display="inline" opacity=".402" overflow="visible" visibility="visible" style="marker:none"/><path id="path3005" fill="url(#radialGradient3011)" fill-opacity="1" fill-rule="nonzero" stroke="none" stroke-dasharray="none" stroke-dashoffset="0" stroke-linecap="round" stroke-linejoin="miter" stroke-miterlimit="4" stroke-opacity="1" stroke-width="1" marker-end="none" marker-mid="none" marker-start="none" d="M -1559.2523,-150.68038 C -1559.2523,-150.68038 -1559.2523,327.65041 -1559.2523,327.65041 C -1702.1265,328.55086 -1904.6525,220.48075 -1904.6525,88.454235 C -1904.6525,-43.572302 -1745.2157,-150.68036 -1559.2523,-150.68038 z" display="inline" opacity=".402" overflow="visible" visibility="visible" style="marker:none"/></g><path id="rect1887" fill="url(#linearGradient2787)" fill-opacity="1" stroke="#888a85" stroke-miterlimit="4" stroke-opacity="1" stroke-width="1" d="M 7.5000006,9.0000028 C 6.3920006,9.0000028 5.5000006,9.8920029 5.5000006,11.000003 L 5.5000006,37.500003 C 5.5000006,38.608003 6.3920006,39.500003 7.5000006,39.500003 L 26.343751,39.500003 L 22.531251,34.062503 L 21.718751,32.937503 L 22.781251,32.062503 L 29.468751,26.500003 L 15.343751,19.156253 L 13.437501,18.156253 L 15.031251,16.718753 L 23.593751,9.0000028 L 7.5000006,9.0000028 z M 28.093751,9.0000028 L 18.656251,17.500003 L 32.843751,24.875003 L 34.843751,25.906253 L 33.125001,27.375003 L 25.750001,33.468753 L 29.968751,39.500003 L 40.500001,39.500003 C 41.608001,39.500003 42.500001,38.608003 42.500001,37.500003 L 42.500001,11.000003 C 42.500001,9.8920029 41.608001,9.0000028 40.500001,9.0000028 L 28.093751,9.0000028 z"/><path id="rect2776" fill="url(#linearGradient2992)" fill-opacity="1" stroke="#555753" stroke-linecap="round" stroke-miterlimit="4" stroke-opacity="1" stroke-width="1" d="M 42.500001,14.031253 L 42.500001,10.500003 C 42.500001,9.3920027 41.608,8.5000028 40.500001,8.5000028 L 28.656251,8.5000028 L 22.500001,14.031253 M 18.000001,14.031253 L 24.156251,8.5000028 L 7.5000006,8.5000028 C 6.3920006,8.5000028 5.5000006,9.3920029 5.5000006,10.500003 L 5.5000006,14.031253"/><path id="rect2779" fill="none" fill-opacity="1" stroke="url(#linearGradient3696)" stroke-miterlimit="4" stroke-opacity="1" stroke-width="1" d="M 7.5000006,9.5000029 C 6.9485546,9.5000029 6.5000006,9.9485554 6.5000006,10.500003 L 6.5000006,37.500003 C 6.5000006,38.05145 6.9485546,38.500003 7.5000006,38.500003 L 24.437501,38.500003 L 21.718751,34.625003 L 20.375001,32.750003 L 22.156251,31.281253 L 27.656251,26.687503 L 14.906251,20.031253 L 11.687501,18.375003 L 14.375001,15.968753 L 21.562501,9.5000029 L 7.5000006,9.5000029 z M 29.031251,9.5000029 L 20.406251,17.250003 L 33.312501,24.000003 L 36.656251,25.718753 L 33.750001,28.125003 L 27.125001,33.656253 L 30.531251,38.500003 L 40.500001,38.500003 C 41.051447,38.500003 41.500001,38.051451 41.500001,37.500003 L 41.500001,10.500003 C 41.500001,9.9485559 41.051448,9.5000029 40.500001,9.5000029 L 29.031251,9.5000029 z" opacity=".8"/></g></svg>