<svg xmlns="http://www.w3.org/2000/svg" xmlns:svg="http://www.w3.org/2000/svg" xmlns:xlink="http://www.w3.org/1999/xlink" id="svg7189" width="48" height="48"><defs id="defs7191"><linearGradient id="linearGradient4873"><stop id="stop4875" offset="0" stop-color="#fff" stop-opacity="1"/><stop id="stop4877" offset="1" stop-color="#fff" stop-opacity="0"/></linearGradient><linearGradient id="linearGradient2704" x1="62.746" x2="62.609" y1="-13.445" y2="7.107" gradientTransform="matrix(2.3440063,0,0,2.3440063,-121.79862,31.22942)" gradientUnits="userSpaceOnUse" xlink:href="#linearGradient4873"/><linearGradient id="linearGradient3811"><stop id="stop3813" offset="0" stop-color="#a40000" stop-opacity="1"/><stop id="stop3815" offset="1" stop-color="#c22f2f" stop-opacity="1"/></linearGradient><linearGradient id="linearGradient3927" x1="15.047" x2="15.047" y1="44.788" y2="3.885" gradientTransform="matrix(1.0805272,0,0,1.0805026,-1.5082857,-3.3507598)" gradientUnits="userSpaceOnUse" xlink:href="#linearGradient3811"/><linearGradient id="linearGradient5106"><stop id="stop5108" offset="0" stop-color="#e78181" stop-opacity="1"/><stop id="stop8208" offset=".253" stop-color="#e15f5f" stop-opacity="1"/><stop id="stop8210" offset=".683" stop-color="#c22f2f" stop-opacity="1"/><stop id="stop5110" offset="1" stop-color="#a40000" stop-opacity="1"/></linearGradient><radialGradient id="radialGradient2707" cx="62.202" cy="-5.713" r="9.755" fx="62.202" fy="-5.713" gradientTransform="matrix(-7.565785,-6.219707e-7,3.9644633e-7,-4.8230546,494.60904,-26.555114)" gradientUnits="userSpaceOnUse" xlink:href="#linearGradient5106"/><linearGradient id="linearGradient10691"><stop id="stop10693" offset="0" stop-color="#000" stop-opacity="1"/><stop id="stop10695" offset="1" stop-color="#000" stop-opacity="0"/></linearGradient><radialGradient id="radialGradient3080" cx="6.703" cy="73.616" r="7.228" fx="6.703" fy="73.616" gradientTransform="scale(1.902215,0.525703)" gradientUnits="userSpaceOnUse" xlink:href="#linearGradient10691"/></defs><metadata id="metadata7194"/><g id="layer1"><path id="path2625" fill="url(#radialGradient3080)" fill-opacity="1" fill-rule="nonzero" stroke="none" stroke-dashoffset="0" stroke-linecap="butt" stroke-linejoin="miter" stroke-miterlimit="4" stroke-opacity="1" stroke-width=".8" marker-end="none" marker-mid="none" marker-start="none" d="M 26.5,38.700001 A 13.75,3.8 0 1 1 -1,38.700001 A 13.75,3.8 0 1 1 26.5,38.700001 z" display="inline" opacity=".5" overflow="visible" transform="matrix(1.6,0,0,1.8421053,3.6000003,-30.289477)" visibility="visible" style="marker:none"/><path id="path6495" fill="url(#radialGradient2707)" fill-opacity="1" fill-rule="nonzero" stroke="url(#linearGradient3927)" stroke-dasharray="none" stroke-miterlimit="4" stroke-width="1" d="M 45.499979,22.999239 C 45.499979,34.87373 35.873401,44.49998 24.000271,44.49998 C 12.126053,44.49998 2.5000203,34.873621 2.5000203,22.999239 C 2.5000203,11.12529 12.126053,1.5000199 24.000271,1.5000199 C 35.873401,1.5000199 45.499979,11.12529 45.499979,22.999239 L 45.499979,22.999239 z"/><path id="path8655" fill="none" fill-opacity="1" fill-rule="nonzero" stroke="url(#linearGradient2704)" stroke-dasharray="none" stroke-miterlimit="4" stroke-opacity="1" stroke-width="1" d="M 44.49904,22.999272 C 44.49904,34.321462 35.320423,43.499975 23.999791,43.499975 C 12.678124,43.499975 3.5000253,34.321356 3.5000253,22.999272 C 3.5000253,11.677606 12.678124,2.5000249 23.999791,2.5000249 C 35.320423,2.5000249 44.49904,11.677606 44.49904,22.999272 L 44.49904,22.999272 z" opacity=".6"/><path id="path2413" fill="none" fill-opacity="1" fill-rule="evenodd" stroke="#c22f2f" stroke-dasharray="none" stroke-dashoffset="0" stroke-linecap="round" stroke-linejoin="miter" stroke-miterlimit="0" stroke-opacity="1" stroke-width="5.249" marker-end="none" marker-mid="none" marker-start="none" d="M 18.107539,14.023248 C 8.266675,19.389392 12.716686,34.7665 23.967166,34.7665 C 35.100452,34.7665 40.09021,20.188289 29.826789,14.023248 M 24.043895,20.623857 L 24.043895,10.190715" display="inline" overflow="visible" visibility="visible" style="marker:none"/><g id="g2419" fill="none" fill-opacity="1" stroke="#feffff" stroke-dasharray="none" stroke-linecap="round" stroke-miterlimit="0" stroke-opacity="1" stroke-width="2.185" transform="matrix(1.4073757,0,0,1.4073879,-9.0294077,-8.2221638)"><path id="path3339" fill="none" fill-opacity="1" fill-rule="evenodd" stroke="#feffff" stroke-dasharray="none" stroke-dashoffset="0" stroke-linecap="round" stroke-linejoin="miter" stroke-miterlimit="0" stroke-opacity="1" stroke-width="2.185" marker-end="none" marker-mid="none" marker-start="none" d="M 19.281951,15.80617 C 12.289599,19.619008 15.451522,30.545 23.445464,30.545 C 31.356135,30.545 34.90157,20.186654 27.608975,15.80617" display="inline" overflow="visible" visibility="visible" style="marker:none"/><path id="path3341" fill="none" fill-opacity="1" fill-rule="evenodd" stroke="#feffff" stroke-dasharray="none" stroke-dashoffset="0" stroke-linecap="round" stroke-linejoin="miter" stroke-miterlimit="0" stroke-opacity="1" stroke-width="2.185" marker-end="none" marker-mid="none" marker-start="none" d="M 23.499983,20.496141 L 23.499983,13.083017" display="inline" overflow="visible" visibility="visible" style="marker:none"/></g></g></svg>