<svg xmlns="http://www.w3.org/2000/svg" xmlns:svg="http://www.w3.org/2000/svg" xmlns:xlink="http://www.w3.org/1999/xlink" id="svg3606" width="48" height="48" version="1.0"><metadata id="metadata3611"/><defs id="defs3609"><linearGradient id="linearGradient4613"><stop id="stop4615" offset="0" stop-color="#888A85" stop-opacity="1"/><stop id="stop4617" offset="1" stop-color="#888A85" stop-opacity="0"/></linearGradient><linearGradient id="linearGradient4549"><stop id="stop4551" offset="0" stop-color="#5C3566" stop-opacity="1"/><stop id="stop4553" offset="1" stop-color="#5C3566" stop-opacity="0"/></linearGradient><linearGradient id="linearGradient4535"><stop id="stop4537" offset="0" stop-color="#AD7FA8" stop-opacity="1"/><stop id="stop4539" offset="1" stop-color="#75507B" stop-opacity="1"/></linearGradient><radialGradient id="radialGradient4619" cx="23.875" cy="40.375" r="23.125" fx="23.875" fy="40.375" gradientTransform="matrix(1, 0, 0, 0.2, 0, 32.3)" gradientUnits="userSpaceOnUse" xlink:href="#linearGradient4613"/><radialGradient id="radialGradient4655" cx="18.796" cy="20.756" r="18.104" fx="18.796" fy="20.756" gradientTransform="matrix(0, 0.882866, -1.39982, 0, 54.2053, -2.07622)" gradientUnits="userSpaceOnUse" xlink:href="#linearGradient4535"/><radialGradient id="radialGradient4661" cx="44.137" cy="21.553" r="18.253" fx="44.137" fy="21.553" gradientTransform="matrix(1.46575, 0, 0, 1.31224, -46.8546, -5.85183)" gradientUnits="userSpaceOnUse" xlink:href="#linearGradient4549"/></defs><path id="path4611" fill="url(#radialGradient4619) rgb(0, 0, 0)" fill-opacity="1" stroke="none" stroke-dasharray="none" stroke-linecap="round" stroke-linejoin="round" stroke-miterlimit="4" stroke-opacity="1" stroke-width="2" d="M 47 40.375 A 23.125 4.625 0 1 1 0.75,40.375 A 23.125 4.625 0 1 1 47 40.375 z" opacity="1" transform="matrix(0.786246, 0, 0, 1.02236, 6.05688, -0.402956)"/><path id="path3619" fill="#75507B" fill-opacity="1" stroke="#5C3566" stroke-dasharray="none" stroke-linecap="round" stroke-linejoin="round" stroke-miterlimit="4" stroke-opacity="1" stroke-width="1" d="M 48.730967 29.786802 A 18.578682 18.578682 0 1 1 11.573603,29.786802 A 18.578682 18.578682 0 1 1 48.730967 29.786802 z" transform="translate(-5.90228, -6.2868)"/><path id="path4528" fill="url(#radialGradient4661) rgb(0, 0, 0)" fill-opacity="1" fill-rule="evenodd" stroke="none" stroke-linecap="butt" stroke-linejoin="miter" stroke-opacity="1" stroke-width="1" d="M 5.851785,27.640097 C 31.076031,27.640097 17.695179,17.210272 41.914231,17.210272 C 41.914231,17.210272 44.897439,32.924822 35.373493,38.423475 C 14.443003,50.507699 5.851785,27.640097 5.851785,27.640097 z"/><path id="path4506" fill="none" fill-opacity="1" stroke="url(#radialGradient4655) rgb(0, 0, 0)" stroke-dasharray="none" stroke-linecap="round" stroke-linejoin="round" stroke-miterlimit="4" stroke-opacity="1" stroke-width="1" d="M 47.756348 29.786802 A 17.604063 17.604063 0 1 1 12.548222,29.786802 A 17.604063 17.604063 0 1 1 47.756348 29.786802 z" transform="translate(-5.73895, -6.21257)"/><text id="text4524" x="24.888" y="21.908" fill="#EEEEEC" fill-opacity="1" stroke="#5C3566" stroke-dasharray="none" stroke-linecap="butt" stroke-linejoin="miter" stroke-miterlimit="4" stroke-opacity="1" stroke-width="1" font-family="Bitstream Vera Sans" font-size="21.142" font-style="normal" font-weight="bold" xml:space="preserve"><tspan id="tspan4526" x="24.888" y="21.908" stroke="#5C3566" stroke-dasharray="none" stroke-miterlimit="4" stroke-opacity="1" stroke-width="1" font-weight="bold">A</tspan></text><path id="path4588" fill="#EEEEEC" fill-rule="evenodd" stroke="#5C3566" stroke-dasharray="none" stroke-linecap="round" stroke-linejoin="round" stroke-miterlimit="4" stroke-opacity="1" stroke-width="1" d="M 36.590125,23.806815 C 36.590125,23.806815 34.486416,32.091219 30.376822,32.091219 L 30.376822,27.949017 L 24.755263,33.570577 L 30.376822,38.748329 L 30.367848,34.310255 C 37.766245,34.310255 36.590125,23.806815 36.590125,23.806815 z"/><path id="path4592" fill="#EEEEEC" fill-rule="evenodd" stroke="#5C3566" stroke-dasharray="none" stroke-linecap="round" stroke-linejoin="round" stroke-miterlimit="4" stroke-opacity="1" stroke-width="1" d="M 12.448709,23.373329 C 12.448709,23.373329 14.552418,15.088925 18.662012,15.088925 L 18.662012,19.231127 L 24.283571,13.609567 L 18.662012,8.431815 L 18.670986,12.869889 C 11.272589,12.869889 12.448709,23.373329 12.448709,23.373329 z"/><g id="g4670" transform="translate(0.625, 0.25)"><path id="path4570" fill="none" fill-rule="evenodd" stroke="#5C3566" stroke-dasharray="none" stroke-linecap="round" stroke-linejoin="round" stroke-miterlimit="4" stroke-opacity="1" stroke-width="3" d="M 21.137463,39.245333 L 15.715584,39.245333 C 15.715584,39.245333 20.378955,33.234737 20.465667,29.796319 C 20.552378,26.357902 17.909435,25.491662 16.062428,25.491662 C 12.05407,25.491662 12.283393,31.524907 12.283393,31.524907 M 15.222684,34.365643 C 15.222684,35.916496 13.964019,37.17516 12.413165,37.17516 C 10.86231,37.17516 9.6036464,35.916496 9.6036464,34.365643 C 9.6036464,32.814788 10.86231,31.556123 12.413165,31.556123 C 13.964019,31.556123 15.222684,32.814788 15.222684,34.365643 z"/><path id="path4636" fill="none" fill-rule="evenodd" stroke="#EEEEEC" stroke-dasharray="none" stroke-linecap="round" stroke-linejoin="round" stroke-miterlimit="4" stroke-opacity="1" stroke-width="1" d="M 21.137463,39.146754 L 15.715584,39.146754 C 15.715584,39.146754 20.378955,33.136158 20.465667,29.69774 C 20.552378,26.259323 17.909435,25.393083 16.062428,25.393083 C 12.05407,25.393083 12.283393,31.426328 12.283393,31.426328 M 15.222684,34.267063 C 15.222684,35.817917 13.964019,37.076581 12.413165,37.076581 C 10.86231,37.076581 9.6036464,35.817917 9.6036464,34.267063 C 9.6036464,32.716208 10.86231,31.457544 12.413165,31.457544 C 13.964019,31.457544 15.222684,32.716208 15.222684,34.267063 z"/></g></svg>