<svg xmlns="http://www.w3.org/2000/svg" xmlns:svg="http://www.w3.org/2000/svg" xmlns:xlink="http://www.w3.org/1999/xlink" id="svg7238" width="48" height="48"><defs id="defs7240"><linearGradient id="linearGradient2446"><stop id="stop2448" offset="0" stop-color="#fff" stop-opacity="1"/><stop id="stop2450" offset="1" stop-color="#fff" stop-opacity="0"/></linearGradient><linearGradient id="linearGradient8938" x1="13.236" x2="7.752" y1="37.752" y2="42.282" gradientTransform="matrix(0.608217,-0.10171,4.414374e-2,0.689789,16.62085,13.35659)" gradientUnits="userSpaceOnUse" xlink:href="#linearGradient2446"/><linearGradient id="linearGradient6963"><stop id="stop6965" offset="0" stop-color="#696969" stop-opacity="1"/><stop id="stop6967" offset="1" stop-color="#000" stop-opacity="1"/></linearGradient><radialGradient id="radialGradient8936" cx="15.415" cy="35.357" r="7.579" fx="15.415" fy="35.357" gradientTransform="matrix(0.709807,-0.118699,5.020504e-2,0.7845,14.35988,10.7997)" gradientUnits="userSpaceOnUse" xlink:href="#linearGradient6963"/><linearGradient id="linearGradient6939"><stop id="stop6941" offset="0" stop-color="#bdbdbd" stop-opacity="1"/><stop id="stop6947" offset=".333" stop-color="#e2e2e2" stop-opacity="1"/><stop id="stop6949" offset=".667" stop-color="#a3a3a3" stop-opacity="1"/><stop id="stop6943" offset="1" stop-color="#ddd" stop-opacity="1"/></linearGradient><linearGradient id="linearGradient8934" x1="19.395" x2="23.109" y1="30.001" y2="33.439" gradientTransform="matrix(0.71362,-0.119336,5.179406e-2,0.809329,14.74036,9.12562)" gradientUnits="userSpaceOnUse" xlink:href="#linearGradient6939"/><linearGradient id="linearGradient6951"><stop id="stop6953" offset="0" stop-color="#6e3d09" stop-opacity="1"/><stop id="stop6959" offset=".242" stop-color="#ea8113" stop-opacity="1"/><stop id="stop6961" offset=".621" stop-color="#5c3307" stop-opacity="1"/><stop id="stop6955" offset="1" stop-color="#e07c12" stop-opacity="1"/></linearGradient><linearGradient id="linearGradient8932" x1="28.059" x2="33.437" y1="18.868" y2="23.743" gradientTransform="matrix(0.71362,-0.119336,5.179406e-2,0.809329,14.74036,9.12562)" gradientUnits="userSpaceOnUse" xlink:href="#linearGradient6951"/><radialGradient id="radialGradient6981" cx="26.782" cy="42.343" r="14.407" fx="26.782" fy="42.343" gradientTransform="matrix(1,0,0,0.282209,0,30.39355)" gradientUnits="userSpaceOnUse" xlink:href="#linearGradient6975"/><linearGradient id="linearGradient8942"><stop id="stop8944" offset="0" stop-color="#fff" stop-opacity="1"/><stop id="stop8946" offset="1" stop-color="#fff" stop-opacity="0"/></linearGradient><linearGradient id="linearGradient8948" x1="23.85" x2="24.565" y1="10.529" y2="35.243" gradientTransform="matrix(1.125413,0,0,1.125413,-2.6013889,-5.6687307)" gradientUnits="userSpaceOnUse" xlink:href="#linearGradient8942"/><linearGradient id="linearGradient6543"><stop id="stop6545" offset="0" stop-color="#d3d7cf"/><stop id="stop6547" offset="1" stop-color="#fff" stop-opacity="1"/></linearGradient><linearGradient id="linearGradient6549" x1="23.143" x2="23.143" y1="16.714" y2="12.643" gradientTransform="matrix(1.125413,0,0,1.125413,-2.6013889,-5.6687307)" gradientUnits="userSpaceOnUse" xlink:href="#linearGradient6543"/><linearGradient id="linearGradient6528"><stop id="stop6530" offset="0" stop-color="#2e3436"/><stop id="stop6532" offset="1" stop-color="#000" stop-opacity="1"/></linearGradient><linearGradient id="linearGradient6534" x1="24.5" x2="24.723" y1="23.614" y2="36.879" gradientTransform="matrix(1.125413,0,0,1.125413,-2.6013889,-5.6687307)" gradientUnits="userSpaceOnUse" xlink:href="#linearGradient6528"/><radialGradient id="radialGradient1687" cx="26.782" cy="42.343" r="14.407" fx="26.782" fy="42.343" gradientTransform="matrix(1,0,0,0.282209,0,30.39355)" gradientUnits="userSpaceOnUse" xlink:href="#linearGradient6975"/><linearGradient id="linearGradient6975"><stop id="stop6977" offset="0" stop-color="#000" stop-opacity="1"/><stop id="stop6979" offset="1" stop-color="#000" stop-opacity="0"/></linearGradient><radialGradient id="radialGradient2417" cx="26.782" cy="42.343" r="14.407" fx="26.782" fy="42.343" gradientTransform="matrix(1,0,0,0.282209,0,30.39355)" gradientUnits="userSpaceOnUse" xlink:href="#linearGradient6975"/></defs><metadata id="metadata7243"/><g id="layer1"><path id="path2415" fill="url(#radialGradient2417)" fill-opacity="1" fill-rule="nonzero" stroke="none" stroke-dasharray="none" stroke-dashoffset="0" stroke-linecap="round" stroke-linejoin="miter" stroke-miterlimit="4" stroke-opacity="1" stroke-width="1" marker-end="none" marker-mid="none" marker-start="none" d="M 41.188971,42.343147 A 14.407301,4.0658641 0 1 1 12.374369,42.343147 A 14.407301,4.0658641 0 1 1 41.188971,42.343147 z" display="inline" opacity=".672" overflow="visible" transform="matrix(1.318776,0,0,1.475702,-13.319026,-30.485736)" visibility="visible" style="marker:none"/><path id="path1685" fill="url(#radialGradient1687)" fill-opacity="1" fill-rule="nonzero" stroke="none" stroke-dasharray="none" stroke-dashoffset="0" stroke-linecap="round" stroke-linejoin="miter" stroke-miterlimit="4" stroke-opacity="1" stroke-width="1" marker-end="none" marker-mid="none" marker-start="none" d="M 41.188971,42.343147 A 14.407301,4.0658641 0 1 1 12.374369,42.343147 A 14.407301,4.0658641 0 1 1 41.188971,42.343147 z" display="inline" opacity=".672" overflow="visible" transform="matrix(1.665822,0,0,1.475702,-20.613496,-35.485756)" visibility="visible" style="marker:none"/><path id="path5072" fill="url(#linearGradient6534)" fill-opacity="1" fill-rule="evenodd" stroke="#000" stroke-linecap="butt" stroke-linejoin="miter" stroke-opacity="1" stroke-width="1" d="M 11.60695,27.837198 C 10.146593,27.942785 2.7376239,25.797545 2.7644195,24.415979 C 2.7712256,21.670309 19.211686,4.0762245 20.222728,3.5223033 C 21.59413,2.1580967 25.637102,2.2149387 26.894819,3.5223033 C 28.295879,4.2301616 44.602111,23.860469 44.52528,25.99596 C 44.441439,27.837198 33.443946,31.611061 32.507477,31.519672 C 32.527574,32.58639 35.92391,34.376589 36.426327,35.202147 C 36.560304,36.414965 26.967498,38.592422 26.940702,40.0464 L 29.251818,42.325937 C 29.188179,44.252664 23.175928,45.375526 20.700689,44.086787 C 20.958596,42.859296 20.975344,42.43567 20.590158,41.770885 C 19.886775,40.462826 15.244446,41.003659 15.264542,39.936758 C 14.956393,39.21346 18.828351,38.570548 18.922135,37.043384 C 18.982222,35.713725 7.0486594,32.451438 7.1655894,31.519672 C 7.0544684,30.690073 11.547545,29.97416 11.60695,27.837198 z"/><rect id="rect2363" width="20.357" height="22.817" x="7.711" y="17.324" fill="none" fill-rule="evenodd" stroke="none" stroke-width=".052" transform="matrix(0.9143017,-0.4050339,0.3100371,0.9507245,0,0)"/><path id="path5074" fill="url(#linearGradient6549)" fill-opacity="1" fill-rule="evenodd" stroke="none" stroke-linecap="butt" stroke-linejoin="miter" stroke-opacity="1" stroke-width="1" d="M 12.999994,15.99485 L 21.530713,6.7108095 C 22.267591,5.7547375 25.57684,5.7633053 26.514684,6.7365128 L 30.976142,12.40377 L 30.994532,14.629341 L 27.031508,12.845896 L 27.031508,18.47296 L 23.781539,13.971309 L 21.971608,16.926528 L 20.405301,11.720483 L 18.627351,15.99485 L 12.999994,15.99485 z"/><path id="path6536" fill="none" fill-opacity="1" fill-rule="evenodd" stroke="url(#linearGradient8948)" stroke-linecap="butt" stroke-linejoin="miter" stroke-opacity="1" stroke-width="1" d="M 13.802109,26.875116 C 10.842349,26.923981 4.1397773,25.606331 4.0557845,24.083237 C 3.8084391,22.210837 19.787289,4.8632967 20.830755,4.3862858 C 22.29435,3.1402928 25.365678,3.2608728 26.42734,4.3862858 C 27.305589,4.8742363 43.507398,23.830948 43.425585,25.89172 L 30.326266,31.009166 L 33.999979,34.49323 L 26.105884,38.905151 L 27.820283,41.518199 L 22.436006,43.146545 L 21.578807,39.662483 L 18.027185,39.200108 L 21.228613,36.348946 C 21.334054,35.640216 9.7300554,32.089388 9.4376024,31.323816 C 9.0734964,30.750387 13.654638,30.120116 13.802109,26.875116 z" opacity=".4"/><path id="path6973" fill="url(#radialGradient6981)" fill-opacity="1" fill-rule="nonzero" stroke="none" stroke-dasharray="none" stroke-dashoffset="0" stroke-linecap="round" stroke-linejoin="miter" stroke-miterlimit="4" stroke-opacity="1" stroke-width="1" marker-end="none" marker-mid="none" marker-start="none" d="M 41.188971,42.343147 A 14.407301,4.0658641 0 1 1 12.374369,42.343147 A 14.407301,4.0658641 0 1 1 41.188971,42.343147 z" display="inline" opacity=".3" overflow="visible" transform="matrix(1.33837,0,0,1,-6.9518989,-3.1690867)" visibility="visible" style="marker:none"/><g id="g8923" transform="translate(-5.862603e-6,0.1011393)"><path id="path6937" fill="url(#linearGradient8932)" fill-opacity="1" fill-rule="nonzero" stroke="#673907" stroke-dasharray="none" stroke-dashoffset="0" stroke-linecap="round" stroke-linejoin="miter" stroke-miterlimit="4" stroke-opacity="1" stroke-width="1" marker-end="none" marker-mid="none" marker-start="none" d="M 32.815491,26.053448 L 35.913824,28.644257 C 40.677173,22.070645 47.362292,7.1165887 47.362292,7.1165887 C 47.605366,6.0743564 46.483038,5.6310026 45.984075,6.3896101 C 45.984075,6.3896101 36.94471,19.432505 32.815491,26.053448 z" display="inline" opacity="1" overflow="visible" visibility="visible" style="marker:none"/><path id="path6935" fill="url(#linearGradient8934)" fill-opacity="1" fill-rule="nonzero" stroke="#888a85" stroke-dasharray="none" stroke-dashoffset="0" stroke-linecap="round" stroke-linejoin="miter" stroke-miterlimit="4" stroke-opacity="1" stroke-width="1" marker-end="none" marker-mid="none" marker-start="none" d="M 27.920688,35.2377 L 29.623867,36.53473 L 35.302905,29.558887 L 35.462637,28.954815 L 36.242704,28.809797 C 35.849566,27.597429 33.916544,25.613168 32.578507,25.836923 L 32.693496,26.709365 L 32.23506,27.096886 L 27.920688,35.2377 z" display="inline" opacity="1" overflow="visible" visibility="visible" style="marker:none"/><path id="path6933" fill="url(#radialGradient8936)" fill-opacity="1" fill-rule="nonzero" stroke="none" stroke-dasharray="none" stroke-dashoffset="0" stroke-linecap="round" stroke-linejoin="miter" stroke-miterlimit="4" stroke-opacity="1" stroke-width=".2" marker-end="none" marker-mid="none" marker-start="none" d="M 20.985414,42.86777 C 25.699097,42.079518 29.317126,42.11792 29.745471,38.115298 C 30.090659,34.889736 26.194436,34.023384 24.490399,37.136386 C 22.848876,40.13519 20.985414,42.86777 20.985414,42.86777 z" display="inline" opacity="1" overflow="visible" visibility="visible" style="marker:none"/><path id="path6971" fill="#fff" fill-opacity="1" fill-rule="nonzero" stroke="none" stroke-dasharray="none" stroke-dashoffset="0" stroke-linecap="round" stroke-linejoin="miter" stroke-miterlimit="4" stroke-opacity="1" stroke-width="1" marker-end="none" marker-mid="none" marker-start="none" d="M 8.8749989,37.75 A 1.2499999,1.2499999 0 1 1 6.3749992,37.75 A 1.2499999,1.2499999 0 1 1 8.8749989,37.75 z" display="inline" opacity=".528" overflow="visible" transform="matrix(0.608217,-0.10171,4.414374e-2,0.689789,20.41956,11.75746)" visibility="visible" style="marker:none"/><path id="path6983" fill="#fff" fill-opacity="1" fill-rule="nonzero" stroke="none" stroke-dasharray="none" stroke-dashoffset="0" stroke-linecap="round" stroke-linejoin="miter" stroke-miterlimit="4" stroke-opacity="1" stroke-width="1" marker-end="none" marker-mid="none" marker-start="none" d="M 8.8749989,37.75 A 1.2499999,1.2499999 0 1 1 6.3749992,37.75 A 1.2499999,1.2499999 0 1 1 8.8749989,37.75 z" display="inline" opacity="1" overflow="visible" transform="matrix(0.562239,-9.402052e-2,4.080659e-2,0.637644,27.55723,4.593379)" visibility="visible" style="marker:none"/><path id="path6985" fill="none" fill-opacity="1" fill-rule="nonzero" stroke="#fff" stroke-dasharray="none" stroke-dashoffset="0" stroke-linecap="round" stroke-linejoin="round" stroke-miterlimit="4" stroke-opacity="1" stroke-width="1" marker-end="none" marker-mid="none" marker-start="none" d="M 32.506055,29.222896 L 29.039682,34.827469" display="inline" opacity="1" overflow="visible" visibility="visible" style="marker:none"/><path id="path1571" fill="url(#linearGradient8938)" fill-opacity="1" fill-rule="nonzero" stroke="none" stroke-dasharray="none" stroke-dashoffset="0" stroke-linecap="round" stroke-linejoin="miter" stroke-miterlimit="4" stroke-opacity="1" stroke-width="1" marker-end="none" marker-mid="none" marker-start="none" d="M 21.888602,42.180999 C 21.888602,42.180999 24.187849,40.453512 25.077204,38.304796 C 25.391855,37.544587 26.244092,38.005912 25.787238,38.786873 C 24.800446,40.473727 21.888602,42.180999 21.888602,42.180999 z" display="inline" opacity=".428" overflow="visible" visibility="visible" style="marker:none"/></g><path id="path8968" fill="#dde0da" fill-opacity="1" fill-rule="evenodd" stroke="none" stroke-linecap="butt" stroke-linejoin="miter" stroke-opacity="1" stroke-width="1" d="M 23.231428,29.243182 L 16.530628,28.093652 L 16.565079,29.235143 L 23.484071,30.585638 L 23.231428,29.243182 z"/></g></svg>