<svg xmlns="http://www.w3.org/2000/svg" xmlns:svg="http://www.w3.org/2000/svg" xmlns:xlink="http://www.w3.org/1999/xlink" id="svg1365" width="48" height="48" version="1.0"><metadata id="metadata25"/><defs id="defs1367"><linearGradient id="linearGradient2811"><stop id="stop2813" offset="0" stop-color="#fff" stop-opacity="1"/><stop id="stop2815" offset="1" stop-color="#fff" stop-opacity="0"/></linearGradient><linearGradient id="linearGradient2817" x1="28.675" x2="22.664" y1="32.721" y2="12.158" gradientTransform="matrix(0.885258,0,0,0.885258,2.00517e-2,-0.543919)" gradientUnits="userSpaceOnUse" xlink:href="#linearGradient2811"/><linearGradient id="linearGradient2252"><stop id="stop2254" offset="0" stop-color="#fff" stop-opacity="1"/><stop id="stop2256" offset="1" stop-color="#d0d0d0" stop-opacity="1"/></linearGradient><radialGradient id="radialGradient2888" cx="124.451" cy="398.832" r="478.004" fx="124.451" fy="398.832" gradientTransform="matrix(1.378698,0,0,0.811718,-47.1293,130.4104)" gradientUnits="userSpaceOnUse" xlink:href="#linearGradient2252"/><linearGradient id="linearGradient2238"><stop id="stop2240" offset="0" stop-color="#000" stop-opacity="1"/><stop id="stop2242" offset="1" stop-color="#000" stop-opacity="0"/></linearGradient><radialGradient id="radialGradient2262" cx="401" cy="675.862" r="186" fx="401" fy="675.862" gradientTransform="matrix(1,0,0,0.379032,0,419.6886)" gradientUnits="userSpaceOnUse" xlink:href="#linearGradient2238"/></defs><g id="layer1"><g id="g1357" transform="translate(0.101542,0.208375)"><path id="path2260" fill="url(#radialGradient2262)" fill-opacity="1" fill-rule="nonzero" stroke="none" stroke-dasharray="none" stroke-dashoffset="0" stroke-linecap="round" stroke-linejoin="round" stroke-miterlimit="4" stroke-opacity="1" stroke-width="1" marker-end="none" marker-mid="none" marker-start="none" d="M 587,675.86218 A 186,70.5 0 1 1 215,675.86218 A 186,70.5 0 1 1 587,675.86218 z" display="inline" opacity=".239" overflow="visible" transform="matrix(9.393708e-2,0,0,0.103784,-12.67532,-32.32667)" visibility="visible" style="marker:none"/><path id="path2250" fill="url(#radialGradient2888)" fill-opacity="1" fill-rule="nonzero" stroke="#9e9e9e" stroke-dasharray="none" stroke-dashoffset="0" stroke-linecap="round" stroke-linejoin="round" stroke-miterlimit="4" stroke-opacity="1" stroke-width="26" marker-end="none" marker-mid="none" marker-start="none" d="M 681.65094,533.34583 A 478.00418,281.4285 0 1 1 -274.35742,533.34583 A 478.00418,281.4285 0 1 1 681.65094,533.34583 z" display="inline" opacity="1" overflow="visible" transform="matrix(3.053148e-2,0,0,4.84497e-2,18.50203,2.19102)" visibility="visible" style="marker:none"/><path id="path2908" fill="none" fill-opacity="1" fill-rule="nonzero" stroke="#fff" stroke-dasharray="none" stroke-dashoffset="0" stroke-linecap="round" stroke-linejoin="round" stroke-miterlimit="4" stroke-opacity="1" stroke-width="28.094" marker-end="none" marker-mid="none" marker-start="none" d="M 681.65094,533.34583 A 478.00418,281.4285 0 1 1 -274.35742,533.34583 A 478.00418,281.4285 0 1 1 681.65094,533.34583 z" display="inline" opacity="1" overflow="visible" transform="matrix(2.825591e-2,0,0,4.483864e-2,18.96544,4.116962)" visibility="visible" style="marker:none"/><path id="path2892" fill="#fff" fill-opacity="1" fill-rule="nonzero" stroke="#fff" stroke-dasharray="none" stroke-dashoffset="0" stroke-linecap="butt" stroke-linejoin="miter" stroke-miterlimit="4" stroke-opacity="1" stroke-width="1" marker-end="none" marker-mid="none" marker-start="none" d="M 21.574143,15.989276 C 20.106883,16.315012 18.707843,16.877914 17.449143,17.583026 L 17.303616,35.072303 C 30.970346,36.548572 35.491116,31.66782 35.491116,28.072303 C 35.491116,24.549154 33.231116,20.705497 21.428616,24.447303 L 21.605393,15.989276 C 21.595603,15.991429 21.583923,15.987104 21.574143,15.989276 z M 26.522366,25.791053 C 28.669996,25.674903 30.647366,26.152728 30.647366,28.134803 C 30.647366,31.619147 23.732446,32.5981 21.428616,32.447303 L 21.428616,26.978553 C 22.187766,26.580973 24.440816,25.903629 26.522366,25.791053 z" display="inline" opacity="1" overflow="visible" visibility="visible" style="marker:none"/><path id="text1358" fill="#729fcf" fill-opacity="1" stroke="#3465a4" stroke-dasharray="none" stroke-linecap="butt" stroke-linejoin="miter" stroke-miterlimit="10" stroke-opacity="1" stroke-width="1" d="M 20.487389,23.613629 C 32.28988,19.871823 34.566852,23.717817 34.566852,27.240966 C 34.566852,30.836483 30.018879,35.711419 16.352146,34.23515 L 16.324543,7.6528194 C 11.943532,7.5421614 12.500561,10.766078 5.83117,11.028392 C 11.116708,7.7937414 10.306822,3.1707816 20.482219,2.9494671 L 20.487389,23.613629 z M 20.487389,31.625344 C 22.79121,31.776141 29.69453,30.800877 29.69453,27.316533 C 29.69453,23.41337 22.029776,25.345752 20.487389,26.153534 L 20.487389,31.625344 z" font-family="Likhan" font-size="659.454" font-stretch="normal" font-style="normal" font-variant="normal" font-weight="normal" text-anchor="start" writing-mode="lr-tb" style="text-align:start;line-height:100%"/><path id="path2809" fill="none" fill-opacity="1" stroke="url(#linearGradient2817)" stroke-dasharray="none" stroke-linecap="butt" stroke-linejoin="miter" stroke-miterlimit="10" stroke-opacity="1" stroke-width="1" d="M 19.690359,24.779544 C 29.898723,21.543133 33.749324,23.043815 33.693996,27.197676 C 33.637199,31.461815 27.93446,34.247406 17.275552,33.413161 L 17.196349,6.6588794 C 11.199677,6.8248654 10.183141,8.2002314 8.9724935,8.9805408 C 10.003097,7.7768234 11.87617,3.9740113 19.630558,3.9186827 L 19.690359,24.779544 z M 19.690359,32.428413 C 21.683009,32.558842 30.586337,32.2284 30.531008,27.318364 C 30.475679,22.352998 21.079749,24.894499 19.745688,25.593175 L 19.690359,32.428413 z" font-family="Likhan" font-size="659.454" font-stretch="normal" font-style="normal" font-variant="normal" font-weight="normal" opacity=".489" text-anchor="start" writing-mode="lr-tb" style="text-align:start;line-height:100%"/></g></g></svg>