<svg xmlns="http://www.w3.org/2000/svg" xmlns:svg="http://www.w3.org/2000/svg" xmlns:xlink="http://www.w3.org/1999/xlink" id="svg7955" width="48" height="48"><defs id="defs7957"><linearGradient id="linearGradient5132"><stop id="stop5134" offset="0" stop-color="#ffd89b" stop-opacity="1"/><stop id="stop5136" offset="1" stop-color="#fff" stop-opacity="0"/></linearGradient><linearGradient id="linearGradient3246" x1="-393.18" x2="-322.586" y1="144.067" y2="407.168" gradientUnits="userSpaceOnUse" xlink:href="#linearGradient5132"/><linearGradient id="linearGradient7973"><stop id="stop7975" offset="0" stop-color="#d3d5d0" stop-opacity="1"/><stop id="stop7977" offset="1" stop-color="#fff" stop-opacity="0"/></linearGradient><linearGradient id="linearGradient2462" x1="24.357" x2="24.357" y1="-20.998" y2="73.943" gradientTransform="translate(0.500229,2.4019605e-5)" gradientUnits="userSpaceOnUse" xlink:href="#linearGradient7973"/><linearGradient id="linearGradient3259"><stop id="stop3261" offset="0" stop-color="#729fcf" stop-opacity="1"/><stop id="stop3263" offset="1" stop-color="#3f7ab9" stop-opacity="1"/></linearGradient><linearGradient id="linearGradient2465" x1="25.191" x2="25.191" y1="8.667" y2="43.348" gradientTransform="matrix(1.023254,0,0,1.0246524,-5.7850976e-2,-3.632298e-2)" gradientUnits="userSpaceOnUse" xlink:href="#linearGradient3259"/></defs><metadata id="metadata7960"/><g id="layer1"><rect id="rect2286" width="44" height="44.06" x="2.5" y="1.501" fill="url(#linearGradient2465)" fill-opacity="1" fill-rule="nonzero" stroke="#204a87" stroke-dasharray="none" stroke-dashoffset="0" stroke-linecap="square" stroke-linejoin="miter" stroke-miterlimit="0" stroke-opacity="1" stroke-width="1.001" rx="3.523" ry="3.529"/><rect id="rect3257" width="42" height="42.057" x="3.5" y="2.502" fill="none" fill-opacity="1" fill-rule="nonzero" stroke="url(#linearGradient2462)" stroke-dasharray="none" stroke-dashoffset="0" stroke-linecap="square" stroke-linejoin="miter" stroke-miterlimit="4" stroke-opacity="1" stroke-width="1.001" opacity=".987" rx="2.485" ry="2.49"/><path id="path2469" fill="#000" fill-opacity=".192" d="M 7.50023,4.9742551 C 6.672229,4.9742551 6.000229,5.647168 6.000229,6.476293 C 6.000229,14.915572 6.000239,23.062956 6.000229,31.54155 L 8.68773,33.481682 C 13.951878,37.059066 17.952898,38.449733 22.562728,38.175551 C 29.372218,37.770521 34.870568,32.92715 34.875228,26.847681 C 34.878668,22.356107 31.696898,18.273548 28.218978,18.273548 C 25.191568,18.273548 22.585608,19.98449 22.781478,22.278983 C 22.889258,23.541436 23.683338,23.884381 24.906478,23.186464 C 26.175638,22.462261 27.226468,22.484432 28.375228,23.530681 C 29.181088,24.264647 29.406468,24.801225 29.406478,26.06537 C 29.406478,29.399874 26.853038,31.965475 23.156478,31.948352 C 17.819878,31.923648 13.787758,26.89801 13.812728,20.808237 C 13.832498,15.984773 15.509428,12.358733 20.062728,7.853161 C 21.397768,6.5321087 22.144118,5.2075316 22.000228,4.9742551 C 21.470078,4.9742551 10.337568,4.9742551 7.50023,4.9742551 z M 30.125228,10.794651 C 29.564268,10.775335 29.013958,10.791667 28.437728,10.825944 C 21.628248,11.230963 16.129868,16.074335 16.125228,22.153813 C 16.121788,26.645387 19.303558,30.727946 22.781478,30.727946 C 25.808878,30.727946 28.414858,29.017005 28.218978,26.722512 C 28.111198,25.460059 27.317108,25.117113 26.093978,25.81503 C 24.824808,26.539233 23.773978,26.517083 22.625228,25.470813 C 21.819368,24.736857 21.593978,24.200259 21.593978,22.936124 C 21.593978,19.60162 24.147448,17.036019 27.843978,17.053143 C 33.180588,17.077846 37.212698,22.103495 37.187728,28.193257 C 37.167958,33.016711 35.491018,36.642791 30.937728,41.148334 C 29.602678,42.469386 28.856328,43.793983 29.000228,44.02724 C 29.442608,44.02725 38.578768,44.058292 41.467238,44.058532 C 41.478328,44.058532 41.489328,44.058532 41.500228,44.058532 C 42.500228,44.058532 43.239948,43.763111 44.036938,42.960853 C 44.776808,42.216073 45.000228,41.054457 45.000228,40.553777 C 45.000228,40.536624 45.000228,40.519481 45.000228,40.502347 C 45.000228,32.089393 45.000238,25.921325 45.000228,17.459944 L 42.312728,15.519812 C 37.706608,12.389595 34.051938,10.929865 30.125228,10.794651 z"/><path id="path2454" fill="#ce5c00" d="M 7.00023,4.0041889 C 6.000229,4.0041889 5.000229,5.0055475 5.000229,6.0069061 C 5.000229,14.446186 5.000239,22.09289 5.000229,30.571484 L 7.68773,32.511616 C 12.951878,36.089 16.952898,37.479666 21.562728,37.205484 C 28.372218,36.800455 33.870568,31.957084 33.875228,25.877615 C 33.878668,21.386041 30.696898,17.303482 27.218978,17.303482 C 24.191568,17.303482 21.585608,19.014424 21.781478,21.308917 C 21.889258,22.571369 22.683338,22.914315 23.906478,22.216398 C 25.175638,21.492195 26.226468,21.514365 27.375228,22.560615 C 28.181088,23.294581 28.406468,23.831159 28.406478,25.095304 C 28.406478,28.429808 25.853038,30.995409 22.156478,30.978286 C 16.819878,30.953582 12.787758,25.927944 12.812728,19.838171 C 12.832498,15.014707 14.509428,11.388667 19.062728,6.8830949 C 20.397768,5.5620425 21.144118,4.2374654 21.000228,4.0041889 C 20.470078,4.0041889 9.83757,4.0041889 7.00023,4.0041889 z M 29.125228,9.8245862 C 28.564268,9.8052692 28.013958,9.8216012 27.437728,9.8558782 C 20.628248,10.260897 15.129868,15.104268 15.125228,21.183747 C 15.121788,25.675321 18.303558,29.75788 21.781478,29.75788 C 24.808878,29.75788 27.414858,28.046938 27.218978,25.752445 C 27.111198,24.489993 26.317108,24.147047 25.093978,24.844964 C 23.824808,25.569167 22.773978,25.547017 21.625228,24.500747 C 20.819368,23.766791 20.593978,23.230193 20.593978,21.966058 C 20.593978,18.631554 23.147448,16.065953 26.843978,16.083076 C 32.180588,16.10778 36.212698,21.133429 36.187728,27.223191 C 36.167958,32.046645 34.491018,35.672725 29.937728,40.178268 C 28.602678,41.49932 27.856328,42.823917 28.000228,43.057174 C 28.444308,43.057184 39.149038,43.057174 42.000228,43.057174 C 43.000228,43.057174 44.000228,42.055815 44.000228,41.054457 C 44.000228,32.615186 44.000238,24.968492 44.000228,16.489878 L 41.312728,14.549746 C 36.706608,11.419529 33.051938,9.9597992 29.125228,9.8245862 z"/><path id="path2456" fill="url(#linearGradient3246)" fill-opacity="1" d="M -403.5,167 C -403.7807,167 -404,167.2193 -404,167.5 C -404,175.74896 -403.99999,183.72608 -404,192 L -401.71875,193.65625 C -396.55087,197.16345 -392.87316,198.416 -388.5,198.15625 C -382.1348,197.77816 -377.12919,193.30467 -377.125,187.84375 C -377.12346,185.84042 -377.85004,183.89713 -378.9375,182.5 C -380.02496,181.10287 -381.43754,180.28125 -382.78125,180.28125 C -384.10466,180.28125 -385.32776,180.68418 -386.125,181.25 C -386.92224,181.81582 -387.28244,182.44237 -387.21875,183.1875 C -387.18216,183.61555 -387.11523,183.56216 -387.1875,183.53125 C -387.25977,183.50034 -387.06159,183.57908 -386.59375,183.3125 C -385.85098,182.88924 -385.04637,182.6205 -384.21875,182.6875 C -383.39113,182.7545 -382.62282,183.15793 -381.9375,183.78125 C -381.01955,184.61617 -380.59376,185.67968 -380.59375,187.0625 C -380.59375,190.90957 -383.67765,193.95677 -387.84375,193.9375 C -393.81217,193.90991 -398.21432,188.34339 -398.1875,181.8125 C -398.16678,176.7629 -396.31423,172.75915 -391.65625,168.15625 C -391.22577,167.73086 -390.96612,167.37311 -390.6875,167 C -393.11038,167 -400.99287,167 -403.5,167 z M -380.90625,172.8125 C -381.42493,172.79466 -381.94284,172.81065 -382.5,172.84375 C -388.86518,173.22183 -393.87083,177.69533 -393.875,183.15625 C -393.87654,185.15958 -393.14996,187.10287 -392.0625,188.5 C -390.97504,189.89713 -389.56246,190.71875 -388.21875,190.71875 C -386.89535,190.71875 -385.67224,190.31582 -384.875,189.75 C -384.07776,189.18418 -383.71755,188.55763 -383.78125,187.8125 C -383.81784,187.38445 -383.88476,187.43784 -383.8125,187.46875 C -383.74024,187.49966 -383.93842,187.42092 -384.40625,187.6875 C -385.14903,188.11076 -385.95363,188.3795 -386.78125,188.3125 C -387.60887,188.2455 -388.37718,187.84209 -389.0625,187.21875 C -389.98045,186.38384 -390.40625,185.32032 -390.40625,183.9375 C -390.40625,180.09042 -387.32232,177.04323 -383.15625,177.0625 C -377.18782,177.09009 -372.78568,182.65663 -372.8125,189.1875 C -372.83322,194.23709 -374.68578,198.24088 -379.34375,202.84375 C -379.77423,203.26914 -380.03388,203.62689 -380.3125,204 C -377.93592,204.00001 -370.01937,204 -367.5,204 C -367.2193,204 -367,203.7807 -367,203.5 C -367,195.25105 -366.99999,187.27394 -367,179 L -369.28125,177.34375 C -373.80256,174.27533 -377.2079,172.93968 -380.90625,172.8125 z" transform="matrix(1,0,0,1.0013586,410.00023,-162.22134)"/><path id="rect3267" fill="#fff" fill-opacity="1" fill-rule="nonzero" stroke="none" stroke-dashoffset="0" stroke-linecap="square" stroke-linejoin="miter" stroke-miterlimit="4" stroke-opacity="1" stroke-width="1" d="M 7.11619,2.0013313 L 41.775338,2.0013313 C 46.042025,2.0000003 45.915986,3.9342321 45.969558,5.5187335 L 46.000208,21.409062 C 34.290236,24.841555 20.043297,26.209961 3.000279,25.303466 L 3.000279,5.944211 C 3.139019,4.0720209 5.156599,2.0058373 7.11619,2.0013313 z" opacity=".11"/><path id="path2467" fill="#f57900" fill-opacity="1" d="M -403,168 C -403,175.89134 -402.99999,183.55517 -403,191.46875 L -401.125,192.84375 C -396.04728,196.28977 -392.71434,197.40285 -388.5625,197.15625 C -382.62899,196.8038 -378.12873,192.69878 -378.125,187.84375 C -378.12364,186.08081 -378.77362,184.33927 -379.71875,183.125 C -380.66622,181.90773 -381.84199,181.28125 -382.78125,181.28125 C -383.38808,181.28125 -383.77569,181.55378 -384.28125,181.71875 C -384.22659,181.721 -384.18013,181.68304 -384.125,181.6875 C -383.02732,181.77636 -382.08199,182.3342 -381.28125,183.0625 C -380.16602,184.07685 -379.59376,185.47601 -379.59375,187.0625 C -379.59375,191.43981 -383.19159,194.95902 -387.84375,194.9375 C -394.42681,194.90707 -399.21616,188.79155 -399.1875,181.8125 C -399.16667,176.73546 -397.21048,172.49721 -392.84375,168 C -395.97773,168 -400.69316,168 -403,168 z M -380.9375,173.8125 C -381.41315,173.79614 -381.89779,173.81169 -382.4375,173.84375 C -388.37099,174.19619 -392.87129,178.30123 -392.875,183.15625 C -392.87636,184.91919 -392.22638,186.66073 -391.28125,187.875 C -390.33378,189.09227 -389.15801,189.71875 -388.21875,189.71875 C -387.61193,189.71875 -387.22431,189.44622 -386.71875,189.28125 C -386.77341,189.279 -386.81987,189.31696 -386.875,189.3125 C -387.97267,189.22364 -388.918,188.66583 -389.71875,187.9375 C -390.83398,186.92316 -391.40625,185.524 -391.40625,183.9375 C -391.40625,179.56018 -387.80838,176.04098 -383.15625,176.0625 C -376.57318,176.09293 -371.78384,182.20847 -371.8125,189.1875 C -371.83333,194.26453 -373.78953,198.50282 -378.15625,203 C -375.03983,203 -370.31777,203 -368,203 C -368,195.10866 -367.99999,187.44485 -368,179.53125 L -369.875,178.15625 C -374.31547,175.14269 -377.4567,173.9322 -380.9375,173.8125 z" transform="matrix(1,0,0,1.0013586,410.00023,-162.22134)"/></g></svg>