<svg xmlns="http://www.w3.org/2000/svg" xmlns:svg="http://www.w3.org/2000/svg" xmlns:xlink="http://www.w3.org/1999/xlink" id="svg7563" width="48" height="48"><defs id="defs7565"><linearGradient id="linearGradient3412"><stop id="stop3414" offset="0" stop-color="#fff" stop-opacity=".598"/><stop id="stop3416" offset="1" stop-color="#4e9a06" stop-opacity="0"/></linearGradient><linearGradient id="linearGradient2416" x1="13" x2="40" y1="11" y2="19" gradientTransform="matrix(1.1626866,0.3285437,-0.3285437,1.1626866,2.863015,-16.229838)" gradientUnits="userSpaceOnUse" xlink:href="#linearGradient3412"/><linearGradient id="linearGradient3458"><stop id="stop3460" offset="0" stop-color="#41a100" stop-opacity="1"/><stop id="stop3462" offset="1" stop-color="#fff" stop-opacity="0"/></linearGradient><linearGradient id="linearGradient2427" x1="33" x2="4" y1="33" y2="5" gradientTransform="matrix(1.1626866,0.3285437,-0.3285437,1.1626866,4.983065,-16.465038)" gradientUnits="userSpaceOnUse" xlink:href="#linearGradient3458"/></defs><metadata id="metadata7568"/><g id="layer1"><g id="g3562" stroke="none" transform="matrix(1.1626866,0.3285437,-0.3285437,1.1626866,5.091025,-16.714778)"><path id="path3564" fill="#c5f199" fill-opacity="1" fill-rule="nonzero" stroke="none" stroke-linecap="butt" stroke-linejoin="round" stroke-opacity="1" stroke-width="1" d="M 32.62692,6.6695339 C 28.943103,10.347154 11.111941,12.664469 9,33 C 9.3414198,38.11565 11.750163,44.619293 16.499797,43.597643 C 17.482576,43.386246 18.538501,43.794446 19.203605,44.407481 C 23.555343,48.418538 27.732345,46.782233 28.855024,43.962447 C 29.070261,43.421846 29.754997,43.365614 30.315916,43.589557 C 36.857006,46.201039 38.613158,38.645886 39,33 C 39.096949,30.551387 37.800853,11.942617 35.822153,10.473066 C 35.232485,10.035129 33.801652,12.187441 32.644545,14.379307 C 23.397466,31.895713 11.762403,24.057082 32.238499,7.1548098 L 32.4735,6.6276491 L 32.744417,6.6586341"/><g id="g3566" fill="#c5f199" fill-opacity="1" stroke="none" stroke-linecap="round" stroke-linejoin="bevel" stroke-opacity="1"><path id="path3568" fill="#c5f199" fill-opacity="1" fill-rule="evenodd" stroke="none" stroke-linecap="round" stroke-linejoin="bevel" stroke-opacity="1" stroke-width="1" d="M 24,45 L 24,33"/><path id="path3570" fill="#c5f199" fill-opacity="1" fill-rule="evenodd" stroke="none" stroke-linecap="round" stroke-linejoin="bevel" stroke-opacity="1" stroke-width="1" d="M 15,42 L 15,35"/><path id="path3572" fill="#c5f199" fill-opacity="1" fill-rule="evenodd" stroke="none" stroke-linecap="round" stroke-linejoin="bevel" stroke-opacity="1" stroke-width="1" d="M 33,42 L 33,35"/></g></g><g id="g3574" fill="#73d216" fill-opacity="1" stroke="none" transform="matrix(1.1626866,0.3285437,-0.3285437,1.1626866,5.091025,-16.714778)"><path id="path3576" fill="#73d216" fill-opacity="1" fill-rule="nonzero" stroke="none" stroke-linecap="butt" stroke-linejoin="round" stroke-opacity="1" stroke-width="1" d="M 35.234589,13.724224 C 31.496538,21.805793 21.999895,29.946967 19.494746,24.633171 C 18.259214,22.012423 20.444587,17.339475 24.970511,12.046117 C 19.052984,15.684909 9.0048605,24.657969 10.614085,33.891165 C 10.240096,37.730699 13.217584,44.854617 17.074704,42.528018 C 18.102914,41.907806 19.832336,42.804046 20.452936,43.859693 C 21.771483,46.102557 26.565305,45.447239 27.607052,44.011061 C 28.374886,42.952509 29.980607,42.339501 31.245483,42.634122 C 36.778838,43.922978 37.16615,36.508792 37.142809,33.588177 C 38.771623,22.841659 35.355682,17.704462 35.234589,13.724224 z"/><g id="g3578" fill="#73d216" fill-opacity="1" stroke="none" stroke-linecap="round" stroke-linejoin="bevel" stroke-opacity="1"><path id="path3580" fill="#73d216" fill-opacity="1" fill-rule="evenodd" stroke="none" stroke-linecap="round" stroke-linejoin="bevel" stroke-opacity="1" stroke-width="1" d="M 33,42 L 33,35"/><path id="path3582" fill="#73d216" fill-opacity="1" fill-rule="evenodd" stroke="none" stroke-linecap="round" stroke-linejoin="bevel" stroke-opacity="1" stroke-width="1" d="M 24,45 L 24,33"/><path id="path3584" fill="#73d216" fill-opacity="1" fill-rule="evenodd" stroke="none" stroke-linecap="round" stroke-linejoin="bevel" stroke-opacity="1" stroke-width="1" d="M 15,42 L 15,35"/></g></g><path id="path3586" fill="url(#linearGradient2427)" fill-opacity="1" fill-rule="evenodd" stroke="none" stroke-linecap="butt" stroke-linejoin="miter" stroke-opacity="1" stroke-width="1" d="M 6.742445,24.223072 C 9.451895,18.925782 14.468085,18.864642 23.254185,21.742132 C 29.088635,21.742122 36.929825,16.220392 41.364065,11.270882 C 42.358555,30.476802 33.804495,49.819622 26.187375,42.287352 C 25.168875,41.280212 24.402095,42.382952 22.898285,43.224132 C 21.458065,44.029752 20.765955,44.154462 19.212225,43.752272 C 14.090445,44.076602 13.096895,35.823262 10.823665,37.487932 C 6.512485,40.644972 4.962125,31.703882 6.742445,24.223072 z"/><path id="path3590" fill="none" fill-rule="evenodd" stroke="#c5f199" stroke-dasharray="none" stroke-linecap="round" stroke-linejoin="miter" stroke-miterlimit="4" stroke-opacity="1" stroke-width="3.625" d="M 11.770055,38.888312 C 11.439515,36.016832 11.075715,30.609782 13.590135,27.470952"/><path id="path3592" fill="none" fill-rule="evenodd" stroke="#c5f199" stroke-dasharray="none" stroke-linecap="round" stroke-linejoin="miter" stroke-miterlimit="4" stroke-opacity="1" stroke-width="3.625" d="M 24.499735,30.648572 C 21.601445,38.216052 23.485735,39.494752 24.894945,43.609012 L 24.894945,43.609012 L 24.894945,43.609012 L 24.716375,42.984012"/><g id="g3596" transform="matrix(1.1626866,0.3285437,-0.3285437,1.1626866,-22.333425,-30.920378)"><path id="path3598" fill="none" fill-opacity="1" fill-rule="nonzero" stroke="#204c00" stroke-dasharray="none" stroke-linecap="butt" stroke-linejoin="round" stroke-miterlimit="4" stroke-opacity="1" stroke-width=".828" d="M 58.836696,11.191679 C 54.60152,13.283618 34.371877,21.539565 34.111956,38.37916 C 34.23937,44.016827 37.022977,50.949008 42.995777,48.976423 C 43.419099,48.836853 43.503143,48.965524 43.757523,49.283134 C 47.911767,54.469973 53.736445,51.666736 54.462077,48.968721 C 54.565425,48.584458 54.107103,48.849125 54.462077,48.968721 C 61.90878,51.477628 63.638909,44.604122 64.115394,38.779293 C 65.224194,33.529058 61.312968,14.079248 60.37612,15.673393 C 44.414802,42.833251 39.236631,24.348064 58.836696,11.191679"/><g id="g3600" fill="none" fill-opacity="1" stroke="#306600" stroke-dasharray="none" stroke-linecap="round" stroke-linejoin="bevel" stroke-miterlimit="4" stroke-opacity="1" stroke-width=".828" transform="translate(25,5)"><g id="g3602" stroke="#204c00" stroke-dasharray="none" stroke-miterlimit="4" stroke-opacity="1" stroke-width=".828"><path id="path3606" fill="none" fill-opacity="1" fill-rule="evenodd" stroke="#204c00" stroke-dasharray="none" stroke-linecap="round" stroke-linejoin="bevel" stroke-miterlimit="4" stroke-opacity="1" stroke-width=".828" d="M 18.645566,43.903974 C 15.051587,37.187354 16.540541,35.406359 16.713974,33.280216"/><path id="path3608" fill="none" fill-opacity="1" fill-rule="evenodd" stroke="#204c00" stroke-dasharray="none" stroke-linecap="round" stroke-linejoin="bevel" stroke-miterlimit="4" stroke-opacity="1" stroke-width=".828" d="M 29.35012,43.828988 C 26.087374,40.085035 25.418677,36.423326 26.118423,33.355781"/></g></g></g><path id="path3610" fill="url(#linearGradient2416)" fill-opacity="1" fill-rule="evenodd" stroke="none" stroke-linecap="butt" stroke-linejoin="round" stroke-opacity="1" stroke-width="1" d="M 29.154895,6.2011522 C 29.339795,3.8972722 6.546375,13.526322 6.836655,24.369812 C 10.804735,19.213472 14.660045,18.788392 20.986685,21.370712 C 25.599465,25.679232 11.804605,17.822872 29.154895,6.2011522 L 29.154895,6.2011522 L 29.154895,6.2011522 L 29.154895,6.2011522 z"/></g></svg>