<svg xmlns="http://www.w3.org/2000/svg" xmlns:svg="http://www.w3.org/2000/svg" xmlns:xlink="http://www.w3.org/1999/xlink" id="svg7707" width="48" height="48"><defs id="defs7709"><linearGradient id="linearGradient8732"><stop id="stop8734" offset="0" stop-color="#6b3678" stop-opacity="1"/><stop id="stop8736" offset="1" stop-color="#6b3678" stop-opacity="0"/></linearGradient><linearGradient id="linearGradient8742" x1="4.085" x2="4.085" y1="40.417" y2="43.352" gradientTransform="matrix(-1,0,0,1,37.022732,2.9802326e-8)" gradientUnits="userSpaceOnUse" xlink:href="#linearGradient8732"/><linearGradient id="linearGradient8744"><stop id="stop8746" offset="0" stop-color="#7a1d90" stop-opacity="1"/><stop id="stop8748" offset="1" stop-color="#6b3678" stop-opacity="0"/></linearGradient><linearGradient id="linearGradient8738" x1="4.085" x2="4.085" y1="39.097" y2="44.322" gradientUnits="userSpaceOnUse" xlink:href="#linearGradient8744"/><linearGradient id="linearGradient8858" x1="10.499" x2="9.642" y1="24.936" y2="23.676" gradientUnits="userSpaceOnUse" xlink:href="#linearGradient8848"/><linearGradient id="linearGradient8808"><stop id="stop8810" offset="0" stop-color="#6e3100" stop-opacity="1"/><stop id="stop8812" offset="1" stop-color="#6e3100" stop-opacity="0"/></linearGradient><linearGradient id="linearGradient8818" x1="17.969" x2="18.144" y1="29.495" y2="30.188" gradientUnits="userSpaceOnUse" xlink:href="#linearGradient8808"/><linearGradient id="linearGradient8820"><stop id="stop8822" offset="0" stop-color="#522400" stop-opacity="1"/><stop id="stop8824" offset="1" stop-color="#6e3100" stop-opacity="0"/></linearGradient><linearGradient id="linearGradient8814" x1="18.34" x2="18.032" y1="29.339" y2="30.431" gradientUnits="userSpaceOnUse" xlink:href="#linearGradient8820"/><linearGradient id="linearGradient8686"><stop id="stop8688" offset="0" stop-color="#fdb751" stop-opacity="1"/><stop id="stop8690" offset="1" stop-color="#ce5c00" stop-opacity="1"/></linearGradient><linearGradient id="linearGradient8692" x1="18.5" x2="19.985" y1="29.911" y2="29.854" gradientTransform="matrix(1.0769231,0,0,1.1428571,-0.905101,-4.680058)" gradientUnits="userSpaceOnUse" xlink:href="#linearGradient8686"/><filter id="filter8792" width="1.191" height="1.554" x="-.095" y="-.277"><feGaussianBlur id="feGaussianBlur8794" stdDeviation=".31"/></filter><filter id="filter8730"><feGaussianBlur id="feGaussianBlur8732" stdDeviation=".272"/></filter><linearGradient id="linearGradient8884"><stop id="stop8886" offset="0" stop-color="#9a5ba8" stop-opacity="1"/><stop id="stop8888" offset="1" stop-color="#6b3e75" stop-opacity="1"/></linearGradient><linearGradient id="linearGradient8890" x1="23.882" x2="24.974" y1="24.343" y2="19.217" gradientUnits="userSpaceOnUse" xlink:href="#linearGradient8884"/><linearGradient id="linearGradient8848"><stop id="stop8850" offset="0" stop-color="#000" stop-opacity="1"/><stop id="stop8852" offset="1" stop-color="#fff" stop-opacity="1"/></linearGradient><linearGradient id="linearGradient8854" x1="10.487" x2="9.751" y1="25.212" y2="23.676" gradientUnits="userSpaceOnUse" xlink:href="#linearGradient8848"/><linearGradient id="linearGradient8876"><stop id="stop8878" offset="0" stop-color="#9a5ba8" stop-opacity="1"/><stop id="stop8880" offset="1" stop-color="#744380" stop-opacity="1"/></linearGradient><linearGradient id="linearGradient8882" x1="10.469" x2="9.531" y1="25.313" y2="19.688" gradientUnits="userSpaceOnUse" xlink:href="#linearGradient8876"/><linearGradient id="linearGradient6506"><stop id="stop6508" offset="0" stop-color="#fff" stop-opacity=".955"/><stop id="stop6510" offset="1" stop-color="#eeeeec" stop-opacity="0"/></linearGradient><linearGradient id="linearGradient6512" x1="15.646" x2="15.646" y1="40.669" y2="47.022" gradientTransform="matrix(1,0,0,0.988192,1.562499,-2.39645)" gradientUnits="userSpaceOnUse" xlink:href="#linearGradient6506"/><linearGradient id="linearGradient2816"><stop id="stop2818" offset="0" stop-color="#fff" stop-opacity="1"/><stop id="stop2820" offset="1" stop-color="#eeeeec" stop-opacity="0"/></linearGradient><radialGradient id="radialGradient2824" cx="14.93" cy="25.802" r="16.39" fx="14.93" fy="25.802" gradientTransform="matrix(1.3364897,0,0,1.3894845,-0.759152,-10.711989)" gradientUnits="userSpaceOnUse" xlink:href="#linearGradient2816"/><linearGradient id="linearGradient2826"><stop id="stop2828" offset="0" stop-color="#3b1941" stop-opacity="1"/><stop id="stop2830" offset="1" stop-color="#3b1941" stop-opacity="0"/></linearGradient><linearGradient id="linearGradient2832" x1="13.192" x2="13.192" y1="41.606" y2="49.068" gradientTransform="matrix(1,0,0,0.988192,1.447353,-2.486208)" gradientUnits="userSpaceOnUse" xlink:href="#linearGradient2826"/><linearGradient id="linearGradient2834"><stop id="stop2836" offset="0" stop-color="#7e408d" stop-opacity="1"/><stop id="stop2838" offset="1" stop-color="#82508e" stop-opacity="0"/></linearGradient><linearGradient id="linearGradient2840" x1="11.373" x2="11.373" y1="43.445" y2="47.758" gradientTransform="matrix(1,0,0,0.988192,1.447353,-2.486208)" gradientUnits="userSpaceOnUse" xlink:href="#linearGradient2834"/><linearGradient id="linearGradient8868"><stop id="stop8870" offset="0" stop-color="#3b1941" stop-opacity="1"/><stop id="stop8872" offset="1" stop-color="#a646b7" stop-opacity="1"/></linearGradient><linearGradient id="linearGradient8874" x1="12.409" x2="16.141" y1="10.603" y2="13.895" gradientTransform="matrix(1.236264,0,0,0.549587,-5.4828866,3.775206)" gradientUnits="userSpaceOnUse" xlink:href="#linearGradient8868"/><linearGradient id="linearGradient8860"><stop id="stop8862" offset="0" stop-color="#3b1941" stop-opacity="1"/><stop id="stop8864" offset="1" stop-color="#a949b9" stop-opacity="1"/></linearGradient><linearGradient id="linearGradient8866" x1="13.062" x2="16.545" y1="10.027" y2="12.892" gradientTransform="matrix(1.50247,0,0,1,-6.5946406,-2.139701)" gradientUnits="userSpaceOnUse" xlink:href="#linearGradient8860"/><linearGradient id="linearGradient6537"><stop id="stop6539" offset="0" stop-color="#fff" stop-opacity="1"/><stop id="stop6541" offset="1" stop-color="#d3e1f1" stop-opacity="1"/></linearGradient><linearGradient id="linearGradient7977" x1="30.5" x2="30.5" y1="4.887" y2="22.782" gradientUnits="userSpaceOnUse" xlink:href="#linearGradient6537"/><linearGradient id="linearGradient8904"><stop id="stop8906" offset="0" stop-color="#729fcf" stop-opacity="1"/><stop id="stop8908" offset="1" stop-color="#25486d" stop-opacity="1"/></linearGradient><linearGradient id="linearGradient8910" x1="26.125" x2="41.875" y1="1.804" y2="33.679" gradientUnits="userSpaceOnUse" xlink:href="#linearGradient8904"/></defs><metadata id="metadata7712"/><g id="layer1"><path id="rect5498" fill="#efefef" fill-opacity="1" stroke="url(#linearGradient8910)" stroke-miterlimit="4" stroke-opacity="1" stroke-width="1" d="M 20.53125,1.5 C 17.192693,1.5 14.5,4.611235 14.5,8.4687504 L 14.5,20.53125 C 14.5,24.388765 17.192693,27.5 20.53125,27.5 L 34.530203,27.5 C 34.530203,27.5 34.406442,30.680041 32.92887,32.534344 C 38.120414,32.534344 39.353553,27.485509 39.353553,27.485509 L 41.5,27.5 C 45.512737,27.5 46.5,24.38319 46.5,20.53125 L 46.5,8.4687504 C 46.5,4.611236 43.807307,1.5 40.46875,1.5 L 20.53125,1.5 z"/><path id="path6535" fill="url(#linearGradient7977)" fill-opacity="1" stroke="#fff" stroke-miterlimit="4" stroke-opacity="1" stroke-width="1" d="M 20.53125,2.5 C 17.815701,2.5 15.5,5.077894 15.5,8.4687504 L 15.5,20.53125 C 15.5,23.922107 17.815701,26.5 20.53125,26.5 L 34.53125,26.5 C 35.082875,26.501589 35.529661,26.948375 35.53125,27.5 C 35.53125,27.5 35.367799,30.212738 34.75,31.34218 C 36.852551,31.34218 38.53125,26.6875 38.53125,26.6875 C 38.704261,26.563588 38.912203,26.497922 39.125,26.5 L 41.5,26.5 C 43.246736,26.5 44.065452,25.932701 44.65625,24.9375 C 45.247048,23.942299 45.5,22.371547 45.5,20.53125 L 45.5,8.4687504 C 45.5,5.077894 43.184299,2.5 40.46875,2.5 L 20.53125,2.5 z"/><rect id="rect8734" width="7" height="1.86" x="15.643" y="26.409" fill="#eeeeec" fill-opacity="1" stroke="none" stroke-dasharray="none" stroke-miterlimit="4" stroke-opacity="1" stroke-width="1" opacity="1" rx=".814" ry=".93"/><path id="rect5189" fill="url(#linearGradient8866)" fill-opacity="1" stroke="none" stroke-miterlimit="4" stroke-opacity="1" stroke-width="1" d="M 10.968089,7.6821673 C 13.825874,5.876494 18.683474,9.0957394 19.201853,10.751964 L 15.25649,10.751964 C 15.19399,8.4082144 10.968089,7.6821673 10.968089,7.6821673 z"/><path id="path5192" fill="url(#linearGradient8874)" fill-opacity="1" stroke="none" stroke-miterlimit="4" stroke-opacity="1" stroke-width="1" d="M 8.920972,9.9271816 C 10.543462,8.0699996 15.5336,9.5097675 15.5336,10.860297 L 11.743475,11.411821 C 12.958815,9.7987343 8.920972,9.9271816 8.920972,9.9271816 z"/><path id="path5176" fill="url(#linearGradient2840)" fill-opacity="1" stroke="url(#linearGradient2832)" stroke-dasharray="none" stroke-miterlimit="4" stroke-opacity="1" stroke-width="1" d="M 16.447354,10.481822 C 9.823351,10.481822 3.930855,15.93012 4.509853,22.712688 C 5.776858,37.554787 1.94035,35.543378 1.5,42.316391 C 1.5,44.375904 2.48542,45.355587 4.59205,45.355587 C 5.779538,45.355587 30.807389,45.5 33.498388,45.5 C 35.612515,45.5 35.447354,43.46472 35.447354,43.46472 C 35.447354,40.830782 29.045256,38.620654 27.260807,36.687231 C 25.432389,34.709838 27.447354,27.653648 27.447354,27.653648 C 28.08866,26.141912 28.447354,24.466812 28.447354,22.712688 C 28.447354,15.894164 23.071356,10.481822 16.447354,10.481822 z" opacity="1"/><path id="path5241" fill="url(#radialGradient2824)" fill-opacity="1" stroke="url(#linearGradient6512)" stroke-miterlimit="4" stroke-opacity="1" stroke-width="1" d="M 16.25,11.5 C 10.237704,11.5 5.027663,16.611038 5.499999,22.834065 C 6.064424,30.27036 5.817503,32.821583 4.023667,37.541192 C 1.143741,42.286379 3.12352,44.533069 5.465863,44.533069 C 7.402444,44.533069 25.520621,44.503627 31.346594,44.503627 C 32.513801,44.503627 34.5,45.001748 34.5,43.554478 C 34.5,43.335354 34.300249,42.923343 33.75,42.411881 C 33.199751,41.90042 32.37676,41.351214 31.46875,40.806069 C 30.56074,40.260924 29.59071,39.709456 28.71875,39.169376 C 27.84679,38.629297 27.074154,38.125147 26.53125,37.409159 C 25.921245,36.604678 25.641306,35.658991 25.586842,34.629869 C 25.532378,33.600747 25.670221,32.49665 25.787061,31.449126 C 26.020741,29.354077 26.53125,27.527239 26.53125,27.527239 C 26.54624,27.4637 26.567163,27.401673 26.59375,27.341953 C 27.181231,25.957097 27.5,24.414481 27.5,22.802446 C 27.5,16.531779 22.272436,11.5 16.25,11.5 z" opacity=".55"/><path id="path8838" fill="url(#linearGradient8882)" fill-opacity="1" stroke="none" stroke-miterlimit="4" stroke-opacity="1" stroke-width="1" d="M 9.96875,17.96875 C 8.6328774,17.96875 7.5286409,18.753017 6.875,19.71875 C 6.2213591,20.684483 5.9062499,21.848884 5.90625,23 C 5.90625,25.694817 7.8977844,28.03125 10.46875,28.03125 C 11.539674,28.03125 12.596335,27.527372 13.46875,26.71875 C 14.341165,25.910128 15.03125,24.709464 15.03125,23.28125 C 15.03125,22.003744 14.362496,20.808851 13.46875,19.8125 C 12.575004,18.816149 11.384009,17.96875 9.96875,17.96875 z" opacity="1" transform="translate(1.09375,-0.96875)"/><path id="path5157" fill="#fff" fill-opacity="1" stroke="none" stroke-miterlimit="4" stroke-opacity="1" stroke-width="1" d="M 15.09375,22.321339 C 15.09375,24.52934 12.987869,26.03125 11.567428,26.03125 C 9.620899,26.03125 8.041107,24.239249 8.041107,22.031249 C 8.041107,20.112462 9.124037,18.03125 11.070566,18.03125 C 13.017097,18.03125 15.09375,20.576941 15.09375,22.321339 z" opacity="1"/><path id="path5162" fill="#6b1a80" fill-opacity="1" stroke="none" stroke-dasharray="none" stroke-miterlimit="4" stroke-opacity="1" stroke-width="1" d="M 11.410714,24.3125 A 1.2410715,1.2946428 0 1 1 8.928571,24.3125 A 1.2410715,1.2946428 0 1 1 11.410714,24.3125 z" opacity="1" transform="matrix(1.237779,0,0,1.544828,-1.030192,-15.38768)"/><path id="path5164" fill="url(#linearGradient8854)" fill-opacity="1" stroke="none" stroke-dasharray="none" stroke-miterlimit="4" stroke-opacity="1" stroke-width="1" d="M 11.410714,24.3125 A 1.2410715,1.2946428 0 1 1 8.928571,24.3125 A 1.2410715,1.2946428 0 1 1 11.410714,24.3125 z" opacity="1" transform="matrix(0.4028775,0,0,0.772414,7.496629,3.251935)"/><path id="path8846" fill="url(#linearGradient8890)" fill-opacity="1" stroke="none" stroke-miterlimit="4" stroke-opacity="1" stroke-width="1" d="M 24.6875,17.96875 C 23.636213,18.009185 22.683031,18.409233 22.03125,19.125 C 20.466122,20.843786 20.678782,23.580894 22.3125,25.375 C 23.011072,26.142154 23.917332,26.724837 24.9375,26.9375 C 25.957668,27.150163 27.151401,26.89759 27.96875,26 C 28.842555,25.04041 29.039766,23.753975 28.96875,22.53125 C 28.897734,21.308525 28.565932,20.111716 27.78125,19.25 C 26.906665,18.289553 25.728905,17.928695 24.6875,17.96875 z" opacity="1" transform="translate(1.034821,-0.965772)"/><path id="path5169" fill="#fff" fill-opacity="1" stroke="none" stroke-miterlimit="4" stroke-opacity="1" stroke-width="1" d="M 28.07086,18.984912 C 26.766398,17.552385 24.644242,17.934034 23.811326,18.848719 C 22.669923,20.102179 22.802261,22.282108 24.106725,23.714636 C 25.240323,24.959524 27.104889,25.612445 28.246292,24.358987 C 29.387696,23.105527 29.101434,20.116659 28.07086,18.984912 z" opacity="1"/><path id="path5171" fill="#6b1a80" fill-opacity="1" stroke="none" stroke-dasharray="none" stroke-miterlimit="4" stroke-opacity="1" stroke-width="1" d="M 11.410714,24.3125 A 1.2410715,1.2946428 0 1 1 8.928571,24.3125 A 1.2410715,1.2946428 0 1 1 11.410714,24.3125 z" opacity="1" transform="matrix(1.208632,0,0,1.598777,13.243467,-16.766194)"/><path id="path8696" fill="#5c3566" fill-opacity="1" stroke="none" stroke-miterlimit="4" stroke-opacity="1" stroke-width="1.028" d="M 19.0625,25.21875 C 18.601377,25.21875 18.273569,25.504007 18.09375,25.71875 C 17.913931,25.933493 17.816385,26.151947 17.6875,26.375 C 17.42973,26.821106 17.161718,27.281061 16.8125,27.625 C 16.463282,27.968939 15.753081,28.431077 15.090677,28.457564 C 13.768981,28.152971 12.567412,27.574567 11.44337,27.388802 C 11.190855,27.626888 11.124903,28.002654 11.28125,28.3125 C 12.447615,30.480389 13.704893,31.652553 16.158709,32.98462 C 17.36658,33.640319 19.551532,34.28873 20.662703,34.736506 C 22.03071,33.835346 25.543472,30.338576 25.75,28.125 C 25.844084,27.808258 25.729503,27.466527 25.463497,27.270522 C 24.478872,27.816677 23.360045,28.165794 22.250307,28.426314 C 21.786763,28.408951 21.509989,27.99255 21.21875,27.65625 C 20.927511,27.31995 20.680079,26.828945 20.4375,26.375 C 20.31621,26.148027 20.208768,25.937142 20.03125,25.71875 C 19.853732,25.500358 19.525474,25.21875 19.0625,25.21875 z" filter="url(#filter8730)" transform="matrix(0.9902622,0,0,1.0468412,0.68037,-1.632217)"/><path id="path8738" fill="#5c3566" fill-opacity="1" stroke="none" stroke-dasharray="none" stroke-miterlimit="4" stroke-opacity="1" stroke-width="1" d="M 15.8125,26.625 C 15.134785,26.625 14.625,27.252207 14.625,27.9375 C 14.625,28.622793 15.134785,29.249998 15.8125,29.25 L 21.1875,29.25 C 21.865216,29.25 22.375,28.622793 22.375,27.9375 C 22.375,27.252207 21.865216,26.625 21.1875,26.625 L 15.8125,26.625 z" filter="url(#filter8792)" opacity="1" transform="translate(1.049226,-0.590772)"/><rect id="rect5215" width="7" height="1.86" x="16.018" y="26.174" fill="#fff" fill-opacity="1" stroke="none" stroke-dasharray="none" stroke-miterlimit="4" stroke-opacity="1" stroke-width="1" opacity="1" rx=".814" ry=".93"/><path id="rect5187" fill="url(#linearGradient8692)" fill-opacity="1" stroke="none" stroke-miterlimit="4" stroke-opacity="1" stroke-width="1.028" d="M 12.017976,27.284466 C 18.332186,30.947891 18.535242,25.034227 19.622035,25.034227 C 20.693875,25.034227 20.889384,30.946219 26.017976,27.230273 C 25.73271,30.311439 22.068246,33.065477 21.020058,34.065477 C 18.988153,32.971727 14.03875,31.7541 12.017976,27.284466 z"/><path stroke-width="1" style="marker:none" id="path8806" fill="url(#linearGradient8814)" fill-opacity="1" fill-rule="nonzero" stroke="none" stroke-dasharray="none" stroke-dashoffset="0" stroke-linecap="square" stroke-linejoin="miter" stroke-miterlimit="4" stroke-opacity="1" marker-end="none" marker-mid="none" marker-start="none" d="M 18.384777,29.72571 A 0.28726214,0.6408155 0 1 1 17.810253,29.72571 A 0.28726214,0.6408155 0 1 1 18.384777,29.72571 z" display="inline" enable-background="accumulate" opacity=".611" overflow="visible" transform="matrix(-1.0945752,0.9356227,0.6067766,1.5209514,23.290203,-33.120817)" visibility="visible"/><path stroke-width="1" style="marker:none" id="path8816" fill="url(#linearGradient8818)" fill-opacity="1" fill-rule="nonzero" stroke="none" stroke-dasharray="none" stroke-dashoffset="0" stroke-linecap="square" stroke-linejoin="miter" stroke-miterlimit="4" stroke-opacity="1" marker-end="none" marker-mid="none" marker-start="none" d="M 18.384777,29.72571 A 0.28726214,0.6408155 0 1 1 17.810253,29.72571 A 0.28726214,0.6408155 0 1 1 18.384777,29.72571 z" display="inline" enable-background="accumulate" opacity=".611" overflow="visible" transform="matrix(1.0945741,0.9356227,-0.606776,1.5209514,16.745752,-33.098342)" visibility="visible"/><path id="path8856" fill="url(#linearGradient8858)" fill-opacity="1" stroke="none" stroke-dasharray="none" stroke-miterlimit="4" stroke-opacity="1" stroke-width="1" d="M 11.410714,24.3125 A 1.2410715,1.2946428 0 1 1 8.928571,24.3125 A 1.2410715,1.2946428 0 1 1 11.410714,24.3125 z" opacity="1" transform="matrix(0.4028775,0,0,0.772414,21.437701,3.254912)"/><path id="rect7959" fill="url(#linearGradient8738)" fill-opacity="1" fill-rule="nonzero" stroke="none" stroke-dashoffset="0" stroke-linecap="square" stroke-linejoin="miter" stroke-miterlimit="4" stroke-opacity="1" stroke-width="1" marker-end="none" marker-mid="none" marker-start="none" d="M 3.375,44.9375 C 1.75,44.5625 1.125,41.0625 4.1875,35.75 C 5.398064,40.757973 11,44.375 11,44.375 L 3.375,44.9375 z" display="inline" enable-background="accumulate" opacity=".611" overflow="visible" visibility="visible" style="marker:none"/><path id="path8740" fill="url(#linearGradient8742)" fill-opacity="1" fill-rule="nonzero" stroke="none" stroke-dashoffset="0" stroke-linecap="square" stroke-linejoin="miter" stroke-miterlimit="4" stroke-opacity="1" stroke-width="1" marker-end="none" marker-mid="none" marker-start="none" d="M 33.647731,44.9375 C 35.272732,44.5625 36.772732,42.5625 28.772731,38.5625 C 29.124668,42.695473 26.022731,44.375 26.022731,44.375 L 33.647731,44.9375 z" display="inline" enable-background="accumulate" opacity=".611" overflow="visible" visibility="visible" style="marker:none"/></g></svg>