<svg xmlns="http://www.w3.org/2000/svg" xmlns:svg="http://www.w3.org/2000/svg" xmlns:xlink="http://www.w3.org/1999/xlink" id="svg7579" width="48" height="48"><defs id="defs7581"><linearGradient id="linearGradient4735"><stop id="stop4737" offset="0" stop-color="#fff" stop-opacity="1"/><stop id="stop4739" offset="1" stop-color="#e6e6e1" stop-opacity="1"/></linearGradient><radialGradient id="radialGradient4741" cx="10.536" cy="26" r="20.999" fx="10.536" fy="26" gradientTransform="matrix(1.464342,3.571614e-2,-1.852372e-2,0.758963,-4.584825,6.809332)" gradientUnits="userSpaceOnUse" xlink:href="#linearGradient4735"/><linearGradient id="linearGradient4755"><stop id="stop4757" offset="0" stop-color="#fff" stop-opacity="1"/><stop id="stop4759" offset="1" stop-color="#f9f9f9" stop-opacity="1"/></linearGradient><radialGradient id="radialGradient4771" cx="9.781" cy="38.42" r="21.021" fx="9.781" fy="38.42" gradientTransform="matrix(0.74005,-1.271033e-8,6.801607e-7,0.189525,5.047392,7.702356)" gradientUnits="userSpaceOnUse" xlink:href="#linearGradient4755"/><radialGradient id="radialGradient5507" cx="23.414" cy="43.282" r="22.274" fx="23.414" fy="43.282" gradientTransform="matrix(0.976115,1.236075e-3,-1.888397e-4,0.130952,0.567418,37.76785)" gradientUnits="userSpaceOnUse" xlink:href="#linearGradient5501"/><linearGradient id="linearGradient5501"><stop id="stop5503" offset="0" stop-color="#000" stop-opacity="1"/><stop id="stop5505" offset="1" stop-color="#000" stop-opacity="0"/></linearGradient><radialGradient id="radialGradient14828" cx="23.414" cy="43.282" r="22.274" fx="23.414" fy="43.282" gradientTransform="matrix(0.976115,1.236075e-3,-1.888397e-4,0.130952,0.567418,37.76785)" gradientUnits="userSpaceOnUse" xlink:href="#linearGradient5501"/></defs><metadata id="metadata7584"/><g id="layer1"><path id="path14826" fill="url(#radialGradient14828)" fill-opacity="1" stroke="none" stroke-dasharray="none" stroke-dashoffset="0" stroke-linecap="round" stroke-linejoin="miter" stroke-miterlimit="4" stroke-opacity="0" stroke-width="1" d="M 46.845823,43.492195 A 22.273863,2.9168155 0 1 1 2.2980976,43.492195 A 22.273863,2.9168155 0 1 1 46.845823,43.492195 z" opacity=".2" transform="matrix(0.538748,0,0,0.857097,22.761909,8.222598)"/><path id="path4773" fill="url(#radialGradient5507)" fill-opacity="1" stroke="none" stroke-dasharray="none" stroke-dashoffset="0" stroke-linecap="round" stroke-linejoin="miter" stroke-miterlimit="4" stroke-opacity="0" stroke-width="1" d="M 46.845823,43.492195 A 22.273863,2.9168155 0 1 1 2.2980976,43.492195 A 22.273863,2.9168155 0 1 1 46.845823,43.492195 z" opacity=".2" transform="matrix(1.077496,0,0,1.272729,-2.476191,-11.066486)"/><g id="g4763" transform="matrix(0.965926,0.258819,-0.258819,0.965926,3.886388,-10.470556)"><rect id="rect1316" width="41.041" height="6.968" x="3.5" y="11.5" fill="url(#radialGradient4771)" fill-opacity="1" stroke="#666863" stroke-dasharray="none" stroke-dashoffset="0" stroke-linecap="round" stroke-linejoin="round" stroke-miterlimit="4" stroke-opacity="1" stroke-width="1" opacity="1" rx="0" ry="0"/><path id="path1320" fill="#ad1919" fill-opacity="1" fill-rule="evenodd" stroke="none" stroke-linecap="butt" stroke-linejoin="miter" stroke-opacity="1" stroke-width="1" d="M 8,12 L 4,18 L 9,18 L 13,12 L 8,12 z"/><path id="path2051" fill="#5fa41e" fill-opacity="1" fill-rule="evenodd" stroke="none" stroke-linecap="butt" stroke-linejoin="miter" stroke-opacity="1" stroke-width="1" d="M 18,12 L 14,18 L 19,18 L 23,12 L 18,12 z"/><path id="path2055" fill="#365c93" fill-opacity="1" fill-rule="evenodd" stroke="none" stroke-linecap="butt" stroke-linejoin="miter" stroke-opacity="1" stroke-width="1" d="M 28,12 L 24,18 L 29,18 L 33,12 L 28,12 z"/><path id="path2059" fill="#555753" fill-opacity="1" fill-rule="evenodd" stroke="none" stroke-linecap="butt" stroke-linejoin="miter" stroke-opacity="1" stroke-width="1" d="M 38,12 L 34,18 L 39,18 L 43,12 L 38,12 z"/><rect id="rect2067" width="38.992" height="5.117" x="4.495" y="12.424" fill="none" fill-opacity="1" stroke="#fff" stroke-dasharray="none" stroke-dashoffset="0" stroke-linecap="round" stroke-linejoin="miter" stroke-miterlimit="4" stroke-opacity="1" stroke-width="1" opacity=".5" rx="0" ry="0"/></g><path id="path2063" fill="url(#radialGradient4741)" fill-opacity="1" fill-rule="evenodd" stroke="#767872" stroke-linecap="butt" stroke-linejoin="miter" stroke-opacity="1" stroke-width="1" d="M 2.488117,19.543462 L 2.488117,42.543462 C 2.517928,43.61489 3.620924,44.686319 4.509283,44.472033 L 41.319553,44.472033 C 42.398701,44.400604 43.549394,43.472033 43.483811,42.543462 L 43.483811,13.614891 L 32.522491,13.614891 L 32.522491,19.543462 L 2.488117,19.543462 z"/><path id="path4481" fill="#555753" fill-opacity="1" stroke="none" stroke-dasharray="none" stroke-dashoffset="0" stroke-linecap="round" stroke-linejoin="miter" stroke-miterlimit="4" stroke-opacity="1" stroke-width="1" d="M 41.593404,39.578522 A 1.1861236,1.2256612 0 1 1 39.221156,39.578522 A 1.1861236,1.2256612 0 1 1 41.593404,39.578522 z" opacity=".2" transform="matrix(0.843082,0,0,0.815886,6.920597,9.751922)"/><path id="path4509" fill="#555753" fill-opacity="1" stroke="none" stroke-dasharray="none" stroke-dashoffset="0" stroke-linecap="round" stroke-linejoin="miter" stroke-miterlimit="4" stroke-opacity="1" stroke-width="1" d="M 41.593404,39.578522 A 1.1861236,1.2256612 0 1 1 39.221156,39.578522 A 1.1861236,1.2256612 0 1 1 41.593404,39.578522 z" opacity=".2" transform="matrix(0.843082,0,0,0.815886,6.920598,6.751922)"/><path id="path4527" fill="#555753" fill-opacity="1" stroke="none" stroke-dasharray="none" stroke-dashoffset="0" stroke-linecap="round" stroke-linejoin="miter" stroke-miterlimit="4" stroke-opacity="1" stroke-width="1" d="M 41.593404,39.578522 A 1.1861236,1.2256612 0 1 1 39.221156,39.578522 A 1.1861236,1.2256612 0 1 1 41.593404,39.578522 z" opacity=".2" transform="matrix(0.843082,0,0,0.815886,6.920603,3.751924)"/><path id="path4545" fill="#555753" fill-opacity="1" stroke="none" stroke-dasharray="none" stroke-dashoffset="0" stroke-linecap="round" stroke-linejoin="miter" stroke-miterlimit="4" stroke-opacity="1" stroke-width="1" d="M 41.593404,39.578522 A 1.1861236,1.2256612 0 1 1 39.221156,39.578522 A 1.1861236,1.2256612 0 1 1 41.593404,39.578522 z" opacity=".2" transform="matrix(0.843082,0,0,0.815886,6.920604,0.751922)"/><path id="path4555" fill="#555753" fill-opacity="1" stroke="none" stroke-dasharray="none" stroke-dashoffset="0" stroke-linecap="round" stroke-linejoin="miter" stroke-miterlimit="4" stroke-opacity="1" stroke-width="1" d="M 41.593404,39.578522 A 1.1861236,1.2256612 0 1 1 39.221156,39.578522 A 1.1861236,1.2256612 0 1 1 41.593404,39.578522 z" opacity=".2" transform="matrix(0.843082,0,0,0.815886,6.920592,-2.248078)"/><path id="path4569" fill="#555753" fill-opacity="1" stroke="none" stroke-dasharray="none" stroke-dashoffset="0" stroke-linecap="round" stroke-linejoin="miter" stroke-miterlimit="4" stroke-opacity="1" stroke-width="1" d="M 41.593404,39.578522 A 1.1861236,1.2256612 0 1 1 39.221156,39.578522 A 1.1861236,1.2256612 0 1 1 41.593404,39.578522 z" opacity=".2" transform="matrix(0.843082,0,0,0.815886,3.92061,9.751922)"/><path id="path4571" fill="#555753" fill-opacity="1" stroke="none" stroke-dasharray="none" stroke-dashoffset="0" stroke-linecap="round" stroke-linejoin="miter" stroke-miterlimit="4" stroke-opacity="1" stroke-width="1" d="M 41.593404,39.578522 A 1.1861236,1.2256612 0 1 1 39.221156,39.578522 A 1.1861236,1.2256612 0 1 1 41.593404,39.578522 z" opacity=".2" transform="matrix(0.843082,0,0,0.815886,3.920611,6.75192)"/><path id="path4573" fill="#555753" fill-opacity="1" stroke="none" stroke-dasharray="none" stroke-dashoffset="0" stroke-linecap="round" stroke-linejoin="miter" stroke-miterlimit="4" stroke-opacity="1" stroke-width="1" d="M 41.593404,39.578522 A 1.1861236,1.2256612 0 1 1 39.221156,39.578522 A 1.1861236,1.2256612 0 1 1 41.593404,39.578522 z" opacity=".2" transform="matrix(0.843082,0,0,0.815886,3.920616,3.75193)"/><path id="path4575" fill="#555753" fill-opacity="1" stroke="none" stroke-dasharray="none" stroke-dashoffset="0" stroke-linecap="round" stroke-linejoin="miter" stroke-miterlimit="4" stroke-opacity="1" stroke-width="1" d="M 41.593404,39.578522 A 1.1861236,1.2256612 0 1 1 39.221156,39.578522 A 1.1861236,1.2256612 0 1 1 41.593404,39.578522 z" opacity=".2" transform="matrix(0.843082,0,0,0.815886,3.920617,0.75192)"/><path id="path4577" fill="#555753" fill-opacity="1" stroke="none" stroke-dasharray="none" stroke-dashoffset="0" stroke-linecap="round" stroke-linejoin="miter" stroke-miterlimit="4" stroke-opacity="1" stroke-width="1" d="M 41.593404,39.578522 A 1.1861236,1.2256612 0 1 1 39.221156,39.578522 A 1.1861236,1.2256612 0 1 1 41.593404,39.578522 z" opacity=".2" transform="matrix(0.843082,0,0,0.815886,3.920605,-2.24808)"/><path id="path4579" fill="#555753" fill-opacity="1" stroke="none" stroke-dasharray="none" stroke-dashoffset="0" stroke-linecap="round" stroke-linejoin="miter" stroke-miterlimit="4" stroke-opacity="1" stroke-width="1" d="M 41.593404,39.578522 A 1.1861236,1.2256612 0 1 1 39.221156,39.578522 A 1.1861236,1.2256612 0 1 1 41.593404,39.578522 z" opacity=".2" transform="matrix(0.843082,0,0,0.815886,3.920606,-5.248078)"/><path id="path4581" fill="#555753" fill-opacity="1" stroke="none" stroke-dasharray="none" stroke-dashoffset="0" stroke-linecap="round" stroke-linejoin="miter" stroke-miterlimit="4" stroke-opacity="1" stroke-width="1" d="M 41.593404,39.578522 A 1.1861236,1.2256612 0 1 1 39.221156,39.578522 A 1.1861236,1.2256612 0 1 1 41.593404,39.578522 z" opacity=".2" transform="matrix(0.843082,0,0,0.815886,0.920584,9.751912)"/><path id="path4583" fill="#555753" fill-opacity="1" stroke="none" stroke-dasharray="none" stroke-dashoffset="0" stroke-linecap="round" stroke-linejoin="miter" stroke-miterlimit="4" stroke-opacity="1" stroke-width="1" d="M 41.593404,39.578522 A 1.1861236,1.2256612 0 1 1 39.221156,39.578522 A 1.1861236,1.2256612 0 1 1 41.593404,39.578522 z" opacity=".2" transform="matrix(0.843082,0,0,0.815886,0.920585,6.751912)"/><path id="path4585" fill="#555753" fill-opacity="1" stroke="none" stroke-dasharray="none" stroke-dashoffset="0" stroke-linecap="round" stroke-linejoin="miter" stroke-miterlimit="4" stroke-opacity="1" stroke-width="1" d="M 41.593404,39.578522 A 1.1861236,1.2256612 0 1 1 39.221156,39.578522 A 1.1861236,1.2256612 0 1 1 41.593404,39.578522 z" opacity=".2" transform="matrix(0.843082,0,0,0.815886,0.92059,3.751914)"/><path id="path4587" fill="#555753" fill-opacity="1" stroke="none" stroke-dasharray="none" stroke-dashoffset="0" stroke-linecap="round" stroke-linejoin="miter" stroke-miterlimit="4" stroke-opacity="1" stroke-width="1" d="M 41.593404,39.578522 A 1.1861236,1.2256612 0 1 1 39.221156,39.578522 A 1.1861236,1.2256612 0 1 1 41.593404,39.578522 z" opacity=".2" transform="matrix(0.843082,0,0,0.815886,0.920591,0.751912)"/><path id="path4589" fill="#555753" fill-opacity="1" stroke="none" stroke-dasharray="none" stroke-dashoffset="0" stroke-linecap="round" stroke-linejoin="miter" stroke-miterlimit="4" stroke-opacity="1" stroke-width="1" d="M 41.593404,39.578522 A 1.1861236,1.2256612 0 1 1 39.221156,39.578522 A 1.1861236,1.2256612 0 1 1 41.593404,39.578522 z" opacity=".2" transform="matrix(0.843082,0,0,0.815886,0.920579,-2.248088)"/><path id="path4591" fill="#555753" fill-opacity="1" stroke="none" stroke-dasharray="none" stroke-dashoffset="0" stroke-linecap="round" stroke-linejoin="miter" stroke-miterlimit="4" stroke-opacity="1" stroke-width="1" d="M 41.593404,39.578522 A 1.1861236,1.2256612 0 1 1 39.221156,39.578522 A 1.1861236,1.2256612 0 1 1 41.593404,39.578522 z" opacity=".2" transform="matrix(0.843082,0,0,0.815886,0.92058,-5.24809)"/><path id="path4593" fill="#555753" fill-opacity="1" stroke="none" stroke-dasharray="none" stroke-dashoffset="0" stroke-linecap="round" stroke-linejoin="miter" stroke-miterlimit="4" stroke-opacity="1" stroke-width="1" d="M 41.593404,39.578522 A 1.1861236,1.2256612 0 1 1 39.221156,39.578522 A 1.1861236,1.2256612 0 1 1 41.593404,39.578522 z" opacity=".2" transform="matrix(0.843082,0,0,0.815886,-2.079403,9.751912)"/><path id="path4595" fill="#555753" fill-opacity="1" stroke="none" stroke-dasharray="none" stroke-dashoffset="0" stroke-linecap="round" stroke-linejoin="miter" stroke-miterlimit="4" stroke-opacity="1" stroke-width="1" d="M 41.593404,39.578522 A 1.1861236,1.2256612 0 1 1 39.221156,39.578522 A 1.1861236,1.2256612 0 1 1 41.593404,39.578522 z" opacity=".2" transform="matrix(0.843082,0,0,0.815886,-2.079402,6.751912)"/><path id="path4597" fill="#555753" fill-opacity="1" stroke="none" stroke-dasharray="none" stroke-dashoffset="0" stroke-linecap="round" stroke-linejoin="miter" stroke-miterlimit="4" stroke-opacity="1" stroke-width="1" d="M 41.593404,39.578522 A 1.1861236,1.2256612 0 1 1 39.221156,39.578522 A 1.1861236,1.2256612 0 1 1 41.593404,39.578522 z" opacity=".2" transform="matrix(0.843082,0,0,0.815886,-2.079397,3.75192)"/><path id="path4599" fill="#555753" fill-opacity="1" stroke="none" stroke-dasharray="none" stroke-dashoffset="0" stroke-linecap="round" stroke-linejoin="miter" stroke-miterlimit="4" stroke-opacity="1" stroke-width="1" d="M 41.593404,39.578522 A 1.1861236,1.2256612 0 1 1 39.221156,39.578522 A 1.1861236,1.2256612 0 1 1 41.593404,39.578522 z" opacity=".2" transform="matrix(0.843082,0,0,0.815886,-2.079396,0.75191)"/><path id="path4601" fill="#555753" fill-opacity="1" stroke="none" stroke-dasharray="none" stroke-dashoffset="0" stroke-linecap="round" stroke-linejoin="miter" stroke-miterlimit="4" stroke-opacity="1" stroke-width="1" d="M 41.593404,39.578522 A 1.1861236,1.2256612 0 1 1 39.221156,39.578522 A 1.1861236,1.2256612 0 1 1 41.593404,39.578522 z" opacity=".2" transform="matrix(0.843082,0,0,0.815886,-2.079408,-2.24809)"/><path id="path4603" fill="#555753" fill-opacity="1" stroke="none" stroke-dasharray="none" stroke-dashoffset="0" stroke-linecap="round" stroke-linejoin="miter" stroke-miterlimit="4" stroke-opacity="1" stroke-width="1" d="M 41.593404,39.578522 A 1.1861236,1.2256612 0 1 1 39.221156,39.578522 A 1.1861236,1.2256612 0 1 1 41.593404,39.578522 z" opacity=".2" transform="matrix(0.843082,0,0,0.815886,-2.079407,-5.248088)"/><path id="path4605" fill="#555753" fill-opacity="1" stroke="none" stroke-dasharray="none" stroke-dashoffset="0" stroke-linecap="round" stroke-linejoin="miter" stroke-miterlimit="4" stroke-opacity="1" stroke-width="1" d="M 41.593404,39.578522 A 1.1861236,1.2256612 0 1 1 39.221156,39.578522 A 1.1861236,1.2256612 0 1 1 41.593404,39.578522 z" opacity=".2" transform="matrix(0.843082,0,0,0.815886,-5.079379,9.751912)"/><path id="path4607" fill="#555753" fill-opacity="1" stroke="none" stroke-dasharray="none" stroke-dashoffset="0" stroke-linecap="round" stroke-linejoin="miter" stroke-miterlimit="4" stroke-opacity="1" stroke-width="1" d="M 41.593404,39.578522 A 1.1861236,1.2256612 0 1 1 39.221156,39.578522 A 1.1861236,1.2256612 0 1 1 41.593404,39.578522 z" opacity=".2" transform="matrix(0.843082,0,0,0.815886,-5.079379,6.751912)"/><path id="path4609" fill="#555753" fill-opacity="1" stroke="none" stroke-dasharray="none" stroke-dashoffset="0" stroke-linecap="round" stroke-linejoin="miter" stroke-miterlimit="4" stroke-opacity="1" stroke-width="1" d="M 41.593404,39.578522 A 1.1861236,1.2256612 0 1 1 39.221156,39.578522 A 1.1861236,1.2256612 0 1 1 41.593404,39.578522 z" opacity=".2" transform="matrix(0.843082,0,0,0.815886,-5.079369,3.751914)"/><path id="path4611" fill="#555753" fill-opacity="1" stroke="none" stroke-dasharray="none" stroke-dashoffset="0" stroke-linecap="round" stroke-linejoin="miter" stroke-miterlimit="4" stroke-opacity="1" stroke-width="1" d="M 41.593404,39.578522 A 1.1861236,1.2256612 0 1 1 39.221156,39.578522 A 1.1861236,1.2256612 0 1 1 41.593404,39.578522 z" opacity=".2" transform="matrix(0.843082,0,0,0.815886,-5.079369,0.751912)"/><path id="path4613" fill="#555753" fill-opacity="1" stroke="none" stroke-dasharray="none" stroke-dashoffset="0" stroke-linecap="round" stroke-linejoin="miter" stroke-miterlimit="4" stroke-opacity="1" stroke-width="1" d="M 41.593404,39.578522 A 1.1861236,1.2256612 0 1 1 39.221156,39.578522 A 1.1861236,1.2256612 0 1 1 41.593404,39.578522 z" opacity=".2" transform="matrix(0.843082,0,0,0.815886,-5.079379,-2.248088)"/><path id="path4617" fill="#555753" fill-opacity="1" stroke="none" stroke-dasharray="none" stroke-dashoffset="0" stroke-linecap="round" stroke-linejoin="miter" stroke-miterlimit="4" stroke-opacity="1" stroke-width="1" d="M 41.593404,39.578522 A 1.1861236,1.2256612 0 1 1 39.221156,39.578522 A 1.1861236,1.2256612 0 1 1 41.593404,39.578522 z" opacity=".2" transform="matrix(0.843082,0,0,0.815886,-8.079364,9.751912)"/><path id="path4619" fill="#555753" fill-opacity="1" stroke="none" stroke-dasharray="none" stroke-dashoffset="0" stroke-linecap="round" stroke-linejoin="miter" stroke-miterlimit="4" stroke-opacity="1" stroke-width="1" d="M 41.593404,39.578522 A 1.1861236,1.2256612 0 1 1 39.221156,39.578522 A 1.1861236,1.2256612 0 1 1 41.593404,39.578522 z" opacity=".2" transform="matrix(0.843082,0,0,0.815886,-8.079363,6.75191)"/><path id="path4621" fill="#555753" fill-opacity="1" stroke="none" stroke-dasharray="none" stroke-dashoffset="0" stroke-linecap="round" stroke-linejoin="miter" stroke-miterlimit="4" stroke-opacity="1" stroke-width="1" d="M 41.593404,39.578522 A 1.1861236,1.2256612 0 1 1 39.221156,39.578522 A 1.1861236,1.2256612 0 1 1 41.593404,39.578522 z" opacity=".2" transform="matrix(0.843082,0,0,0.815886,-8.079358,3.75192)"/><path id="path4623" fill="#555753" fill-opacity="1" stroke="none" stroke-dasharray="none" stroke-dashoffset="0" stroke-linecap="round" stroke-linejoin="miter" stroke-miterlimit="4" stroke-opacity="1" stroke-width="1" d="M 41.593404,39.578522 A 1.1861236,1.2256612 0 1 1 39.221156,39.578522 A 1.1861236,1.2256612 0 1 1 41.593404,39.578522 z" opacity=".2" transform="matrix(0.843082,0,0,0.815886,-8.079357,0.75191)"/><path id="path4625" fill="#555753" fill-opacity="1" stroke="none" stroke-dasharray="none" stroke-dashoffset="0" stroke-linecap="round" stroke-linejoin="miter" stroke-miterlimit="4" stroke-opacity="1" stroke-width="1" d="M 41.593404,39.578522 A 1.1861236,1.2256612 0 1 1 39.221156,39.578522 A 1.1861236,1.2256612 0 1 1 41.593404,39.578522 z" opacity=".2" transform="matrix(0.843082,0,0,0.815886,-8.079369,-2.24809)"/><path id="path4629" fill="#555753" fill-opacity="1" stroke="none" stroke-dasharray="none" stroke-dashoffset="0" stroke-linecap="round" stroke-linejoin="miter" stroke-miterlimit="4" stroke-opacity="1" stroke-width="1" d="M 41.593404,39.578522 A 1.1861236,1.2256612 0 1 1 39.221156,39.578522 A 1.1861236,1.2256612 0 1 1 41.593404,39.578522 z" opacity=".2" transform="matrix(0.843082,0,0,0.815886,-11.079391,9.751902)"/><path id="path4631" fill="#555753" fill-opacity="1" stroke="none" stroke-dasharray="none" stroke-dashoffset="0" stroke-linecap="round" stroke-linejoin="miter" stroke-miterlimit="4" stroke-opacity="1" stroke-width="1" d="M 41.593404,39.578522 A 1.1861236,1.2256612 0 1 1 39.221156,39.578522 A 1.1861236,1.2256612 0 1 1 41.593404,39.578522 z" opacity=".2" transform="matrix(0.843082,0,0,0.815886,-11.079381,6.751902)"/><path id="path4633" fill="#555753" fill-opacity="1" stroke="none" stroke-dasharray="none" stroke-dashoffset="0" stroke-linecap="round" stroke-linejoin="miter" stroke-miterlimit="4" stroke-opacity="1" stroke-width="1" d="M 41.593404,39.578522 A 1.1861236,1.2256612 0 1 1 39.221156,39.578522 A 1.1861236,1.2256612 0 1 1 41.593404,39.578522 z" opacity=".2" transform="matrix(0.843082,0,0,0.815886,-11.079381,3.751904)"/><path id="path4635" fill="#555753" fill-opacity="1" stroke="none" stroke-dasharray="none" stroke-dashoffset="0" stroke-linecap="round" stroke-linejoin="miter" stroke-miterlimit="4" stroke-opacity="1" stroke-width="1" d="M 41.593404,39.578522 A 1.1861236,1.2256612 0 1 1 39.221156,39.578522 A 1.1861236,1.2256612 0 1 1 41.593404,39.578522 z" opacity=".2" transform="matrix(0.843082,0,0,0.815886,-11.079381,0.751902)"/><path id="path4637" fill="#555753" fill-opacity="1" stroke="none" stroke-dasharray="none" stroke-dashoffset="0" stroke-linecap="round" stroke-linejoin="miter" stroke-miterlimit="4" stroke-opacity="1" stroke-width="1" d="M 41.593404,39.578522 A 1.1861236,1.2256612 0 1 1 39.221156,39.578522 A 1.1861236,1.2256612 0 1 1 41.593404,39.578522 z" opacity=".2" transform="matrix(0.843082,0,0,0.815886,-11.079391,-2.248098)"/><path id="path4641" fill="#555753" fill-opacity="1" stroke="none" stroke-dasharray="none" stroke-dashoffset="0" stroke-linecap="round" stroke-linejoin="miter" stroke-miterlimit="4" stroke-opacity="1" stroke-width="1" d="M 41.593404,39.578522 A 1.1861236,1.2256612 0 1 1 39.221156,39.578522 A 1.1861236,1.2256612 0 1 1 41.593404,39.578522 z" opacity=".2" transform="matrix(0.843082,0,0,0.815886,-14.079371,9.751902)"/><path id="path4643" fill="#555753" fill-opacity="1" stroke="none" stroke-dasharray="none" stroke-dashoffset="0" stroke-linecap="round" stroke-linejoin="miter" stroke-miterlimit="4" stroke-opacity="1" stroke-width="1" d="M 41.593404,39.578522 A 1.1861236,1.2256612 0 1 1 39.221156,39.578522 A 1.1861236,1.2256612 0 1 1 41.593404,39.578522 z" opacity=".2" transform="matrix(0.843082,0,0,0.815886,-14.079371,6.751902)"/><path id="path4645" fill="#555753" fill-opacity="1" stroke="none" stroke-dasharray="none" stroke-dashoffset="0" stroke-linecap="round" stroke-linejoin="miter" stroke-miterlimit="4" stroke-opacity="1" stroke-width="1" d="M 41.593404,39.578522 A 1.1861236,1.2256612 0 1 1 39.221156,39.578522 A 1.1861236,1.2256612 0 1 1 41.593404,39.578522 z" opacity=".2" transform="matrix(0.843082,0,0,0.815886,-14.079371,3.75191)"/><path id="path4647" fill="#555753" fill-opacity="1" stroke="none" stroke-dasharray="none" stroke-dashoffset="0" stroke-linecap="round" stroke-linejoin="miter" stroke-miterlimit="4" stroke-opacity="1" stroke-width="1" d="M 41.593404,39.578522 A 1.1861236,1.2256612 0 1 1 39.221156,39.578522 A 1.1861236,1.2256612 0 1 1 41.593404,39.578522 z" opacity=".2" transform="matrix(0.843082,0,0,0.815886,-14.079361,0.7519)"/><path id="path4653" fill="#555753" fill-opacity="1" stroke="none" stroke-dasharray="none" stroke-dashoffset="0" stroke-linecap="round" stroke-linejoin="miter" stroke-miterlimit="4" stroke-opacity="1" stroke-width="1" d="M 41.593404,39.578522 A 1.1861236,1.2256612 0 1 1 39.221156,39.578522 A 1.1861236,1.2256612 0 1 1 41.593404,39.578522 z" opacity=".2" transform="matrix(0.843082,0,0,0.815886,-17.079371,9.751912)"/><path id="path4655" fill="#555753" fill-opacity="1" stroke="none" stroke-dasharray="none" stroke-dashoffset="0" stroke-linecap="round" stroke-linejoin="miter" stroke-miterlimit="4" stroke-opacity="1" stroke-width="1" d="M 41.593404,39.578522 A 1.1861236,1.2256612 0 1 1 39.221156,39.578522 A 1.1861236,1.2256612 0 1 1 41.593404,39.578522 z" opacity=".2" transform="matrix(0.843082,0,0,0.815886,-17.079371,6.75191)"/><path id="path4657" fill="#555753" fill-opacity="1" stroke="none" stroke-dasharray="none" stroke-dashoffset="0" stroke-linecap="round" stroke-linejoin="miter" stroke-miterlimit="4" stroke-opacity="1" stroke-width="1" d="M 41.593404,39.578522 A 1.1861236,1.2256612 0 1 1 39.221156,39.578522 A 1.1861236,1.2256612 0 1 1 41.593404,39.578522 z" opacity=".2" transform="matrix(0.843082,0,0,0.815886,-17.079371,3.75191)"/><path id="path4659" fill="#555753" fill-opacity="1" stroke="none" stroke-dasharray="none" stroke-dashoffset="0" stroke-linecap="round" stroke-linejoin="miter" stroke-miterlimit="4" stroke-opacity="1" stroke-width="1" d="M 41.593404,39.578522 A 1.1861236,1.2256612 0 1 1 39.221156,39.578522 A 1.1861236,1.2256612 0 1 1 41.593404,39.578522 z" opacity=".2" transform="matrix(0.843082,0,0,0.815886,-17.079361,0.75191)"/><path id="path4665" fill="#555753" fill-opacity="1" stroke="none" stroke-dasharray="none" stroke-dashoffset="0" stroke-linecap="round" stroke-linejoin="miter" stroke-miterlimit="4" stroke-opacity="1" stroke-width="1" d="M 41.593404,39.578522 A 1.1861236,1.2256612 0 1 1 39.221156,39.578522 A 1.1861236,1.2256612 0 1 1 41.593404,39.578522 z" opacity=".2" transform="matrix(0.843082,0,0,0.815886,-20.079361,9.751912)"/><path id="path4667" fill="#555753" fill-opacity="1" stroke="none" stroke-dasharray="none" stroke-dashoffset="0" stroke-linecap="round" stroke-linejoin="miter" stroke-miterlimit="4" stroke-opacity="1" stroke-width="1" d="M 41.593404,39.578522 A 1.1861236,1.2256612 0 1 1 39.221156,39.578522 A 1.1861236,1.2256612 0 1 1 41.593404,39.578522 z" opacity=".2" transform="matrix(0.843082,0,0,0.815886,-20.079361,6.75191)"/><path id="path4669" fill="#555753" fill-opacity="1" stroke="none" stroke-dasharray="none" stroke-dashoffset="0" stroke-linecap="round" stroke-linejoin="miter" stroke-miterlimit="4" stroke-opacity="1" stroke-width="1" d="M 41.593404,39.578522 A 1.1861236,1.2256612 0 1 1 39.221156,39.578522 A 1.1861236,1.2256612 0 1 1 41.593404,39.578522 z" opacity=".2" transform="matrix(0.843082,0,0,0.815886,-20.079351,3.75192)"/><path id="path4677" fill="#555753" fill-opacity="1" stroke="none" stroke-dasharray="none" stroke-dashoffset="0" stroke-linecap="round" stroke-linejoin="miter" stroke-miterlimit="4" stroke-opacity="1" stroke-width="1" d="M 41.593404,39.578522 A 1.1861236,1.2256612 0 1 1 39.221156,39.578522 A 1.1861236,1.2256612 0 1 1 41.593404,39.578522 z" opacity=".2" transform="matrix(0.843082,0,0,0.815886,-23.079381,9.751902)"/><path id="path4679" fill="#555753" fill-opacity="1" stroke="none" stroke-dasharray="none" stroke-dashoffset="0" stroke-linecap="round" stroke-linejoin="miter" stroke-miterlimit="4" stroke-opacity="1" stroke-width="1" d="M 41.593404,39.578522 A 1.1861236,1.2256612 0 1 1 39.221156,39.578522 A 1.1861236,1.2256612 0 1 1 41.593404,39.578522 z" opacity=".2" transform="matrix(0.843082,0,0,0.815886,-23.079381,6.7519)"/><path id="path4681" fill="#555753" fill-opacity="1" stroke="none" stroke-dasharray="none" stroke-dashoffset="0" stroke-linecap="round" stroke-linejoin="miter" stroke-miterlimit="4" stroke-opacity="1" stroke-width="1" d="M 41.593404,39.578522 A 1.1861236,1.2256612 0 1 1 39.221156,39.578522 A 1.1861236,1.2256612 0 1 1 41.593404,39.578522 z" opacity=".2" transform="matrix(0.843082,0,0,0.815886,-23.079381,3.7519)"/><path id="path4689" fill="#555753" fill-opacity="1" stroke="none" stroke-dasharray="none" stroke-dashoffset="0" stroke-linecap="round" stroke-linejoin="miter" stroke-miterlimit="4" stroke-opacity="1" stroke-width="1" d="M 41.593404,39.578522 A 1.1861236,1.2256612 0 1 1 39.221156,39.578522 A 1.1861236,1.2256612 0 1 1 41.593404,39.578522 z" opacity=".2" transform="matrix(0.843082,0,0,0.815886,-26.079371,9.751902)"/><path id="path4691" fill="#555753" fill-opacity="1" stroke="none" stroke-dasharray="none" stroke-dashoffset="0" stroke-linecap="round" stroke-linejoin="miter" stroke-miterlimit="4" stroke-opacity="1" stroke-width="1" d="M 41.593404,39.578522 A 1.1861236,1.2256612 0 1 1 39.221156,39.578522 A 1.1861236,1.2256612 0 1 1 41.593404,39.578522 z" opacity=".2" transform="matrix(0.843082,0,0,0.815886,-26.079371,6.7519)"/><path id="path4693" fill="#555753" fill-opacity="1" stroke="none" stroke-dasharray="none" stroke-dashoffset="0" stroke-linecap="round" stroke-linejoin="miter" stroke-miterlimit="4" stroke-opacity="1" stroke-width="1" d="M 41.593404,39.578522 A 1.1861236,1.2256612 0 1 1 39.221156,39.578522 A 1.1861236,1.2256612 0 1 1 41.593404,39.578522 z" opacity=".2" transform="matrix(0.843082,0,0,0.815886,-26.079361,3.75191)"/><path id="path4701" fill="#555753" fill-opacity="1" stroke="none" stroke-dasharray="none" stroke-dashoffset="0" stroke-linecap="round" stroke-linejoin="miter" stroke-miterlimit="4" stroke-opacity="1" stroke-width="1" d="M 41.593404,39.578522 A 1.1861236,1.2256612 0 1 1 39.221156,39.578522 A 1.1861236,1.2256612 0 1 1 41.593404,39.578522 z" opacity=".2" transform="matrix(0.843082,0,0,0.815886,-29.079381,9.751922)"/><path id="path4703" fill="#555753" fill-opacity="1" stroke="none" stroke-dasharray="none" stroke-dashoffset="0" stroke-linecap="round" stroke-linejoin="miter" stroke-miterlimit="4" stroke-opacity="1" stroke-width="1" d="M 41.593404,39.578522 A 1.1861236,1.2256612 0 1 1 39.221156,39.578522 A 1.1861236,1.2256612 0 1 1 41.593404,39.578522 z" opacity=".2" transform="matrix(0.843082,0,0,0.815886,-29.079381,6.75192)"/><path id="path4705" fill="#555753" fill-opacity="1" stroke="none" stroke-dasharray="none" stroke-dashoffset="0" stroke-linecap="round" stroke-linejoin="miter" stroke-miterlimit="4" stroke-opacity="1" stroke-width="1" d="M 41.593404,39.578522 A 1.1861236,1.2256612 0 1 1 39.221156,39.578522 A 1.1861236,1.2256612 0 1 1 41.593404,39.578522 z" opacity=".2" transform="matrix(0.843082,0,0,0.815886,-29.079381,3.75192)"/><path id="path4725" fill="#555753" fill-opacity="1" stroke="none" stroke-dasharray="none" stroke-dashoffset="0" stroke-linecap="round" stroke-linejoin="miter" stroke-miterlimit="4" stroke-opacity="1" stroke-width="1" d="M 41.593404,39.578522 A 1.1861236,1.2256612 0 1 1 39.221156,39.578522 A 1.1861236,1.2256612 0 1 1 41.593404,39.578522 z" opacity=".2" transform="matrix(0.843082,0,0,0.815886,-29.079351,0.75192)"/><path id="path4731" fill="#babdb6" fill-opacity="1" stroke="#888a85" stroke-dasharray="none" stroke-dashoffset="0" stroke-linecap="round" stroke-linejoin="miter" stroke-miterlimit="4" stroke-opacity="1" stroke-width="1.154" d="M 43.045126,18.87604 A 2.8726213,2.8726213 0 1 1 37.299883,18.87604 A 2.8726213,2.8726213 0 1 1 43.045126,18.87604 z" opacity="1" transform="matrix(0.865857,0,0,0.867701,3.203634,1.671053)"/><path id="path4733" fill="none" fill-opacity=".833" stroke="#fff" stroke-dasharray="none" stroke-dashoffset="0" stroke-linecap="round" stroke-linejoin="miter" stroke-miterlimit="4" stroke-opacity="1" stroke-width="1.888" d="M 43.045126,18.87604 A 2.8726213,2.8726213 0 1 1 37.299883,18.87604 A 2.8726213,2.8726213 0 1 1 43.045126,18.87604 z" opacity=".425" transform="matrix(0.531927,0,0,0.527521,16.612979,8.075444)"/><rect id="rect5509" width="31" height="4" x="2.987" y="20.043" fill="#fff" fill-opacity="1" stroke="none" stroke-dasharray="none" stroke-dashoffset="0" stroke-linecap="round" stroke-linejoin="miter" stroke-miterlimit="4" stroke-opacity="0" stroke-width="1" opacity=".511"/><path id="path5511" fill="#1a1b19" fill-opacity="1" fill-rule="evenodd" stroke="none" stroke-linecap="butt" stroke-linejoin="miter" stroke-opacity="1" stroke-width="1" d="M 6.542852,20.043462 L 2.987296,24.043462 L 7.43174,24.043462 L 10.987296,20.043462 L 6.542852,20.043462 z" opacity=".581"/><path id="path5515" fill="#1a1b19" fill-opacity="1" fill-rule="evenodd" stroke="none" stroke-linecap="butt" stroke-linejoin="miter" stroke-opacity="1" stroke-width="1" d="M 15.542852,20.043462 L 11.987296,24.043462 L 16.431741,24.043462 L 19.987296,20.043462 L 15.542852,20.043462 z" opacity=".581"/><path id="path5519" fill="#1a1b19" fill-opacity="1" fill-rule="evenodd" stroke="none" stroke-linecap="butt" stroke-linejoin="miter" stroke-opacity="1" stroke-width="1" d="M 24.542852,20.043462 L 20.987296,24.043462 L 25.431741,24.043462 L 28.987296,20.043462 L 24.542852,20.043462 z" opacity=".581"/><path id="path4727" fill="none" fill-opacity="1" fill-rule="evenodd" stroke="#fff" stroke-linecap="butt" stroke-linejoin="miter" stroke-opacity="1" stroke-width="1" d="M 3.509307,20.546229 L 3.509307,42.131843 C 3.537698,43.139442 4.234616,43.616711 5.036476,43.547774 L 40.933493,43.547774 C 41.961251,43.4806 42.571011,43.005096 42.508551,42.131843 L 42.508551,14.528902 L 33.523417,14.528902 L 33.523417,20.546229 L 3.509307,20.546229 z" opacity=".8"/><g id="g14818" transform="translate(-3.7599829e-3,3.8975e-2)"><path id="path12618" fill="#555753" fill-opacity="1" stroke="#2e3436" stroke-dasharray="none" stroke-dashoffset="0" stroke-linecap="round" stroke-linejoin="miter" stroke-miterlimit="4" stroke-opacity="1" stroke-width=".716" d="M 48.131568,37.714081 A 7.869544,7.869544 0 1 1 32.39248,37.714081 A 7.869544,7.869544 0 1 1 48.131568,37.714081 z" opacity="1" transform="matrix(1.394426,0,0,1.397041,-20.64242,-17.20969)"/><path id="path12620" fill="none" fill-opacity="1" stroke="#fff" stroke-dasharray="none" stroke-dashoffset="0" stroke-linecap="round" stroke-linejoin="miter" stroke-miterlimit="4" stroke-opacity="1" stroke-width=".787" d="M 48.131568,37.714081 A 7.869544,7.869544 0 1 1 32.39248,37.714081 A 7.869544,7.869544 0 1 1 48.131568,37.714081 z" opacity=".5" transform="matrix(1.270384,0,0,1.271689,-15.62291,-12.44712)"/><text id="text14814" x="29.695" y="42.623" fill="#fff" fill-opacity="1" stroke="none" stroke-linecap="butt" stroke-linejoin="miter" stroke-opacity="1" stroke-width="1" font-family="Bitstream Vera Sans" font-size="17.771" font-stretch="normal" font-style="normal" font-variant="normal" font-weight="bold" text-anchor="start" transform="scale(0.997997,1.002007)" writing-mode="lr-tb" xml:space="preserve" style="text-align:start;line-height:125%"><tspan id="tspan14816" x="29.695" y="42.623">5</tspan></text><path id="path13352" fill="none" fill-opacity=".75" fill-rule="evenodd" stroke="#2e3436" stroke-linecap="round" stroke-linejoin="miter" stroke-opacity="1" stroke-width="1" d="M 35.5,23.444694 L 35.5,36.5 L 47.55018,36.5"/><path id="path13354" fill="#eeeeec" fill-opacity="1" fill-rule="evenodd" stroke="none" stroke-linecap="butt" stroke-linejoin="miter" stroke-opacity="1" stroke-width="1" d="M 35.967347,24.046481 L 36,36 L 47.036795,36.032654 C 47.036795,36.032654 47.401109,31.232067 43.817404,27.604479 C 40.216848,23.959833 35.967347,24.046481 35.967347,24.046481 z" opacity=".7"/><path id="path2837" fill="none" fill-opacity=".75" fill-rule="evenodd" stroke="#2e3436" stroke-linecap="round" stroke-linejoin="miter" stroke-opacity="1" stroke-width="1" d="M 35.465718,45.460137 L 35.465718,47.584386" transform="translate(3.759387e-3,-3.9361e-2)"/><path id="path2839" fill="none" fill-opacity=".75" fill-rule="evenodd" stroke="#2e3436" stroke-linecap="round" stroke-linejoin="miter" stroke-opacity="1" stroke-width="1" d="M 25.628008,36.460639 L 23.503759,36.460639"/></g></g></svg>