<svg xmlns="http://www.w3.org/2000/svg" xmlns:svg="http://www.w3.org/2000/svg" xmlns:xlink="http://www.w3.org/1999/xlink" id="svg7475" width="48" height="48"><defs id="defs7477"><linearGradient id="linearGradient5561" x1="11" x2="11" y1="17" y2="-3" gradientTransform="matrix(0.9754464,0,0,1.0602677,1.2620322,0.9029023)" gradientUnits="userSpaceOnUse" xlink:href="#linearGradient5529"/><radialGradient id="radialGradient5891" cx="24.307" cy="42.078" r="15.822" fx="24.307" fy="42.078" gradientTransform="matrix(1,0,0,0.284916,0,30.08928)" gradientUnits="userSpaceOnUse" xlink:href="#linearGradient4542"/><linearGradient id="linearGradient5529"><stop id="stop5531" offset="0" stop-color="#f0f0ee" stop-opacity="1"/><stop id="stop5533" offset="1" stop-color="#dedede" stop-opacity="1"/></linearGradient><linearGradient id="linearGradient2211" x1="11" x2="11" y1="17" y2="-3" gradientTransform="matrix(0.9754464,0,0,1.0602677,1.2620322,0.9029023)" gradientUnits="userSpaceOnUse" xlink:href="#linearGradient5529"/><linearGradient id="linearGradient4542"><stop id="stop4544" offset="0" stop-color="#000" stop-opacity="1"/><stop id="stop4546" offset="1" stop-color="#000" stop-opacity="0"/></linearGradient><radialGradient id="radialGradient2209" cx="24.307" cy="42.078" r="15.822" fx="24.307" fy="42.078" gradientTransform="matrix(1,0,0,0.284916,0,30.08928)" gradientUnits="userSpaceOnUse" xlink:href="#linearGradient4542"/><linearGradient id="linearGradient5891"><stop id="stop5893" offset="0" stop-color="#fff" stop-opacity="1"/><stop id="stop5895" offset="1" stop-color="#fff" stop-opacity="0"/></linearGradient><linearGradient id="linearGradient7384" x1="18.313" x2="22.313" y1="9.438" y2="11.625" gradientTransform="matrix(-0.7071068,-0.7071068,-0.7071068,0.7071068,55.133457,22.500234)" gradientUnits="userSpaceOnUse" xlink:href="#linearGradient5891"/><linearGradient id="linearGradient5132"><stop id="stop5134" offset="0" stop-color="#fff" stop-opacity="1"/><stop id="stop5136" offset="1" stop-color="#fff" stop-opacity="0"/></linearGradient><linearGradient id="linearGradient7382" x1="17.819" x2="19.663" y1="29.184" y2="36.954" gradientTransform="matrix(0.7071068,0.7071068,-0.7071068,0.7071068,30.694078,-19.616815)" gradientUnits="userSpaceOnUse" xlink:href="#linearGradient5132"/><linearGradient id="linearGradient8652"><stop id="stop8654" offset="0" stop-color="#fcaf3e" stop-opacity="1"/><stop id="stop8656" offset="1" stop-color="#fcaf3e" stop-opacity="0"/></linearGradient><linearGradient id="linearGradient7380" x1="37.625" x2="37.75" y1="18.875" y2="16.25" gradientUnits="userSpaceOnUse" xlink:href="#linearGradient8652"/><linearGradient id="linearGradient8660"><stop id="stop8662" offset="0" stop-color="#ce5c00" stop-opacity="1"/><stop id="stop8665" offset="1" stop-color="#ce5c00" stop-opacity="0"/></linearGradient><linearGradient id="linearGradient7378" x1="15" x2="13.25" y1="14.875" y2="22" gradientUnits="userSpaceOnUse" xlink:href="#linearGradient8660"/><linearGradient id="linearGradient8677"><stop id="stop8679" offset="0" stop-color="#fcaf3e" stop-opacity="1"/><stop id="stop8681" offset="1" stop-color="#fcaf3e" stop-opacity="0"/></linearGradient><linearGradient id="linearGradient7376" x1="18.25" x2="15.5" y1="13.591" y2="22" gradientUnits="userSpaceOnUse" xlink:href="#linearGradient8677"/></defs><metadata id="metadata7480"/><g id="layer1"><g id="g5541" transform="matrix(1.4736843,0,0,1.4736843,1.0466311,0.2631567)"><path id="path3667" fill="url(#radialGradient5891)" fill-opacity="1" fill-rule="evenodd" stroke="none" stroke-dasharray="none" stroke-dashoffset="0" stroke-linecap="round" stroke-linejoin="round" stroke-miterlimit="4" stroke-opacity="1" stroke-width="2" marker-end="none" marker-mid="none" marker-start="none" d="M 40.128309,42.07798 A 15.821514,4.5078058 0 1 1 8.485281,42.07798 A 15.821514,4.5078058 0 1 1 40.128309,42.07798 z" display="inline" opacity=".473" overflow="visible" transform="matrix(0.6004482,0,0,0.4515975,-3.0949715,1.1762591)" visibility="visible" style="marker:none"/><rect stroke-miterlimit="10.433" style="marker:none" id="rect4950" width="15.607" height="16.964" x="3.701" y="3.554" fill="url(#linearGradient5561)" fill-opacity="1" fill-rule="nonzero" stroke="#888a85" stroke-dasharray="none" stroke-dashoffset="0" stroke-linecap="butt" stroke-linejoin="miter" stroke-opacity="1" stroke-width=".679" marker-end="none" marker-mid="none" marker-start="none" display="inline" enable-background="accumulate" opacity="1" overflow="visible" rx="1.018" ry="1.018" visibility="visible"/><rect stroke-miterlimit="10.433" style="marker:none" id="rect5537" width="14.129" height="15.607" x="4.5" y="4.232" fill="none" fill-opacity="1" fill-rule="nonzero" stroke="#fff" stroke-dasharray="none" stroke-dashoffset="0" stroke-linecap="butt" stroke-linejoin="miter" stroke-opacity="1" stroke-width=".679" marker-end="none" marker-mid="none" marker-start="none" display="inline" enable-background="accumulate" opacity="1" overflow="visible" rx=".339" ry=".339" visibility="visible"/><text id="text2213" x="7.178" y="15.683" fill="#000" fill-opacity="1" stroke="none" stroke-linecap="butt" stroke-linejoin="miter" stroke-opacity="1" stroke-width="1" font-family="Bitstream Vera Sans" font-size="10.179" font-style="normal" font-weight="normal" xml:space="preserve"><tspan id="tspan2215" x="7.178" y="15.683" font-size="11.536" font-weight="bold">A</tspan></text></g><g id="g2183" transform="matrix(1.4736843,0,0,1.4736843,13.052849,13.263159)"><path id="path2185" fill="url(#radialGradient2209)" fill-opacity="1" fill-rule="evenodd" stroke="none" stroke-dasharray="none" stroke-dashoffset="0" stroke-linecap="round" stroke-linejoin="round" stroke-miterlimit="4" stroke-opacity="1" stroke-width="2" marker-end="none" marker-mid="none" marker-start="none" d="M 40.128309,42.07798 A 15.821514,4.5078058 0 1 1 8.485281,42.07798 A 15.821514,4.5078058 0 1 1 40.128309,42.07798 z" display="inline" opacity=".473" overflow="visible" transform="matrix(0.6004482,0,0,0.4515975,-3.0949715,1.1762591)" visibility="visible" style="marker:none"/><rect stroke-miterlimit="10.433" style="marker:none" id="rect2187" width="15.607" height="16.964" x="3.701" y="3.554" fill="url(#linearGradient2211)" fill-opacity="1" fill-rule="nonzero" stroke="#888a85" stroke-dasharray="none" stroke-dashoffset="0" stroke-linecap="butt" stroke-linejoin="miter" stroke-opacity="1" stroke-width=".679" marker-end="none" marker-mid="none" marker-start="none" display="inline" enable-background="accumulate" opacity="1" overflow="visible" rx="1.018" ry="1.018" visibility="visible"/><rect stroke-miterlimit="10.433" style="marker:none" id="rect2189" width="14.129" height="15.607" x="4.5" y="4.232" fill="none" fill-opacity="1" fill-rule="nonzero" stroke="#fff" stroke-dasharray="none" stroke-dashoffset="0" stroke-linecap="butt" stroke-linejoin="miter" stroke-opacity="1" stroke-width=".679" marker-end="none" marker-mid="none" marker-start="none" display="inline" enable-background="accumulate" opacity="1" overflow="visible" rx=".339" ry=".339" visibility="visible"/></g><text id="text2217" x="23.372" y="36.935" fill="#000" fill-opacity="1" stroke="none" stroke-linecap="butt" stroke-linejoin="miter" stroke-opacity="1" stroke-width="1" font-family="Bitstream Vera Sans" font-size="15" font-style="normal" font-weight="normal" xml:space="preserve"><tspan id="tspan2219" x="23.372" y="36.935" font-size="17" font-weight="bold">B</tspan></text><g id="g2652" display="inline" transform="translate(-7.5466419,-1.3201613)"><path id="path8615" fill="url(#linearGradient7376)" fill-opacity="1" fill-rule="nonzero" stroke="url(#linearGradient7378)" stroke-dasharray="none" stroke-dashoffset="0" stroke-linecap="butt" stroke-linejoin="miter" stroke-miterlimit="4" stroke-opacity="1" stroke-width="1" marker-end="none" marker-mid="none" marker-start="none" d="M 13.392155,22.327526 C 7.954579,3.5239586 28.94502,-3.8166903 40.491666,7.9524737 L 46.195536,2.2486034 L 47.623504,23.557837 L 25.829764,22.614375 C 25.829764,22.614375 32.002122,16.442017 32.002122,16.442017 C 25.05872,8.9114845 16.439626,11.156639 18.471086,21.809751 C 19.052503,24.858754 14.665496,26.730842 13.392155,22.327526 z" display="block" overflow="visible" visibility="visible" style="marker:none"/><path id="path8642" fill="url(#linearGradient7380)" fill-opacity="1" fill-rule="nonzero" stroke="#ce5c00" stroke-dasharray="none" stroke-dashoffset="0" stroke-linecap="butt" stroke-linejoin="miter" stroke-miterlimit="4" stroke-opacity="1" stroke-width="1" marker-end="none" marker-mid="none" marker-start="none" d="M 40.491666,7.9524737 L 46.195536,2.2486034 L 47.623504,23.557837 L 25.829764,22.614375 C 25.829764,22.614375 32.002122,16.442017 32.002122,16.442017" display="block" overflow="visible" visibility="visible" style="marker:none"/><g id="g8634"><path stroke-width="1" style="marker:none" id="path4247" fill="none" fill-opacity="1" fill-rule="nonzero" stroke="url(#linearGradient7382)" stroke-dashoffset="0" stroke-linecap="butt" stroke-linejoin="miter" stroke-miterlimit="4" stroke-opacity="1" marker-end="none" marker-mid="none" marker-start="none" d="M 45.366544,4.5132046 L 41.212292,8.667457 C 40.818301,9.0495217 40.192069,9.0495217 39.798078,8.667457 C 34.314383,3.0780853 26.600777,2.090692 20.993457,4.62369 C 15.386137,7.1566881 11.752297,13.047774 14.36433,22.080389 C 14.634028,23.013025 15.036149,23.481559 15.380796,23.715574 C 15.725444,23.949588 16.062922,23.977586 16.397262,23.89235 C 17.065943,23.721877 17.675407,23.038725 17.48002,22.014098 C 16.946129,19.214342 17.085513,16.880539 17.811476,15.053515 C 18.537439,13.226492 19.885075,11.933647 21.545884,11.363302 C 24.867501,10.222613 29.101076,11.804116 32.749107,15.760622 C 33.110956,16.157521 33.101273,16.767524 32.72701,17.152739 C 32.72701,17.152739 29.94518,19.934568 28.17501,21.704739 L 46.559787,22.500234 L 45.366544,4.5132046 z" display="block" opacity=".85" overflow="visible" visibility="visible"/><path id="path4920" fill="url(#linearGradient7384)" fill-opacity="1" fill-rule="evenodd" stroke="none" stroke-linecap="butt" stroke-linejoin="miter" stroke-opacity="1" stroke-width="1" d="M 46.996348,22.997374 C 36.092697,7.6672233 25.044527,4.0854071 16.427501,7.1868843 C 25.258634,-1.8617048 37.133916,4.8134958 40.484972,8.7123236 L 45.781811,3.3933879 L 46.996348,22.997374 z" opacity=".55"/></g></g></g></svg>