<svg xmlns="http://www.w3.org/2000/svg" xmlns:svg="http://www.w3.org/2000/svg" xmlns:xlink="http://www.w3.org/1999/xlink" id="svg7201" width="48" height="48"><defs id="defs7203"><linearGradient id="linearGradient6264"><stop id="stop6266" offset="0" stop-color="#fff" stop-opacity="1"/><stop id="stop6268" offset="1" stop-color="#fff" stop-opacity="0"/></linearGradient><linearGradient id="linearGradient6270" x1="25" x2="25" y1="-.051" y2="48" gradientUnits="userSpaceOnUse" xlink:href="#linearGradient6264"/><linearGradient id="linearGradient7990"><stop id="stop7992" offset="0" stop-color="#3465a4" stop-opacity="1"/><stop id="stop7994" offset="1" stop-color="#204a87" stop-opacity="1"/></linearGradient><linearGradient id="linearGradient7996" x1="20" x2="20" y1="4" y2="44" gradientUnits="userSpaceOnUse" xlink:href="#linearGradient7990"/><linearGradient id="linearGradient6252"><stop id="stop6254" offset="0" stop-color="#8fb3d9" stop-opacity="1"/><stop id="stop7998" offset=".25" stop-color="#729fcf" stop-opacity="1"/><stop id="stop8000" offset=".68" stop-color="#3465a4" stop-opacity="1"/><stop id="stop6256" offset="1" stop-color="#204a87" stop-opacity="1"/></linearGradient><radialGradient id="radialGradient8002" cx="25" cy="4.312" r="19.997" fx="25" fy="4.312" gradientTransform="matrix(1.2164839e-2,2.5850739,-3.2504984,1.5296213e-2,38.710995,-60.386923)" gradientUnits="userSpaceOnUse" xlink:href="#linearGradient6252"/><radialGradient id="radialGradient9190" cx="605.714" cy="486.648" r="117.143" fx="605.714" fy="486.648" gradientTransform="matrix(-2.774389,0,0,1.969706,112.7623,-872.8854)" gradientUnits="userSpaceOnUse" xlink:href="#linearGradient5060"/><linearGradient id="linearGradient5060"><stop id="stop5062" offset="0" stop-color="#000" stop-opacity="1"/><stop id="stop5064" offset="1" stop-color="#000" stop-opacity="0"/></linearGradient><radialGradient id="radialGradient9188" cx="605.714" cy="486.648" r="117.143" fx="605.714" fy="486.648" gradientTransform="matrix(2.774389,0,0,1.969706,-1891.633,-872.8854)" gradientUnits="userSpaceOnUse" xlink:href="#linearGradient5060"/><linearGradient id="linearGradient5048"><stop id="stop5050" offset="0" stop-color="#000" stop-opacity="0"/><stop id="stop5056" offset=".5" stop-color="#000" stop-opacity="1"/><stop id="stop5052" offset="1" stop-color="#000" stop-opacity="0"/></linearGradient><linearGradient id="linearGradient9186" x1="302.857" x2="302.857" y1="366.648" y2="609.505" gradientTransform="matrix(2.774389,0,0,1.969706,-1892.179,-872.8854)" gradientUnits="userSpaceOnUse" xlink:href="#linearGradient5048"/></defs><metadata id="metadata7206"/><g id="layer1"><g id="g13071" display="inline" transform="matrix(2.3640267e-2,0,0,2.2995369e-2,45.026494,39.46533)"><rect id="rect13073" width="1339.633" height="478.357" x="-1559.252" y="-150.697" fill="url(#linearGradient9186)" fill-opacity="1" fill-rule="nonzero" stroke="none" stroke-dasharray="none" stroke-dashoffset="0" stroke-linecap="round" stroke-linejoin="miter" stroke-miterlimit="4" stroke-opacity="1" stroke-width="1" marker-end="none" marker-mid="none" marker-start="none" display="inline" opacity=".402" overflow="visible" visibility="visible" style="marker:none"/><path id="path13075" fill="url(#radialGradient9188)" fill-opacity="1" fill-rule="nonzero" stroke="none" stroke-dasharray="none" stroke-dashoffset="0" stroke-linecap="round" stroke-linejoin="miter" stroke-miterlimit="4" stroke-opacity="1" stroke-width="1" marker-end="none" marker-mid="none" marker-start="none" d="M -219.61876,-150.68038 C -219.61876,-150.68038 -219.61876,327.65041 -219.61876,327.65041 C -76.744594,328.55086 125.78146,220.48075 125.78138,88.454235 C 125.78138,-43.572302 -33.655436,-150.68036 -219.61876,-150.68038 z" display="inline" opacity=".402" overflow="visible" visibility="visible" style="marker:none"/><path id="path13077" fill="url(#radialGradient9190)" fill-opacity="1" fill-rule="nonzero" stroke="none" stroke-dasharray="none" stroke-dashoffset="0" stroke-linecap="round" stroke-linejoin="miter" stroke-miterlimit="4" stroke-opacity="1" stroke-width="1" marker-end="none" marker-mid="none" marker-start="none" d="M -1559.2523,-150.68038 C -1559.2523,-150.68038 -1559.2523,327.65041 -1559.2523,327.65041 C -1702.1265,328.55086 -1904.6525,220.48075 -1904.6525,88.454235 C -1904.6525,-43.572302 -1745.2157,-150.68036 -1559.2523,-150.68038 z" display="inline" opacity=".402" overflow="visible" visibility="visible" style="marker:none"/></g><rect id="rect5480" width="38.994" height="39.006" x="4.499" y="4.501" fill="url(#radialGradient8002)" fill-opacity="1" fill-rule="nonzero" stroke="url(#linearGradient7996)" stroke-dasharray="none" stroke-linecap="butt" stroke-linejoin="round" stroke-miterlimit="4" stroke-opacity="1" stroke-width="1" opacity="1" rx="2.478" ry="2.49"/><path id="path8779" fill="#000" fill-opacity="1" fill-rule="nonzero" stroke="#000" stroke-dasharray="none" stroke-dashoffset="0" stroke-linecap="butt" stroke-linejoin="miter" stroke-miterlimit="4" stroke-opacity="1" stroke-width="1.033" marker-end="none" marker-mid="none" marker-start="none" d="M 8.6915676,24.41646 C 6.6999056,11.720593 22.073479,9.2835559 35.23693,16.625534 L 39.43355,12.860664 L 39.483635,25.506402 L 26.816748,25.495036 C 26.816748,25.495036 30.967323,21.362674 30.967323,21.362674 C 21.472643,14.990043 10.342213,14.965065 8.6915676,24.41646 z" display="block" opacity=".2" overflow="visible" visibility="visible" style="marker:none"/><rect id="rect6260" width="36.997" height="37.007" x="5.502" y="5.49" fill="none" fill-opacity="1" fill-rule="nonzero" stroke="url(#linearGradient6270)" stroke-dasharray="none" stroke-linecap="butt" stroke-linejoin="round" stroke-miterlimit="4" stroke-opacity="1" stroke-width="1" opacity=".5" rx="1.507" ry="1.497"/><path id="path8781" fill="#000" fill-opacity="1" fill-rule="nonzero" stroke="#000" stroke-dasharray="none" stroke-dashoffset="0" stroke-linecap="butt" stroke-linejoin="miter" stroke-miterlimit="4" stroke-opacity="1" stroke-width="1.033" marker-end="none" marker-mid="none" marker-start="none" d="M 39.308431,27.583541 C 41.300093,40.279407 25.92652,42.716445 12.76307,35.374467 L 8.5664486,39.139335 L 8.5163626,26.493598 L 21.183252,26.504965 C 21.183252,26.504965 17.032677,30.637327 17.032677,30.637327 C 26.527356,37.009957 37.657786,37.034935 39.308431,27.583541 z" display="block" opacity=".2" overflow="visible" visibility="visible" style="marker:none"/><path id="path2865" fill="#fff" fill-opacity="1" fill-rule="nonzero" stroke="#fff" stroke-dasharray="none" stroke-dashoffset="0" stroke-linecap="butt" stroke-linejoin="miter" stroke-miterlimit="4" stroke-opacity="1" stroke-width="1.031" marker-end="none" marker-mid="none" marker-start="none" d="M 21.115222,14.90855 C 21.115222,14.90855 15.43551,13.673652 16.691579,22.513285 L 9.9841196,22.513285 C 9.9841196,22.513285 10.639774,13.399267 21.115222,14.90855 z" display="block" overflow="visible" visibility="visible" style="marker:none"/><path id="path1880" fill="#fff" fill-opacity="1" fill-rule="nonzero" stroke="#fff" stroke-dasharray="none" stroke-dashoffset="0" stroke-linecap="butt" stroke-linejoin="miter" stroke-miterlimit="4" stroke-opacity="1" stroke-width="1" marker-end="none" marker-mid="none" marker-start="none" d="M 9.6644116,22.408038 C 7.7982046,9.6914919 22.203395,7.2504849 34.53768,14.604422 L 38.469954,10.83342 L 38.516885,23.499756 L 26.647885,23.488371 C 26.647885,23.488371 30.537015,19.349278 30.537015,19.349278 C 21.640407,12.966267 11.211082,12.941249 9.6644116,22.408038 z" display="block" overflow="visible" visibility="visible" style="marker:none"/><path id="path6276" fill="#fff" fill-opacity="1" fill-rule="nonzero" stroke="#fff" stroke-dasharray="none" stroke-dashoffset="0" stroke-linecap="butt" stroke-linejoin="miter" stroke-miterlimit="4" stroke-opacity="1" stroke-width="1.031" marker-end="none" marker-mid="none" marker-start="none" d="M 26.901907,33.079766 C 26.901907,33.079766 32.581619,34.314663 31.32555,25.475031 L 38.033008,25.475031 C 38.033008,25.475031 37.377355,34.589048 26.901907,33.079766 z" display="block" overflow="visible" visibility="visible" style="marker:none"/><path id="path6278" fill="#fff" fill-opacity="1" fill-rule="nonzero" stroke="#fff" stroke-dasharray="none" stroke-dashoffset="0" stroke-linecap="butt" stroke-linejoin="miter" stroke-miterlimit="4" stroke-opacity="1" stroke-width="1" marker-end="none" marker-mid="none" marker-start="none" d="M 38.352717,25.580278 C 40.218923,38.296823 25.813734,40.737831 13.479449,33.383894 L 9.5471736,37.154895 L 9.5002426,24.48856 L 21.369244,24.499945 C 21.369244,24.499945 17.480114,28.639038 17.480114,28.639038 C 26.376722,35.022048 36.806047,35.047067 38.352717,25.580278 z" display="block" overflow="visible" visibility="visible" style="marker:none"/></g></svg>