<svg xmlns="http://www.w3.org/2000/svg" xmlns:svg="http://www.w3.org/2000/svg" xmlns:xlink="http://www.w3.org/1999/xlink" id="svg12014" width="48" height="48"><defs id="defs12016"><linearGradient id="linearGradient3908"><stop id="stop3910" offset="0" stop-color="#fff" stop-opacity="1"/><stop id="stop3912" offset="1" stop-color="#fff" stop-opacity="0"/></linearGradient><linearGradient id="linearGradient10478" x1="371.313" x2="374.476" y1="192.125" y2="187.992" gradientTransform="translate(65,-49)" gradientUnits="userSpaceOnUse" xlink:href="#linearGradient3908"/><linearGradient id="linearGradient4016"><stop id="stop4018" offset="0" stop-color="#c22f2f" stop-opacity="1"/><stop id="stop4020" offset="1" stop-color="#da3f3f" stop-opacity="1"/></linearGradient><linearGradient id="linearGradient10476" x1="404" x2="404" y1="197.487" y2="186.956" gradientUnits="userSpaceOnUse" xlink:href="#linearGradient4016"/><linearGradient id="linearGradient3956"><stop id="stop3958" offset="0" stop-color="#000" stop-opacity="1"/><stop id="stop3960" offset="1" stop-color="#000" stop-opacity="0"/></linearGradient><radialGradient id="radialGradient10474" cx="378.938" cy="144.813" r="6.563" fx="378.938" fy="144.813" gradientTransform="matrix(1,0,0,0.352381,0,93.783333)" gradientUnits="userSpaceOnUse" xlink:href="#linearGradient3956"/><linearGradient id="linearGradient6317"><stop id="stop6319" offset="0" stop-color="#fff" stop-opacity="1"/><stop id="stop6321" offset="1" stop-color="#fff" stop-opacity="0"/></linearGradient><linearGradient id="linearGradient10117" x1="308.001" x2="306.25" y1="139.406" y2="139.406" gradientTransform="translate(0,15)" gradientUnits="userSpaceOnUse" xlink:href="#linearGradient6317"/><radialGradient id="radialGradient10115" cx="113.065" cy="97.588" r="2.563" fx="113.667" fy="98" gradientTransform="matrix(2.4956521,0,0,2.4956521,-223.97574,-53.226089)" gradientUnits="userSpaceOnUse" xlink:href="#XMLID_64_"/><linearGradient id="linearGradient10113" x1="113.065" x2="113.065" y1="100.662" y2="94.513" gradientTransform="matrix(2.4956521,0,0,2.4956521,-223.97574,-53.226089)" gradientUnits="userSpaceOnUse" xlink:href="#XMLID_63_"/><radialGradient id="radialGradient10111" cx="113.065" cy="97.588" r="2.563" fx="113.667" fy="98" gradientTransform="matrix(2.4956521,0,0,2.4956521,-223.97574,-53.226089)" gradientUnits="userSpaceOnUse" xlink:href="#XMLID_64_"/><linearGradient id="linearGradient10109" x1="113.065" x2="113.065" y1="100.662" y2="94.513" gradientTransform="matrix(2.4956521,0,0,2.4956521,-223.97574,-53.226089)" gradientUnits="userSpaceOnUse" xlink:href="#XMLID_63_"/><linearGradient id="linearGradient9111"><stop id="stop9113" offset="0" stop-color="#fff" stop-opacity="1"/><stop id="stop9115" offset="1" stop-color="#fff" stop-opacity="0"/></linearGradient><linearGradient id="linearGradient10107" x1="320.017" x2="320.017" y1="79.981" y2="74.421" gradientTransform="matrix(0.7408528,0,0,0.5899748,82.125517,108.60833)" gradientUnits="userSpaceOnUse" xlink:href="#linearGradient9111"/><linearGradient id="linearGradient9101"><stop id="stop9103" offset="0" stop-color="#fff" stop-opacity="1"/><stop id="stop9105" offset="1" stop-color="#fff" stop-opacity="0"/></linearGradient><linearGradient id="linearGradient10105" x1="115.948" x2="210.236" y1="186.813" y2="85.606" gradientTransform="matrix(0.1411322,0,0,0.1344437,298.65988,127.64853)" gradientUnits="userSpaceOnUse" xlink:href="#linearGradient9101"/><linearGradient id="linearGradient7691"><stop id="stop7693" offset="0" stop-color="#fff" stop-opacity="1"/><stop id="stop7695" offset="1" stop-color="#fff" stop-opacity="0"/></linearGradient><radialGradient id="radialGradient10103" cx="85.75" cy="214.083" r="14" fx="85.75" fy="214.083" gradientTransform="matrix(0.197476,6.985926e-2,-1.735727e-2,5.454285e-2,297.63035,137.63339)" gradientUnits="userSpaceOnUse" xlink:href="#linearGradient7691"/><radialGradient id="radialGradient10101" cx="127.317" cy="143.828" r="78.728" fx="127.317" fy="143.828" gradientTransform="matrix(0.1253372,-1.319058e-2,5.66516e-3,3.929349e-2,298.35127,137.10044)" gradientUnits="userSpaceOnUse" xlink:href="#linearGradient7609"/><radialGradient id="radialGradient10099" cx="230" cy="133" r="16.5" fx="230" fy="133" gradientTransform="matrix(-0.1455086,0,0,0.3358608,340.27737,101.30381)" gradientUnits="userSpaceOnUse" xlink:href="#linearGradient7665"/><linearGradient id="linearGradient7665"><stop id="stop7667" offset="0" stop-color="#fff" stop-opacity="1"/><stop id="stop7669" offset="1" stop-color="#fff" stop-opacity="0"/></linearGradient><radialGradient id="radialGradient10097" cx="230" cy="133" r="16.5" fx="230" fy="133" gradientTransform="matrix(0.1455086,0,0,0.3358608,297.76032,101.30381)" gradientUnits="userSpaceOnUse" xlink:href="#linearGradient7665"/><filter id="filter7557" width="1.219" height="1.493" x="-.109" y="-.247"><feGaussianBlur id="feGaussianBlur7559" stdDeviation="3.187"/></filter><linearGradient id="linearGradient7537"><stop id="stop7539" offset="0" stop-color="#fff" stop-opacity=".248"/><stop id="stop7561" offset=".386" stop-color="#fff" stop-opacity=".612"/><stop id="stop7541" offset="1" stop-color="#fff" stop-opacity="0"/></linearGradient><linearGradient id="linearGradient10095" x1="152" x2="222" y1="202.5" y2="202.5" gradientUnits="userSpaceOnUse" xlink:href="#linearGradient7537"/><radialGradient id="radialGradient10093" cx="43.563" cy="202.25" r="1.563" fx="43.563" fy="202.25" gradientTransform="matrix(3.16,0,0,11.28,-94.095,-2079.13)" gradientUnits="userSpaceOnUse" xlink:href="#linearGradient7507"/><filter id="filter7527" width="1.803" height="1.084" x="-.401" y="-.042"><feGaussianBlur id="feGaussianBlur7529" stdDeviation=".523"/></filter><linearGradient id="linearGradient7507"><stop id="stop7509" offset="0" stop-color="#fff" stop-opacity="1"/><stop id="stop7511" offset="1" stop-color="#fff" stop-opacity="0"/></linearGradient><radialGradient id="radialGradient10091" cx="43.563" cy="202.25" r="1.563" fx="43.563" fy="202.25" gradientTransform="matrix(3.16,0,0,11.28,-94.095,-2079.13)" gradientUnits="userSpaceOnUse" xlink:href="#linearGradient7507"/><radialGradient id="radialGradient10089" cx="113.065" cy="97.588" r="2.563" fx="113.667" fy="98" gradientTransform="matrix(2.4956521,0,0,2.4956521,-223.97574,-53.226089)" gradientUnits="userSpaceOnUse" xlink:href="#XMLID_64_"/><linearGradient id="linearGradient10087" x1="113.065" x2="113.065" y1="100.662" y2="94.513" gradientTransform="matrix(2.4956521,0,0,2.4956521,-223.97574,-53.226089)" gradientUnits="userSpaceOnUse" xlink:href="#XMLID_63_"/><radialGradient id="XMLID_64_" cx="113.065" cy="97.588" r="2.563" fx="113.667" fy="98" gradientUnits="userSpaceOnUse"><stop id="stop505" offset="0" stop-color="#eee" stop-opacity="1"/><stop id="stop507" offset=".16" stop-color="#cecece" stop-opacity="1"/><stop id="stop509" offset=".468" stop-color="#888" stop-opacity="1"/><stop id="stop511" offset="1" stop-color="#555" stop-opacity="1"/></radialGradient><radialGradient id="radialGradient10085" cx="113.065" cy="97.588" r="2.563" fx="113.667" fy="98" gradientTransform="matrix(2.4956521,0,0,2.4956521,-223.97574,-53.226089)" gradientUnits="userSpaceOnUse" xlink:href="#XMLID_64_"/><linearGradient id="XMLID_63_" x1="113.065" x2="113.065" y1="100.662" y2="94.513" gradientUnits="userSpaceOnUse"><stop id="stop496" offset="0" stop-color="#eee" stop-opacity="1"/><stop id="stop498" offset=".669" stop-color="#ddd" stop-opacity="1"/><stop id="stop500" offset="1" stop-color="#555" stop-opacity="1"/></linearGradient><linearGradient id="linearGradient10083" x1="113.065" x2="113.065" y1="100.662" y2="94.513" gradientTransform="matrix(2.4956521,0,0,2.4956521,-223.97574,-53.226089)" gradientUnits="userSpaceOnUse" xlink:href="#XMLID_63_"/><linearGradient id="linearGradient7609"><stop id="stop7611" offset="0" stop-color="#fff" stop-opacity="1"/><stop id="stop7677" offset=".47" stop-color="#e7e7e7" stop-opacity="1"/><stop id="stop7613" offset=".672" stop-color="#8c8c8c" stop-opacity="1"/><stop id="stop7617" offset=".835" stop-color="#ddd" stop-opacity="1"/><stop id="stop7615" offset="1" stop-color="#a8a8a8" stop-opacity="1"/></linearGradient><radialGradient id="radialGradient10081" cx="142.622" cy="191.854" r="78.728" fx="142.622" fy="191.854" gradientTransform="matrix(0.1054615,0,0,-6.949895e-2,304.02238,156.12866)" gradientUnits="userSpaceOnUse" xlink:href="#linearGradient7609"/><linearGradient id="linearGradient7811"><stop id="stop7813" offset="0" stop-color="#fff" stop-opacity="1"/><stop id="stop7815" offset=".47" stop-color="#e7e7e7" stop-opacity="1"/><stop id="stop7817" offset=".672" stop-color="#8c8c8c" stop-opacity="1"/><stop id="stop7819" offset=".835" stop-color="#fff" stop-opacity="1"/><stop id="stop7821" offset="1" stop-color="#a8a8a8" stop-opacity="1"/></linearGradient><radialGradient id="radialGradient10079" cx="141.747" cy="206.426" r="78.728" fx="141.747" fy="206.426" gradientTransform="matrix(0.2281317,-2.52997e-3,1.68841e-3,0.1455694,286.14674,120.76307)" gradientUnits="userSpaceOnUse" xlink:href="#linearGradient7811"/><linearGradient id="linearGradient10642"><stop id="stop10644" offset="0" stop-color="#535353" stop-opacity="1"/><stop id="stop10646" offset="1" stop-color="#babdb6" stop-opacity="1"/></linearGradient><linearGradient id="linearGradient10077" x1="312.938" x2="310.625" y1="135.625" y2="123.5" gradientTransform="translate(0,16)" gradientUnits="userSpaceOnUse" xlink:href="#linearGradient10642"/><linearGradient id="linearGradient4236"><stop id="stop4238" offset="0" stop-color="#eee" stop-opacity="1"/><stop id="stop4240" offset="1" stop-color="#eee" stop-opacity="0"/></linearGradient><linearGradient id="linearGradient10075" x1="12.277" x2="12.222" y1="37.206" y2="33.759" gradientTransform="matrix(5.0962816,0,0,5.0962816,21.323205,37.043678)" gradientUnits="userSpaceOnUse" xlink:href="#linearGradient4236"/><linearGradient id="linearGradient6309"><stop id="stop6311" offset="0" stop-color="#000" stop-opacity="1"/><stop id="stop6313" offset="1" stop-color="#bbb" stop-opacity="0"/></linearGradient><linearGradient id="linearGradient10073" x1="7.063" x2="24.688" y1="35.281" y2="35.281" gradientTransform="matrix(5.0962816,0,0,5.0962816,25.377261,30.286921)" gradientUnits="userSpaceOnUse" xlink:href="#linearGradient6309"/><linearGradient id="linearGradient7497"><stop id="stop7499" offset="0" stop-color="#fff" stop-opacity="1"/><stop id="stop7501" offset="1" stop-color="#fff" stop-opacity="0"/></linearGradient><radialGradient id="radialGradient10071" cx="150.179" cy="301.802" r="106.185" fx="150.179" fy="301.802" gradientTransform="matrix(0.1444222,1.488283e-2,-9.59234e-3,6.545833e-2,301.08504,129.85787)" gradientUnits="userSpaceOnUse" xlink:href="#linearGradient7497"/><linearGradient id="linearGradient4244"><stop id="stop4246" offset="0" stop-color="#efefef" stop-opacity="1"/><stop id="stop7563" offset=".695" stop-color="#bcbcbc" stop-opacity="1"/><stop id="stop4248" offset="1" stop-color="#e4e4e4" stop-opacity="1"/></linearGradient><radialGradient id="radialGradient10069" cx="15.571" cy="2.959" r="20.936" fx="15.571" fy="2.959" gradientTransform="matrix(0.9538164,0.5302415,-0.5270824,0.7933306,299.38374,130.29677)" gradientUnits="userSpaceOnUse" xlink:href="#linearGradient4244"/><linearGradient id="linearGradient4120"><stop id="stop4122" offset="0" stop-color="#555753" stop-opacity="1"/><stop id="stop4124" offset="1" stop-color="#2e3436" stop-opacity="1"/></linearGradient><linearGradient id="linearGradient10067" x1="7.605" x2="36.183" y1="28.481" y2="40.944" gradientTransform="matrix(0.7415528,0,0,0.4946417,301.12961,138.17664)" gradientUnits="userSpaceOnUse" xlink:href="#linearGradient4120"/><filter id="filter7633" width="1.106" height="1.204" x="-.053" y="-.102"><feGaussianBlur id="feGaussianBlur7635" stdDeviation="4.675"/></filter><filter id="filter7655" width="1.205" height="1.393" x="-.103" y="-.197"><feGaussianBlur id="feGaussianBlur7657" stdDeviation="9.014"/></filter><linearGradient id="linearGradient6028"><stop id="stop6030" offset="0" stop-color="#fff" stop-opacity="1"/><stop id="stop6032" offset="1" stop-color="#fff" stop-opacity="0"/></linearGradient><linearGradient id="linearGradient3515" x1="28.703" x2="17.743" y1="31.495" y2="18.367" gradientUnits="userSpaceOnUse" xlink:href="#linearGradient6028"/><linearGradient id="linearGradient6036"><stop id="stop6038" offset="0" stop-color="#fff" stop-opacity="1"/><stop id="stop6040" offset="1" stop-color="#fff" stop-opacity="0"/></linearGradient><linearGradient id="linearGradient3519" x1="10.502" x2="48.799" y1="3.61" y2="54.698" gradientTransform="translate(-8.4107544e-2,-1.3333311)" gradientUnits="userSpaceOnUse" xlink:href="#linearGradient6036"/><linearGradient id="linearGradient4409"><stop id="stop4411" offset="0" stop-color="#fff" stop-opacity="1"/><stop id="stop4413" offset="1" stop-color="#fff" stop-opacity="0"/></linearGradient><linearGradient id="linearGradient4415" x1="25.986" x2="15.889" y1="24.92" y2="11.67" gradientTransform="translate(0.5004125,-0.3535611)" gradientUnits="userSpaceOnUse" xlink:href="#linearGradient4409"/><linearGradient id="aigrd2" x1="12.274" x2="35.391" y1="32.416" y2="14.203" gradientUnits="userSpaceOnUse"><stop id="stop3043" offset="0" stop-color="#FBFBFB"/><stop id="stop3045" offset=".5" stop-color="#B6B6B6"/><stop id="stop3047" offset="1" stop-color="#E4E4E4"/></linearGradient><linearGradient id="linearGradient3523" x1="12.274" x2="35.391" y1="32.416" y2="14.203" gradientTransform="matrix(1.190476,0,0,1.190476,-4.3085315,-3.8333321)" gradientUnits="userSpaceOnUse" xlink:href="#aigrd2"/><linearGradient id="aigrd1" x1="14.997" x2="32.511" y1="11.188" y2="34.307" gradientUnits="userSpaceOnUse"><stop id="stop3034" offset="0" stop-color="#EBEBEB"/><stop id="stop3036" offset=".5" stop-color="#FFF"/><stop id="stop3038" offset="1" stop-color="#EBEBEB"/></linearGradient><linearGradient id="linearGradient3526" x1="14.997" x2="32.511" y1="11.188" y2="34.307" gradientTransform="matrix(1.190476,0,0,1.190476,-4.3085315,-3.8333311)" gradientUnits="userSpaceOnUse" xlink:href="#aigrd1"/><linearGradient id="linearGradient23419"><stop id="stop23421" offset="0" stop-color="#000" stop-opacity="1"/><stop id="stop23423" offset="1" stop-color="#000" stop-opacity="0"/></linearGradient><radialGradient id="radialGradient3507" cx="23.335" cy="41.636" r="22.627" fx="23.335" fy="41.636" gradientTransform="matrix(1,0,0,0.25,0,31.22703)" gradientUnits="userSpaceOnUse" xlink:href="#linearGradient23419"/></defs><metadata id="metadata12019"/><g id="layer1"><path id="path23417" fill="url(#radialGradient3507)" fill-opacity="1" fill-rule="evenodd" stroke="none" stroke-dasharray="none" stroke-dashoffset="0" stroke-linecap="butt" stroke-linejoin="miter" stroke-miterlimit="4" stroke-opacity="1" stroke-width="2" marker-end="none" marker-mid="none" marker-start="none" d="M 45.961941,41.63604 A 22.627417,5.6568542 0 1 1 0.70710754,41.63604 A 22.627417,5.6568542 0 1 1 45.961941,41.63604 z" display="inline" opacity=".55" overflow="visible" transform="matrix(1,0,0,1.066291,0.9158925,-4.2184371)" visibility="visible" style="marker:none"/><path id="path3040" fill="url(#linearGradient3526)" fill-rule="nonzero" stroke="none" stroke-miterlimit="4" d="M 24.262898,2.8333354 C 12.715278,2.8333354 3.4295645,12.11905 3.4295645,23.666669 C 3.4295645,35.214289 12.715278,44.500004 24.262898,44.500004 C 35.810518,44.500004 45.096233,35.214289 45.096233,23.666669 C 45.096233,12.11905 35.810518,2.8333354 24.262898,2.8333354 L 24.262898,2.8333354 z M 24.262898,28.66667 C 21.524803,28.66667 19.262898,26.404765 19.262898,23.666669 C 19.262898,20.928574 21.524803,18.666669 24.262898,18.666669 C 27.000993,18.666669 29.262898,20.928574 29.262898,23.666669 C 29.262898,26.404765 27.000993,28.66667 24.262898,28.66667 z"/><path id="path3049" fill="url(#linearGradient3523)" fill-rule="nonzero" stroke="gray" stroke-miterlimit="4" stroke-opacity="1" d="M 24.262898,2.833335 C 12.715278,2.833335 3.4295645,12.11905 3.4295645,23.666669 C 3.4295645,35.214289 12.715278,44.500004 24.262898,44.500004 C 35.810518,44.500004 45.096233,35.214289 45.096233,23.666669 C 45.096233,12.11905 35.810518,2.833335 24.262898,2.833335 L 24.262898,2.833335 z M 24.262898,28.66667 C 21.524803,28.66667 19.262898,26.404765 19.262898,23.666669 C 19.262898,20.928574 21.524803,18.666669 24.262898,18.666669 C 27.000993,18.666669 29.262898,20.928574 29.262898,23.666669 C 29.262898,26.404765 27.000993,28.66667 24.262898,28.66667 z"/><path id="path3531" fill="url(#linearGradient4415)" fill-opacity="1" fill-rule="nonzero" stroke="none" stroke-miterlimit="4" stroke-opacity="1" d="M 23.41095,3.4587744 C 12.649259,3.8646849 4.1113405,12.676127 4.1113405,23.541209 C 4.1113405,28.466714 5.8584635,32.943599 8.7781725,36.427689 L 19.895525,27.017395 C 19.174184,26.174054 18.84629,24.974227 18.84629,23.791209 C 18.84629,20.400819 21.150579,18.223834 24.413665,18.223834 C 25.89759,18.223834 27.384752,18.897261 28.272131,19.970132 L 39.639484,10.684838 C 35.964313,6.2606838 30.395209,3.4587744 24.163665,3.4587744 C 23.902904,3.4587744 23.669231,3.4490325 23.41095,3.4587744 z"/><path id="path3051" fill="#eeeeec" fill-rule="nonzero" stroke="none" stroke-miterlimit="4" d="M 24.262898,13.562504 C 18.620312,13.562504 14.158732,18.155307 14.158732,23.666669 C 14.158732,29.309257 18.751536,33.770835 24.262898,33.770835 C 29.905484,33.770835 34.367064,29.178033 34.367064,23.666669 C 34.367064,18.024083 29.77426,13.562504 24.262898,13.562504 L 24.262898,13.562504 z M 24.262898,29.178033 C 21.244771,29.178033 18.751536,26.684798 18.751536,23.666669 C 18.751536,20.648542 21.244771,18.155307 24.262898,18.155307 C 27.281025,18.155307 29.77426,20.648542 29.77426,23.666669 C 29.77426,26.684798 27.281025,29.178033 24.262898,29.178033 z" opacity=".511"/><path id="path5264" fill="none" fill-rule="nonzero" stroke="url(#linearGradient3519)" stroke-miterlimit="4" stroke-opacity="1" d="M 24.262894,3.869034 C 13.28935,3.869034 4.4652635,12.693123 4.4652635,23.666666 C 4.4652635,34.64021 13.28935,43.464297 24.262894,43.464297 C 35.236438,43.464297 44.060525,34.64021 44.060525,23.666666 C 44.060525,12.693123 35.236438,3.869034 24.262894,3.869034 L 24.262894,3.869034 z" opacity=".546"/><path id="path6026" fill="none" fill-opacity=".316" fill-rule="nonzero" stroke="url(#linearGradient3515)" stroke-dashoffset="0" stroke-linecap="butt" stroke-linejoin="miter" stroke-miterlimit="4" stroke-opacity="1" stroke-width=".931" marker-end="none" marker-mid="none" marker-start="none" d="M 30.405591,24.930641 A 6.0987959,6.0987959 0 1 1 18.207999,24.930641 A 6.0987959,6.0987959 0 1 1 30.405591,24.930641 z" display="inline" opacity=".672" overflow="visible" transform="translate(4.2804561e-3,-1.2449421)" visibility="visible" style="marker:none"/><g id="g2963" display="inline" transform="translate(-287.9997,-110.99972)"><g id="g9132" opacity=".896" transform="matrix(0.1455086,0,0,0.1534164,306.75742,123.5987)"><path id="path9134" fill="#000" fill-opacity="1" fill-rule="nonzero" stroke="none" stroke-width="1" d="M 75,113 L 40,213 L 48,221 L 243,221 L 251,212 L 209,111 L 75,113 z" display="inline" enable-background="accumulate" filter="url(#filter7655)" opacity=".554" overflow="visible" transform="matrix(1.0379147,0,0,1,-65.516588,0)" visibility="visible" style="marker:none"/><path id="path9136" fill="#000" fill-opacity="1" fill-rule="nonzero" stroke="none" stroke-width="1" d="M 15,106.48179 L -20,206.48179 L -12,214.48179 L 183,214.48179 L 191,205.48179 L 149,104.48179 L 15,106.48179 L 15,106.48179 z" display="inline" enable-background="accumulate" filter="url(#filter7633)" overflow="visible" visibility="visible" style="marker:none"/></g><path id="path9138" fill="url(#linearGradient10067)" fill-opacity="1" fill-rule="evenodd" stroke="none" d="M 303.55715,151.53039 L 304.12414,151.18799 L 332.01371,151.21889 L 334.58127,151.37583 L 334.58127,155.53917 C 334.58127,156.09592 334.13114,156.45095 333.40081,156.45095 L 304.78949,156.45095 C 304.04908,156.45095 303.55715,156.18283 303.55715,155.64733 L 303.55715,151.53037 L 303.55715,151.53039 z"/><path id="path9140" fill="url(#radialGradient10069)" fill-opacity="1" fill-rule="evenodd" stroke="none" d="M 303.76144,151.18311 C 303.23176,152.17637 303.76099,152.80623 304.52948,152.80623 C 304.52948,152.80623 333.45004,152.80623 333.45004,152.80623 C 334.27987,152.79003 334.81838,152.11984 334.5094,151.35269 L 329.5304,139.67832 C 329.39357,139.33109 329.04486,139.00808 328.68291,139 L 309.50848,139 C 309.04501,139 308.74044,139.20592 308.55505,139.58142 C 308.55505,139.58142 303.76144,151.18311 303.76144,151.18311 L 303.76144,151.18311 z"/><path id="path9142" fill="url(#radialGradient10071)" fill-opacity="1" fill-rule="evenodd" stroke="none" d="M 334.34833,149.90515 C 334.39543,150.68245 334.04132,151.34526 333.36791,151.36262 C 333.36791,151.36262 305.10087,151.36261 305.10087,151.36262 C 304.14484,151.36262 303.71584,151.16055 303.55544,150.82281 C 303.62344,151.41005 304.16782,151.84844 305.10087,151.84844 C 305.10087,151.84844 333.36791,151.84844 333.36791,151.84844 C 334.16583,151.82784 334.66771,150.9629 334.37061,149.98612 L 334.34831,149.90512 L 334.34833,149.90515 z"/><g id="g9144" transform="matrix(0.1455086,0,0,0.1534164,299.09819,121.82193)"><rect id="rect9146" width="89.822" height="28.348" x="61.37" y="195.916" fill="url(#linearGradient10073)" fill-opacity="1" fill-rule="evenodd" stroke="none" stroke-width="2.409" display="inline" overflow="visible" visibility="visible" style="marker:none"/><path id="path9148" fill="url(#linearGradient10075)" fill-opacity="1" fill-rule="evenodd" stroke="none" d="M 61.369759,224.26414 C 61.369759,224.26414 61.369759,203.82049 61.369759,203.82049 C 70.724123,220.02272 103.65101,224.26414 127.30289,224.26414 C 127.30289,224.26414 61.369759,224.26414 61.369759,224.26414 z" opacity=".811"/><path id="path9150" fill="#fff" fill-opacity="1" fill-rule="evenodd" stroke="none" d="M 61.456423,195.98396 L 61.456423,224.17277 L 125.47846,224.17277 L 63.208269,222.42092 L 61.456423,195.98396 L 61.456423,195.98396 z" opacity=".44"/></g><path id="path9152" fill="none" stroke="url(#linearGradient10077)" stroke-dasharray="none" stroke-linecap="round" stroke-linejoin="round" stroke-miterlimit="4" stroke-opacity="1" stroke-width="1" d="M 309.49854,138.5 C 309.03507,138.5 308.73382,138.71766 308.54843,139.13287 C 308.54843,139.13287 303.75151,151.96168 303.75151,151.96168 C 303.75151,151.96168 303.56612,152.46539 303.56612,153.29773 C 303.56612,153.29773 303.56612,155.23204 303.56612,155.23204 C 303.56612,156.04407 304.05391,156.4509 304.79432,156.45089 L 333.39045,156.45089 C 334.12077,156.45089 334.5723,155.91221 334.5723,155.06796 L 334.5723,153.13365 C 334.5723,153.13365 334.6509,152.55578 334.5028,152.14919 L 329.52049,139.25008 C 329.38366,138.86611 329.04819,138.50893 328.68624,138.5 L 309.49856,138.5 L 309.49854,138.5 z" clip-path="none"/><path id="path9154" fill="url(#radialGradient10079)" fill-opacity="1" d="M 330.26392,146.23778 C 330.12268,145.23172 329.17616,144.2724 327.60349,143.51541 C 327.57189,143.22443 327.16874,139.50211 327.16874,139.50211 C 327.13788,139.21596 326.66801,139 326.07546,139 L 322.35689,139 C 321.76007,139 321.29873,139.21881 321.28368,139.50893 C 321.21548,140.81975 319.13477,141.50414 316.03106,142.12674 C 314.94356,142.27293 312.10828,142.96017 311.45753,143.2618 C 309.54192,144.05417 308.39948,145.11052 308.24118,146.23778 C 308.09719,147.26302 308.78933,148.28896 310.19016,149.12666 C 312.24048,150.3528 315.62817,151.08493 319.25242,151.08493 C 322.87668,151.08493 326.26436,150.3528 328.31494,149.12666 C 329.59435,148.36172 330.28248,147.43948 330.28248,146.50432 C 330.28248,146.41552 330.27548,146.32658 330.26388,146.23778 L 330.26392,146.23778 z M 319.25242,150.16685 C 313.2161,150.16685 308.5939,148.52183 308.92831,146.14017 C 309.07255,145.11337 310.13146,144.01723 311.88501,143.29491 C 312.21339,143.10282 315.17912,142.35562 316.24304,142.22434 C 319.19172,141.63414 321.88827,140.86819 321.97281,139.25405 C 321.97681,139.17675 322.14641,139.11552 322.35689,139.11552 L 326.07496,139.11552 C 326.29021,139.11552 326.47183,139.17972 326.48036,139.25902 L 326.93192,143.42931 C 328.49481,144.13218 329.44183,145.18128 329.57629,146.14017 C 329.91095,148.52183 325.28875,150.16685 319.25242,150.16685 L 319.25242,150.16685 z"/><path id="path9156" fill="url(#radialGradient10081)" fill-opacity="1" fill-rule="nonzero" stroke-dasharray="none" stroke-dashoffset="0" stroke-linecap="butt" stroke-linejoin="miter" stroke-miterlimit="4" stroke-opacity="1" stroke-width="1" d="M 319.48128,147.06624 C 317.56255,147.06624 316.09165,146.39268 316.06064,145.49927 C 316.0604,145.48927 316.06016,145.48007 316.06016,145.47067 C 316.06016,145.14738 316.25295,144.83992 316.61929,144.57959 C 317.23899,144.13954 318.30894,143.87688 319.48152,143.87688 C 320.65387,143.87688 321.72381,144.13954 322.34351,144.57959 C 322.72067,144.84724 322.91394,145.16537 322.90216,145.49915 C 322.87066,146.39257 321.39977,147.06629 319.48128,147.06629 L 319.48128,147.06624 z M 319.53858,144.87667 C 317.73571,144.87667 316.75994,145.04423 316.78158,145.65367 C 316.80248,146.25361 318.01113,146.73296 319.48131,146.73296 C 320.95149,146.73296 322.16013,146.25344 322.18104,145.65367 C 322.20244,145.04407 321.34145,144.87667 319.53858,144.87667 L 319.53858,144.87667 z" display="inline" enable-background="accumulate" overflow="visible" visibility="visible" style="marker:none"/><g id="g9164" transform="matrix(6.707933e-2,0,0,4.653275e-2,306.0335,130.62253)"><path id="path9166" fill="url(#linearGradient10083)" d="M 48.2999,190.27968 C 48.61436,194.52728 53.32365,197.99124 58.81409,197.99124 C 64.30203,197.99124 68.45729,194.52728 68.09043,190.27968 C 67.72606,186.05454 63.01926,182.64298 57.58373,182.64298 C 52.1457,182.64498 47.99044,186.05454 48.2999,190.27968 z"/><path id="path9168" fill="url(#radialGradient10085)" d="M 51.85122,187.29238 C 51.34959,187.83144 50.77559,188.69494 50.77559,189.84294 C 50.77559,189.92534 50.78059,190.00765 50.78559,190.095 C 51.00272,193.0224 54.67881,195.49559 58.81161,195.49559 C 61.16501,195.49559 63.31626,194.6845 64.56409,193.32188 C 65.10065,192.74039 65.71209,191.77707 65.60228,190.4943 C 65.35022,187.59186 61.67912,185.13863 57.58125,185.13863 C 55.24532,185.14063 53.10156,185.94473 51.85124,187.29238 L 51.85122,187.29238 z"/></g><g id="g9170" transform="matrix(6.707933e-2,0,0,4.653275e-2,324.39494,130.62253)"><path id="path9172" fill="url(#linearGradient10087)" d="M 48.2999,190.27968 C 48.61436,194.52728 53.32365,197.99124 58.81409,197.99124 C 64.30203,197.99124 68.45729,194.52728 68.09043,190.27968 C 67.72606,186.05454 63.01926,182.64298 57.58373,182.64298 C 52.1457,182.64498 47.99044,186.05454 48.2999,190.27968 z"/><path id="path9174" fill="url(#radialGradient10089)" d="M 51.85122,187.29238 C 51.34959,187.83144 50.77559,188.69494 50.77559,189.84294 C 50.77559,189.92534 50.78059,190.00765 50.78559,190.095 C 51.00272,193.0224 54.67881,195.49559 58.81161,195.49559 C 61.16501,195.49559 63.31626,194.6845 64.56409,193.32188 C 65.10065,192.74039 65.71209,191.77707 65.60228,190.4943 C 65.35022,187.59186 61.67912,185.13863 57.58125,185.13863 C 55.24532,185.14063 53.10156,185.94473 51.85124,187.29238 L 51.85122,187.29238 z"/></g><path id="path9176" fill="url(#radialGradient10091)" fill-opacity="1" fill-rule="nonzero" stroke="none" stroke-width="1.54" d="M 42.5,187.25 L 42,215.5 L 45.125,217.25 L 45.125,187.25 L 42.5,187.25 z" display="inline" enable-background="accumulate" filter="url(#filter7527)" opacity=".496" overflow="visible" transform="matrix(0.3455086,0,0,0.1534164,289.9394,122.59303)" visibility="visible" style="marker:none"/><path id="path9178" fill="url(#radialGradient10093)" fill-opacity="1" fill-rule="nonzero" stroke="none" stroke-width="1.54" d="M 42.5,187.25 L 42,215.5 L 45.125,217.25 L 45.125,187.25 L 42.5,187.25 z" display="inline" enable-background="accumulate" filter="url(#filter7527)" overflow="visible" transform="matrix(-9.894585e-2,0,0,0.1534164,338.3597,122.90553)" visibility="visible" style="marker:none"/><path id="path9180" fill="url(#linearGradient10095)" fill-opacity="1" fill-rule="nonzero" stroke="none" stroke-width="1.54" d="M 161.5,187 L 152,218 L 208,218 L 222,187 L 161.5,187 z" display="inline" enable-background="accumulate" filter="url(#filter7557)" opacity=".678" overflow="visible" transform="matrix(-0.1455086,0,0,0.1413196,348.64825,124.54263)" visibility="visible" style="marker:none"/><path stroke-opacity="1" style="marker:none" id="path9182" fill="none" stroke="url(#radialGradient10097)" stroke-dasharray="none" stroke-dashoffset="0" stroke-linecap="butt" stroke-linejoin="miter" stroke-miterlimit="4" stroke-width="1" d="M 328.89916,140.5 L 333.55543,151.44657" display="inline" enable-background="accumulate" opacity=".896" overflow="visible" visibility="visible"/><path id="path9184" fill="none" stroke="url(#radialGradient10099)" stroke-dasharray="none" stroke-dashoffset="0" stroke-linecap="butt" stroke-linejoin="miter" stroke-miterlimit="4" stroke-opacity="1" stroke-width="1" d="M 309.13853,140.5 L 304.48225,151.44657" display="inline" enable-background="accumulate" opacity=".896" overflow="visible" visibility="visible" style="marker:none"/><path id="path9186" fill="url(#radialGradient10101)" fill-opacity="1" fill-rule="nonzero" stroke="none" stroke-width="1" d="M 310.62704,139 L 310.55884,139.16705 L 309.54028,141.65342 L 309.36749,142.0691 L 309.87222,141.9798 L 318.45723,140.42582 L 318.48453,140.41782 L 318.50723,140.40982 C 318.96184,140.25446 319.20476,139.94049 319.26205,139.65226 C 319.29065,139.50814 319.28215,139.36702 319.20745,139.23657 C 319.13695,139.11342 318.95357,139.00385 318.76183,139.00735 L 318.76183,138.99935 L 318.73003,138.99935 L 310.83164,138.99935 L 310.62702,138.99935 L 310.62704,139 z M 310.91761,139.15361 L 318.82993,139.15361 C 318.83393,139.17461 318.84253,139.18621 318.83493,139.22601 C 318.81013,139.35098 318.70333,139.79805 318.43508,139.89557 L 310.11351,141.40272 L 310.91791,139.15366 L 310.91761,139.15361 z" display="inline" enable-background="accumulate" overflow="visible" visibility="visible" style="marker:none"/><path id="path9188" fill="url(#radialGradient10103)" fill-opacity="1" fill-rule="nonzero" stroke="none" stroke-width="1" d="M 309.02915,154.18827 C 309.88831,155.15978 311.13118,155.79709 313.1034,155.79915 C 311.24125,155.43934 309.87276,154.90604 309.02915,154.18827 z" display="inline" enable-background="accumulate" opacity=".554" overflow="visible" visibility="visible" style="marker:none"/><path id="path9196" fill="none" stroke="url(#linearGradient10105)" stroke-dasharray="none" stroke-linecap="butt" stroke-linejoin="miter" stroke-miterlimit="4" stroke-opacity="1" stroke-width="1" d="M 305.15825,150.90291 C 304.67689,151.83255 305.15784,152.42209 305.85622,152.42209 C 305.85622,152.42209 332.13841,152.42209 332.13841,152.42209 C 332.89254,152.40699 333.38192,151.77964 333.10113,151.06163 L 328.66617,140.13489 C 328.54182,139.80989 328.22493,139.50757 327.896,139.50001 L 310.29117,139.50001 C 309.86998,139.50001 309.5932,139.69274 309.42473,140.0442 C 309.42473,140.0442 305.15825,150.90291 305.15825,150.90291 z"/><path stroke-opacity="1" style="marker:none" id="path9198" fill="none" stroke="url(#linearGradient10107)" stroke-dasharray="none" stroke-dashoffset="0" stroke-linecap="butt" stroke-linejoin="miter" stroke-miterlimit="4" stroke-width="1" d="M 304.38135,151.82398 L 304.38135,154.92064 C 304.38135,155.36389 304.66662,155.49426 305.0943,155.49426 L 333.44833,155.49426 C 333.84122,155.54646 334.07041,155.23353 334.03768,154.94672 L 333.84122,152.05257" display="inline" enable-background="accumulate" opacity=".327" overflow="visible" visibility="visible"/><path id="path9200" fill="#fff" fill-opacity="1" fill-rule="nonzero" stroke="none" stroke-width="1" d="M 321.59768,139 L 327,139 L 327,139.81492 L 323.10379,139.81492 C 321.24844,141.02547 319.3931,141.52192 317.53776,141.64848 C 319.06168,140.86297 321.63485,140.67594 321.59768,139 L 321.59768,139 z" display="inline" enable-background="accumulate" opacity=".421" overflow="visible" visibility="visible" style="marker:none"/><rect id="rect9202" width="8.906" height=".815" x="310.235" y="138.793" fill="#fff" fill-opacity="1" fill-rule="nonzero" stroke="none" stroke-width="1" display="inline" enable-background="accumulate" opacity=".312" overflow="visible" visibility="visible" style="marker:none"/><g id="g9158" transform="matrix(-9.781119e-2,0,0,0.1076727,311.42378,131.52117)"><path id="path9160" fill="url(#linearGradient10109)" d="M 48.2999,190.27968 C 48.61436,194.52728 53.32365,197.99124 58.81409,197.99124 C 64.30203,197.99124 68.45729,194.52728 68.09043,190.27968 C 67.72606,186.05454 63.01926,182.64298 57.58373,182.64298 C 52.1457,182.64498 47.99044,186.05454 48.2999,190.27968 z"/><path id="path9162" fill="url(#radialGradient10111)" d="M 51.85122,187.29238 C 51.34959,187.83144 50.77559,188.69494 50.77559,189.84294 C 50.77559,189.92534 50.78059,190.00765 50.78559,190.095 C 51.00272,193.0224 54.67881,195.49559 58.81161,195.49559 C 61.16501,195.49559 63.31626,194.6845 64.56409,193.32188 C 65.10065,192.74039 65.71209,191.77707 65.60228,190.4943 C 65.35022,187.59186 61.67912,185.13863 57.58125,185.13863 C 55.24532,185.14063 53.10156,185.94473 51.85124,187.29238 L 51.85122,187.29238 z"/></g><g id="g9190" transform="matrix(9.781119e-2,0,0,0.1076727,326.69037,131.52117)"><path id="path9192" fill="url(#linearGradient10113)" d="M 48.2999,190.27968 C 48.61436,194.52728 53.32365,197.99124 58.81409,197.99124 C 64.30203,197.99124 68.45729,194.52728 68.09043,190.27968 C 67.72606,186.05454 63.01926,182.64298 57.58373,182.64298 C 52.1457,182.64498 47.99044,186.05454 48.2999,190.27968 z"/><path id="path9194" fill="url(#radialGradient10115)" d="M 51.85122,187.29238 C 51.34959,187.83144 50.77559,188.69494 50.77559,189.84294 C 50.77559,189.92534 50.78059,190.00765 50.78559,190.095 C 51.00272,193.0224 54.67881,195.49559 58.81161,195.49559 C 61.16501,195.49559 63.31626,194.6845 64.56409,193.32188 C 65.10065,192.74039 65.71209,191.77707 65.60228,190.4943 C 65.35022,187.59186 61.67912,185.13863 57.58125,185.13863 C 55.24532,185.14063 53.10156,185.94473 51.85124,187.29238 L 51.85122,187.29238 z"/></g><rect id="rect6315" width="1.969" height="4.031" x="306.031" y="151.969" fill="url(#linearGradient10117)" fill-opacity="1" stroke="none" opacity=".496"/></g><g id="g4393" display="inline" transform="translate(-407.99974,-116.00001)"><path id="path4000" fill="url(#radialGradient10474)" fill-opacity="1" stroke="none" d="M 385.5,144.8125 A 6.5625,2.3125 0 1 1 372.375,144.8125 A 6.5625,2.3125 0 1 1 385.5,144.8125 z" display="inline" enable-background="new" opacity=".261" transform="matrix(1.268698,0,0,1.2721912,-41.75726,-34.171121)"/><g id="g3964" display="inline" transform="translate(35,-49)"><path id="path3966" fill="url(#linearGradient10476)" fill-opacity="1" stroke="#a40000" stroke-dasharray="none" stroke-linejoin="round" stroke-miterlimit="4" stroke-opacity="1" stroke-width="1" d="M 401.5,185.5 L 401.5,190.5 L 396.53125,190.5 L 396.49995,191.96875 L 404.0312,199.5 L 411.49995,192 L 411.49995,190.5 L 406.49995,190.5 L 406.49995,185.5 L 401.49995,185.5 L 401.5,185.5 z" display="inline" enable-background="new"/><path id="path3970" fill="url(#linearGradient10478)" fill-opacity="1" stroke="none" d="M 437.03125,137 L 436.99995,137 L 437.01555,141.44531 C 437.01552,141.72144 436.80731,141.99997 436.53118,142 L 432.03118,142 L 431.99988,142.75 L 439.03113,149.875 L 446,142.78125 L 446,142 L 441.5,142 C 441.22387,141.99997 441.00003,141.77613 441,141.5 L 441,137 L 437.03125,137 L 437.03125,137 z M 438,138 L 440.03125,138 L 440.03125,141.5 C 440.03133,142.31113 440.68887,142.96867 441.5,142.96875 L 444.21875,142.96875 L 439.03125,148.59375 L 433.8125,142.96875 L 436.53125,142.96875 C 437.34238,142.96867 437.99992,142.31113 438,141.5 L 438,138 z" display="inline" enable-background="new" opacity=".3" transform="translate(-35,49)"/></g><rect id="rect3980" width="5" height=".981" x="432" y="142.019" fill="#fff" fill-opacity="1" stroke="none" display="inline" enable-background="new" opacity=".3"/><rect id="rect3982" width="4.963" height=".981" x="441.037" y="142.019" fill="#fff" fill-opacity="1" stroke="none" display="inline" enable-background="new" opacity=".3"/><rect id="rect4014" width="3.963" height=".981" x="437.037" y="137.019" fill="#fff" fill-opacity="1" stroke="none" display="inline" enable-background="new" opacity=".3"/></g></g></svg>