<svg xmlns="http://www.w3.org/2000/svg" xmlns:svg="http://www.w3.org/2000/svg" xmlns:xlink="http://www.w3.org/1999/xlink" id="svg7595" width="48" height="48"><defs id="defs7597"><linearGradient id="linearGradient3227"><stop id="stop3229" offset="0" stop-color="#2e3436" stop-opacity="1"/><stop id="stop3231" offset="1" stop-color="#2e3436" stop-opacity="0"/></linearGradient><radialGradient id="radialGradient3236" cx="23.188" cy="41.688" r="20.813" fx="23.188" fy="41.688" gradientTransform="matrix(1,0,0,0.2492492,0,31.296922)" gradientUnits="userSpaceOnUse" xlink:href="#linearGradient3227"/><linearGradient id="linearGradient3143"><stop id="stop3145" offset="0" stop-color="#3465a4" stop-opacity="1"/><stop id="stop3147" offset="1" stop-color="#749dd3" stop-opacity="1"/></linearGradient><linearGradient id="linearGradient3149" x1="-6.53" x2="-13.951" y1="24.167" y2="11.097" gradientUnits="userSpaceOnUse" xlink:href="#linearGradient3143"/><linearGradient id="linearGradient3160"><stop id="stop3162" offset="0" stop-color="#eeeeec" stop-opacity="1"/><stop id="stop3164" offset="1" stop-color="#eeeeec" stop-opacity="0"/></linearGradient><linearGradient id="linearGradient3166" x1="19.359" x2="31.447" y1="-.089" y2="26.83" gradientTransform="translate(2.6997318e-4,0)" gradientUnits="userSpaceOnUse" xlink:href="#linearGradient3160"/><linearGradient id="linearGradient3178"><stop id="stop3180" offset="0" stop-color="#fff" stop-opacity="1"/><stop id="stop3182" offset="1" stop-color="#fff" stop-opacity="0"/></linearGradient><linearGradient id="linearGradient3184" x1="-16.097" x2="-3.305" y1="7.102" y2="24.418" gradientUnits="userSpaceOnUse" xlink:href="#linearGradient3178"/><linearGradient id="linearGradient3327"><stop id="stop3329" offset="0" stop-color="#eeeeec" stop-opacity="1"/><stop id="stop3331" offset="1" stop-color="#eeeeec" stop-opacity="0"/></linearGradient><linearGradient id="linearGradient3400" x1="6.938" x2="10.75" y1="4.5" y2="16.25" gradientTransform="translate(33.25,5.75)" gradientUnits="userSpaceOnUse" xlink:href="#linearGradient3327"/><linearGradient id="linearGradient3355"><stop id="stop3357" offset="0" stop-color="#fff" stop-opacity="1"/><stop id="stop3359" offset="1" stop-color="#fff" stop-opacity="0"/></linearGradient><linearGradient id="linearGradient3398" x1="0" x2="11.875" y1=".874" y2="20.438" gradientTransform="translate(33.25,5.75)" gradientUnits="userSpaceOnUse" xlink:href="#linearGradient3355"/><linearGradient id="linearGradient3317"><stop id="stop3319" offset="0" stop-color="#c17d11" stop-opacity="1"/><stop id="stop3339" offset=".45" stop-color="#d39d46" stop-opacity="1"/><stop id="stop3341" offset=".55" stop-color="#dcad61" stop-opacity="1"/><stop id="stop3321" offset="1" stop-color="#e6bd7c" stop-opacity="1"/></linearGradient><linearGradient id="linearGradient3396" x1="7.25" x2="1.563" y1="11.376" y2="8.751" gradientTransform="translate(33.25,5.75)" gradientUnits="userSpaceOnUse" xlink:href="#linearGradient3317"/><linearGradient id="linearGradient3436"><stop id="stop3438" offset="0" stop-color="#fff" stop-opacity="1"/><stop id="stop3440" offset="1" stop-color="#fff" stop-opacity="0"/></linearGradient><linearGradient id="linearGradient3442" x1="22.867" x2="14.048" y1="34.787" y2="9.372" gradientUnits="userSpaceOnUse" xlink:href="#linearGradient3436"/><linearGradient id="linearGradient3422"><stop id="stop3424" offset="0" stop-color="#d3d7cf" stop-opacity="1"/><stop id="stop3426" offset="1" stop-color="#d3d7ce" stop-opacity="1"/></linearGradient><linearGradient id="linearGradient3428" x1="21.876" x2="9.726" y1="38.86" y2="3.208" gradientUnits="userSpaceOnUse" xlink:href="#linearGradient3422"/><linearGradient id="linearGradient3414"><stop id="stop3416" offset="0" stop-color="#eeeeec" stop-opacity="1"/><stop id="stop3418" offset="1" stop-color="#eeeeec" stop-opacity=".579"/></linearGradient><linearGradient id="linearGradient3420" x1="21.876" x2="9.726" y1="38.86" y2="3.208" gradientUnits="userSpaceOnUse" xlink:href="#linearGradient3414"/></defs><metadata id="metadata7600"/><g id="layer1"><path id="path3225" fill="url(#radialGradient3236)" fill-opacity="1" stroke="none" stroke-dasharray="none" stroke-miterlimit="4" stroke-opacity="1" stroke-width="1" d="M 44,41.6875 A 20.8125,5.1875 0 1 1 2.375,41.6875 A 20.8125,5.1875 0 1 1 44,41.6875 z" opacity=".682" transform="translate(2.62527,1.125)"/><path id="path2170" fill="url(#linearGradient3149)" fill-opacity="1" stroke="#204a87" stroke-dasharray="none" stroke-miterlimit="4" stroke-opacity="1" stroke-width=".379" d="M -0.11793613,16.805897 A 9.7886982,6.3095822 0 1 1 -19.695333,16.805897 A 9.7886982,6.3095822 0 1 1 -0.11793613,16.805897 z" opacity="1" transform="matrix(2.1453312,0,0,3.2490266,45.753281,-31.602806)"/><path id="path3151" fill="url(#linearGradient3166)" fill-opacity="1" stroke="none" stroke-dasharray="none" stroke-miterlimit="4" stroke-opacity="1" stroke-width="1" d="M 24.500269,3 C 13.81163,2.882064 3.4720145,11.435023 3.0002695,21.301676 C 2.9809635,21.700649 3.0316915,22.1069 3.0613495,22.5 C 17.000154,27.099509 31.646576,20.141278 45.93919,22.5 C 45.968848,22.1069 46.000269,21.701116 46.000269,21.301676 C 46.000269,11.199151 34.363355,3 24.500269,3 z" opacity=".139"/><path id="path3174" fill="none" fill-opacity="1" stroke="url(#linearGradient3184)" stroke-dasharray="none" stroke-miterlimit="4" stroke-opacity="1" stroke-width=".398" d="M -0.11793613,16.805897 A 9.7886982,6.3095822 0 1 1 -19.695333,16.805897 A 9.7886982,6.3095822 0 1 1 -0.11793613,16.805897 z" opacity=".473" transform="matrix(2.0431726,0,0,3.0905375,44.741233,-28.939255)"/><g id="g3388" transform="matrix(1.2179912,0,0,1.2179912,-10.350432,-0.830512)"><path id="path3367" fill="#2e3436" fill-opacity="1" stroke="none" stroke-miterlimit="4" stroke-opacity="1" stroke-width="1" d="M 46.987396,11.340847 C 45.868473,12.734393 43.683007,12.989687 40.722965,10.524539 C 37.762922,8.0593903 37.037186,6.4337633 37.637603,5.15915 C 38.744023,2.8103542 41.441992,3.7603097 44.402035,6.2254582 C 47.362078,8.6906064 48.10632,9.9473005 46.987396,11.340847 z"/><path id="path3315" fill="url(#linearGradient3396)" fill-opacity="1" fill-rule="evenodd" stroke="#8f5902" stroke-linecap="butt" stroke-linejoin="miter" stroke-opacity="1" stroke-width=".821" d="M 28.625,33.125 C 28.625,33.125 30.125,23.375 35,14.75 C 39.875,6.1249999 39.875,6.1249999 39.875,6.1249999 C 42.5,6.7499999 43.75,7.375 45.125,10.625 C 45.125,10.625 42.25,13.875 41.625,16.625 C 40.645564,20.934519 40.5,22.875 40.5,22.875 C 40.5,22.875 36.125,23.25 33.625,26.625 C 32.032697,28.774609 28.875,33.25 28.625,33.125 z"/><path id="path3343" fill="none" fill-opacity="1" fill-rule="evenodd" stroke="url(#linearGradient3398)" stroke-linecap="butt" stroke-linejoin="miter" stroke-opacity="1" stroke-width=".821" d="M 30.75,29.498717 C 30.75,29.498717 31.335292,23.894189 35.169744,16.248718 C 38.408283,9.7914313 40.140802,7.123717 40.140802,7.123717 C 42.765802,7.748717 43.653942,9.123717 44.153942,10.373718 C 44.153942,10.373718 41.25657,14.123718 40.63157,16.873718 C 39.652134,21.183237 39.625,22.123718 39.625,22.123718 C 39.625,22.123718 35.502662,22.884196 33.875,24.873718 C 32.181095,26.94421 31,29.623717 30.75,29.498717 z"/><path id="path3325" fill="url(#linearGradient3400)" fill-opacity="1" fill-rule="evenodd" stroke="none" stroke-linecap="butt" stroke-linejoin="miter" stroke-opacity="1" stroke-width="1" d="M 43.625,8.6249999 L 36.375,21.375 C 36.375,21.375 37.625,19.5 38.75,19.375 C 39.875,19.25 39.875,19.125 39.875,19.125 C 39.875,19.125 41.5,13.5 42.75,11.5 C 44,9.4999999 44,9.4999999 44,9.4999999 L 43.625,8.6249999 z" opacity=".731"/><path id="path3335" fill="none" fill-rule="evenodd" stroke="#8f5902" stroke-linecap="butt" stroke-linejoin="miter" stroke-opacity="1" stroke-width=".821" d="M 28.75,32.625 C 30.625,28.5 31.75,23.625 34.875,19.5"/><path id="path3337" fill="#8f5902" fill-opacity="1" stroke="none" stroke-dasharray="none" stroke-miterlimit="4" stroke-opacity="1" stroke-width="1" d="M 3.375,10.8125 A 0.8125,0.6875 0 1 1 1.75,10.8125 A 0.8125,0.6875 0 1 1 3.375,10.8125 z" opacity="1" transform="matrix(0.2096777,1.4367494,-1.6802825,1.3365207,52.943256,0.6172006)"/></g><g id="g3444" opacity="1" transform="translate(0.149086,-0.208408)"><path id="path3404" fill="url(#linearGradient3420)" fill-opacity="1" fill-rule="evenodd" stroke="url(#linearGradient3428)" stroke-linecap="butt" stroke-linejoin="miter" stroke-opacity="1" stroke-width="1" d="M 24.351184,40.994157 C 24.351184,40.994157 10.924975,34.479653 7.4624873,27.279411 C 3.9999998,20.07917 5.1932425,17.656265 5.1932425,17.656265 C 8.1940655,8.9702587 14.929844,4.8299337 21.621796,3.8851843 C 21.621796,3.8851843 23.736179,10.135979 22.697432,15.964746 C 21.658686,21.793513 17.503701,23.972199 18.196199,30.486704 C 18.815588,36.313453 24.004935,41.337026 24.351184,40.994157 z"/><path id="path3430" fill="none" fill-opacity="1" fill-rule="evenodd" stroke="url(#linearGradient3442)" stroke-linecap="butt" stroke-linejoin="miter" stroke-opacity="1" stroke-width="1" d="M 19.800008,36.884584 C 19.800008,36.884584 14.199994,34.994476 9.536311,28.294838 C 5.9266533,23.109366 5.9501249,18.142663 5.9501249,18.142663 C 8.9509479,9.4566563 14.29028,5.9185838 20.982232,4.9738344 C 20.982232,4.9738344 23.475421,10.560134 21.771256,16.230173 C 20.35751,20.93394 16.044011,24.274035 17.020023,30.752131 C 17.389412,33.20388 19.703759,36.227453 19.800008,36.884584 z"/></g></g></svg>