<svg xmlns="http://www.w3.org/2000/svg" xmlns:svg="http://www.w3.org/2000/svg" xmlns:xlink="http://www.w3.org/1999/xlink" id="svg8044" width="48" height="48"><defs id="defs8046"><linearGradient id="linearGradient6424"><stop id="stop6426" offset="0" stop-color="#EEEEEC" stop-opacity="1"/><stop id="stop6428" offset="1" stop-color="#EEEEEC" stop-opacity="0"/></linearGradient><linearGradient id="linearGradient7059" x1="54.5" x2="54.5" y1="1.734" y2="7.193" gradientUnits="userSpaceOnUse" xlink:href="#linearGradient6424"/><linearGradient id="linearGradient5402"><stop id="stop5404" offset="0" stop-color="#000" stop-opacity="1"/><stop id="stop5406" offset="1" stop-color="#000" stop-opacity="0"/></linearGradient><linearGradient id="linearGradient7057" x1="57.349" x2="59.35" y1="37.497" y2="37.506" gradientUnits="userSpaceOnUse" xlink:href="#linearGradient5402"/><linearGradient id="linearGradient5220"><stop id="stop5222" offset="0" stop-color="#0C1D35" stop-opacity="1"/><stop id="stop5224" offset="1" stop-color="#fff" stop-opacity=".294"/></linearGradient><linearGradient id="linearGradient7055" x1="-8.938" x2="-7" y1="40.375" y2="40.375" gradientTransform="matrix(0.488795,0,0,0.678745,59.0556,10.4726)" gradientUnits="userSpaceOnUse" xlink:href="#linearGradient5220"/><linearGradient id="linearGradient2808"><stop id="stop2810" offset="0" stop-color="#fff" stop-opacity="1"/><stop id="stop2812" offset="1" stop-color="#fff" stop-opacity=".294"/></linearGradient><linearGradient id="linearGradient7053" x1="-6.979" x2="-9.904" y1="37.127" y2="36.848" gradientTransform="matrix(0.581783,0,0,0.678747,57.5437,10.5061)" gradientUnits="userSpaceOnUse" xlink:href="#linearGradient2808"/><linearGradient id="linearGradient5440"><stop id="stop5442" offset="0" stop-color="#EEEEEC" stop-opacity="1"/><stop id="stop5444" offset="1" stop-color="#A2A298" stop-opacity="1"/></linearGradient><linearGradient id="linearGradient7051" x1="24.518" x2="25.911" y1="22.429" y2="23.831" gradientTransform="matrix(0.711824,-0.711824,0.707107,0.707107,20.98,22.2981)" gradientUnits="userSpaceOnUse" xlink:href="#linearGradient5440"/><linearGradient id="linearGradient5443"><stop id="stop5445" offset="0" stop-color="#FFF" stop-opacity="1"/><stop id="stop5447" offset="1" stop-color="#FFF" stop-opacity="0"/></linearGradient><linearGradient id="linearGradient7049" x1="53.589" x2="69.976" y1="32.857" y2="44.96" gradientUnits="userSpaceOnUse" xlink:href="#linearGradient5443"/><linearGradient id="linearGradient8013"><stop id="stop8015" offset="0" stop-color="#c4a000" stop-opacity="1"/><stop id="stop8017" offset="1" stop-color="#886f00" stop-opacity="1"/></linearGradient><linearGradient id="linearGradient8019" x1="50.088" x2="60.085" y1="36.725" y2="36.725" gradientUnits="userSpaceOnUse" xlink:href="#linearGradient8013"/><linearGradient id="linearGradient5210"><stop id="stop5212" offset="0" stop-color="#fce94f" stop-opacity="1"/><stop id="stop5214" offset="1" stop-color="#c4a000" stop-opacity="1"/></linearGradient><linearGradient id="linearGradient7047" x1="-10.695" x2="-1.049" y1="41.106" y2="41.138" gradientTransform="matrix(0.821351,0,0,1.00945,61.6763,-5.25395)" gradientUnits="userSpaceOnUse" xlink:href="#linearGradient5210"/><radialGradient id="radialGradient6837" cx="21.96" cy="34.498" r="12.728" fx="21.96" fy="34.498" gradientTransform="matrix(0.982963,0,0,0.508943,0.37414,16.8414)" gradientUnits="userSpaceOnUse" xlink:href="#linearGradient6221"/><radialGradient id="radialGradient6839" cx="21.96" cy="34.498" r="12.728" fx="21.96" fy="34.498" gradientTransform="matrix(0.982963,0,0,0.508943,0.37414,16.8414)" gradientUnits="userSpaceOnUse" xlink:href="#linearGradient6221"/><linearGradient id="linearGradient4542"><stop id="stop4544" offset="0" stop-color="#888A85" stop-opacity="1"/><stop id="stop4546" offset="1" stop-color="#888A85" stop-opacity="0"/></linearGradient><linearGradient id="linearGradient2569" x1="33.12" x2="22.328" y1="20.5" y2="20.5" gradientTransform="matrix(0.727273,0,0,0.999999,12.2727,-34.8438)" gradientUnits="userSpaceOnUse" xlink:href="#linearGradient4542"/><linearGradient id="linearGradient6826"><stop id="stop6828" offset="0" stop-color="#BABDB6" stop-opacity="1"/><stop id="stop6830" offset="1" stop-color="#EEEEEC" stop-opacity="1"/></linearGradient><linearGradient id="linearGradient2563" x1="37.436" x2="3.051" y1="49.136" y2="25.205" gradientTransform="matrix(0,0.673693,-0.676136,0,37.1023,14.8158)" gradientUnits="userSpaceOnUse" xlink:href="#linearGradient6826"/><linearGradient id="linearGradient7582"><stop id="stop7584" offset="0" stop-color="#FFF" stop-opacity="1"/><stop id="stop7586" offset="1" stop-color="#FFF" stop-opacity="0"/></linearGradient><radialGradient id="radialGradient2581" cx="11.156" cy="2.063" r=".906" fx="11.156" fy="2.063" gradientTransform="matrix(1,0,0,0.62069,0,0.782328)" gradientUnits="userSpaceOnUse" xlink:href="#linearGradient7582"/><radialGradient id="radialGradient5684" cx="21.96" cy="34.498" r="12.728" fx="21.96" fy="34.498" gradientTransform="matrix(0.982963,0,0,0.508943,0.37414,16.8414)" gradientUnits="userSpaceOnUse" xlink:href="#linearGradient6221"/><linearGradient id="linearGradient6221"><stop id="stop6223" offset="0" stop-color="#000" stop-opacity="1"/><stop id="stop6225" offset="1" stop-color="#000" stop-opacity="0"/></linearGradient><radialGradient id="radialGradient5682" cx="21.96" cy="34.498" r="12.728" fx="21.96" fy="34.498" gradientTransform="matrix(0.982963,0,0,0.508943,0.37414,16.8414)" gradientUnits="userSpaceOnUse" xlink:href="#linearGradient6221"/></defs><metadata id="metadata8049"/><g id="layer1"><path id="path5678" fill="url(#radialGradient5682)" fill-opacity="1" stroke="none" stroke-dasharray="none" stroke-linecap="round" stroke-linejoin="round" stroke-miterlimit="4" stroke-opacity="1" stroke-width="1" d="M 34.471457,34.299805 A 12.727922,6.3639612 0 1 1 9.0156116,34.299805 A 12.727922,6.3639612 0 1 1 34.471457,34.299805 z" display="inline" opacity=".15" transform="matrix(0.903524,0,0,0.624182,14.330174,15.618409)"/><path id="path5680" fill="url(#radialGradient5684)" fill-opacity="1" stroke="none" stroke-dasharray="none" stroke-linecap="round" stroke-linejoin="round" stroke-miterlimit="4" stroke-opacity="1" stroke-width="1" d="M 34.471457,34.299805 A 12.727922,6.3639612 0 1 1 9.0156116,34.299805 A 12.727922,6.3639612 0 1 1 34.471457,34.299805 z" display="inline" opacity=".2" transform="matrix(0.353552,0,0,0.235702,25.288484,29.470909)"/><g id="g14966" display="inline" transform="translate(-296.00004,-49.000091)"><g id="g8108" transform="matrix(0.965926,-0.258819,0.258819,0.965926,294.075,54.2052)"><path id="path14669" fill="url(#radialGradient2581)" fill-opacity="1" fill-rule="evenodd" stroke="none" stroke-dasharray="none" stroke-dashoffset=".677" stroke-linecap="round" stroke-linejoin="miter" stroke-miterlimit="4" stroke-opacity="1" stroke-width="1" d="M 12.0625,2.0625 A 0.90625,0.5625 0 1 1 10.25,2.0625 A 0.90625,0.5625 0 1 1 12.0625,2.0625 z" display="inline" overflow="visible" transform="matrix(0,-1.10345,1.77778,0,6.66985,35.658)" visibility="visible" style="marker:none"/><g id="g14674" transform="matrix(1.09603,-0.632791,0.632791,1.09603,-15.0366,-0.7802)"><path id="path14676" fill="url(#linearGradient2563)" fill-opacity="1" fill-rule="evenodd" stroke="#888a85" stroke-dasharray="none" stroke-linecap="round" stroke-linejoin="miter" stroke-miterlimit="4" stroke-opacity="1" stroke-width=".79" d="M 13.4375,16.5 C 9.5186162,16.499999 6.34375,19.657775 6.34375,23.5625 C 6.3437502,26.380698 7.9483759,28.863095 10.34375,30 L 10.34375,31.5 L 11.84375,33 L 10.34375,34.5 L 10.34375,35.5 L 12.34375,36.5 L 12.34375,37.5 L 10.34375,38.5 L 10.34375,39.5 L 11.84375,41 L 10.34375,42.5 L 10.34375,43.5 L 12.84375,45.5 L 15.34375,45.5 L 16.34375,44 L 16.34375,30 C 18.716179,28.854566 20.34375,26.301484 20.34375,23.5 C 20.34375,19.595276 17.356384,16.5 13.4375,16.5 z M 13.34375,18.5 C 14.44775,18.5 15.34375,19.396 15.34375,20.5 C 15.34375,21.604 14.44775,22.5 13.34375,22.5 C 12.23975,22.5 11.34375,21.604 11.34375,20.5 C 11.34375,19.396 12.23975,18.5 13.34375,18.5 z"/><path id="path14679" fill="none" fill-opacity="1" fill-rule="evenodd" stroke="#fff" stroke-dasharray="none" stroke-linecap="round" stroke-linejoin="miter" stroke-miterlimit="4" stroke-opacity="1" stroke-width=".79" d="M 13.4375,17.28125 C 9.9358164,17.281249 7.125,20.078754 7.125,23.5625 C 7.1250002,26.085898 8.5663689,28.305758 10.6875,29.3125 C 10.951494,29.440624 11.120744,29.706589 11.125,30 L 11.125,31.15625 L 12.40625,32.4375 C 12.560213,32.584102 12.647354,32.787405 12.647354,33 C 12.647354,33.212595 12.560213,33.415898 12.40625,33.5625 L 11.125,34.84375 L 11.125,35.03125 L 12.6875,35.8125 C 12.951494,35.940624 13.120744,36.206589 13.125,36.5 L 13.125,37.5 C 13.120744,37.793411 12.951494,38.059376 12.6875,38.1875 L 11.125,38.96875 L 11.125,39.15625 L 12.40625,40.4375 C 12.560213,40.584102 12.647354,40.787405 12.647354,41 C 12.647354,41.212595 12.560213,41.415898 12.40625,41.5625 L 11.125,42.84375 L 11.125,43.125 L 13.125,44.71875 L 14.90625,44.71875 L 15.5625,43.75 L 15.5625,30 C 15.566756,29.706589 15.736006,29.440624 16,29.3125 C 18.090762,28.303058 19.5625,26.000684 19.5625,23.5 C 19.5625,19.991393 16.947441,17.28125 13.4375,17.28125 z M 13.34375,17.71875 C 14.867958,17.71875 16.125,18.975792 16.125,20.5 C 16.125,22.024208 14.867958,23.28125 13.34375,23.28125 C 11.819542,23.28125 10.5625,22.024208 10.5625,20.5 C 10.5625,18.975792 11.819542,17.71875 13.34375,17.71875 z" opacity="1" xlink:href="#path1884"/><rect id="rect14682" width="16.312" height=".981" x="29" y="-14.844" fill="url(#linearGradient2569)" fill-opacity="1" fill-rule="evenodd" stroke="none" stroke-dasharray="none" stroke-linecap="round" stroke-linejoin="miter" stroke-miterlimit="4" stroke-opacity="1" stroke-width="1" opacity=".615" transform="matrix(0,1,-1,0,0,0)"/></g></g><g id="g14917" transform="translate(295.476,48.0555)"><path id="path5331" fill="url(#radialGradient6839)" fill-opacity="1" stroke="none" stroke-dasharray="none" stroke-linecap="round" stroke-linejoin="round" stroke-miterlimit="4" stroke-opacity="1" stroke-width="1" d="M 34.471457,34.299805 A 12.727922,6.3639612 0 1 1 9.0156116,34.299805 A 12.727922,6.3639612 0 1 1 34.471457,34.299805 z" opacity=".15" transform="matrix(0.903524,0,0,0.624182,-8.14578,20.563)"/><path id="path6769" fill="url(#radialGradient6837)" fill-opacity="1" stroke="none" stroke-dasharray="none" stroke-linecap="round" stroke-linejoin="round" stroke-miterlimit="4" stroke-opacity="1" stroke-width="1" d="M 34.471457,34.299805 A 12.727922,6.3639612 0 1 1 9.0156116,34.299805 A 12.727922,6.3639612 0 1 1 34.471457,34.299805 z" opacity=".2" transform="matrix(0.353552,0,0,0.235702,2.81253,34.4155)"/><g id="g14921" transform="matrix(0.707107,0.707107,-0.707107,0.707107,0.40392,-30.1174)"><rect id="rect5288" width="8.997" height="17.997" x="50.588" y="27.727" fill="url(#linearGradient7047)" fill-opacity="1" stroke="url(#linearGradient8019)" stroke-dasharray="none" stroke-linecap="round" stroke-linejoin="round" stroke-miterlimit="4" stroke-opacity="1" stroke-width="1" rx="4.074" ry="3.659" transform="matrix(0.999992,-4.08577e-3,-2.7049e-3,0.999996,0,0)"/><rect id="rect5292" width="7.018" height="15.96" x="51.574" y="28.816" fill="none" fill-opacity="1" stroke="url(#linearGradient7049)" stroke-dasharray="none" stroke-linecap="round" stroke-linejoin="round" stroke-miterlimit="4" stroke-opacity="1" stroke-width="1" opacity=".5" rx="3.08" ry="2.597" transform="matrix(0.999987,-5.04805e-3,-2.89929e-3,0.999996,0,0)"/><path id="path5286" fill="url(#linearGradient7051)" fill-opacity="1" stroke="#888a85" stroke-dasharray="none" stroke-linecap="round" stroke-linejoin="round" stroke-miterlimit="4" stroke-opacity="1" stroke-width="1" d="M 52.246834,0.49999993 L 52.604531,5.4548034 L 53.59322,7.162543 L 53.585977,28.755101 C 53.674365,30.257703 56.419206,30.336084 56.595983,28.745094 L 56.621068,7.1748733 L 57.628707,5.8770552 L 57.95997,0.51454306 C 57.95997,0.51454306 52.246834,0.49999993 52.246834,0.49999993 z"/><rect id="rect14926" width="1.42" height="10.613" x="51.726" y="32.226" fill="url(#linearGradient7053)" fill-opacity="1" stroke="none" stroke-dasharray="none" stroke-linecap="round" stroke-linejoin="round" stroke-miterlimit="4" stroke-opacity="1" stroke-width="1" opacity=".3" rx=".666" ry="1.604" transform="matrix(0.999991,-4.29945e-3,-4.29945e-3,0.999991,0,0)"/><rect id="rect14928" width="1.955" height="10.86" x="54.168" y="32.192" fill="url(#linearGradient7055)" fill-opacity="1" stroke="none" stroke-dasharray="none" stroke-linecap="round" stroke-linejoin="round" stroke-miterlimit="4" stroke-opacity="1" stroke-width="1" opacity=".3" rx="1.347" ry="1.604" transform="matrix(0.999987,-5.11738e-3,-3.61225e-3,0.999994,0,0)"/><rect id="rect14930" width="1.42" height="10.613" x="57.132" y="32.249" fill="url(#linearGradient7057)" fill-opacity="1" stroke="none" stroke-dasharray="none" stroke-linecap="round" stroke-linejoin="round" stroke-miterlimit="4" stroke-opacity="1" stroke-width="1" opacity=".25" rx=".666" ry="1.604" transform="matrix(0.999991,-4.29946e-3,-4.29946e-3,0.999991,0,0)"/><path id="path14932" fill="url(#linearGradient7059)" fill-opacity="1" stroke="none" stroke-linecap="round" stroke-linejoin="round" stroke-miterlimit="4" stroke-opacity="1" stroke-width="1" d="M 52.78125,1 L 53.09375,5.3125 L 54.03125,6.90625 C 54.073567,6.982692 54.095116,7.0688875 54.09375,7.15625 L 56.125,7.1875 C 56.120433,7.0757816 56.153441,6.9657558 56.21875,6.875 L 57.125,5.65625 L 57.4375,1 C 56.652768,1 53.565982,1 52.78125,1 z"/></g></g></g></g></svg>