<svg xmlns="http://www.w3.org/2000/svg" xmlns:svg="http://www.w3.org/2000/svg" xmlns:xlink="http://www.w3.org/1999/xlink" id="svg7871" width="48" height="48"><defs id="defs7873"><linearGradient id="linearGradient2251"><stop id="stop2253" offset="0" stop-color="#fff" stop-opacity="1"/><stop id="stop2255" offset="1" stop-color="#fff" stop-opacity="0"/></linearGradient><linearGradient id="linearGradient2257" x1="33.396" x2="34.17" y1="36.921" y2="38.07" gradientUnits="userSpaceOnUse" xlink:href="#linearGradient2251"/><linearGradient id="linearGradient2224"><stop id="stop2226" offset="0" stop-color="#7c7c7c" stop-opacity="1"/><stop id="stop2228" offset="1" stop-color="#b8b8b8" stop-opacity="1"/></linearGradient><linearGradient id="linearGradient2230" x1="35.997" x2="33.665" y1="40.458" y2="37.771" gradientUnits="userSpaceOnUse" xlink:href="#linearGradient2224"/><linearGradient id="linearGradient2239"><stop id="stop2241" offset="0" stop-color="#fff" stop-opacity="1"/><stop id="stop2243" offset="1" stop-color="#fff" stop-opacity="0"/></linearGradient><linearGradient id="linearGradient2245" x1="25.683" x2="25.692" y1="12.172" y2="-.203" gradientUnits="userSpaceOnUse" xlink:href="#linearGradient2239"/><linearGradient id="linearGradient2216"><stop id="stop2218" offset="0" stop-color="#000" stop-opacity="1"/><stop id="stop2220" offset="1" stop-color="#000" stop-opacity="0"/></linearGradient><linearGradient id="linearGradient2222" x1="36.813" x2="39.063" y1="39.156" y2="42.063" gradientUnits="userSpaceOnUse" xlink:href="#linearGradient2216"/><filter id="filter5745"><feGaussianBlur id="feGaussianBlur5747" stdDeviation=".836"/></filter><linearGradient id="linearGradient5310"><stop id="stop5312" offset="0" stop-color="#000" stop-opacity=".598"/><stop id="stop5314" offset="1" stop-color="#000" stop-opacity="0"/></linearGradient><linearGradient id="linearGradient6102" x1="35.005" x2="30.28" y1="24.3" y2="9.13" gradientTransform="translate(-19.532826,1.7437184)" gradientUnits="userSpaceOnUse" xlink:href="#linearGradient5310"/><filter id="filter6251" width="1.485" height="1.095" x="-.242" y="-.048"><feGaussianBlur id="feGaussianBlur6253" stdDeviation=".244"/></filter><linearGradient id="linearGradient6227"><stop id="stop6229" offset="0" stop-color="#000" stop-opacity="1"/><stop id="stop6231" offset="1" stop-color="#000" stop-opacity="0"/></linearGradient><linearGradient id="linearGradient6100" x1="33.95" x2="39.619" y1="14.007" y2="9.522" gradientTransform="translate(1.6824037,1.125)" gradientUnits="userSpaceOnUse" xlink:href="#linearGradient6227"/><linearGradient id="linearGradient10591"><stop id="stop10593" offset="0" stop-color="#cad0c6" stop-opacity="1"/><stop id="stop10599" offset=".5" stop-color="#eaece9" stop-opacity="1"/><stop id="stop10595" offset="1" stop-color="#c5cbc0" stop-opacity="1"/></linearGradient><linearGradient id="linearGradient6098" x1="10.651" x2="27.192" y1="2.914" y2="17.47" gradientTransform="translate(0,-1.926279)" gradientUnits="userSpaceOnUse" xlink:href="#linearGradient10591"/><filter id="filter6171" width="1.283" height="4.044" x="-.141" y="-1.522"><feGaussianBlur id="feGaussianBlur6173" stdDeviation="1.189"/></filter><linearGradient id="linearGradient6089"><stop id="stop6091" offset="0" stop-color="#000" stop-opacity="1"/><stop id="stop6097" offset=".5" stop-color="#000" stop-opacity=".172"/><stop id="stop6093" offset="1" stop-color="#000" stop-opacity="1"/></linearGradient><linearGradient id="linearGradient6096" x1="17.188" x2="34" y1="20.094" y2="20.094" gradientTransform="translate(79.783856,-9.5557214)" gradientUnits="userSpaceOnUse" xlink:href="#linearGradient6089"/><radialGradient id="radialGradient6093" cx="15.938" cy="20.313" r="3.313" fx="15.938" fy="20.313" gradientTransform="matrix(1,0,0,0.5849057,0,8.4316038)" gradientUnits="userSpaceOnUse" xlink:href="#linearGradient6075"/><linearGradient id="linearGradient6075"><stop id="stop6077" offset="0" stop-color="#000" stop-opacity="1"/><stop id="stop6079" offset="1" stop-color="#000" stop-opacity="0"/></linearGradient><radialGradient id="radialGradient6091" cx="15.938" cy="20.313" r="3.313" fx="15.938" fy="20.313" gradientTransform="matrix(1,0,0,0.5849057,0,8.4316038)" gradientUnits="userSpaceOnUse" xlink:href="#linearGradient6075"/><filter id="filter5957" width="1.988" height="1.165" x="-.494" y="-.082"><feGaussianBlur id="feGaussianBlur5959" stdDeviation=".699"/></filter><linearGradient id="linearGradient12071"><stop id="stop12073" offset="0" stop-color="#fff" stop-opacity="1"/><stop id="stop12075" offset="1" stop-color="#fff" stop-opacity="0"/></linearGradient><linearGradient id="linearGradient1387" x1="21.942" x2="21.942" y1="21.551" y2="18.038" gradientTransform="matrix(0.6296046,0,0,0.6178281,0.8571592,2.2245587)" gradientUnits="userSpaceOnUse" xlink:href="#linearGradient12071"/><linearGradient id="linearGradient5881"><stop id="stop5883" offset="0" stop-color="#fffac7" stop-opacity="1"/><stop id="stop5885" offset="1" stop-color="#fff8b2" stop-opacity="1"/></linearGradient><linearGradient id="linearGradient1591" x1="24.875" x2="24.75" y1="21" y2="17" gradientTransform="matrix(0.6470588,0,0,0.8882118,0.470588,-3.5072427)" gradientUnits="userSpaceOnUse" xlink:href="#linearGradient5881"/><linearGradient id="linearGradient9845"><stop id="stop9847" offset="0" stop-color="#fff" stop-opacity="1"/><stop id="stop9849" offset="1" stop-color="#fff" stop-opacity=".495"/></linearGradient><linearGradient id="linearGradient1575" x1="10.907" x2="30.875" y1="25.002" y2="36.127" gradientTransform="matrix(0.629046,0,0,0.6988113,0.8800863,-1.937737)" gradientUnits="userSpaceOnUse" xlink:href="#linearGradient9845"/><linearGradient id="linearGradient6215"><stop id="stop6217" offset="0" stop-color="#ead200" stop-opacity="1"/><stop id="stop6219" offset=".21" stop-color="#fff16a" stop-opacity="1"/><stop id="stop6221" offset=".84" stop-color="#b5a300" stop-opacity="1"/><stop id="stop6223" offset="1" stop-color="#e8d000" stop-opacity="1"/></linearGradient><linearGradient id="linearGradient6225" x1="6.727" x2="40.938" y1="32.162" y2="32.162" gradientTransform="matrix(0.6572598,0,0,0.7216111,0.2278111,-3.8311472)" gradientUnits="userSpaceOnUse" xlink:href="#linearGradient6215"/><linearGradient id="linearGradient2287" x1="25.405" x2="25.464" y1="3.818" y2="9.323" gradientTransform="matrix(1.005222,0,0,0.883928,-0.627923,0.84375)" gradientUnits="userSpaceOnUse" xlink:href="#linearGradient15234"/><linearGradient id="linearGradient2283" x1="25.405" x2="25.405" y1="3.818" y2="6.481" gradientTransform="matrix(0.538743,0,0,0.511806,10.8008,-0.58264)" gradientUnits="userSpaceOnUse" xlink:href="#linearGradient15234"/><linearGradient id="linearGradient15234"><stop id="stop15236" offset="0" stop-color="#97978a" stop-opacity="1"/><stop id="stop15242" offset=".5" stop-color="#c2c2b9" stop-opacity="1"/><stop id="stop15238" offset="1" stop-color="#7d7d6f" stop-opacity="1"/></linearGradient><linearGradient id="linearGradient15240" x1="25.405" x2="25.464" y1="3.818" y2="9.323" gradientTransform="matrix(1.052632,0,0,1,-1.789474,0)" gradientUnits="userSpaceOnUse" xlink:href="#linearGradient15234"/><linearGradient id="linearGradient2259"><stop id="stop2261" offset="0" stop-color="#fff" stop-opacity="1"/><stop id="stop2263" offset="1" stop-color="#fff" stop-opacity="0"/></linearGradient><linearGradient id="linearGradient2265" x1="26.076" x2="30.811" y1="26.697" y2="42.007" gradientUnits="userSpaceOnUse" xlink:href="#linearGradient2259"/><linearGradient id="linearGradient15218"><stop id="stop15220" offset="0" stop-color="#f0f0ef" stop-opacity="1"/><stop id="stop2269" offset=".599" stop-color="#e8e8e8" stop-opacity="1"/><stop id="stop2267" offset=".828" stop-color="#fff" stop-opacity="1"/><stop id="stop15222" offset="1" stop-color="#d8d8d3" stop-opacity="1"/></linearGradient><linearGradient id="linearGradient15224" x1="22.308" x2="35.785" y1="18.992" y2="39.498" gradientTransform="matrix(1.065698,0,0,0.987595,-1.564439,7.487332e-2)" gradientUnits="userSpaceOnUse" xlink:href="#linearGradient15218"/><linearGradient id="linearGradient14484"><stop id="stop14486" offset="0" stop-color="#c68827" stop-opacity="1"/><stop id="stop14488" offset="1" stop-color="#89601f" stop-opacity="1"/></linearGradient><linearGradient id="linearGradient14490" x1="6.107" x2="33.857" y1="10.451" y2="37.88" gradientUnits="userSpaceOnUse" xlink:href="#linearGradient14484"/><linearGradient id="linearGradient3456"><stop id="stop3458" offset="0" stop-color="#2e3436" stop-opacity="1"/><stop id="stop3460" offset="1" stop-color="#2e3436" stop-opacity="0"/></linearGradient><radialGradient id="radialGradient3462" cx="24.438" cy="45.375" r="24.063" fx="24.438" fy="45.375" gradientTransform="matrix(1,0,0,0.1090909,0,40.425)" gradientUnits="userSpaceOnUse" xlink:href="#linearGradient3456"/></defs><metadata id="metadata7876"/><g id="layer1"><path id="path2485" fill="url(#radialGradient3462)" fill-opacity="1" stroke="none" stroke-dasharray="none" stroke-miterlimit="4" stroke-opacity="1" stroke-width="1" d="M 48.5,45.375 A 24.0625,2.625 0 1 1 0.375,45.375 A 24.0625,2.625 0 1 1 48.5,45.375 z" opacity=".267"/><rect id="rect12368" width="39.036" height="41.045" x="4.464" y="4.5" fill="url(#linearGradient14490)" fill-opacity="1" fill-rule="evenodd" stroke="#714c16" stroke-dasharray="none" stroke-dashoffset="0" stroke-linecap="butt" stroke-linejoin="miter" stroke-miterlimit="4" stroke-opacity="1" stroke-width="1" opacity="1" rx="1.388" ry="1.388"/><rect id="rect12413" width="30.952" height="35.977" x="8.532" y="6.53" fill="url(#linearGradient15224)" fill-opacity="1" fill-rule="evenodd" stroke="#888a85" stroke-dasharray="none" stroke-dashoffset="0" stroke-linecap="butt" stroke-linejoin="miter" stroke-miterlimit="4" stroke-opacity="1" stroke-width="1" opacity="1" rx=".567" ry=".567"/><rect id="rect13756" width="12" height="4" x="18" y="0" fill="#5c5c5c" fill-opacity="1" fill-rule="evenodd" stroke="none" stroke-dasharray="none" stroke-dashoffset="0" stroke-linecap="butt" stroke-linejoin="miter" stroke-miterlimit="4" stroke-opacity="1" stroke-width="1" opacity="1" rx=".984" ry=".984"/><rect id="rect15244" width="29.014" height="34.041" x="9.517" y="7.467" fill="none" fill-opacity="1" fill-rule="evenodd" stroke="url(#linearGradient2265)" stroke-dasharray="none" stroke-dashoffset="0" stroke-linecap="butt" stroke-linejoin="miter" stroke-miterlimit="4" stroke-opacity="1" stroke-width="1" opacity="1" rx="0" ry="0"/><rect id="rect15974" width="37.086" height="39.093" x="5.439" y="5.431" fill="none" fill-opacity="1" fill-rule="evenodd" stroke="#c68827" stroke-dasharray="none" stroke-dashoffset="0" stroke-linecap="butt" stroke-linejoin="miter" stroke-miterlimit="4" stroke-opacity="1" stroke-width="1" opacity="1" rx=".479" ry=".479"/><rect id="rect2208" width="18.947" height="7" x="14.791" y="4.472" fill="#000" fill-opacity="1" fill-rule="evenodd" stroke="#000" stroke-dasharray="none" stroke-dashoffset="0" stroke-linecap="butt" stroke-linejoin="miter" stroke-miterlimit="4" stroke-opacity="1" stroke-width="1" opacity=".108" rx="1.388" ry="1.388"/><rect id="rect2285" width="18.947" height="7" x="14.526" y="3.5" fill="url(#linearGradient15240)" fill-opacity="1" fill-rule="evenodd" stroke="#5c5c5c" stroke-dasharray="none" stroke-dashoffset="0" stroke-linecap="butt" stroke-linejoin="miter" stroke-miterlimit="4" stroke-opacity="1" stroke-width="1" opacity="1" rx="1.388" ry="1.388"/><rect id="rect2281" width="9.697" height="3.583" x="19.151" y="1.209" fill="url(#linearGradient2283)" fill-opacity="1" fill-rule="evenodd" stroke="none" stroke-dasharray="none" stroke-dashoffset="0" stroke-linecap="butt" stroke-linejoin="miter" stroke-miterlimit="4" stroke-opacity="1" stroke-width="1" opacity="1" rx=".325" ry=".325"/><rect id="rect13754" width="18.094" height="6.188" x="14.953" y="3.938" fill="url(#linearGradient2287)" fill-opacity="1" fill-rule="evenodd" stroke="none" stroke-dasharray="none" stroke-dashoffset="0" stroke-linecap="butt" stroke-linejoin="miter" stroke-miterlimit="4" stroke-opacity="1" stroke-width="1" opacity="1" rx="1.013" ry="1.013"/><g id="g2710" transform="translate(8.077188,9.9757107)"><path id="path2713" fill="url(#linearGradient6225)" fill-opacity="1" fill-rule="evenodd" stroke="#7d6400" stroke-dashoffset="0" stroke-linecap="round" stroke-linejoin="round" stroke-miterlimit="4" stroke-opacity="1" stroke-width="1" d="M 5.9689591,11.138854 C 12.595289,10.21699 19.292125,10.360107 26.031042,11.138854 C 26.844845,11.138854 27.500001,11.805357 27.500001,12.633254 L 27.500001,27.527366 C 27.500001,28.355264 26.802563,28.902015 26.031042,29.021767 C 19.044366,29.793672 13.053761,29.787578 5.9689591,29.021767 C 5.0283055,28.742346 4.4999998,28.355264 4.4999998,27.527366 L 4.4999998,12.633254 C 4.4999998,11.805357 5.1551554,11.138854 5.9689591,11.138854 z"/><path id="path2720" fill="none" fill-opacity="1" fill-rule="evenodd" stroke="url(#linearGradient1575)" stroke-dashoffset="0" stroke-linecap="round" stroke-linejoin="round" stroke-miterlimit="4" stroke-opacity=".601" stroke-width="1" d="M 6.3904464,12.5 L 25.545479,12.5 C 25.994912,12.5 26.356732,12.86648 26.356732,13.321705 L 26.356732,27.625602 C 26.356732,28.080827 25.972988,27.91599 25.482979,28.072308 C 19.219696,28.824892 13.475065,28.823147 6.7654464,28.072308 C 6.316012,27.91599 5.5791932,28.080827 5.5791932,27.625602 L 5.5791932,13.321705 C 5.5791932,12.86648 5.941012,12.5 6.3904464,12.5 z"/><path id="rect1460" fill="url(#linearGradient1591)" fill-opacity="1" fill-rule="evenodd" stroke="none" stroke-dashoffset="0" stroke-linecap="round" stroke-linejoin="round" stroke-miterlimit="4" stroke-opacity="1" stroke-width="2" marker-end="none" marker-mid="none" marker-start="none" d="M 6.0717156,11.592358 C 12.690572,10.72739 19.309427,10.881452 25.928284,11.592358 C 26.522015,11.592358 27,12.016951 27,12.544359 L 27,14.193206 C 27,14.720614 26.522015,15.145206 25.928284,15.145206 C 19.021116,15.553843 12.665918,15.408004 6.0717156,15.145206 C 5.477985,15.145206 5,14.720614 5,14.193206 L 5,12.544359 C 5,12.016951 5.477985,11.592358 6.0717156,11.592358 z" display="inline" overflow="visible" visibility="visible" style="marker:none"/><path id="rect1593" fill="none" fill-opacity="1" fill-rule="evenodd" stroke="url(#linearGradient1387)" stroke-dashoffset="0" stroke-linecap="round" stroke-linejoin="round" stroke-miterlimit="4" stroke-opacity="1" stroke-width="1" marker-end="none" marker-mid="none" marker-start="none" d="M 6.334841,13.036552 L 25.600497,13.036552 C 26.019126,13.036552 26.356145,13.354055 26.356145,13.748441 L 26.356145,14.178148 C 26.356145,14.572535 26.019126,14.890037 25.600497,14.890037 C 19.238543,15.668922 12.804719,15.716587 6.334841,14.890037 C 5.9162119,14.890037 5.5791932,14.572535 5.5791932,14.178148 L 5.5791932,13.748441 C 5.5791932,13.354055 5.9162119,13.036552 6.334841,13.036552 z" display="inline" overflow="visible" visibility="visible" style="marker:none"/><rect id="rect5887" width="2.828" height="16.971" x="14.594" y="23.226" fill="#fff" fill-opacity="1" fill-rule="evenodd" stroke="none" stroke-dasharray="none" stroke-dashoffset="0" stroke-linecap="round" stroke-linejoin="miter" stroke-miterlimit="4" stroke-opacity="1" stroke-width="1" marker-end="none" marker-mid="none" marker-start="none" display="inline" enable-background="accumulate" filter="url(#filter5957)" opacity=".294" overflow="visible" rx="2.476" ry="2.477" transform="matrix(1.2804315,0,0,0.8058778,-10.69301,-4.2457225)" visibility="visible" style="marker:none"/><g id="g6077" transform="matrix(0.6459748,0,0,0.6459748,-51.822319,5.7621162)"><path stroke-width="1" style="marker:none" id="path6073" fill="url(#radialGradient6091)" fill-opacity="1" fill-rule="evenodd" stroke="none" stroke-dasharray="none" stroke-dashoffset="0" stroke-linecap="round" stroke-linejoin="miter" stroke-miterlimit="4" stroke-opacity="1" marker-end="none" marker-mid="none" marker-start="none" d="M 19.25,20.3125 A 3.3125,1.9375 0 1 1 12.625,20.3125 A 3.3125,1.9375 0 1 1 19.25,20.3125 z" display="inline" enable-background="accumulate" opacity=".365" overflow="visible" transform="matrix(1.3870968,0,0,1.3870968,73.614506,-16.918625)" visibility="visible"/><path stroke-width="1" style="marker:none" id="path6083" fill="url(#radialGradient6093)" fill-opacity="1" fill-rule="evenodd" stroke="none" stroke-dasharray="none" stroke-dashoffset="0" stroke-linecap="round" stroke-linejoin="miter" stroke-miterlimit="4" stroke-opacity="1" marker-end="none" marker-mid="none" marker-start="none" d="M 19.25,20.3125 A 3.3125,1.9375 0 1 1 12.625,20.3125 A 3.3125,1.9375 0 1 1 19.25,20.3125 z" display="inline" enable-background="accumulate" opacity=".347" overflow="visible" transform="matrix(1.3870968,0,0,1.3870968,92.739496,-16.918625)" visibility="visible"/><rect id="rect6087" width="16.813" height="1.563" x="96.971" y="9.757" fill="url(#linearGradient6096)" fill-opacity="1" fill-rule="evenodd" stroke="none" stroke-dasharray="none" stroke-dashoffset="0" stroke-linecap="round" stroke-linejoin="miter" stroke-miterlimit="4" stroke-opacity="1" stroke-width="1" marker-end="none" marker-mid="none" marker-start="none" display="inline" enable-background="accumulate" filter="url(#filter6171)" opacity=".482" overflow="visible" rx="1.209" ry="1.209" visibility="visible" style="marker:none"/><g id="g1387" transform="matrix(0.8915815,0,0,1,83.826516,-9.5477644)"><path id="path2730" fill="url(#linearGradient6098)" fill-opacity="1" fill-rule="evenodd" stroke="#888a85" stroke-dasharray="none" stroke-linecap="butt" stroke-linejoin="miter" stroke-miterlimit="4" stroke-opacity="1" stroke-width="1.639" d="M 10.6402,20.234846 L 10.6402,14.5 C 10.6402,6.6298666 15.897609,2.8910066 24.020027,2.9892921 C 32.18664,3.0875777 36.886127,6.5372782 36.886127,14.5 L 36.886127,20.484846 C 36.886127,22.439075 31.548894,22.687797 31.548894,20.484846 L 31.548894,16.5 C 31.548894,14.5 32.424284,7.6176588 23.923773,7.6176588 C 15.49336,7.6176588 15.954155,14.539885 15.986846,16.492026 L 15.986846,20.268524 C 15.986846,22.623144 10.6402,22.613133 10.6402,20.234846 z"/><path id="path2732" fill="url(#linearGradient6100)" fill-opacity="1" fill-rule="evenodd" stroke="none" stroke-dashoffset="0" stroke-linecap="round" stroke-linejoin="round" stroke-miterlimit="4" stroke-opacity="1" stroke-width="1" d="M 34.687087,10.837069 L 35.951035,10.962069 C 36.878274,13.784802 36.687087,20.472482 36.687087,20.472482 C 36.624587,21.597482 34.655837,21.003732 34.687087,20.472482 L 34.687087,10.837069 z" filter="url(#filter6251)" opacity=".182"/><path id="path6332" fill="url(#linearGradient6102)" fill-opacity="1" fill-rule="evenodd" stroke="none" stroke-dashoffset="0" stroke-linecap="round" stroke-linejoin="round" stroke-miterlimit="4" stroke-opacity="1" stroke-width="1" d="M 12.926606,11.544175 L 13.298325,11.71337 C 15.018656,12.768336 15.471857,21.0912 15.471857,21.0912 C 15.409357,22.2162 13.440607,21.62245 13.471857,21.0912 C 13.471857,21.0912 13.850077,14.22056 12.926606,11.544175 z" filter="url(#filter6251)" opacity=".141" transform="matrix(-1,0,0,1,29.05878,-0.6187184)"/></g><path stroke-width="3.096" style="marker:none" id="path5675" fill="none" fill-opacity="1" fill-rule="evenodd" stroke="#fff" stroke-dasharray="none" stroke-dashoffset="0" stroke-linecap="round" stroke-linejoin="miter" stroke-miterlimit="4" stroke-opacity="1" marker-end="none" marker-mid="none" marker-start="none" d="M 95.158856,10.569278 L 95.283856,3.0692783 C 95.283856,-6.8070945 113.97136,-7.6071217 113.97136,3.9442783 L 113.97136,10.819278" display="inline" enable-background="accumulate" filter="url(#filter5745)" opacity=".624" overflow="visible" visibility="visible"/></g></g><path id="path2212" fill="url(#linearGradient2222)" fill-opacity="1" fill-rule="evenodd" stroke="none" stroke-dasharray="none" stroke-dashoffset="0" stroke-linecap="butt" stroke-linejoin="miter" stroke-miterlimit="4" stroke-opacity="1" stroke-width="1" marker-end="none" marker-mid="none" marker-start="none" d="M 39.018306,36.25 L 39.0625,42.0625 L 30.5625,42.018306 L 39.018306,36.25 z" display="inline" opacity=".489" overflow="visible" visibility="visible" style="marker:none"/><path id="rect2232" fill="none" fill-opacity="1" fill-rule="evenodd" stroke="url(#linearGradient2245)" stroke-dasharray="none" stroke-dashoffset="0" stroke-linecap="butt" stroke-linejoin="miter" stroke-miterlimit="4" stroke-opacity="1" stroke-width="1" d="M 19.46875,1.46875 C 19.466654,1.4708456 19.470414,1.4975336 19.46875,1.5 C 19.46758,1.502776 19.438116,1.4969757 19.4375,1.5 L 19.4375,4.375 C 19.4375,4.3814229 19.46641,4.4006981 19.46875,4.40625 C 19.471216,4.4079135 19.465974,4.4363298 19.46875,4.4375 L 15.9375,4.4375 C 15.91974,4.4375 15.892285,4.4357551 15.875,4.4375 C 15.840968,4.4426713 15.781454,4.4572762 15.75,4.46875 C 15.611832,4.5269964 15.482328,4.6677699 15.4375,4.8125 C 15.426991,4.8535348 15.4375,4.9243489 15.4375,4.96875 L 15.4375,9.125 C 15.4375,9.1427605 15.435755,9.1702147 15.4375,9.1875 C 15.442671,9.2215321 15.457276,9.2810456 15.46875,9.3125 C 15.478458,9.3355281 15.487176,9.3851004 15.5,9.40625 C 15.5046,9.41307 15.526336,9.4309205 15.53125,9.4375 C 15.552124,9.4628138 15.599686,9.5103764 15.625,9.53125 C 15.638159,9.5410789 15.6734,9.5539504 15.6875,9.5625 C 15.702038,9.5703781 15.734648,9.5872782 15.75,9.59375 C 15.781454,9.6052238 15.840968,9.6198287 15.875,9.625 C 15.892285,9.6267449 15.91974,9.625 15.9375,9.625 L 32.0625,9.625 C 32.08026,9.625 32.107715,9.6267449 32.125,9.625 C 32.159032,9.6198287 32.218546,9.6052238 32.25,9.59375 C 32.265352,9.5872782 32.297962,9.5703781 32.3125,9.5625 C 32.3266,9.5539504 32.361841,9.5410789 32.375,9.53125 C 32.400314,9.5103764 32.447876,9.4628138 32.46875,9.4375 C 32.473664,9.4309205 32.4954,9.41307 32.5,9.40625 C 32.512824,9.3851004 32.521542,9.3355281 32.53125,9.3125 C 32.542724,9.2810456 32.557329,9.2215321 32.5625,9.1875 C 32.564245,9.1702147 32.5625,9.1427605 32.5625,9.125 L 32.5625,4.96875 C 32.5625,4.9243489 32.573009,4.8535348 32.5625,4.8125 C 32.517672,4.6677698 32.388168,4.5269964 32.25,4.46875 C 32.218546,4.4572762 32.159032,4.4426713 32.125,4.4375 C 32.107715,4.4357551 32.08026,4.4375 32.0625,4.4375 L 28.53125,4.4375 C 28.534026,4.4363298 28.528784,4.4079135 28.53125,4.40625 C 28.533591,4.4006981 28.5625,4.3814229 28.5625,4.375 L 28.5625,1.5 C 28.561884,1.4969757 28.53242,1.502776 28.53125,1.5 C 28.529586,1.4975336 28.533346,1.4708456 28.53125,1.46875 C 28.528474,1.4675798 28.503024,1.4693657 28.5,1.46875 L 19.5,1.46875 C 19.496976,1.4693657 19.471526,1.4675798 19.46875,1.46875 z" opacity=".317"/><path id="path2210" fill="url(#linearGradient2230)" fill-opacity="1" fill-rule="evenodd" stroke="#868a84" stroke-dasharray="none" stroke-dashoffset="0" stroke-linecap="butt" stroke-linejoin="miter" stroke-miterlimit="4" stroke-opacity="1" stroke-width="1" marker-end="none" marker-mid="none" marker-start="none" d="M 30.059082,42.086864 C 31.850223,42.254516 39.048809,37.717278 39.539922,33.698855 C 37.97666,36.121952 34.584971,35.667446 30.476213,35.826456 C 30.476213,35.826456 30.871582,41.586864 30.059082,42.086864 z" display="inline" opacity="1" overflow="visible" visibility="visible" style="marker:none"/><path id="path2247" fill="none" fill-opacity="1" fill-rule="evenodd" stroke="url(#linearGradient2257)" stroke-dasharray="none" stroke-dashoffset="0" stroke-linecap="butt" stroke-linejoin="miter" stroke-miterlimit="4" stroke-opacity="1" stroke-width="1" marker-end="none" marker-mid="none" marker-start="none" d="M 31.509519,40.68705 C 32.879298,40.003221 36.038783,38.086016 37.338164,36.205012 C 35.545641,36.581496 34.347243,36.794585 31.610576,36.900494 C 31.610576,36.900494 31.697137,39.91208 31.509519,40.68705 z" display="inline" opacity=".369" overflow="visible" visibility="visible" style="marker:none"/></g></svg>