<svg xmlns="http://www.w3.org/2000/svg" xmlns:svg="http://www.w3.org/2000/svg" xmlns:xlink="http://www.w3.org/1999/xlink" id="svg7515" width="48" height="48"><defs id="defs7517"><radialGradient id="radialGradient5372" cx="24.188" cy="10.036" r="2.688" fx="24.188" fy="10.036" gradientTransform="matrix(2.175,0,0,2.175,-28.420311,-11.926601)" gradientUnits="userSpaceOnUse" xlink:href="#linearGradient5330"/><radialGradient id="radialGradient5368" cx="24.188" cy="10.036" r="2.688" fx="24.188" fy="10.036" gradientTransform="matrix(2.175,0,0,2.175,-28.420311,-11.926601)" gradientUnits="userSpaceOnUse" xlink:href="#linearGradient5330"/><radialGradient id="radialGradient5364" cx="24.188" cy="10.036" r="2.688" fx="24.188" fy="10.036" gradientTransform="matrix(2.175,0,0,2.175,-28.420311,-11.926601)" gradientUnits="userSpaceOnUse" xlink:href="#linearGradient5330"/><radialGradient id="radialGradient5360" cx="24.188" cy="10.036" r="2.688" fx="24.188" fy="10.036" gradientTransform="matrix(2.175,0,0,2.175,-28.420311,-11.926601)" gradientUnits="userSpaceOnUse" xlink:href="#linearGradient5330"/><radialGradient id="radialGradient5356" cx="24.188" cy="10.036" r="2.688" fx="24.188" fy="10.036" gradientTransform="matrix(2.175,0,0,2.175,-28.420311,-11.926601)" gradientUnits="userSpaceOnUse" xlink:href="#linearGradient5330"/><radialGradient id="radialGradient5352" cx="24.188" cy="10.036" r="2.688" fx="24.188" fy="10.036" gradientTransform="matrix(2.175,0,0,2.175,-28.420311,-11.926601)" gradientUnits="userSpaceOnUse" xlink:href="#linearGradient5330"/><radialGradient id="radialGradient5348" cx="24.188" cy="10.036" r="2.688" fx="24.188" fy="10.036" gradientTransform="matrix(2.175,0,0,2.175,-28.420311,-11.926601)" gradientUnits="userSpaceOnUse" xlink:href="#linearGradient5330"/><radialGradient id="radialGradient5344" cx="24.188" cy="10.036" r="2.688" fx="24.188" fy="10.036" gradientTransform="matrix(2.175,0,0,2.175,-28.420311,-11.926601)" gradientUnits="userSpaceOnUse" xlink:href="#linearGradient5330"/><linearGradient id="linearGradient5330"><stop id="stop5334" offset="0" stop-color="#fff" stop-opacity="1"/><stop id="stop5340" offset=".575" stop-color="#2e2e2e" stop-opacity="1"/><stop id="stop5332" offset="1" stop-color="#cbcbcb" stop-opacity="1"/></linearGradient><radialGradient id="radialGradient5336" cx="24.188" cy="10.036" r="2.688" fx="24.188" fy="10.036" gradientTransform="matrix(2.175,0,0,2.175,-28.420311,-11.926601)" gradientUnits="userSpaceOnUse" xlink:href="#linearGradient5330"/><linearGradient id="linearGradient5312"><stop id="stop5314" offset="0" stop-color="#fff" stop-opacity="0"/><stop id="stop5320" offset=".5" stop-color="#fff" stop-opacity="1"/><stop id="stop5316" offset="1" stop-color="#fff" stop-opacity=".106"/></linearGradient><linearGradient id="linearGradient5318" x1="5.249" x2="36.812" y1="23.5" y2="23.5" gradientTransform="translate(-3.2988079e-4,0)" gradientUnits="userSpaceOnUse" xlink:href="#linearGradient5312"/><linearGradient id="linearGradient5300"><stop id="stop5302" offset="0" stop-color="#f8f8f7" stop-opacity="1"/><stop id="stop5310" offset=".545" stop-color="#b3b6af" stop-opacity="1"/><stop id="stop5304" offset=".673" stop-color="#6b7264" stop-opacity="1"/><stop id="stop5306" offset=".787" stop-color="#d1d5cc" stop-opacity="1"/><stop id="stop5308" offset="1" stop-color="#e0e3de" stop-opacity="1"/></linearGradient><radialGradient id="radialGradient15659" cx="21.723" cy="11.658" r="19.875" fx="21.723" fy="11.658" gradientTransform="matrix(1.376352,0,0,2.5935409,-8.1182089,-19.236296)" gradientUnits="userSpaceOnUse" xlink:href="#linearGradient5300"/><linearGradient id="linearGradient15679"><stop id="stop15681" offset="0" stop-color="#000" stop-opacity="1"/><stop id="stop15683" offset="1" stop-color="#000" stop-opacity="0"/></linearGradient><radialGradient id="radialGradient15685" cx="23.313" cy="40.938" r="17.188" fx="23.313" fy="40.938" gradientTransform="matrix(1,0,0,0.316364,0,27.98636)" gradientUnits="userSpaceOnUse" xlink:href="#linearGradient15679"/></defs><metadata id="metadata7520"/><g id="layer1"><path id="path15677" fill="url(#radialGradient15685)" fill-opacity="1" fill-rule="nonzero" stroke="none" stroke-dasharray="none" stroke-dashoffset="0" stroke-linecap="round" stroke-linejoin="round" stroke-miterlimit="4" stroke-opacity="1" stroke-width="1" marker-end="none" marker-mid="none" marker-start="none" d="M 40.5,40.9375 A 17.1875,5.4375 0 1 1 6.125,40.9375 A 17.1875,5.4375 0 1 1 40.5,40.9375 z" display="block" opacity=".369" overflow="visible" transform="translate(0.4050001,0.625)" visibility="visible" style="marker:none"/><path id="path15651" fill="url(#radialGradient15659)" fill-opacity="1" fill-rule="nonzero" stroke="#888a85" stroke-dasharray="none" stroke-dashoffset="0" stroke-linecap="round" stroke-linejoin="round" stroke-miterlimit="4" stroke-opacity="1" stroke-width="1" marker-end="none" marker-mid="none" marker-start="none" d="M 23.529998,3 C 16.129032,8.5765861 4.5300001,12 4.5300001,12 C 7.5300001,37.75 23.904998,44 23.904998,44 C 23.904998,44 40.029998,37.5 43.279998,11.625 C 43.279998,11.625 29.279998,6.5 23.529998,3 z" display="block" opacity="1" overflow="visible" visibility="visible" style="marker:none"/><path id="path15665" fill="none" fill-opacity="1" fill-rule="nonzero" stroke="url(#linearGradient5318)" stroke-dasharray="none" stroke-dashoffset="0" stroke-linecap="round" stroke-linejoin="round" stroke-miterlimit="4" stroke-opacity="1" stroke-width="1" marker-end="none" marker-mid="none" marker-start="none" d="M 23.553585,4.289309 C 16.618088,9.5151669 5.7485541,12.723272 5.7485541,12.723272 C 8.5598751,36.853777 23.865692,42.710696 23.865692,42.710696 C 23.865692,42.710696 39.015851,36.619501 42.061448,12.371857 C 42.061448,12.371857 28.94195,7.5691835 23.553585,4.289309 z" display="block" opacity="1" overflow="visible" visibility="visible" style="marker:none"/><path stroke-width="1" style="marker:none" id="path5326" fill="url(#radialGradient5336)" fill-opacity="1" fill-rule="nonzero" stroke="none" stroke-dasharray="none" stroke-dashoffset="0" stroke-linecap="round" stroke-linejoin="round" stroke-miterlimit="4" stroke-opacity=".106" marker-end="none" marker-mid="none" marker-start="none" d="M 26.875,11.3125 A 2.6875,2.6875 0 1 1 21.5,11.3125 A 2.6875,2.6875 0 1 1 26.875,11.3125 z" display="inline" enable-background="accumulate" opacity="1" overflow="visible" transform="matrix(0.5581396,0,0,0.5581396,10.12467,1.4360465)" visibility="visible"/><path stroke-width="1" style="marker:none" id="path5342" fill="url(#radialGradient5344)" fill-opacity="1" fill-rule="nonzero" stroke="none" stroke-dasharray="none" stroke-dashoffset="0" stroke-linecap="round" stroke-linejoin="round" stroke-miterlimit="4" stroke-opacity=".106" marker-end="none" marker-mid="none" marker-start="none" d="M 26.875,11.3125 A 2.6875,2.6875 0 1 1 21.5,11.3125 A 2.6875,2.6875 0 1 1 26.875,11.3125 z" display="inline" enable-background="accumulate" opacity="1" overflow="visible" transform="matrix(0.5581396,0,0,0.5581396,-5.0628299,8.3110461)" visibility="visible"/><path stroke-width="1" style="marker:none" id="path5346" fill="url(#radialGradient5348)" fill-opacity="1" fill-rule="nonzero" stroke="none" stroke-dasharray="none" stroke-dashoffset="0" stroke-linecap="round" stroke-linejoin="round" stroke-miterlimit="4" stroke-opacity=".106" marker-end="none" marker-mid="none" marker-start="none" d="M 26.875,11.3125 A 2.6875,2.6875 0 1 1 21.5,11.3125 A 2.6875,2.6875 0 1 1 26.875,11.3125 z" display="inline" enable-background="accumulate" opacity="1" overflow="visible" transform="matrix(0.5581396,0,0,0.5581396,25.874669,8.0610459)" visibility="visible"/><path stroke-width="1" style="marker:none" id="path5350" fill="url(#radialGradient5352)" fill-opacity="1" fill-rule="nonzero" stroke="none" stroke-dasharray="none" stroke-dashoffset="0" stroke-linecap="round" stroke-linejoin="round" stroke-miterlimit="4" stroke-opacity=".106" marker-end="none" marker-mid="none" marker-start="none" d="M 26.875,11.3125 A 2.6875,2.6875 0 1 1 21.5,11.3125 A 2.6875,2.6875 0 1 1 26.875,11.3125 z" display="inline" enable-background="accumulate" opacity="1" overflow="visible" transform="matrix(0.385474,0,0,0.385474,14.696795,33.603363)" visibility="visible"/><path stroke-width="1" style="marker:none" id="path5354" fill="url(#radialGradient5356)" fill-opacity="1" fill-rule="nonzero" stroke="none" stroke-dasharray="none" stroke-dashoffset="0" stroke-linecap="round" stroke-linejoin="round" stroke-miterlimit="4" stroke-opacity=".106" marker-end="none" marker-mid="none" marker-start="none" d="M 26.875,11.3125 A 2.6875,2.6875 0 1 1 21.5,11.3125 A 2.6875,2.6875 0 1 1 26.875,11.3125 z" display="inline" enable-background="accumulate" opacity="1" overflow="visible" transform="matrix(0.385474,0,0,0.385474,14.676018,23.706537)" visibility="visible"/><path stroke-width="1" style="marker:none" id="path5358" fill="url(#radialGradient5360)" fill-opacity="1" fill-rule="nonzero" stroke="none" stroke-dasharray="none" stroke-dashoffset="0" stroke-linecap="round" stroke-linejoin="round" stroke-miterlimit="4" stroke-opacity=".106" marker-end="none" marker-mid="none" marker-start="none" d="M 26.875,11.3125 A 2.6875,2.6875 0 1 1 21.5,11.3125 A 2.6875,2.6875 0 1 1 26.875,11.3125 z" display="inline" enable-background="accumulate" opacity="1" overflow="visible" transform="matrix(0.385474,0,0,0.385474,14.863518,18.519037)" visibility="visible"/><path stroke-width="1" style="marker:none" id="path5362" fill="url(#radialGradient5364)" fill-opacity="1" fill-rule="nonzero" stroke="none" stroke-dasharray="none" stroke-dashoffset="0" stroke-linecap="round" stroke-linejoin="round" stroke-miterlimit="4" stroke-opacity=".106" marker-end="none" marker-mid="none" marker-start="none" d="M 26.875,11.3125 A 2.6875,2.6875 0 1 1 21.5,11.3125 A 2.6875,2.6875 0 1 1 26.875,11.3125 z" display="inline" enable-background="accumulate" opacity="1" overflow="visible" transform="matrix(0.385474,0,0,0.385474,14.738518,13.603364)" visibility="visible"/><path stroke-width="1" style="marker:none" id="path5366" fill="url(#radialGradient5368)" fill-opacity="1" fill-rule="nonzero" stroke="none" stroke-dasharray="none" stroke-dashoffset="0" stroke-linecap="round" stroke-linejoin="round" stroke-miterlimit="4" stroke-opacity=".106" marker-end="none" marker-mid="none" marker-start="none" d="M 26.875,11.3125 A 2.6875,2.6875 0 1 1 21.5,11.3125 A 2.6875,2.6875 0 1 1 26.875,11.3125 z" display="inline" enable-background="accumulate" opacity="1" overflow="visible" transform="matrix(0.385474,0,0,0.385474,14.676018,8.728364)" visibility="visible"/><path stroke-width="1" style="marker:none" id="path5370" fill="url(#radialGradient5372)" fill-opacity="1" fill-rule="nonzero" stroke="none" stroke-dasharray="none" stroke-dashoffset="0" stroke-linecap="round" stroke-linejoin="round" stroke-miterlimit="4" stroke-opacity=".106" marker-end="none" marker-mid="none" marker-start="none" d="M 26.875,11.3125 A 2.6875,2.6875 0 1 1 21.5,11.3125 A 2.6875,2.6875 0 1 1 26.875,11.3125 z" display="inline" enable-background="accumulate" opacity="1" overflow="visible" transform="matrix(0.385474,0,0,0.385474,14.676018,28.706537)" visibility="visible"/></g></svg>