<svg xmlns="http://www.w3.org/2000/svg" xmlns:svg="http://www.w3.org/2000/svg" xmlns:xlink="http://www.w3.org/1999/xlink" id="svg7208" width="48" height="48"><defs id="defs7210"><linearGradient id="linearGradient3170"><stop id="stop3172" offset="0" stop-color="#fff" stop-opacity="1"/><stop id="stop3174" offset="1" stop-color="#fff" stop-opacity="0"/></linearGradient><linearGradient id="linearGradient3176" x1=".625" x2="12.823" y1="-2.156" y2="11.536" gradientTransform="matrix(2.5107934,0,0,2.4515,-1.8803985,-4.2017387)" gradientUnits="userSpaceOnUse" xlink:href="#linearGradient3170"/><linearGradient id="linearGradient4544"><stop id="stop4546" offset="0" stop-color="#fff" stop-opacity="1"/><stop id="stop4548" offset="1" stop-color="#fff" stop-opacity="0"/></linearGradient><linearGradient id="linearGradient4550" x1="13.077" x2="16.813" y1="13.515" y2="23.25" gradientTransform="matrix(2.832128,0,0,3.5,-7.0694367,-21.250462)" gradientUnits="userSpaceOnUse" xlink:href="#linearGradient4544"/><linearGradient id="linearGradient4552"><stop id="stop4554" offset="0" stop-color="#fff" stop-opacity="1"/><stop id="stop4556" offset="1" stop-color="#fff" stop-opacity="0"/></linearGradient><linearGradient id="linearGradient4558" x1="6" x2="7.125" y1="14.668" y2="23.125" gradientTransform="matrix(2.8571429,0,0,3.5000004,-3.6428217,-21.250464)" gradientUnits="userSpaceOnUse" xlink:href="#linearGradient4552"/><linearGradient id="linearGradient4524" x1="15.058" x2="15.14" y1="15.375" y2="18.125" gradientTransform="matrix(2.7686073,0,0,2.6666666,-7.3375947,-7.5004534)" gradientUnits="userSpaceOnUse" xlink:href="#linearGradient4501"/><linearGradient id="linearGradient4516" x1="7.027" x2="7.184" y1="15.229" y2="17.976" gradientTransform="matrix(2.7722511,0,0,2.6666082,-4.6086007,-7.4996667)" gradientUnits="userSpaceOnUse" xlink:href="#linearGradient4501"/><linearGradient id="linearGradient4530"><stop id="stop4532" offset="0" stop-color="#fff" stop-opacity="1"/><stop id="stop4534" offset="1" stop-color="#fff" stop-opacity="0"/></linearGradient><linearGradient id="linearGradient4536" x1="6.25" x2="13.438" y1="-.347" y2="21.716" gradientTransform="matrix(2.7999996,0,0,2.4958964,-6.2999637,-5.0652304)" gradientUnits="userSpaceOnUse" xlink:href="#linearGradient4530"/><linearGradient id="linearGradient4501"><stop id="stop4503" offset="0" stop-color="#efefed" stop-opacity="1"/><stop id="stop4505" offset="1" stop-color="#c5c6c4" stop-opacity="1"/></linearGradient><radialGradient id="radialGradient4507" cx="6.721" cy="4.173" r="9.023" fx="6.721" fy="4.173" gradientTransform="matrix(3.1561101,0,0,3.8253798,-7.6996747,-9.3836136)" gradientUnits="userSpaceOnUse" xlink:href="#linearGradient4501"/><linearGradient id="linearGradient4595"><stop id="stop4597" offset="0" stop-color="#878779" stop-opacity="1"/><stop id="stop4599" offset="1" stop-color="#878779" stop-opacity="0"/></linearGradient><radialGradient id="radialGradient4601" cx="10.969" cy="18.5" r="10.844" fx="10.969" fy="18.5" gradientTransform="matrix(1,0,0,0.3112392,0,12.742075)" gradientUnits="userSpaceOnUse" xlink:href="#linearGradient4595"/></defs><metadata id="metadata7213"/><g id="layer1"><path id="path4593" fill="url(#radialGradient4601)" fill-opacity="1" stroke="none" stroke-dasharray="none" stroke-miterlimit="4" stroke-opacity="1" stroke-width="1" d="M 21.8125,18.5 A 10.84375,3.375 0 1 1 0.125,18.5 A 10.84375,3.375 0 1 1 21.8125,18.5 z" opacity=".693" transform="matrix(2.3184886,0,0,1.7423523,-0.7168111,11.137043)"/><path id="rect3525" fill="url(#radialGradient4507)" fill-opacity="1" stroke="#888a85" stroke-miterlimit="4" stroke-opacity="1" stroke-width="1" d="M 11.339403,2.5090534 L 38.917881,2.5090534 C 42.60451,2.5090534 43.372555,3.2083733 43.533891,7.1196904 L 46.500035,38.910704 C 46.500035,41.464998 44.441293,43.521341 41.884022,43.521341 L 7.2324369,43.521341 C 3.0617986,43.521341 2.1324151,41.766559 2.6164252,38.910704 L 6.7233898,7.1196904 C 7.3687371,3.2083733 7.1687632,2.3582729 11.339403,2.5090534 z"/><path id="path4526" fill="none" fill-opacity="1" stroke="url(#linearGradient4536)" stroke-miterlimit="4" stroke-opacity="1" stroke-width="1" d="M 11.237612,3.5124358 L 38.962523,3.6684294 C 42.481576,3.6684294 42.164709,3.3708823 42.318715,6.9415526 L 45.500033,36.899764 C 45.500033,39.231596 43.534869,41.10885 41.093836,41.10885 L 8.0173265,41.10885 C 4.0362625,41.10885 3.1491245,39.506895 3.6111347,36.899764 L 7.5314177,7.8775137 C 8.1474308,4.3068434 7.256548,3.3747872 11.237612,3.5124358 z" opacity=".705"/><path id="path4496" fill="url(#linearGradient4516)" fill-opacity="1" fill-rule="evenodd" stroke="#888a85" stroke-linecap="butt" stroke-linejoin="miter" stroke-opacity="1" stroke-width="1" d="M 3.720466,28.499541 L 24.500034,28.499541 L 24.500034,44.499192 L 8.0397948,44.499192 C -0.97002108,44.554747 3.720466,37.943783 3.720466,28.499541 z"/><path id="path4498" fill="url(#linearGradient4524)" fill-opacity="1" fill-rule="evenodd" stroke="#888a85" stroke-linecap="butt" stroke-linejoin="miter" stroke-opacity="1" stroke-width="1" d="M 45.353658,28.66621 L 24.500036,28.499543 L 24.500036,44.416208 L 40.765605,44.499542 C 49.763578,44.221762 45.526694,39.277323 45.353658,28.66621 z"/><path id="path4538" fill="none" fill-opacity="1" fill-rule="evenodd" stroke="url(#linearGradient4558)" stroke-linecap="butt" stroke-linejoin="miter" stroke-opacity="1" stroke-width="1" d="M 4.6095178,29.499541 L 23.500034,29.499541 L 23.500034,43.499237 L 8.5361807,43.499237 C 0.34543872,43.547845 4.6095178,37.76325 4.6095178,29.499541 z" opacity=".345"/><path id="path4542" fill="none" fill-opacity="1" fill-rule="evenodd" stroke="url(#linearGradient4550)" stroke-linecap="butt" stroke-linejoin="miter" stroke-opacity="1" stroke-width="1" d="M 44.225162,29.499543 L 25.500034,29.499543 L 25.500034,43.499236 L 40.332879,43.499236 C 48.45191,43.547844 44.225162,37.763252 44.225162,29.499543 z" opacity=".345"/><path id="path2196" fill="url(#linearGradient3176)" fill-opacity="1" fill-rule="evenodd" stroke="none" stroke-linecap="butt" stroke-linejoin="miter" stroke-opacity="1" stroke-width="1" d="M 3.0000357,38.50196 L 7.8489263,4.5317299 C 7.8489263,4.5317299 8.0058511,2.9995424 10.202796,2.9995424 C 12.399739,2.9995424 39.390769,3.3059799 39.390769,3.3059799 C 39.390769,3.3059799 41.116941,2.9995424 41.901562,3.6124174 C 42.686184,4.2252924 43.000035,10.354042 43.000035,10.354042 C 43.000035,10.354042 27.932064,14.242563 24.685821,21.952469 C 20.798852,31.18411 3.3138849,38.50196 3.0000357,38.50196 z"/></g></svg>