<svg xmlns="http://www.w3.org/2000/svg" xmlns:svg="http://www.w3.org/2000/svg" xmlns:xlink="http://www.w3.org/1999/xlink" id="svg7253" width="48" height="48"><defs id="defs7255"><linearGradient id="linearGradient8365" x1="36.067" x2="33.853" y1="36.549" y2="30.059" gradientTransform="matrix(1,0,0,-1,6.2578798e-2,72.549078)" gradientUnits="userSpaceOnUse" xlink:href="#linearGradient8367"/><linearGradient id="linearGradient8434"><stop id="stop8436" offset="0" stop-color="#faf4ba" stop-opacity="1"/><stop id="stop8438" offset="1" stop-color="#faf4ba" stop-opacity="0"/></linearGradient><linearGradient id="linearGradient8440" x1="11.122" x2="23.706" y1="37.715" y2="38.802" gradientUnits="userSpaceOnUse" xlink:href="#linearGradient8434"/><linearGradient id="linearGradient8404" x1="27.123" x2="20.524" y1="27.949" y2="47.861" gradientUnits="userSpaceOnUse" xlink:href="#linearGradient8478"/><linearGradient id="linearGradient8408" x1="27.949" x2="19.406" y1="4.016" y2="9.163" gradientTransform="translate(2.9879836e-4,1.4811405e-4)" gradientUnits="userSpaceOnUse" xlink:href="#linearGradient8478"/><linearGradient id="linearGradient8372" x1="25" x2="21" y1="6.257" y2="4.844" gradientTransform="translate(2.9879836e-4,1.4811405e-4)" gradientUnits="userSpaceOnUse" xlink:href="#linearGradient8470"/><linearGradient id="linearGradient8420" x1="17.25" x2="30.524" y1="16.901" y2="8.446" gradientTransform="translate(2.9879836e-4,1.4811405e-4)" gradientUnits="userSpaceOnUse" xlink:href="#linearGradient8412"/><linearGradient id="linearGradient8388" x1="17.791" x2="26.862" y1="11.361" y2="14" gradientTransform="translate(2.9879836e-4,1.4811405e-4)" gradientUnits="userSpaceOnUse" xlink:href="#linearGradient8382"/><linearGradient id="linearGradient8410" x1="32.327" x2="15.445" y1="15.583" y2="26.642" gradientTransform="translate(2.9879836e-4,1.4811405e-4)" gradientUnits="userSpaceOnUse" xlink:href="#linearGradient8478"/><linearGradient id="linearGradient8364" x1="27.322" x2="16.6" y1="22.262" y2="19.092" gradientTransform="translate(2.9879836e-4,1.4811405e-4)" gradientUnits="userSpaceOnUse" xlink:href="#linearGradient8470"/><linearGradient id="linearGradient8412"><stop id="stop8414" offset="0" stop-color="#c9ccc6" stop-opacity="1"/><stop id="stop8416" offset="1" stop-color="#959a8f" stop-opacity="1"/></linearGradient><linearGradient id="linearGradient8418" x1="13.119" x2="35" y1="34.301" y2="23.908" gradientTransform="translate(2.9879836e-4,1.4811405e-4)" gradientUnits="userSpaceOnUse" xlink:href="#linearGradient8412"/><linearGradient id="linearGradient8382"><stop id="stop8384" offset="0" stop-color="#f9f9f8" stop-opacity="1"/><stop id="stop8386" offset="1" stop-color="#cecec8" stop-opacity="1"/></linearGradient><linearGradient id="linearGradient8396" x1="13.911" x2="27.926" y1="26" y2="30.866" gradientTransform="translate(2.9879836e-4,1.4811405e-4)" gradientUnits="userSpaceOnUse" xlink:href="#linearGradient8382"/><linearGradient id="linearGradient8406" x1="37.188" x2="11.558" y1="30.833" y2="40.522" gradientTransform="translate(2.9879836e-4,1.4811405e-4)" gradientUnits="userSpaceOnUse" xlink:href="#linearGradient8478"/><linearGradient id="linearGradient8356" x1="28.224" x2="9.789" y1="38" y2="31.274" gradientTransform="translate(2.9879836e-4,1.4811405e-4)" gradientUnits="userSpaceOnUse" spreadMethod="pad" xlink:href="#linearGradient8470"/><linearGradient id="linearGradient8367"><stop id="stop8369" offset="0" stop-color="#ce5c00" stop-opacity=".66"/><stop id="stop8371" offset="1" stop-color="#ff860f" stop-opacity="1"/></linearGradient><linearGradient id="linearGradient7588" x1="10.938" x2="13.633" y1="37.186" y2="29.569" gradientTransform="matrix(1,0,0,-1,6.2578798e-2,72.549078)" gradientUnits="userSpaceOnUse" xlink:href="#linearGradient8367"/><filter id="filter8545"><feGaussianBlur id="feGaussianBlur8547" stdDeviation=".265"/></filter><linearGradient id="linearGradient8479" x1="32.625" x2="43.547" y1="32.875" y2="29.67" gradientUnits="userSpaceOnUse" xlink:href="#linearGradient8473"/><linearGradient id="linearGradient8490"><stop id="stop8492" offset="0" stop-color="#fed394" stop-opacity="1"/><stop id="stop8494" offset="1" stop-color="#fdc778" stop-opacity=".709"/></linearGradient><linearGradient id="linearGradient8496" x1="139.859" x2="139.859" y1="187.658" y2="175.255" gradientTransform="translate(-114.99972,-145.07634)" gradientUnits="userSpaceOnUse" xlink:href="#linearGradient8490"/><filter id="filter8561"><feGaussianBlur id="feGaussianBlur8563" stdDeviation=".231"/></filter><linearGradient id="linearGradient8461"><stop id="stop8463" offset="0" stop-color="#da6100" stop-opacity="1"/><stop id="stop8465" offset="1" stop-color="#ee6a00" stop-opacity=".518"/></linearGradient><linearGradient id="linearGradient8459" x1="138.149" x2="138.138" y1="182.37" y2="188.389" gradientTransform="translate(-114.99972,-145.07634)" gradientUnits="userSpaceOnUse" xlink:href="#linearGradient8461"/><linearGradient id="linearGradient8478"><stop id="stop8480" offset="0" stop-color="#ce5c00" stop-opacity="1"/><stop id="stop8482" offset="1" stop-color="#ff860f" stop-opacity="1"/></linearGradient><linearGradient id="linearGradient8484" x1="19.515" x2="11.853" y1="30.107" y2="46.236" gradientTransform="translate(2.9879836e-4,1.4811405e-4)" gradientUnits="userSpaceOnUse" xlink:href="#linearGradient8478"/><linearGradient id="linearGradient8470"><stop id="stop8472" offset="0" stop-color="#f57900" stop-opacity="1"/><stop id="stop8474" offset="1" stop-color="#ffb255" stop-opacity="1"/></linearGradient><linearGradient id="linearGradient8476" x1="26.472" x2="18.722" y1="30.137" y2="46.943" gradientTransform="translate(2.9879836e-4,1.4811405e-4)" gradientUnits="userSpaceOnUse" xlink:href="#linearGradient8470"/><filter id="filter8555"><feGaussianBlur id="feGaussianBlur8557" stdDeviation=".661"/></filter><linearGradient id="linearGradient8473"><stop id="stop8475" offset="0" stop-color="#4f4f4f" stop-opacity=".56"/><stop id="stop8477" offset="1" stop-color="#636363" stop-opacity="0"/></linearGradient><radialGradient id="radialGradient8559" cx="144.174" cy="184.882" r="18.503" fx="144.174" fy="184.882" gradientTransform="matrix(1.5582236,-8.0484408e-2,4.4911216e-2,0.8695063,-88.78473,35.104662)" gradientUnits="userSpaceOnUse" xlink:href="#linearGradient8473"/></defs><metadata id="metadata7258"/><g id="layer1"><path id="path8549" fill="url(#radialGradient8559)" fill-opacity="1" fill-rule="evenodd" stroke="none" stroke-linecap="butt" stroke-linejoin="miter" stroke-opacity="1" stroke-width="1" d="M 123.67172,192.18734 L 123.67172,189.92319 L 127.31505,176.32607 L 157.00002,176.32607 L 160.67675,190.0478 L 160.67675,192.18734 L 123.67172,192.18734 z" filter="url(#filter8555)" transform="matrix(1.1114713,0,0,1.0236425,-133.91057,-149.24513)"/><path id="path7682" fill="url(#linearGradient8476)" fill-opacity="1" fill-rule="evenodd" stroke="url(#linearGradient8484)" stroke-linecap="butt" stroke-linejoin="miter" stroke-opacity="1" stroke-width="1" d="M 5.4342615,45.736001 L 5.4342615,43.47185 L 9.0776006,29.874724 L 38.762566,29.874724 L 42.439294,43.596458 L 42.439294,45.736001 L 5.4342615,45.736001 z"/><path id="path8488" fill="none" fill-rule="evenodd" stroke="url(#linearGradient8496)" stroke-linecap="butt" stroke-linejoin="miter" stroke-opacity="1" stroke-width="1" d="M 6.7071688,42.548738 L 9.8821886,30.740298 L 37.856909,30.740298 L 41.248229,42.434398"/><path id="path8471" fill="url(#linearGradient8479)" fill-opacity="1" fill-rule="evenodd" stroke="none" stroke-linecap="butt" stroke-linejoin="round" stroke-opacity="1" stroke-width="1" d="M 36.9375,36.250004 L 44.532445,31.146153 L 43.584699,28.238647 L 34.25,28.437504 L 36.9375,36.250004 z" filter="url(#filter8545)" opacity=".863" transform="matrix(1.3554656,0,0,1.3023177,-14.549388,-8.6505419)"/><path id="path8328" fill="url(#linearGradient8356)" fill-opacity="1" fill-rule="evenodd" stroke="url(#linearGradient8406)" stroke-linecap="butt" stroke-linejoin="round" stroke-opacity="1" stroke-width="1" d="M 13.062799,30.625148 L 11.437799,35.906398 L 11.500299,35.906398 C 11.428366,36.280492 11.495983,36.641297 11.719049,37.031398 C 13.074116,39.401145 19.697479,40.940934 26.500299,40.468898 C 32.766543,40.034095 36.991077,38.038624 36.562799,35.875148 L 36.687799,35.843898 L 34.969049,30.625148 L 13.062799,30.625148 z"/><path id="path8486" fill="none" fill-rule="evenodd" stroke="#fed9a1" stroke-linecap="butt" stroke-linejoin="miter" stroke-opacity="1" stroke-width="1" d="M 6.0002988,43.47185 L 41.841812,43.47185"/><path id="path8330" fill="url(#linearGradient8396)" fill-opacity="1" fill-rule="evenodd" stroke="url(#linearGradient8418)" stroke-linecap="butt" stroke-linejoin="round" stroke-opacity="1" stroke-width="1" d="M 32.656549,23.437648 L 15.187799,23.718898 L 13.437799,29.781398 L 13.312799,29.781398 C 13.09074,30.151206 13.049859,30.491639 13.125299,30.843898 C 13.159321,31.00276 13.218478,31.176699 13.312799,31.343898 C 14.4882,33.427487 20.224457,34.758932 26.125299,34.343898 C 31.04182,33.998096 34.498878,32.528334 34.844049,30.843898 L 35.000299,30.843898 L 34.844049,30.406398 C 34.81937,30.21376 34.79774,30.007535 34.687799,29.812648 L 32.656549,23.437648 z"/><path id="path8332" fill="url(#linearGradient8364)" fill-opacity="1" fill-rule="evenodd" stroke="url(#linearGradient8410)" stroke-dasharray="none" stroke-linecap="butt" stroke-linejoin="round" stroke-miterlimit="4" stroke-opacity="1" stroke-width="1" d="M 17.750299,15.437648 L 15.375299,23.343898 C 15.36193,23.38719 15.351651,23.426273 15.344049,23.468898 L 15.250299,23.750148 L 15.344049,23.750148 C 15.364371,23.898353 15.408379,24.061679 15.500299,24.218898 C 16.448514,25.840716 21.083745,26.885702 25.844049,26.562648 C 29.911352,26.286625 32.754184,25.103126 32.906549,23.750148 L 33.000299,23.750148 L 32.875299,23.343898 L 30.531549,15.437648 L 17.750299,15.437648 z"/><path id="path8334" fill="url(#linearGradient8388)" fill-opacity="1" fill-rule="evenodd" stroke="url(#linearGradient8420)" stroke-linecap="butt" stroke-linejoin="round" stroke-opacity="1" stroke-width="1" d="M 20.031549,8.2501478 L 18.000299,14.687648 L 17.906549,14.687648 C 17.764651,14.92448 17.716611,15.148066 17.781549,15.375148 L 17.750299,15.500148 L 17.812799,15.500148 C 17.829785,15.540264 17.852109,15.58395 17.875299,15.625148 C 18.565492,16.851324 21.941586,17.650642 25.406549,17.406398 C 28.13222,17.214266 30.117531,16.420882 30.500299,15.500148 L 30.531549,15.500148 L 30.500299,15.437648 C 30.581305,15.204248 30.574648,14.962019 30.437799,14.718898 L 30.281549,14.718898 L 28.312799,8.2501478 L 20.031549,8.2501478 z"/><path id="path8336" fill="url(#linearGradient8372)" fill-opacity="1" fill-rule="evenodd" stroke="url(#linearGradient8408)" stroke-linecap="butt" stroke-linejoin="round" stroke-opacity="1" stroke-width="1" d="M 21.781549,2.3751481 L 20.094049,7.6563978 L 20.062799,7.6563978 C 19.988498,7.7792278 19.955814,7.9151168 19.969049,8.0313978 L 19.906549,8.2501478 L 20.031549,8.2501478 C 20.478914,9.0373528 22.6919,9.5632028 24.937799,9.4063978 C 26.589309,9.2910928 27.800974,8.8217708 28.156549,8.2813978 L 28.312799,8.2813978 L 28.250299,8.0313978 C 28.266149,7.9151698 28.255562,7.8068868 28.187799,7.6876478 L 28.125299,7.6876478 L 26.500299,2.3751481 L 21.781549,2.3751481 z"/><path id="path8506" fill="#ffbe62" fill-opacity="1" stroke="url(#linearGradient8404)" stroke-dasharray="none" stroke-linecap="square" stroke-linejoin="miter" stroke-miterlimit="4" stroke-opacity="1" stroke-width="4.222" d="M 36.528304,36.176102 A 12.477988,4.3773589 0 1 1 11.572328,36.176102 A 12.477988,4.3773589 0 1 1 36.528304,36.176102 z" opacity="1" transform="matrix(0.1944796,0,0,0.232137,19.428349,-5.8458719)"/><path id="path8422" fill="none" fill-rule="evenodd" stroke="#fffeef" stroke-linecap="round" stroke-linejoin="miter" stroke-opacity=".429" stroke-width="1" d="M 22.216814,4.2496898 L 12.418649,36.198316"/><path id="path8430" fill="none" fill-rule="evenodd" stroke="#faf4ba" stroke-linecap="round" stroke-linejoin="miter" stroke-opacity=".385" stroke-width="1" d="M 26.025989,4.2056529 L 35.62599,35.934096"/><path id="path8432" fill="none" fill-opacity="1" stroke="url(#linearGradient8440)" stroke-dasharray="none" stroke-linecap="round" stroke-linejoin="miter" stroke-miterlimit="4" stroke-opacity=".385" stroke-width=".897" d="M 23.303041,40.786601 A 9.1859016,3.5809448 0 0 1 11.524279,38.214882" opacity="1" transform="matrix(1.2627702,0,0,1.0180231,-1.7184212,-2.2305219)"/></g></svg>