<svg xmlns="http://www.w3.org/2000/svg" xmlns:svg="http://www.w3.org/2000/svg" xmlns:xlink="http://www.w3.org/1999/xlink" id="svg7439" width="48" height="48"><defs id="defs7441"><linearGradient id="linearGradient3259"><stop id="stop3261" offset="0" stop-color="#729fcf" stop-opacity="1"/><stop id="stop3263" offset="1" stop-color="#3f7ab9" stop-opacity="1"/></linearGradient><linearGradient id="linearGradient3265" x1="25.191" x2="25.191" y1="8.667" y2="43.348" gradientTransform="matrix(1.0232558,0,0,1.0232558,-5.8140358e-2,-3.4883984e-2)" gradientUnits="userSpaceOnUse" xlink:href="#linearGradient3259"/><radialGradient id="radialGradient9190" cx="605.714" cy="486.648" r="117.143" fx="605.714" fy="486.648" gradientTransform="matrix(-2.774389,0,0,1.969706,112.7623,-872.8854)" gradientUnits="userSpaceOnUse" xlink:href="#linearGradient5060"/><linearGradient id="linearGradient5060"><stop id="stop5062" offset="0" stop-color="#000" stop-opacity="1"/><stop id="stop5064" offset="1" stop-color="#000" stop-opacity="0"/></linearGradient><radialGradient id="radialGradient9188" cx="605.714" cy="486.648" r="117.143" fx="605.714" fy="486.648" gradientTransform="matrix(2.774389,0,0,1.969706,-1891.633,-872.8854)" gradientUnits="userSpaceOnUse" xlink:href="#linearGradient5060"/><linearGradient id="linearGradient5048"><stop id="stop5050" offset="0" stop-color="#000" stop-opacity="0"/><stop id="stop5056" offset=".5" stop-color="#000" stop-opacity="1"/><stop id="stop5052" offset="1" stop-color="#000" stop-opacity="0"/></linearGradient><linearGradient id="linearGradient9186" x1="302.857" x2="302.857" y1="366.648" y2="609.505" gradientTransform="matrix(2.774389,0,0,1.969706,-1892.179,-872.8854)" gradientUnits="userSpaceOnUse" xlink:href="#linearGradient5048"/></defs><metadata id="metadata7444"/><g id="layer1"><g id="g13071" display="inline" transform="matrix(2.3640267e-2,0,0,2.0904881e-2,45.026494,41.1503)"><rect id="rect13073" width="1339.633" height="478.357" x="-1559.252" y="-150.697" fill="url(#linearGradient9186)" fill-opacity="1" fill-rule="nonzero" stroke="none" stroke-dasharray="none" stroke-dashoffset="0" stroke-linecap="round" stroke-linejoin="miter" stroke-miterlimit="4" stroke-opacity="1" stroke-width="1" marker-end="none" marker-mid="none" marker-start="none" display="inline" opacity=".6" overflow="visible" visibility="visible" style="marker:none"/><path id="path13075" fill="url(#radialGradient9188)" fill-opacity="1" fill-rule="nonzero" stroke="none" stroke-dasharray="none" stroke-dashoffset="0" stroke-linecap="round" stroke-linejoin="miter" stroke-miterlimit="4" stroke-opacity="1" stroke-width="1" marker-end="none" marker-mid="none" marker-start="none" d="M -219.61876,-150.68038 C -219.61876,-150.68038 -219.61876,327.65041 -219.61876,327.65041 C -76.744594,328.55086 125.78146,220.48075 125.78138,88.454235 C 125.78138,-43.572302 -33.655436,-150.68036 -219.61876,-150.68038 z" display="inline" opacity=".6" overflow="visible" visibility="visible" style="marker:none"/><path id="path13077" fill="url(#radialGradient9190)" fill-opacity="1" fill-rule="nonzero" stroke="none" stroke-dasharray="none" stroke-dashoffset="0" stroke-linecap="round" stroke-linejoin="miter" stroke-miterlimit="4" stroke-opacity="1" stroke-width="1" marker-end="none" marker-mid="none" marker-start="none" d="M -1559.2523,-150.68038 C -1559.2523,-150.68038 -1559.2523,327.65041 -1559.2523,327.65041 C -1702.1265,328.55086 -1904.6525,220.48075 -1904.6525,88.454235 C -1904.6525,-43.572302 -1745.2157,-150.68036 -1559.2523,-150.68038 z" display="inline" opacity=".6" overflow="visible" visibility="visible" style="marker:none"/></g><rect id="rect2286" width="44" height="44" x="2.5" y="1.5" fill="url(#linearGradient3265)" fill-opacity="1" fill-rule="nonzero" stroke="#204a87" stroke-dasharray="none" stroke-dashoffset="0" stroke-linecap="square" stroke-linejoin="miter" stroke-miterlimit="4" stroke-opacity="1" stroke-width="1" opacity="1" rx="5" ry="5"/><rect id="rect3257" width="42" height="42" x="3.5" y="2.5" fill="none" fill-opacity="1" fill-rule="nonzero" stroke="#eeeeec" stroke-dasharray="none" stroke-dashoffset="0" stroke-linecap="square" stroke-linejoin="miter" stroke-miterlimit="4" stroke-opacity="1" stroke-width="1" opacity=".363" rx="4" ry="4"/><g id="g3297" opacity=".192"><path id="path3261" fill="#000" fill-opacity="1" fill-rule="nonzero" stroke="#000" stroke-dasharray="none" stroke-dashoffset="0" stroke-linecap="square" stroke-linejoin="miter" stroke-miterlimit="4" stroke-opacity="1" stroke-width="1" d="M 9,5.472272 C 7.62,5.472272 6.5,6.592272 6.5,7.972272 C 6.554785,11.816182 6.500205,16.010888 6.5,19.972272 C 6.5,21.352272 7.620001,22.472272 9,22.472272 C 10.38,22.472272 11.500001,21.352272 11.5,19.972272 L 11.5,13.909772 L 16.5,18.909772 L 16.5,20.472272 L 16.5,23.5 L 21.5,23.5 L 21.5,22.472272 C 21.5,20.47039 21.500142,20.472272 23.5,20.472272 L 24.483534,20.472272 L 24.483534,15.472272 L 21.5,15.472272 L 20.125,15.472272 L 15.125,10.472272 C 17.117064,10.472581 19.139023,10.472272 21,10.472272 C 22.38,10.472272 23.5,9.352272 23.5,7.972272 C 23.5,6.592272 22.38,5.472272 21,5.472272 C 17.156131,5.529199 12.96161,5.472934 9,5.472272 z" opacity="1"/><path id="path3259" fill="#000" fill-opacity="1" fill-rule="nonzero" stroke="#000" stroke-dasharray="none" stroke-dashoffset="0" stroke-linecap="square" stroke-linejoin="miter" stroke-miterlimit="4" stroke-opacity="1" stroke-width="1" d="M 41.983534,5.472272 C 43.363534,5.472272 44.483534,6.592272 44.483534,7.972272 C 44.428749,11.816182 44.483329,16.010888 44.483534,19.972272 C 44.483534,21.352272 43.363533,22.472272 41.983534,22.472272 C 40.603534,22.472272 39.483533,21.352272 39.483534,19.972272 L 39.483534,13.909772 L 34.483534,18.909772 L 34.483534,20.472272 L 34.483534,23.5 L 29.483534,23.5 L 29.483534,22.472272 C 29.483534,20.47039 29.483392,20.472272 27.483534,20.472272 L 26.5,20.472272 L 26.5,15.472272 L 29.483534,15.472272 L 30.858534,15.472272 L 35.858534,10.472272 C 33.86647,10.472581 31.844511,10.472272 29.983534,10.472272 C 28.603534,10.472272 27.483534,9.352272 27.483534,7.972272 C 27.483534,6.592272 28.603534,5.472272 29.983534,5.472272 C 33.827403,5.529199 38.021924,5.472934 41.983534,5.472272 z" opacity="1"/><path id="path3257" fill="#000" fill-opacity="1" fill-rule="nonzero" stroke="#000" stroke-dasharray="none" stroke-dashoffset="0" stroke-linecap="square" stroke-linejoin="miter" stroke-miterlimit="4" stroke-opacity="1" stroke-width="1" d="M 41.983534,43.5 C 43.244744,43.5 44.483534,42.074794 44.483534,41 C 44.428749,37.15609 44.483329,32.961384 44.483534,29 C 44.483534,27.62 43.363533,26.5 41.983534,26.5 C 40.603534,26.5 39.483533,27.62 39.483534,29 L 39.483534,35.0625 L 34.483534,30.0625 L 34.483534,28.5 L 34.483534,25.472272 L 29.483534,25.472272 L 29.483534,26.5 C 29.483534,28.501882 29.483392,28.5 27.483534,28.5 L 26.5,28.5 L 26.5,33.5 L 29.483534,33.5 L 30.858534,33.5 L 35.858534,38.5 C 33.86647,38.499691 31.844511,38.5 29.983534,38.5 C 28.603534,38.5 27.483534,39.62 27.483534,41 C 27.483534,42.38 28.603534,43.5 29.983534,43.5 C 33.827403,43.443073 38.021924,43.499338 41.983534,43.5 z" opacity="1"/><path id="path3255" fill="#000" fill-opacity="1" fill-rule="nonzero" stroke="#000" stroke-dasharray="none" stroke-dashoffset="0" stroke-linecap="square" stroke-linejoin="miter" stroke-miterlimit="4" stroke-opacity="1" stroke-width="1" d="M 16.5,25.5 L 16.5,30.5 C 16.5,32.156 17.843999,33.5 19.5,33.5 L 24.5,33.5 L 24.5,28.5 L 22.53125,28.5 C 21.518334,28.5 21.5,28.481851 21.5,27.5 L 21.5,25.5 L 16.5,25.5 z" opacity="1"/></g><g id="g3269" stroke="#836700" stroke-opacity="1"><path id="path3326" fill="#ffd201" fill-opacity="1" fill-rule="nonzero" stroke="#836700" stroke-dasharray="none" stroke-dashoffset="0" stroke-linecap="square" stroke-linejoin="miter" stroke-miterlimit="4" stroke-opacity="1" stroke-width="1" d="M 8,4.5 C 6.62,4.5 5.5,5.62 5.5,7 C 5.554785,10.84391 5.500205,15.038616 5.5,19 C 5.5,20.38 6.620001,21.5 8,21.5 C 9.38,21.5 10.500001,20.38 10.5,19 L 10.5,12.9375 L 15.5,17.9375 L 15.5,19.5 L 15.5,22.527728 L 20.5,22.527728 L 20.5,21.5 C 20.5,19.498118 20.500142,19.5 22.5,19.5 L 23.483534,19.5 L 23.483534,14.5 L 20.5,14.5 L 19.125,14.5 L 14.125,9.5 C 16.117064,9.5003089 18.139023,9.5 20,9.5 C 21.38,9.5 22.5,8.3799999 22.5,7 C 22.5,5.62 21.38,4.5 20,4.5 C 16.156131,4.5569268 11.96161,4.5006617 8,4.5 z" opacity="1"/><path id="path3332" fill="#ffd201" fill-opacity="1" fill-rule="nonzero" stroke="#836700" stroke-dasharray="none" stroke-dashoffset="0" stroke-linecap="square" stroke-linejoin="miter" stroke-miterlimit="4" stroke-opacity="1" stroke-width="1" d="M 40.983534,4.472272 C 42.363534,4.472272 43.483534,5.592272 43.483534,6.972272 C 43.428749,10.816182 43.483329,15.010888 43.483534,18.972272 C 43.483534,20.352272 42.363533,21.472272 40.983534,21.472272 C 39.603534,21.472272 38.483533,20.352272 38.483534,18.972272 L 38.483534,12.909772 L 33.483534,17.909772 L 33.483534,19.472272 L 33.483534,22.5 L 28.483534,22.5 L 28.483534,21.472272 C 28.483534,19.47039 28.483392,19.472272 26.483534,19.472272 L 25.5,19.472272 L 25.5,14.472272 L 28.483534,14.472272 L 29.858534,14.472272 L 34.858534,9.472272 C 32.86647,9.4725809 30.844511,9.472272 28.983534,9.472272 C 27.603534,9.472272 26.483534,8.3522719 26.483534,6.972272 C 26.483534,5.592272 27.603534,4.472272 28.983534,4.472272 C 32.827403,4.5291988 37.021924,4.4729337 40.983534,4.472272 z" opacity="1"/><path id="path3334" fill="#ffd201" fill-opacity="1" fill-rule="nonzero" stroke="#836700" stroke-dasharray="none" stroke-dashoffset="0" stroke-linecap="square" stroke-linejoin="miter" stroke-miterlimit="4" stroke-opacity="1" stroke-width="1" d="M 40.983534,42.5 C 42.363534,42.5 43.483534,41.38 43.483534,40 C 43.428749,36.15609 43.483329,31.961384 43.483534,28 C 43.483534,26.62 42.363533,25.5 40.983534,25.5 C 39.603534,25.5 38.483533,26.62 38.483534,28 L 38.483534,34.0625 L 33.483534,29.0625 L 33.483534,27.5 L 33.483534,24.472272 L 28.483534,24.472272 L 28.483534,25.5 C 28.483534,27.501882 28.483392,27.5 26.483534,27.5 L 25.5,27.5 L 25.5,32.5 L 28.483534,32.5 L 29.858534,32.5 L 34.858534,37.5 C 32.86647,37.499691 30.844511,37.5 28.983534,37.5 C 27.603534,37.5 26.483534,38.62 26.483534,40 C 26.483534,41.38 27.603534,42.5 28.983534,42.5 C 32.827403,42.443073 37.021924,42.499338 40.983534,42.5 z" opacity="1"/><path id="rect3338" fill="#ffd201" fill-opacity="1" fill-rule="nonzero" stroke="#836700" stroke-dasharray="none" stroke-dashoffset="0" stroke-linecap="square" stroke-linejoin="miter" stroke-miterlimit="4" stroke-opacity="1" stroke-width="1" d="M 15.5,24.5 L 15.5,29.5 C 15.5,31.156 16.843999,32.5 18.5,32.5 L 23.5,32.5 L 23.5,27.5 L 21.53125,27.5 C 20.518334,27.5 20.5,27.481851 20.5,26.5 L 20.5,24.5 L 15.5,24.5 z" opacity="1"/></g><g id="g3343" opacity=".5"><path id="path3363" fill="none" fill-opacity="1" fill-rule="nonzero" stroke="#fff" stroke-dasharray="none" stroke-dashoffset="0" stroke-linecap="square" stroke-linejoin="miter" stroke-miterlimit="4" stroke-opacity="1" stroke-width="1" d="M 8.724257,5.5 C 6.9339673,5.5 6.5000002,5.8679688 6.5000002,7.7188043 C 6.5487426,11.130358 6.5001826,14.853251 6.5000002,18.369065 C 6.5000002,19.593845 6.7464682,20.499482 7.9742572,20.499482 C 9.202047,20.499482 9.511015,19.593845 9.511014,18.369065 L 9.511014,10.613465 L 16.522028,17.551073 L 16.522028,18.812826 L 16.522028,21.5 L 19.470542,21.5 L 19.470542,20.58787 C 19.470542,19.061156 20.344143,18.500326 21.624948,18.500326 L 22.500001,18.500326 L 22.500001,15.500217 L 19.845542,15.500217 L 18.747201,15.500217 L 11.673687,8.5001086 C 13.446032,8.500383 17.568197,8.5001086 19.223914,8.5001086 C 20.451704,8.5001086 21.448171,8.1935843 21.448171,6.9688043 C 21.448171,5.7440244 20.628481,5.5 19.400691,5.5 C 15.98079,5.5505239 12.248913,5.5005873 8.724257,5.5 z" opacity="1"/><path id="path3365" fill="none" fill-opacity="1" fill-rule="nonzero" stroke="#fff" stroke-dasharray="none" stroke-dashoffset="0" stroke-linecap="square" stroke-linejoin="miter" stroke-miterlimit="4" stroke-opacity="1" stroke-width="1" d="M 40.275744,5.5 C 42.066034,5.5 42.500001,5.8679688 42.500001,7.7188043 C 42.451258,11.130358 42.499818,14.853251 42.500001,18.369065 C 42.500001,19.593845 42.253533,20.499482 41.025744,20.499482 C 39.797954,20.499482 39.488986,19.593845 39.488987,18.369065 L 39.488987,10.613465 L 32.477973,17.551073 L 32.477973,18.812826 L 32.477973,21.5 L 29.529459,21.5 L 29.529459,20.58787 C 29.529459,19.061156 28.655858,18.500326 27.375053,18.500326 L 26.5,18.500326 L 26.5,15.500217 L 29.154459,15.500217 L 30.2528,15.500217 L 37.326314,8.5001086 C 35.553969,8.500383 31.431804,8.5001086 29.776087,8.5001086 C 28.548297,8.5001086 27.55183,8.1935843 27.55183,6.9688043 C 27.55183,5.7440244 28.37152,5.5 29.59931,5.5 C 33.019211,5.5505239 36.751088,5.5005873 40.275744,5.5 z" opacity="1"/><path id="path3367" fill="none" fill-opacity="1" fill-rule="nonzero" stroke="#fff" stroke-dasharray="none" stroke-dashoffset="0" stroke-linecap="square" stroke-linejoin="miter" stroke-miterlimit="4" stroke-opacity="1" stroke-width="1" d="M 40.275744,41.5 C 42.066034,41.5 42.500001,41.132031 42.500001,39.281196 C 42.451258,35.869642 42.499818,32.146749 42.500001,28.630935 C 42.500001,27.406155 42.253533,26.500518 41.025744,26.500518 C 39.797954,26.500518 39.488986,27.406155 39.488987,28.630935 L 39.488987,36.386535 L 32.477973,29.448927 L 32.477973,28.187174 L 32.477973,25.5 L 29.529459,25.5 L 29.529459,26.41213 C 29.529459,27.938844 28.655858,28.499674 27.375053,28.499674 L 26.5,28.499674 L 26.5,31.499783 L 29.154459,31.499783 L 30.2528,31.499783 L 37.326314,38.499891 C 35.553969,38.499617 31.431804,38.499891 29.776087,38.499891 C 28.548297,38.499891 27.55183,38.806416 27.55183,40.031196 C 27.55183,41.255976 28.37152,41.5 29.59931,41.5 C 33.019211,41.449476 36.751088,41.499413 40.275744,41.5 z" opacity="1"/><path id="path2236" fill="none" fill-opacity="1" fill-rule="nonzero" stroke="#fff" stroke-dasharray="none" stroke-dashoffset="0" stroke-linecap="square" stroke-linejoin="miter" stroke-miterlimit="4" stroke-opacity="1" stroke-width="1" d="M 16.5,25.5 L 16.5,29.25 C 16.5,30.679842 17.288915,31.5 18.75,31.5 L 22.5,31.5 L 22.5,28.5 L 21.023437,28.5 C 20.169428,28.5 19.5,27.923888 19.5,27 L 19.5,25.5 L 16.5,25.5 z" opacity="1"/></g><path id="rect3267" fill="#fff" fill-opacity="1" fill-rule="nonzero" stroke="none" stroke-dashoffset="0" stroke-linecap="square" stroke-linejoin="miter" stroke-miterlimit="4" stroke-opacity="1" stroke-width="1" d="M 7.1159206,1.9999997 L 41.77513,1.9999997 C 43.743725,1.9999997 45.641051,3.5609997 45.641051,5.4999997 L 46,21.38128 L 2.9999996,25.270367 L 2.9999996,5.9374997 C 2.9999996,3.9984997 5.1473256,1.9999997 7.1159206,1.9999997 z" opacity=".11"/></g></svg>