<svg xmlns="http://www.w3.org/2000/svg" xmlns:svg="http://www.w3.org/2000/svg" xmlns:xlink="http://www.w3.org/1999/xlink" id="svg7725" width="48" height="48"><defs id="defs7727"><linearGradient id="linearGradient5254" x1="17.464" x2="28.371" y1="19.713" y2="28.773" gradientTransform="matrix(0.9998812,0,0,1,7.0393417e-4,2.2499804)" gradientUnits="userSpaceOnUse" xlink:href="#linearGradient6957"/><linearGradient id="linearGradient6957"><stop id="stop6959" offset="0" stop-color="#555753" stop-opacity="1"/><stop id="stop6961" offset="1" stop-color="#555753" stop-opacity="0"/></linearGradient><linearGradient id="linearGradient5257" x1="17.464" x2="28.371" y1="19.713" y2="28.773" gradientTransform="matrix(0.9998812,0,0,1,7.0393417e-4,2.2499804)" gradientUnits="userSpaceOnUse" xlink:href="#linearGradient6957"/><linearGradient id="linearGradient6786"><stop id="stop6788" offset="0" stop-color="#e4d59c" stop-opacity="1"/><stop id="stop6790" offset="1" stop-color="#cba051" stop-opacity="1"/></linearGradient><radialGradient id="radialGradient5260" cx="19.438" cy="16.93" r="12" fx="19.438" fy="16.93" gradientTransform="matrix(1.2602673,2.083328e-2,-2.0655836e-2,1.249829,-4.3991539,-4.1273121)" gradientUnits="userSpaceOnUse" xlink:href="#linearGradient6786"/><linearGradient id="linearGradient6936"><stop id="stop6938" offset="0" stop-color="#121529" stop-opacity="1"/><stop id="stop6940" offset="1" stop-color="#454d4f" stop-opacity="1"/></linearGradient><radialGradient id="radialGradient5264" cx="21.771" cy="27.307" r="17" fx="21.771" fy="27.307" gradientTransform="matrix(1.9391136,5.199315e-3,-3.1536933e-3,1.176467,-12.17013,-2.0528306)" gradientUnits="userSpaceOnUse" xlink:href="#linearGradient6936"/><linearGradient id="linearGradient7005"><stop id="stop7007" offset="0" stop-color="#000" stop-opacity="1"/><stop id="stop7009" offset="1" stop-color="#000" stop-opacity="0"/></linearGradient><radialGradient id="radialGradient5243" cx="25.073" cy="43.121" r="15.91" fx="25.073" fy="43.121" gradientTransform="matrix(0.868778,-8.904868e-3,1.659211e-3,0.214718,3.218617,33.53771)" gradientUnits="userSpaceOnUse" xlink:href="#linearGradient7005"/><clipPath id="clipPath21144" clipPathUnits="userSpaceOnUse"><g id="g21146" transform="matrix(-0.7037059,0.7104914,0.7104914,0.7037059,-16.407492,-43.206075)"><rect id="rect21148" width="4.349" height="12.844" x="73.905" y="-11.995" fill="url(#linearGradient21162)" fill-opacity="1" stroke="#2e3436" stroke-dasharray="none" stroke-linecap="round" stroke-linejoin="miter" stroke-miterlimit="4" stroke-opacity="1" stroke-width="1" rx=".993" ry="1.508" transform="matrix(-5.5313508e-3,0.9999847,0.9999971,2.3967825e-3,0,0)"/><path id="path21150" fill="url(#linearGradient21164)" fill-opacity="1" stroke="#555753" stroke-dasharray="none" stroke-linecap="round" stroke-linejoin="miter" stroke-miterlimit="4" stroke-opacity="1" stroke-width="1.121" d="M -2.96875,68.09375 L -7.4375,72.46875 L 13.21875,93.75 L 18.375,94.5 L 17.71875,89.40625 L -2.96875,68.09375 z" transform="matrix(0.8623492,-0.4616107,0.8815324,0.4515655,-55.085982,42.046445)"/><path id="path21152" fill="none" fill-opacity="1" stroke="#fff" stroke-linecap="round" stroke-linejoin="miter" stroke-miterlimit="4" stroke-opacity="1" stroke-width="1.121" d="M -3.2900066,69.613052 L -6.0410354,72.259586 L 13.802122,92.572922 L 16.96875,93.0625 L 16.54831,89.892678 L -3.2900066,69.613052 z" opacity=".5" transform="matrix(0.8623492,-0.4616107,0.8815324,0.4515655,-55.085982,42.046445)"/><rect id="rect21154" width="2.55" height="10.711" x="74.976" y="-11.088" fill="none" fill-opacity="1" stroke="#fff" stroke-dasharray="none" stroke-linecap="round" stroke-linejoin="miter" stroke-miterlimit="4" stroke-opacity="1" stroke-width=".956" opacity=".3" rx=".402" ry=".621" transform="matrix(-5.6287882e-3,0.9999842,0.9999972,2.355292e-3,0,0)"/><path id="path21156" fill="#babdb6" fill-opacity="1" stroke="#555753" stroke-dasharray="none" stroke-linecap="round" stroke-linejoin="miter" stroke-miterlimit="4" stroke-opacity="1" stroke-width="1.228" d="M -6.21875,64.59375 L -11.9375,66.34375 L -12.03125,85.3125 L -6.28125,87.125 L -7.9375,80.875 C -7.953337,80.834879 -7.9638432,80.792854 -7.96875,80.75 L -7.9375,70.90625 C -7.9325932,70.863396 -7.922087,70.821371 -7.90625,70.78125 L -6.21875,64.59375 z" transform="matrix(1.003826,-2.0360776e-4,3.093131e-4,0.6607763,9.9454153,26.021366)"/><path id="path21158" fill="none" fill-opacity="1" stroke="#fff" stroke-linecap="round" stroke-linejoin="miter" stroke-miterlimit="4" stroke-opacity="1" stroke-width="1.228" d="M -7.9356394,66.553565 L -10.924472,67.4195 L -10.929606,84.080218 L -7.9414224,85.321221 L -8.8737355,81.138583 L -8.8737355,81.107333 C -8.8963206,81.033558 -8.9310649,80.965632 -8.9362355,80.888583 C -8.9366502,80.87817 -8.9366502,80.867746 -8.9362355,80.857333 L -8.9049855,70.951083 C -8.9054002,70.94067 -8.9054002,70.930246 -8.9049855,70.919833 C -8.8998149,70.842784 -8.8650706,70.774858 -8.8424855,70.701083 L -8.8424855,70.669833 L -7.9356394,66.553565 z" opacity=".4" transform="matrix(1.003826,-2.0360776e-4,3.093131e-4,0.6607763,9.9454153,26.021366)"/><rect id="rect21160" width=".901" height="32.05" x="75.671" y="5.984" fill="#000" fill-opacity="1" stroke="none" stroke-dasharray="none" stroke-linecap="round" stroke-linejoin="miter" stroke-miterlimit="4" stroke-opacity="1" stroke-width="1" opacity=".147" rx="0" ry="0" transform="matrix(-4.2632175e-3,0.9999909,0.9999952,3.1038537e-3,0,0)"/></g></clipPath><clipPath id="clipPath21182" clipPathUnits="userSpaceOnUse"><g id="g21184" transform="matrix(0.7037059,0.7104914,-0.7104914,0.7037059,64.330465,-43.206075)"><rect id="rect21186" width="4.349" height="12.844" x="73.905" y="-11.995" fill="url(#linearGradient21200)" fill-opacity="1" stroke="#2e3436" stroke-dasharray="none" stroke-linecap="round" stroke-linejoin="miter" stroke-miterlimit="4" stroke-opacity="1" stroke-width="1" rx=".993" ry="1.508" transform="matrix(-5.5313508e-3,0.9999847,0.9999971,2.3967825e-3,0,0)"/><path id="path21188" fill="url(#linearGradient21202)" fill-opacity="1" stroke="#555753" stroke-dasharray="none" stroke-linecap="round" stroke-linejoin="miter" stroke-miterlimit="4" stroke-opacity="1" stroke-width="1.121" d="M -2.96875,68.09375 L -7.4375,72.46875 L 13.21875,93.75 L 18.375,94.5 L 17.71875,89.40625 L -2.96875,68.09375 z" transform="matrix(0.8623492,-0.4616107,0.8815324,0.4515655,-55.085982,42.046445)"/><path id="path21190" fill="none" fill-opacity="1" stroke="#fff" stroke-linecap="round" stroke-linejoin="miter" stroke-miterlimit="4" stroke-opacity="1" stroke-width="1.121" d="M -3.2900066,69.613052 L -6.0410354,72.259586 L 13.802122,92.572922 L 16.96875,93.0625 L 16.54831,89.892678 L -3.2900066,69.613052 z" opacity=".5" transform="matrix(0.8623492,-0.4616107,0.8815324,0.4515655,-55.085982,42.046445)"/><rect id="rect21192" width="2.55" height="10.711" x="74.976" y="-11.088" fill="none" fill-opacity="1" stroke="#fff" stroke-dasharray="none" stroke-linecap="round" stroke-linejoin="miter" stroke-miterlimit="4" stroke-opacity="1" stroke-width=".956" opacity=".3" rx=".402" ry=".621" transform="matrix(-5.6287882e-3,0.9999842,0.9999972,2.355292e-3,0,0)"/><path id="path21194" fill="#babdb6" fill-opacity="1" stroke="#555753" stroke-dasharray="none" stroke-linecap="round" stroke-linejoin="miter" stroke-miterlimit="4" stroke-opacity="1" stroke-width="1.228" d="M -6.21875,64.59375 L -11.9375,66.34375 L -12.03125,85.3125 L -6.28125,87.125 L -7.9375,80.875 C -7.953337,80.834879 -7.9638432,80.792854 -7.96875,80.75 L -7.9375,70.90625 C -7.9325932,70.863396 -7.922087,70.821371 -7.90625,70.78125 L -6.21875,64.59375 z" transform="matrix(1.003826,-2.0360776e-4,3.093131e-4,0.6607763,9.9454153,26.021366)"/><path id="path21196" fill="none" fill-opacity="1" stroke="#fff" stroke-linecap="round" stroke-linejoin="miter" stroke-miterlimit="4" stroke-opacity="1" stroke-width="1.228" d="M -7.9356394,66.553565 L -10.924472,67.4195 L -10.929606,84.080218 L -7.9414224,85.321221 L -8.8737355,81.138583 L -8.8737355,81.107333 C -8.8963206,81.033558 -8.9310649,80.965632 -8.9362355,80.888583 C -8.9366502,80.87817 -8.9366502,80.867746 -8.9362355,80.857333 L -8.9049855,70.951083 C -8.9054002,70.94067 -8.9054002,70.930246 -8.9049855,70.919833 C -8.8998149,70.842784 -8.8650706,70.774858 -8.8424855,70.701083 L -8.8424855,70.669833 L -7.9356394,66.553565 z" opacity=".4" transform="matrix(1.003826,-2.0360776e-4,3.093131e-4,0.6607763,9.9454153,26.021366)"/><rect id="rect21198" width=".901" height="32.05" x="75.671" y="5.984" fill="#000" fill-opacity="1" stroke="none" stroke-dasharray="none" stroke-linecap="round" stroke-linejoin="miter" stroke-miterlimit="4" stroke-opacity="1" stroke-width="1" opacity=".147" rx="0" ry="0" transform="matrix(-4.2632175e-3,0.9999909,0.9999952,3.1038537e-3,0,0)"/></g></clipPath><linearGradient id="linearGradient21522" x1="-7.816" x2="-11.638" y1="19.838" y2="20.06" gradientTransform="matrix(-0.7173831,0.6966784,0.6966784,0.7173831,-14.325972,73.027347)" gradientUnits="userSpaceOnUse" xlink:href="#linearGradient7039"/><linearGradient id="linearGradient2314" x1="-10.27" x2="-7.375" y1="-3.061" y2="-3.063" gradientTransform="matrix(0.6607821,0,0,1.0038223,39.591112,-20.434278)" gradientUnits="userSpaceOnUse" xlink:href="#linearGradient6864"/><linearGradient id="linearGradient7039"><stop id="stop7041" offset="0" stop-color="#babdb6" stop-opacity="1"/><stop id="stop7043" offset="1" stop-color="#d9dad6" stop-opacity="1"/></linearGradient><linearGradient id="linearGradient21518" x1="-7.816" x2="-11.638" y1="19.838" y2="20.06" gradientTransform="matrix(-0.7173831,0.6966784,0.6966784,0.7173831,-14.325972,73.027347)" gradientUnits="userSpaceOnUse" xlink:href="#linearGradient7039"/><linearGradient id="linearGradient6864"><stop id="stop6866" offset="0" stop-color="#777974" stop-opacity="1"/><stop id="stop6868" offset="1" stop-color="#394043" stop-opacity="1"/></linearGradient><linearGradient id="linearGradient3292" x1="-10.27" x2="-7.375" y1="-3.061" y2="-3.063" gradientTransform="matrix(0.6607821,0,0,1.0038223,4.9272093,13.625546)" gradientUnits="userSpaceOnUse" xlink:href="#linearGradient6864"/></defs><metadata id="metadata7730"/><g id="layer1"><rect id="rect6259" width="4.349" height="12.844" x="-2.396" y="3.423" fill="url(#linearGradient3292)" fill-opacity="1" stroke="#2e3436" stroke-dasharray="none" stroke-linecap="round" stroke-linejoin="miter" stroke-miterlimit="4" stroke-opacity="1" stroke-width="1" display="inline" opacity="1" rx=".993" ry="1.508" transform="matrix(-0.714373,0.6997652,0.702001,0.712176,0,0)"/><path id="path12549" fill="url(#linearGradient21518)" fill-opacity="1" stroke="#333431" stroke-dasharray="none" stroke-linecap="round" stroke-linejoin="miter" stroke-miterlimit="4" stroke-opacity="1" stroke-width="1.121" d="M -2.96875,68.09375 L -7.4375,72.46875 L 13.21875,93.75 L 18.375,94.5 L 17.71875,89.40625 L -2.96875,68.09375 z" display="inline" opacity="1" transform="matrix(0.9348107,0.2878535,0.2995061,0.9440905,-3.3074999,-51.96177)"/><path id="path12553" fill="none" fill-opacity="1" stroke="#fff" stroke-linecap="round" stroke-linejoin="miter" stroke-miterlimit="4" stroke-opacity="1" stroke-width="1" d="M 14.4665,12.81221 L 12.687462,14.518884 L 37.321026,39.408435 L 40.427855,40.782166 L 39.085443,37.668542 L 14.4665,12.81221 z" display="inline" opacity=".5"/><rect id="rect6265" width="2.55" height="10.711" x="-1.324" y="4.323" fill="none" fill-opacity="1" stroke="#fff" stroke-dasharray="none" stroke-linecap="round" stroke-linejoin="miter" stroke-miterlimit="4" stroke-opacity="1" stroke-width=".956" display="inline" opacity=".3" rx=".402" ry=".621" transform="matrix(-0.7144411,0.6996955,0.7020305,0.7121468,0,0)"/><path id="path12580" fill="#bcbfb8" fill-opacity="1" stroke="#333431" stroke-dasharray="none" stroke-linecap="round" stroke-linejoin="miter" stroke-miterlimit="4" stroke-opacity="1" stroke-width="1.228" d="M -6.21875,64.59375 L -11.9375,66.34375 L -12.03125,85.3125 L -6.28125,87.125 L -7.9375,80.875 C -7.953337,80.834879 -7.9638432,80.792854 -7.96875,80.75 L -7.9375,70.90625 C -7.9325932,70.863396 -7.922087,70.821371 -7.90625,70.78125 L -6.21875,64.59375 z" display="inline" opacity="1" transform="matrix(0.7065429,0.7130665,-0.4692582,0.4652119,53.841159,-17.034464)"/><path id="path14597" fill="none" fill-opacity="1" stroke="#fff" stroke-linecap="round" stroke-linejoin="miter" stroke-miterlimit="4" stroke-opacity="1" stroke-width="1" d="M 17.003483,8.2684072 L 14.485398,6.5400142 L 6.6635916,14.287117 L 8.1925207,16.99522 L 9.4965387,14.384606 L 9.511203,14.370068 C 9.5298652,14.319642 9.5371917,14.263267 9.5696943,14.223736 C 9.5742877,14.218596 9.5791792,14.213747 9.5843586,14.209198 L 14.255027,9.6229767 C 14.259621,9.6178367 14.264512,9.6129874 14.269692,9.6084388 C 14.309501,9.5762817 14.365924,9.5694567 14.416501,9.5512404 L 14.431165,9.5367025 L 17.003483,8.2684072 z" display="inline" opacity=".4"/><rect id="rect6271" width=".901" height="32.05" x="-.64" y="21.499" fill="#000" fill-opacity="1" stroke="none" stroke-dasharray="none" stroke-linecap="round" stroke-linejoin="miter" stroke-miterlimit="4" stroke-opacity="1" stroke-width="1" display="inline" opacity=".147" rx="0" ry="0" transform="matrix(-0.713485,0.7006705,0.7014973,0.7126722,0,0)"/><rect id="rect16598" width="4.349" height="12.844" x="32.268" y="-30.637" fill="url(#linearGradient2314)" fill-opacity="1" stroke="#2e3436" stroke-dasharray="none" stroke-linecap="round" stroke-linejoin="miter" stroke-miterlimit="4" stroke-opacity="1" stroke-width="1" display="inline" opacity="1" rx=".993" ry="1.508" transform="matrix(0.714373,0.6997652,-0.702001,0.712176,0,0)"/><path id="path16600" fill="url(#linearGradient21522)" fill-opacity="1" stroke="#333431" stroke-dasharray="none" stroke-linecap="round" stroke-linejoin="miter" stroke-miterlimit="4" stroke-opacity="1" stroke-width="1.121" d="M -2.96875,68.09375 L -7.4375,72.46875 L 13.21875,93.75 L 18.375,94.5 L 17.71875,89.40625 L -2.96875,68.09375 z" display="inline" opacity="1" transform="matrix(-0.9348107,0.2878535,-0.2995061,0.9440905,51.980479,-51.96177)"/><path id="path16602" fill="none" fill-opacity="1" stroke="#fff" stroke-linecap="round" stroke-linejoin="miter" stroke-miterlimit="4" stroke-opacity="1" stroke-width="1" d="M 34.206479,12.81221 L 35.985517,14.518884 L 11.351953,39.408435 L 8.2451234,40.782166 L 9.5875362,37.668542 L 34.206479,12.81221 z" display="inline" opacity=".5"/><rect id="rect16604" width="2.55" height="10.711" x="33.339" y="-29.734" fill="none" fill-opacity="1" stroke="#fff" stroke-dasharray="none" stroke-linecap="round" stroke-linejoin="miter" stroke-miterlimit="4" stroke-opacity="1" stroke-width=".956" display="inline" opacity=".3" rx=".402" ry=".621" transform="matrix(0.7144411,0.6996955,-0.7020305,0.7121468,0,0)"/><path id="path16606" fill="#bcbfb8" fill-opacity="1" stroke="#333431" stroke-dasharray="none" stroke-linecap="round" stroke-linejoin="miter" stroke-miterlimit="4" stroke-opacity="1" stroke-width="1.228" d="M -6.21875,64.59375 L -11.9375,66.34375 L -12.03125,85.3125 L -6.28125,87.125 L -7.9375,80.875 C -7.953337,80.834879 -7.9638432,80.792854 -7.96875,80.75 L -7.9375,70.90625 C -7.9325932,70.863396 -7.922087,70.821371 -7.90625,70.78125 L -6.21875,64.59375 z" display="inline" opacity="1" transform="matrix(-0.7065429,0.7130665,0.4692582,0.4652119,-5.1681799,-17.034464)"/><path id="path16608" fill="none" fill-opacity="1" stroke="#fff" stroke-linecap="round" stroke-linejoin="miter" stroke-miterlimit="4" stroke-opacity="1" stroke-width="1" d="M 31.669496,8.2684072 L 34.187582,6.5400142 L 42.009388,14.287117 L 40.480459,16.99522 L 39.176441,14.384606 L 39.161776,14.370068 C 39.143114,14.319642 39.135788,14.263267 39.103285,14.223736 C 39.098692,14.218596 39.0938,14.213747 39.088621,14.209198 L 34.417952,9.6229767 C 34.413359,9.6178367 34.408467,9.6129874 34.403288,9.6084388 C 34.363479,9.5762817 34.307055,9.5694567 34.256479,9.5512404 L 34.241814,9.5367025 L 31.669496,8.2684072 z" display="inline" opacity=".4"/><rect id="rect16610" width=".901" height="32.05" x="34.048" y="-12.605" fill="#000" fill-opacity="1" stroke="none" stroke-dasharray="none" stroke-linecap="round" stroke-linejoin="miter" stroke-miterlimit="4" stroke-opacity="1" stroke-width="1" display="inline" opacity=".147" rx="0" ry="0" transform="matrix(0.713485,0.7006705,-0.7014973,0.7126722,0,0)"/><path id="path21012" fill="none" fill-opacity="1" fill-rule="evenodd" stroke="#000" stroke-linecap="butt" stroke-linejoin="miter" stroke-opacity="1" stroke-width="1" d="M 23.65625,2 C 23.500073,2.0165815 23.350097,2.0701445 23.21875,2.15625 C 16.970293,5.7637981 7.5625,5.25 7.5625,5.25 C 7.2911531,5.2295338 7.0233733,5.3218532 6.8222904,5.5051935 C 6.6212074,5.6885338 6.504615,5.9466715 6.5,6.21875 C 6.5,6.21875 6.200542,19.664932 10.65625,29.4375 C 15.091901,39.166078 23.3125,44.8125 23.3125,44.8125 C 23.643857,45.032625 24.074893,45.032625 24.40625,44.8125 C 24.40625,44.8125 33.31619,39.067599 37.40625,29.28125 C 41.474194,19.547823 41.5,6.53125 41.5,6.53125 C 41.503167,6.2650752 41.398828,6.0088769 41.2106,5.8206495 C 41.022373,5.6324222 40.766175,5.5280827 40.5,5.53125 C 40.5,5.53125 37.935209,5.5763846 34.59375,5.15625 C 31.252291,4.7361154 27.156539,3.8523829 24.21875,2.15625 C 24.051262,2.0487131 23.855206,1.9942532 23.65625,2 z" clip-path="url(#clipPath21182)" display="inline" opacity=".139" transform="matrix(0.9998812,0,0,1,7.1493417e-4,1.7499924)"/><path id="path21142" fill="none" fill-opacity="1" fill-rule="evenodd" stroke="#000" stroke-linecap="butt" stroke-linejoin="miter" stroke-opacity="1" stroke-width="1" d="M 23.65625,2 C 23.500073,2.0165815 23.350097,2.0701445 23.21875,2.15625 C 16.970293,5.7637981 7.5625,5.25 7.5625,5.25 C 7.2911531,5.2295338 7.0233733,5.3218532 6.8222904,5.5051935 C 6.6212074,5.6885338 6.504615,5.9466715 6.5,6.21875 C 6.5,6.21875 6.200542,19.664932 10.65625,29.4375 C 15.091901,39.166078 23.3125,44.8125 23.3125,44.8125 C 23.643857,45.032625 24.074893,45.032625 24.40625,44.8125 C 24.40625,44.8125 33.31619,39.067599 37.40625,29.28125 C 41.474194,19.547823 41.5,6.53125 41.5,6.53125 C 41.503167,6.2650752 41.398828,6.0088769 41.2106,5.8206495 C 41.022373,5.6324222 40.766175,5.5280827 40.5,5.53125 C 40.5,5.53125 37.935209,5.5763846 34.59375,5.15625 C 31.252291,4.7361154 27.156539,3.8523829 24.21875,2.15625 C 24.051262,2.0487131 23.855206,1.9942532 23.65625,2 z" clip-path="url(#clipPath21144)" display="inline" opacity=".139" transform="matrix(0.9998812,0,0,1,7.1493417e-4,1.7499924)"/><path id="path20935" fill="none" fill-opacity="1" fill-rule="evenodd" stroke="#555753" stroke-linecap="butt" stroke-linejoin="miter" stroke-opacity="1" stroke-width="1" d="M 23.881176,45.75001 C 23.881176,45.75001 15.878547,40.225336 11.574942,30.785249 C 7.2713355,21.345159 7.5019781,7.9896555 7.5019781,7.9896555 C 7.5019781,7.9896555 17.079006,8.5849324 23.72054,4.7499854 C 30.013979,8.3839354 40.495911,8.2851264 40.495911,8.2851264 C 40.495911,8.2851264 40.439566,21.205779 36.494687,30.645868 C 32.549809,40.085956 23.881176,45.75001 23.881176,45.75001 z" display="inline" opacity="1"/><path id="path7003" fill="url(#radialGradient5243)" fill-opacity="1" stroke="none" stroke-dasharray="none" stroke-linecap="round" stroke-linejoin="miter" stroke-miterlimit="4" stroke-opacity="1" stroke-width="1" d="M 40.835417,42.431534 A 15.909903,3.2703688 0 1 1 9.0156116,42.431534 A 15.909903,3.2703688 0 1 1 40.835417,42.431534 z" display="inline" opacity=".5" transform="matrix(0.8798505,0,0,0.764443,2.0671304,12.3135)"/><path id="path5512" fill="url(#radialGradient5264)" fill-opacity="1" fill-rule="evenodd" stroke="#292e30" stroke-linecap="butt" stroke-linejoin="miter" stroke-opacity="1" stroke-width="1" d="M 23.881176,45.75001 C 23.881176,45.75001 15.878547,40.225336 11.574942,30.785249 C 7.2713355,21.345159 7.5019781,7.9896555 7.5019781,7.9896555 C 7.5019781,7.9896555 17.079006,8.5849324 23.72054,4.7499854 C 30.013979,8.3839354 40.495911,8.2851264 40.495911,8.2851264 C 40.495911,8.2851264 40.439566,21.205779 36.494687,30.645868 C 32.549809,40.085956 23.881176,45.75001 23.881176,45.75001 z" display="inline" opacity="1"/><path id="path6721" fill="none" fill-opacity="1" fill-rule="evenodd" stroke="#fff" stroke-linecap="butt" stroke-linejoin="miter" stroke-opacity="1" stroke-width="1" d="M 23.887208,44.312499 C 23.887208,44.312499 16.553297,39.245233 12.51026,30.335945 C 8.4672184,21.426654 8.4997015,8.9199484 8.4997015,8.9199484 C 8.4997015,8.9199484 17.47986,9.3625654 23.736294,5.7499824 C 29.473024,9.0624794 39.495983,9.2134814 39.495983,9.2134814 C 39.495983,9.2134814 39.258856,21.392955 35.552823,30.302245 C 31.846792,39.211537 23.887208,44.312499 23.887208,44.312499 z" display="inline" opacity=".15"/><path id="path6904" fill="url(#radialGradient5260)" fill-opacity="1" fill-rule="evenodd" stroke="#555753" stroke-linecap="butt" stroke-linejoin="miter" stroke-opacity="1" stroke-width="1" d="M 23.91653,40.749977 C 23.91653,40.749977 18.338945,36.641891 15.339465,29.622345 C 12.339983,22.602797 12.500733,12.671789 12.500733,12.671789 C 12.500733,12.671789 18.815239,12.630919 23.804573,9.7499844 C 28.187696,12.280882 35.496491,12.802925 35.496491,12.802925 C 35.496491,12.802925 35.457221,22.499156 32.707761,29.518703 C 29.958302,36.53825 23.91653,40.749977 23.91653,40.749977 z" display="inline" opacity=".973"/><path id="path6955" fill="none" fill-opacity="1" fill-rule="evenodd" stroke="url(#linearGradient5257)" stroke-linecap="butt" stroke-linejoin="miter" stroke-opacity="1" stroke-width="1" d="M 23.923609,39.749993 C 23.923609,39.749993 18.831028,35.925221 16.092369,29.389778 C 13.35371,22.854333 13.500481,13.608217 13.500481,13.608217 C 13.500481,13.608217 20.034777,12.936445 23.821388,10.749984 C 27.070661,12.749984 34.496626,13.730309 34.496626,13.730309 C 34.496626,13.730309 34.460772,22.75784 31.950393,29.293284 C 29.440014,35.828728 23.923609,39.749993 23.923609,39.749993 z" display="inline" opacity=".12"/><path id="path20955" fill="none" fill-opacity="1" fill-rule="evenodd" stroke="url(#linearGradient5254)" stroke-linecap="butt" stroke-linejoin="miter" stroke-opacity="1" stroke-width="1" d="M 23.923609,39.749993 C 23.923609,39.749993 18.831028,35.925221 16.092369,29.389778 C 13.35371,22.854333 13.500481,13.608217 13.500481,13.608217 C 13.500481,13.608217 20.034777,12.936445 23.821388,10.749984 C 27.070661,12.749984 34.496626,13.730309 34.496626,13.730309 C 34.496626,13.730309 34.460772,22.75784 31.950393,29.293284 C 29.440014,35.828728 23.923609,39.749993 23.923609,39.749993 z" display="inline" opacity=".12"/></g></svg>