<svg xmlns="http://www.w3.org/2000/svg" xmlns:svg="http://www.w3.org/2000/svg" xmlns:xlink="http://www.w3.org/1999/xlink" id="svg7836" width="48" height="48" version="1.0"><metadata id="metadata137"/><defs id="defs7838"><linearGradient id="linearGradient3282"><stop id="stop3284" offset="0" stop-color="#fff" stop-opacity="1"/><stop id="stop3286" offset="1" stop-color="#fff" stop-opacity="0"/></linearGradient><linearGradient id="linearGradient2255" x1="13.258" x2="31.466" y1="-6.137" y2="21.617" gradientTransform="matrix(0.6453055,0,0,0.6037497,-4.5171397,1.1311306)" gradientUnits="userSpaceOnUse" xlink:href="#linearGradient3282"/><linearGradient id="linearGradient3264"><stop id="stop3266" offset="0" stop-color="#fff" stop-opacity="1"/><stop id="stop3268" offset="1" stop-color="#fff" stop-opacity="0"/></linearGradient><linearGradient id="linearGradient2253" x1="15.173" x2="26.04" y1="5.046" y2="29.487" gradientTransform="matrix(0.6453055,0,0,0.6037497,-4.5171397,1.1311296)" gradientUnits="userSpaceOnUse" xlink:href="#linearGradient3264"/><linearGradient id="linearGradient3218"><stop id="stop3220" offset="0" stop-color="#ff0f0f" stop-opacity="1"/><stop id="stop3222" offset="1" stop-color="#ff0f0f" stop-opacity="0"/></linearGradient><radialGradient id="radialGradient2251" cx="69.188" cy="19.25" r="1.688" fx="69.188" fy="19.25" gradientTransform="matrix(1,0,0,0.962963,0,0.712963)" gradientUnits="userSpaceOnUse" xlink:href="#linearGradient3218"/><linearGradient id="linearGradient3195"><stop id="stop3197" offset="0" stop-color="#eeeeec" stop-opacity="1"/><stop id="stop3199" offset="1" stop-color="#eeeeec" stop-opacity="0"/></linearGradient><linearGradient id="linearGradient2249" x1="20.627" x2="23.342" y1="17.396" y2="28.084" gradientTransform="matrix(0.6453055,0,0,0.6480447,-4.5171397,-0.9441344)" gradientUnits="userSpaceOnUse" xlink:href="#linearGradient3195"/><linearGradient id="linearGradient3185"><stop id="stop3187" offset="0" stop-color="#a40000" stop-opacity="1"/><stop id="stop3189" offset="1" stop-color="#680000" stop-opacity="1"/></linearGradient><linearGradient id="linearGradient2247" x1="20.524" x2="24.022" y1="15.617" y2="25.994" gradientTransform="matrix(0.7228652,0,0,0.6037497,-6.0581665,0.8784436)" gradientUnits="userSpaceOnUse" xlink:href="#linearGradient3185"/><linearGradient id="linearGradient3169"><stop id="stop3171" offset="0" stop-color="#e40000" stop-opacity=".592"/><stop id="stop3173" offset="1" stop-color="#700" stop-opacity="1"/></linearGradient><linearGradient id="linearGradient2245" x1="20.524" x2="24.022" y1="15.617" y2="25.994" gradientTransform="matrix(0.7228652,0,0,0.6037497,-6.0581665,0.8784436)" gradientUnits="userSpaceOnUse" xlink:href="#linearGradient3169"/><linearGradient id="linearGradient3240"><stop id="stop3242" offset="0" stop-color="#fff" stop-opacity="1"/><stop id="stop3244" offset="1" stop-color="#fff" stop-opacity=".476"/></linearGradient><linearGradient id="linearGradient2243" x1="14.248" x2="30.045" y1="-1.588" y2="44.678" gradientTransform="matrix(0.6453055,0,0,0.6037497,-4.5171397,1.1311296)" gradientUnits="userSpaceOnUse" xlink:href="#linearGradient3240"/><linearGradient id="linearGradient3186"><stop id="stop3188" offset="0" stop-color="#888a85" stop-opacity="1"/><stop id="stop3190" offset="1" stop-color="#888a85" stop-opacity="0"/></linearGradient><linearGradient id="linearGradient2241" x1="24.503" x2="28.923" y1="25.502" y2="49.629" gradientTransform="matrix(0.6453055,0,0,0.6480447,-4.5171397,-0.9441344)" gradientUnits="userSpaceOnUse" xlink:href="#linearGradient3186"/><linearGradient id="linearGradient3161"><stop id="stop3163" offset="0" stop-color="#fff" stop-opacity=".534"/><stop id="stop3165" offset="1" stop-color="#000" stop-opacity=".078"/></linearGradient><radialGradient id="radialGradient2239" cx="21.427" cy="15.473" r="9.418" fx="21.427" fy="15.473" gradientTransform="matrix(1.0564455,2.2729667e-3,-3.721177e-3,1.5139708,-13.503269,-19.183025)" gradientUnits="userSpaceOnUse" xlink:href="#linearGradient3161"/><linearGradient id="linearGradient3250"><stop id="stop3252" offset="0" stop-color="#fff" stop-opacity="1"/><stop id="stop3254" offset="1" stop-color="#fff" stop-opacity="0"/></linearGradient><linearGradient id="linearGradient2237" x1="21.213" x2="30.573" y1="37.488" y2="54.283" gradientUnits="userSpaceOnUse" xlink:href="#linearGradient3250"/><linearGradient id="linearGradient3303"><stop id="stop3305" offset="0" stop-color="#888a85" stop-opacity="1"/><stop id="stop3307" offset="1" stop-color="#888a85" stop-opacity="0"/></linearGradient><radialGradient id="radialGradient2235" cx="24.875" cy="44.063" r="10.875" fx="24.875" fy="44.063" gradientTransform="matrix(1,0,0,0.3390805,0,29.121767)" gradientUnits="userSpaceOnUse" xlink:href="#linearGradient3303"/><radialGradient id="radialGradient8272" cx="605.714" cy="486.648" r="117.143" fx="605.714" fy="486.648" gradientTransform="matrix(-2.774389,0,0,1.969706,112.7623,-872.8854)" gradientUnits="userSpaceOnUse" xlink:href="#linearGradient5060"/><linearGradient id="linearGradient5060"><stop id="stop5062" offset="0" stop-color="#000" stop-opacity="1"/><stop id="stop5064" offset="1" stop-color="#000" stop-opacity="0"/></linearGradient><radialGradient id="radialGradient8270" cx="605.714" cy="486.648" r="117.143" fx="605.714" fy="486.648" gradientTransform="matrix(2.774389,0,0,1.969706,-1891.633,-872.8854)" gradientUnits="userSpaceOnUse" xlink:href="#linearGradient5060"/><linearGradient id="linearGradient5048"><stop id="stop5050" offset="0" stop-color="#000" stop-opacity="0"/><stop id="stop5056" offset=".5" stop-color="#000" stop-opacity="1"/><stop id="stop5052" offset="1" stop-color="#000" stop-opacity="0"/></linearGradient><linearGradient id="linearGradient8268" x1="302.857" x2="302.857" y1="366.648" y2="609.505" gradientTransform="matrix(2.774389,0,0,1.969706,-1892.179,-872.8854)" gradientUnits="userSpaceOnUse" xlink:href="#linearGradient5048"/><linearGradient id="linearGradient9111"><stop id="stop9113" offset="0" stop-color="#fff" stop-opacity="1"/><stop id="stop9115" offset="1" stop-color="#fff" stop-opacity="0"/></linearGradient><linearGradient id="linearGradient4045" x1="320.017" x2="320.017" y1="79.981" y2="74.421" gradientTransform="translate(-0.3124939,13.883653)" gradientUnits="userSpaceOnUse" xlink:href="#linearGradient9111"/><linearGradient id="linearGradient9101"><stop id="stop9103" offset="0" stop-color="#fff" stop-opacity="1"/><stop id="stop9105" offset="1" stop-color="#fff" stop-opacity="0"/></linearGradient><linearGradient id="linearGradient4048" x1="115.948" x2="210.236" y1="186.813" y2="85.606" gradientTransform="matrix(0.1964069,0,0,0.1964069,291.11029,53.069992)" gradientUnits="userSpaceOnUse" xlink:href="#linearGradient9101"/><radialGradient id="radialGradient4128" cx="113.065" cy="97.588" r="2.563" fx="113.667" fy="98" gradientTransform="matrix(2.4956521,0,0,2.4956521,-223.97574,-53.226089)" gradientUnits="userSpaceOnUse" xlink:href="#XMLID_64_"/><linearGradient id="linearGradient4126" x1="113.065" x2="113.065" y1="100.662" y2="94.513" gradientTransform="matrix(2.4956521,0,0,2.4956521,-223.97574,-53.226089)" gradientUnits="userSpaceOnUse" xlink:href="#XMLID_63_"/><radialGradient id="radialGradient4057" cx="127.317" cy="143.828" r="78.728" fx="127.317" fy="143.828" gradientTransform="matrix(0.1691796,-2.118677e-2,7.64681e-3,6.311337e-2,291.54812,67.154866)" gradientUnits="userSpaceOnUse" xlink:href="#linearGradient7609"/><radialGradient id="radialGradient4060" cx="230" cy="133" r="16.5" fx="230" fy="133" gradientTransform="matrix(-0.1964069,0,0,0.4901248,348.1398,14.167053)" gradientUnits="userSpaceOnUse" xlink:href="#linearGradient7665"/><linearGradient id="linearGradient7665"><stop id="stop7667" offset="0" stop-color="#fff" stop-opacity="1"/><stop id="stop7669" offset="1" stop-color="#fff" stop-opacity="0"/></linearGradient><radialGradient id="radialGradient4063" cx="230" cy="133" r="16.5" fx="230" fy="133" gradientTransform="matrix(0.1964069,0,0,0.4901248,290.75046,14.167053)" gradientUnits="userSpaceOnUse" xlink:href="#linearGradient7665"/><filter id="filter7557" width="1.219" height="1.493" x="-.109" y="-.247"><feGaussianBlur id="feGaussianBlur7559" stdDeviation="3.187"/></filter><linearGradient id="linearGradient7537"><stop id="stop7539" offset="0" stop-color="#fff" stop-opacity=".248"/><stop id="stop7561" offset=".386" stop-color="#fff" stop-opacity=".612"/><stop id="stop7541" offset="1" stop-color="#fff" stop-opacity="0"/></linearGradient><linearGradient id="linearGradient4100" x1="152" x2="222" y1="202.5" y2="202.5" gradientUnits="userSpaceOnUse" xlink:href="#linearGradient7537"/><linearGradient id="linearGradient4144"><stop id="stop4146" offset="0" stop-color="#fff" stop-opacity="1"/><stop id="stop4148" offset="1" stop-color="#fff" stop-opacity="0"/></linearGradient><linearGradient id="linearGradient7755" x1="305.028" x2="302.042" y1="76.908" y2="76.908" gradientTransform="matrix(0.7481482,0,0,1,76.821909,0)" gradientUnits="userSpaceOnUse" xlink:href="#linearGradient4144"/><linearGradient id="linearGradient7691"><stop id="stop7693" offset="0" stop-color="#fff" stop-opacity="1"/><stop id="stop7695" offset="1" stop-color="#fff" stop-opacity="0"/></linearGradient><radialGradient id="radialGradient7753" cx="85.75" cy="214.083" r="14" fx="85.75" fy="214.083" gradientTransform="matrix(0.2665522,9.092593e-2,-2.342877e-2,7.099072e-2,291.11104,54.883977)" gradientUnits="userSpaceOnUse" xlink:href="#linearGradient7691"/><linearGradient id="linearGradient4236"><stop id="stop4238" offset="0" stop-color="#eee" stop-opacity="1"/><stop id="stop4240" offset="1" stop-color="#eee" stop-opacity="0"/></linearGradient><linearGradient id="linearGradient7751" x1="12.277" x2="12.222" y1="37.206" y2="33.759" gradientTransform="matrix(5.0962816,0,0,5.0962816,21.323205,37.043678)" gradientUnits="userSpaceOnUse" xlink:href="#linearGradient4236"/><linearGradient id="linearGradient4110"><stop id="stop4112" offset="0" stop-color="#000" stop-opacity="1"/><stop id="stop4114" offset="1" stop-color="#bbb" stop-opacity="0"/></linearGradient><linearGradient id="linearGradient7749" x1="7.063" x2="24.688" y1="35.281" y2="35.281" gradientTransform="matrix(5.0962816,0,0,5.0962816,25.377261,30.286921)" gradientUnits="userSpaceOnUse" xlink:href="#linearGradient4110"/><filter id="filter7527" width="1.803" height="1.084" x="-.401" y="-.042"><feGaussianBlur id="feGaussianBlur7529" stdDeviation=".523"/></filter><radialGradient id="radialGradient4102" cx="43.563" cy="202.25" r="1.563" fx="43.563" fy="202.25" gradientTransform="matrix(3.16,0,0,11.28,-94.095,-2079.13)" gradientUnits="userSpaceOnUse" xlink:href="#linearGradient7507"/><filter id="filter4116" width="1.804" height="1.084" x="-.402" y="-.042"><feGaussianBlur id="feGaussianBlur4118" stdDeviation=".524"/></filter><linearGradient id="linearGradient7507"><stop id="stop7509" offset="0" stop-color="#fff" stop-opacity="1"/><stop id="stop7511" offset="1" stop-color="#fff" stop-opacity="0"/></linearGradient><radialGradient id="radialGradient4104" cx="43.563" cy="202.25" r="1.563" fx="43.563" fy="202.25" gradientTransform="matrix(3.16,0,0,11.28,-94.095,-2079.13)" gradientUnits="userSpaceOnUse" xlink:href="#linearGradient7507"/><radialGradient id="radialGradient4132" cx="113.065" cy="97.588" r="2.563" fx="113.667" fy="98" gradientTransform="matrix(2.4956521,0,0,2.4956521,-223.97574,-53.226089)" gradientUnits="userSpaceOnUse" xlink:href="#XMLID_64_"/><linearGradient id="linearGradient4130" x1="113.065" x2="113.065" y1="100.662" y2="94.513" gradientTransform="matrix(2.4956521,0,0,2.4956521,-223.97574,-53.226089)" gradientUnits="userSpaceOnUse" xlink:href="#XMLID_63_"/><radialGradient id="radialGradient4136" cx="113.065" cy="97.588" r="2.563" fx="113.667" fy="98" gradientTransform="matrix(2.4956521,0,0,2.4956521,-223.97574,-53.226089)" gradientUnits="userSpaceOnUse" xlink:href="#XMLID_64_"/><linearGradient id="linearGradient4134" x1="113.065" x2="113.065" y1="100.662" y2="94.513" gradientTransform="matrix(2.4956521,0,0,2.4956521,-223.97574,-53.226089)" gradientUnits="userSpaceOnUse" xlink:href="#XMLID_63_"/><radialGradient id="XMLID_64_" cx="113.065" cy="97.588" r="2.563" fx="113.667" fy="98" gradientUnits="userSpaceOnUse"><stop id="stop505" offset="0" stop-color="#eee" stop-opacity="1"/><stop id="stop507" offset=".16" stop-color="#cecece" stop-opacity="1"/><stop id="stop509" offset=".468" stop-color="#888" stop-opacity="1"/><stop id="stop511" offset="1" stop-color="#555" stop-opacity="1"/></radialGradient><radialGradient id="radialGradient4140" cx="113.065" cy="97.588" r="2.563" fx="113.667" fy="98" gradientTransform="matrix(2.4956521,0,0,2.4956521,-223.97574,-53.226089)" gradientUnits="userSpaceOnUse" xlink:href="#XMLID_64_"/><linearGradient id="XMLID_63_" x1="113.065" x2="113.065" y1="100.662" y2="94.513" gradientUnits="userSpaceOnUse"><stop id="stop496" offset="0" stop-color="#eee" stop-opacity="1"/><stop id="stop498" offset=".669" stop-color="#ddd" stop-opacity="1"/><stop id="stop500" offset="1" stop-color="#555" stop-opacity="1"/></linearGradient><linearGradient id="linearGradient4138" x1="113.065" x2="113.065" y1="100.662" y2="94.513" gradientTransform="matrix(2.4956521,0,0,2.4956521,-223.97574,-53.226089)" gradientUnits="userSpaceOnUse" xlink:href="#XMLID_63_"/><radialGradient id="radialGradient4078" cx="142.622" cy="191.854" r="78.728" fx="142.622" fy="191.854" gradientTransform="matrix(0.155354,0,0,-9.045696e-2,296.87519,93.678924)" gradientUnits="userSpaceOnUse" xlink:href="#linearGradient7609"/><linearGradient id="linearGradient7609"><stop id="stop7611" offset="0" stop-color="#fff" stop-opacity="1"/><stop id="stop7677" offset=".47" stop-color="#e7e7e7" stop-opacity="1"/><stop id="stop7613" offset=".672" stop-color="#8c8c8c" stop-opacity="1"/><stop id="stop7617" offset=".835" stop-color="#ddd" stop-opacity="1"/><stop id="stop7615" offset="1" stop-color="#a8a8a8" stop-opacity="1"/></linearGradient><radialGradient id="radialGradient4081" cx="141.747" cy="206.426" r="78.728" fx="141.747" fy="206.426" gradientTransform="matrix(0.3079313,-3.68762e-3,2.27901e-3,0.2121779,275.0745,43.487346)" gradientUnits="userSpaceOnUse" xlink:href="#linearGradient7609"/><linearGradient id="linearGradient10652"><stop id="stop10654" offset="0" stop-color="#535353" stop-opacity="1"/><stop id="stop10656" offset="1" stop-color="#babdb6" stop-opacity="1"/></linearGradient><linearGradient id="linearGradient10658" x1="317.625" x2="312.125" y1="72.5" y2="55.25" gradientTransform="translate(0,16)" gradientUnits="userSpaceOnUse" xlink:href="#linearGradient10652"/><linearGradient id="linearGradient7497"><stop id="stop7499" offset="0" stop-color="#fff" stop-opacity="1"/><stop id="stop7501" offset="1" stop-color="#fff" stop-opacity="0"/></linearGradient><radialGradient id="radialGradient4089" cx="150.179" cy="301.802" r="106.185" fx="150.179" fy="301.802" gradientTransform="matrix(0.1949405,2.435491e-2,-1.29477e-2,0.1071189,295.23816,53.829929)" gradientUnits="userSpaceOnUse" xlink:href="#linearGradient7497"/><linearGradient id="linearGradient4244"><stop id="stop4246" offset="0" stop-color="#efefef" stop-opacity="1"/><stop id="stop7563" offset=".695" stop-color="#bcbcbc" stop-opacity="1"/><stop id="stop4248" offset="1" stop-color="#e4e4e4" stop-opacity="1"/></linearGradient><radialGradient id="radialGradient4092" cx="15.571" cy="2.959" r="20.936" fx="15.571" fy="2.959" gradientTransform="matrix(1.2874573,0.7785045,-0.7114536,1.164774,292.94174,56.71277)" gradientUnits="userSpaceOnUse" xlink:href="#linearGradient4244"/><linearGradient id="linearGradient4120"><stop id="stop4122" offset="0" stop-color="#555753" stop-opacity="1"/><stop id="stop4124" offset="1" stop-color="#2e3436" stop-opacity="1"/></linearGradient><linearGradient id="linearGradient4095" x1="8.479" x2="36.183" y1="30.712" y2="40.944" gradientTransform="matrix(1.0009449,0,0,0.560284,295.29831,72.625339)" gradientUnits="userSpaceOnUse" xlink:href="#linearGradient4120"/></defs><g id="g5022" display="inline" opacity="1" transform="matrix(2.3640267e-2,0,0,1.5678661e-2,45.026494,35.862725)"><rect id="rect4173" width="1339.633" height="478.357" x="-1559.252" y="-150.697" fill="url(#linearGradient8268)" fill-opacity="1" fill-rule="nonzero" stroke="none" stroke-dasharray="none" stroke-dashoffset="0" stroke-linecap="round" stroke-linejoin="miter" stroke-miterlimit="4" stroke-opacity="1" stroke-width="1" marker-end="none" marker-mid="none" marker-start="none" display="inline" opacity=".402" overflow="visible" visibility="visible" style="marker:none"/><path id="path5058" fill="url(#radialGradient8270)" fill-opacity="1" fill-rule="nonzero" stroke="none" stroke-dasharray="none" stroke-dashoffset="0" stroke-linecap="round" stroke-linejoin="miter" stroke-miterlimit="4" stroke-opacity="1" stroke-width="1" marker-end="none" marker-mid="none" marker-start="none" d="M -219.61876,-150.68038 C -219.61876,-150.68038 -219.61876,327.65041 -219.61876,327.65041 C -76.744594,328.55086 125.78146,220.48075 125.78138,88.454235 C 125.78138,-43.572302 -33.655436,-150.68036 -219.61876,-150.68038 z" display="inline" opacity=".402" overflow="visible" visibility="visible" style="marker:none"/><path id="path5018" fill="url(#radialGradient8272)" fill-opacity="1" fill-rule="nonzero" stroke="none" stroke-dasharray="none" stroke-dashoffset="0" stroke-linecap="round" stroke-linejoin="miter" stroke-miterlimit="4" stroke-opacity="1" stroke-width="1" marker-end="none" marker-mid="none" marker-start="none" d="M -1559.2523,-150.68038 C -1559.2523,-150.68038 -1559.2523,327.65041 -1559.2523,327.65041 C -1702.1265,328.55086 -1904.6525,220.48075 -1904.6525,88.454235 C -1904.6525,-43.572302 -1745.2157,-150.68036 -1559.2523,-150.68038 z" display="inline" opacity=".402" overflow="visible" visibility="visible" style="marker:none"/></g><g id="layer1"><g id="g2923" display="inline" transform="translate(-296.00011,-55.999737)"><path id="path8985" fill="url(#linearGradient4095)" fill-opacity="1" fill-rule="evenodd" stroke="none" d="M 298.575,87.751222 L 299.34032,87.363385 L 336.98555,87.398405 L 340.45123,87.576183 L 340.45123,93.424725 C 340.45123,94.055362 339.84364,94.457513 338.85785,94.457513 L 300.23841,94.457513 C 299.239,94.457513 298.575,94.153811 298.575,93.547239 L 298.575,87.751225 L 298.575,87.751222 z"/><path id="path8987" fill="url(#radialGradient4092)" fill-opacity="1" fill-rule="evenodd" stroke="none" d="M 298.85075,87.378245 C 298.13579,88.836549 298.85014,89.761327 299.88745,89.761327 C 299.88745,89.761327 338.92429,89.761327 338.92429,89.761327 C 340.0444,89.737617 340.77128,88.753555 340.35421,87.62722 L 333.63358,70.486835 C 333.44889,69.97702 332.9782,69.502773 332.48965,69.490917 L 306.60807,69.490917 C 305.98248,69.490917 305.57138,69.793249 305.32115,70.34456 C 305.32115,70.34456 298.85075,87.378245 298.85075,87.378245 L 298.85075,87.378245 z"/><path id="path8989" fill="url(#radialGradient4089)" fill-opacity="1" fill-rule="evenodd" stroke="none" d="M 340.1368,86.636171 C 340.2004,87.90818 339.72241,88.992836 338.81344,89.021238 C 338.81344,89.021238 300.6587,89.021236 300.6587,89.021238 C 299.36825,89.021238 298.7892,88.690561 298.57268,88.137878 C 298.66458,89.098856 299.39928,89.81626 300.6587,89.81626 C 300.6587,89.816258 338.81344,89.81626 338.81344,89.81626 C 339.89046,89.78261 340.5679,88.367132 340.16688,86.768675 L 340.13678,86.636171 L 340.1368,86.636171 z"/><path id="path8999" fill="none" stroke="url(#linearGradient10658)" stroke-dasharray="none" stroke-linecap="round" stroke-linejoin="round" stroke-miterlimit="4" stroke-opacity="1" stroke-width="1" d="M 306.59467,69.5 C 305.96908,69.5 305.56244,69.795295 305.31221,70.358626 C 305.31221,70.358626 298.83735,87.763684 298.83735,87.763684 C 298.83735,87.763684 298.58711,88.44708 298.58711,89.576333 C 298.58711,89.576333 298.58711,92.80376 298.58711,92.80376 C 298.58711,93.905455 299.24552,94.457408 300.24493,94.457406 L 338.84386,94.457406 C 339.82964,94.457406 340.43912,93.726564 340.43912,92.581152 L 340.43912,89.353727 C 340.43912,89.353727 340.54518,88.569724 340.34532,88.018092 L 333.62022,70.517631 C 333.43552,69.996701 332.98271,69.512114 332.49416,69.5 L 306.59471,69.5 L 306.59467,69.5 z"/><path id="path9001" fill="url(#radialGradient4081)" fill-opacity="1" d="M 334.62368,80.618568 C 334.43304,79.152166 333.15543,77.753895 331.03264,76.65052 C 330.98994,76.226401 330.44582,70.800848 330.44582,70.800848 C 330.40412,70.383771 329.76994,70.068992 328.97012,70.068992 L 323.9508,70.068992 C 323.14523,70.068992 322.52251,70.387911 322.5022,70.81079 C 322.4101,72.7214 319.6016,73.718954 315.41223,74.626423 C 313.94432,74.839517 310.11727,75.841212 309.2389,76.280864 C 306.65322,77.435804 305.11116,78.975518 304.89749,80.618568 C 304.70312,82.11293 305.63737,83.608327 307.52821,84.829329 C 310.29572,86.616516 314.86841,87.68365 319.76041,87.68365 C 324.65242,87.68365 329.2251,86.616516 331.99296,84.829329 C 333.71991,83.714359 334.64873,82.370136 334.64873,81.007072 C 334.64873,80.877638 334.63973,80.748 334.62363,80.618568 L 334.62368,80.618568 z M 319.76041,86.942475 C 311.61261,86.942475 305.37358,83.947747 305.82496,80.476297 C 306.01967,78.97966 307.44897,77.381961 309.8159,76.329116 C 310.25915,76.049132 314.26229,74.960044 315.69836,74.768692 C 319.67847,73.908442 323.31827,72.79202 323.43238,70.439271 C 323.43738,70.326613 323.6667,70.237358 323.9508,70.237358 L 328.96945,70.237358 C 329.25998,70.237358 329.50514,70.330958 329.51665,70.446519 L 330.12616,76.525024 C 332.23575,77.549496 333.51403,79.078647 333.69553,80.476297 C 334.14724,83.947747 327.90822,86.942475 319.76041,86.942475 L 319.76041,86.942475 z"/><path id="path9003" fill="url(#radialGradient4078)" fill-opacity="1" fill-rule="nonzero" stroke-dasharray="none" stroke-dashoffset="0" stroke-linecap="butt" stroke-linejoin="miter" stroke-miterlimit="4" stroke-opacity="1" stroke-width="1" d="M 319.6475,81.883652 C 316.82104,81.883652 314.65427,81.006976 314.6086,79.844145 C 314.60824,79.831575 314.60789,79.819215 314.60789,79.806855 C 314.60789,79.386077 314.89188,78.985894 315.43153,78.647059 C 316.34441,78.074315 317.92053,77.732445 319.64785,77.732445 C 321.37482,77.732445 322.95093,78.074315 323.86381,78.647059 C 324.4194,78.99543 324.70411,79.409491 324.68675,79.843927 C 324.64035,81.006758 322.4736,81.88365 319.6475,81.88365 L 319.6475,81.883652 z M 319.6475,78.383019 C 316.99171,78.383019 315.63868,79.25189 315.67055,80.045103 C 315.70135,80.825962 317.4818,81.449868 319.6475,81.449868 C 321.8132,81.449868 323.59363,80.825744 323.62444,80.045103 C 323.65594,79.251672 322.30328,78.383019 319.6475,78.383019 L 319.6475,78.383019 z" display="inline" enable-background="accumulate" overflow="visible" visibility="visible" style="marker:none"/><g id="g9005" transform="matrix(-0.1320251,0,0,0.1401423,309.19335,61.406788)"><path id="path9007" fill="url(#linearGradient4138)" d="M 48.2999,190.27968 C 48.61436,194.52728 53.32365,197.99124 58.81409,197.99124 C 64.30203,197.99124 68.45729,194.52728 68.09043,190.27968 C 67.72606,186.05454 63.01926,182.64298 57.58373,182.64298 C 52.1457,182.64498 47.99044,186.05454 48.2999,190.27968 z"/><path id="path9009" fill="url(#radialGradient4140)" d="M 51.85122,187.29238 C 51.34959,187.83144 50.77559,188.69494 50.77559,189.84294 C 50.77559,189.92534 50.78059,190.00765 50.78559,190.095 C 51.00272,193.0224 54.67881,195.49559 58.81161,195.49559 C 61.16501,195.49559 63.31626,194.6845 64.56409,193.32188 C 65.10065,192.74039 65.71209,191.77707 65.60228,190.4943 C 65.35022,187.59186 61.67912,185.13863 57.58125,185.13863 C 55.24532,185.14063 53.10156,185.94473 51.85124,187.29238 L 51.85122,187.29238 z"/></g><g id="g9017" transform="matrix(9.05434e-2,0,0,6.056511e-2,301.91757,58.935593)"><path id="path9019" fill="url(#linearGradient4134)" d="M 48.2999,190.27968 C 48.61436,194.52728 53.32365,197.99124 58.81409,197.99124 C 64.30203,197.99124 68.45729,194.52728 68.09043,190.27968 C 67.72606,186.05454 63.01926,182.64298 57.58373,182.64298 C 52.1457,182.64498 47.99044,186.05454 48.2999,190.27968 z"/><path id="path9021" fill="url(#radialGradient4136)" d="M 51.85122,187.29238 C 51.34959,187.83144 50.77559,188.69494 50.77559,189.84294 C 50.77559,189.92534 50.78059,190.00765 50.78559,190.095 C 51.00272,193.0224 54.67881,195.49559 58.81161,195.49559 C 61.16501,195.49559 63.31626,194.6845 64.56409,193.32188 C 65.10065,192.74039 65.71209,191.77707 65.60228,190.4943 C 65.35022,187.59186 61.67912,185.13863 57.58125,185.13863 C 55.24532,185.14063 53.10156,185.94473 51.85124,187.29238 L 51.85122,187.29238 z"/></g><g id="g9023" transform="matrix(9.05434e-2,0,0,6.056511e-2,326.70176,58.935593)"><path id="path9025" fill="url(#linearGradient4130)" d="M 48.2999,190.27968 C 48.61436,194.52728 53.32365,197.99124 58.81409,197.99124 C 64.30203,197.99124 68.45729,194.52728 68.09043,190.27968 C 67.72606,186.05454 63.01926,182.64298 57.58373,182.64298 C 52.1457,182.64498 47.99044,186.05454 48.2999,190.27968 z"/><path id="path9027" fill="url(#radialGradient4132)" d="M 51.85122,187.29238 C 51.34959,187.83144 50.77559,188.69494 50.77559,189.84294 C 50.77559,189.92534 50.78059,190.00765 50.78559,190.095 C 51.00272,193.0224 54.67881,195.49559 58.81161,195.49559 C 61.16501,195.49559 63.31626,194.6845 64.56409,193.32188 C 65.10065,192.74039 65.71209,191.77707 65.60228,190.4943 C 65.35022,187.59186 61.67912,185.13863 57.58125,185.13863 C 55.24532,185.14063 53.10156,185.94473 51.85124,187.29238 L 51.85122,187.29238 z"/></g><path id="path9029" fill="url(#radialGradient4104)" fill-opacity="1" fill-rule="nonzero" stroke="none" stroke-width="1.54" d="M 42.5,187.25 L 42,215.5 L 45.125,217.25 L 45.125,187.25 L 42.5,187.25 z" display="inline" enable-background="accumulate" filter="url(#filter4116)" opacity=".5" overflow="visible" transform="matrix(0.6764069,0,0,0.1996805,270.95029,50.796148)" visibility="visible" style="marker:none"/><path id="path9031" fill="url(#radialGradient4102)" fill-opacity="1" fill-rule="nonzero" stroke="none" stroke-width="1.54" d="M 42.5,187.25 L 42,215.5 L 45.125,217.25 L 45.125,187.25 L 42.5,187.25 z" display="inline" enable-background="accumulate" filter="url(#filter7527)" overflow="visible" transform="matrix(-0.1335567,0,0,0.1996805,345.55134,52.796148)" visibility="visible" style="marker:none"/><g id="g7741" transform="matrix(1,0,0,0.8675042,0,25.228511)"><g id="g8991" transform="matrix(0.1964069,0,0,0.1996805,293.09232,34.304422)"><rect id="rect8993" width="89.822" height="28.348" x="61.37" y="195.916" fill="url(#linearGradient7749)" fill-opacity="1" fill-rule="evenodd" stroke="none" stroke-width="2.409" display="inline" overflow="visible" visibility="visible" style="marker:none"/><path id="path8995" fill="url(#linearGradient7751)" fill-opacity="1" fill-rule="evenodd" stroke="none" d="M 61.369759,224.26414 C 61.369759,224.26414 61.369759,203.82049 61.369759,203.82049 C 70.724123,220.02272 103.65101,224.26414 127.30289,224.26414 C 127.30289,224.26414 61.369759,224.26414 61.369759,224.26414 z" opacity=".811"/><path id="path8997" fill="#fff" fill-opacity="1" fill-rule="evenodd" stroke="none" d="M 61.456423,195.98396 L 61.456423,224.17277 L 125.47846,224.17277 L 63.208269,222.42092 L 61.456423,195.98396 L 61.456423,195.98396 z" opacity=".44"/></g><path id="path9041" fill="url(#radialGradient7753)" fill-opacity="1" fill-rule="nonzero" stroke="none" stroke-width="1" d="M 306.4971,76.431125 C 307.65679,77.6956 309.3344,78.525089 311.99649,78.52777 C 309.48297,78.059464 307.63579,77.365342 306.4971,76.431125 z" display="inline" enable-background="accumulate" opacity=".554" overflow="visible" visibility="visible" style="marker:none"/><rect id="rect4142" width="2.232" height="5.06" x="302.796" y="73.836" fill="url(#linearGradient7755)" fill-opacity="1" stroke="none" opacity=".489"/></g><path id="path9033" fill="url(#linearGradient4100)" fill-opacity="1" fill-rule="nonzero" stroke="none" stroke-width="1.54" d="M 161.5,187 L 152,218 L 208,218 L 222,187 L 161.5,187 z" display="inline" enable-background="accumulate" filter="url(#filter7557)" opacity=".678" overflow="visible" transform="matrix(-0.1964069,0,0,0.1996805,356.31738,50.796148)" visibility="visible" style="marker:none"/><path id="path9035" fill="none" stroke="url(#radialGradient4063)" stroke-dasharray="none" stroke-dashoffset="0" stroke-linecap="butt" stroke-linejoin="miter" stroke-miterlimit="4" stroke-opacity="1" stroke-width="1" d="M 332.78153,71.366432 L 339.06655,87.340869" display="inline" enable-background="accumulate" opacity=".896" overflow="visible" visibility="visible" style="marker:none"/><path id="path9037" fill="none" stroke="url(#radialGradient4060)" stroke-dasharray="none" stroke-dashoffset="0" stroke-linecap="butt" stroke-linejoin="miter" stroke-miterlimit="4" stroke-opacity="1" stroke-width="1" d="M 306.10872,71.366432 L 299.8237,87.340869" display="inline" enable-background="accumulate" opacity=".896" overflow="visible" visibility="visible" style="marker:none"/><path id="path9039" fill="url(#radialGradient4057)" fill-opacity="1" fill-rule="nonzero" stroke="none" stroke-width="1" d="M 308.1179,70.205932 L 308.0258,70.474252 L 306.65096,74.467862 L 306.41772,75.135543 L 307.09901,74.992023 L 318.68702,72.496017 L 318.72382,72.483537 L 318.75452,72.471057 C 319.36816,72.22151 319.69605,71.717214 319.77338,71.254253 C 319.81208,71.022772 319.80048,70.796101 319.69978,70.586572 C 319.60468,70.388771 319.3571,70.212784 319.09828,70.218411 L 319.09828,70.205931 L 319.05528,70.205931 L 308.39407,70.205931 L 308.11787,70.205931 L 308.1179,70.205932 z M 308.51012,70.452678 L 319.19013,70.452678 C 319.19513,70.486398 319.20713,70.505108 319.19613,70.568876 C 319.16263,70.769596 319.0185,71.487685 318.65641,71.644333 L 307.42399,74.065114 L 308.50977,70.452678 L 308.51012,70.452678 z" display="inline" enable-background="accumulate" overflow="visible" visibility="visible" style="marker:none"/><g id="g9089" transform="matrix(0.1320251,0,0,0.1401423,329.80012,61.406788)"><path id="path9091" fill="url(#linearGradient4126)" d="M 48.2999,190.27968 C 48.61436,194.52728 53.32365,197.99124 58.81409,197.99124 C 64.30203,197.99124 68.45729,194.52728 68.09043,190.27968 C 67.72606,186.05454 63.01926,182.64298 57.58373,182.64298 C 52.1457,182.64498 47.99044,186.05454 48.2999,190.27968 z"/><path id="path9093" fill="url(#radialGradient4128)" d="M 51.85122,187.29238 C 51.34959,187.83144 50.77559,188.69494 50.77559,189.84294 C 50.77559,189.92534 50.78059,190.00765 50.78559,190.095 C 51.00272,193.0224 54.67881,195.49559 58.81161,195.49559 C 61.16501,195.49559 63.31626,194.6845 64.56409,193.32188 C 65.10065,192.74039 65.71209,191.77707 65.60228,190.4943 C 65.35022,187.59186 61.67912,185.13863 57.58125,185.13863 C 55.24532,185.14063 53.10156,185.94473 51.85124,187.29238 L 51.85122,187.29238 z"/></g><path id="path9099" fill="none" stroke="url(#linearGradient4048)" stroke-dasharray="none" stroke-linecap="butt" stroke-linejoin="miter" stroke-miterlimit="4" stroke-opacity="1" stroke-width="1" d="M 300.15376,87.041983 C 299.48387,88.400089 300.15318,89.261328 301.12509,89.261328 C 301.12509,89.261328 337.70075,89.261328 337.70075,89.261328 C 338.75023,89.239248 339.43128,88.322797 339.04051,87.273851 L 332.8686,71.311143 C 332.69555,70.836356 332.25454,70.394694 331.79679,70.383652 L 307.297,70.383652 C 306.71085,70.383652 306.32567,70.665212 306.09121,71.178644 C 306.09121,71.178644 300.15376,87.041983 300.15376,87.041983 L 300.15376,87.041983 z"/><path id="path9109" fill="none" stroke="url(#linearGradient4045)" stroke-dasharray="none" stroke-dashoffset="0" stroke-linecap="butt" stroke-linejoin="miter" stroke-miterlimit="4" stroke-opacity="1" stroke-width="1" d="M 299.68751,87.133654 L 299.68751,92.382453 C 299.68751,93.133753 300.07256,93.354724 300.64984,93.354724 L 338.92199,93.354724 C 339.45232,93.443114 339.76168,92.912783 339.71748,92.426647 L 339.45232,87.521094" display="inline" enable-background="accumulate" opacity=".25" overflow="visible" visibility="visible" style="marker:none"/><path id="rect9123" fill="#fff" fill-opacity="1" fill-rule="nonzero" stroke="none" stroke-width="1" d="M 322.61433,70.871152 L 329.90637,70.871152 L 329.90637,71.931812 L 324.64727,71.931812 C 322.14293,73.507421 319.6386,74.153569 317.13427,74.318297 C 319.19125,73.295909 322.66451,73.052478 322.61433,70.871152 L 322.61433,70.871152 z" display="inline" enable-background="accumulate" opacity=".421" overflow="visible" visibility="visible" style="marker:none"/><rect id="rect9125" width="12.021" height="1.061" x="307.588" y="70.871" fill="#fff" fill-opacity="1" fill-rule="nonzero" stroke="none" stroke-width="1" display="inline" enable-background="accumulate" opacity=".312" overflow="visible" visibility="visible" style="marker:none"/></g></g><g id="g2628" display="inline" transform="translate(20.157194,14.125)"><g id="g2222" transform="translate(5.0298057,0)"><path id="path3292" fill="url(#radialGradient2235)" fill-opacity="1" stroke="none" stroke-dasharray="none" stroke-miterlimit="4" stroke-opacity="1" stroke-width="1" d="M 35.75,44.0625 A 10.875,3.6875 0 1 1 14,44.0625 A 10.875,3.6875 0 1 1 35.75,44.0625 z" opacity=".326" transform="matrix(1.0087535,0,0,0.6480447,-14.122549,-0.9441344)"/><path id="path3151" fill="#d3d7cf" fill-opacity="1" stroke="#888a85" stroke-dasharray="none" stroke-miterlimit="4" stroke-opacity="1" stroke-width="1.558" d="M 31.731416,44.155106 A 7.6897864,2.6958447 0 1 1 16.351843,44.155106 A 7.6897864,2.6958447 0 1 1 31.731416,44.155106 z" opacity="1" transform="matrix(0.6820193,0,0,0.6037497,-5.1174777,1.1311306)"/><path id="path3248" fill="none" fill-opacity="1" stroke="url(#linearGradient2237)" stroke-dasharray="none" stroke-miterlimit="4" stroke-opacity="1" stroke-width="2.09" d="M 31.091041,44.155106 A 7.0494113,1.5903722 0 1 1 16.992218,44.155106 A 7.0494113,1.5903722 0 1 1 31.091041,44.155106 z" opacity="1" transform="matrix(0.5855943,0,0,0.3909527,-2.796397,10.540547)"/><path id="path2170" fill="url(#radialGradient2239)" fill-opacity="1" fill-rule="evenodd" stroke="url(#linearGradient2241)" stroke-linecap="butt" stroke-linejoin="miter" stroke-opacity="1" stroke-width="1" d="M 8.7346695,27.577522 C 11.161046,28.378477 12.301887,27.989866 13.830855,27.755413 C 13.830855,27.755413 11.095928,28.758646 11.13728,21.432213 C 11.160725,17.278343 12.751082,16.291201 16.508852,12.380844 C 19.109267,9.6748376 15.014874,1.9720666 15.014874,1.9720666 C 12.402925,2.4392546 9.9062065,2.4751916 6.8333235,2.0798796 C 6.8333235,2.0798796 3.8131675,9.7621726 6.0266915,12.429875 C 9.4260685,16.526747 11.225015,15.428925 11.378111,21.527227 C 11.539074,27.938829 10.242774,27.441434 8.7346695,27.577522 z"/><path id="path3290" fill="none" fill-opacity="1" stroke="#888a85" stroke-dasharray="none" stroke-miterlimit="4" stroke-opacity="1" stroke-width="1.568" d="M 31.554639,4.7780981 A 6.6733203,1.5026019 0 1 1 18.207999,4.7780981 A 6.6733203,1.5026019 0 1 1 31.554639,4.7780981 z" opacity="1" transform="matrix(0.6285456,0,0,0.6469226,-4.66885,-1.4430154)"/><path id="path3236" fill="none" fill-opacity="1" fill-rule="evenodd" stroke="url(#linearGradient2243)" stroke-linecap="butt" stroke-linejoin="miter" stroke-opacity="1" stroke-width="1" d="M 15.809406,12.052016 C 17.36326,9.9087646 14.602587,3.2653536 14.602587,3.2653536 C 12.319902,3.7109156 10.196487,3.5302826 7.5109745,3.1532686 C 7.5109745,3.1532686 5.1829035,9.9790876 6.6486385,12.023307 C 9.5087932,16.012284 12.902044,16.153222 11.248233,17.421732 C 11.058885,17.566965 12.89264,16.07515 15.809406,12.052016 z" opacity=".674"/><path id="path2172" fill="url(#linearGradient2245)" fill-opacity="1" fill-rule="evenodd" stroke="url(#linearGradient2247)" stroke-linecap="butt" stroke-linejoin="miter" stroke-opacity="1" stroke-width="1" d="M 5.3056345,10.875936 C 5.3866185,11.741837 6.6511525,13.180397 7.8642945,14.488041 C 9.6635235,16.427425 10.15944,16.991246 11.301298,16.970917 C 12.771199,16.983623 14.041846,14.760953 15.751154,13.189665 C 16.884775,12.147581 17.262725,10.761583 17.262725,10.761583 C 17.262725,10.761583 15.525415,9.6275396 11.235224,9.6303336 C 7.3479855,9.6328646 6.1271135,10.723466 5.3056345,10.875936 z" opacity="1"/><path id="path2174" fill="url(#linearGradient2249)" fill-opacity="1" fill-rule="evenodd" stroke="none" stroke-linecap="butt" stroke-linejoin="miter" stroke-opacity="1" stroke-width="1" d="M 5.7771685,11.070415 C 5.7771685,11.070415 8.2576285,9.9657146 11.688059,9.9657136 C 14.882701,9.9657136 16.877412,10.870144 16.877412,10.870144 C 16.877412,10.870144 16.570585,12.269731 11.24014,12.231615 C 4.8706435,12.18645 5.8684445,10.99418 5.7771685,11.070415 z" opacity=".368"/><path id="path3216" fill="url(#radialGradient2251)" fill-opacity="1" stroke="none" stroke-dasharray="none" stroke-miterlimit="4" stroke-opacity="1" stroke-width="1" d="M 70.875,19.25 A 1.6875,1.625 0 1 1 67.5,19.25 A 1.6875,1.625 0 1 1 70.875,19.25 z" opacity=".549" transform="matrix(0.6453055,0,0,0.6037497,-35.330477,2.0367546)"/><path id="path3258" fill="none" fill-opacity="1" fill-rule="evenodd" stroke="url(#linearGradient2253)" stroke-linecap="butt" stroke-linejoin="miter" stroke-opacity="1" stroke-width="1" d="M 6.5767175,11.40842 C 6.6468845,12.144055 7.5726155,12.763456 8.6237245,13.874376 C 10.182639,15.521998 10.279494,16.06734 11.268839,16.050069 C 12.542412,16.060864 13.143344,14.209117 14.624349,12.874215 C 15.606558,11.988903 16.082082,11.225352 16.082082,11.225352 C 16.082082,11.225352 15.049376,10.585444 11.332204,10.587817 C 7.9641655,10.589967 7.2884755,11.278888 6.5767175,11.40842 z"/><path id="path3272" fill="url(#linearGradient2255)" fill-opacity="1" fill-rule="evenodd" stroke="none" stroke-linecap="butt" stroke-linejoin="miter" stroke-opacity="1" stroke-width="1" d="M 6.9733955,13.311774 C 6.9733955,13.311774 4.3187685,9.4984816 7.0629955,3.5500536 C 7.4995375,2.6037976 7.2122575,2.6832436 7.2122575,2.6832436 C 7.2122575,2.6832436 9.96492,3.0918876 11.644794,3.0659296 C 13.36899,3.0402424 14.750606,2.7236286 14.750606,2.7236286 C 14.750606,2.7236286 15.821036,4.8406146 15.978119,6.0163476 C 16.092194,6.8701776 16.91917,10.210623 16.91917,10.210623 C 16.91917,10.210623 14.261305,10.68802 11.153346,10.031568 C 7.8160295,9.3266706 7.1445075,13.258411 6.9733955,13.311774 z" opacity="1"/></g></g></svg>