<svg xmlns="http://www.w3.org/2000/svg" xmlns:svg="http://www.w3.org/2000/svg" xmlns:xlink="http://www.w3.org/1999/xlink" id="svg7452" width="48" height="48"><defs id="defs7454"><linearGradient id="linearGradient3282"><stop id="stop3284" offset="0" stop-color="#fff" stop-opacity="1"/><stop id="stop3286" offset="1" stop-color="#fff" stop-opacity="0"/></linearGradient><linearGradient id="linearGradient2255" x1="13.258" x2="31.466" y1="-6.137" y2="21.617" gradientTransform="matrix(0.6453055,0,0,0.6037497,-4.5171397,1.1311306)" gradientUnits="userSpaceOnUse" xlink:href="#linearGradient3282"/><linearGradient id="linearGradient3264"><stop id="stop3266" offset="0" stop-color="#fff" stop-opacity="1"/><stop id="stop3268" offset="1" stop-color="#fff" stop-opacity="0"/></linearGradient><linearGradient id="linearGradient2253" x1="15.173" x2="26.04" y1="5.046" y2="29.487" gradientTransform="matrix(0.6453055,0,0,0.6037497,-4.5171397,1.1311296)" gradientUnits="userSpaceOnUse" xlink:href="#linearGradient3264"/><linearGradient id="linearGradient3218"><stop id="stop3220" offset="0" stop-color="#ff0f0f" stop-opacity="1"/><stop id="stop3222" offset="1" stop-color="#ff0f0f" stop-opacity="0"/></linearGradient><radialGradient id="radialGradient2251" cx="69.188" cy="19.25" r="1.688" fx="69.188" fy="19.25" gradientTransform="matrix(1,0,0,0.962963,0,0.712963)" gradientUnits="userSpaceOnUse" xlink:href="#linearGradient3218"/><linearGradient id="linearGradient3195"><stop id="stop3197" offset="0" stop-color="#eeeeec" stop-opacity="1"/><stop id="stop3199" offset="1" stop-color="#eeeeec" stop-opacity="0"/></linearGradient><linearGradient id="linearGradient2249" x1="20.627" x2="23.342" y1="17.396" y2="28.084" gradientTransform="matrix(0.6453055,0,0,0.6480447,-4.5171397,-0.9441344)" gradientUnits="userSpaceOnUse" xlink:href="#linearGradient3195"/><linearGradient id="linearGradient3185"><stop id="stop3187" offset="0" stop-color="#a40000" stop-opacity="1"/><stop id="stop3189" offset="1" stop-color="#680000" stop-opacity="1"/></linearGradient><linearGradient id="linearGradient2247" x1="20.524" x2="24.022" y1="15.617" y2="25.994" gradientTransform="matrix(0.7228652,0,0,0.6037497,-6.0581665,0.8784436)" gradientUnits="userSpaceOnUse" xlink:href="#linearGradient3185"/><linearGradient id="linearGradient3169"><stop id="stop3171" offset="0" stop-color="#e40000" stop-opacity=".592"/><stop id="stop3173" offset="1" stop-color="#700" stop-opacity="1"/></linearGradient><linearGradient id="linearGradient2245" x1="20.524" x2="24.022" y1="15.617" y2="25.994" gradientTransform="matrix(0.7228652,0,0,0.6037497,-6.0581665,0.8784436)" gradientUnits="userSpaceOnUse" xlink:href="#linearGradient3169"/><linearGradient id="linearGradient3240"><stop id="stop3242" offset="0" stop-color="#fff" stop-opacity="1"/><stop id="stop3244" offset="1" stop-color="#fff" stop-opacity=".476"/></linearGradient><linearGradient id="linearGradient2243" x1="14.248" x2="30.045" y1="-1.588" y2="44.678" gradientTransform="matrix(0.6453055,0,0,0.6037497,-4.5171397,1.1311296)" gradientUnits="userSpaceOnUse" xlink:href="#linearGradient3240"/><linearGradient id="linearGradient3186"><stop id="stop3188" offset="0" stop-color="#888a85" stop-opacity="1"/><stop id="stop3190" offset="1" stop-color="#888a85" stop-opacity="0"/></linearGradient><linearGradient id="linearGradient2241" x1="24.503" x2="28.923" y1="25.502" y2="49.629" gradientTransform="matrix(0.6453055,0,0,0.6480447,-4.5171397,-0.9441344)" gradientUnits="userSpaceOnUse" xlink:href="#linearGradient3186"/><linearGradient id="linearGradient3161"><stop id="stop3163" offset="0" stop-color="#fff" stop-opacity=".534"/><stop id="stop3165" offset="1" stop-color="#000" stop-opacity=".078"/></linearGradient><radialGradient id="radialGradient2239" cx="21.427" cy="15.473" r="9.418" fx="21.427" fy="15.473" gradientTransform="matrix(1.0564455,2.2729667e-3,-3.721177e-3,1.5139708,-13.503269,-19.183025)" gradientUnits="userSpaceOnUse" xlink:href="#linearGradient3161"/><linearGradient id="linearGradient3250"><stop id="stop3252" offset="0" stop-color="#fff" stop-opacity="1"/><stop id="stop3254" offset="1" stop-color="#fff" stop-opacity="0"/></linearGradient><linearGradient id="linearGradient2237" x1="21.213" x2="30.573" y1="37.488" y2="54.283" gradientUnits="userSpaceOnUse" xlink:href="#linearGradient3250"/><linearGradient id="linearGradient3303"><stop id="stop3305" offset="0" stop-color="#888a85" stop-opacity="1"/><stop id="stop3307" offset="1" stop-color="#888a85" stop-opacity="0"/></linearGradient><radialGradient id="radialGradient2235" cx="24.875" cy="44.063" r="10.875" fx="24.875" fy="44.063" gradientTransform="matrix(1,0,0,0.3390805,0,29.121767)" gradientUnits="userSpaceOnUse" xlink:href="#linearGradient3303"/><linearGradient id="linearGradient2791"><stop id="stop2793" offset="0" stop-color="#555753" stop-opacity="1"/><stop id="stop2799" offset=".5" stop-color="#cccdcb" stop-opacity="1"/><stop id="stop2795" offset="1" stop-color="#555753" stop-opacity="1"/></linearGradient><linearGradient id="linearGradient2804"><stop id="stop2806" offset="0" stop-color="#fff" stop-opacity="1"/><stop id="stop2808" offset="1" stop-color="#d3d7cf" stop-opacity="1"/></linearGradient><linearGradient id="linearGradient4682"><stop id="stop4684" offset="0" stop-color="#fff" stop-opacity="1"/><stop id="stop4686" offset="1" stop-color="#fff" stop-opacity="0"/></linearGradient><linearGradient id="linearGradient4688" x1="6.793" x2="7.922" y1="32.963" y2="54.449" gradientUnits="userSpaceOnUse" xlink:href="#linearGradient4682"/><linearGradient id="linearGradient2919"><stop id="stop2921" offset="0" stop-color="#d3d7cf" stop-opacity="1"/><stop id="stop2923" offset="1" stop-color="#d3d7cf" stop-opacity="0"/></linearGradient><linearGradient id="linearGradient2925" x1="11.95" x2="94.364" y1="40.665" y2="47.897" gradientTransform="matrix(1,0,0,1.489708,-1.9995016,-22.551837)" gradientUnits="userSpaceOnUse" xlink:href="#linearGradient2919"/><linearGradient id="linearGradient4333"><stop id="stop4335" offset="0" stop-color="#000" stop-opacity="1"/><stop id="stop4337" offset="1" stop-color="#000" stop-opacity="0"/></linearGradient><radialGradient id="radialGradient4339" cx="37.375" cy="33.188" r="14.625" fx="37.375" fy="33.188" gradientTransform="matrix(1,0,0,0.226496,0,25.67067)" gradientUnits="userSpaceOnUse" xlink:href="#linearGradient4333"/><linearGradient id="linearGradient3415"><stop id="stop3417" offset="0" stop-color="#000" stop-opacity="0"/><stop id="stop3423" offset=".5" stop-color="#000" stop-opacity="1"/><stop id="stop3419" offset="1" stop-color="#000" stop-opacity="0"/></linearGradient><linearGradient id="linearGradient3434" x1="18" x2="18" y1="46" y2="32.999" gradientUnits="userSpaceOnUse" xlink:href="#linearGradient3415"/><radialGradient id="radialGradient3432" cx="6" cy="39.5" r="3" fx="6" fy="39.5" gradientTransform="matrix(1,0,0,2.166667,-45,-125.0833)" gradientUnits="userSpaceOnUse" xlink:href="#linearGradient3399"/><linearGradient id="linearGradient3399"><stop id="stop3401" offset="0" stop-color="#000" stop-opacity="1"/><stop id="stop3403" offset="1" stop-color="#000" stop-opacity="0"/></linearGradient><radialGradient id="radialGradient3430" cx="6" cy="39.5" r="3" fx="6" fy="39.5" gradientTransform="matrix(1,0,0,2.166667,0,-46.08333)" gradientUnits="userSpaceOnUse" xlink:href="#linearGradient3399"/><linearGradient id="linearGradient4700"><stop id="stop4702" offset="0" stop-color="#2e3436" stop-opacity="1"/><stop id="stop4704" offset="1" stop-color="#888a85" stop-opacity="1"/></linearGradient><linearGradient id="linearGradient4698" x1="5.657" x2="4" y1="53.321" y2="16.003" gradientTransform="translate(4.984e-4,4.229e-4)" gradientUnits="userSpaceOnUse" xlink:href="#linearGradient4700"/><linearGradient id="linearGradient4690"><stop id="stop4692" offset="0" stop-color="#fff" stop-opacity="1"/><stop id="stop4694" offset="1" stop-color="#eeeeec" stop-opacity="1"/></linearGradient><radialGradient id="radialGradient4696" cx="29.481" cy="36.777" r="18.5" fx="29.481" fy="36.777" gradientTransform="matrix(2.012905,0,0,1.338879,-28.886641,-12.681567)" gradientUnits="userSpaceOnUse" xlink:href="#linearGradient4690"/><radialGradient id="radialGradient7626" cx="12.322" cy="11.669" r="1.5" fx="12.322" fy="11.669" gradientTransform="matrix(9.835652,1.854444e-6,0,1.136384,-108.6942,-1.914856)" gradientUnits="userSpaceOnUse" xlink:href="#linearGradient2804"/><linearGradient id="linearGradient7628" x1="11.669" x2="11.581" y1="6.728" y2="14.663" gradientUnits="userSpaceOnUse" xlink:href="#linearGradient2791"/></defs><metadata id="metadata7457"/><g id="layer1"><path id="rect3790" fill="url(#radialGradient4696)" fill-opacity="1" stroke="url(#linearGradient4698)" stroke-dashoffset="0" stroke-linecap="round" stroke-linejoin="round" stroke-miterlimit="4" stroke-opacity="1" stroke-width="1" d="M 8.2682654,10.523771 L 36.732709,10.523771 C 37.712052,10.523771 38.429497,11.276446 38.500476,12.291538 L 40.437976,40.000423 L 40.500499,43.500423 L 4.5004984,43.500423 L 4.5004984,40.000423 L 6.5004984,12.291538 C 6.5705734,11.320687 7.2889224,10.523771 8.2682654,10.523771 z" opacity="1"/><g id="g3425" opacity=".4" transform="matrix(1.0416677,0,0,0.4579337,-0.9370031,24.41205)"><rect id="rect3397" width="3" height="13" x="3" y="33" fill="url(#radialGradient3430)" fill-opacity="1" stroke="none" stroke-dasharray="none" stroke-dashoffset="1.2" stroke-linecap="square" stroke-linejoin="miter" stroke-miterlimit="4" stroke-opacity="1" stroke-width="1.002" opacity="1"/><rect id="rect3407" width="3" height="13" x="-42" y="-46" fill="url(#radialGradient3432)" fill-opacity="1" stroke="none" stroke-dasharray="none" stroke-dashoffset="1.2" stroke-linecap="square" stroke-linejoin="miter" stroke-miterlimit="4" stroke-opacity="1" stroke-width="1.002" opacity="1" transform="scale(-1,-1)"/><rect id="rect3413" width="33" height="13" x="6" y="33" fill="url(#linearGradient3434)" fill-opacity="1" stroke="none" stroke-dasharray="none" stroke-dashoffset="1.2" stroke-linecap="square" stroke-linejoin="miter" stroke-miterlimit="4" stroke-opacity="1" stroke-width="1.002" opacity="1"/></g><path id="path4331" fill="url(#radialGradient4339)" fill-opacity="1" stroke="none" stroke-dasharray="none" stroke-dashoffset="1.2" stroke-linecap="square" stroke-linejoin="miter" stroke-miterlimit="4" stroke-opacity="1" stroke-width="1.002" d="M 52,33.1875 A 14.625,3.3125 0 1 1 22.75,33.1875 A 14.625,3.3125 0 1 1 52,33.1875 z" opacity=".07" transform="matrix(0.897436,0,0,0.981132,1.3338314,1.6891019)"/><g id="g2894" transform="translate(-1.7495016,-0.9995771)"><path id="path2878" fill="#fff" fill-opacity="1" stroke="none" stroke-dasharray="none" stroke-dashoffset="1.2" stroke-linecap="square" stroke-linejoin="miter" stroke-miterlimit="4" stroke-opacity="1" stroke-width="1.002" d="M 13.999999,15.109375 A 1.7421875,1.578125 0 1 1 10.515624,15.109375 A 1.7421875,1.578125 0 1 1 13.999999,15.109375 z" opacity="1" transform="matrix(1.143498,0,0,1.268986,-1.524595,-5.176204)"/><path id="path2880" fill="#fff" fill-opacity="1" stroke="none" stroke-dasharray="none" stroke-dashoffset="1.2" stroke-linecap="square" stroke-linejoin="miter" stroke-miterlimit="4" stroke-opacity="1" stroke-width="1.002" d="M 13.999999,15.109375 A 1.7421875,1.578125 0 1 1 10.515624,15.109375 A 1.7421875,1.578125 0 1 1 13.999999,15.109375 z" opacity="1" transform="matrix(1.143498,0,0,1.268986,2.475405,-5.176204)"/><path id="path2882" fill="#fff" fill-opacity="1" stroke="none" stroke-dasharray="none" stroke-dashoffset="1.2" stroke-linecap="square" stroke-linejoin="miter" stroke-miterlimit="4" stroke-opacity="1" stroke-width="1.002" d="M 13.999999,15.109375 A 1.7421875,1.578125 0 1 1 10.515624,15.109375 A 1.7421875,1.578125 0 1 1 13.999999,15.109375 z" opacity="1" transform="matrix(1.143498,0,0,1.268986,6.475405,-5.176204)"/><path id="path2884" fill="#fff" fill-opacity="1" stroke="none" stroke-dasharray="none" stroke-dashoffset="1.2" stroke-linecap="square" stroke-linejoin="miter" stroke-miterlimit="4" stroke-opacity="1" stroke-width="1.002" d="M 13.999999,15.109375 A 1.7421875,1.578125 0 1 1 10.515624,15.109375 A 1.7421875,1.578125 0 1 1 13.999999,15.109375 z" opacity="1" transform="matrix(1.143498,0,0,1.268986,10.47541,-5.176204)"/><path id="path2886" fill="#fff" fill-opacity="1" stroke="none" stroke-dasharray="none" stroke-dashoffset="1.2" stroke-linecap="square" stroke-linejoin="miter" stroke-miterlimit="4" stroke-opacity="1" stroke-width="1.002" d="M 13.999999,15.109375 A 1.7421875,1.578125 0 1 1 10.515624,15.109375 A 1.7421875,1.578125 0 1 1 13.999999,15.109375 z" opacity="1" transform="matrix(1.143498,0,0,1.268986,14.47541,-5.176204)"/><path id="path2888" fill="#fff" fill-opacity="1" stroke="none" stroke-dasharray="none" stroke-dashoffset="1.2" stroke-linecap="square" stroke-linejoin="miter" stroke-miterlimit="4" stroke-opacity="1" stroke-width="1.002" d="M 13.999999,15.109375 A 1.7421875,1.578125 0 1 1 10.515624,15.109375 A 1.7421875,1.578125 0 1 1 13.999999,15.109375 z" opacity="1" transform="matrix(1.143498,0,0,1.268986,18.47541,-5.176204)"/><path id="path2890" fill="#fff" fill-opacity="1" stroke="none" stroke-dasharray="none" stroke-dashoffset="1.2" stroke-linecap="square" stroke-linejoin="miter" stroke-miterlimit="4" stroke-opacity="1" stroke-width="1.002" d="M 13.999999,15.109375 A 1.7421875,1.578125 0 1 1 10.515624,15.109375 A 1.7421875,1.578125 0 1 1 13.999999,15.109375 z" opacity="1" transform="matrix(1.143498,0,0,1.268986,22.47541,-5.176204)"/></g><rect id="rect2757" width="35" height="3.01" x="5" y="40" fill="url(#linearGradient2925)" fill-opacity="1" stroke="none" stroke-dasharray="none" stroke-dashoffset="1.2" stroke-linecap="round" stroke-linejoin="miter" stroke-miterlimit="4" stroke-opacity="1" stroke-width="1.002" opacity="1"/><path id="path4680" fill="none" fill-opacity="1" stroke="url(#linearGradient4688)" stroke-dasharray="none" stroke-dashoffset="0" stroke-linecap="round" stroke-linejoin="miter" stroke-miterlimit="4" stroke-opacity="1" stroke-width="1" d="M 8.28125,11.5 C 7.8175892,11.5 7.5065211,11.820452 7.46875,12.34375 L 5.46875,40 L 5.46875,40.0625 L 5.46875,42.53125 L 39.5,42.53125 L 39.46875,40.0625 L 39.46875,40.03125 L 37.53125,12.34375 C 37.490391,11.75941 37.211695,11.5 36.71875,11.5 L 8.28125,11.5 z" opacity="1" transform="translate(4.984e-4,4.229e-4)"/><g id="g2814" transform="translate(-1.9995016,-0.9995771)"><rect id="rect2776" width="1.998" height="5.044" x="11.501" y="9.501" fill="url(#radialGradient7626)" fill-opacity="1" stroke="url(#linearGradient7628)" stroke-dasharray="none" stroke-dashoffset="1.2" stroke-linecap="square" stroke-linejoin="miter" stroke-miterlimit="4" stroke-opacity="1" stroke-width="1.002" opacity="1" rx=".999" ry="1.507"/><path id="path2812" fill="#fff" fill-opacity="1" stroke="none" stroke-dasharray="none" stroke-dashoffset="1.2" stroke-linecap="square" stroke-linejoin="miter" stroke-miterlimit="4" stroke-opacity="1" stroke-width="1.002" d="M 12.71875,11.257812 A 0.59375,0.6484375 0 1 1 11.53125,11.257812 A 0.59375,0.6484375 0 1 1 12.71875,11.257812 z" opacity="1" transform="translate(-0.21875,-0.109374)"/></g><g id="g2953" opacity=".6" transform="translate(4.984e-4,-0.9995771)"><rect id="rect3297" width="5" height="1" x="31" y="18" fill="#888a85" fill-opacity="1" stroke="none" stroke-dasharray="none" stroke-dashoffset="1.2" stroke-linecap="square" stroke-linejoin="miter" stroke-miterlimit="4" stroke-opacity="1" stroke-width="1.002" opacity=".8" rx=".5" ry=".5"/><rect id="rect3305" width="2.125" height="1" x="8.875" y="20" fill="#888a85" fill-opacity="1" stroke="none" stroke-dasharray="none" stroke-dashoffset="1.2" stroke-linecap="square" stroke-linejoin="miter" stroke-miterlimit="4" stroke-opacity="1" stroke-width="1.002" opacity=".8" rx=".5" ry=".5"/><rect id="rect3287" width="4.172" height="1" x="7.828" y="36" fill="#888a85" fill-opacity="1" stroke="none" stroke-dasharray="none" stroke-dashoffset="1.2" stroke-linecap="square" stroke-linejoin="miter" stroke-miterlimit="4" stroke-opacity="1" stroke-width="1.002" opacity=".8" rx=".461" ry=".5"/><rect id="rect3307" width="8.391" height="1" x="8.609" y="23" fill="#888a85" fill-opacity="1" stroke="none" stroke-dasharray="none" stroke-dashoffset="1.2" stroke-linecap="square" stroke-linejoin="miter" stroke-miterlimit="4" stroke-opacity="1" stroke-width="1.002" opacity=".8" rx=".5" ry=".5"/><rect id="rect3309" width="3.516" height="1" x="8.484" y="25" fill="#888a85" fill-opacity="1" stroke="none" stroke-dasharray="none" stroke-dashoffset="1.2" stroke-linecap="square" stroke-linejoin="miter" stroke-miterlimit="4" stroke-opacity="1" stroke-width="1.002" opacity=".8" rx=".495" ry=".5"/><rect id="rect3313" width="4" height="1" x="33" y="33" fill="#888a85" fill-opacity="1" stroke="none" stroke-dasharray="none" stroke-dashoffset="1.2" stroke-linecap="square" stroke-linejoin="miter" stroke-miterlimit="4" stroke-opacity="1" stroke-width="1.002" opacity=".8" rx=".5" ry=".5"/><rect id="rect2940" width="3" height="1" x="21" y="36" fill="#888a85" fill-opacity="1" stroke="none" stroke-dasharray="none" stroke-dashoffset="1.2" stroke-linecap="square" stroke-linejoin="miter" stroke-miterlimit="4" stroke-opacity="1" stroke-width="1.002" opacity=".8" rx=".5" ry=".5"/><rect id="rect2915" width="5" height="1" x="30" y="23" fill="#888a85" fill-opacity="1" stroke="none" stroke-dasharray="none" stroke-dashoffset="1.2" stroke-linecap="square" stroke-linejoin="miter" stroke-miterlimit="4" stroke-opacity="1" stroke-width="1.002" opacity=".8" rx=".542" ry=".5"/><rect id="rect2885" width="2.641" height="1" x="8.359" y="28" fill="#888a85" fill-opacity="1" stroke="none" stroke-dasharray="none" stroke-dashoffset="1.2" stroke-linecap="square" stroke-linejoin="miter" stroke-miterlimit="4" stroke-opacity="1" stroke-width="1.002" opacity=".8" rx=".5" ry=".5"/><rect id="rect2893" width="6" height="1" x="9" y="18" fill="#888a85" fill-opacity="1" stroke="none" stroke-dasharray="none" stroke-dashoffset="1.2" stroke-linecap="square" stroke-linejoin="miter" stroke-miterlimit="4" stroke-opacity="1" stroke-width="1.002" opacity=".8" rx=".5" ry=".5"/><rect id="rect2895" width="5" height="1" x="21" y="18" fill="#888a85" fill-opacity="1" stroke="none" stroke-dasharray="none" stroke-dashoffset="1.2" stroke-linecap="square" stroke-linejoin="miter" stroke-miterlimit="4" stroke-opacity="1" stroke-width="1.002" opacity=".8" rx=".5" ry=".5"/><rect id="rect2897" width="2" height="1" x="28" y="18" fill="#888a85" fill-opacity="1" stroke="none" stroke-dasharray="none" stroke-dashoffset="1.2" stroke-linecap="square" stroke-linejoin="miter" stroke-miterlimit="4" stroke-opacity="1" stroke-width="1.002" opacity=".8" rx=".5" ry=".5"/><rect id="rect2899" width="2" height="1" x="16" y="18" fill="#888a85" fill-opacity="1" stroke="none" stroke-dasharray="none" stroke-dashoffset="1.2" stroke-linecap="square" stroke-linejoin="miter" stroke-miterlimit="4" stroke-opacity="1" stroke-width="1.002" opacity=".8" rx=".5" ry=".5"/><rect id="rect2901" width="2" height="1" x="19" y="18" fill="#888a85" fill-opacity="1" stroke="none" stroke-dasharray="none" stroke-dashoffset="1.2" stroke-linecap="square" stroke-linejoin="miter" stroke-miterlimit="4" stroke-opacity="1" stroke-width="1.002" opacity=".8" rx=".5" ry=".5"/><rect id="rect2903" width="4" height="1" x="12" y="20" fill="#888a85" fill-opacity="1" stroke="none" stroke-dasharray="none" stroke-dashoffset="1.2" stroke-linecap="square" stroke-linejoin="miter" stroke-miterlimit="4" stroke-opacity="1" stroke-width="1.002" opacity=".8" rx=".542" ry=".5"/><rect id="rect2905" width="2" height="1" x="17" y="20" fill="#888a85" fill-opacity="1" stroke="none" stroke-dasharray="none" stroke-dashoffset="1.2" stroke-linecap="square" stroke-linejoin="miter" stroke-miterlimit="4" stroke-opacity="1" stroke-width="1.002" opacity=".8" rx=".542" ry=".5"/><rect id="rect2907" width="4" height="1" x="20" y="20" fill="#888a85" fill-opacity="1" stroke="none" stroke-dasharray="none" stroke-dashoffset="1.2" stroke-linecap="square" stroke-linejoin="miter" stroke-miterlimit="4" stroke-opacity="1" stroke-width="1.002" opacity=".8" rx=".542" ry=".5"/><rect id="rect2909" width="4" height="1" x="19" y="23" fill="#888a85" fill-opacity="1" stroke="none" stroke-dasharray="none" stroke-dashoffset="1.2" stroke-linecap="square" stroke-linejoin="miter" stroke-miterlimit="4" stroke-opacity="1" stroke-width="1.002" opacity=".8" rx=".542" ry=".5"/><rect id="rect2911" width="2" height="1" x="23" y="23" fill="#888a85" fill-opacity="1" stroke="none" stroke-dasharray="none" stroke-dashoffset="1.2" stroke-linecap="square" stroke-linejoin="miter" stroke-miterlimit="4" stroke-opacity="1" stroke-width="1.002" opacity=".8" rx=".542" ry=".5"/><rect id="rect2913" width="3" height="1" x="26" y="23" fill="#888a85" fill-opacity="1" stroke="none" stroke-dasharray="none" stroke-dashoffset="1.2" stroke-linecap="square" stroke-linejoin="miter" stroke-miterlimit="4" stroke-opacity="1" stroke-width="1.002" opacity=".8" rx=".542" ry=".5"/><rect id="rect2919" width="2" height="1" x="13" y="25" fill="#888a85" fill-opacity="1" stroke="none" stroke-dasharray="none" stroke-dashoffset="1.2" stroke-linecap="square" stroke-linejoin="miter" stroke-miterlimit="4" stroke-opacity="1" stroke-width="1.002" opacity=".8" rx=".542" ry=".5"/><rect id="rect2921" width="4" height="1" x="16" y="25" fill="#888a85" fill-opacity="1" stroke="none" stroke-dasharray="none" stroke-dashoffset="1.2" stroke-linecap="square" stroke-linejoin="miter" stroke-miterlimit="4" stroke-opacity="1" stroke-width="1.002" opacity=".8" rx=".542" ry=".5"/><rect id="rect2923" width="2" height="1" x="20" y="25" fill="#888a85" fill-opacity="1" stroke="none" stroke-dasharray="none" stroke-dashoffset="1.2" stroke-linecap="square" stroke-linejoin="miter" stroke-miterlimit="4" stroke-opacity="1" stroke-width="1.002" opacity=".8" rx=".542" ry=".5"/><rect id="rect2925" width="2" height="1" x="24" y="25" fill="#888a85" fill-opacity="1" stroke="none" stroke-dasharray="none" stroke-dashoffset="1.2" stroke-linecap="square" stroke-linejoin="miter" stroke-miterlimit="4" stroke-opacity="1" stroke-width="1.002" opacity=".8" rx=".542" ry=".5"/><rect id="rect2931" width="2" height="1" x="12" y="28" fill="#888a85" fill-opacity="1" stroke="none" stroke-dasharray="none" stroke-dashoffset="1.2" stroke-linecap="square" stroke-linejoin="miter" stroke-miterlimit="4" stroke-opacity="1" stroke-width="1.002" opacity=".8" rx=".542" ry=".5"/><rect id="rect2933" width="4" height="1" x="14" y="28" fill="#888a85" fill-opacity="1" stroke="none" stroke-dasharray="none" stroke-dashoffset="1.2" stroke-linecap="square" stroke-linejoin="miter" stroke-miterlimit="4" stroke-opacity="1" stroke-width="1.002" opacity=".8" rx=".542" ry=".5"/><rect id="rect2935" width="2" height="1" x="19" y="28" fill="#888a85" fill-opacity="1" stroke="none" stroke-dasharray="none" stroke-dashoffset="1.2" stroke-linecap="square" stroke-linejoin="miter" stroke-miterlimit="4" stroke-opacity="1" stroke-width="1.002" opacity=".8" rx=".542" ry=".5"/><rect id="rect2938" width="6" height="1" x="13" y="36" fill="#888a85" fill-opacity="1" stroke="none" stroke-dasharray="none" stroke-dashoffset="1.2" stroke-linecap="square" stroke-linejoin="miter" stroke-miterlimit="4" stroke-opacity="1" stroke-width="1.002" opacity=".8" rx=".542" ry=".5"/><rect id="rect2942" width="2" height="1" x="8" y="33" fill="#888a85" fill-opacity="1" stroke="none" stroke-dasharray="none" stroke-dashoffset="1.2" stroke-linecap="square" stroke-linejoin="miter" stroke-miterlimit="4" stroke-opacity="1" stroke-width="1.002" opacity=".8" rx=".5" ry=".5"/><rect id="rect2945" width="4" height="1" x="11" y="33" fill="#888a85" fill-opacity="1" stroke="none" stroke-dasharray="none" stroke-dashoffset="1.2" stroke-linecap="square" stroke-linejoin="miter" stroke-miterlimit="4" stroke-opacity="1" stroke-width="1.002" opacity=".8" rx=".542" ry=".5"/><rect id="rect2947" width="5" height="1" x="17" y="33" fill="#888a85" fill-opacity="1" stroke="none" stroke-dasharray="none" stroke-dashoffset="1.2" stroke-linecap="square" stroke-linejoin="miter" stroke-miterlimit="4" stroke-opacity="1" stroke-width="1.002" opacity=".8" rx=".542" ry=".5"/><rect id="rect2949" width="4" height="1" x="23" y="33" fill="#888a85" fill-opacity="1" stroke="none" stroke-dasharray="none" stroke-dashoffset="1.2" stroke-linecap="square" stroke-linejoin="miter" stroke-miterlimit="4" stroke-opacity="1" stroke-width="1.002" opacity=".8" rx=".542" ry=".5"/><rect id="rect2951" width="4" height="1" x="28.008" y="33.004" fill="#888a85" fill-opacity="1" stroke="none" stroke-dasharray="none" stroke-dashoffset="1.2" stroke-linecap="square" stroke-linejoin="miter" stroke-miterlimit="4" stroke-opacity="1" stroke-width="1.002" opacity=".8" rx=".542" ry=".5"/></g><use id="use4712" width="48" height="48" x="0" y="0" transform="translate(4,0)" xlink:href="#g2814"/><use id="use4714" width="48" height="48" x="0" y="0" transform="translate(8,0)" xlink:href="#g2814"/><use id="use4716" width="48" height="48" x="0" y="0" transform="translate(12,0)" xlink:href="#g2814"/><use id="use4718" width="48" height="48" x="0" y="0" transform="translate(16,0)" xlink:href="#g2814"/><use id="use4720" width="48" height="48" x="0" y="0" transform="translate(20,0)" xlink:href="#g2814"/><use id="use4722" width="48" height="48" x="0" y="0" transform="translate(24,0)" xlink:href="#g2814"/><g id="g2426" transform="translate(20.157693,14.220423)"><g id="g2222" transform="translate(5.0298057,0)"><path id="path3292" fill="url(#radialGradient2235)" fill-opacity="1" stroke="none" stroke-dasharray="none" stroke-miterlimit="4" stroke-opacity="1" stroke-width="1" d="M 35.75,44.0625 A 10.875,3.6875 0 1 1 14,44.0625 A 10.875,3.6875 0 1 1 35.75,44.0625 z" opacity=".326" transform="matrix(1.0087535,0,0,0.6480447,-14.122549,-0.9441344)"/><path id="path3151" fill="#d3d7cf" fill-opacity="1" stroke="#888a85" stroke-dasharray="none" stroke-miterlimit="4" stroke-opacity="1" stroke-width="1.558" d="M 31.731416,44.155106 A 7.6897864,2.6958447 0 1 1 16.351843,44.155106 A 7.6897864,2.6958447 0 1 1 31.731416,44.155106 z" opacity="1" transform="matrix(0.6820193,0,0,0.6037497,-5.1174777,1.1311306)"/><path id="path3248" fill="none" fill-opacity="1" stroke="url(#linearGradient2237)" stroke-dasharray="none" stroke-miterlimit="4" stroke-opacity="1" stroke-width="2.09" d="M 31.091041,44.155106 A 7.0494113,1.5903722 0 1 1 16.992218,44.155106 A 7.0494113,1.5903722 0 1 1 31.091041,44.155106 z" opacity="1" transform="matrix(0.5855943,0,0,0.3909527,-2.796397,10.540547)"/><path id="path2170" fill="url(#radialGradient2239)" fill-opacity="1" fill-rule="evenodd" stroke="url(#linearGradient2241)" stroke-linecap="butt" stroke-linejoin="miter" stroke-opacity="1" stroke-width="1" d="M 8.7346695,27.577522 C 11.161046,28.378477 12.301887,27.989866 13.830855,27.755413 C 13.830855,27.755413 11.095928,28.758646 11.13728,21.432213 C 11.160725,17.278343 12.751082,16.291201 16.508852,12.380844 C 19.109267,9.6748376 15.014874,1.9720666 15.014874,1.9720666 C 12.402925,2.4392546 9.9062065,2.4751916 6.8333235,2.0798796 C 6.8333235,2.0798796 3.8131675,9.7621726 6.0266915,12.429875 C 9.4260685,16.526747 11.225015,15.428925 11.378111,21.527227 C 11.539074,27.938829 10.242774,27.441434 8.7346695,27.577522 z"/><path id="path3290" fill="none" fill-opacity="1" stroke="#888a85" stroke-dasharray="none" stroke-miterlimit="4" stroke-opacity="1" stroke-width="1.568" d="M 31.554639,4.7780981 A 6.6733203,1.5026019 0 1 1 18.207999,4.7780981 A 6.6733203,1.5026019 0 1 1 31.554639,4.7780981 z" opacity="1" transform="matrix(0.6285456,0,0,0.6469226,-4.66885,-1.4430154)"/><path id="path3236" fill="none" fill-opacity="1" fill-rule="evenodd" stroke="url(#linearGradient2243)" stroke-linecap="butt" stroke-linejoin="miter" stroke-opacity="1" stroke-width="1" d="M 15.809406,12.052016 C 17.36326,9.9087646 14.602587,3.2653536 14.602587,3.2653536 C 12.319902,3.7109156 10.196487,3.5302826 7.5109745,3.1532686 C 7.5109745,3.1532686 5.1829035,9.9790876 6.6486385,12.023307 C 9.5087932,16.012284 12.902044,16.153222 11.248233,17.421732 C 11.058885,17.566965 12.89264,16.07515 15.809406,12.052016 z" opacity=".674"/><path id="path2172" fill="url(#linearGradient2245)" fill-opacity="1" fill-rule="evenodd" stroke="url(#linearGradient2247)" stroke-linecap="butt" stroke-linejoin="miter" stroke-opacity="1" stroke-width="1" d="M 5.3056345,10.875936 C 5.3866185,11.741837 6.6511525,13.180397 7.8642945,14.488041 C 9.6635235,16.427425 10.15944,16.991246 11.301298,16.970917 C 12.771199,16.983623 14.041846,14.760953 15.751154,13.189665 C 16.884775,12.147581 17.262725,10.761583 17.262725,10.761583 C 17.262725,10.761583 15.525415,9.6275396 11.235224,9.6303336 C 7.3479855,9.6328646 6.1271135,10.723466 5.3056345,10.875936 z" opacity="1"/><path id="path2174" fill="url(#linearGradient2249)" fill-opacity="1" fill-rule="evenodd" stroke="none" stroke-linecap="butt" stroke-linejoin="miter" stroke-opacity="1" stroke-width="1" d="M 5.7771685,11.070415 C 5.7771685,11.070415 8.2576285,9.9657146 11.688059,9.9657136 C 14.882701,9.9657136 16.877412,10.870144 16.877412,10.870144 C 16.877412,10.870144 16.570585,12.269731 11.24014,12.231615 C 4.8706435,12.18645 5.8684445,10.99418 5.7771685,11.070415 z" opacity=".368"/><path id="path3216" fill="url(#radialGradient2251)" fill-opacity="1" stroke="none" stroke-dasharray="none" stroke-miterlimit="4" stroke-opacity="1" stroke-width="1" d="M 70.875,19.25 A 1.6875,1.625 0 1 1 67.5,19.25 A 1.6875,1.625 0 1 1 70.875,19.25 z" opacity=".549" transform="matrix(0.6453055,0,0,0.6037497,-35.330477,2.0367546)"/><path id="path3258" fill="none" fill-opacity="1" fill-rule="evenodd" stroke="url(#linearGradient2253)" stroke-linecap="butt" stroke-linejoin="miter" stroke-opacity="1" stroke-width="1" d="M 6.5767175,11.40842 C 6.6468845,12.144055 7.5726155,12.763456 8.6237245,13.874376 C 10.182639,15.521998 10.279494,16.06734 11.268839,16.050069 C 12.542412,16.060864 13.143344,14.209117 14.624349,12.874215 C 15.606558,11.988903 16.082082,11.225352 16.082082,11.225352 C 16.082082,11.225352 15.049376,10.585444 11.332204,10.587817 C 7.9641655,10.589967 7.2884755,11.278888 6.5767175,11.40842 z"/><path id="path3272" fill="url(#linearGradient2255)" fill-opacity="1" fill-rule="evenodd" stroke="none" stroke-linecap="butt" stroke-linejoin="miter" stroke-opacity="1" stroke-width="1" d="M 6.9733955,13.311774 C 6.9733955,13.311774 4.3187685,9.4984816 7.0629955,3.5500536 C 7.4995375,2.6037976 7.2122575,2.6832436 7.2122575,2.6832436 C 7.2122575,2.6832436 9.96492,3.0918876 11.644794,3.0659296 C 13.36899,3.0402424 14.750606,2.7236286 14.750606,2.7236286 C 14.750606,2.7236286 15.821036,4.8406146 15.978119,6.0163476 C 16.092194,6.8701776 16.91917,10.210623 16.91917,10.210623 C 16.91917,10.210623 14.261305,10.68802 11.153346,10.031568 C 7.8160295,9.3266706 7.1445075,13.258411 6.9733955,13.311774 z" opacity="1"/></g></g></g></svg>