<svg xmlns="http://www.w3.org/2000/svg" xmlns:svg="http://www.w3.org/2000/svg" xmlns:xlink="http://www.w3.org/1999/xlink" id="svg7858" width="48" height="48"><defs id="defs7860"><linearGradient id="linearGradient3282"><stop id="stop3284" offset="0" stop-color="#fff" stop-opacity="1"/><stop id="stop3286" offset="1" stop-color="#fff" stop-opacity="0"/></linearGradient><linearGradient id="linearGradient2255" x1="13.258" x2="31.466" y1="-6.137" y2="21.617" gradientTransform="matrix(0.6453055,0,0,0.6037497,-4.5171397,1.1311306)" gradientUnits="userSpaceOnUse" xlink:href="#linearGradient3282"/><linearGradient id="linearGradient3264"><stop id="stop3266" offset="0" stop-color="#fff" stop-opacity="1"/><stop id="stop3268" offset="1" stop-color="#fff" stop-opacity="0"/></linearGradient><linearGradient id="linearGradient2253" x1="15.173" x2="26.04" y1="5.046" y2="29.487" gradientTransform="matrix(0.6453055,0,0,0.6037497,-4.5171397,1.1311296)" gradientUnits="userSpaceOnUse" xlink:href="#linearGradient3264"/><linearGradient id="linearGradient3218"><stop id="stop3220" offset="0" stop-color="#ff0f0f" stop-opacity="1"/><stop id="stop3222" offset="1" stop-color="#ff0f0f" stop-opacity="0"/></linearGradient><radialGradient id="radialGradient2251" cx="69.188" cy="19.25" r="1.688" fx="69.188" fy="19.25" gradientTransform="matrix(1,0,0,0.962963,0,0.712963)" gradientUnits="userSpaceOnUse" xlink:href="#linearGradient3218"/><linearGradient id="linearGradient3195"><stop id="stop3197" offset="0" stop-color="#eeeeec" stop-opacity="1"/><stop id="stop3199" offset="1" stop-color="#eeeeec" stop-opacity="0"/></linearGradient><linearGradient id="linearGradient2249" x1="20.627" x2="23.342" y1="17.396" y2="28.084" gradientTransform="matrix(0.6453055,0,0,0.6480447,-4.5171397,-0.9441344)" gradientUnits="userSpaceOnUse" xlink:href="#linearGradient3195"/><linearGradient id="linearGradient3185"><stop id="stop3187" offset="0" stop-color="#a40000" stop-opacity="1"/><stop id="stop3189" offset="1" stop-color="#680000" stop-opacity="1"/></linearGradient><linearGradient id="linearGradient2247" x1="20.524" x2="24.022" y1="15.617" y2="25.994" gradientTransform="matrix(0.7228652,0,0,0.6037497,-6.0581665,0.8784436)" gradientUnits="userSpaceOnUse" xlink:href="#linearGradient3185"/><linearGradient id="linearGradient3169"><stop id="stop3171" offset="0" stop-color="#e40000" stop-opacity=".592"/><stop id="stop3173" offset="1" stop-color="#700" stop-opacity="1"/></linearGradient><linearGradient id="linearGradient2245" x1="20.524" x2="24.022" y1="15.617" y2="25.994" gradientTransform="matrix(0.7228652,0,0,0.6037497,-6.0581665,0.8784436)" gradientUnits="userSpaceOnUse" xlink:href="#linearGradient3169"/><linearGradient id="linearGradient3240"><stop id="stop3242" offset="0" stop-color="#fff" stop-opacity="1"/><stop id="stop3244" offset="1" stop-color="#fff" stop-opacity=".476"/></linearGradient><linearGradient id="linearGradient2243" x1="14.248" x2="30.045" y1="-1.588" y2="44.678" gradientTransform="matrix(0.6453055,0,0,0.6037497,-4.5171397,1.1311296)" gradientUnits="userSpaceOnUse" xlink:href="#linearGradient3240"/><linearGradient id="linearGradient3186"><stop id="stop3188" offset="0" stop-color="#888a85" stop-opacity="1"/><stop id="stop3190" offset="1" stop-color="#888a85" stop-opacity="0"/></linearGradient><linearGradient id="linearGradient2241" x1="24.503" x2="28.923" y1="25.502" y2="49.629" gradientTransform="matrix(0.6453055,0,0,0.6480447,-4.5171397,-0.9441344)" gradientUnits="userSpaceOnUse" xlink:href="#linearGradient3186"/><linearGradient id="linearGradient3161"><stop id="stop3163" offset="0" stop-color="#fff" stop-opacity=".534"/><stop id="stop3165" offset="1" stop-color="#000" stop-opacity=".078"/></linearGradient><radialGradient id="radialGradient2239" cx="21.427" cy="15.473" r="9.418" fx="21.427" fy="15.473" gradientTransform="matrix(1.0564455,2.2729667e-3,-3.721177e-3,1.5139708,-13.503269,-19.183025)" gradientUnits="userSpaceOnUse" xlink:href="#linearGradient3161"/><linearGradient id="linearGradient3250"><stop id="stop3252" offset="0" stop-color="#fff" stop-opacity="1"/><stop id="stop3254" offset="1" stop-color="#fff" stop-opacity="0"/></linearGradient><linearGradient id="linearGradient2237" x1="21.213" x2="30.573" y1="37.488" y2="54.283" gradientUnits="userSpaceOnUse" xlink:href="#linearGradient3250"/><linearGradient id="linearGradient3303"><stop id="stop3305" offset="0" stop-color="#888a85" stop-opacity="1"/><stop id="stop3307" offset="1" stop-color="#888a85" stop-opacity="0"/></linearGradient><radialGradient id="radialGradient2235" cx="24.875" cy="44.063" r="10.875" fx="24.875" fy="44.063" gradientTransform="matrix(1,0,0,0.3390805,0,29.121767)" gradientUnits="userSpaceOnUse" xlink:href="#linearGradient3303"/><linearGradient id="linearGradient6242"><stop id="stop6244" offset="0" stop-color="#d7b47f" stop-opacity="1"/><stop id="stop6246" offset="1" stop-color="#f4dbb3" stop-opacity="1"/></linearGradient><linearGradient id="linearGradient6248" x1="6.946" x2="39.044" y1="8.067" y2="8.067" gradientTransform="translate(-5.625242e-7,4.6680656e-4)" gradientUnits="userSpaceOnUse" xlink:href="#linearGradient6242"/><linearGradient id="linearGradient6198" x1="6.675" x2="8" y1="10.141" y2="10.654" gradientTransform="translate(-5.625242e-7,4.6680656e-4)" gradientUnits="userSpaceOnUse" xlink:href="#linearGradient6190"/><linearGradient id="linearGradient6218" x1="8" x2="1.827" y1="16.527" y2="23.5" gradientTransform="matrix(1,0,0,1.329903,-5.625242e-7,-16.163943)" gradientUnits="userSpaceOnUse" xlink:href="#linearGradient6210"/><linearGradient id="linearGradient6028"><stop id="stop6030" offset="0" stop-color="#fff" stop-opacity="1"/><stop id="stop6032" offset="1" stop-color="#fff" stop-opacity="0"/></linearGradient><linearGradient id="linearGradient3515" x1="28.703" x2="17.743" y1="31.495" y2="18.367" gradientUnits="userSpaceOnUse" xlink:href="#linearGradient6028"/><linearGradient id="linearGradient6036"><stop id="stop6038" offset="0" stop-color="#fff" stop-opacity="1"/><stop id="stop6040" offset="1" stop-color="#fff" stop-opacity="0"/></linearGradient><linearGradient id="linearGradient3519" x1="10.502" x2="48.799" y1="3.61" y2="54.698" gradientTransform="matrix(0.9807685,0,0,0.9807685,0.3837105,-0.8525346)" gradientUnits="userSpaceOnUse" xlink:href="#linearGradient6036"/><linearGradient id="linearGradient4409"><stop id="stop4411" offset="0" stop-color="#fff" stop-opacity="1"/><stop id="stop4413" offset="1" stop-color="#fff" stop-opacity="0"/></linearGradient><linearGradient id="linearGradient4415" x1="25.986" x2="15.889" y1="24.92" y2="11.67" gradientTransform="translate(0.5,-0.353553)" gradientUnits="userSpaceOnUse" xlink:href="#linearGradient4409"/><linearGradient id="aigrd2" x1="12.274" x2="35.391" y1="32.416" y2="14.203" gradientUnits="userSpaceOnUse"><stop id="stop3043" offset="0" stop-color="#FBFBFB"/><stop id="stop3045" offset=".5" stop-color="#B6B6B6"/><stop id="stop3047" offset="1" stop-color="#E4E4E4"/></linearGradient><linearGradient id="linearGradient3523" x1="12.274" x2="35.391" y1="32.416" y2="14.203" gradientTransform="matrix(1.190476,0,0,1.190476,-4.308944,-3.833324)" gradientUnits="userSpaceOnUse" xlink:href="#aigrd2"/><linearGradient id="aigrd1" x1="14.997" x2="32.511" y1="11.188" y2="34.307" gradientUnits="userSpaceOnUse"><stop id="stop3034" offset="0" stop-color="#EBEBEB"/><stop id="stop3036" offset=".5" stop-color="#FFF"/><stop id="stop3038" offset="1" stop-color="#EBEBEB"/></linearGradient><linearGradient id="linearGradient3526" x1="14.997" x2="32.511" y1="11.188" y2="34.307" gradientTransform="matrix(1.190476,0,0,1.190476,-4.308944,-3.833323)" gradientUnits="userSpaceOnUse" xlink:href="#aigrd1"/><linearGradient id="linearGradient23419"><stop id="stop23421" offset="0" stop-color="#000" stop-opacity="1"/><stop id="stop23423" offset="1" stop-color="#000" stop-opacity="0"/></linearGradient><radialGradient id="radialGradient3507" cx="23.335" cy="41.636" r="22.627" fx="23.335" fy="41.636" gradientTransform="matrix(1,0,0,0.25,0,31.22703)" gradientUnits="userSpaceOnUse" xlink:href="#linearGradient23419"/><linearGradient id="linearGradient6256"><stop id="stop6258" offset="0" stop-color="#fff" stop-opacity="1"/><stop id="stop6260" offset="1" stop-color="#fff" stop-opacity="0"/></linearGradient><linearGradient id="linearGradient6262" x1="24.938" x2="24.938" y1="19.219" y2="13.46" gradientUnits="userSpaceOnUse" xlink:href="#linearGradient6256"/><linearGradient id="linearGradient6254" x1="24.883" x2="25.148" y1="14.295" y2="10.942" gradientTransform="translate(-5.625242e-7,4.6680656e-4)" gradientUnits="userSpaceOnUse" xlink:href="#linearGradient6190"/><linearGradient id="linearGradient6252" x1="17.327" x2="17.702" y1="24.164" y2="27.945" gradientTransform="matrix(1,0,0,1.329903,-5.625242e-7,-16.163943)" gradientUnits="userSpaceOnUse" xlink:href="#linearGradient4210"/><linearGradient id="linearGradient6234"><stop id="stop6236" offset="0" stop-color="#fff" stop-opacity="1"/><stop id="stop6238" offset="1" stop-color="#fff" stop-opacity="0"/></linearGradient><linearGradient id="linearGradient6240" x1="28.029" x2="27.375" y1="31.772" y2="20.731" gradientUnits="userSpaceOnUse" xlink:href="#linearGradient6234"/><linearGradient id="linearGradient6222"><stop id="stop6224" offset="0" stop-color="#000" stop-opacity="1"/><stop id="stop6226" offset="1" stop-color="#000" stop-opacity="0"/></linearGradient><linearGradient id="linearGradient6228" x1="24.5" x2="24.5" y1="17.813" y2="26.188" gradientTransform="translate(-5.625242e-7,4.6680656e-4)" gradientUnits="userSpaceOnUse" xlink:href="#linearGradient6222"/><linearGradient id="linearGradient6204"><stop id="stop6206" offset="0" stop-color="#120c02" stop-opacity="1"/><stop id="stop6208" offset="1" stop-color="#b97a1b" stop-opacity="1"/></linearGradient><linearGradient id="linearGradient4879" x1="24.99" x2="23.452" y1="49.424" y2="14.383" gradientTransform="matrix(1,0,0,0.4199694,-5.0000006,-2.9725041)" gradientUnits="userSpaceOnUse" xlink:href="#linearGradient6204"/><linearGradient id="linearGradient6190"><stop id="stop6192" offset="0" stop-color="#a0670c" stop-opacity="1"/><stop id="stop6194" offset="1" stop-color="#e6c99d" stop-opacity="1"/></linearGradient><linearGradient id="linearGradient6200" x1="41.448" x2="37.308" y1="9.345" y2="10.742" gradientTransform="translate(-5.625242e-7,4.6680656e-4)" gradientUnits="userSpaceOnUse" xlink:href="#linearGradient6190"/><linearGradient id="linearGradient6210"><stop id="stop6212" offset="0" stop-color="#f9ead2" stop-opacity="1"/><stop id="stop6214" offset="1" stop-color="#e4a546" stop-opacity="1"/></linearGradient><linearGradient id="linearGradient6216" x1="37.308" x2="43.588" y1="20.232" y2="23.422" gradientTransform="matrix(1,0,0,1.329903,-5.625242e-7,-16.163943)" gradientUnits="userSpaceOnUse" xlink:href="#linearGradient6210"/><linearGradient id="linearGradient4210"><stop id="stop4212" offset="0" stop-color="#eaba6f" stop-opacity="1"/><stop id="stop4214" offset="1" stop-color="#b97a1b" stop-opacity="1"/></linearGradient><linearGradient id="linearGradient6232" x1="24.99" x2="23.452" y1="49.424" y2="14.383" gradientTransform="matrix(1,0,0,1.2132448,-5.0000006,-10.088116)" gradientUnits="userSpaceOnUse" xlink:href="#linearGradient4210"/><filter id="filter6290" width="1.222" height="2.014" x="-.111" y="-.507"><feGaussianBlur id="feGaussianBlur6292" stdDeviation="2.029"/></filter></defs><metadata id="metadata7863"/><g id="layer1"><rect id="rect6264" width="36.5" height="8" x="5" y="31" fill="#000" fill-opacity="1" fill-rule="nonzero" stroke="none" stroke-dasharray="none" stroke-dashoffset="0" stroke-linecap="butt" stroke-linejoin="round" stroke-miterlimit="4" stroke-opacity="1" stroke-width="1" marker-end="none" marker-mid="none" marker-start="none" display="block" enable-background="accumulate" filter="url(#filter6290)" opacity=".5" overflow="visible" rx="4" ry="4" visibility="visible" style="marker:none"/><rect stroke-miterlimit="4" style="marker:none" id="rect4873" width="31" height="26" x="7.5" y="11.5" fill="url(#linearGradient6232)" fill-opacity="1" fill-rule="nonzero" stroke="#a0670c" stroke-dasharray="none" stroke-dashoffset="0" stroke-linecap="butt" stroke-linejoin="miter" stroke-opacity="1" stroke-width="1" marker-end="none" marker-mid="none" marker-start="none" display="block" enable-background="accumulate" opacity="1" overflow="visible" rx="1.914" ry="1.914" visibility="visible"/><path id="path4881" fill="url(#linearGradient6216)" fill-opacity="1" fill-rule="nonzero" stroke="url(#linearGradient6200)" stroke-dasharray="none" stroke-dashoffset="0" stroke-linecap="butt" stroke-linejoin="round" stroke-miterlimit="4" stroke-opacity="1" stroke-width="1" marker-end="none" marker-mid="none" marker-start="none" d="M 38.499999,11.48086 L 44.558057,15.235303 L 43.616116,8.5303378 L 38.338387,4.672802 L 38.499999,11.48086 z" display="block" enable-background="accumulate" opacity="1" overflow="visible" visibility="visible" style="marker:none"/><rect stroke-miterlimit="4" style="marker:none" id="rect4877" width="31" height="9" x="7.5" y="4.5" fill="url(#linearGradient4879)" fill-opacity="1" fill-rule="nonzero" stroke="#a0670c" stroke-dasharray="none" stroke-dashoffset="0" stroke-linecap="butt" stroke-linejoin="miter" stroke-opacity="1" stroke-width="1" marker-end="none" marker-mid="none" marker-start="none" display="block" enable-background="accumulate" opacity="1" overflow="visible" rx=".544" ry=".544" visibility="visible"/><rect id="rect6220" width="30.25" height="11.625" x="7.75" y="15.25" fill="url(#linearGradient6228)" fill-opacity="1" fill-rule="nonzero" stroke="none" stroke-dasharray="none" stroke-dashoffset="0" stroke-linecap="butt" stroke-linejoin="miter" stroke-miterlimit="4" stroke-opacity="1" stroke-width="1" marker-end="none" marker-mid="none" marker-start="none" display="block" enable-background="accumulate" opacity=".553" overflow="visible" visibility="visible" style="marker:none"/><path id="path6230" fill="none" fill-opacity="1" fill-rule="nonzero" stroke="url(#linearGradient6240)" stroke-dasharray="none" stroke-dashoffset="0" stroke-linecap="butt" stroke-linejoin="miter" stroke-miterlimit="4" stroke-opacity="1" stroke-width="1" marker-end="none" marker-mid="none" marker-start="none" d="M 9.40625,17.65625 C 8.9075222,17.65625 8.5625,18.001272 8.5625,18.5 L 8.5625,40.6875 C 8.5625,41.186228 8.907522,41.53125 9.40625,41.53125 L 36.59375,41.53125 C 37.092479,41.53125 37.4375,41.18623 37.4375,40.6875 L 37.4375,18.5 C 37.4375,18.001272 37.092479,17.65625 36.59375,17.65625 L 9.40625,17.65625 z" display="block" enable-background="accumulate" opacity=".476" overflow="visible" visibility="visible" xlink:href="#rect4873" style="marker:none"/><path id="path4885" fill="url(#linearGradient6252)" fill-opacity="1" fill-rule="nonzero" stroke="url(#linearGradient6254)" stroke-dasharray="none" stroke-dashoffset="0" stroke-linecap="butt" stroke-linejoin="miter" stroke-miterlimit="4" stroke-opacity="1" stroke-width="1" marker-end="none" marker-mid="none" marker-start="none" d="M 7.5580584,11.442409 L 5.5580584,20.500467 L 40.469669,20.500467 L 38.566941,11.472739 L 7.5580584,11.442409 z" display="block" enable-background="accumulate" opacity="1" overflow="visible" visibility="visible" style="marker:none"/><path id="path6250" fill="none" fill-opacity="1" fill-rule="nonzero" stroke="url(#linearGradient6262)" stroke-dasharray="none" stroke-dashoffset="0" stroke-linecap="butt" stroke-linejoin="miter" stroke-miterlimit="4" stroke-opacity="1" stroke-width="1" marker-end="none" marker-mid="none" marker-start="none" d="M 8.34375,17.53125 L 6.8125,24.59375 L 39.25,24.59375 L 37.75,17.5625 L 8.34375,17.53125 z" display="block" enable-background="accumulate" opacity=".259" overflow="visible" visibility="visible" xlink:href="#path4885" style="marker:none"/><g id="g5212" transform="matrix(0.6544316,0,0,0.6710291,-6.1872563e-2,15.659042)"><path id="path23417" fill="url(#radialGradient3507)" fill-opacity="1" fill-rule="evenodd" stroke="none" stroke-dasharray="none" stroke-dashoffset="0" stroke-linecap="butt" stroke-linejoin="miter" stroke-miterlimit="4" stroke-opacity="1" stroke-width="2" marker-end="none" marker-mid="none" marker-start="none" d="M 45.961941,41.63604 A 22.627417,5.6568542 0 1 1 0.70710754,41.63604 A 22.627417,5.6568542 0 1 1 45.961941,41.63604 z" display="inline" opacity=".55" overflow="visible" transform="matrix(1,0,0,1.066291,0.91548,-4.218429)" visibility="visible" style="marker:none"/><path id="path3040" fill="url(#linearGradient3526)" fill-rule="nonzero" stroke="none" stroke-miterlimit="4" d="M 24.262486,2.8333435 C 12.714866,2.8333435 3.4291519,12.119058 3.4291519,23.666677 C 3.4291519,35.214297 12.714866,44.500012 24.262486,44.500012 C 35.810106,44.500012 45.095821,35.214297 45.095821,23.666677 C 45.095821,12.119058 35.810106,2.8333435 24.262486,2.8333435 L 24.262486,2.8333435 z M 24.262486,28.666678 C 21.524391,28.666678 19.262486,26.404773 19.262486,23.666677 C 19.262486,20.928582 21.524391,18.666677 24.262486,18.666677 C 27.000581,18.666677 29.262486,20.928582 29.262486,23.666677 C 29.262486,26.404773 27.000581,28.666678 24.262486,28.666678 z"/><path id="path3049" fill="url(#linearGradient3523)" fill-rule="nonzero" stroke="gray" stroke-miterlimit="4" stroke-opacity="1" stroke-width="1.509" d="M 24.262486,2.8333431 C 12.714866,2.8333431 3.429152,12.119058 3.429152,23.666677 C 3.429152,35.214297 12.714866,44.500012 24.262486,44.500012 C 35.810106,44.500012 45.095821,35.214297 45.095821,23.666677 C 45.095821,12.119058 35.810106,2.8333431 24.262486,2.8333431 L 24.262486,2.8333431 z M 24.262486,28.666678 C 21.524391,28.666678 19.262486,26.404773 19.262486,23.666677 C 19.262486,20.928582 21.524391,18.666677 24.262486,18.666677 C 27.000581,18.666677 29.262486,20.928582 29.262486,23.666677 C 29.262486,26.404773 27.000581,28.666678 24.262486,28.666678 z"/><path id="path3531" fill="url(#linearGradient4415)" fill-opacity="1" fill-rule="nonzero" stroke="none" stroke-miterlimit="4" stroke-opacity="1" d="M 23.410538,3.4587825 C 12.648847,3.864693 4.1109275,12.676135 4.1109275,23.541217 C 4.1109275,28.466722 5.858051,32.943607 8.7777601,36.427697 L 19.895113,27.017403 C 19.173772,26.174062 18.845878,24.974235 18.845878,23.791217 C 18.845878,20.400827 21.150167,18.223842 24.413253,18.223842 C 25.897178,18.223842 27.38434,18.897269 28.271719,19.97014 L 39.639072,10.684846 C 35.963901,6.2606919 30.394797,3.4587825 24.163253,3.4587825 C 23.902492,3.4587825 23.668819,3.4490406 23.410538,3.4587825 z"/><path id="path3051" fill="#eeeeec" fill-rule="nonzero" stroke="none" stroke-miterlimit="4" d="M 24.262486,13.562512 C 18.6199,13.562512 14.15832,18.155315 14.15832,23.666677 C 14.15832,29.309265 18.751124,33.770843 24.262486,33.770843 C 29.905072,33.770843 34.366652,29.178041 34.366652,23.666677 C 34.366652,18.024091 29.773848,13.562512 24.262486,13.562512 L 24.262486,13.562512 z M 24.262486,29.178041 C 21.244359,29.178041 18.751124,26.684806 18.751124,23.666677 C 18.751124,20.64855 21.244359,18.155315 24.262486,18.155315 C 27.280613,18.155315 29.773848,20.64855 29.773848,23.666677 C 29.773848,26.684806 27.280613,29.178041 24.262486,29.178041 z" opacity=".511"/><path id="path5264" fill="none" fill-rule="nonzero" stroke="url(#linearGradient3519)" stroke-miterlimit="4" stroke-opacity="1" stroke-width="1.509" d="M 24.262484,4.2497813 C 13.499977,4.2497813 4.8455905,12.90417 4.8455905,23.666675 C 4.8455905,34.429182 13.499977,43.083568 24.262484,43.083568 C 35.02499,43.083568 43.679376,34.429182 43.679376,23.666675 C 43.679376,12.90417 35.02499,4.2497813 24.262484,4.2497813 L 24.262484,4.2497813 z" opacity=".546"/><path id="path6026" fill="none" fill-opacity=".316" fill-rule="nonzero" stroke="url(#linearGradient3515)" stroke-dashoffset="0" stroke-linecap="butt" stroke-linejoin="miter" stroke-miterlimit="4" stroke-opacity="1" stroke-width="1.404" marker-end="none" marker-mid="none" marker-start="none" d="M 30.405591,24.930641 A 6.0987959,6.0987959 0 1 1 18.207999,24.930641 A 6.0987959,6.0987959 0 1 1 30.405591,24.930641 z" display="inline" opacity=".672" overflow="visible" transform="translate(3.868e-3,-1.244934)" visibility="visible" style="marker:none"/></g><path id="path4883" fill="url(#linearGradient6218)" fill-opacity="1" fill-rule="nonzero" stroke="url(#linearGradient6198)" stroke-dasharray="none" stroke-dashoffset="0" stroke-linecap="butt" stroke-linejoin="round" stroke-miterlimit="4" stroke-opacity="1" stroke-width="1" marker-end="none" marker-mid="none" marker-start="none" d="M 7.5624994,4.683525 L 7.4999994,11.500467 L 1.6464464,16.500466 L 2.5303304,8.6469138 L 7.5624994,4.683525 z" display="block" enable-background="accumulate" opacity="1" overflow="visible" visibility="visible" style="marker:none"/><path id="path6202" fill="url(#linearGradient6248)" fill-opacity="1" fill-rule="nonzero" stroke="none" stroke-dasharray="none" stroke-dashoffset="0" stroke-linecap="butt" stroke-linejoin="miter" stroke-miterlimit="4" stroke-opacity="1" stroke-width="1" marker-end="none" marker-mid="none" marker-start="none" d="M 7.0719224,6.1053208 C 6.9414144,5.6182588 7.2880934,4.9992108 7.9549504,4.9992108 L 38.132581,4.9562728 C 38.598674,4.9656808 39.012488,5.4305028 39.044337,5.9721428 L 39.02725,11.050462 L 37.999999,11.037079 L 38.006988,6.0160018 L 8.0875334,6.0160018 L 8.0433394,10.877361 L 6.9461914,11.178141 L 7.0719224,6.1053208 z" display="block" enable-background="accumulate" opacity="1" overflow="visible" visibility="visible" style="marker:none"/><g id="g2382" transform="translate(20.157193,14.130467)"><g id="g2222" transform="translate(5.0298057,0)"><path id="path3292" fill="url(#radialGradient2235)" fill-opacity="1" stroke="none" stroke-dasharray="none" stroke-miterlimit="4" stroke-opacity="1" stroke-width="1" d="M 35.75,44.0625 A 10.875,3.6875 0 1 1 14,44.0625 A 10.875,3.6875 0 1 1 35.75,44.0625 z" opacity=".326" transform="matrix(1.0087535,0,0,0.6480447,-14.122549,-0.9441344)"/><path id="path3151" fill="#d3d7cf" fill-opacity="1" stroke="#888a85" stroke-dasharray="none" stroke-miterlimit="4" stroke-opacity="1" stroke-width="1.558" d="M 31.731416,44.155106 A 7.6897864,2.6958447 0 1 1 16.351843,44.155106 A 7.6897864,2.6958447 0 1 1 31.731416,44.155106 z" opacity="1" transform="matrix(0.6820193,0,0,0.6037497,-5.1174777,1.1311306)"/><path id="path3248" fill="none" fill-opacity="1" stroke="url(#linearGradient2237)" stroke-dasharray="none" stroke-miterlimit="4" stroke-opacity="1" stroke-width="2.09" d="M 31.091041,44.155106 A 7.0494113,1.5903722 0 1 1 16.992218,44.155106 A 7.0494113,1.5903722 0 1 1 31.091041,44.155106 z" opacity="1" transform="matrix(0.5855943,0,0,0.3909527,-2.796397,10.540547)"/><path id="path2170" fill="url(#radialGradient2239)" fill-opacity="1" fill-rule="evenodd" stroke="url(#linearGradient2241)" stroke-linecap="butt" stroke-linejoin="miter" stroke-opacity="1" stroke-width="1" d="M 8.7346695,27.577522 C 11.161046,28.378477 12.301887,27.989866 13.830855,27.755413 C 13.830855,27.755413 11.095928,28.758646 11.13728,21.432213 C 11.160725,17.278343 12.751082,16.291201 16.508852,12.380844 C 19.109267,9.6748376 15.014874,1.9720666 15.014874,1.9720666 C 12.402925,2.4392546 9.9062065,2.4751916 6.8333235,2.0798796 C 6.8333235,2.0798796 3.8131675,9.7621726 6.0266915,12.429875 C 9.4260685,16.526747 11.225015,15.428925 11.378111,21.527227 C 11.539074,27.938829 10.242774,27.441434 8.7346695,27.577522 z"/><path id="path3290" fill="none" fill-opacity="1" stroke="#888a85" stroke-dasharray="none" stroke-miterlimit="4" stroke-opacity="1" stroke-width="1.568" d="M 31.554639,4.7780981 A 6.6733203,1.5026019 0 1 1 18.207999,4.7780981 A 6.6733203,1.5026019 0 1 1 31.554639,4.7780981 z" opacity="1" transform="matrix(0.6285456,0,0,0.6469226,-4.66885,-1.4430154)"/><path id="path3236" fill="none" fill-opacity="1" fill-rule="evenodd" stroke="url(#linearGradient2243)" stroke-linecap="butt" stroke-linejoin="miter" stroke-opacity="1" stroke-width="1" d="M 15.809406,12.052016 C 17.36326,9.9087646 14.602587,3.2653536 14.602587,3.2653536 C 12.319902,3.7109156 10.196487,3.5302826 7.5109745,3.1532686 C 7.5109745,3.1532686 5.1829035,9.9790876 6.6486385,12.023307 C 9.5087932,16.012284 12.902044,16.153222 11.248233,17.421732 C 11.058885,17.566965 12.89264,16.07515 15.809406,12.052016 z" opacity=".674"/><path id="path2172" fill="url(#linearGradient2245)" fill-opacity="1" fill-rule="evenodd" stroke="url(#linearGradient2247)" stroke-linecap="butt" stroke-linejoin="miter" stroke-opacity="1" stroke-width="1" d="M 5.3056345,10.875936 C 5.3866185,11.741837 6.6511525,13.180397 7.8642945,14.488041 C 9.6635235,16.427425 10.15944,16.991246 11.301298,16.970917 C 12.771199,16.983623 14.041846,14.760953 15.751154,13.189665 C 16.884775,12.147581 17.262725,10.761583 17.262725,10.761583 C 17.262725,10.761583 15.525415,9.6275396 11.235224,9.6303336 C 7.3479855,9.6328646 6.1271135,10.723466 5.3056345,10.875936 z" opacity="1"/><path id="path2174" fill="url(#linearGradient2249)" fill-opacity="1" fill-rule="evenodd" stroke="none" stroke-linecap="butt" stroke-linejoin="miter" stroke-opacity="1" stroke-width="1" d="M 5.7771685,11.070415 C 5.7771685,11.070415 8.2576285,9.9657146 11.688059,9.9657136 C 14.882701,9.9657136 16.877412,10.870144 16.877412,10.870144 C 16.877412,10.870144 16.570585,12.269731 11.24014,12.231615 C 4.8706435,12.18645 5.8684445,10.99418 5.7771685,11.070415 z" opacity=".368"/><path id="path3216" fill="url(#radialGradient2251)" fill-opacity="1" stroke="none" stroke-dasharray="none" stroke-miterlimit="4" stroke-opacity="1" stroke-width="1" d="M 70.875,19.25 A 1.6875,1.625 0 1 1 67.5,19.25 A 1.6875,1.625 0 1 1 70.875,19.25 z" opacity=".549" transform="matrix(0.6453055,0,0,0.6037497,-35.330477,2.0367546)"/><path id="path3258" fill="none" fill-opacity="1" fill-rule="evenodd" stroke="url(#linearGradient2253)" stroke-linecap="butt" stroke-linejoin="miter" stroke-opacity="1" stroke-width="1" d="M 6.5767175,11.40842 C 6.6468845,12.144055 7.5726155,12.763456 8.6237245,13.874376 C 10.182639,15.521998 10.279494,16.06734 11.268839,16.050069 C 12.542412,16.060864 13.143344,14.209117 14.624349,12.874215 C 15.606558,11.988903 16.082082,11.225352 16.082082,11.225352 C 16.082082,11.225352 15.049376,10.585444 11.332204,10.587817 C 7.9641655,10.589967 7.2884755,11.278888 6.5767175,11.40842 z"/><path id="path3272" fill="url(#linearGradient2255)" fill-opacity="1" fill-rule="evenodd" stroke="none" stroke-linecap="butt" stroke-linejoin="miter" stroke-opacity="1" stroke-width="1" d="M 6.9733955,13.311774 C 6.9733955,13.311774 4.3187685,9.4984816 7.0629955,3.5500536 C 7.4995375,2.6037976 7.2122575,2.6832436 7.2122575,2.6832436 C 7.2122575,2.6832436 9.96492,3.0918876 11.644794,3.0659296 C 13.36899,3.0402424 14.750606,2.7236286 14.750606,2.7236286 C 14.750606,2.7236286 15.821036,4.8406146 15.978119,6.0163476 C 16.092194,6.8701776 16.91917,10.210623 16.91917,10.210623 C 16.91917,10.210623 14.261305,10.68802 11.153346,10.031568 C 7.8160295,9.3266706 7.1445075,13.258411 6.9733955,13.311774 z" opacity="1"/></g></g></g></svg>