<svg xmlns="http://www.w3.org/2000/svg" xmlns:svg="http://www.w3.org/2000/svg" xmlns:xlink="http://www.w3.org/1999/xlink" id="svg7685" width="22" height="22" version="1.0"><defs id="defs7687"><linearGradient id="linearGradient4-paper-sheet-orig-7"><stop id="stop8-paper-sheet-orig-2" offset="0" stop-color="#FFF" stop-opacity="1"/><stop id="stop9-paper-sheet-orig-2" offset="1" stop-color="#FFF" stop-opacity="0"/></linearGradient><radialGradient id="radialGradient13057" cx="4" cy="5.3" r="17" fx="4" fy="5.3" gradientTransform="matrix(2.46139,0,0,1.40943,-5.84554,-5.46996)" gradientUnits="userSpaceOnUse" xlink:href="#linearGradient4-paper-sheet-orig-7"/><linearGradient id="linearGradient10-paper-sheet-orig-3"><stop id="stop15-paper-sheet-orig-7" offset="0" stop-color="#555753" stop-opacity="1"/><stop id="stop16-paper-sheet-orig-8" offset="1" stop-color="#BABDB6" stop-opacity="1"/></linearGradient><linearGradient id="linearGradient13055" x1="-43.861" x2="-54.529" y1="61.855" y2="-.088" gradientTransform="matrix(0.485754,0,0,0.488975,331.488,175.793)" gradientUnits="userSpaceOnUse" xlink:href="#linearGradient10-paper-sheet-orig-3"/><linearGradient id="linearGradient3-paper-sheet-orig-08"><stop id="stop6-paper-sheet-orig-1" offset="0" stop-color="#FFF" stop-opacity="1"/><stop id="stop7-paper-sheet-orig-2" offset="1" stop-color="#D3D7CF" stop-opacity="1"/></linearGradient><radialGradient id="radialGradient13053" cx="-30.314" cy="34.277" r="18" fx="-30.314" fy="34.277" gradientTransform="matrix(1.94095,0,0,0.730906,375.508,168.164)" gradientUnits="userSpaceOnUse" xlink:href="#linearGradient3-paper-sheet-orig-08"/><filter id="filter1-paper-sheet-orig-3" width="1.112" height="2.004" x="-.056" y="-.502"><feGaussianBlur id="feGaussianBlur1-paper-sheet-orig-2" stdDeviation=".418"/></filter><linearGradient id="linearGradient4616-1"><stop id="stop4618-9" offset="0" stop-color="#2E3436" stop-opacity="1"/><stop id="stop4620-2" offset="1" stop-color="#2E3436" stop-opacity="0"/></linearGradient><linearGradient id="linearGradient7589" x1="25.355" x2="25.355" y1="34.007" y2="32.409" gradientTransform="matrix(0.22885,0,0,0.45994,-36.4861,256.81)" gradientUnits="userSpaceOnUse" xlink:href="#linearGradient4616-1"/><linearGradient id="linearGradient7591"><stop id="stop7593" offset="0" stop-color="#729fcf" stop-opacity="1"/><stop id="stop7595" offset="1" stop-color="#729fcf" stop-opacity="0"/></linearGradient><radialGradient id="radialGradient7587" cx="-6.007" cy="32.837" r="9.906" fx="-6.007" fy="32.837" gradientTransform="matrix(0.22885,0,0,0.201237,-31.2876,265.391)" gradientUnits="userSpaceOnUse" xlink:href="#linearGradient7591"/><linearGradient id="linearGradient6969"><stop id="stop6971" offset="0" stop-color="#204a87" stop-opacity="1"/><stop id="stop6973" offset="1" stop-color="#729fcf" stop-opacity="1"/></linearGradient><linearGradient id="linearGradient7585" x1="-11.986" x2="-11.986" y1="5.978" y2="29.727" gradientTransform="matrix(0.22885,0,0,0.20994,-28.2475,265.56)" gradientUnits="userSpaceOnUse" xlink:href="#linearGradient6969"/><linearGradient id="linearGradient20-paper-sheet-orig-4-3"><stop id="stop28-paper-sheet-orig-7-0" offset="0" stop-color="#000" stop-opacity="1"/><stop id="stop29-paper-sheet-orig-7-8" offset="1" stop-color="#000" stop-opacity="0"/></linearGradient><linearGradient id="linearGradient12580" x1="-23.438" x2="-26.454" y1="-24.875" y2="-24.144" gradientTransform="translate(343,207)" gradientUnits="userSpaceOnUse" xlink:href="#linearGradient20-paper-sheet-orig-4-3"/></defs><metadata id="metadata7690"/><g id="layer1"><g id="use7177" display="inline" transform="translate(-701.00019,-176.99991)"><rect id="rect13043" width="19" height="2" x="702.544" y="196.515" fill="#000" fill-opacity="1" stroke="none" filter="url(#filter1-paper-sheet-orig-3)" opacity=".3" rx="1" ry="1"/><g id="g13045" transform="translate(398.044,1.49083e-2)"><path id="path13047" fill="url(#radialGradient13053)" fill-opacity="1" stroke="url(#linearGradient13055)" stroke-miterlimit="4" stroke-width="1" d="M 307.46875,177.5 C 306.38379,177.5 305.5,178.38379 305.5,179.46875 L 305.5,195.53125 C 305.5,196.61621 306.38379,197.5 307.46875,197.5 L 320.53125,197.5 C 321.61621,197.5 322.5,196.61621 322.5,195.53125 L 322.5,194.5625 C 322.5,191.15625 322.5,188.89321 322.5,185.5 C 322.5,180.65625 317.44564,177.5 313,177.5 L 307.46875,177.5 z" display="inline"/><path id="path13049" fill="url(#radialGradient13057)" fill-opacity="1" stroke="none" d="M 8.53125,4.65625 C 8.0283868,4.65625 7.65625,5.0283867 7.65625,5.53125 L 7.65625,42.46875 C 7.65625,42.971613 8.0283867,43.34375 8.53125,43.34375 L 39.46875,43.34375 C 39.971612,43.34375 40.34375,42.971612 40.34375,42.46875 C 40.34375,42.46875 40.34375,19 40.34375,17.5 C 40.34375,16.25395 39.850807,13.475807 38.1875,11.8125 C 36.1875,9.8125 35.1875,8.8125 33.1875,6.8125 C 31.524193,5.1491934 28.74605,4.65625 27.5,4.65625 C 26,4.65625 8.53125,4.65625 8.53125,4.65625 z" display="inline" transform="matrix(0.485754,0,0,0.464926,302.343,176.835)"/><path id="path13051" fill="none" stroke="#fff" stroke-miterlimit="4" stroke-width="1" d="M 307.46875,178.5 C 306.93534,178.5 306.5,178.93533 306.5,179.46875 L 306.5,195.53125 C 306.5,196.06466 306.93533,196.5 307.46875,196.5 L 320.53125,196.5 C 321.06466,196.5 321.5,196.06466 321.5,195.53125 C 321.5,191.83333 321.5,189.11057 321.5,185.4375 C 321.5,181.5 317,178.5 313.03125,178.5 L 307.46875,178.5 z" display="inline"/></g></g><g id="g7179" display="inline" transform="translate(-150.00024,-241.99991)"><g id="g7181" transform="translate(190,0)"><g id="g7199" transform="translate(0,-20)"><rect id="rect7202" width="8.016" height="5.039" x="-34.999" y="267.975" fill="url(#linearGradient7585)" fill-opacity="1" stroke="none" rx=".205" ry=".184"/><path id="path7204" fill="url(#radialGradient7587)" fill-opacity="1" fill-rule="evenodd" stroke="none" stroke-width="1" d="M -32.805323,269.79491 C -33.988198,269.86371 -34.929336,270.77222 -34.929336,271.87463 C -34.929336,271.91723 -34.924936,271.95733 -34.922136,271.99929 L -30.402353,271.99929 C -30.399553,271.95739 -30.395153,271.91719 -30.395153,271.87463 C -30.395153,270.72741 -31.411642,269.79491 -32.662196,269.79491 C -32.711046,269.79491 -32.757146,269.79191 -32.805227,269.79491 L -32.805323,269.79491 z" display="inline" overflow="visible" visibility="visible" style="marker:none"/><rect id="rect7206" width="7.781" height=".92" x="-34.884" y="271.988" fill="url(#linearGradient7589)" fill-opacity="1" stroke="none" rx="0" ry="0"/><path id="path7208" fill="#000" fill-opacity="1" fill-rule="evenodd" stroke="none" d="M -29.722307,272.69254 C -29.722307,272.69254 -29.849451,272.04521 -29.849451,271.64865 C -29.845951,271.46775 -28.067464,270.05844 -28.062876,269.84852 L -28.476353,270.17907 L -28.765884,269.45647 L -27.789803,269.54927 L -27.332104,269.12939 L -27.850485,269.4785 L -28.028766,269.4414 L -28.247503,268.70952 L -28.13625,269.42284 L -28.944165,269.38574 L -28.69132,269.97609 L -29.391752,269.33935 L -28.650864,270.22561 C -28.650846,270.42327 -30.111127,271.62994 -30.108642,271.42187 L -30.714282,270.67667 L -30.764852,269.66926 L -30.307152,269.54929 L -29.906173,268.64222 L -30.434752,269.48058 L -30.847405,269.46338 L -31.771132,268.74769 L -33.039468,268.30234 L -31.955903,268.84866 L -32.8245,268.91946 L -31.680251,268.91946 L -30.993701,269.54928 L -30.912791,270.63719 L -32.137949,269.54928 L -31.62274,270.11761 L -32.366799,270.59898 L -31.549478,270.1791 L -30.256582,271.67306 L -30.307152,272.69257 L -29.722308,272.69257 L -29.722307,272.69254 L -29.722307,272.69254 z"/><path id="path7210" fill="#b6cee7" fill-opacity="1" fill-rule="evenodd" stroke="none" stroke-width="1" d="M -32.740344,270.77783 C -33.385824,270.81543 -33.89939,271.31114 -33.89939,271.91271 C -33.89939,271.93591 -33.89699,271.95781 -33.89549,271.98071 L -31.429101,271.98071 C -31.427601,271.95781 -31.425201,271.93591 -31.425201,271.91271 C -31.425201,271.28668 -31.979888,270.77783 -32.662299,270.77783 C -32.688959,270.77783 -32.714109,270.77583 -32.740349,270.77783 L -32.740344,270.77783 L -32.740344,270.77783 z" display="inline" overflow="visible" visibility="visible" style="marker:none"/><path id="path7212" fill="#fff" fill-opacity="1" fill-rule="evenodd" stroke="none" stroke-width="1" d="M -32.721818,271.0504 C -33.214095,271.079 -33.605767,271.45712 -33.605767,271.91591 C -33.605767,271.93361 -33.603967,271.95031 -33.602767,271.96781 L -31.72177,271.96781 C -31.72067,271.95041 -31.71877,271.93361 -31.71877,271.91591 C -31.71877,271.43847 -32.141801,271.0504 -32.662244,271.0504 C -32.682574,271.0504 -32.701754,271.0494 -32.721774,271.0504 L -32.721818,271.0504 L -32.721818,271.0504 z" display="inline" overflow="visible" visibility="visible" style="marker:none"/><path id="path7214" fill="#000" fill-opacity="1" fill-rule="evenodd" stroke="none" d="M -29.722307,272.69254 C -29.722307,272.69254 -29.849451,272.04521 -29.849451,271.64865 C -29.845951,271.46775 -28.067464,270.05844 -28.062876,269.84852 L -28.476353,270.17907 L -28.765884,269.45647 L -27.789803,269.54927 L -27.332104,269.12939 L -27.850485,269.4785 L -28.028766,269.4414 L -28.247503,268.70952 L -28.13625,269.42284 L -28.944165,269.38574 L -28.69132,269.97609 L -29.391752,269.33935 L -28.650864,270.22561 C -28.650846,270.42327 -30.111127,271.62994 -30.108642,271.42187 L -30.714282,270.67667 L -30.764852,269.66926 L -30.307152,269.54929 L -29.906173,268.64222 L -30.434752,269.48058 L -30.847405,269.46338 L -31.771132,268.74769 L -33.039468,268.30234 L -31.955903,268.84866 L -32.8245,268.91946 L -31.680251,268.91946 L -30.993701,269.54928 L -30.912791,270.63719 L -32.137949,269.54928 L -31.62274,270.11761 L -32.366799,270.59898 L -31.549478,270.1791 L -30.256582,271.67306 L -30.307152,272.69257 L -29.722308,272.69257 L -29.722307,272.69254 L -29.722307,272.69254 z" display="inline"/></g></g></g><g id="g7603" fill="#204a87" display="inline" transform="translate(-701.00019,-1080.9999)"><rect id="rect7187" width="5" height="1" x="45" y="19" fill="#204a87" fill-opacity="1" stroke="none" display="inline" opacity="1" rx=".5" ry=".5" transform="translate(661,1078)"/><rect id="rect7189" width="2.984" height="1" x="54.016" y="9" fill="#204a87" fill-opacity="1" stroke="none" display="inline" opacity="1" rx=".5" ry=".5" transform="translate(661,1078)"/><rect id="rect7191" width="2.984" height="1" x="54.016" y="11" fill="#204a87" fill-opacity="1" stroke="none" display="inline" opacity="1" rx=".5" ry=".5" transform="translate(661,1078)"/><rect id="rect7193" width="2.984" height="1" x="54.016" y="13" fill="#204a87" fill-opacity="1" stroke="none" display="inline" opacity="1" rx=".5" ry=".5" transform="translate(661,1078)"/><rect id="rect7195" width="12" height="1" x="45" y="15" fill="#204a87" fill-opacity="1" stroke="none" display="inline" opacity="1" rx=".5" ry=".5" transform="translate(661,1078)"/><rect id="rect7197" width="9" height="1" x="45" y="17" fill="#204a87" fill-opacity="1" stroke="none" display="inline" opacity="1" rx=".5" ry=".5" transform="translate(661,1078)"/></g><path id="rect7611" fill="#729fcf" fill-opacity="1" fill-rule="evenodd" stroke="none" stroke-dasharray="none" stroke-dashoffset=".361" stroke-linecap="round" stroke-linejoin="miter" stroke-miterlimit="4" stroke-opacity="1" stroke-width="1" d="M 3.9997625,5.0000957 L 3.9997625,14.000095 L 3.9997625,15.000095 L 3.9997625,16.000095 L 3.9997625,18.000095 L 10.999763,18.000095 L 10.999763,16.000095 L 14.999763,16.000095 L 14.999763,14.000095 L 17.999763,14.000095 L 17.999763,5.0000957 L 3.9997625,5.0000957 z" display="inline" opacity=".5"/><g id="use7218" display="inline" transform="translate(-302.95414,-176.91622)"><path id="path12576" fill="url(#linearGradient12580)" fill-opacity="1" stroke="none" d="M 313,179 C 316.35588,179.55242 316.73483,179.76516 316.73483,184.26516 C 320.23483,184.26516 320.82554,184.93937 322,186 C 322,185.48998 322,186.0616 322,185.5 C 321.50105,179.89499 317.35016,179.30879 313,179 z" display="inline" opacity=".49"/><path id="path12578" fill="#fff" fill-opacity="1" stroke="none" d="M 313,178 C 316.2233,179.08275 317.98928,179.91735 318.03347,183.00314 C 320.29603,183.00314 321.2012,185.05549 322,187 C 322,186.48998 322,186.06163 322,185.5 C 322,183.25204 320.84982,181.41586 319.125,180.09375 C 317.40018,178.77164 315.10449,178 313,178 z" display="inline"/></g><g id="g7626" display="inline" transform="translate(-700.00019,-1080.9999)"><rect id="rect7620" width="4" height="2.031" x="711.5" y="1095.5" fill="#000" fill-opacity="1" fill-rule="evenodd" stroke="#fff" stroke-dasharray="none" stroke-dashoffset=".361" stroke-linecap="round" stroke-linejoin="miter" stroke-miterlimit="4" stroke-opacity="1" stroke-width="1" opacity="1"/><rect id="rect7622" width="4" height="2.031" x="711.5" y="1097.5" fill="#000" fill-opacity="1" fill-rule="evenodd" stroke="#fff" stroke-dasharray="none" stroke-dashoffset=".361" stroke-linecap="round" stroke-linejoin="miter" stroke-miterlimit="4" stroke-opacity="1" stroke-width="1" display="inline" opacity="1"/><rect id="rect7624" width="1" height="3" x="713" y="1096" fill="#000" fill-opacity="1" fill-rule="evenodd" stroke="none" stroke-dasharray="none" stroke-dashoffset=".361" stroke-linecap="round" stroke-linejoin="miter" stroke-miterlimit="4" stroke-opacity="1" stroke-width="1" opacity="1"/></g></g></svg>