<svg xmlns="http://www.w3.org/2000/svg" xmlns:svg="http://www.w3.org/2000/svg" xmlns:xlink="http://www.w3.org/1999/xlink" id="svg8245" width="22" height="22" version="1.0"><defs id="defs8247"><linearGradient id="linearGradient8223" x1="7.238" x2="132.86" y1="36.005" y2="35.858" gradientTransform="matrix(0.1447824,0,0,0.942809,4.6453514,-22.279266)" gradientUnits="userSpaceOnUse" xlink:href="#linearGradient9229"/><linearGradient id="linearGradient9239"><stop id="stop9241" offset="0" stop-color="#3465a4" stop-opacity="1"/><stop id="stop9243" offset="1" stop-color="#204a87" stop-opacity="1"/></linearGradient><linearGradient id="linearGradient8221" x1="9.066" x2="9.057" y1="2.836" y2="12.836" gradientTransform="translate(5.9419414,7.1641569)" gradientUnits="userSpaceOnUse" xlink:href="#linearGradient9239"/><linearGradient id="linearGradient9247"><stop id="stop9249" offset="0" stop-color="#8fb3d9" stop-opacity="1"/><stop id="stop9251" offset="1" stop-color="#3465a4" stop-opacity="1"/></linearGradient><linearGradient id="linearGradient8219" x1="8" x2="8" y1="2.989" y2="14.001" gradientTransform="matrix(1.0000072,0,0,0.9971619,5.9999984,6.0383149)" gradientUnits="userSpaceOnUse" xlink:href="#linearGradient9247"/><linearGradient id="linearGradient8217" x1="22.124" x2="22.124" y1="9.227" y2="41.879" gradientTransform="matrix(0.3513555,0,0,0.3333434,6.2264764,5.0017539)" gradientUnits="userSpaceOnUse" xlink:href="#linearGradient17648"/><linearGradient id="linearGradient8215" x1="24.117" x2="24.065" y1="8" y2="31.932" gradientTransform="matrix(0.3513555,0,0,0.3333434,6.5672384,4.3332519)" gradientUnits="userSpaceOnUse" xlink:href="#linearGradient6293"/><radialGradient id="radialGradient8213" cx="605.714" cy="486.648" r="117.143" fx="605.714" fy="486.648" gradientTransform="matrix(-2.774389,0,0,1.969706,112.7623,-872.8854)" gradientUnits="userSpaceOnUse" xlink:href="#linearGradient5060"/><radialGradient id="radialGradient8211" cx="605.714" cy="486.648" r="117.143" fx="605.714" fy="486.648" gradientTransform="matrix(2.774389,0,0,1.969706,-1891.633,-872.8854)" gradientUnits="userSpaceOnUse" xlink:href="#linearGradient5060"/><linearGradient id="linearGradient8209" x1="302.857" x2="302.857" y1="366.648" y2="609.505" gradientTransform="matrix(2.774389,0,0,1.969706,-1892.179,-872.8854)" gradientUnits="userSpaceOnUse" xlink:href="#linearGradient5048"/><linearGradient id="linearGradient9229" x1="71.999" x2="71.999" y1="14.258" y2="19.958" gradientTransform="matrix(1.0033404,0,0,1,-8.2374684,8)" gradientUnits="userSpaceOnUse"><stop id="stop9231" offset=".004" stop-color="#feebd6" stop-opacity="0"/><stop id="stop9233" offset=".461" stop-color="#f5f5f5" stop-opacity=".53"/><stop id="stop9235" offset="1" stop-color="#f5f5f5" stop-opacity="0"/></linearGradient><linearGradient id="linearGradient10493" x1="7.238" x2="132.86" y1="36.005" y2="35.858" gradientTransform="matrix(0.1447824,0,0,0.942809,-0.3546496,-28.279266)" gradientUnits="userSpaceOnUse" xlink:href="#linearGradient9229"/><linearGradient id="linearGradient8255"><stop id="stop8257" offset="0" stop-color="#888a85" stop-opacity="1"/><stop id="stop8259" offset="1" stop-color="#555753" stop-opacity="1"/></linearGradient><linearGradient id="linearGradient9245" x1="9.066" x2="9.057" y1="2.836" y2="12.836" gradientTransform="translate(0.9419404,1.1641569)" gradientUnits="userSpaceOnUse" xlink:href="#linearGradient8255"/><linearGradient id="linearGradient8261"><stop id="stop8263" offset="0" stop-color="#eeeeec" stop-opacity="1"/><stop id="stop8265" offset="1" stop-color="#babdb6" stop-opacity="1"/></linearGradient><linearGradient id="linearGradient9237" x1="8" x2="8" y1="2.989" y2="14.001" gradientTransform="matrix(1.0000072,0,0,0.9971619,0.9999984,3.8315946e-2)" gradientUnits="userSpaceOnUse" xlink:href="#linearGradient8261"/><linearGradient id="linearGradient17648"><stop id="stop17650" offset="0" stop-color="#fff" stop-opacity=".6"/><stop id="stop17652" offset="1" stop-color="#fff" stop-opacity="0"/></linearGradient><linearGradient id="linearGradient17646" x1="22.124" x2="22.124" y1="9.227" y2="41.879" gradientTransform="matrix(0.3513555,0,0,0.3333434,1.2264764,-0.9982461)" gradientUnits="userSpaceOnUse" xlink:href="#linearGradient17648"/><linearGradient id="linearGradient6293"><stop id="stop6295" offset="0" stop-color="#888a85" stop-opacity="1"/><stop id="stop6297" offset="1" stop-color="#555753" stop-opacity="0"/></linearGradient><linearGradient id="linearGradient17644" x1="24.117" x2="24.065" y1="8" y2="31.932" gradientTransform="matrix(0.3513555,0,0,0.3333434,1.5672384,-1.6667471)" gradientUnits="userSpaceOnUse" xlink:href="#linearGradient6293"/><radialGradient id="radialGradient7868" cx="605.714" cy="486.648" r="117.143" fx="605.714" fy="486.648" gradientTransform="matrix(-2.774389,0,0,1.969706,112.7623,-872.8854)" gradientUnits="userSpaceOnUse" xlink:href="#linearGradient5060"/><linearGradient id="linearGradient5060"><stop id="stop5062" offset="0" stop-color="#000" stop-opacity="1"/><stop id="stop5064" offset="1" stop-color="#000" stop-opacity="0"/></linearGradient><radialGradient id="radialGradient7866" cx="605.714" cy="486.648" r="117.143" fx="605.714" fy="486.648" gradientTransform="matrix(2.774389,0,0,1.969706,-1891.633,-872.8854)" gradientUnits="userSpaceOnUse" xlink:href="#linearGradient5060"/><linearGradient id="linearGradient5048"><stop id="stop5050" offset="0" stop-color="#000" stop-opacity="0"/><stop id="stop5056" offset=".5" stop-color="#000" stop-opacity="1"/><stop id="stop5052" offset="1" stop-color="#000" stop-opacity="0"/></linearGradient><linearGradient id="linearGradient7864" x1="302.857" x2="302.857" y1="366.648" y2="609.505" gradientTransform="matrix(2.774389,0,0,1.969706,-1892.179,-872.8854)" gradientUnits="userSpaceOnUse" xlink:href="#linearGradient5048"/></defs><metadata id="metadata8250"/><g id="layer1"><g id="g5894" display="inline" transform="matrix(8.8651003e-3,0,0,9.4071965e-3,16.884935,11.917635)"><rect id="rect5896" width="1339.633" height="478.357" x="-1559.252" y="-150.697" fill="url(#linearGradient7864)" fill-opacity="1" fill-rule="nonzero" stroke="none" stroke-dasharray="none" stroke-dashoffset="0" stroke-linecap="round" stroke-linejoin="miter" stroke-miterlimit="4" stroke-opacity="1" stroke-width="1" marker-end="none" marker-mid="none" marker-start="none" display="inline" opacity=".402" overflow="visible" visibility="visible" style="marker:none"/><path id="path5898" fill="url(#radialGradient7866)" fill-opacity="1" fill-rule="nonzero" stroke="none" stroke-dasharray="none" stroke-dashoffset="0" stroke-linecap="round" stroke-linejoin="miter" stroke-miterlimit="4" stroke-opacity="1" stroke-width="1" marker-end="none" marker-mid="none" marker-start="none" d="M -219.61876,-150.68038 C -219.61876,-150.68038 -219.61876,327.65041 -219.61876,327.65041 C -76.744594,328.55086 125.78146,220.48075 125.78138,88.454235 C 125.78138,-43.572302 -33.655436,-150.68036 -219.61876,-150.68038 z" display="inline" opacity=".402" overflow="visible" visibility="visible" style="marker:none"/><path id="path5900" fill="url(#radialGradient7868)" fill-opacity="1" fill-rule="nonzero" stroke="none" stroke-dasharray="none" stroke-dashoffset="0" stroke-linecap="round" stroke-linejoin="miter" stroke-miterlimit="4" stroke-opacity="1" stroke-width="1" marker-end="none" marker-mid="none" marker-start="none" d="M -1559.2523,-150.68038 C -1559.2523,-150.68038 -1559.2523,327.65041 -1559.2523,327.65041 C -1702.1265,328.55086 -1904.6525,220.48075 -1904.6525,88.454235 C -1904.6525,-43.572302 -1745.2157,-150.68036 -1559.2523,-150.68038 z" display="inline" opacity=".402" overflow="visible" visibility="visible" style="marker:none"/></g><path id="path15" fill="#eeeeec" fill-opacity="1" stroke="url(#linearGradient17644)" stroke-dasharray="none" stroke-miterlimit="4" stroke-width="1" d="M 15.500017,3.0001539 C 15.501101,2.8167649 15.198435,2.5000439 15.000017,2.5000439 L 9.4998554,2.5000439 L 7.5000174,1.4999919 L 2.9998554,1.4999919 C 2.7352964,1.4999919 2.4998554,1.7555119 2.4998554,2.0000289 L 2.4998554,13.5 L 15.500017,13.5 L 15.500017,3.0001539 z" opacity=".7"/><path id="path7263" fill="none" fill-opacity="1" stroke="url(#linearGradient17646)" stroke-dasharray="none" stroke-miterlimit="4" stroke-opacity="1" stroke-width="1" d="M 14.500017,3.7499919 C 14.501042,3.5104899 14.505832,3.5001539 14.250017,3.5001539 L 9.2000174,3.5001539 C 9.2000174,3.5001539 7.5030674,2.4993079 7.0000174,2.5001539 L 3.7500174,2.5001539 C 3.4990254,2.5001539 3.4998554,2.5207569 3.4998554,2.7499919 L 3.5100134,12.5 L 14.500017,12.5 L 14.500017,3.7499919 z" opacity=".7"/><path id="path2185" fill="url(#linearGradient9237)" fill-opacity="1" fill-rule="evenodd" stroke="url(#linearGradient9245)" stroke-dasharray="none" stroke-linecap="butt" stroke-linejoin="miter" stroke-miterlimit="4" stroke-opacity="1" stroke-width="1" d="M 1.5000004,13.5 L 16.5,13.5 L 16.5,4.4998929 L 1.5000004,4.4998929 L 1.5000004,13.5 L 1.5000004,13.5 z" display="inline" enable-background="new" opacity=".7" overflow="visible"/><rect id="rect8457" width="14" height="1" x="2" y="5" fill="url(#linearGradient10493)" fill-opacity="1" stroke="none" display="inline" enable-background="new" opacity=".7" rx="0" ry="0"/><g id="g8193" display="inline" transform="matrix(8.8651003e-3,0,0,9.4071965e-3,20.884935,18.917635)"><rect id="rect8195" width="1339.633" height="478.357" x="-1559.252" y="-150.697" fill="url(#linearGradient8209)" fill-opacity="1" fill-rule="nonzero" stroke="none" stroke-dasharray="none" stroke-dashoffset="0" stroke-linecap="round" stroke-linejoin="miter" stroke-miterlimit="4" stroke-opacity="1" stroke-width="1" marker-end="none" marker-mid="none" marker-start="none" display="inline" opacity=".402" overflow="visible" visibility="visible" style="marker:none"/><path id="path8197" fill="url(#radialGradient8211)" fill-opacity="1" fill-rule="nonzero" stroke="none" stroke-dasharray="none" stroke-dashoffset="0" stroke-linecap="round" stroke-linejoin="miter" stroke-miterlimit="4" stroke-opacity="1" stroke-width="1" marker-end="none" marker-mid="none" marker-start="none" d="M -219.61876,-150.68038 C -219.61876,-150.68038 -219.61876,327.65041 -219.61876,327.65041 C -76.744594,328.55086 125.78146,220.48075 125.78138,88.454235 C 125.78138,-43.572302 -33.655436,-150.68036 -219.61876,-150.68038 z" display="inline" opacity=".402" overflow="visible" visibility="visible" style="marker:none"/><path id="path8199" fill="url(#radialGradient8213)" fill-opacity="1" fill-rule="nonzero" stroke="none" stroke-dasharray="none" stroke-dashoffset="0" stroke-linecap="round" stroke-linejoin="miter" stroke-miterlimit="4" stroke-opacity="1" stroke-width="1" marker-end="none" marker-mid="none" marker-start="none" d="M -1559.2523,-150.68038 C -1559.2523,-150.68038 -1559.2523,327.65041 -1559.2523,327.65041 C -1702.1265,328.55086 -1904.6525,220.48075 -1904.6525,88.454235 C -1904.6525,-43.572302 -1745.2157,-150.68036 -1559.2523,-150.68038 z" display="inline" opacity=".402" overflow="visible" visibility="visible" style="marker:none"/></g><path id="path8201" fill="#eeeeec" fill-opacity="1" stroke="url(#linearGradient8215)" stroke-dasharray="none" stroke-miterlimit="4" stroke-width="1" d="M 19.500017,10.000155 C 19.501101,9.8167649 19.198435,9.5000439 19.000017,9.5000439 L 13.499855,9.5000439 L 11.500017,8.4999919 L 6.9998564,8.4999919 C 6.7352974,8.4999919 6.4998564,8.7555109 6.4998564,9.0000289 L 6.4998564,20.5 L 19.500017,20.5 L 19.500017,10.000155 z"/><path id="path8203" fill="none" fill-opacity="1" stroke="url(#linearGradient8217)" stroke-dasharray="none" stroke-miterlimit="4" stroke-opacity="1" stroke-width="1" d="M 18.500017,10.749992 C 18.501042,10.510491 18.505832,10.500155 18.250017,10.500155 L 13.200017,10.500155 C 13.200017,10.500155 11.503067,9.4993079 11.000017,9.5001539 L 7.7500184,9.5001539 C 7.4990264,9.5001539 7.4998564,9.5207569 7.4998564,9.7499909 L 7.5100144,19.5 L 18.500017,19.5 L 18.500017,10.749992 z" opacity="1"/><path id="path8205" fill="url(#linearGradient8219)" fill-opacity="1" fill-rule="evenodd" stroke="url(#linearGradient8221)" stroke-dasharray="none" stroke-linecap="butt" stroke-linejoin="miter" stroke-miterlimit="4" stroke-opacity="1" stroke-width="1" d="M 5.5000014,20.5 L 20.5,20.5 L 20.5,11.499894 L 5.5000014,11.499894 L 5.5000014,20.5 L 5.5000014,20.5 z" display="inline" enable-background="new" opacity=".9" overflow="visible"/><rect id="rect8207" width="14" height="1" x="6" y="12" fill="url(#linearGradient8223)" fill-opacity="1" stroke="none" display="inline" enable-background="new" rx="0" ry="0"/></g></svg>