<svg xmlns="http://www.w3.org/2000/svg" xmlns:svg="http://www.w3.org/2000/svg" xmlns:xlink="http://www.w3.org/1999/xlink" id="svg7245" width="22" height="22" version="1.0"><defs id="defs7247"><linearGradient id="linearGradient5113"><stop id="stop5115" offset="0" stop-color="#fff" stop-opacity="1"/><stop id="stop5117" offset="1" stop-color="#fff" stop-opacity="0"/></linearGradient><linearGradient id="linearGradient5119" x1="6.594" x2="6.219" y1="2.094" y2="17.094" gradientUnits="userSpaceOnUse" xlink:href="#linearGradient5113"/><linearGradient id="linearGradient3162"><stop id="stop3164" offset="0" stop-color="#729fcf" stop-opacity="1"/><stop id="stop3166" offset="1" stop-color="#3465a4" stop-opacity="1"/></linearGradient><linearGradient id="linearGradient3168" x1="11.512" x2="11.523" y1="1.034" y2="19.295" gradientTransform="translate(-1.556875e-4,1.0002521)" gradientUnits="userSpaceOnUse" xlink:href="#linearGradient3162"/><linearGradient id="linearGradient5105"><stop id="stop5107" offset="0" stop-color="#000" stop-opacity="1"/><stop id="stop5109" offset="1" stop-color="#000" stop-opacity="0"/></linearGradient><radialGradient id="radialGradient5111" cx="11.25" cy="19.031" r="8.063" fx="11.25" fy="19.031" gradientTransform="matrix(1,0,0,0.282946,0,13.64644)" gradientUnits="userSpaceOnUse" xlink:href="#linearGradient5105"/></defs><metadata id="metadata7250"/><g id="layer1"><path id="path4230" fill="url(#radialGradient5111)" fill-opacity="1" fill-rule="nonzero" stroke="none" stroke-dasharray="none" stroke-dashoffset="0" stroke-linecap="butt" stroke-linejoin="miter" stroke-miterlimit="4" stroke-opacity="1" stroke-width="1" marker-end="none" marker-mid="none" marker-start="none" d="M 19.3125,19.03125 A 8.0625,2.28125 0 1 1 3.1875,19.03125 A 8.0625,2.28125 0 1 1 19.3125,19.03125 z" display="inline" opacity=".163" overflow="visible" transform="matrix(-1.306961,0,0,1.464947,25.566684,-9.2016829)" visibility="visible" style="marker:none"/><path id="path4236" fill="url(#linearGradient3168)" fill-opacity="1" fill-rule="nonzero" stroke="#204a87" stroke-dasharray="none" stroke-dashoffset="0" stroke-linecap="butt" stroke-linejoin="miter" stroke-miterlimit="4" stroke-opacity="1" stroke-width="1" marker-end="none" marker-mid="none" marker-start="none" d="M 3.1677683,10.481239 L 11.501077,19.795 L 20.303869,10.481239 L 15.491676,10.481239 L 15.491676,2.5346036 L 7.5104793,2.5346036 L 7.5104793,10.481239 L 3.1677683,10.481239 z" display="inline" opacity="1" overflow="visible" visibility="visible" style="marker:none"/><path id="path5111" fill="none" fill-opacity="1" fill-rule="nonzero" stroke="url(#linearGradient5119)" stroke-dasharray="none" stroke-dashoffset="0" stroke-linecap="butt" stroke-linejoin="miter" stroke-miterlimit="4" stroke-opacity="1" stroke-width="1" marker-end="none" marker-mid="none" marker-start="none" d="M 8.5,3.53125 L 8.5,10.46875 C 8.4938119,11.018451 8.0497011,11.462562 7.5,11.46875 L 5.40625,11.46875 L 11.53125,18.28125 L 17.96875,11.46875 L 15.5,11.46875 C 14.950299,11.462562 14.506188,11.018451 14.5,10.46875 L 14.5,3.53125 L 8.5,3.53125 z" display="inline" opacity=".354" overflow="visible" transform="translate(0,-2.5e-4)" visibility="visible" xlink:href="#path4236" style="marker:none"/></g></svg>