<svg xmlns="http://www.w3.org/2000/svg" xmlns:svg="http://www.w3.org/2000/svg" xmlns:xlink="http://www.w3.org/1999/xlink" id="svg7245" width="22" height="22" version="1.0"><defs id="defs7247"><linearGradient id="linearGradient5113"><stop id="stop5115" offset="0" stop-color="#fff" stop-opacity="1"/><stop id="stop5117" offset="1" stop-color="#fff" stop-opacity="0"/></linearGradient><linearGradient id="linearGradient5837" x1="58.749" x2="105.324" y1="2.048" y2="58.048" gradientTransform="matrix(0.4586891,0,0,0.4431049,-25.496507,0.6614906)" gradientUnits="userSpaceOnUse" xlink:href="#linearGradient5113"/><linearGradient id="linearGradient3163"><stop id="stop3165" offset="0" stop-color="#729fcf" stop-opacity="1"/><stop id="stop3167" offset="1" stop-color="#3465a4" stop-opacity="1"/></linearGradient><linearGradient id="linearGradient3169" x1="11" x2="11" y1="4" y2="20" gradientTransform="translate(-3.8754691e-4,6.0861626e-7)" gradientUnits="userSpaceOnUse" xlink:href="#linearGradient3163"/><linearGradient id="linearGradient5105"><stop id="stop5107" offset="0" stop-color="#000" stop-opacity="1"/><stop id="stop5109" offset="1" stop-color="#000" stop-opacity="0"/></linearGradient><radialGradient id="radialGradient5833" cx="11.25" cy="19.031" r="8.063" fx="11.25" fy="19.031" gradientTransform="matrix(1,0,0,0.282946,0,13.64644)" gradientUnits="userSpaceOnUse" xlink:href="#linearGradient5105"/></defs><metadata id="metadata7250"/><g id="layer1"><path id="path5819" fill="url(#radialGradient5833)" fill-opacity="1" fill-rule="nonzero" stroke="none" stroke-dasharray="none" stroke-dashoffset="0" stroke-linecap="butt" stroke-linejoin="miter" stroke-miterlimit="4" stroke-opacity="1" stroke-width="1" marker-end="none" marker-mid="none" marker-start="none" d="M 19.3125,19.03125 A 8.0625,2.28125 0 1 1 3.1875,19.03125 A 8.0625,2.28125 0 1 1 19.3125,19.03125 z" display="inline" opacity=".163" overflow="visible" transform="matrix(1.141817,0,0,1.0830834,-2.4092805,-4.4765794)" visibility="visible" style="marker:none"/><path id="path5825" fill="url(#linearGradient3169)" fill-opacity="1" fill-rule="nonzero" stroke="#204a87" stroke-dasharray="none" stroke-dashoffset="0" stroke-linecap="butt" stroke-linejoin="miter" stroke-miterlimit="4" stroke-opacity="1" stroke-width="1" marker-end="none" marker-mid="none" marker-start="none" d="M 19.499615,12.49332 L 13.960102,19.5 L 8.4483525,12.49332 L 11.252243,12.49332 C 12.194564,10.02883 10.163893,8.2037002 7.9203445,8.2037002 C 6.3924975,8.2037002 4.2909605,8.4623802 2.9996125,10.56291 C 1.8041945,12.5074 1.3477275,10.9828 1.5343175,10.09967 C 2.1662965,7.1085306 5.3584975,4.4461606 9.6327805,4.4461606 C 13.907063,4.4461606 16.81305,7.6130402 16.576889,12.49332 L 19.499615,12.49332 z" display="inline" overflow="visible" visibility="visible" style="marker:none"/><path id="path5831" fill="none" fill-opacity="1" fill-rule="nonzero" stroke="url(#linearGradient5837)" stroke-dasharray="none" stroke-dashoffset="0" stroke-linecap="butt" stroke-linejoin="miter" stroke-miterlimit="4" stroke-opacity="1" stroke-width="1" marker-end="none" marker-mid="none" marker-start="none" d="M 17.499615,13.53143 L 13.934615,17.89391 L 10.554219,13.53143 L 11.966301,13.55533 C 13.322982,11.11812 11.822924,7.7672402 8.9996125,7.5133602 C 6.5525365,7.2933102 4.8435635,7.5671202 3.1799705,8.6671502 C 4.2911295,6.5793506 6.3412525,5.4205206 9.6176205,5.4267406 C 12.893989,5.4329606 16.000315,7.7642702 15.544503,13.53143 L 17.499615,13.53143 z" display="inline" enable-background="accumulate" opacity=".354" overflow="visible" visibility="visible" style="marker:none"/></g></svg>