<svg xmlns="http://www.w3.org/2000/svg" xmlns:svg="http://www.w3.org/2000/svg" xmlns:xlink="http://www.w3.org/1999/xlink" id="svg7569" width="32" height="32"><defs id="defs7571"><linearGradient id="linearGradient6700"><stop id="stop6702" offset="0" stop-color="#fff" stop-opacity="1"/><stop id="stop6704" offset="1" stop-color="#fff" stop-opacity="0"/></linearGradient><linearGradient id="linearGradient5682" x1="17.5" x2="28.555" y1="25.587" y2="25.699" gradientUnits="userSpaceOnUse" xlink:href="#linearGradient6700"/><radialGradient id="radialGradient5461" cx="60.641" cy="22.656" r="2.619" fx="60.641" fy="22.656" gradientTransform="matrix(2.1454532,0,0,3.0191635,-69.461,-45.746674)" gradientUnits="userSpaceOnUse" xlink:href="#linearGradient6958"/><radialGradient id="radialGradient5463" cx="70.531" cy="22.734" r="3.598" fx="70.531" fy="22.734" gradientTransform="matrix(1.8087117,0,0,3.5234273,-57.039447,-57.368542)" gradientUnits="userSpaceOnUse" xlink:href="#linearGradient6958"/><radialGradient id="radialGradient5467" cx="72.496" cy="22.844" r="4.82" fx="72.496" fy="22.844" gradientTransform="matrix(2.6999424,0,0,3.6828427,-122.46854,-61.286186)" gradientUnits="userSpaceOnUse" xlink:href="#linearGradient6958"/><linearGradient id="linearGradient6958"><stop id="stop6960" offset="0" stop-color="#729fcf" stop-opacity="1"/><stop id="stop6966" offset=".6" stop-color="#729fcf" stop-opacity="1"/><stop id="stop6962" offset="1" stop-color="#729fcf" stop-opacity="0"/></linearGradient><radialGradient id="radialGradient5465" cx="72.496" cy="22.844" r="4.82" fx="72.496" fy="22.844" gradientTransform="matrix(2.6999424,0,0,3.5713875,-122.46854,-58.740132)" gradientUnits="userSpaceOnUse" xlink:href="#linearGradient6958"/><linearGradient id="linearGradient6607"><stop id="stop6609" offset="0" stop-color="#eeeeec" stop-opacity="1"/><stop id="stop6611" offset="1" stop-color="#babdb6" stop-opacity="1"/></linearGradient><radialGradient id="radialGradient5684" cx="30.685" cy="42.261" r="8.228" fx="30.685" fy="42.261" gradientTransform="matrix(2.6670139,7.6972172e-2,0,-1.6644973,-69.71185,74.883836)" gradientUnits="userSpaceOnUse" xlink:href="#linearGradient6607"/><linearGradient id="linearGradient6628"><stop id="stop6630" offset="0" stop-color="#000" stop-opacity="1"/><stop id="stop6632" offset="1" stop-color="#000" stop-opacity="0"/></linearGradient><linearGradient id="linearGradient5686" x1="23.238" x2="29.893" y1="12.159" y2="26.354" gradientUnits="userSpaceOnUse" xlink:href="#linearGradient6628"/><linearGradient id="linearGradient6589"><stop id="stop6591" offset="0" stop-color="#babdb6" stop-opacity="1"/><stop id="stop6593" offset="1" stop-color="#555753" stop-opacity="1"/></linearGradient><radialGradient id="radialGradient5653" cx="20.884" cy="20.434" r="4" fx="20.884" fy="20.434" gradientTransform="matrix(0.8503608,0,0,1.0402609,-4.9858846,-6.0236732)" gradientUnits="userSpaceOnUse" xlink:href="#linearGradient6589"/><linearGradient id="linearGradient6643"><stop id="stop6645" offset="0" stop-color="#555753" stop-opacity="1"/><stop id="stop6647" offset="1" stop-color="#d3d7cf" stop-opacity="1"/></linearGradient><linearGradient id="linearGradient5636" x1="33.431" x2="33.431" y1="45.052" y2=".31" gradientUnits="userSpaceOnUse" xlink:href="#linearGradient6643"/><linearGradient id="linearGradient6667"><stop id="stop6669" offset="0" stop-color="#babdb6" stop-opacity="1"/><stop id="stop6671" offset="1" stop-color="#555753" stop-opacity="1"/></linearGradient><radialGradient id="radialGradient5634" cx="23.165" cy="30.233" r="8.189" fx="23.165" fy="30.233" gradientTransform="matrix(1.7346265,-0.1698771,0.327755,3.6175226,-27.429343,-73.69679)" gradientUnits="userSpaceOnUse" xlink:href="#linearGradient6667"/><linearGradient id="linearGradient6651"><stop id="stop6653" offset="0" stop-color="#fff" stop-opacity="1"/><stop id="stop6655" offset="1" stop-color="#fff" stop-opacity="0"/></linearGradient><radialGradient id="radialGradient5601" cx="23.987" cy="27.053" r="7.75" fx="23.987" fy="27.053" gradientTransform="matrix(-0.2432942,0,0,-1.2543129,25.221399,61.870636)" gradientUnits="userSpaceOnUse" xlink:href="#linearGradient6651"/><linearGradient id="linearGradient6573"><stop id="stop6575" offset="0" stop-color="#fff" stop-opacity="1"/><stop id="stop6577" offset="1" stop-color="#fff" stop-opacity="0"/></linearGradient><linearGradient id="linearGradient5590" x1="12.198" x2="12.198" y1="9.26" y2="47.497" gradientUnits="userSpaceOnUse" xlink:href="#linearGradient6573"/><linearGradient id="linearGradient6379"><stop id="stop6381" offset="0" stop-color="#fff" stop-opacity="0"/><stop id="stop21606" offset=".5" stop-color="#fff" stop-opacity="1"/><stop id="stop6383" offset="1" stop-color="#fff" stop-opacity="0"/></linearGradient><linearGradient id="linearGradient5562" x1="20.226" x2="11.438" y1="20.334" y2="21.75" gradientTransform="matrix(0.4438196,0,0,0.6657294,1.2215699,-0.1724479)" gradientUnits="userSpaceOnUse" xlink:href="#linearGradient6379"/><linearGradient id="linearGradient6627"><stop id="stop6629" offset="0" stop-color="#555753" stop-opacity="1"/><stop id="stop6631" offset="1" stop-color="#babdb6" stop-opacity="1"/></linearGradient><linearGradient id="linearGradient5568" x1="7.75" x2="4.643" y1="33.047" y2="12.064" gradientTransform="matrix(0.6067847,0,0,0.5850349,1.6879272,3.6000106)" gradientUnits="userSpaceOnUse" xlink:href="#linearGradient6627"/><linearGradient id="linearGradient6633"><stop id="stop6635" offset="0" stop-color="#eeeeec" stop-opacity="1"/><stop id="stop6637" offset="1" stop-color="#61635f" stop-opacity="1"/></linearGradient><radialGradient id="radialGradient5566" cx="9.32" cy="18.817" r="12.5" fx="9.32" fy="18.817" gradientTransform="matrix(0.47483,0.3476091,-0.6178487,0.7845551,14.880435,-3.9726311)" gradientUnits="userSpaceOnUse" xlink:href="#linearGradient6633"/><linearGradient id="linearGradient6546"><stop id="stop6548" offset="0" stop-color="#555753" stop-opacity="1"/><stop id="stop6550" offset="1" stop-color="#888a85" stop-opacity="1"/></linearGradient><linearGradient id="linearGradient5571" x1="80.693" x2="77.125" y1="31.561" y2="14" gradientTransform="matrix(0.6657294,0,0,0.6657294,-46.710947,1.8247403)" gradientUnits="userSpaceOnUse" xlink:href="#linearGradient6546"/><linearGradient id="linearGradient6531"><stop id="stop6533" offset="0" stop-color="#fff" stop-opacity="1"/><stop id="stop6535" offset="1" stop-color="#fff" stop-opacity="0"/></linearGradient><linearGradient id="linearGradient5588" x1="3.845" x2="3.845" y1="15.561" y2="39.884" gradientUnits="userSpaceOnUse" xlink:href="#linearGradient6531"/><linearGradient id="linearGradient5533"><stop id="stop5535" offset="0" stop-color="#555753" stop-opacity="1"/><stop id="stop5537" offset="1" stop-color="#babdb6" stop-opacity="1"/></linearGradient><linearGradient id="linearGradient5577" x1="80.063" x2="80.063" y1="14" y2="-4.009" gradientTransform="matrix(0.6033173,0,0,0.7135235,-43.996019,12.934419)" gradientUnits="userSpaceOnUse" xlink:href="#linearGradient5533"/><linearGradient id="linearGradient2793"><stop id="stop2795" offset="0" stop-color="#babdb6" stop-opacity="1"/><stop id="stop2801" offset=".253" stop-color="#eeeeec" stop-opacity="1"/><stop id="stop2797" offset="1" stop-color="#555753" stop-opacity="1"/></linearGradient><linearGradient id="linearGradient5575" x1="78.5" x2="78.5" y1="-4.007" y2="14.001" gradientTransform="matrix(0.6033173,0,0,0.7135235,-43.996019,12.934419)" gradientUnits="userSpaceOnUse" xlink:href="#linearGradient2793"/><linearGradient id="linearGradient17123"><stop id="stop17125" offset="0" stop-color="#000" stop-opacity="1"/><stop id="stop17127" offset="1" stop-color="#000" stop-opacity="0"/></linearGradient><radialGradient id="radialGradient5502" cx="11.402" cy="36.863" r="10.695" fx="11.402" fy="36.863" gradientTransform="matrix(1,0,0,0.330579,0,24.67693)" gradientUnits="userSpaceOnUse" xlink:href="#linearGradient17123"/></defs><metadata id="metadata7574"/><g id="layer1"><path id="path16236" fill="url(#radialGradient5502)" fill-opacity="1" stroke="none" stroke-dasharray="none" stroke-dashoffset="1.2" stroke-linecap="round" stroke-linejoin="round" stroke-miterlimit="4" stroke-opacity="1" stroke-width="1" d="M 22.097087,36.863068 A 10.69499,3.5355339 0 1 1 0.70710659,36.863068 A 10.69499,3.5355339 0 1 1 22.097087,36.863068 z" display="inline" opacity=".2" transform="matrix(1.0229535,0,0,1.6110474,-0.8903372,-37.04378)"/><path id="path5330" fill="#2e3436" fill-opacity="1" stroke="#555753" stroke-dasharray="none" stroke-dashoffset="0" stroke-linecap="round" stroke-linejoin="miter" stroke-miterlimit="4" stroke-opacity="1" stroke-width="1.911" d="M 8,25 A 4,7 0 1 1 0,25 A 4,7 0 1 1 8,25 z" display="inline" transform="matrix(0.499297,0,0,0.5483555,0.500134,2.6296156)"/><path id="path6659" fill="#babdb6" fill-opacity="1" stroke="none" stroke-dasharray="none" stroke-dashoffset="1.2" stroke-linecap="round" stroke-linejoin="round" stroke-miterlimit="4" stroke-opacity="1" stroke-width="1" d="M 4.5,20.75 A 0.75,0.75 0 1 1 3,20.75 A 0.75,0.75 0 1 1 4.5,20.75 z" display="inline" transform="matrix(0.6657294,0,0,0.697907,-1.5178582,4.6727532e-2)"/><path id="path2766" fill="url(#linearGradient5575)" fill-opacity="1" stroke="url(#linearGradient5577)" stroke-dasharray="none" stroke-dashoffset="0" stroke-linecap="round" stroke-linejoin="miter" stroke-miterlimit="4" stroke-opacity="1" stroke-width="1" d="M 3.9677037,10.437096 C 2.6355815,10.437096 1.5544352,13.15421 1.5544346,16.502047 C 1.5544346,19.849882 2.6355815,22.566998 3.9677037,22.566997 L 6.3809728,22.566997 C 7.7130946,22.566997 8.7942418,19.849882 8.7942418,16.502047 C 8.7942418,13.15421 7.7130946,10.437096 6.3809728,10.437096 L 3.9677037,10.437096 z" display="inline"/><path id="path5556" fill="none" fill-opacity="1" stroke="url(#linearGradient5588)" stroke-dasharray="none" stroke-dashoffset="0" stroke-linecap="round" stroke-linejoin="miter" stroke-miterlimit="4" stroke-opacity="1" stroke-width="1.628" d="M 5.5,14.5 C 4.974,14.5 4.2339165,15.045895 3.59375,16.40625 C 2.9535835,17.766605 2.5000005,19.78201 2.5,22 C 2.5,24.21799 2.9535834,26.233394 3.59375,27.59375 C 4.2339166,28.954106 4.9740003,29.5 5.5,29.5 L 9.5,29.5 C 10.025999,29.5 10.766083,28.954106 11.40625,27.59375 C 12.046417,26.233394 12.5,24.217988 12.5,22 C 12.5,19.782012 12.046417,17.766606 11.40625,16.40625 C 10.766083,15.045894 10.026,14.5 9.5,14.5 L 5.5,14.5 z" display="inline" opacity=".6" transform="matrix(0.5669987,0,0,0.6657294,1.0826372,1.8247403)"/><path id="path6556" fill="url(#linearGradient5571)" fill-opacity="1" stroke="none" stroke-dasharray="none" stroke-dashoffset="0" stroke-linecap="round" stroke-linejoin="miter" stroke-miterlimit="4" stroke-opacity="1" stroke-width="1" d="M 6.3456393,11.144952 C 4.9870859,11.144952 3.8844882,13.526279 3.8844875,16.460385 C 3.8844875,19.39449 4.9870859,21.775819 6.3456393,21.775818 L 6.7699751,21.775818 C 8.1285284,21.775818 9.2311267,19.394489 9.2311267,16.460385 C 9.2311267,13.52628 8.1285284,11.144952 6.7699751,11.144952 L 6.3456393,11.144952 z" display="inline"/><path id="path1871" fill="url(#radialGradient5566)" fill-opacity="1" stroke="url(#linearGradient5568)" stroke-dasharray="none" stroke-dashoffset="0" stroke-linecap="round" stroke-linejoin="miter" stroke-miterlimit="4" stroke-opacity="1" stroke-width="1" d="M 5.6320275,16.470787 C 5.6320275,22.613654 11.748067,26.123863 15.534753,26.123863 C 18.156063,26.123863 20.194859,21.799282 20.194859,16.470787 C 20.194859,11.142291 18.156063,6.8177109 15.534753,6.8177109 C 11.748067,6.8177109 5.6320275,10.327921 5.6320275,16.470787 z" display="inline"/><path id="path6639" fill="url(#linearGradient5562)" fill-opacity="1" fill-rule="evenodd" stroke="none" stroke-linecap="butt" stroke-linejoin="miter" stroke-opacity="1" stroke-width="1" d="M 10.541781,9.3974122 C 8.8219808,10.32589 6.9080087,12.19076 5.2159464,14.806463 C 7.0131228,14.056794 8.8716608,13.501319 10.541781,13.641437 L 10.541781,9.3974122 z" display="inline" opacity=".734"/><path id="path6567" fill="none" fill-opacity="1" stroke="url(#linearGradient5590)" stroke-dasharray="none" stroke-dashoffset="0" stroke-linecap="round" stroke-linejoin="miter" stroke-miterlimit="4" stroke-opacity="1" stroke-width="1.746" d="M 22.8125,6.5 C 20.016701,6.5000001 16.088488,7.9333131 12.96875,10.59375 C 9.8490125,13.254187 7.5,17.073741 7.5,22 C 7.5,26.92626 9.8490125,30.745813 12.96875,33.40625 C 16.088487,36.066687 20.016701,37.5 22.8125,37.5 C 24.394999,37.5 26.045271,36.056265 27.34375,33.25 C 28.642229,30.443735 29.5,26.429214 29.5,22 C 29.5,17.570787 28.642229,13.556265 27.34375,10.75 C 26.045271,7.943735 24.394999,6.5 22.8125,6.5 z" display="inline" opacity=".586" transform="matrix(0.5830281,0,0,0.5624205,2.1274236,4.0975371)"/><path id="path6661" fill="#fff" fill-opacity="1" stroke="none" stroke-dasharray="none" stroke-dashoffset="1.2" stroke-linecap="round" stroke-linejoin="round" stroke-miterlimit="4" stroke-opacity="1" stroke-width="1" d="M 21.5,13.5 A 1,1 0 1 1 19.5,13.5 A 1,1 0 1 1 21.5,13.5 z" display="inline" transform="matrix(0.6657294,0,0,0.6657294,-10.761559,4.0299689)"/><path id="path6649" fill="url(#radialGradient5601)" fill-opacity="1" stroke="none" stroke-dasharray="none" stroke-dashoffset="0" stroke-linecap="round" stroke-linejoin="miter" stroke-miterlimit="4" stroke-opacity="1" stroke-width=".878" d="M 33,27.9375 A 7.75,16.5625 0 1 1 17.5,27.9375 A 7.75,16.5625 0 1 1 33,27.9375 z" display="inline" transform="matrix(0.8804809,0,0,0.6842319,-7.5557326,-2.6178873)"/><path id="path1873" fill="url(#radialGradient5634)" fill-opacity="1" stroke="url(#linearGradient5636)" stroke-dasharray="none" stroke-dashoffset="0" stroke-linecap="round" stroke-linejoin="miter" stroke-miterlimit="4" stroke-opacity="1" stroke-width="1.234" d="M 33,27.9375 A 7.75,16.5625 0 1 1 17.5,27.9375 A 7.75,16.5625 0 1 1 33,27.9375 z" display="inline" transform="matrix(0.8370499,0,0,0.7848545,-6.1353756,-5.4290252)"/><path id="path3672" fill="url(#radialGradient5653)" fill-opacity="1" stroke="#555753" stroke-dashoffset="0" stroke-linecap="round" stroke-linejoin="miter" stroke-miterlimit="4" stroke-opacity="1" stroke-width="1" d="M 14.500134,16.49785 C 14.500134,18.15374 12.952583,19.497643 11.859298,19.497643 C 10.766012,19.497643 9.878707,18.153731 9.878707,16.497842 C 9.878707,14.841952 10.766012,13.498041 11.859298,13.498041 C 12.952583,13.498041 14.500134,14.84196 14.500134,16.49785 z" display="inline"/><path id="path6615" fill="none" fill-opacity="1" stroke="url(#linearGradient5686)" stroke-dasharray="none" stroke-dashoffset="0" stroke-linecap="round" stroke-linejoin="miter" stroke-miterlimit="4" stroke-opacity="1" stroke-width="1.658" d="M 33,27.9375 A 7.75,16.5625 0 1 1 17.5,27.9375 A 7.75,16.5625 0 1 1 33,27.9375 z" display="inline" opacity=".366" transform="matrix(0.5685484,0,0,0.6396227,1.0505374,-1.4631942)"/><path id="path6605" fill="url(#radialGradient5684)" fill-opacity="1" stroke="none" stroke-dasharray="none" stroke-dashoffset="0" stroke-linecap="round" stroke-linejoin="miter" stroke-miterlimit="4" stroke-opacity="1" stroke-width=".903" d="M 15.000135,4.0000142 C 13.239055,4.0000142 11.750164,5.4801632 10.693515,7.7417902 C 9.6368636,10.003417 9.000134,13.098781 9.000134,16.500014 C 9.000134,19.901247 9.6368636,22.99661 10.693515,25.258238 C 11.750164,27.519864 13.239055,29.000014 15.000135,29.000014 C 16.761216,29.000014 18.250105,27.519865 19.306754,25.258238 C 19.967161,23.84472 20.468864,22.092962 20.749263,20.159554 C 20.758106,20.098585 20.761761,20.035879 20.77017,19.974519 C 20.821284,19.601528 20.860972,19.230118 20.895605,18.843763 C 20.929638,18.484281 20.960925,18.124661 20.97923,17.754126 C 20.980192,17.733754 20.978312,17.712848 20.97923,17.692448 C 20.997604,17.300443 21.000134,16.902485 21.000134,16.500014 C 21.000134,16.076092 20.999593,15.658161 20.97923,15.245902 C 20.961935,14.879702 20.927541,14.512535 20.895605,14.156264 C 20.860972,13.769909 20.821284,13.398499 20.77017,13.025508 C 20.76114,12.962886 20.758772,12.902652 20.749263,12.840475 C 20.468864,10.907066 19.967161,9.1553072 19.306754,7.7417902 C 18.250105,5.4801632 16.761216,4.0000142 15.000135,4.0000142 z M 15.33463,5.3158032 C 16.620612,5.3158042 17.863657,6.4774152 18.805012,8.5024812 C 19.39336,9.7681472 19.859929,11.354696 20.122086,13.128304 C 20.174517,13.483025 20.21146,13.848836 20.247521,14.217942 C 20.279271,14.563606 20.313807,14.91097 20.331145,15.266461 C 20.352471,15.674681 20.372956,16.079722 20.372956,16.500014 C 20.372956,16.891952 20.349731,17.26982 20.331145,17.651329 C 20.329917,17.678287 20.332457,17.706662 20.331145,17.733567 C 20.312698,18.086706 20.280975,18.439684 20.247521,18.782086 C 20.21146,19.151191 20.174517,19.517003 20.122086,19.871724 C 19.859929,21.645332 19.39336,23.231881 18.805012,24.497547 C 17.863657,26.522613 16.620612,27.684225 15.33463,27.684225 C 14.04865,27.684223 12.805602,26.522613 11.864246,24.497547 C 10.922889,22.472481 10.296301,19.635517 10.296301,16.500014 C 10.296301,13.364512 10.922889,10.527547 11.864246,8.5024812 C 12.805602,6.4774152 14.04865,5.3158032 15.33463,5.3158032 z" display="inline"/><g id="g27916" stroke="#729fcf" stroke-width="1.375" display="inline" transform="matrix(0.4171275,0,0,0.8023286,-2.1602088,-2.0205446)"><path id="path21632" fill="none" fill-opacity="1" stroke="url(#radialGradient5463)" stroke-dasharray="none" stroke-dashoffset="1.2" stroke-linecap="round" stroke-linejoin="round" stroke-miterlimit="4" stroke-opacity="1" stroke-width="1.729" d="M 67.5625,34.78125 C 71.176369,31.899733 73.499999,27.47788 73.5,22.5 C 73.5,17.793936 71.43603,13.569699 68.15625,10.6875" display="inline" opacity="1"/></g><g id="g28807" stroke="#729fcf" stroke-width="1.236" display="inline" transform="matrix(0.3797492,0,0,0.7459029,1.760467,-0.4813396)"><path id="path27920" fill="none" fill-opacity="1" stroke="url(#radialGradient5461)" stroke-dasharray="none" stroke-dashoffset="1.2" stroke-linecap="round" stroke-linejoin="round" stroke-miterlimit="4" stroke-opacity="1" stroke-width="1.879" d="M 58.78125,30.15625 C 61.050824,28.375887 62.5,25.606103 62.5,22.5 C 62.5,19.560794 61.188424,16.939552 59.125,15.15625" display="inline" opacity="1"/></g><path id="path5501" fill="#fff" fill-opacity="1" stroke="none" stroke-dasharray="none" stroke-dashoffset="1.2" stroke-linecap="round" stroke-linejoin="round" stroke-miterlimit="4" stroke-opacity="1" stroke-width="1" d="M 21.5,13.5 A 1,1 0 1 1 19.5,13.5 A 1,1 0 1 1 21.5,13.5 z" display="inline" transform="matrix(0.6828568,0,0,0.6666231,-3.4370022,-0.7510284)"/><path id="path6698" fill="none" fill-opacity="1" stroke="url(#linearGradient5682)" stroke-dasharray="none" stroke-dashoffset="0" stroke-linecap="round" stroke-linejoin="miter" stroke-miterlimit="4" stroke-opacity="1" stroke-width="1.376" d="M 33,27.9375 A 7.75,16.5625 0 1 1 17.5,27.9375 A 7.75,16.5625 0 1 1 33,27.9375 z" display="inline" opacity=".655" transform="matrix(0.7293087,0,0,0.7245283,-3.262769,-3.7414948)"/></g></svg>