<svg xmlns="http://www.w3.org/2000/svg" xmlns:svg="http://www.w3.org/2000/svg" xmlns:xlink="http://www.w3.org/1999/xlink" id="svg7520" width="32" height="32"><defs id="defs7522"><linearGradient id="linearGradient3401" x1="307.531" x2="307.531" y1="193.188" y2="189.119" gradientUnits="userSpaceOnUse" xlink:href="#linearGradient7758"/><linearGradient id="linearGradient3399" x1="307.531" x2="307.531" y1="193.188" y2="189.119" gradientUnits="userSpaceOnUse" xlink:href="#linearGradient7758"/><linearGradient id="linearGradient3397" x1="307.531" x2="307.531" y1="193.188" y2="189.119" gradientUnits="userSpaceOnUse" xlink:href="#linearGradient7758"/><linearGradient id="linearGradient3395" x1="307.531" x2="307.531" y1="193.188" y2="189.119" gradientTransform="translate(0,1)" gradientUnits="userSpaceOnUse" xlink:href="#linearGradient7758"/><linearGradient id="linearGradient3393" x1="307.531" x2="307.531" y1="193.188" y2="189.119" gradientUnits="userSpaceOnUse" xlink:href="#linearGradient7758"/><linearGradient id="linearGradient3391" x1="307.531" x2="307.531" y1="193.188" y2="189.119" gradientUnits="userSpaceOnUse" xlink:href="#linearGradient7758"/><linearGradient id="linearGradient3389" x1="307.531" x2="307.531" y1="193.188" y2="189.119" gradientUnits="userSpaceOnUse" xlink:href="#linearGradient7758"/><linearGradient id="linearGradient3387" x1="307.531" x2="307.531" y1="193.188" y2="189.119" gradientUnits="userSpaceOnUse" xlink:href="#linearGradient7758"/><linearGradient id="linearGradient3385" x1="307.531" x2="307.531" y1="193.188" y2="189.119" gradientUnits="userSpaceOnUse" xlink:href="#linearGradient7758"/><linearGradient id="linearGradient3383" x1="307.531" x2="307.531" y1="193.188" y2="189.119" gradientUnits="userSpaceOnUse" xlink:href="#linearGradient7758"/><linearGradient id="linearGradient3403" x1="307.531" x2="307.531" y1="193.188" y2="189.119" gradientUnits="userSpaceOnUse" xlink:href="#linearGradient7758"/><linearGradient id="linearGradient3381" x1="316.183" x2="316.183" y1="83.225" y2="90.82" gradientTransform="matrix(0.3586948,0,0,0.4000001,229.28732,160.2)" gradientUnits="userSpaceOnUse" xlink:href="#linearGradient4574"/><linearGradient id="linearGradient3378" x1="110.532" x2="110.532" y1="416.369" y2="368.067" gradientUnits="userSpaceOnUse" xlink:href="#linearGradient4538"/><linearGradient id="linearGradient3376" x1="169.536" x2="169.536" y1="406.257" y2="381.704" gradientUnits="userSpaceOnUse" xlink:href="#linearGradient11187"/><radialGradient id="radialGradient3374" cx="326.021" cy="58" r="12.5" fx="326.021" fy="58" gradientTransform="matrix(-0.8608208,3.7279326e-7,4.195139e-2,-0.6045406,586.48445,215.18657)" gradientUnits="userSpaceOnUse" xlink:href="#linearGradient4788-7"/><radialGradient id="radialGradient3372" cx="327.5" cy="58" r="12.5" fx="327.5" fy="58" gradientTransform="matrix(2.9199174,2.523046e-8,0,0.6246709,-639.95678,143.91344)" gradientUnits="userSpaceOnUse" xlink:href="#linearGradient4788"/><linearGradient id="linearGradient3370" x1="88" x2="178" y1="44.5" y2="202.5" gradientTransform="matrix(7.6923313e-2,0,0,7.0591222e-2,302.61531,175.04077)" gradientUnits="userSpaceOnUse" xlink:href="#linearGradient5687"/><linearGradient id="linearGradient7514"><stop id="stop7516" offset="0" stop-color="#729fcf" stop-opacity="1"/><stop id="stop7518" offset="1" stop-color="#3465a4" stop-opacity="1"/></linearGradient><radialGradient id="radialGradient3368" cx="24.006" cy="37.922" r="19" fx="24.006" fy="37.922" gradientTransform="matrix(1.1011252,0,0,0.4728361,287.58732,172.07816)" gradientUnits="userSpaceOnUse" xlink:href="#linearGradient7514"/><linearGradient id="linearGradient3366" x1="315.04" x2="291.661" y1="89.237" y2="45.184" gradientTransform="matrix(0.4667846,0,0,0.4669448,164.62624,152.04321)" gradientUnits="userSpaceOnUse" xlink:href="#linearGradient5538"/><radialGradient id="radialGradient3364" cx="314.31" cy="61.655" r="23" fx="314.31" fy="61.655" gradientTransform="matrix(0.525761,1.962839,-0.5015999,0.1344494,175.37799,-445.23546)" gradientUnits="userSpaceOnUse" xlink:href="#linearGradient4654"/><linearGradient id="linearGradient3362" x1="336.563" x2="336.563" y1="192.875" y2="196.993" gradientTransform="translate(-20,0)" gradientUnits="userSpaceOnUse" xlink:href="#linearGradient3380"/><linearGradient id="linearGradient3360" x1="333.563" x2="333.563" y1="192.913" y2="196.265" gradientTransform="translate(-20,0)" gradientUnits="userSpaceOnUse" xlink:href="#linearGradient4693"/><linearGradient id="linearGradient3358" x1="327.92" x2="327.92" y1="93.75" y2="88.849" gradientUnits="userSpaceOnUse" xlink:href="#linearGradient4772"/><linearGradient id="linearGradient3356" x1="328.628" x2="327.479" y1="74.433" y2="67.362" gradientTransform="matrix(0.6443737,0,0,0.9724074,143.7467,121.28233)" gradientUnits="userSpaceOnUse" xlink:href="#linearGradient3847"/><linearGradient id="linearGradient7510" x1="307.531" x2="307.531" y1="193.188" y2="189.119" gradientUnits="userSpaceOnUse" xlink:href="#linearGradient7758"/><linearGradient id="linearGradient7508" x1="307.531" x2="307.531" y1="193.188" y2="189.119" gradientUnits="userSpaceOnUse" xlink:href="#linearGradient7758"/><linearGradient id="linearGradient7506" x1="307.531" x2="307.531" y1="193.188" y2="189.119" gradientUnits="userSpaceOnUse" xlink:href="#linearGradient7758"/><linearGradient id="linearGradient7504" x1="307.531" x2="307.531" y1="193.188" y2="189.119" gradientTransform="translate(0,1)" gradientUnits="userSpaceOnUse" xlink:href="#linearGradient7758"/><linearGradient id="linearGradient7502" x1="307.531" x2="307.531" y1="193.188" y2="189.119" gradientUnits="userSpaceOnUse" xlink:href="#linearGradient7758"/><linearGradient id="linearGradient7500" x1="307.531" x2="307.531" y1="193.188" y2="189.119" gradientUnits="userSpaceOnUse" xlink:href="#linearGradient7758"/><linearGradient id="linearGradient7498" x1="307.531" x2="307.531" y1="193.188" y2="189.119" gradientUnits="userSpaceOnUse" xlink:href="#linearGradient7758"/><linearGradient id="linearGradient7496" x1="307.531" x2="307.531" y1="193.188" y2="189.119" gradientUnits="userSpaceOnUse" xlink:href="#linearGradient7758"/><linearGradient id="linearGradient7494" x1="307.531" x2="307.531" y1="193.188" y2="189.119" gradientUnits="userSpaceOnUse" xlink:href="#linearGradient7758"/><linearGradient id="linearGradient7492" x1="307.531" x2="307.531" y1="193.188" y2="189.119" gradientUnits="userSpaceOnUse" xlink:href="#linearGradient7758"/><linearGradient id="linearGradient7758"><stop id="stop7760" offset="0" stop-color="#babdb6" stop-opacity="1"/><stop id="stop7762" offset="1" stop-color="#babdb6" stop-opacity="0"/></linearGradient><linearGradient id="linearGradient7512" x1="307.531" x2="307.531" y1="193.188" y2="189.119" gradientUnits="userSpaceOnUse" xlink:href="#linearGradient7758"/><linearGradient id="linearGradient4574"><stop id="stop4576" offset="0" stop-color="#2e3436" stop-opacity="1"/><stop id="stop4578" offset="1" stop-color="#888a85" stop-opacity="1"/></linearGradient><linearGradient id="linearGradient7490" x1="316.183" x2="316.183" y1="83.225" y2="90.82" gradientTransform="matrix(0.3586948,0,0,0.4000001,229.28732,160.2)" gradientUnits="userSpaceOnUse" xlink:href="#linearGradient4574"/><linearGradient id="linearGradient4538"><stop id="stop4540" offset="0" stop-color="#555753" stop-opacity="1"/><stop id="stop4542" offset="1" stop-color="#888a85" stop-opacity="1"/></linearGradient><linearGradient id="linearGradient7488" x1="110.532" x2="110.532" y1="416.369" y2="368.067" gradientUnits="userSpaceOnUse" xlink:href="#linearGradient4538"/><linearGradient id="linearGradient11187"><stop id="stop11189" offset="0" stop-color="#fff" stop-opacity="1"/><stop id="stop11191" offset="1" stop-color="#d3d7cf" stop-opacity="1"/></linearGradient><linearGradient id="linearGradient7486" x1="169.536" x2="169.536" y1="406.257" y2="381.704" gradientUnits="userSpaceOnUse" xlink:href="#linearGradient11187"/><linearGradient id="linearGradient4788-7"><stop id="stop4790-8" offset="0" stop-color="#fff" stop-opacity="1"/><stop id="stop4792-6" offset="1" stop-color="#fff" stop-opacity="0"/></linearGradient><radialGradient id="radialGradient7484" cx="326.021" cy="58" r="12.5" fx="326.021" fy="58" gradientTransform="matrix(-0.8608208,3.7279326e-7,4.195139e-2,-0.6045406,586.48445,215.18657)" gradientUnits="userSpaceOnUse" xlink:href="#linearGradient4788-7"/><linearGradient id="linearGradient4788"><stop id="stop4790" offset="0" stop-color="#fff" stop-opacity="1"/><stop id="stop4792" offset="1" stop-color="#fff" stop-opacity="0"/></linearGradient><radialGradient id="radialGradient7482" cx="327.5" cy="58" r="12.5" fx="327.5" fy="58" gradientTransform="matrix(2.9199174,2.523046e-8,0,0.6246709,-639.95678,143.91344)" gradientUnits="userSpaceOnUse" xlink:href="#linearGradient4788"/><linearGradient id="linearGradient5687"><stop id="stop5689" offset="0" stop-color="#fff" stop-opacity="1"/><stop id="stop5691" offset="1" stop-color="#fff" stop-opacity="0"/></linearGradient><linearGradient id="linearGradient7480" x1="88" x2="178" y1="44.5" y2="202.5" gradientTransform="matrix(7.6923313e-2,0,0,7.0591222e-2,302.61531,175.04077)" gradientUnits="userSpaceOnUse" xlink:href="#linearGradient5687"/><linearGradient id="linearGradient2711"><stop id="stop2713" offset="0" stop-color="#3465a4" stop-opacity="1"/><stop id="stop2715" offset="1" stop-color="#204a87" stop-opacity="1"/></linearGradient><radialGradient id="radialGradient7478" cx="24.006" cy="37.922" r="19" fx="24.006" fy="37.922" gradientTransform="matrix(1.1011252,0,0,0.4728361,287.58732,172.07816)" gradientUnits="userSpaceOnUse" xlink:href="#linearGradient2711"/><linearGradient id="linearGradient5538"><stop id="stop5540" offset="0" stop-color="#555753" stop-opacity="1"/><stop id="stop5542" offset="1" stop-color="#babdb6" stop-opacity="1"/></linearGradient><linearGradient id="linearGradient7476" x1="315.04" x2="291.661" y1="89.237" y2="45.184" gradientTransform="matrix(0.4667846,0,0,0.4669448,164.62624,152.04321)" gradientUnits="userSpaceOnUse" xlink:href="#linearGradient5538"/><linearGradient id="linearGradient4654"><stop id="stop4656" offset="0" stop-color="#eeeeec" stop-opacity="1"/><stop id="stop4658" offset="1" stop-color="#babdb6" stop-opacity="1"/></linearGradient><radialGradient id="radialGradient7474" cx="314.31" cy="61.655" r="23" fx="314.31" fy="61.655" gradientTransform="matrix(0.525761,1.962839,-0.5015999,0.1344494,175.37799,-445.23546)" gradientUnits="userSpaceOnUse" xlink:href="#linearGradient4654"/><linearGradient id="linearGradient3380"><stop id="stop3382" offset="0" stop-color="#555753" stop-opacity="1"/><stop id="stop3410" offset=".479" stop-color="#babdb6" stop-opacity="1"/><stop id="stop3412" offset=".769" stop-color="#888a85" stop-opacity="1"/><stop id="stop3384" offset="1" stop-color="#555753" stop-opacity="1"/></linearGradient><linearGradient id="linearGradient7472" x1="336.563" x2="336.563" y1="192.875" y2="196.993" gradientTransform="translate(-20,0)" gradientUnits="userSpaceOnUse" xlink:href="#linearGradient3380"/><linearGradient id="linearGradient4693"><stop id="stop4695" offset="0" stop-color="#555753" stop-opacity="1"/><stop id="stop4701" offset=".301" stop-color="#babdb6" stop-opacity="1"/><stop id="stop3408" offset=".48" stop-color="#eeeeec" stop-opacity="1"/><stop id="stop4699" offset=".643" stop-color="#fff" stop-opacity="1"/><stop id="stop4697" offset="1" stop-color="#555753" stop-opacity="1"/></linearGradient><linearGradient id="linearGradient7470" x1="333.563" x2="333.563" y1="192.913" y2="196.265" gradientTransform="translate(-20,0)" gradientUnits="userSpaceOnUse" xlink:href="#linearGradient4693"/><filter id="filter6655" width="1.122" height="2.339" x="-.061" y="-.669"><feGaussianBlur id="feGaussianBlur6657" stdDeviation="1.168"/></filter><filter id="filter4768" width="1.228" height="2.135" x="-.114" y="-.568"><feGaussianBlur id="feGaussianBlur4770" stdDeviation=".946"/></filter><linearGradient id="linearGradient4772"><stop id="stop4774" offset="0" stop-color="#000" stop-opacity="1"/><stop id="stop4776" offset="1" stop-color="#000" stop-opacity="0"/></linearGradient><linearGradient id="linearGradient7468" x1="327.92" x2="327.92" y1="93.75" y2="88.849" gradientUnits="userSpaceOnUse" xlink:href="#linearGradient4772"/><linearGradient id="linearGradient3847"><stop id="stop3849" offset="0" stop-color="#babdb6" stop-opacity="1"/><stop id="stop3851" offset="1" stop-color="#babdb6" stop-opacity="0"/></linearGradient><linearGradient id="linearGradient7466" x1="328.628" x2="327.479" y1="74.433" y2="67.362" gradientTransform="matrix(0.6443737,0,0,0.9724074,143.7467,121.28233)" gradientUnits="userSpaceOnUse" xlink:href="#linearGradient3847"/></defs><metadata id="metadata7525"/><g id="layer1"><g id="g7396" display="inline" transform="translate(-333.99986,-175)"><path id="path7398" fill="none" fill-opacity="1" fill-rule="evenodd" stroke="url(#linearGradient7466)" stroke-dasharray="none" stroke-linecap="butt" stroke-linejoin="miter" stroke-miterlimit="4" stroke-opacity="1" stroke-width="1" d="M 357.94102,195.70409 C 358.5427,193.22259 364.5,195.61467 364.5,193.86735 C 364.5,191.06091 351.04873,193.94925 350.70587,192.03063" display="inline" enable-background="new"/><g id="g7400" display="inline" transform="translate(40,-3)"><path id="path7402" fill="url(#linearGradient7468)" fill-opacity="1" stroke="none" stroke-dashoffset=".5" stroke-linecap="round" stroke-linejoin="round" stroke-miterlimit="4" stroke-opacity="1" stroke-width="1" d="M 316.05693,91 L 323.83253,91 L 329.21687,95 L 310.62455,95 L 316.05693,91 z" display="inline" enable-background="new" filter="url(#filter4768)" opacity=".526" transform="matrix(0.666447,0,0,0.741913,100.76278,126.5244)"/><rect id="rect7404" width="46" height="4.188" x="297" y="90.813" fill="#2e3436" fill-opacity="1" fill-rule="nonzero" stroke="none" stroke-dasharray="none" stroke-dashoffset="0" stroke-linecap="round" stroke-linejoin="miter" stroke-miterlimit="4" stroke-opacity="1" stroke-width="1" marker-end="none" marker-mid="none" marker-start="none" display="inline" enable-background="accumulate" filter="url(#filter6655)" opacity=".06" overflow="visible" rx="1.581" ry="1.439" transform="matrix(0.4293482,0,0,0.4328354,176.60856,156.63063)" visibility="visible" style="marker:none"/></g><g id="g7406" display="inline" transform="translate(40,-3)"><path id="path7408" fill="url(#linearGradient7470)" fill-opacity="1" stroke="url(#linearGradient7472)" stroke-dashoffset="0" stroke-linecap="square" stroke-linejoin="round" stroke-miterlimit="4" stroke-opacity="1" stroke-width="1" d="M 311.90625,190.5 C 311.65546,190.58765 311.49085,190.82824 311.5,191.09375 L 311.5,194.90625 C 311.49973,194.91666 311.49973,194.92709 311.5,194.9375 L 310.34375,195.65625 C 310.11972,195.76524 309.9231,195.832 309.75,196 C 309.71672,196.0323 309.63787,196.09535 309.5625,196.25 C 309.48713,196.40465 309.5,196.55668 309.5,196.65625 C 309.5,196.65625 309.5,197.53125 309.5,197.53125 L 318.5,197.53125 C 318.5,197.53125 318.5,196.65625 318.5,196.65625 C 318.5,196.55668 318.51287,196.40465 318.4375,196.25 C 318.36213,196.09535 318.28328,196.0323 318.25,196 C 318.0769,195.832 317.88028,195.76524 317.65625,195.65625 L 316.5,194.9375 L 316.5,191.09375 C 316.49307,190.76875 316.23125,190.50693 315.90625,190.5 L 312.09375,190.5 C 312.03163,190.49029 311.96837,190.49029 311.90625,190.5 z" transform="translate(0,-1)"/><path id="path7410" fill="none" fill-opacity="1" stroke="#fff" stroke-dasharray="none" stroke-dashoffset="0" stroke-linecap="square" stroke-linejoin="round" stroke-miterlimit="4" stroke-opacity="1" stroke-width="1" d="M 312.5625,191.5625 L 312.5625,194.9375 C 312.56834,195.348 312.33719,195.72515 311.96875,195.90625 L 310.8125,196.46875 L 317.1875,196.46875 L 316.03125,195.90625 C 315.66281,195.72515 315.43166,195.348 315.4375,194.9375 L 315.4375,191.5625 L 312.5625,191.5625 z" display="inline" enable-background="new" opacity=".196" transform="translate(0,-1)"/><rect id="rect7412" width="8" height="1" x="310" y="195" fill="#eeeeec" fill-opacity="1" stroke="none" stroke-dasharray="none" stroke-dashoffset=".5" stroke-linecap="round" stroke-linejoin="round" stroke-miterlimit="4" stroke-opacity="1" stroke-width="1" display="inline" enable-background="new" rx=".5" ry=".5"/><path id="path7414" fill="#f9f9f9" fill-opacity="1" stroke="none" stroke-dasharray="none" stroke-dashoffset="0" stroke-linecap="square" stroke-linejoin="round" stroke-miterlimit="4" stroke-opacity="1" stroke-width="1" d="M 311.08279,195.50287 A 0.50823301,0.55242717 0 1 1 310.06632,195.50287 A 0.50823301,0.55242717 0 1 1 311.08279,195.50287 z" opacity="1" transform="matrix(1.2446752,0,0,1.1450853,-76.064424,-28.367455)"/><path id="path7416" fill="#f9f9f9" fill-opacity="1" stroke="none" stroke-dasharray="none" stroke-dashoffset="0" stroke-linecap="square" stroke-linejoin="round" stroke-miterlimit="4" stroke-opacity="1" stroke-width="1" d="M 311.08279,195.50287 A 0.50823301,0.55242717 0 1 1 310.06632,195.50287 A 0.50823301,0.55242717 0 1 1 311.08279,195.50287 z" display="inline" enable-background="new" opacity="1" transform="matrix(1.2446752,0,0,1.1450853,-69.064424,-28.367455)"/></g><g id="g7418" display="inline" transform="matrix(0.9065634,0,0,0.857135,69.361684,25.358572)"><rect id="rect7420" width="21.005" height="14" x="303.495" y="177.5" fill="url(#radialGradient7474)" fill-opacity="1" stroke="url(#linearGradient7476)" stroke-dasharray="none" stroke-dashoffset=".5" stroke-linecap="round" stroke-linejoin="round" stroke-miterlimit="4" stroke-opacity="1" stroke-width="1.134" display="inline" enable-background="new" rx=".496" ry=".496"/><rect id="rect7422" width="18.709" height="11.667" x="304.646" y="178.667" fill="none" fill-opacity="1" stroke="#fff" stroke-dasharray="none" stroke-dashoffset=".5" stroke-linecap="round" stroke-linejoin="round" stroke-miterlimit="4" stroke-opacity="1" stroke-width="1.134" display="inline" enable-background="new" opacity=".15" rx="0" ry="0"/></g><g id="g7424" display="inline" transform="matrix(0.8807362,0,0,0.7941824,77.430373,36.999487)"><g id="g7426"><rect id="rect7428" width="17.042" height="10" x="305.5" y="179.5" fill="url(#radialGradient7478)" fill-opacity="1" fill-rule="evenodd" stroke="#204a87" stroke-linecap="butt" stroke-linejoin="miter" stroke-opacity="1" stroke-width="1.196" display="inline" enable-background="new"/><rect id="rect7430" width="16" height="8.753" x="306" y="180.123" fill="url(#linearGradient7480)" fill-opacity="1" fill-rule="evenodd" stroke="none" stroke-linecap="butt" stroke-linejoin="miter" stroke-opacity="1" stroke-width=".198" display="inline" enable-background="new" opacity=".15"/></g><g id="g7432"><path id="path7434" fill="url(#radialGradient7482)" fill-opacity="1" stroke="none" stroke-dashoffset=".5" stroke-linecap="round" stroke-linejoin="round" stroke-miterlimit="4" stroke-opacity="1" stroke-width="1" d="M 317.45292,180.14436 L 322,180.14436 L 322,190 L 311.99643,190 L 317.45292,180.14436 z" display="inline" enable-background="new" opacity=".356"/><path id="path7436" fill="url(#radialGradient7484)" fill-opacity="1" stroke="none" d="M 311.76717,180.12334 L 314.59738,180.12334 L 311.4688,187.32855 L 310.07798,187.24763 L 311.76717,180.12338 L 311.76717,180.12334 z" display="inline" enable-background="new" opacity=".389"/></g></g><g id="g7438" transform="translate(10,0)"><path id="path7440" fill="url(#linearGradient7486)" fill-opacity="1" stroke="url(#linearGradient7488)" stroke-dasharray="none" stroke-dashoffset=".361" stroke-linecap="square" stroke-linejoin="miter" stroke-miterlimit="4" stroke-opacity="1" stroke-width="12.346" d="M 48.84375,375.8125 C 47.435282,375.95664 46.206014,376.78657 45.53125,378.03125 L 31.25,404.40625 C 30.914755,405.03876 30.73848,405.75988 30.75,406.46875 C 30.748746,406.39129 30.746329,406.41294 30.75,406.53125 L 30.75,409.46875 L 30.75,409.78125 C 30.745943,410.21651 30.87696,410.64231 31.125,411 C 31.201261,411.21987 31.198308,411.38181 31.34375,411.625 C 32.103454,412.89529 33.491398,413.67922 35,413.6875 L 255.84375,413.6875 C 257.35566,413.69094 258.75604,412.9027 259.53125,411.59375 C 259.86135,411.03642 259.96546,410.51837 260.03125,410.125 C 260.14476,409.44634 260.125,408.96875 260.125,408.96875 C 260.12531,408.94792 260.12531,408.92708 260.125,408.90625 L 260.125,406.8125 C 260.125,406.21586 260.11907,405.29688 259.59375,404.34375 L 244.75,377.96875 C 244.73958,377.96867 244.72917,377.96867 244.71875,377.96875 C 243.94931,376.62222 242.5196,375.79723 240.96875,375.8125 L 49.375,375.8125 C 49.341697,375.81082 49.314423,375.81341 49.28125,375.8125 C 49.170672,375.80948 49.079762,375.80688 48.96875,375.8125 C 48.927093,375.81126 48.885407,375.81126 48.84375,375.8125 z" display="inline" enable-background="new" transform="matrix(8.2832523e-2,0,0,7.9200815e-2,331.95307,165.73561)"/><path id="path7442" fill="url(#linearGradient7490)" fill-opacity="1" fill-rule="evenodd" stroke="none" stroke-linecap="butt" stroke-linejoin="miter" stroke-opacity="1" stroke-width="1" d="M 337.44515,195 L 336.53707,197 L 346.24566,196.9975 L 345.98913,195 L 337.44515,195 z M 346.43296,195 L 346.57372,196.01298 L 348.47162,196.01298 L 348.20601,195 L 346.43296,195 z M 348.65041,195.31959 L 349.15894,196.9975 L 351.60225,196.9975 L 350.8213,195.31959 L 348.65041,195.31959 z M 346.70084,196.50425 L 346.76441,196.9975 L 348.75993,196.9975 L 348.63507,196.50425 L 346.70084,196.50425 z" display="inline" enable-background="new"/><g id="g7444" fill="url(#linearGradient7512)" fill-opacity="1" display="inline" transform="translate(30.13815,2.90019)"><rect id="rect7446" width="1" height="1" x="307" y="193" fill="url(#linearGradient7492)" fill-opacity="1" stroke="none" stroke-dasharray="none" stroke-dashoffset=".361" stroke-linecap="round" stroke-linejoin="round" stroke-miterlimit="4" stroke-opacity="1" stroke-width="1" display="inline" enable-background="new" opacity=".554" rx=".281" ry=".281"/><rect id="rect7448" width="1" height="1" x="308" y="192" fill="url(#linearGradient7494)" fill-opacity="1" stroke="none" stroke-dasharray="none" stroke-dashoffset=".361" stroke-linecap="round" stroke-linejoin="round" stroke-miterlimit="4" stroke-opacity="1" stroke-width="1" display="inline" enable-background="new" opacity=".554" rx=".281" ry=".281"/><rect id="rect7450" width="1" height="1" x="310" y="192" fill="url(#linearGradient7496)" fill-opacity="1" stroke="none" stroke-dasharray="none" stroke-dashoffset=".361" stroke-linecap="round" stroke-linejoin="round" stroke-miterlimit="4" stroke-opacity="1" stroke-width="1" display="inline" enable-background="new" opacity=".554" rx=".281" ry=".281"/><rect id="rect7452" width="1" height="1" x="312" y="192" fill="url(#linearGradient7498)" fill-opacity="1" stroke="none" stroke-dasharray="none" stroke-dashoffset=".361" stroke-linecap="round" stroke-linejoin="round" stroke-miterlimit="4" stroke-opacity="1" stroke-width="1" display="inline" enable-background="new" opacity=".554" rx=".281" ry=".281"/><rect id="rect7454" width="1" height="1" x="315" y="193" fill="url(#linearGradient7500)" fill-opacity="1" stroke="none" stroke-dasharray="none" stroke-dashoffset=".361" stroke-linecap="round" stroke-linejoin="round" stroke-miterlimit="4" stroke-opacity="1" stroke-width="1" display="inline" enable-background="new" opacity=".554" rx=".281" ry=".281"/><rect id="rect7456" width="1" height="1" x="314" y="192" fill="url(#linearGradient7502)" fill-opacity="1" stroke="none" stroke-dasharray="none" stroke-dashoffset=".361" stroke-linecap="round" stroke-linejoin="round" stroke-miterlimit="4" stroke-opacity="1" stroke-width="1" display="inline" enable-background="new" opacity=".554" rx=".281" ry=".281"/><rect id="rect7458" width="1" height="1" x="317" y="192" fill="url(#linearGradient7504)" fill-opacity="1" stroke="none" stroke-dasharray="none" stroke-dashoffset=".361" stroke-linecap="round" stroke-linejoin="round" stroke-miterlimit="4" stroke-opacity="1" stroke-width="1" display="inline" enable-background="new" opacity=".554" rx=".281" ry=".281"/><rect id="rect7460" width="1" height="1" x="319" y="193" fill="url(#linearGradient7506)" fill-opacity="1" stroke="none" stroke-dasharray="none" stroke-dashoffset=".361" stroke-linecap="round" stroke-linejoin="round" stroke-miterlimit="4" stroke-opacity="1" stroke-width="1" display="inline" enable-background="new" opacity=".554" rx=".281" ry=".281"/><rect id="rect7462" width="1" height="1" x="320" y="192" fill="url(#linearGradient7508)" fill-opacity="1" stroke="none" stroke-dasharray="none" stroke-dashoffset=".361" stroke-linecap="round" stroke-linejoin="round" stroke-miterlimit="4" stroke-opacity="1" stroke-width="1" display="inline" enable-background="new" opacity=".554" rx=".281" ry=".281"/><rect id="rect7464" width="1" height="1" x="321" y="193" fill="url(#linearGradient7510)" fill-opacity="1" stroke="none" stroke-dasharray="none" stroke-dashoffset=".361" stroke-linecap="round" stroke-linejoin="round" stroke-miterlimit="4" stroke-opacity="1" stroke-width="1" display="inline" enable-background="new" opacity=".554" rx=".281" ry=".281"/></g></g></g><g id="g12317" display="inline" transform="translate(-341.99986,-168)"><path id="path12313" fill="none" fill-opacity="1" fill-rule="evenodd" stroke="url(#linearGradient3356)" stroke-dasharray="none" stroke-linecap="butt" stroke-linejoin="miter" stroke-miterlimit="4" stroke-opacity="1" stroke-width="1" d="M 357.94102,195.70409 C 358.5427,193.22259 364.5,195.61467 364.5,193.86735 C 364.5,191.06091 351.04873,193.94925 350.70587,192.03063" display="inline" enable-background="new"/><g id="g10916" display="inline" transform="translate(40,-3)"><path id="path10918" fill="url(#linearGradient3358)" fill-opacity="1" stroke="none" stroke-dashoffset=".5" stroke-linecap="round" stroke-linejoin="round" stroke-miterlimit="4" stroke-opacity="1" stroke-width="1" d="M 316.05693,91 L 323.83253,91 L 329.21687,95 L 310.62455,95 L 316.05693,91 z" display="inline" enable-background="new" filter="url(#filter4768)" opacity=".526" transform="matrix(0.666447,0,0,0.741913,100.76278,126.5244)"/><rect id="rect10920" width="46" height="4.188" x="297" y="90.813" fill="#2e3436" fill-opacity="1" fill-rule="nonzero" stroke="none" stroke-dasharray="none" stroke-dashoffset="0" stroke-linecap="round" stroke-linejoin="miter" stroke-miterlimit="4" stroke-opacity="1" stroke-width="1" marker-end="none" marker-mid="none" marker-start="none" display="inline" enable-background="accumulate" filter="url(#filter6655)" opacity=".06" overflow="visible" rx="1.581" ry="1.439" transform="matrix(0.4293482,0,0,0.4328354,176.60856,156.63063)" visibility="visible" style="marker:none"/></g><g id="g10922" display="inline" transform="translate(40,-3)"><path id="path10924" fill="url(#linearGradient3360)" fill-opacity="1" stroke="url(#linearGradient3362)" stroke-dashoffset="0" stroke-linecap="square" stroke-linejoin="round" stroke-miterlimit="4" stroke-opacity="1" stroke-width="1" d="M 311.90625,190.5 C 311.65546,190.58765 311.49085,190.82824 311.5,191.09375 L 311.5,194.90625 C 311.49973,194.91666 311.49973,194.92709 311.5,194.9375 L 310.34375,195.65625 C 310.11972,195.76524 309.9231,195.832 309.75,196 C 309.71672,196.0323 309.63787,196.09535 309.5625,196.25 C 309.48713,196.40465 309.5,196.55668 309.5,196.65625 C 309.5,196.65625 309.5,197.53125 309.5,197.53125 L 318.5,197.53125 C 318.5,197.53125 318.5,196.65625 318.5,196.65625 C 318.5,196.55668 318.51287,196.40465 318.4375,196.25 C 318.36213,196.09535 318.28328,196.0323 318.25,196 C 318.0769,195.832 317.88028,195.76524 317.65625,195.65625 L 316.5,194.9375 L 316.5,191.09375 C 316.49307,190.76875 316.23125,190.50693 315.90625,190.5 L 312.09375,190.5 C 312.03163,190.49029 311.96837,190.49029 311.90625,190.5 z" transform="translate(0,-1)"/><path id="path10926" fill="none" fill-opacity="1" stroke="#fff" stroke-dasharray="none" stroke-dashoffset="0" stroke-linecap="square" stroke-linejoin="round" stroke-miterlimit="4" stroke-opacity="1" stroke-width="1" d="M 312.5625,191.5625 L 312.5625,194.9375 C 312.56834,195.348 312.33719,195.72515 311.96875,195.90625 L 310.8125,196.46875 L 317.1875,196.46875 L 316.03125,195.90625 C 315.66281,195.72515 315.43166,195.348 315.4375,194.9375 L 315.4375,191.5625 L 312.5625,191.5625 z" display="inline" enable-background="new" opacity=".196" transform="translate(0,-1)"/><rect id="rect10928" width="8" height="1" x="310" y="195" fill="#eeeeec" fill-opacity="1" stroke="none" stroke-dasharray="none" stroke-dashoffset=".5" stroke-linecap="round" stroke-linejoin="round" stroke-miterlimit="4" stroke-opacity="1" stroke-width="1" display="inline" enable-background="new" rx=".5" ry=".5"/><path id="path10930" fill="#f9f9f9" fill-opacity="1" stroke="none" stroke-dasharray="none" stroke-dashoffset="0" stroke-linecap="square" stroke-linejoin="round" stroke-miterlimit="4" stroke-opacity="1" stroke-width="1" d="M 311.08279,195.50287 A 0.50823301,0.55242717 0 1 1 310.06632,195.50287 A 0.50823301,0.55242717 0 1 1 311.08279,195.50287 z" opacity="1" transform="matrix(1.2446752,0,0,1.1450853,-76.064424,-28.367455)"/><path id="path10932" fill="#f9f9f9" fill-opacity="1" stroke="none" stroke-dasharray="none" stroke-dashoffset="0" stroke-linecap="square" stroke-linejoin="round" stroke-miterlimit="4" stroke-opacity="1" stroke-width="1" d="M 311.08279,195.50287 A 0.50823301,0.55242717 0 1 1 310.06632,195.50287 A 0.50823301,0.55242717 0 1 1 311.08279,195.50287 z" display="inline" enable-background="new" opacity="1" transform="matrix(1.2446752,0,0,1.1450853,-69.064424,-28.367455)"/></g><g id="g10934" display="inline" transform="matrix(0.9065634,0,0,0.857135,69.361684,25.358572)"><rect id="rect10936" width="21.005" height="14" x="303.495" y="177.5" fill="url(#radialGradient3364)" fill-opacity="1" stroke="url(#linearGradient3366)" stroke-dasharray="none" stroke-dashoffset=".5" stroke-linecap="round" stroke-linejoin="round" stroke-miterlimit="4" stroke-opacity="1" stroke-width="1.134" display="inline" enable-background="new" rx=".496" ry=".496"/><rect id="rect10938" width="18.709" height="11.667" x="304.646" y="178.667" fill="none" fill-opacity="1" stroke="#fff" stroke-dasharray="none" stroke-dashoffset=".5" stroke-linecap="round" stroke-linejoin="round" stroke-miterlimit="4" stroke-opacity="1" stroke-width="1.134" display="inline" enable-background="new" opacity=".15" rx="0" ry="0"/></g><g id="g10940" display="inline" transform="matrix(0.8807362,0,0,0.7941824,77.430373,36.999487)"><g id="g10942"><rect id="rect10944" width="17.042" height="10" x="305.5" y="179.5" fill="url(#radialGradient3368)" fill-opacity="1" fill-rule="evenodd" stroke="#3465a4" stroke-linecap="butt" stroke-linejoin="miter" stroke-opacity="1" stroke-width="1.196" display="inline" enable-background="new"/><rect id="rect10946" width="16" height="8.753" x="306" y="180.123" fill="url(#linearGradient3370)" fill-opacity="1" fill-rule="evenodd" stroke="none" stroke-linecap="butt" stroke-linejoin="miter" stroke-opacity="1" stroke-width=".198" display="inline" enable-background="new" opacity=".15"/></g><g id="g10948"><path id="path10950" fill="url(#radialGradient3372)" fill-opacity="1" stroke="none" stroke-dashoffset=".5" stroke-linecap="round" stroke-linejoin="round" stroke-miterlimit="4" stroke-opacity="1" stroke-width="1" d="M 317.45292,180.14436 L 322,180.14436 L 322,190 L 311.99643,190 L 317.45292,180.14436 z" display="inline" enable-background="new" opacity=".356"/><path id="path10952" fill="url(#radialGradient3374)" fill-opacity="1" stroke="none" d="M 311.76717,180.12334 L 314.59738,180.12334 L 311.4688,187.32855 L 310.07798,187.24763 L 311.76717,180.12338 L 311.76717,180.12334 z" display="inline" enable-background="new" opacity=".389"/></g></g><g id="g11303" transform="translate(10,0)"><path id="path10956" fill="url(#linearGradient3376)" fill-opacity="1" stroke="url(#linearGradient3378)" stroke-dasharray="none" stroke-dashoffset=".361" stroke-linecap="square" stroke-linejoin="miter" stroke-miterlimit="4" stroke-opacity="1" stroke-width="12.346" d="M 48.84375,375.8125 C 47.435282,375.95664 46.206014,376.78657 45.53125,378.03125 L 31.25,404.40625 C 30.914755,405.03876 30.73848,405.75988 30.75,406.46875 C 30.748746,406.39129 30.746329,406.41294 30.75,406.53125 L 30.75,409.46875 L 30.75,409.78125 C 30.745943,410.21651 30.87696,410.64231 31.125,411 C 31.201261,411.21987 31.198308,411.38181 31.34375,411.625 C 32.103454,412.89529 33.491398,413.67922 35,413.6875 L 255.84375,413.6875 C 257.35566,413.69094 258.75604,412.9027 259.53125,411.59375 C 259.86135,411.03642 259.96546,410.51837 260.03125,410.125 C 260.14476,409.44634 260.125,408.96875 260.125,408.96875 C 260.12531,408.94792 260.12531,408.92708 260.125,408.90625 L 260.125,406.8125 C 260.125,406.21586 260.11907,405.29688 259.59375,404.34375 L 244.75,377.96875 C 244.73958,377.96867 244.72917,377.96867 244.71875,377.96875 C 243.94931,376.62222 242.5196,375.79723 240.96875,375.8125 L 49.375,375.8125 C 49.341697,375.81082 49.314423,375.81341 49.28125,375.8125 C 49.170672,375.80948 49.079762,375.80688 48.96875,375.8125 C 48.927093,375.81126 48.885407,375.81126 48.84375,375.8125 z" display="inline" enable-background="new" transform="matrix(8.2832523e-2,0,0,7.9200815e-2,331.95307,165.73561)"/><path id="path10970" fill="url(#linearGradient3381)" fill-opacity="1" fill-rule="evenodd" stroke="none" stroke-linecap="butt" stroke-linejoin="miter" stroke-opacity="1" stroke-width="1" d="M 337.44515,195 L 336.53707,197 L 346.24566,196.9975 L 345.98913,195 L 337.44515,195 z M 346.43296,195 L 346.57372,196.01298 L 348.47162,196.01298 L 348.20601,195 L 346.43296,195 z M 348.65041,195.31959 L 349.15894,196.9975 L 351.60225,196.9975 L 350.8213,195.31959 L 348.65041,195.31959 z M 346.70084,196.50425 L 346.76441,196.9975 L 348.75993,196.9975 L 348.63507,196.50425 L 346.70084,196.50425 z" display="inline" enable-background="new"/><g id="g10972" fill="url(#linearGradient3403)" fill-opacity="1" display="inline" transform="translate(30.13815,2.90019)"><rect id="rect10976" width="1" height="1" x="307" y="193" fill="url(#linearGradient3383)" fill-opacity="1" stroke="none" stroke-dasharray="none" stroke-dashoffset=".361" stroke-linecap="round" stroke-linejoin="round" stroke-miterlimit="4" stroke-opacity="1" stroke-width="1" display="inline" enable-background="new" opacity=".554" rx=".281" ry=".281"/><rect id="rect10980" width="1" height="1" x="308" y="192" fill="url(#linearGradient3385)" fill-opacity="1" stroke="none" stroke-dasharray="none" stroke-dashoffset=".361" stroke-linecap="round" stroke-linejoin="round" stroke-miterlimit="4" stroke-opacity="1" stroke-width="1" display="inline" enable-background="new" opacity=".554" rx=".281" ry=".281"/><rect id="rect10986" width="1" height="1" x="310" y="192" fill="url(#linearGradient3387)" fill-opacity="1" stroke="none" stroke-dasharray="none" stroke-dashoffset=".361" stroke-linecap="round" stroke-linejoin="round" stroke-miterlimit="4" stroke-opacity="1" stroke-width="1" display="inline" enable-background="new" opacity=".554" rx=".281" ry=".281"/><rect id="rect10988" width="1" height="1" x="312" y="192" fill="url(#linearGradient3389)" fill-opacity="1" stroke="none" stroke-dasharray="none" stroke-dashoffset=".361" stroke-linecap="round" stroke-linejoin="round" stroke-miterlimit="4" stroke-opacity="1" stroke-width="1" display="inline" enable-background="new" opacity=".554" rx=".281" ry=".281"/><rect id="rect10994" width="1" height="1" x="315" y="193" fill="url(#linearGradient3391)" fill-opacity="1" stroke="none" stroke-dasharray="none" stroke-dashoffset=".361" stroke-linecap="round" stroke-linejoin="round" stroke-miterlimit="4" stroke-opacity="1" stroke-width="1" display="inline" enable-background="new" opacity=".554" rx=".281" ry=".281"/><rect id="rect10996" width="1" height="1" x="314" y="192" fill="url(#linearGradient3393)" fill-opacity="1" stroke="none" stroke-dasharray="none" stroke-dashoffset=".361" stroke-linecap="round" stroke-linejoin="round" stroke-miterlimit="4" stroke-opacity="1" stroke-width="1" display="inline" enable-background="new" opacity=".554" rx=".281" ry=".281"/><rect id="rect10998" width="1" height="1" x="317" y="192" fill="url(#linearGradient3395)" fill-opacity="1" stroke="none" stroke-dasharray="none" stroke-dashoffset=".361" stroke-linecap="round" stroke-linejoin="round" stroke-miterlimit="4" stroke-opacity="1" stroke-width="1" display="inline" enable-background="new" opacity=".554" rx=".281" ry=".281"/><rect id="rect11000" width="1" height="1" x="319" y="193" fill="url(#linearGradient3397)" fill-opacity="1" stroke="none" stroke-dasharray="none" stroke-dashoffset=".361" stroke-linecap="round" stroke-linejoin="round" stroke-miterlimit="4" stroke-opacity="1" stroke-width="1" display="inline" enable-background="new" opacity=".554" rx=".281" ry=".281"/><rect id="rect11002" width="1" height="1" x="320" y="192" fill="url(#linearGradient3399)" fill-opacity="1" stroke="none" stroke-dasharray="none" stroke-dashoffset=".361" stroke-linecap="round" stroke-linejoin="round" stroke-miterlimit="4" stroke-opacity="1" stroke-width="1" display="inline" enable-background="new" opacity=".554" rx=".281" ry=".281"/><rect id="rect11004" width="1" height="1" x="321" y="193" fill="url(#linearGradient3401)" fill-opacity="1" stroke="none" stroke-dasharray="none" stroke-dashoffset=".361" stroke-linecap="round" stroke-linejoin="round" stroke-miterlimit="4" stroke-opacity="1" stroke-width="1" display="inline" enable-background="new" opacity=".554" rx=".281" ry=".281"/></g></g></g></g></svg>