<svg xmlns="http://www.w3.org/2000/svg" xmlns:svg="http://www.w3.org/2000/svg" xmlns:xlink="http://www.w3.org/1999/xlink" id="svg7261" width="22" height="22" version="1.0"><defs id="defs7263"><radialGradient id="radialGradient6400" cx="14.791" cy="29.861" r="1.14" fx="14.791" fy="29.861" gradientTransform="matrix(5.4554381,0,0,1.8025292,-65.200601,-42.882923)" gradientUnits="userSpaceOnUse" xlink:href="#linearGradient6377"/><radialGradient id="radialGradient6392" cx="17.798" cy="29.949" r="1.945" fx="17.798" fy="29.949" gradientTransform="matrix(4.9006452,0,0,2.5297048,-68.725284,-64.731773)" gradientUnits="userSpaceOnUse" xlink:href="#linearGradient6377"/><linearGradient id="linearGradient6377"><stop id="stop6379" offset="0" stop-color="#729fcf" stop-opacity="1"/><stop id="stop6381" offset="1" stop-color="#204a87" stop-opacity="1"/></linearGradient><radialGradient id="radialGradient6383" cx="20.819" cy="29.949" r="2.545" fx="20.819" fy="29.949" gradientTransform="matrix(7.422877,0,0,3.1662643,-132.99004,-83.827411)" gradientUnits="userSpaceOnUse" xlink:href="#linearGradient6377"/><linearGradient id="linearGradient9132" x1="21.875" x2="20.5" y1="9.634" y2="41.745" gradientTransform="matrix(0.9980941,0,0,0.588451,-10.922197,-2.2401173)" gradientUnits="userSpaceOnUse" xlink:href="#linearGradient5254"/><linearGradient id="linearGradient9130" x1="20.087" x2="20.919" y1="6.663" y2="38.337" gradientTransform="matrix(0.9980941,0,0,0.588451,-10.922197,-2.2401173)" gradientUnits="userSpaceOnUse" xlink:href="#linearGradient10055"/><linearGradient id="linearGradient9137" x1="4.596" x2="4.596" y1="14.457" y2="30.314" gradientTransform="matrix(0.3291379,0,0,0.4976781,1.0261926,0.3367537)" gradientUnits="userSpaceOnUse" xlink:href="#linearGradient5254"/><linearGradient id="linearGradient10047" x1="2.685" x2="2.925" y1="24.368" y2="35.054" gradientTransform="matrix(0.8518238,0,0,0.8132858,1.0032967,-12.628835)" gradientUnits="userSpaceOnUse" xlink:href="#linearGradient10055"/><linearGradient id="linearGradient21582"><stop id="stop21584" offset="0" stop-color="#000" stop-opacity="1"/><stop id="stop21586" offset="1" stop-color="#000" stop-opacity="0"/></linearGradient><linearGradient id="linearGradient9140" x1="21.875" x2="18.188" y1="26.625" y2="26" gradientTransform="matrix(0.486786,0,0,0.605421,0.3255103,-2.5995773)" gradientUnits="userSpaceOnUse" xlink:href="#linearGradient21582"/><linearGradient id="linearGradient21598"><stop id="stop21600" offset="0" stop-color="#fff" stop-opacity="1"/><stop id="stop21602" offset="1" stop-color="#fff" stop-opacity="0"/></linearGradient><linearGradient id="linearGradient9143" x1="12.25" x2="10.875" y1="19.75" y2="33.125" gradientTransform="matrix(0.3772727,0,0,0.4726962,1.3435993,0.3643447)" gradientUnits="userSpaceOnUse" xlink:href="#linearGradient21598"/><linearGradient id="linearGradient10055"><stop id="stop10057" offset="0" stop-color="#bebebe" stop-opacity="1"/><stop id="stop10061" offset=".375" stop-color="#e8e8e8" stop-opacity="1"/><stop id="stop10059" offset="1" stop-color="#5c5c5c" stop-opacity="1"/></linearGradient><radialGradient id="radialGradient9097" cx="7.001" cy="22.47" r="6.494" fx="7.001" fy="22.47" gradientTransform="matrix(1.433087,-0.596698,0.798238,1.917124,-20.96864,-16.43019)" gradientUnits="userSpaceOnUse" xlink:href="#linearGradient10055"/><linearGradient id="linearGradient10872"><stop id="stop10874" offset="0" stop-color="#888a85" stop-opacity="1"/><stop id="stop10876" offset=".253" stop-color="#9e9e92" stop-opacity="1"/><stop id="stop10878" offset="1" stop-color="#555753" stop-opacity="1"/></linearGradient><linearGradient id="linearGradient9147" x1="3.889" x2="3.889" y1="18.937" y2="25.947" gradientTransform="matrix(0.486786,0,0,0.4901302,0.2834214,0.4326337)" gradientUnits="userSpaceOnUse" xlink:href="#linearGradient10872"/><linearGradient id="linearGradient5254"><stop id="stop5256" offset="0" stop-color="#707469" stop-opacity="1"/><stop id="stop5258" offset="1" stop-color="#2e3335" stop-opacity="1"/></linearGradient><linearGradient id="linearGradient9152" x1="11.875" x2="13.125" y1="20.375" y2="34.136" gradientTransform="matrix(0.4802046,0,0,0.5749477,-0.3015333,-1.9363083)" gradientUnits="userSpaceOnUse" xlink:href="#linearGradient5254"/><linearGradient id="linearGradient6371"><stop id="stop6373" offset="0" stop-color="#888a85" stop-opacity="1"/><stop id="stop6375" offset="1" stop-color="#d3d7cf" stop-opacity="1"/></linearGradient><linearGradient id="linearGradient9150" x1="14.241" x2="15.125" y1="26.997" y2="20.976" gradientTransform="matrix(0.4802046,0,0,0.5749477,-0.3015333,-1.9363083)" gradientUnits="userSpaceOnUse" xlink:href="#linearGradient6371"/><linearGradient id="linearGradient21608"><stop id="stop21610" offset="0" stop-color="#888a85" stop-opacity="1"/><stop id="stop21612" offset="1" stop-color="#2e3436" stop-opacity="1"/></linearGradient><linearGradient id="linearGradient9087" x1="23.273" x2="23.273" y1="18.525" y2="22.811" gradientUnits="userSpaceOnUse" xlink:href="#linearGradient21608"/><linearGradient id="linearGradient15341"><stop id="stop15343" offset="0" stop-color="#888a85" stop-opacity="1"/><stop id="stop15345" offset="1" stop-color="#555753" stop-opacity="1"/></linearGradient><radialGradient id="radialGradient9085" cx="22.624" cy="20.88" r="3.318" fx="22.624" fy="20.88" gradientUnits="userSpaceOnUse" xlink:href="#linearGradient15341"/><linearGradient id="linearGradient5625"><stop id="stop5627" offset="0" stop-color="#000" stop-opacity="1"/><stop id="stop5629" offset="1" stop-color="#000" stop-opacity="0"/></linearGradient><radialGradient id="radialGradient5631" cx="7.955" cy="19.437" r="6.452" fx="7.955" fy="19.437" gradientTransform="matrix(1,0,0,0.2876712,0,13.845354)" gradientUnits="userSpaceOnUse" xlink:href="#linearGradient5625"/></defs><metadata id="metadata7266"/><g id="layer1"><path id="path5623" fill="url(#radialGradient5631)" fill-opacity="1" stroke="none" stroke-dasharray="none" stroke-dashoffset="0" stroke-miterlimit="4" stroke-opacity="1" stroke-width="10" d="M 14.4073,19.436747 A 6.4523492,1.8561553 0 1 1 1.5026021,19.436747 A 6.4523492,1.8561553 0 1 1 14.4073,19.436747 z" opacity=".169" transform="matrix(1.0205479,0,0,1.0205479,-1.6214774,-0.4714263)"/><path id="path13559" fill="url(#radialGradient9085)" fill-opacity="1" stroke="url(#linearGradient9087)" stroke-dasharray="none" stroke-dashoffset="1.2" stroke-linecap="round" stroke-linejoin="round" stroke-miterlimit="4" stroke-opacity="1" stroke-width="1.746" d="M 23.6875,21.84375 A 2.84375,2.84375 0 1 1 18,21.84375 A 2.84375,2.84375 0 1 1 23.6875,21.84375 z" display="inline" transform="matrix(0.513534,0,0,0.638686,-0.3993187,-2.9512873)"/><path id="path1887" fill="url(#linearGradient9150)" fill-opacity="1" fill-rule="evenodd" stroke="url(#linearGradient9152)" stroke-dasharray="none" stroke-linecap="butt" stroke-linejoin="miter" stroke-miterlimit="4" stroke-opacity="1" stroke-width="1" d="M 9.0624643,3.5256947 C 8.3421568,6.6879024 5.4609277,6.1129584 3.300006,11.000007 C 5.4609277,15.887057 8.3421568,15.31211 9.0624643,18.474321 L 9.0624643,3.5256947 z" display="inline"/><rect id="rect1898" width="3.083" height="3.921" x="1.5" y="9.5" fill="url(#linearGradient9147)" fill-opacity="1" stroke="#555753" stroke-dasharray="none" stroke-dashoffset="1.2" stroke-linecap="round" stroke-linejoin="miter" stroke-miterlimit="4" stroke-opacity="1" stroke-width="1" display="inline" rx="1.156" ry="1.438"/><path id="path20685" fill="url(#radialGradient9097)" fill-opacity="1" fill-rule="evenodd" stroke="none" stroke-dasharray="none" stroke-linecap="butt" stroke-linejoin="miter" stroke-miterlimit="4" stroke-opacity="1" stroke-width="1.842" d="M 19.375,9 C 19.200644,9.0530225 19.06894,9.1967002 19.03125,9.375 C 18.327802,11.954311 16.604417,12.961638 14.34375,14.46875 C 12.083083,15.975862 9.3592888,17.942871 7.0625,22.28125 C 6.9953198,22.419346 6.9953198,22.580654 7.0625,22.71875 C 9.3592888,27.057129 12.083083,29.024138 14.34375,30.53125 C 16.604417,32.038362 18.327802,33.045689 19.03125,35.625 C 19.110592,35.845992 19.333006,35.982016 19.565879,35.951968 C 19.798752,35.92192 19.979353,35.733894 20,35.5 L 20,9.5 C 20.005,9.3425939 19.935556,9.1920293 19.812581,9.0936489 C 19.689605,8.9952685 19.527469,8.9605689 19.375,9 L 19.375,9 z" display="inline" opacity=".502" transform="matrix(0.486786,0,0,0.5192159,0.3255103,-0.6668213)"/><path id="path21595" fill="none" fill-opacity="1" fill-rule="evenodd" stroke="url(#linearGradient9143)" stroke-dasharray="none" stroke-linecap="butt" stroke-linejoin="miter" stroke-miterlimit="4" stroke-opacity="1" stroke-width="1" d="M 8.4230745,6.5279494 C 8.051254,7.0231344 7.5253174,7.5110114 7.0616484,7.8983064 C 6.2552724,8.5718624 5.3870505,9.2371454 4.5975821,11.000007 C 5.3870505,12.762869 6.2552724,13.494811 7.0616484,14.168366 C 7.5253174,14.555661 7.9749149,15.01021 8.3467355,15.505394 L 9.0777022,16.436015 L 9.0777022,5.5639994 L 8.4230745,6.5279494 z" display="inline" opacity=".633"/><path id="path19794" fill="url(#linearGradient9140)" fill-opacity="1" fill-rule="evenodd" stroke="none" stroke-dasharray="none" stroke-linecap="butt" stroke-linejoin="miter" stroke-miterlimit="4" stroke-opacity="1" stroke-width="1" d="M 9.7570037,2.8492007 C 9.6721294,2.8813027 9.6080178,2.9682867 9.5896703,3.0762327 C 9.3096069,4.3533977 8.6864533,4.9969657 7.8707049,5.6871094 L 7.8707049,16.357645 C 8.6864533,17.047787 9.3096069,17.691357 9.5896703,18.968522 C 9.6282935,19.102313 9.7349166,19.175906 9.848276,19.157715 C 9.9616351,19.139522 10.051194,19.034448 10.061245,18.892844 L 10.061245,3.1519097 C 10.063679,3.0566127 10.029835,2.9655187 9.9699728,2.9059587 C 9.91011,2.8463977 9.8312235,2.8253287 9.7570037,2.8492007 z" display="inline" opacity=".367"/><rect id="rect1881" width="1.975" height="7.963" x="2.507" y="7.553" fill="url(#linearGradient10047)" fill-opacity="1" stroke="url(#linearGradient9137)" stroke-dasharray="none" stroke-dashoffset="1.2" stroke-linecap="round" stroke-linejoin="miter" stroke-miterlimit="4" stroke-opacity="1" stroke-width="1" display="inline" rx=".386" ry=".537"/><rect id="rect1889" width="1.996" height="17.654" x="8.541" y="2.173" fill="url(#linearGradient9130)" fill-opacity="1" stroke="url(#linearGradient9132)" stroke-dasharray="none" stroke-dashoffset="1.2" stroke-linecap="round" stroke-linejoin="miter" stroke-miterlimit="4" stroke-opacity="1" stroke-width="1" display="inline" rx="1.129" ry=".588"/><path id="path21632" fill="none" fill-opacity="1" stroke="url(#radialGradient6392)" stroke-dasharray="none" stroke-dashoffset="1.2" stroke-linecap="round" stroke-linejoin="round" stroke-miterlimit="4" stroke-opacity="1" stroke-width="1" d="M 15.582364,16.480938 C 17.341545,15.177101 18.472656,13.176291 18.472656,10.923886 C 18.472656,8.7944764 17.467944,6.8830804 15.871393,5.5789344" display="inline"/><path id="path27920" fill="none" fill-opacity="1" stroke="url(#radialGradient6400)" stroke-dasharray="none" stroke-dashoffset="1.2" stroke-linecap="round" stroke-linejoin="round" stroke-miterlimit="4" stroke-opacity="1" stroke-width="1" d="M 14.192751,13.277539 C 14.973884,12.72306 15.472656,11.860435 15.472656,10.893066 C 15.472656,9.9776764 15.021243,9.1613144 14.311061,8.6059194" display="inline"/><path id="path4732" fill="#fff" fill-opacity="1" fill-rule="evenodd" stroke="none" stroke-linecap="butt" stroke-linejoin="miter" stroke-opacity="1" stroke-width="1" d="M 5.0316383,11.125012 L 8.0316383,9.5312624 L 8.0316383,7.0000124 L 4.9378883,10.531262 L 5.0316383,11.125012 z" opacity="1"/><path id="path5619" fill="#fff" fill-opacity="1" stroke="none" stroke-dasharray="none" stroke-dashoffset="0" stroke-miterlimit="4" stroke-opacity="1" stroke-width="10" d="M 4,10.50001 A 0.5,0.5 0 1 1 3,10.50001 A 0.5,0.5 0 1 1 4,10.50001 z" opacity="1" transform="translate(3.8828193e-4,2.7080031e-6)"/><path id="path5621" fill="#fff" fill-opacity="1" stroke="none" stroke-dasharray="none" stroke-dashoffset="0" stroke-miterlimit="4" stroke-opacity="1" stroke-width="10" d="M 10,4.5000095 A 0.5,0.5 0 1 1 9,4.5000095 A 0.5,0.5 0 1 1 10,4.5000095 z" opacity="1" transform="translate(3.8828193e-4,2.7080031e-6)"/></g></svg>