<svg xmlns="http://www.w3.org/2000/svg" xmlns:svg="http://www.w3.org/2000/svg" xmlns:xlink="http://www.w3.org/1999/xlink" id="svg7323" width="16" height="16"><defs id="defs7325"><linearGradient id="linearGradient5113"><stop id="stop5115" offset="0" stop-color="#fff" stop-opacity="1"/><stop id="stop5117" offset="1" stop-color="#fff" stop-opacity="0"/></linearGradient><linearGradient id="linearGradient5853" x1="58.749" x2="105.324" y1="2.048" y2="58.048" gradientTransform="matrix(0.353039,0,0,0.3392119,-20.131904,1.0785017)" gradientUnits="userSpaceOnUse" xlink:href="#linearGradient5113"/><linearGradient id="linearGradient3158"><stop id="stop3160" offset="0" stop-color="#a7cc5c" stop-opacity="1"/><stop id="stop3162" offset="1" stop-color="#789e2d" stop-opacity="1"/></linearGradient><linearGradient id="linearGradient3164" x1="8" x2="8" y1="2" y2="15" gradientTransform="translate(2.3597039e-4,1.0000217)" gradientUnits="userSpaceOnUse" xlink:href="#linearGradient3158"/><linearGradient id="linearGradient9229" x1="71.999" x2="71.999" y1="14.258" y2="19.958" gradientTransform="matrix(1.0033404,0,0,1,-8.2374684,8)" gradientUnits="userSpaceOnUse"><stop id="stop9231" offset=".004" stop-color="#feebd6" stop-opacity="0"/><stop id="stop9233" offset=".461" stop-color="#f5f5f5" stop-opacity=".53"/><stop id="stop9235" offset="1" stop-color="#f5f5f5" stop-opacity="0"/></linearGradient><linearGradient id="linearGradient10493" x1="7.238" x2="132.86" y1="36.005" y2="35.858" gradientTransform="matrix(0.1447824,0,0,0.942809,-1.3546499,-29.279266)" gradientUnits="userSpaceOnUse" xlink:href="#linearGradient9229"/><linearGradient id="linearGradient9239"><stop id="stop9241" offset="0" stop-color="#3465a4" stop-opacity="1"/><stop id="stop9243" offset="1" stop-color="#204a87" stop-opacity="1"/></linearGradient><linearGradient id="linearGradient9245" x1="9.066" x2="9.057" y1="2.836" y2="12.836" gradientTransform="translate(-5.806003e-2,0.1641577)" gradientUnits="userSpaceOnUse" xlink:href="#linearGradient9239"/><linearGradient id="linearGradient9247"><stop id="stop9249" offset="0" stop-color="#8fb3d9" stop-opacity="1"/><stop id="stop9251" offset="1" stop-color="#3465a4" stop-opacity="1"/></linearGradient><linearGradient id="linearGradient9237" x1="8" x2="8" y1="2.989" y2="14.001" gradientTransform="matrix(1.0000072,0,0,0.9971619,-2.4296146e-6,-0.9616837)" gradientUnits="userSpaceOnUse" xlink:href="#linearGradient9247"/><linearGradient id="linearGradient17648"><stop id="stop17650" offset="0" stop-color="#fff" stop-opacity=".6"/><stop id="stop17652" offset="1" stop-color="#fff" stop-opacity="0"/></linearGradient><linearGradient id="linearGradient17646" x1="22.124" x2="22.124" y1="9.227" y2="41.879" gradientTransform="matrix(0.3513555,0,0,0.3333434,0.2264755,-1.9982453)" gradientUnits="userSpaceOnUse" xlink:href="#linearGradient17648"/><linearGradient id="linearGradient6293"><stop id="stop6295" offset="0" stop-color="#888a85" stop-opacity="1"/><stop id="stop6297" offset="1" stop-color="#555753" stop-opacity="0"/></linearGradient><linearGradient id="linearGradient17644" x1="24.117" x2="24.065" y1="8" y2="31.932" gradientTransform="matrix(0.3513555,0,0,0.3333434,0.5672375,-2.6667466)" gradientUnits="userSpaceOnUse" xlink:href="#linearGradient6293"/></defs><metadata id="metadata7328"/><g id="layer1"><path id="path15" fill="#eeeeec" fill-opacity="1" stroke="url(#linearGradient17644)" stroke-dasharray="none" stroke-miterlimit="4" stroke-width="1" d="M 14.500017,2.0001552 C 14.501101,1.8167661 14.198435,1.500045 14.000017,1.500045 L 8.499855,1.500045 L 6.500017,0.4999929 L 1.9998547,0.4999929 C 1.7352958,0.4999929 1.4998547,0.7555124 1.4998547,1.00003 L 1.4998547,12.5 L 14.500017,12.5 L 14.500017,2.0001552 z"/><path id="path7263" fill="none" fill-opacity="1" stroke="url(#linearGradient17646)" stroke-dasharray="none" stroke-miterlimit="4" stroke-opacity="1" stroke-width="1" d="M 13.500017,2.7499924 C 13.501042,2.5104913 13.505832,2.5001552 13.250017,2.5001552 L 8.200017,2.5001552 C 8.200017,2.5001552 6.503067,1.4993093 6.000017,1.5001552 L 2.7500167,1.5001552 C 2.4990248,1.5001552 2.4998546,1.5207582 2.4998546,1.7499924 L 2.5100127,11.5 L 13.500017,11.5 L 13.500017,2.7499924 z" opacity="1"/><path id="path2185" fill="url(#linearGradient9237)" fill-opacity="1" fill-rule="evenodd" stroke="url(#linearGradient9245)" stroke-dasharray="none" stroke-linecap="butt" stroke-linejoin="miter" stroke-miterlimit="4" stroke-opacity="1" stroke-width="1" d="M 0.50000007,12.5 L 15.5,12.5 L 15.5,3.4998943 L 0.50000007,3.4998943 L 0.50000007,12.5 L 0.50000007,12.5 z" display="inline" enable-background="new" opacity=".9" overflow="visible"/><rect id="rect8457" width="14" height="1" x="1" y="4" fill="url(#linearGradient10493)" fill-opacity="1" stroke="none" display="inline" enable-background="new" rx="0" ry="0"/><path id="path5843" fill="url(#linearGradient3164)" fill-opacity="1" fill-rule="nonzero" stroke="#42770c" stroke-dasharray="none" stroke-dashoffset="0" stroke-linecap="butt" stroke-linejoin="miter" stroke-miterlimit="4" stroke-opacity="1" stroke-width="1" marker-end="none" marker-mid="none" marker-start="none" d="M 15.344162,10.52635 L 10.080568,15.461 L 4.8383426,10.52635 L 7.6582525,10.52635 C 8.3835275,8.6397018 7.4035725,6.7645718 5.6900595,6.5508318 C 3.3797995,6.2626518 2.0002366,7.3813718 1.4592546,9.0000218 C 1.1974396,9.7833918 0.36491237,9.6752018 0.47375237,8.6364318 C 0.74262837,6.0702518 2.5946675,3.4896618 6.7499605,3.4896618 C 10.905253,3.4896618 12.692592,6.7903318 12.510826,10.52635 L 15.344162,10.52635 z" display="inline" overflow="visible" visibility="visible" style="marker:none"/><path id="path5849" fill="none" fill-opacity="1" fill-rule="nonzero" stroke="url(#linearGradient5853)" stroke-dasharray="none" stroke-dashoffset="0" stroke-linecap="butt" stroke-linejoin="miter" stroke-miterlimit="4" stroke-opacity="1" stroke-width="1" marker-end="none" marker-mid="none" marker-start="none" d="M 12.834928,11.477139 L 10.138992,14.0364 L 7.3565915,11.516159 L 8.4140445,11.495439 C 10.753055,6.6765518 5.1514565,3.3099018 1.9264856,6.8962518 C 3.6691685,4.7028518 5.3390345,4.0645418 8.1782525,4.7155518 C 10.64893,5.2820618 11.85978,8.4416018 11.339055,11.477139 L 12.834928,11.477139 z" display="inline" enable-background="accumulate" opacity=".354" overflow="visible" visibility="visible" style="marker:none"/></g></svg>