<svg xmlns="http://www.w3.org/2000/svg" xmlns:svg="http://www.w3.org/2000/svg" xmlns:xlink="http://www.w3.org/1999/xlink" id="svg7779" width="16" height="16"><defs id="defs7781"><linearGradient id="linearGradient16-paper-sheet-orig-9"><stop id="stop24-paper-sheet-orig-7" offset="0" stop-color="#FFF" stop-opacity="1"/><stop id="stop25-paper-sheet-orig-5" offset="1" stop-color="#FFF" stop-opacity="0"/></linearGradient><linearGradient id="linearGradient12951" x1="14.958" x2="17.11" y1="5.049" y2="3.84" gradientTransform="matrix(0.766205,0,0,0.750993,699.584,220.125)" gradientUnits="userSpaceOnUse" xlink:href="#linearGradient16-paper-sheet-orig-9"/><linearGradient id="linearGradient4-paper-sheet-orig-7"><stop id="stop8-paper-sheet-orig-2" offset="0" stop-color="#FFF" stop-opacity="1"/><stop id="stop9-paper-sheet-orig-2" offset="1" stop-color="#FFF" stop-opacity="0"/></linearGradient><radialGradient id="radialGradient12949" cx="4" cy="5.3" r="17" fx="4" fy="5.3" gradientTransform="matrix(1.79816,-2.10592e-2,1.67913e-2,1.62912,-3.28162,-6.55011)" gradientUnits="userSpaceOnUse" xlink:href="#linearGradient4-paper-sheet-orig-7"/><linearGradient id="linearGradient10-paper-sheet-orig-3"><stop id="stop15-paper-sheet-orig-7" offset="0" stop-color="#555753" stop-opacity="1"/><stop id="stop16-paper-sheet-orig-8" offset="1" stop-color="#BABDB6" stop-opacity="1"/></linearGradient><linearGradient id="linearGradient12947" x1="-46.226" x2="-53.85" y1="55.167" y2="-.546" gradientTransform="matrix(0.372187,0,0,0.367216,721.412,219.218)" gradientUnits="userSpaceOnUse" xlink:href="#linearGradient10-paper-sheet-orig-3"/><linearGradient id="linearGradient3-paper-sheet-orig-08"><stop id="stop6-paper-sheet-orig-1" offset="0" stop-color="#FFF" stop-opacity="1"/><stop id="stop7-paper-sheet-orig-2" offset="1" stop-color="#D3D7CF" stop-opacity="1"/></linearGradient><radialGradient id="radialGradient12945" cx="-30.314" cy="39.272" r="18" fx="-30.314" fy="39.272" gradientTransform="matrix(1.48717,0,0,0.548905,755.14,213.489)" gradientUnits="userSpaceOnUse" xlink:href="#linearGradient3-paper-sheet-orig-08"/><linearGradient id="linearGradient17-paper-sheet-orig-0-8"><stop id="stop26-paper-sheet-orig-2-4" offset="0" stop-color="#000" stop-opacity="1"/><stop id="stop27-paper-sheet-orig-3-8" offset="1" stop-color="#000" stop-opacity="0"/></linearGradient><linearGradient id="linearGradient12532" x1="12.594" x2="9.406" y1="4.594" y2="4.813" gradientTransform="translate(302,218.99)" gradientUnits="userSpaceOnUse" xlink:href="#linearGradient17-paper-sheet-orig-0-8"/></defs><metadata id="metadata7784"/><g id="layer1"><g id="use7222" display="inline" transform="translate(-700,-219.99986)"><path id="path12939" fill="url(#radialGradient12945)" fill-opacity="1" stroke="url(#linearGradient12947)" stroke-miterlimit="4" stroke-width="1" d="M 703.00846,220.5 C 702.17716,220.5 701.5,221.16373 701.5,221.97852 L 701.5,230.23944 L 701.5,231.78836 L 701.5,234.04134 C 701.5,234.85614 702.17716,235.51986 703.00846,235.51986 L 712.01701,235.51986 C 712.84831,235.51986 713.52548,234.85614 713.52548,234.04134 L 713.52548,233.31382 L 713.52548,230.23944 C 713.52548,228.13728 713.52548,225.96977 713.52548,225.63961 C 713.37946,224.26351 712.58832,223.24859 711.65785,222.33055 C 710.72739,221.41251 709.7487,220.52679 708.30571,220.5 C 708.10028,220.5 708.20351,220.5 707.27048,220.5 L 703.77467,220.5 L 703.00846,220.5 L 703.00846,220.5 L 703.00846,220.5 L 703.00846,220.5 z" display="inline"/><path id="path12941" fill="url(#radialGradient12949)" fill-opacity="1" stroke="none" d="M 8.53125,5.09375 C 8.2778235,5.09375 8.09375,5.2778234 8.09375,5.53125 L 8.09375,42.46875 C 8.09375,42.722176 8.2778234,42.90625 8.53125,42.90625 L 39.46875,42.90625 C 39.722175,42.90625 39.90625,42.722175 39.90625,42.46875 C 39.90625,42.46875 39.90625,19 39.90625,17.5 C 39.90625,16.356391 39.402488,13.652488 37.875,12.125 C 35.875,10.125 34.875,9.125 32.875,7.125 C 31.347512,5.5975116 28.643609,5.09375 27.5,5.09375 C 26,5.09375 8.53125,5.09375 8.53125,5.09375 z" display="inline" transform="matrix(0.372187,0,0,0.349156,699.081,220.001)"/><path id="path12943" fill="none" stroke="url(#linearGradient12951)" stroke-miterlimit="4" stroke-width="1" d="M 703.00847,221.53262 C 702.74909,221.53262 702.55353,221.72429 702.55353,221.97852 L 702.55353,230.23944 L 702.55353,231.78836 L 702.55353,234.04134 C 702.55353,234.29557 702.74909,234.48724 703.00847,234.48724 L 712.01702,234.48724 C 712.27639,234.48724 712.47195,234.29557 712.47195,234.04134 L 712.47195,233.31382 L 712.47195,230.23944 C 712.47195,228.1909 712.47195,226.16883 712.47195,225.75695 C 712.36091,224.71049 711.78291,223.9138 710.9156,223.05807 C 710.00666,222.16128 709.29432,221.55141 708.28177,221.53262 L 703.77467,221.53262 L 703.00847,221.53262 z" display="inline"/></g><rect id="rect7228" width="5" height="1" x="4" y="10" fill="#204a87" fill-opacity="1" stroke="none" display="inline" opacity="1"/><rect id="rect7230" width="4" height="1" x="4" y="12" fill="#204a87" fill-opacity="1" stroke="none" display="inline" opacity="1"/><rect id="rect7232" width="7" height="1" x="4" y="8" fill="#204a87" fill-opacity="1" stroke="none" display="inline" opacity="1"/><rect id="rect7234" width="2" height="1" x="9" y="4" fill="#204a87" fill-opacity="1" stroke="none" display="inline" opacity="1"/><rect id="rect7236" width="2" height="1" x="9" y="6" fill="#204a87" fill-opacity="1" stroke="none" display="inline" opacity="1"/><rect id="rect7238" width="3" height="2" x="4.5" y="4.5" fill="#729fcf" fill-opacity="1" stroke="#204a87" stroke-dasharray="none" stroke-dashoffset="0" stroke-linecap="round" stroke-linejoin="round" stroke-miterlimit="4" stroke-opacity="1" stroke-width="1" display="inline" rx="0" ry="0"/><path id="rect7659" fill="#729fcf" fill-opacity="1" fill-rule="evenodd" stroke="none" stroke-dasharray="none" stroke-dashoffset=".361" stroke-linecap="round" stroke-linejoin="miter" stroke-miterlimit="4" stroke-opacity="1" stroke-width="1" d="M 2.999952,3.0001422 L 2.999952,14.000142 L 8.999952,14.000142 L 8.999952,12.000142 L 9.999952,12.000142 L 9.999952,10.000142 L 11.999952,10.000142 L 11.999952,4.0001422 L 10.999952,4.0001422 L 10.999952,3.0001422 L 2.999952,3.0001422 z" display="inline" opacity=".5"/><g id="use7242" display="inline" transform="translate(-302.97295,-219.0237)"><path id="path12526" fill="#fff" fill-opacity="1" stroke="none" d="M 311.16243,220.04545 C 310.77627,220.04545 311.15073,220.22449 311.53604,220.45065 C 313,220.49005 312.93317,220.73709 312.93317,222.99007 C 314.83742,222.99007 315.54866,224.05141 315.63787,224.46881 C 315.72707,224.8862 315.91591,225.408 315.91591,224.90776 C 315.92391,223.5371 315.01429,222.70174 314.45869,221.90052 C 313.90308,221.0993 312.17831,220.21717 311.16243,220.04545 L 311.16243,220.04545 L 311.16243,220.04545 L 311.16243,220.04545 z" display="inline"/><path id="path12529" fill="url(#linearGradient12532)" fill-opacity="1" stroke="none" d="M 312,223.99007 C 315.5,223.99007 314.95305,224.34385 315.54067,224.91675 C 315.41001,224.35068 315.9915,222.99007 313,222.99007 C 313,219.93459 311.5,220.49007 311,220.44235 C 311.95642,221.57502 312.41574,220.71385 312,223.99007 z" display="inline" opacity=".356"/></g><g id="g7668" display="inline" transform="translate(-703,-1084.9999)"><rect id="rect7670" width="4" height="2.031" x="711.5" y="1095.5" fill="#000" fill-opacity="1" fill-rule="evenodd" stroke="#fff" stroke-dasharray="none" stroke-dashoffset=".361" stroke-linecap="round" stroke-linejoin="miter" stroke-miterlimit="4" stroke-opacity="1" stroke-width="1" opacity="1"/><rect id="rect7672" width="4" height="2.031" x="711.5" y="1097.5" fill="#000" fill-opacity="1" fill-rule="evenodd" stroke="#fff" stroke-dasharray="none" stroke-dashoffset=".361" stroke-linecap="round" stroke-linejoin="miter" stroke-miterlimit="4" stroke-opacity="1" stroke-width="1" display="inline" opacity="1"/><rect id="rect7674" width="1" height="3" x="713" y="1096" fill="#000" fill-opacity="1" fill-rule="evenodd" stroke="none" stroke-dasharray="none" stroke-dashoffset=".361" stroke-linecap="round" stroke-linejoin="miter" stroke-miterlimit="4" stroke-opacity="1" stroke-width="1" opacity="1"/></g></g></svg>