<svg xmlns="http://www.w3.org/2000/svg" xmlns:svg="http://www.w3.org/2000/svg" xmlns:xlink="http://www.w3.org/1999/xlink" id="svg7580" width="16" height="16"><defs id="defs7582"><linearGradient id="linearGradient6628"><stop id="stop6630" offset="0" stop-color="#edd400" stop-opacity="1"/><stop id="stop6632" offset="1" stop-color="#c4a000" stop-opacity="1"/></linearGradient><radialGradient id="radialGradient6634" cx="309.365" cy="816.907" r="5.219" fx="309.365" fy="816.907" gradientTransform="matrix(2.3368166,-1.7125851,1.5904448,2.1724707,-1714.5967,-426.00779)" gradientUnits="userSpaceOnUse" xlink:href="#linearGradient6628"/><linearGradient id="linearGradient6620"><stop id="stop6622" offset="0" stop-color="#fff" stop-opacity="1"/><stop id="stop6624" offset=".33" stop-color="#fff" stop-opacity="1"/><stop id="stop6626" offset="1" stop-color="#fce94f" stop-opacity="1"/></linearGradient><radialGradient id="radialGradient6618" cx="310.555" cy="818.491" r="5.219" fx="310.555" fy="818.491" gradientTransform="matrix(1.4568049,-1.0676476,1.020526,1.3927904,-978.41153,10.883447)" gradientUnits="userSpaceOnUse" xlink:href="#linearGradient6620"/><linearGradient id="linearGradient6557"><stop id="stop6559" offset="0" stop-color="#fce94f" stop-opacity="1"/><stop id="stop6565" offset=".673" stop-color="#fce94f" stop-opacity="1"/><stop id="stop6561" offset="1" stop-color="#fce94f" stop-opacity="0"/></linearGradient><radialGradient id="radialGradient6563" cx="311.469" cy="828.531" r="3.281" fx="311.469" fy="828.531" gradientUnits="userSpaceOnUse" xlink:href="#linearGradient6557"/><linearGradient id="linearGradient9229" x1="71.999" x2="71.999" y1="14.258" y2="19.958" gradientTransform="matrix(1.0033404,0,0,1,-8.2374684,8)" gradientUnits="userSpaceOnUse"><stop id="stop9231" offset=".004" stop-color="#feebd6" stop-opacity="0"/><stop id="stop9233" offset=".461" stop-color="#f5f5f5" stop-opacity=".53"/><stop id="stop9235" offset="1" stop-color="#f5f5f5" stop-opacity="0"/></linearGradient><linearGradient id="linearGradient10493" x1="7.238" x2="132.86" y1="36.005" y2="35.858" gradientTransform="matrix(0.1447824,0,0,0.942809,-1.35465,-27.279266)" gradientUnits="userSpaceOnUse" xlink:href="#linearGradient9229"/><linearGradient id="linearGradient9239"><stop id="stop9241" offset="0" stop-color="#3465a4" stop-opacity="1"/><stop id="stop9243" offset="1" stop-color="#204a87" stop-opacity="1"/></linearGradient><linearGradient id="linearGradient9245" x1="9.066" x2="9.057" y1="2.836" y2="12.836" gradientTransform="translate(-5.806e-2,2.1641571)" gradientUnits="userSpaceOnUse" xlink:href="#linearGradient9239"/><linearGradient id="linearGradient9247"><stop id="stop9249" offset="0" stop-color="#8fb3d9" stop-opacity="1"/><stop id="stop9251" offset="1" stop-color="#3465a4" stop-opacity="1"/></linearGradient><linearGradient id="linearGradient9237" x1="8" x2="8" y1="2.989" y2="14.001" gradientTransform="matrix(1.0000072,0,0,0.9971619,-2.4e-6,1.0383157)" gradientUnits="userSpaceOnUse" xlink:href="#linearGradient9247"/><linearGradient id="linearGradient17648"><stop id="stop17650" offset="0" stop-color="#fff" stop-opacity=".6"/><stop id="stop17652" offset="1" stop-color="#fff" stop-opacity="0"/></linearGradient><linearGradient id="linearGradient17646" x1="22.124" x2="22.124" y1="9.227" y2="41.879" gradientTransform="matrix(0.3513555,0,0,0.3333434,0.2264754,1.7541e-3)" gradientUnits="userSpaceOnUse" xlink:href="#linearGradient17648"/><linearGradient id="linearGradient6293"><stop id="stop6295" offset="0" stop-color="#888a85" stop-opacity="1"/><stop id="stop6297" offset="1" stop-color="#555753" stop-opacity="0"/></linearGradient><linearGradient id="linearGradient17644" x1="24.117" x2="24.065" y1="8" y2="31.932" gradientTransform="matrix(0.3513555,0,0,0.3333434,0.5672374,-0.6667472)" gradientUnits="userSpaceOnUse" xlink:href="#linearGradient6293"/></defs><metadata id="metadata7585"/><g id="layer1"><path id="path15" fill="#eeeeec" fill-opacity="1" stroke="url(#linearGradient17644)" stroke-dasharray="none" stroke-miterlimit="4" stroke-width="1" d="M 14.500017,4.0001546 C 14.501101,3.8167655 14.198435,3.5000444 14.000017,3.5000444 L 8.4998548,3.5000444 L 6.5000168,2.4999923 L 1.9998546,2.4999923 C 1.7352957,2.4999923 1.4998546,2.7555118 1.4998546,3.0000294 L 1.4998546,14.5 L 14.500017,14.5 L 14.500017,4.0001546 z"/><path id="path7263" fill="none" fill-opacity="1" stroke="url(#linearGradient17646)" stroke-dasharray="none" stroke-miterlimit="4" stroke-opacity="1" stroke-width="1" d="M 13.500017,4.7499918 C 13.501042,4.5104907 13.505832,4.5001546 13.250017,4.5001546 L 8.2000168,4.5001546 C 8.2000168,4.5001546 6.5030668,3.4993087 6.0000169,3.5001546 L 2.7500167,3.5001546 C 2.4990248,3.5001546 2.4998546,3.5207576 2.4998546,3.7499918 L 2.5100127,13.5 L 13.500017,13.5 L 13.500017,4.7499918 z" opacity="1"/><path id="path2185" fill="url(#linearGradient9237)" fill-opacity="1" fill-rule="evenodd" stroke="url(#linearGradient9245)" stroke-dasharray="none" stroke-linecap="butt" stroke-linejoin="miter" stroke-miterlimit="4" stroke-opacity="1" stroke-width="1" d="M 0.5,14.5 L 15.5,14.5 L 15.5,5.4998937 L 0.5,5.4998937 L 0.5,14.5 L 0.5,14.5 z" display="inline" enable-background="new" opacity=".9" overflow="visible"/><rect id="rect8457" width="14" height="1" x="1" y="6" fill="url(#linearGradient10493)" fill-opacity="1" stroke="none" display="inline" enable-background="new" rx="0" ry="0"/><g id="g5769" display="inline" transform="translate(-298.99979,-824.00031)"><path id="path6555" fill="url(#radialGradient6563)" fill-opacity="1" fill-rule="evenodd" stroke="none" d="M 314.75,828.53125 A 3.28125,3.28125 0 1 1 308.1875,828.53125 A 3.28125,3.28125 0 1 1 314.75,828.53125 z" transform="matrix(1.3952382,0,0,1.5285715,-124.02618,-437.45357)"/><g id="g6589"><path id="path6567" fill="url(#radialGradient6618)" fill-opacity="1" fill-rule="evenodd" stroke="url(#radialGradient6634)" stroke-dashoffset=".361" stroke-linecap="round" stroke-linejoin="round" stroke-miterlimit="4" stroke-opacity="1" stroke-width="1.168" d="M 308.83947,815.80081 C 308.24687,815.91731 307.85733,816.4877 307.96447,817.08206 L 308.46875,819.21875 L 307.09375,820.53125 C 306.7986,820.82746 306.69577,821.26481 306.82801,821.6615 C 306.96024,822.05819 307.30491,822.34637 307.71875,822.40625 L 309.5625,822.6875 L 310.375,824.375 C 310.55154,824.76485 310.93718,825.01784 311.3651,825.02453 C 311.79301,825.03153 312.18636,824.7904 312.375,824.40625 L 313.25,822.6875 L 315.09375,822.4375 C 315.50759,822.3776 315.85226,822.08944 315.98449,821.69275 C 316.11673,821.29606 316.01389,820.85871 315.71875,820.5625 L 314.375,819.25 L 314.6875,817.375 C 314.7601,816.95574 314.58567,816.53202 314.23898,816.28534 C 313.89229,816.03865 313.43481,816.01276 313.0625,816.21874 L 311.40625,817.09374 L 309.58947,815.9258 C 309.3621,815.7968 309.09639,815.75251 308.83947,815.8008 L 308.83947,815.8008 L 308.83947,815.80081 z" display="inline" transform="matrix(0.6218253,0.4554915,-0.4557177,0.6215166,491.13684,177.83564)"/><rect id="rect6569" width="1.016" height=".994" x="307.989" y="828.008" fill="#fff" fill-opacity="1" fill-rule="evenodd" stroke="none"/><rect id="rect6571" width="1.016" height=".994" x="312.989" y="828.008" fill="#fff" fill-opacity="1" fill-rule="evenodd" stroke="none" display="inline"/><rect id="rect6573" width="1.016" height=".994" x="311.989" y="831.008" fill="#fff" fill-opacity="1" fill-rule="evenodd" stroke="none" display="inline"/><rect id="rect6575" width="1.016" height=".994" x="308.989" y="831.008" fill="#fff" fill-opacity="1" fill-rule="evenodd" stroke="none" display="inline"/></g></g></g></svg>