<svg xmlns="http://www.w3.org/2000/svg" xmlns:svg="http://www.w3.org/2000/svg" xmlns:xlink="http://www.w3.org/1999/xlink" id="svg7670" width="16" height="16"><defs id="defs7672"><linearGradient id="linearGradient10493" x1="7.238" x2="132.86" y1="36.005" y2="35.858" gradientTransform="matrix(0.103416,0,0,0.942809,3.3181071,-24.279213)" gradientUnits="userSpaceOnUse" xlink:href="#linearGradient9229"/><linearGradient id="linearGradient9245" x1="9.058" x2="9.057" y1="4.836" y2="12.836" gradientTransform="translate(-5.80601e-2,3.1641569)" gradientUnits="userSpaceOnUse" xlink:href="#linearGradient9239"/><linearGradient id="linearGradient9237" x1="8.011" x2="8" y1="4.976" y2="14.001" gradientTransform="matrix(1.0000072,0,0,0.9971619,-2.5e-6,2.0383155)" gradientUnits="userSpaceOnUse" xlink:href="#linearGradient9247"/><linearGradient id="linearGradient17646" x1="22.124" x2="22.215" y1="9.227" y2="35.993" gradientTransform="matrix(0.3513555,0,0,0.3333434,1.2264586,3.0019163)" gradientUnits="userSpaceOnUse" xlink:href="#linearGradient17648"/><linearGradient id="linearGradient17644" x1="24.117" x2="24.001" y1="8" y2="31.934" gradientTransform="matrix(0.3513555,0,0,0.3333434,1.5672206,2.333415)" gradientUnits="userSpaceOnUse" xlink:href="#linearGradient6293"/><linearGradient id="linearGradient9229" x1="71.999" x2="71.999" y1="14.258" y2="19.958" gradientTransform="matrix(1.0033404,0,0,1,-8.2374684,8)" gradientUnits="userSpaceOnUse"><stop id="stop9231" offset=".004" stop-color="#feebd6" stop-opacity="0"/><stop id="stop9233" offset=".461" stop-color="#f5f5f5" stop-opacity=".53"/><stop id="stop9235" offset="1" stop-color="#f5f5f5" stop-opacity="0"/></linearGradient><linearGradient id="linearGradient7668" x1="7.238" x2="132.86" y1="36.005" y2="35.858" gradientTransform="matrix(0.103416,0,0,0.942809,-0.681892,-29.279212)" gradientUnits="userSpaceOnUse" xlink:href="#linearGradient9229"/><linearGradient id="linearGradient9239"><stop id="stop9241" offset="0" stop-color="#3465a4" stop-opacity="1"/><stop id="stop9243" offset="1" stop-color="#204a87" stop-opacity="1"/></linearGradient><linearGradient id="linearGradient7666" x1="9.058" x2="9.057" y1="4.836" y2="12.836" gradientTransform="translate(-4.0580605,-1.8358427)" gradientUnits="userSpaceOnUse" xlink:href="#linearGradient9239"/><linearGradient id="linearGradient9247"><stop id="stop9249" offset="0" stop-color="#8fb3d9" stop-opacity="1"/><stop id="stop9251" offset="1" stop-color="#3465a4" stop-opacity="1"/></linearGradient><linearGradient id="linearGradient7664" x1="8.011" x2="8" y1="4.976" y2="14.001" gradientTransform="matrix(1.0000072,0,0,0.9971619,-4.0000025,-2.9616841)" gradientUnits="userSpaceOnUse" xlink:href="#linearGradient9247"/><linearGradient id="linearGradient17648"><stop id="stop17650" offset="0" stop-color="#fff" stop-opacity=".6"/><stop id="stop17652" offset="1" stop-color="#fff" stop-opacity="0"/></linearGradient><linearGradient id="linearGradient7662" x1="22.124" x2="22.215" y1="9.227" y2="35.993" gradientTransform="matrix(0.3513555,0,0,0.3333434,-2.7735415,-1.9980833)" gradientUnits="userSpaceOnUse" xlink:href="#linearGradient17648"/><linearGradient id="linearGradient6293"><stop id="stop6295" offset="0" stop-color="#888a85" stop-opacity="1"/><stop id="stop6297" offset="1" stop-color="#555753" stop-opacity="0"/></linearGradient><linearGradient id="linearGradient7660" x1="24.117" x2="24.001" y1="8" y2="31.934" gradientTransform="matrix(0.3513555,0,0,0.3333434,-2.4327795,-2.6665846)" gradientUnits="userSpaceOnUse" xlink:href="#linearGradient6293"/></defs><metadata id="metadata7675"/><g id="layer1"><path id="path7652" fill="#eeeeec" fill-opacity="1" stroke="url(#linearGradient7660)" stroke-dasharray="none" stroke-miterlimit="4" stroke-width="1" d="M 11.5,2.0003172 C 11.501084,1.8169281 11.198418,1.500207 11,1.500207 L 6.5,1.500207 L 4.5,0.50015487 L 0.999838,0.50015487 C 0.735279,0.50015487 0.499838,0.75567439 0.499838,1.000192 L 0.499838,10.5 L 11.5,10.5 L 11.5,2.0003172 z"/><path id="path7654" fill="none" fill-opacity="1" stroke="url(#linearGradient7662)" stroke-dasharray="none" stroke-miterlimit="4" stroke-opacity="1" stroke-width="1" d="M 10.5,2.7501544 C 10.501025,2.5106533 10.505815,2.5003172 10.25,2.5003172 L 6.2,2.5003172 C 6.2,2.5003172 4.50305,1.4994713 4,1.5003172 L 1.75,1.5003172 C 1.499008,1.5003172 1.499838,1.5209202 1.499838,1.7501544 L 1.509996,9.5000004 L 10.5,9.5000004 L 10.5,2.7501544 z" opacity="1"/><path id="path7656" fill="url(#linearGradient7664)" fill-opacity="1" fill-rule="evenodd" stroke="url(#linearGradient7666)" stroke-dasharray="none" stroke-linecap="butt" stroke-linejoin="miter" stroke-miterlimit="4" stroke-opacity="1" stroke-width="1" d="M 0.5,10.5 L 11.5,10.5 L 11.5,3.5000004 L 0.5,3.5000004 L 0.5,10.5 L 0.5,10.5 z" display="inline" enable-background="new" opacity=".9" overflow="visible"/><rect id="rect7658" width="10" height="1" x="1" y="4" fill="url(#linearGradient7668)" fill-opacity="1" stroke="none" display="inline" enable-background="new" rx="0" ry="0"/><path id="path15" fill="#eeeeec" fill-opacity="1" stroke="url(#linearGradient17644)" stroke-dasharray="none" stroke-miterlimit="4" stroke-width="1" d="M 15.5,7.0003168 C 15.501084,6.8169277 15.198418,6.5002066 15,6.5002066 L 10.5,6.5002066 L 8.5,5.5001545 L 4.9998378,5.5001545 C 4.7352789,5.5001545 4.4998378,5.755674 4.4998378,6.0001916 L 4.4998378,15.5 L 15.5,15.5 L 15.5,7.0003168 z"/><path id="path7263" fill="none" fill-opacity="1" stroke="url(#linearGradient17646)" stroke-dasharray="none" stroke-miterlimit="4" stroke-opacity="1" stroke-width="1" d="M 14.5,7.750154 C 14.501025,7.5106529 14.505815,7.5003168 14.25,7.5003168 L 10.2,7.5003168 C 10.2,7.5003168 8.50305,6.4994709 8,6.5003168 L 5.7499999,6.5003168 C 5.499008,6.5003168 5.4998378,6.5209198 5.4998378,6.750154 L 5.5099959,14.5 L 14.5,14.5 L 14.5,7.750154 z" opacity="1"/><path id="path2185" fill="url(#linearGradient9237)" fill-opacity="1" fill-rule="evenodd" stroke="url(#linearGradient9245)" stroke-dasharray="none" stroke-linecap="butt" stroke-linejoin="miter" stroke-miterlimit="4" stroke-opacity="1" stroke-width="1" d="M 4.5,15.5 L 15.5,15.5 L 15.5,8.5 L 4.5,8.5 L 4.5,15.5 L 4.5,15.5 z" display="inline" enable-background="new" opacity=".9" overflow="visible"/><rect id="rect8457" width="10" height="1" x="5" y="9" fill="url(#linearGradient10493)" fill-opacity="1" stroke="none" display="inline" enable-background="new" rx="0" ry="0"/></g></svg>