<svg xmlns="http://www.w3.org/2000/svg" xmlns:svg="http://www.w3.org/2000/svg" xmlns:xlink="http://www.w3.org/1999/xlink" id="svg7230" width="16" height="16"><defs id="defs7232"><linearGradient id="linearGradient5113"><stop id="stop5115" offset="0" stop-color="#fff" stop-opacity="1"/><stop id="stop5117" offset="1" stop-color="#fff" stop-opacity="0"/></linearGradient><linearGradient id="linearGradient5853" x1="58.749" x2="105.324" y1="2.048" y2="58.048" gradientTransform="matrix(0.353039,0,0,0.3392119,-20.131903,7.8500209e-2)" gradientUnits="userSpaceOnUse" xlink:href="#linearGradient5113"/><linearGradient id="linearGradient3158"><stop id="stop3160" offset="0" stop-color="#729fcf" stop-opacity="1"/><stop id="stop3162" offset="1" stop-color="#3465a4" stop-opacity="1"/></linearGradient><linearGradient id="linearGradient3164" x1="8" x2="8" y1="2" y2="15" gradientTransform="translate(2.3637251e-4,2.0208616e-5)" gradientUnits="userSpaceOnUse" xlink:href="#linearGradient3158"/></defs><metadata id="metadata7235"/><g id="layer1"><path id="path5843" fill="url(#linearGradient3164)" fill-opacity="1" fill-rule="nonzero" stroke="#204a87" stroke-dasharray="none" stroke-dashoffset="0" stroke-linecap="butt" stroke-linejoin="miter" stroke-miterlimit="4" stroke-opacity="1" stroke-width="1" marker-end="none" marker-mid="none" marker-start="none" d="M 15.344163,9.5263502 L 10.080569,14.461 L 4.8383428,9.5263502 L 7.6582528,9.5263502 C 8.3835278,7.6397002 7.4035728,5.7645702 5.6900598,5.5508302 C 3.3797998,5.2626502 2.0002364,6.3813702 1.4592544,8.0000202 C 1.1974394,8.7833902 0.36491237,8.6752002 0.47375237,7.6364302 C 0.74262837,5.0702502 2.5946674,2.4896602 6.7499608,2.4896602 C 10.905254,2.4896602 12.692593,5.7903302 12.510827,9.5263502 L 15.344163,9.5263502 z" display="inline" overflow="visible" visibility="visible" style="marker:none"/><path id="path5849" fill="none" fill-opacity="1" fill-rule="nonzero" stroke="url(#linearGradient5853)" stroke-dasharray="none" stroke-dashoffset="0" stroke-linecap="butt" stroke-linejoin="miter" stroke-miterlimit="4" stroke-opacity="1" stroke-width="1" marker-end="none" marker-mid="none" marker-start="none" d="M 12.834929,10.477139 L 10.138993,13.0364 L 7.3565918,10.516159 L 8.4140448,10.495439 C 10.753056,5.6765502 5.1514568,2.3099002 1.9264854,5.8962502 C 3.6691688,3.7028502 5.3390348,3.0645402 8.1782528,3.7155502 C 10.648931,4.2820602 11.859781,7.4416002 11.339056,10.477139 L 12.834929,10.477139 z" display="inline" enable-background="accumulate" opacity=".354" overflow="visible" visibility="visible" style="marker:none"/></g></svg>