<svg xmlns="http://www.w3.org/2000/svg" xmlns:svg="http://www.w3.org/2000/svg" xmlns:xlink="http://www.w3.org/1999/xlink" id="svg8484" width="48" height="48"><defs id="defs8486"><linearGradient id="linearGradient2627" x1="95.031" x2="95.031" y1="57.906" y2="44.593" gradientTransform="translate(-26,-16.91315)" gradientUnits="userSpaceOnUse" xlink:href="#linearGradient4350"/><linearGradient id="linearGradient4286"><stop id="stop4288" offset="0" stop-color="#fff" stop-opacity="1"/><stop id="stop4290" offset="1" stop-color="#fff" stop-opacity=".305"/></linearGradient><linearGradient id="linearGradient2625" x1="88.75" x2="87.813" y1="22.673" y2="45.579" gradientTransform="translate(-19,7.465812e-2)" gradientUnits="userSpaceOnUse" xlink:href="#linearGradient4286"/><linearGradient id="linearGradient4350"><stop id="stop4352" offset="0" stop-color="#fff" stop-opacity="1"/><stop id="stop4354" offset="1" stop-color="#fff" stop-opacity="0"/></linearGradient><linearGradient id="linearGradient2623" x1="97.729" x2="97.729" y1="54.517" y2="42.401" gradientTransform="matrix(0.972701,0,0,0.925949,-23.47387,-13.25574)" gradientUnits="userSpaceOnUse" xlink:href="#linearGradient4350"/><linearGradient id="linearGradient4114"><stop id="stop4116" offset="0" stop-color="#000" stop-opacity="1"/><stop id="stop4118" offset="1" stop-color="#000" stop-opacity="0"/></linearGradient><radialGradient id="radialGradient17299" cx="15.116" cy="63.965" r="12.289" fx="15.116" fy="63.965" gradientTransform="scale(1.64399,0.608276)" gradientUnits="userSpaceOnUse" xlink:href="#linearGradient4114"/><linearGradient id="linearGradient3656"><stop id="stop3658" offset="0" stop-color="#fff" stop-opacity="1"/><stop id="stop3660" offset="1" stop-color="#fff" stop-opacity="0"/></linearGradient><linearGradient id="linearGradient5816" x1="-26.754" x2="-24.75" y1="11.566" y2="9.688" gradientUnits="userSpaceOnUse" xlink:href="#linearGradient3656"/><linearGradient id="linearGradient3520"><stop id="stop3522" offset="0" stop-color="#000" stop-opacity=".413"/><stop id="stop3524" offset="1" stop-color="#000" stop-opacity="0"/></linearGradient><linearGradient id="linearGradient5836" x1="-18.589" x2="-28.789" y1="11.053" y2="14.07" gradientTransform="matrix(0.9223058,0,0,0.9185751,-92.447368,61.3257)" gradientUnits="userSpaceOnUse" xlink:href="#linearGradient3520"/><linearGradient id="linearGradient3671"><stop id="stop3673" offset="0" stop-color="#fff" stop-opacity="1"/><stop id="stop3691" offset=".475" stop-color="#fff" stop-opacity="1"/><stop id="stop3675" offset="1" stop-color="#fff" stop-opacity="0"/></linearGradient><radialGradient id="radialGradient5839" cx="-26.305" cy="10.108" r="7.042" fx="-26.305" fy="10.108" gradientTransform="matrix(0.4073362,-0.2798276,0.7510293,1.0932492,-115.18484,51.56213)" gradientUnits="userSpaceOnUse" xlink:href="#linearGradient3671"/><linearGradient id="linearGradient6469"><stop id="stop6471" offset="0" stop-color="#000" stop-opacity="1"/><stop id="stop6473" offset="1" stop-color="#000" stop-opacity="0"/></linearGradient><linearGradient id="linearGradient6475" x1="58.282" x2="61.181" y1="70.752" y2="67.799" gradientTransform="translate(-180,0)" gradientUnits="userSpaceOnUse" xlink:href="#linearGradient6469"/><linearGradient id="linearGradient3741"><stop id="stop3743" offset="0" stop-color="#fff" stop-opacity="1"/><stop id="stop3745" offset="1" stop-color="#fff" stop-opacity="0"/></linearGradient><radialGradient id="radialGradient5810" cx="4" cy="5.3" r="17" fx="4" fy="5.3" gradientTransform="matrix(1.8860258,0,0,1.1764706,-3.5441033,-4.2352941)" gradientUnits="userSpaceOnUse" xlink:href="#linearGradient3741"/><linearGradient id="linearGradient3613"><stop id="stop3615" offset="0" stop-color="#888a85" stop-opacity="1"/><stop id="stop3617" offset="1" stop-color="#babdb6" stop-opacity="1"/></linearGradient><linearGradient id="linearGradient5845" x1="-47.5" x2="-62.75" y1="49.021" y2="-22.502" gradientTransform="translate(-90,60)" gradientUnits="userSpaceOnUse" xlink:href="#linearGradient3613"/><linearGradient id="linearGradient3683"><stop id="stop3685" offset="0" stop-color="#f6f6f5" stop-opacity="1"/><stop id="stop3689" offset="1" stop-color="#d3d7cf" stop-opacity="1"/></linearGradient><radialGradient id="radialGradient5843" cx="-30.25" cy="35.357" r="18" fx="-30.25" fy="35.357" gradientTransform="matrix(3.9957492,0,0,1.9350367,0.62141,28.832578)" gradientUnits="userSpaceOnUse" xlink:href="#linearGradient3683"/><linearGradient id="linearGradient5804" x1="25.058" x2="25.058" y1="47.028" y2="39.999" gradientUnits="userSpaceOnUse" xlink:href="#linearGradient3702"/><radialGradient id="radialGradient5802" cx="4.993" cy="43.5" r="2.5" fx="4.993" fy="43.5" gradientTransform="matrix(2.003784,0,0,1.4,-20.01187,-104.4)" gradientUnits="userSpaceOnUse" xlink:href="#linearGradient3688"/><radialGradient id="radialGradient5800" cx="4.993" cy="43.5" r="2.5" fx="4.993" fy="43.5" gradientTransform="matrix(2.003784,0,0,1.4,27.98813,-17.4)" gradientUnits="userSpaceOnUse" xlink:href="#linearGradient3688"/><linearGradient id="linearGradient3702"><stop id="stop3704" offset="0" stop-color="#000" stop-opacity="0"/><stop id="stop3710" offset=".5" stop-color="#000" stop-opacity="1"/><stop id="stop3706" offset="1" stop-color="#000" stop-opacity="0"/></linearGradient><linearGradient id="linearGradient5798" x1="25.058" x2="25.058" y1="47.028" y2="39.999" gradientUnits="userSpaceOnUse" xlink:href="#linearGradient3702"/><radialGradient id="radialGradient5796" cx="4.993" cy="43.5" r="2.5" fx="4.993" fy="43.5" gradientTransform="matrix(2.003784,0,0,1.4,-20.01187,-104.4)" gradientUnits="userSpaceOnUse" xlink:href="#linearGradient3688"/><linearGradient id="linearGradient3688"><stop id="stop3690" offset="0" stop-color="#000" stop-opacity="1"/><stop id="stop3692" offset="1" stop-color="#000" stop-opacity="0"/></linearGradient><radialGradient id="radialGradient5794" cx="4.993" cy="43.5" r="2.5" fx="4.993" fy="43.5" gradientTransform="matrix(2.003784,0,0,1.4,27.98813,-17.4)" gradientUnits="userSpaceOnUse" xlink:href="#linearGradient3688"/></defs><metadata id="metadata8489"/><g id="layer1"><g id="g6015" display="inline" transform="translate(150,-60)"><rect id="rect5504" width="48" height="48" x="-150" y="60" fill="#000" fill-opacity="1" stroke="none" stroke-dasharray="none" stroke-miterlimit="4" stroke-width="1" display="inline" opacity="0"/><g id="g5508" display="inline" opacity=".656" transform="matrix(1.0464281,0,0,0.8888889,-151.18572,65.72224)"><g id="g5511" opacity=".4" transform="matrix(1.052632,0,0,1.285713,-1.263158,-13.42854)"><rect id="rect5513" width="5" height="7" x="38" y="40" fill="url(#radialGradient5794)" fill-opacity="1" stroke="none" stroke-dasharray="none" stroke-linecap="round" stroke-linejoin="miter" stroke-miterlimit="4" stroke-opacity="1" stroke-width="1" opacity="1"/><rect id="rect5515" width="5" height="7" x="-10" y="-47" fill="url(#radialGradient5796)" fill-opacity="1" stroke="none" stroke-dasharray="none" stroke-linecap="round" stroke-linejoin="miter" stroke-miterlimit="4" stroke-opacity="1" stroke-width="1" opacity="1" transform="scale(-1,-1)"/><rect id="rect5517" width="28" height="7" x="10" y="40" fill="url(#linearGradient5798)" fill-opacity="1" stroke="none" stroke-dasharray="none" stroke-linecap="round" stroke-linejoin="miter" stroke-miterlimit="4" stroke-opacity="1" stroke-width="1" opacity="1"/></g></g><g id="g5519" display="inline" transform="matrix(0.9548466,0,0,0.5555562,-148.98776,79.888875)"><g id="g5521" opacity=".4" transform="matrix(1.052632,0,0,1.285713,-1.263158,-13.42854)"><rect id="rect5523" width="5" height="7" x="38" y="40" fill="url(#radialGradient5800)" fill-opacity="1" stroke="none" stroke-dasharray="none" stroke-linecap="round" stroke-linejoin="miter" stroke-miterlimit="4" stroke-opacity="1" stroke-width="1" opacity="1"/><rect id="rect5525" width="5" height="7" x="-10" y="-47" fill="url(#radialGradient5802)" fill-opacity="1" stroke="none" stroke-dasharray="none" stroke-linecap="round" stroke-linejoin="miter" stroke-miterlimit="4" stroke-opacity="1" stroke-width="1" opacity="1" transform="scale(-1,-1)"/><rect id="rect5527" width="28" height="7" x="10" y="40" fill="url(#linearGradient5804)" fill-opacity="1" stroke="none" stroke-dasharray="none" stroke-linecap="round" stroke-linejoin="miter" stroke-miterlimit="4" stroke-opacity="1" stroke-width="1" opacity="1"/></g></g><path id="path5529" fill="url(#radialGradient5843)" fill-opacity="1" stroke="url(#linearGradient5845)" stroke-miterlimit="4" stroke-width="1" d="M -141.47614,63.5 C -141.47614,63.5 -124,63.5 -122.5,63.5 C -118.62295,63.572942 -116,66 -113.5,68.5 C -111,71 -108.89232,73.752625 -108.5,77.5 C -108.5,79 -108.5,102.47614 -108.5,102.47614 C -108.5,103.59736 -109.40264,104.5 -110.52385,104.5 L -141.47614,104.5 C -142.59736,104.5 -143.5,103.59736 -143.5,102.47614 L -143.5,65.523858 C -143.5,64.402641 -142.59736,63.5 -141.47614,63.5 z" display="inline"/><path id="path5531" fill="url(#radialGradient5810)" fill-opacity="1" stroke="none" stroke-miterlimit="4" stroke-width="1" d="M 8.53125,4 C 7.6730803,4 7,4.6730802 7,5.53125 L 7,42.46875 C 7,43.32692 7.6730802,44 8.53125,44 L 39.46875,44 C 40.326919,44 41,43.326918 41,42.46875 C 41,42.46875 41,19 41,17.5 C 41,16.10803 40.513021,13.200521 38.65625,11.34375 C 36.65625,9.34375 35.65625,8.34375 33.65625,6.34375 C 31.799479,4.4869792 28.89197,4 27.5,4 C 26,4 8.53125,4 8.53125,4 z" display="inline" opacity=".68" transform="translate(-150,60)"/><path id="rect5857" fill="url(#linearGradient6475)" fill-opacity="1" fill-rule="evenodd" stroke="none" stroke-dasharray="none" stroke-dashoffset="0" stroke-linecap="round" stroke-linejoin="round" stroke-miterlimit="4" stroke-opacity="1" stroke-width="1" marker-end="none" marker-mid="none" marker-start="none" d="M -138.59375,69.125 C -138.81243,69.125 -139,69.312565 -139,69.53125 C -139,69.749934 -138.81243,69.937499 -138.59375,69.9375 L -117.40625,69.9375 C -117.18757,69.9375 -117,69.749934 -117,69.53125 C -117,69.312566 -117.18757,69.125 -117.40625,69.125 L -138.59375,69.125 z M -138.53125,71.0625 C -138.79094,71.0625 -139,71.271563 -139,71.53125 C -139,71.790937 -138.79094,72 -138.53125,72 L -116.46875,72 C -116.20906,72 -116,71.790937 -116,71.53125 C -116,71.271563 -116.20906,71.0625 -116.46875,71.0625 L -138.53125,71.0625 z M -138.53125,73.0625 C -138.79094,73.0625 -139,73.271563 -139,73.53125 C -139,73.790937 -138.79094,74 -138.53125,74 L -113.34375,74 C -113.08406,74 -112.875,73.790937 -112.875,73.53125 C -112.875,73.271563 -113.08406,73.0625 -113.34375,73.0625 L -138.53125,73.0625 z M -138.53125,75.0625 C -138.79094,75.0625 -139,75.271563 -139,75.53125 C -139,75.790937 -138.79094,76 -138.53125,76 L -113.34375,76 C -113.08406,76 -112.875,75.790937 -112.875,75.53125 C -112.875,75.271563 -113.08406,75.0625 -113.34375,75.0625 L -138.53125,75.0625 z M -138.53125,77.0625 C -138.79094,77.0625 -139,77.271563 -139,77.53125 C -139,77.790937 -138.79094,78 -138.53125,78 L -113.34375,78 C -113.08406,78 -112.875,77.790937 -112.875,77.53125 C -112.875,77.271563 -113.08406,77.0625 -113.34375,77.0625 L -138.53125,77.0625 z" display="inline" opacity=".15" overflow="visible" visibility="visible" style="marker:none"/><path id="path5533" fill="url(#radialGradient5839)" fill-opacity="1" stroke="none" stroke-miterlimit="4" stroke-width="1" d="M -122.5,64 C -123.88889,64 -122.54207,64.497088 -121.15625,65.125 C -119.77043,65.752912 -116.18337,68.340052 -117,72 C -112.67669,71.569417 -110.32087,75.122378 -110,76.28125 C -109.67913,77.440122 -109,78.888889 -109,77.5 C -108.97167,73.694419 -111.84543,71.068299 -113.84375,68.84375 C -115.84207,66.619201 -118.84621,64.476761 -122.5,64 z" display="inline"/><path id="path5535" fill="url(#linearGradient5836)" fill-opacity="1" stroke="none" stroke-miterlimit="4" stroke-width="1" d="M -121.39912,65.014353 C -120.47682,65.014353 -118.39068,71.210015 -119.31298,75.343603 C -115.01802,74.915844 -110.4596,75.43178 -110,76.28125 C -110.32087,75.122378 -112.67669,71.569417 -117,72 C -116.13534,68.124761 -120.18657,65.382702 -121.39912,65.014353 z" display="inline" opacity=".879"/><path id="path5537" fill="none" fill-opacity="1" stroke="url(#linearGradient5816)" stroke-miterlimit="4" stroke-width="1" d="M -51.46875,4.5 C -52.051916,4.5 -52.5,4.9480842 -52.5,5.53125 L -52.5,42.46875 C -52.5,43.051915 -52.051914,43.5 -51.46875,43.5 L -20.53125,43.5 C -19.948085,43.5 -19.5,43.051914 -19.5,42.46875 C -19.5,42.46875 -19.5,19 -19.5,17.5 C -19.5,16.220971 -19.980469,13.394531 -21.6875,11.6875 C -23.6875,9.6875 -24.6875,8.6875 -26.6875,6.6875 C -28.394531,4.9804687 -31.220971,4.5 -32.5,4.5 C -34,4.5 -51.46875,4.5 -51.46875,4.5 z" display="inline" transform="translate(-90,60)"/><g id="g5539" fill="#000" display="inline" opacity=".15" transform="matrix(0.928889,0,0,1,-148.28889,60)"><rect id="rect5549" width="28.125" height=".938" x="10" y="19.063" fill="#000" fill-opacity="1" fill-rule="evenodd" stroke="none" stroke-dasharray="none" stroke-dashoffset="0" stroke-linecap="round" stroke-linejoin="round" stroke-miterlimit="4" stroke-opacity="1" stroke-width="1" marker-end="none" marker-mid="none" marker-start="none" display="inline" opacity="1" overflow="visible" rx=".505" ry=".469" visibility="visible" style="marker:none"/><rect id="rect5553" width="28.125" height=".938" x="10" y="21.063" fill="#000" fill-opacity="1" fill-rule="evenodd" stroke="none" stroke-dasharray="none" stroke-dashoffset="0" stroke-linecap="round" stroke-linejoin="round" stroke-miterlimit="4" stroke-opacity="1" stroke-width="1" marker-end="none" marker-mid="none" marker-start="none" display="inline" opacity="1" overflow="visible" rx=".505" ry=".469" visibility="visible" style="marker:none"/><rect id="rect5555" width="28.125" height=".938" x="10" y="23.063" fill="#000" fill-opacity="1" fill-rule="evenodd" stroke="none" stroke-dasharray="none" stroke-dashoffset="0" stroke-linecap="round" stroke-linejoin="round" stroke-miterlimit="4" stroke-opacity="1" stroke-width="1" marker-end="none" marker-mid="none" marker-start="none" display="inline" opacity="1" overflow="visible" rx=".505" ry=".469" visibility="visible" style="marker:none"/><rect id="rect5557" width="28.125" height=".938" x="10" y="25.063" fill="#000" fill-opacity="1" fill-rule="evenodd" stroke="none" stroke-dasharray="none" stroke-dashoffset="0" stroke-linecap="round" stroke-linejoin="round" stroke-miterlimit="4" stroke-opacity="1" stroke-width="1" marker-end="none" marker-mid="none" marker-start="none" display="inline" opacity="1" overflow="visible" rx=".505" ry=".469" visibility="visible" style="marker:none"/><rect id="rect5559" width="28.125" height=".938" x="10" y="27.063" fill="#000" fill-opacity="1" fill-rule="evenodd" stroke="none" stroke-dasharray="none" stroke-dashoffset="0" stroke-linecap="round" stroke-linejoin="round" stroke-miterlimit="4" stroke-opacity="1" stroke-width="1" marker-end="none" marker-mid="none" marker-start="none" display="inline" opacity="1" overflow="visible" rx=".505" ry=".469" visibility="visible" style="marker:none"/><rect id="rect5561" width="28.125" height=".938" x="10" y="29.063" fill="#000" fill-opacity="1" fill-rule="evenodd" stroke="none" stroke-dasharray="none" stroke-dashoffset="0" stroke-linecap="round" stroke-linejoin="round" stroke-miterlimit="4" stroke-opacity="1" stroke-width="1" marker-end="none" marker-mid="none" marker-start="none" display="inline" opacity="1" overflow="visible" rx=".505" ry=".469" visibility="visible" style="marker:none"/><rect id="rect5563" width="28.125" height=".938" x="10" y="31.063" fill="#000" fill-opacity="1" fill-rule="evenodd" stroke="none" stroke-dasharray="none" stroke-dashoffset="0" stroke-linecap="round" stroke-linejoin="round" stroke-miterlimit="4" stroke-opacity="1" stroke-width="1" marker-end="none" marker-mid="none" marker-start="none" display="inline" opacity="1" overflow="visible" rx=".505" ry=".469" visibility="visible" style="marker:none"/><rect id="rect5565" width="28.125" height=".938" x="10" y="33.063" fill="#000" fill-opacity="1" fill-rule="evenodd" stroke="none" stroke-dasharray="none" stroke-dashoffset="0" stroke-linecap="round" stroke-linejoin="round" stroke-miterlimit="4" stroke-opacity="1" stroke-width="1" marker-end="none" marker-mid="none" marker-start="none" display="inline" opacity="1" overflow="visible" rx=".505" ry=".469" visibility="visible" style="marker:none"/><rect id="rect5567" width="28.125" height=".938" x="10" y="35.063" fill="#000" fill-opacity="1" fill-rule="evenodd" stroke="none" stroke-dasharray="none" stroke-dashoffset="0" stroke-linecap="round" stroke-linejoin="round" stroke-miterlimit="4" stroke-opacity="1" stroke-width="1" marker-end="none" marker-mid="none" marker-start="none" display="inline" opacity="1" overflow="visible" rx=".505" ry=".469" visibility="visible" style="marker:none"/><rect id="rect5569" width="13.813" height=".938" x="10" y="37.063" fill="#000" fill-opacity="1" fill-rule="evenodd" stroke="none" stroke-dasharray="none" stroke-dashoffset="0" stroke-linecap="round" stroke-linejoin="round" stroke-miterlimit="4" stroke-opacity="1" stroke-width="1" marker-end="none" marker-mid="none" marker-start="none" display="inline" opacity="1" overflow="visible" rx=".505" ry=".469" visibility="visible" style="marker:none"/></g></g><path id="path4112" fill="url(#radialGradient17299)" fill-opacity="1" stroke="none" stroke-opacity="1" d="M 45.052803,38.908627 A 20.203051,7.4751287 0 1 1 4.6467018,38.908627 A 20.203051,7.4751287 0 1 1 45.052803,38.908627 z" display="inline" opacity=".833" transform="matrix(0.704551,0,0,0.87593,12.726159,7.3710773)"/><g id="g2615" transform="translate(-40.000001,-9.8521618e-8)"><path id="path19716" fill="#5d65b4" fill-opacity="1" fill-rule="nonzero" stroke="#3d4384" stroke-dasharray="none" stroke-dashoffset="0" stroke-linecap="round" stroke-linejoin="round" stroke-miterlimit="4" stroke-opacity="1" stroke-width="1" d="M 114.99324,33.06237 A 17.500893,9.9878836 0 1 1 79.991455,33.06237 A 17.500893,9.9878836 0 1 1 114.99324,33.06237 z" transform="matrix(0.945073,0,0,0.905454,-21.13524,5.644298)"/><path id="path19718" fill="none" fill-opacity="1" fill-rule="nonzero" stroke="#9ca1d2" stroke-dasharray="none" stroke-dashoffset="0" stroke-linecap="round" stroke-linejoin="round" stroke-miterlimit="4" stroke-opacity="1" stroke-width="1.179" d="M 114.99324,33.06237 A 17.500893,9.9878836 0 1 1 79.991455,33.06237 A 17.500893,9.9878836 0 1 1 114.99324,33.06237 z" transform="matrix(0.889513,0,0,0.809391,-15.71799,8.823718)"/><path id="path19720" fill="url(#linearGradient2623)" fill-opacity="1" fill-rule="evenodd" stroke="none" stroke-linecap="butt" stroke-linejoin="miter" stroke-opacity="1" stroke-width="1" d="M 70.665432,27.000328 C 61.89479,27.064462 55.175334,30.890635 54.931045,35.372211 C 54.880923,36.291712 55.090604,37.160791 55.61895,37.989754 C 59.615648,34.256906 66.059079,35.21076 71.364561,35.819561 C 76.689142,36.430553 83.034015,36.79209 86.677659,33.674397 C 86.684867,33.668221 86.650413,33.635394 86.658127,33.629836 C 85.142064,29.825317 78.638802,27.000328 70.882116,27.000328 C 70.812737,27.000328 70.734605,26.999871 70.665432,27.000328 z" opacity=".558"/><path id="path19724" fill="none" fill-opacity="1" fill-rule="evenodd" stroke="url(#linearGradient2625)" stroke-dasharray="none" stroke-linecap="round" stroke-linejoin="round" stroke-miterlimit="4" stroke-opacity="1" stroke-width="2" d="M 69.156251,29.324658 L 68.156251,34.324658 C 68.244866,32.725652 67.060419,31.574658 65.875001,31.574658 L 61.750001,31.574658 L 60.125001,40.043408 L 62.156251,40.074658 L 62.593751,37.887158 L 64.781251,37.887158 C 65.97237,37.887158 67.403295,36.950621 67.968751,35.262158 L 67.468751,37.887158 L 69.500001,37.887158 L 70.406251,33.137158 L 71.687501,33.137158 C 71.942724,33.139133 72.154445,33.170823 72.312501,33.230908 C 72.342033,33.243062 72.381195,33.278073 72.406251,33.293408 C 72.411077,33.29661 72.432863,33.290069 72.437501,33.293408 C 72.441949,33.296887 72.464495,33.321037 72.468751,33.324658 C 72.472813,33.328424 72.496135,33.351995 72.500001,33.355908 C 72.503468,33.360123 72.527986,33.382788 72.531251,33.387158 C 72.534311,33.391686 72.528398,33.413721 72.531251,33.418408 C 72.533895,33.423258 72.560068,33.444643 72.562501,33.449658 C 72.564721,33.45484 72.560497,33.475556 72.562501,33.480908 C 72.567861,33.49748 72.590388,33.52524 72.593751,33.543408 C 72.595541,33.555885 72.592879,33.592687 72.593751,33.605908 C 72.594158,33.619509 72.594287,33.654033 72.593751,33.668408 C 72.592737,33.683178 72.595734,33.715333 72.593751,33.730908 C 72.590041,33.754885 72.568458,33.798792 72.562501,33.824658 L 71.812501,37.887158 L 73.875001,37.887158 L 74.625001,33.793408 C 74.777548,33.001704 74.621388,32.479053 74.312501,32.137158 C 73.843178,31.6381 73.027863,31.52354 72.375001,31.512158 L 70.687501,31.512158 L 71.125001,29.324658 L 69.156251,29.324658 z M 75.593751,31.574658 L 73.968751,40.043408 L 76.000001,40.074658 L 76.406251,37.887158 L 78.625001,37.887158 C 79.895526,37.887158 81.431331,36.828343 81.906251,34.918408 C 82.381171,33.008473 81.049751,31.574658 79.718751,31.574658 L 75.593751,31.574658 z M 63.468751,33.105908 L 64.718751,33.105908 C 65.013563,33.105909 65.279028,33.153724 65.468751,33.230908 C 65.503947,33.246263 65.562313,33.275481 65.593751,33.293408 C 65.631877,33.316608 65.686461,33.360085 65.718751,33.387158 C 65.734931,33.402135 65.766501,33.43354 65.781251,33.449658 C 65.78601,33.455156 65.807899,33.475285 65.812501,33.480908 C 65.816947,33.486655 65.83946,33.506287 65.843751,33.512158 C 65.88511,33.5721 65.911226,33.658985 65.937501,33.730908 C 65.942462,33.745526 65.964374,33.778328 65.968751,33.793408 C 66.052551,34.107251 66.009723,34.526764 65.875001,35.012158 C 65.789325,35.320845 65.6746,35.577314 65.531251,35.762158 C 65.519131,35.777181 65.481212,35.810385 65.468751,35.824658 C 65.443495,35.852466 65.401554,35.893474 65.375001,35.918408 C 65.362148,35.929647 65.325736,35.970232 65.312501,35.980908 C 64.909715,36.292878 64.329394,36.355908 63.562501,36.355908 C 62.293787,36.355907 62.843751,36.355908 62.843751,36.355908 L 63.468751,33.105908 z M 77.312501,33.105908 L 78.562501,33.105908 C 79.01174,33.105909 79.355845,33.21389 79.562501,33.387158 C 79.578682,33.402135 79.610251,33.43354 79.625001,33.449658 C 79.677351,33.510138 79.716202,33.593177 79.750001,33.668408 C 79.755848,33.682323 79.775996,33.716523 79.781251,33.730908 C 79.786212,33.745526 79.808124,33.778328 79.812501,33.793408 C 79.896301,34.107251 79.853473,34.526764 79.718751,35.012158 C 79.622367,35.359431 79.480721,35.631973 79.312501,35.824658 C 79.299873,35.838562 79.262958,35.87398 79.250001,35.887158 C 79.243442,35.893568 79.225389,35.912174 79.218751,35.918408 C 79.199758,35.935696 79.176103,35.964895 79.156251,35.980908 C 78.753466,36.292878 78.173145,36.355908 77.406251,36.355908 C 76.137539,36.355907 76.687501,36.355908 76.687501,36.355908 L 77.312501,33.105908 z" opacity=".7"/><path id="path19732" fill="#000" fill-opacity="1" fill-rule="evenodd" stroke="none" stroke-dasharray="none" stroke-linecap="butt" stroke-linejoin="miter" stroke-miterlimit="4" stroke-opacity="1" stroke-width="1.992" d="M 69.156251,29.324658 L 68.156251,34.324658 C 68.244866,32.725652 67.060419,31.574658 65.875001,31.574658 L 61.750001,31.574658 L 60.125001,40.043408 L 62.156251,40.074658 L 62.593751,37.887158 L 64.781251,37.887158 C 65.97237,37.887158 67.403295,36.950621 67.968751,35.262158 L 67.468751,37.887158 L 69.500001,37.887158 L 70.406251,33.137158 L 71.687501,33.137158 C 71.942724,33.139133 72.154445,33.170823 72.312501,33.230908 C 72.342033,33.243062 72.381195,33.278073 72.406251,33.293408 C 72.411077,33.29661 72.432863,33.290069 72.437501,33.293408 C 72.441949,33.296887 72.464495,33.321037 72.468751,33.324658 C 72.472813,33.328424 72.496135,33.351995 72.500001,33.355908 C 72.503468,33.360123 72.527986,33.382788 72.531251,33.387158 C 72.534311,33.391686 72.528398,33.413721 72.531251,33.418408 C 72.533895,33.423258 72.560068,33.444643 72.562501,33.449658 C 72.564721,33.45484 72.560497,33.475556 72.562501,33.480908 C 72.567861,33.49748 72.590388,33.52524 72.593751,33.543408 C 72.595541,33.555885 72.592879,33.592687 72.593751,33.605908 C 72.594158,33.619509 72.594287,33.654033 72.593751,33.668408 C 72.592737,33.683178 72.595734,33.715333 72.593751,33.730908 C 72.590041,33.754885 72.568458,33.798792 72.562501,33.824658 L 71.812501,37.887158 L 73.875001,37.887158 L 74.625001,33.793408 C 74.777548,33.001704 74.621388,32.479053 74.312501,32.137158 C 73.843178,31.6381 73.027863,31.52354 72.375001,31.512158 L 70.687501,31.512158 L 71.125001,29.324658 L 69.156251,29.324658 z M 75.593751,31.574658 L 73.968751,40.043408 L 76.000001,40.074658 L 76.406251,37.887158 L 78.625001,37.887158 C 79.895526,37.887158 81.431331,36.828343 81.906251,34.918408 C 82.381171,33.008473 81.049751,31.574658 79.718751,31.574658 L 75.593751,31.574658 z M 63.468751,33.105908 L 64.718751,33.105908 C 65.013563,33.105909 65.279028,33.153724 65.468751,33.230908 C 65.503947,33.246263 65.562313,33.275481 65.593751,33.293408 C 65.631877,33.316608 65.686461,33.360085 65.718751,33.387158 C 65.734931,33.402135 65.766501,33.43354 65.781251,33.449658 C 65.78601,33.455156 65.807899,33.475285 65.812501,33.480908 C 65.816947,33.486655 65.83946,33.506287 65.843751,33.512158 C 65.88511,33.5721 65.911226,33.658985 65.937501,33.730908 C 65.942462,33.745526 65.964374,33.778328 65.968751,33.793408 C 66.052551,34.107251 66.009723,34.526764 65.875001,35.012158 C 65.789325,35.320845 65.6746,35.577314 65.531251,35.762158 C 65.519131,35.777181 65.481212,35.810385 65.468751,35.824658 C 65.443495,35.852466 65.401554,35.893474 65.375001,35.918408 C 65.362148,35.929647 65.325736,35.970232 65.312501,35.980908 C 64.909715,36.292878 64.329394,36.355908 63.562501,36.355908 C 62.293787,36.355907 62.843751,36.355908 62.843751,36.355908 L 63.468751,33.105908 z M 77.312501,33.105908 L 78.562501,33.105908 C 79.01174,33.105909 79.355845,33.21389 79.562501,33.387158 C 79.578682,33.402135 79.610251,33.43354 79.625001,33.449658 C 79.677351,33.510138 79.716202,33.593177 79.750001,33.668408 C 79.755848,33.682323 79.775996,33.716523 79.781251,33.730908 C 79.786212,33.745526 79.808124,33.778328 79.812501,33.793408 C 79.896301,34.107251 79.853473,34.526764 79.718751,35.012158 C 79.622367,35.359431 79.480721,35.631973 79.312501,35.824658 C 79.299873,35.838562 79.262958,35.87398 79.250001,35.887158 C 79.243442,35.893568 79.225389,35.912174 79.218751,35.918408 C 79.199758,35.935696 79.176103,35.964895 79.156251,35.980908 C 78.753466,36.292878 78.173145,36.355908 77.406251,36.355908 C 76.137539,36.355907 76.687501,36.355908 76.687501,36.355908 L 77.312501,33.105908 z"/><path id="path19738" fill="url(#linearGradient2627)" fill-opacity="1" fill-rule="evenodd" stroke="none" stroke-dasharray="none" stroke-linecap="butt" stroke-linejoin="miter" stroke-miterlimit="4" stroke-opacity="1" stroke-width="1.992" d="M 69.156249,29.336846 L 68.156249,34.243096 C 68.204624,32.683972 67.041895,31.586846 65.874999,31.586846 L 61.749999,31.586846 L 60.968749,35.711846 C 61.634638,35.597911 62.308469,35.529559 62.999999,35.493096 L 63.468749,33.118096 L 64.718749,33.118096 C 65.011367,33.118095 65.274726,33.167935 65.468749,33.243096 C 65.493429,33.253311 65.539734,33.262903 65.562499,33.274346 C 65.591986,33.290146 65.630303,33.318891 65.656249,33.336846 C 65.667248,33.341971 65.707983,33.362818 65.718749,33.368096 C 65.724997,33.373568 65.744109,33.393451 65.749999,33.399346 C 65.755576,33.405589 65.77594,33.424081 65.781249,33.430596 C 65.801598,33.457442 65.825138,33.497372 65.843749,33.524346 C 65.849206,33.535224 65.869695,33.575846 65.874999,33.586846 C 65.882047,33.599807 65.899804,33.635905 65.906249,33.649346 C 65.91194,33.654759 65.931846,33.675153 65.937499,33.680596 C 65.945824,33.701822 65.961746,33.752072 65.968749,33.774346 C 66.060676,34.091027 66.013006,34.527113 65.874999,35.024346 C 65.825914,35.201199 65.75672,35.358399 65.687499,35.493096 C 66.402725,35.527871 67.101609,35.580171 67.812499,35.649346 C 67.85587,35.551512 67.900485,35.472093 67.937499,35.368096 L 67.874999,35.649346 C 68.547501,35.71545 69.218623,35.820481 69.874999,35.899346 L 70.406249,33.149346 L 71.687499,33.149346 C 71.942722,33.151321 72.154443,33.183011 72.312499,33.243096 C 72.315258,33.243011 72.34057,33.243408 72.343749,33.243096 C 72.354859,33.248451 72.39586,33.268476 72.406249,33.274346 C 72.411836,33.279984 72.431959,33.299924 72.437499,33.305596 C 72.448593,33.31608 72.489685,33.357028 72.499999,33.368096 C 72.505552,33.373331 72.525899,33.393955 72.531249,33.399346 C 72.539681,33.415258 72.557505,33.450186 72.562499,33.461846 C 72.562262,33.465072 72.562572,33.490326 72.562499,33.493096 C 72.568295,33.498572 72.588008,33.518826 72.593749,33.524346 C 72.593751,33.535193 72.593974,33.575815 72.593749,33.586846 C 72.593669,33.592982 72.593647,33.614695 72.593749,33.618096 C 72.593656,33.639075 72.595993,33.689091 72.593749,33.711846 C 72.592823,33.715366 72.59508,33.739139 72.593749,33.743096 C 72.588656,33.756119 72.565903,33.794511 72.562499,33.805596 L 72.124999,36.149346 C 72.795608,36.226198 73.466433,36.308975 74.156249,36.368096 L 74.624999,33.805596 C 74.735669,33.231223 74.685079,32.786319 74.531249,32.461846 C 74.483859,32.367102 74.407689,32.257403 74.343749,32.180596 C 74.320009,32.153226 74.275619,32.112031 74.249999,32.086846 C 74.240219,32.077601 74.203919,32.040695 74.187499,32.024346 C 74.180019,32.018033 74.163849,31.999254 74.156249,31.993096 C 73.677416,31.620751 72.957528,31.534503 72.374999,31.524346 L 70.687499,31.524346 L 71.124999,29.336846 L 69.156249,29.336846 z M 75.593749,31.586846 L 74.656249,36.399346 C 76.903959,36.571094 79.195799,36.597965 81.312501,36.274346 C 81.563501,35.894255 81.780101,35.437922 81.906251,34.930596 C 82.381171,33.020663 81.049751,31.586846 79.718749,31.586846 L 75.593749,31.586846 z M 77.312499,33.118096 L 78.562499,33.118096 C 78.843269,33.118095 79.095849,33.141626 79.281249,33.211846 C 79.316709,33.227771 79.377919,33.259216 79.406249,33.274346 C 79.429829,33.287792 79.478529,33.321987 79.499999,33.336846 C 79.510999,33.341971 79.551729,33.362818 79.562499,33.368096 C 79.565499,33.371624 79.591099,33.395455 79.593749,33.399346 C 79.600629,33.412067 79.617109,33.45037 79.624999,33.461846 C 79.630599,33.467335 79.650689,33.487576 79.656249,33.493096 C 79.661859,33.498569 79.681919,33.518842 79.687499,33.524346 C 79.692959,33.535224 79.713449,33.575846 79.718749,33.586846 C 79.725799,33.599807 79.743559,33.635905 79.749999,33.649346 C 79.897479,33.977628 79.876469,34.45608 79.718749,35.024346 C 79.640219,35.30731 79.533759,35.533897 79.406249,35.711846 C 79.373149,35.756251 79.322399,35.821319 79.281249,35.868096 C 79.265009,35.885683 79.233689,35.91657 79.218749,35.930596 C 79.212419,35.936359 79.193919,35.956229 79.187499,35.961846 C 78.783779,36.301179 78.198709,36.368096 77.406249,36.368096 C 76.137539,36.368097 76.687499,36.368096 76.687499,36.368096 L 77.312499,33.118096 z" opacity=".122"/></g></g></svg>