<svg xmlns="http://www.w3.org/2000/svg" xmlns:svg="http://www.w3.org/2000/svg" xmlns:xlink="http://www.w3.org/1999/xlink" id="svg7231" width="48" height="48"><defs id="defs7233"><linearGradient id="linearGradient8429"><stop id="stop8431" offset="0" stop-color="#fff" stop-opacity="1"/><stop id="stop8433" offset="1" stop-color="#dbdbdb" stop-opacity="1"/></linearGradient><linearGradient id="linearGradient8435" x1="75.99" x2="99.266" y1="51.771" y2="98.235" gradientUnits="userSpaceOnUse" xlink:href="#linearGradient8429"/><linearGradient id="linearGradient8421"><stop id="stop8423" offset="0" stop-color="#fff" stop-opacity="1"/><stop id="stop8425" offset="1" stop-color="#dbdbdb" stop-opacity="1"/></linearGradient><linearGradient id="linearGradient8427" x1="56.88" x2="70.652" y1="71.77" y2="98.839" gradientUnits="userSpaceOnUse" xlink:href="#linearGradient8421"/><linearGradient id="linearGradient7649" x1="153.313" x2="169.127" y1="141.343" y2="166.096" gradientUnits="userSpaceOnUse" xlink:href="#linearGradient10126"/><linearGradient id="linearGradient10126"><stop id="stop10128" offset="0" stop-color="#FFF" stop-opacity="1"/><stop id="stop10130" offset="1" stop-color="#DBDBDB" stop-opacity="1"/></linearGradient><linearGradient id="linearGradient7441" x1="153.313" x2="169.127" y1="141.343" y2="166.096" gradientUnits="userSpaceOnUse" xlink:href="#linearGradient10126"/><radialGradient id="radialGradient9851" cx="171.377" cy="29.048" r="100.488" fx="171.377" fy="29.048" gradientTransform="matrix(0.708713,0,-5.81099e-8,0.327598,49.0781,44.3665)" gradientUnits="userSpaceOnUse" xlink:href="#linearGradient9841"/><linearGradient id="linearGradient9841"><stop id="stop9843" offset="0" stop-color="#FFF" stop-opacity="1"/><stop id="stop9845" offset="1" stop-color="#FFF" stop-opacity="0"/></linearGradient><linearGradient id="linearGradient9847" x1="157.73" x2="157.73" y1="66.342" y2="253.597" gradientTransform="matrix(0.972642,0,0,1,6.70768,0)" gradientUnits="userSpaceOnUse" xlink:href="#linearGradient9841"/><linearGradient id="linearGradient9937"><stop id="stop9939" offset="0" stop-color="#fcaf3e" stop-opacity="1"/><stop id="stop9941" offset=".9" stop-color="#f57900" stop-opacity="1"/><stop id="stop9943" offset="1" stop-color="#fcaf3e" stop-opacity="1"/></linearGradient><linearGradient id="linearGradient7439" x1="159" x2="159" y1="51" y2="247" gradientUnits="userSpaceOnUse" xlink:href="#linearGradient9937"/><radialGradient id="radialGradient9190" cx="605.714" cy="486.648" r="117.143" fx="605.714" fy="486.648" gradientTransform="matrix(-2.774389,0,0,1.969706,112.7623,-872.8854)" gradientUnits="userSpaceOnUse" xlink:href="#linearGradient5060"/><linearGradient id="linearGradient5060"><stop id="stop5062" offset="0" stop-color="#000" stop-opacity="1"/><stop id="stop5064" offset="1" stop-color="#000" stop-opacity="0"/></linearGradient><radialGradient id="radialGradient9188" cx="605.714" cy="486.648" r="117.143" fx="605.714" fy="486.648" gradientTransform="matrix(2.774389,0,0,1.969706,-1891.633,-872.8854)" gradientUnits="userSpaceOnUse" xlink:href="#linearGradient5060"/><linearGradient id="linearGradient5048"><stop id="stop5050" offset="0" stop-color="#000" stop-opacity="0"/><stop id="stop5056" offset=".5" stop-color="#000" stop-opacity="1"/><stop id="stop5052" offset="1" stop-color="#000" stop-opacity="0"/></linearGradient><linearGradient id="linearGradient9186" x1="302.857" x2="302.857" y1="366.648" y2="609.505" gradientTransform="matrix(2.774389,0,0,1.969706,-1892.179,-872.8854)" gradientUnits="userSpaceOnUse" xlink:href="#linearGradient5048"/></defs><metadata id="metadata7236"/><g id="layer1"><g id="g13071" display="inline" transform="matrix(2.3640267e-2,0,0,2.2995369e-2,45.026494,39.465331)"><rect id="rect13073" width="1339.633" height="478.357" x="-1559.252" y="-150.697" fill="url(#linearGradient9186)" fill-opacity="1" fill-rule="nonzero" stroke="none" stroke-dasharray="none" stroke-dashoffset="0" stroke-linecap="round" stroke-linejoin="miter" stroke-miterlimit="4" stroke-opacity="1" stroke-width="1" marker-end="none" marker-mid="none" marker-start="none" display="inline" opacity=".402" overflow="visible" visibility="visible" style="marker:none"/><path id="path13075" fill="url(#radialGradient9188)" fill-opacity="1" fill-rule="nonzero" stroke="none" stroke-dasharray="none" stroke-dashoffset="0" stroke-linecap="round" stroke-linejoin="miter" stroke-miterlimit="4" stroke-opacity="1" stroke-width="1" marker-end="none" marker-mid="none" marker-start="none" d="M -219.61876,-150.68038 C -219.61876,-150.68038 -219.61876,327.65041 -219.61876,327.65041 C -76.744594,328.55086 125.78146,220.48075 125.78138,88.454235 C 125.78138,-43.572302 -33.655436,-150.68036 -219.61876,-150.68038 z" display="inline" opacity=".402" overflow="visible" visibility="visible" style="marker:none"/><path id="path13077" fill="url(#radialGradient9190)" fill-opacity="1" fill-rule="nonzero" stroke="none" stroke-dasharray="none" stroke-dashoffset="0" stroke-linecap="round" stroke-linejoin="miter" stroke-miterlimit="4" stroke-opacity="1" stroke-width="1" marker-end="none" marker-mid="none" marker-start="none" d="M -1559.2523,-150.68038 C -1559.2523,-150.68038 -1559.2523,327.65041 -1559.2523,327.65041 C -1702.1265,328.55086 -1904.6525,220.48075 -1904.6525,88.454235 C -1904.6525,-43.572302 -1745.2157,-150.68036 -1559.2523,-150.68038 z" display="inline" opacity=".402" overflow="visible" visibility="visible" style="marker:none"/></g><g id="g9783" display="inline" transform="matrix(0.186543,0,0,0.186543,-3.941663,-4.0770805)"><g id="g9791" transform="translate(92.3954,114.606)"><rect id="rect9793" width="48" height="48" x="108.315" y="-22.108" fill="#eeeeec" fill-opacity="1" fill-rule="nonzero" stroke="none" stroke-dasharray="none" stroke-dashoffset="0" stroke-linecap="butt" stroke-linejoin="miter" stroke-miterlimit="4" stroke-opacity="1" stroke-width="2" display="none" overflow="visible" visibility="visible" style="marker:none"/><rect id="rect9795" width="32" height="32" x="115.252" y="53.892" fill="#eeeeec" fill-opacity="1" fill-rule="nonzero" stroke="none" stroke-dasharray="none" stroke-dashoffset="0" stroke-linecap="butt" stroke-linejoin="miter" stroke-miterlimit="4" stroke-opacity="1" stroke-width="2" display="none" overflow="visible" visibility="visible" style="marker:none"/><rect id="rect9797" width="22" height="22" x="115.252" y="104.955" fill="#eeeeec" fill-opacity="1" fill-rule="nonzero" stroke="none" stroke-dasharray="none" stroke-dashoffset="0" stroke-linecap="butt" stroke-linejoin="miter" stroke-miterlimit="4" stroke-opacity="1" stroke-width="2" display="none" overflow="visible" visibility="visible" style="marker:none"/><rect id="rect9799" width="16" height="16" x="115.252" y="146.896" fill="#eeeeec" fill-opacity="1" fill-rule="nonzero" stroke="none" stroke-dasharray="none" stroke-dashoffset="0" stroke-linecap="butt" stroke-linejoin="miter" stroke-miterlimit="4" stroke-opacity="1" stroke-width="2" display="none" overflow="visible" visibility="visible" style="marker:none"/><rect id="rect9801" width="24" height="24" x="140.209" y="103.85" fill="#eeeeec" fill-opacity="1" fill-rule="nonzero" stroke="none" stroke-dasharray="none" stroke-dashoffset="0" stroke-linecap="butt" stroke-linejoin="miter" stroke-miterlimit="4" stroke-opacity="1" stroke-width="2" display="none" overflow="visible" visibility="visible" style="marker:none"/></g><g id="g9803" stroke="#204a87" stroke-opacity="1" stroke-width=".963" clip-path="none" transform="matrix(1.01337,0,0,1.01337,-3.35949,-0.585887)"><rect id="rect9805" width="195.756" height="201" x="53.261" y="46" fill="url(#linearGradient7439)" fill-opacity="1" fill-rule="nonzero" stroke="#ce5c00" stroke-dasharray="none" stroke-dashoffset="0" stroke-linecap="butt" stroke-linejoin="miter" stroke-miterlimit="4" stroke-opacity="1" stroke-width="5.29" display="inline" opacity="1" overflow="visible" rx="11.36" ry="11.664" visibility="visible" style="marker:none"/><rect id="rect9839" width="185.188" height="185.148" x="58.551" y="56.528" fill="none" fill-opacity="1" fill-rule="nonzero" stroke="url(#linearGradient9847)" stroke-dasharray="none" stroke-dashoffset="0" stroke-linecap="butt" stroke-linejoin="miter" stroke-miterlimit="4" stroke-opacity="1" stroke-width="5.29" display="inline" opacity=".297" overflow="visible" rx="7.722" ry="7.939" visibility="visible" style="marker:none"/><rect id="rect9849" width="185.107" height="185.148" x="58.591" y="56.528" fill="none" fill-opacity="1" fill-rule="nonzero" stroke="url(#radialGradient9851)" stroke-dasharray="none" stroke-dashoffset="0" stroke-linecap="butt" stroke-linejoin="miter" stroke-miterlimit="4" stroke-opacity="1" stroke-width="5.29" display="inline" opacity=".812" overflow="visible" rx="7.718" ry="7.939" visibility="visible" style="marker:none"/></g><g id="g10134" fill="#000" fill-opacity="1" opacity=".446" transform="matrix(0.974558,0,0,0.974558,5.0645,9.07693)"><path id="path10138" fill="#000" fill-opacity="1" fill-rule="nonzero" stroke="none" stroke-dasharray="none" stroke-dashoffset="0" stroke-linecap="butt" stroke-linejoin="miter" stroke-miterlimit="4" stroke-opacity="1" stroke-width="21.73" d="M 216,135 A 65,65 0 1 1 86,135 A 65,65 0 1 1 216,135 z" display="inline" opacity="1" overflow="visible" transform="matrix(0.2961884,0,0,0.2961884,57.022312,162.89672)" visibility="visible" style="marker:none"/></g><g id="g9813" fill="url(#linearGradient7441)" fill-opacity="1" opacity="1" transform="matrix(0.974558,0,0,0.974558,5.0645,6.73163)"><path id="path9817" fill="url(#linearGradient7649)" fill-opacity="1" fill-rule="nonzero" stroke="none" stroke-dasharray="none" stroke-dashoffset="0" stroke-linecap="butt" stroke-linejoin="miter" stroke-miterlimit="4" stroke-opacity="1" stroke-width="21.73" d="M 216,135 A 65,65 0 1 1 86,135 A 65,65 0 1 1 216,135 z" display="inline" opacity="1" overflow="visible" transform="matrix(0.2961884,0,0,0.2961884,57.022312,159.80261)" visibility="visible" style="marker:none"/></g></g><path id="path8437" fill="#000" fill-opacity="1" stroke="none" stroke-opacity="1" d="M 12.000337,26.999521 C 18.250427,26.999521 22.000337,31.739019 22.000337,37.99952 L 28.000337,37.99952 C 28.000337,29.177149 20.822847,21.999519 12.000337,21.999519 L 12.000337,26.999521 L 12.000337,26.999521 z" display="inline" opacity=".4"/><g id="g1330" stroke="#b84e15" stroke-opacity="1" display="inline" transform="matrix(0.288168,0,0,0.2986091,5.609337,6.4541036)"><path id="path1332" fill="url(#linearGradient8427)" fill-opacity="1" stroke="none" stroke-opacity="1" d="M 22.178035,65.454857 C 43.867079,65.454857 60.350212,81.326771 60.350212,102.29231 L 77.701202,102.29231 C 77.701202,72.747427 52.793879,48.710554 22.178035,48.710554 L 22.178035,65.454857 L 22.178035,65.454857 z"/></g><path id="path8439" fill="#000" fill-opacity="1" stroke="none" stroke-opacity="1" d="M 12.000347,17.99952 C 23.131807,17.99952 31.000337,26.856563 31.000337,37.999521 L 37.000347,37.999521 C 37.000347,24.214498 25.785457,12.99952 12.000347,12.99952 L 12.000347,17.99952 L 12.000347,17.99952 z" display="inline" opacity=".4"/><g id="g1334" stroke="#b84e15" stroke-opacity="1" display="inline" transform="matrix(0.2996945,0,0,0.3020164,5.193677,5.2424955)"><path id="path1336" fill="url(#linearGradient8435)" fill-opacity="1" stroke="none" stroke-opacity="1" d="M 22.712,38.928429 C 59.854702,38.928429 89.44662,68.25479 89.44662,105.15 L 106.13028,105.15 C 106.13028,59.506709 68.709232,22.373038 22.712,22.373038 L 22.712,38.928429 L 22.712,38.928429 z"/></g></g></svg>