<svg xmlns="http://www.w3.org/2000/svg" xmlns:svg="http://www.w3.org/2000/svg" xmlns:xlink="http://www.w3.org/1999/xlink" id="svg8030" width="48" height="48"><defs id="defs8032"><linearGradient id="linearGradient4873"><stop id="stop4875" offset="0" stop-color="#fff" stop-opacity="1"/><stop id="stop4877" offset="1" stop-color="#fff" stop-opacity="0"/></linearGradient><linearGradient id="linearGradient2704" x1="62.921" x2="62.93" y1="-14.035" y2="7.66" gradientTransform="matrix(1.4293184,0,0,1.4292856,-55.904195,37.017978)" gradientUnits="userSpaceOnUse" xlink:href="#linearGradient4873"/><linearGradient id="linearGradient3811"><stop id="stop3813" offset="0" stop-color="#204a87" stop-opacity="1"/><stop id="stop3815" offset="1" stop-color="#3465a4" stop-opacity="1"/></linearGradient><linearGradient id="linearGradient3927" x1="15.047" x2="15.047" y1="44.788" y2="3.885" gradientTransform="matrix(0.6784735,0,0,0.6784579,16.983096,15.454102)" gradientUnits="userSpaceOnUse" xlink:href="#linearGradient3811"/><linearGradient id="linearGradient5106"><stop id="stop5108" offset="0" stop-color="#8fb3d9" stop-opacity="1"/><stop id="stop8026" offset=".247" stop-color="#729fcf" stop-opacity="1"/><stop id="stop8028" offset=".68" stop-color="#3465a4" stop-opacity="1"/><stop id="stop5110" offset="1" stop-color="#204a87" stop-opacity="1"/></linearGradient><radialGradient id="radialGradient2707" cx="62.2" cy="-5.448" r="9.755" fx="62.2" fy="-5.448" gradientTransform="matrix(-5.4222119,2.096605e-7,-1.1878704e-7,-3.0685523,370.26345,1.2813664)" gradientUnits="userSpaceOnUse" xlink:href="#linearGradient5106"/><linearGradient id="linearGradient10691"><stop id="stop10693" offset="0" stop-color="#000" stop-opacity="1"/><stop id="stop10695" offset="1" stop-color="#000" stop-opacity="0"/></linearGradient><radialGradient id="radialGradient3042" cx="6.703" cy="73.616" r="7.228" fx="6.703" fy="73.616" gradientTransform="scale(1.902215,0.525703)" gradientUnits="userSpaceOnUse" xlink:href="#linearGradient10691"/><linearGradient id="linearGradient3656"><stop id="stop3658" offset="0" stop-color="#fff" stop-opacity="1"/><stop id="stop3660" offset="1" stop-color="#fff" stop-opacity="0"/></linearGradient><linearGradient id="linearGradient5816" x1="-26.754" x2="-24.75" y1="11.566" y2="9.688" gradientUnits="userSpaceOnUse" xlink:href="#linearGradient3656"/><linearGradient id="linearGradient3520"><stop id="stop3522" offset="0" stop-color="#000" stop-opacity=".413"/><stop id="stop3524" offset="1" stop-color="#000" stop-opacity="0"/></linearGradient><linearGradient id="linearGradient5836" x1="-18.589" x2="-28.789" y1="11.053" y2="14.07" gradientTransform="matrix(0.9223058,0,0,0.9185751,-92.447368,61.3257)" gradientUnits="userSpaceOnUse" xlink:href="#linearGradient3520"/><linearGradient id="linearGradient3671"><stop id="stop3673" offset="0" stop-color="#fff" stop-opacity="1"/><stop id="stop3691" offset=".475" stop-color="#fff" stop-opacity="1"/><stop id="stop3675" offset="1" stop-color="#fff" stop-opacity="0"/></linearGradient><radialGradient id="radialGradient5839" cx="-26.305" cy="10.108" r="7.042" fx="-26.305" fy="10.108" gradientTransform="matrix(0.4073362,-0.2798276,0.7510293,1.0932492,-115.18484,51.56213)" gradientUnits="userSpaceOnUse" xlink:href="#linearGradient3671"/><linearGradient id="linearGradient6469"><stop id="stop6471" offset="0" stop-color="#000" stop-opacity="1"/><stop id="stop6473" offset="1" stop-color="#000" stop-opacity="0"/></linearGradient><linearGradient id="linearGradient6475" x1="58.282" x2="61.181" y1="70.752" y2="67.799" gradientTransform="translate(-180,0)" gradientUnits="userSpaceOnUse" xlink:href="#linearGradient6469"/><linearGradient id="linearGradient3741"><stop id="stop3743" offset="0" stop-color="#fff" stop-opacity="1"/><stop id="stop3745" offset="1" stop-color="#fff" stop-opacity="0"/></linearGradient><radialGradient id="radialGradient5810" cx="4" cy="5.3" r="17" fx="4" fy="5.3" gradientTransform="matrix(1.8860258,0,0,1.1764706,-3.5441033,-4.2352941)" gradientUnits="userSpaceOnUse" xlink:href="#linearGradient3741"/><linearGradient id="linearGradient3613"><stop id="stop3615" offset="0" stop-color="#888a85" stop-opacity="1"/><stop id="stop3617" offset="1" stop-color="#babdb6" stop-opacity="1"/></linearGradient><linearGradient id="linearGradient5845" x1="-47.5" x2="-62.75" y1="49.021" y2="-22.502" gradientTransform="translate(-90,60)" gradientUnits="userSpaceOnUse" xlink:href="#linearGradient3613"/><linearGradient id="linearGradient3683"><stop id="stop3685" offset="0" stop-color="#f6f6f5" stop-opacity="1"/><stop id="stop3689" offset="1" stop-color="#d3d7cf" stop-opacity="1"/></linearGradient><radialGradient id="radialGradient5843" cx="-30.25" cy="35.357" r="18" fx="-30.25" fy="35.357" gradientTransform="matrix(3.9957492,0,0,1.9350367,0.62141,28.832578)" gradientUnits="userSpaceOnUse" xlink:href="#linearGradient3683"/><linearGradient id="linearGradient5804" x1="25.058" x2="25.058" y1="47.028" y2="39.999" gradientUnits="userSpaceOnUse" xlink:href="#linearGradient3702"/><radialGradient id="radialGradient5802" cx="4.993" cy="43.5" r="2.5" fx="4.993" fy="43.5" gradientTransform="matrix(2.003784,0,0,1.4,-20.01187,-104.4)" gradientUnits="userSpaceOnUse" xlink:href="#linearGradient3688"/><radialGradient id="radialGradient5800" cx="4.993" cy="43.5" r="2.5" fx="4.993" fy="43.5" gradientTransform="matrix(2.003784,0,0,1.4,27.98813,-17.4)" gradientUnits="userSpaceOnUse" xlink:href="#linearGradient3688"/><linearGradient id="linearGradient3702"><stop id="stop3704" offset="0" stop-color="#000" stop-opacity="0"/><stop id="stop3710" offset=".5" stop-color="#000" stop-opacity="1"/><stop id="stop3706" offset="1" stop-color="#000" stop-opacity="0"/></linearGradient><linearGradient id="linearGradient5798" x1="25.058" x2="25.058" y1="47.028" y2="39.999" gradientUnits="userSpaceOnUse" xlink:href="#linearGradient3702"/><radialGradient id="radialGradient5796" cx="4.993" cy="43.5" r="2.5" fx="4.993" fy="43.5" gradientTransform="matrix(2.003784,0,0,1.4,-20.01187,-104.4)" gradientUnits="userSpaceOnUse" xlink:href="#linearGradient3688"/><linearGradient id="linearGradient3688"><stop id="stop3690" offset="0" stop-color="#000" stop-opacity="1"/><stop id="stop3692" offset="1" stop-color="#000" stop-opacity="0"/></linearGradient><radialGradient id="radialGradient5794" cx="4.993" cy="43.5" r="2.5" fx="4.993" fy="43.5" gradientTransform="matrix(2.003784,0,0,1.4,27.98813,-17.4)" gradientUnits="userSpaceOnUse" xlink:href="#linearGradient3688"/></defs><metadata id="metadata8035"/><g id="layer1"><g id="g6015" display="inline" transform="translate(150,-60.000002)"><rect id="rect5504" width="48" height="48" x="-150" y="60" fill="#000" fill-opacity="1" stroke="none" stroke-dasharray="none" stroke-miterlimit="4" stroke-width="1" display="inline" opacity="0"/><g id="g5508" display="inline" opacity=".656" transform="matrix(1.0464281,0,0,0.8888889,-151.18572,65.72224)"><g id="g5511" opacity=".4" transform="matrix(1.052632,0,0,1.285713,-1.263158,-13.42854)"><rect id="rect5513" width="5" height="7" x="38" y="40" fill="url(#radialGradient5794)" fill-opacity="1" stroke="none" stroke-dasharray="none" stroke-linecap="round" stroke-linejoin="miter" stroke-miterlimit="4" stroke-opacity="1" stroke-width="1" opacity="1"/><rect id="rect5515" width="5" height="7" x="-10" y="-47" fill="url(#radialGradient5796)" fill-opacity="1" stroke="none" stroke-dasharray="none" stroke-linecap="round" stroke-linejoin="miter" stroke-miterlimit="4" stroke-opacity="1" stroke-width="1" opacity="1" transform="scale(-1,-1)"/><rect id="rect5517" width="28" height="7" x="10" y="40" fill="url(#linearGradient5798)" fill-opacity="1" stroke="none" stroke-dasharray="none" stroke-linecap="round" stroke-linejoin="miter" stroke-miterlimit="4" stroke-opacity="1" stroke-width="1" opacity="1"/></g></g><g id="g5519" display="inline" transform="matrix(0.9548466,0,0,0.5555562,-148.98776,79.888875)"><g id="g5521" opacity=".4" transform="matrix(1.052632,0,0,1.285713,-1.263158,-13.42854)"><rect id="rect5523" width="5" height="7" x="38" y="40" fill="url(#radialGradient5800)" fill-opacity="1" stroke="none" stroke-dasharray="none" stroke-linecap="round" stroke-linejoin="miter" stroke-miterlimit="4" stroke-opacity="1" stroke-width="1" opacity="1"/><rect id="rect5525" width="5" height="7" x="-10" y="-47" fill="url(#radialGradient5802)" fill-opacity="1" stroke="none" stroke-dasharray="none" stroke-linecap="round" stroke-linejoin="miter" stroke-miterlimit="4" stroke-opacity="1" stroke-width="1" opacity="1" transform="scale(-1,-1)"/><rect id="rect5527" width="28" height="7" x="10" y="40" fill="url(#linearGradient5804)" fill-opacity="1" stroke="none" stroke-dasharray="none" stroke-linecap="round" stroke-linejoin="miter" stroke-miterlimit="4" stroke-opacity="1" stroke-width="1" opacity="1"/></g></g><path id="path5529" fill="url(#radialGradient5843)" fill-opacity="1" stroke="url(#linearGradient5845)" stroke-miterlimit="4" stroke-width="1" d="M -141.47614,63.5 C -141.47614,63.5 -124,63.5 -122.5,63.5 C -118.62295,63.572942 -116,66 -113.5,68.5 C -111,71 -108.89232,73.752625 -108.5,77.5 C -108.5,79 -108.5,102.47614 -108.5,102.47614 C -108.5,103.59736 -109.40264,104.5 -110.52385,104.5 L -141.47614,104.5 C -142.59736,104.5 -143.5,103.59736 -143.5,102.47614 L -143.5,65.523858 C -143.5,64.402641 -142.59736,63.5 -141.47614,63.5 z" display="inline"/><path id="path5531" fill="url(#radialGradient5810)" fill-opacity="1" stroke="none" stroke-miterlimit="4" stroke-width="1" d="M 8.53125,4 C 7.6730803,4 7,4.6730802 7,5.53125 L 7,42.46875 C 7,43.32692 7.6730802,44 8.53125,44 L 39.46875,44 C 40.326919,44 41,43.326918 41,42.46875 C 41,42.46875 41,19 41,17.5 C 41,16.10803 40.513021,13.200521 38.65625,11.34375 C 36.65625,9.34375 35.65625,8.34375 33.65625,6.34375 C 31.799479,4.4869792 28.89197,4 27.5,4 C 26,4 8.53125,4 8.53125,4 z" display="inline" opacity=".68" transform="translate(-150,60)"/><path id="rect5857" fill="url(#linearGradient6475)" fill-opacity="1" fill-rule="evenodd" stroke="none" stroke-dasharray="none" stroke-dashoffset="0" stroke-linecap="round" stroke-linejoin="round" stroke-miterlimit="4" stroke-opacity="1" stroke-width="1" marker-end="none" marker-mid="none" marker-start="none" d="M -138.59375,69.125 C -138.81243,69.125 -139,69.312565 -139,69.53125 C -139,69.749934 -138.81243,69.937499 -138.59375,69.9375 L -117.40625,69.9375 C -117.18757,69.9375 -117,69.749934 -117,69.53125 C -117,69.312566 -117.18757,69.125 -117.40625,69.125 L -138.59375,69.125 z M -138.53125,71.0625 C -138.79094,71.0625 -139,71.271563 -139,71.53125 C -139,71.790937 -138.79094,72 -138.53125,72 L -116.46875,72 C -116.20906,72 -116,71.790937 -116,71.53125 C -116,71.271563 -116.20906,71.0625 -116.46875,71.0625 L -138.53125,71.0625 z M -138.53125,73.0625 C -138.79094,73.0625 -139,73.271563 -139,73.53125 C -139,73.790937 -138.79094,74 -138.53125,74 L -113.34375,74 C -113.08406,74 -112.875,73.790937 -112.875,73.53125 C -112.875,73.271563 -113.08406,73.0625 -113.34375,73.0625 L -138.53125,73.0625 z M -138.53125,75.0625 C -138.79094,75.0625 -139,75.271563 -139,75.53125 C -139,75.790937 -138.79094,76 -138.53125,76 L -113.34375,76 C -113.08406,76 -112.875,75.790937 -112.875,75.53125 C -112.875,75.271563 -113.08406,75.0625 -113.34375,75.0625 L -138.53125,75.0625 z M -138.53125,77.0625 C -138.79094,77.0625 -139,77.271563 -139,77.53125 C -139,77.790937 -138.79094,78 -138.53125,78 L -113.34375,78 C -113.08406,78 -112.875,77.790937 -112.875,77.53125 C -112.875,77.271563 -113.08406,77.0625 -113.34375,77.0625 L -138.53125,77.0625 z" display="inline" opacity=".15" overflow="visible" visibility="visible" style="marker:none"/><path id="path5533" fill="url(#radialGradient5839)" fill-opacity="1" stroke="none" stroke-miterlimit="4" stroke-width="1" d="M -122.5,64 C -123.88889,64 -122.54207,64.497088 -121.15625,65.125 C -119.77043,65.752912 -116.18337,68.340052 -117,72 C -112.67669,71.569417 -110.32087,75.122378 -110,76.28125 C -109.67913,77.440122 -109,78.888889 -109,77.5 C -108.97167,73.694419 -111.84543,71.068299 -113.84375,68.84375 C -115.84207,66.619201 -118.84621,64.476761 -122.5,64 z" display="inline"/><path id="path5535" fill="url(#linearGradient5836)" fill-opacity="1" stroke="none" stroke-miterlimit="4" stroke-width="1" d="M -121.39912,65.014353 C -120.47682,65.014353 -118.39068,71.210015 -119.31298,75.343603 C -115.01802,74.915844 -110.4596,75.43178 -110,76.28125 C -110.32087,75.122378 -112.67669,71.569417 -117,72 C -116.13534,68.124761 -120.18657,65.382702 -121.39912,65.014353 z" display="inline" opacity=".879"/><path id="path5537" fill="none" fill-opacity="1" stroke="url(#linearGradient5816)" stroke-miterlimit="4" stroke-width="1" d="M -51.46875,4.5 C -52.051916,4.5 -52.5,4.9480842 -52.5,5.53125 L -52.5,42.46875 C -52.5,43.051915 -52.051914,43.5 -51.46875,43.5 L -20.53125,43.5 C -19.948085,43.5 -19.5,43.051914 -19.5,42.46875 C -19.5,42.46875 -19.5,19 -19.5,17.5 C -19.5,16.220971 -19.980469,13.394531 -21.6875,11.6875 C -23.6875,9.6875 -24.6875,8.6875 -26.6875,6.6875 C -28.394531,4.9804687 -31.220971,4.5 -32.5,4.5 C -34,4.5 -51.46875,4.5 -51.46875,4.5 z" display="inline" transform="translate(-90,60)"/><g id="g5539" fill="#000" display="inline" opacity=".15" transform="matrix(0.928889,0,0,1,-148.28889,60)"><rect id="rect5549" width="28.125" height=".938" x="10" y="19.063" fill="#000" fill-opacity="1" fill-rule="evenodd" stroke="none" stroke-dasharray="none" stroke-dashoffset="0" stroke-linecap="round" stroke-linejoin="round" stroke-miterlimit="4" stroke-opacity="1" stroke-width="1" marker-end="none" marker-mid="none" marker-start="none" display="inline" opacity="1" overflow="visible" rx=".505" ry=".469" visibility="visible" style="marker:none"/><rect id="rect5553" width="28.125" height=".938" x="10" y="21.063" fill="#000" fill-opacity="1" fill-rule="evenodd" stroke="none" stroke-dasharray="none" stroke-dashoffset="0" stroke-linecap="round" stroke-linejoin="round" stroke-miterlimit="4" stroke-opacity="1" stroke-width="1" marker-end="none" marker-mid="none" marker-start="none" display="inline" opacity="1" overflow="visible" rx=".505" ry=".469" visibility="visible" style="marker:none"/><rect id="rect5555" width="28.125" height=".938" x="10" y="23.063" fill="#000" fill-opacity="1" fill-rule="evenodd" stroke="none" stroke-dasharray="none" stroke-dashoffset="0" stroke-linecap="round" stroke-linejoin="round" stroke-miterlimit="4" stroke-opacity="1" stroke-width="1" marker-end="none" marker-mid="none" marker-start="none" display="inline" opacity="1" overflow="visible" rx=".505" ry=".469" visibility="visible" style="marker:none"/><rect id="rect5557" width="28.125" height=".938" x="10" y="25.063" fill="#000" fill-opacity="1" fill-rule="evenodd" stroke="none" stroke-dasharray="none" stroke-dashoffset="0" stroke-linecap="round" stroke-linejoin="round" stroke-miterlimit="4" stroke-opacity="1" stroke-width="1" marker-end="none" marker-mid="none" marker-start="none" display="inline" opacity="1" overflow="visible" rx=".505" ry=".469" visibility="visible" style="marker:none"/><rect id="rect5559" width="28.125" height=".938" x="10" y="27.063" fill="#000" fill-opacity="1" fill-rule="evenodd" stroke="none" stroke-dasharray="none" stroke-dashoffset="0" stroke-linecap="round" stroke-linejoin="round" stroke-miterlimit="4" stroke-opacity="1" stroke-width="1" marker-end="none" marker-mid="none" marker-start="none" display="inline" opacity="1" overflow="visible" rx=".505" ry=".469" visibility="visible" style="marker:none"/><rect id="rect5561" width="28.125" height=".938" x="10" y="29.063" fill="#000" fill-opacity="1" fill-rule="evenodd" stroke="none" stroke-dasharray="none" stroke-dashoffset="0" stroke-linecap="round" stroke-linejoin="round" stroke-miterlimit="4" stroke-opacity="1" stroke-width="1" marker-end="none" marker-mid="none" marker-start="none" display="inline" opacity="1" overflow="visible" rx=".505" ry=".469" visibility="visible" style="marker:none"/><rect id="rect5563" width="28.125" height=".938" x="10" y="31.063" fill="#000" fill-opacity="1" fill-rule="evenodd" stroke="none" stroke-dasharray="none" stroke-dashoffset="0" stroke-linecap="round" stroke-linejoin="round" stroke-miterlimit="4" stroke-opacity="1" stroke-width="1" marker-end="none" marker-mid="none" marker-start="none" display="inline" opacity="1" overflow="visible" rx=".505" ry=".469" visibility="visible" style="marker:none"/><rect id="rect5565" width="28.125" height=".938" x="10" y="33.063" fill="#000" fill-opacity="1" fill-rule="evenodd" stroke="none" stroke-dasharray="none" stroke-dashoffset="0" stroke-linecap="round" stroke-linejoin="round" stroke-miterlimit="4" stroke-opacity="1" stroke-width="1" marker-end="none" marker-mid="none" marker-start="none" display="inline" opacity="1" overflow="visible" rx=".505" ry=".469" visibility="visible" style="marker:none"/><rect id="rect5567" width="28.125" height=".938" x="10" y="35.063" fill="#000" fill-opacity="1" fill-rule="evenodd" stroke="none" stroke-dasharray="none" stroke-dashoffset="0" stroke-linecap="round" stroke-linejoin="round" stroke-miterlimit="4" stroke-opacity="1" stroke-width="1" marker-end="none" marker-mid="none" marker-start="none" display="inline" opacity="1" overflow="visible" rx=".505" ry=".469" visibility="visible" style="marker:none"/><rect id="rect5569" width="13.813" height=".938" x="10" y="37.063" fill="#000" fill-opacity="1" fill-rule="evenodd" stroke="none" stroke-dasharray="none" stroke-dashoffset="0" stroke-linecap="round" stroke-linejoin="round" stroke-miterlimit="4" stroke-opacity="1" stroke-width="1" marker-end="none" marker-mid="none" marker-start="none" display="inline" opacity="1" overflow="visible" rx=".505" ry=".469" visibility="visible" style="marker:none"/></g></g><path id="path2858" fill="url(#radialGradient3042)" fill-opacity="1" fill-rule="nonzero" stroke="none" stroke-dashoffset="0" stroke-linecap="butt" stroke-linejoin="miter" stroke-miterlimit="4" stroke-opacity="1" stroke-width=".8" marker-end="none" marker-mid="none" marker-start="none" d="M 26.5,38.700001 A 13.75,3.8 0 1 1 -1,38.700001 A 13.75,3.8 0 1 1 26.5,38.700001 z" display="inline" opacity=".5" overflow="visible" transform="matrix(1.0181818,0,0,1.8421053,20.018174,-30.289477)" visibility="visible" style="marker:none"/><path id="path6495" fill="url(#radialGradient2707)" fill-opacity="1" fill-rule="nonzero" stroke="url(#linearGradient3927)" stroke-dasharray="none" stroke-miterlimit="4" stroke-width="1" d="M 46.500035,31.999519 C 46.500035,39.455628 40.455414,45.500041 33.000163,45.500041 C 25.544228,45.500041 19.499949,39.455559 19.499949,31.999519 C 19.499949,24.543753 25.544228,18.499955 33.000163,18.499955 C 40.455414,18.499955 46.500035,24.543753 46.500035,31.999519 L 46.500035,31.999519 z"/><path id="path8655" fill="none" fill-opacity="1" fill-rule="nonzero" stroke="url(#linearGradient2704)" stroke-dasharray="none" stroke-miterlimit="4" stroke-opacity="1" stroke-width="1" d="M 45.500095,31.999553 C 45.500095,38.903392 39.903197,44.500101 33.00015,44.500101 C 26.096473,44.500101 20.499889,38.903328 20.499889,31.999553 C 20.499889,25.096031 26.096473,19.499893 33.00015,19.499893 C 39.903197,19.499893 45.500095,25.096031 45.500095,31.999553 L 45.500095,31.999553 z" opacity=".6"/><path id="text5882" fill="#fff" fill-opacity="1" stroke="none" stroke-dasharray="none" stroke-linecap="round" stroke-linejoin="round" stroke-miterlimit="4" stroke-opacity="1" stroke-width=".75" d="M 33.999992,38.499998 L 35.999992,38.499998 L 35.999992,39.999998 L 29.999992,39.999998 L 29.999992,38.499998 L 31.999992,38.499998 L 31.999992,31.499998 L 29.999992,31.499998 L 29.999992,29.999998 L 33.999992,29.999998 L 33.999992,38.499998 z" font-family="Bitstream Vera Serif" font-size="13.59" font-stretch="normal" font-style="normal" font-variant="normal" font-weight="bold" text-anchor="start" writing-mode="lr-tb" style="text-align:start;line-height:125%"/><path id="path8287" fill="#fff" fill-opacity="1" stroke="none" stroke-dasharray="none" stroke-linecap="round" stroke-linejoin="round" stroke-miterlimit="4" stroke-opacity="1" stroke-width="1" d="M 20.668958,34.547359 A 2.2272584,2.4054391 0 1 1 16.214442,34.547359 A 2.2272584,2.4054391 0 1 1 20.668958,34.547359 z" opacity="1" transform="matrix(0.8979649,0,0,0.831449,16.439992,-2.7243686)"/></g></svg>