<svg xmlns="http://www.w3.org/2000/svg" xmlns:svg="http://www.w3.org/2000/svg" xmlns:xlink="http://www.w3.org/1999/xlink" id="svg7700" width="48" height="48"><defs id="defs7702"><linearGradient id="linearGradient7293"><stop id="stop7295" offset="0" stop-color="#a7cc5c" stop-opacity="1"/><stop id="stop7297" offset="1" stop-color="#789e2d" stop-opacity="1"/></linearGradient><radialGradient id="radialGradient7288" cx="361.268" cy="89.674" r="1.5" fx="361.268" fy="89.674" gradientTransform="matrix(0.92696,1.0028138,-13.150733,11.97395,886.16645,-1414.8891)" gradientUnits="userSpaceOnUse" xlink:href="#linearGradient7293"/><linearGradient id="linearGradient7285"><stop id="stop7287" offset="0" stop-color="#fff" stop-opacity="1"/><stop id="stop7289" offset="1" stop-color="#fff" stop-opacity="0"/></linearGradient><linearGradient id="linearGradient7227" x1="366.978" x2="349.778" y1="95.469" y2="91.137" gradientTransform="matrix(-0.4680852,-0.4600927,0.4680852,-0.4600927,168.14425,229.86203)" gradientUnits="userSpaceOnUse" xlink:href="#linearGradient7285"/><linearGradient id="linearGradient7255"><stop id="stop7257" offset="0" stop-color="#42770c" stop-opacity="1"/><stop id="stop7259" offset="1" stop-color="#a7cc5c" stop-opacity="1"/></linearGradient><linearGradient id="linearGradient9007" x1="357.697" x2="363.691" y1="90.562" y2="90.524" gradientTransform="matrix(-0.4791264,-0.4758095,0.4791264,-0.4758095,171.06048,236.99338)" gradientUnits="userSpaceOnUse" xlink:href="#linearGradient7255"/><linearGradient id="linearGradient7265"><stop id="stop7267" offset="0" stop-color="#42770c" stop-opacity="1"/><stop id="stop7269" offset="1" stop-color="#2e5308" stop-opacity="1"/></linearGradient><linearGradient id="linearGradient9013" x1="364.524" x2="357.049" y1="89.246" y2="89.074" gradientTransform="matrix(-0.4791264,-0.4758095,0.4791264,-0.4758095,171.06048,236.99338)" gradientUnits="userSpaceOnUse" xlink:href="#linearGradient7265"/><linearGradient id="linearGradient4222"><stop id="stop4224" offset="0" stop-color="#fff" stop-opacity="1"/><stop id="stop4226" offset="1" stop-color="#fff" stop-opacity="0"/></linearGradient><linearGradient id="linearGradient7301" x1="18.25" x2="32.499" y1="29.322" y2="44.322" gradientTransform="matrix(0.7562243,0,0,0.7562243,10.044679,10.094307)" gradientUnits="userSpaceOnUse" xlink:href="#linearGradient4222"/><linearGradient id="linearGradient9942"><stop id="stop9944" offset="0" stop-color="#a0a0a0" stop-opacity="1"/><stop id="stop9946" offset=".519" stop-color="#828282" stop-opacity="1"/><stop id="stop9948" offset=".685" stop-color="#5a5a5a" stop-opacity="1"/><stop id="stop9950" offset=".765" stop-color="#5a5a5a" stop-opacity="1"/><stop id="stop9952" offset=".914" stop-color="#828282" stop-opacity="1"/><stop id="stop9954" offset="1" stop-color="#6e6e6e" stop-opacity="1"/></linearGradient><linearGradient id="linearGradient7309" x1="13.34" x2="23.386" y1="48.039" y2="18.074" gradientTransform="matrix(0.7559621,0,0,0.7714099,10.050584,9.3394319)" gradientUnits="userSpaceOnUse" xlink:href="#linearGradient9942"/><linearGradient id="linearGradient9920"><stop id="stop9922" offset="0" stop-color="#f0f0f0" stop-opacity="1"/><stop id="stop9924" offset=".519" stop-color="#c8c8c8" stop-opacity="1"/><stop id="stop9926" offset=".685" stop-color="#a0a0a0" stop-opacity="1"/><stop id="stop9928" offset=".765" stop-color="#a0a0a0" stop-opacity="1"/><stop id="stop9930" offset=".914" stop-color="#c8c8c8" stop-opacity="1"/><stop id="stop9932" offset="1" stop-color="#dcdcdc" stop-opacity="1"/></linearGradient><linearGradient id="linearGradient7307" x1="10.866" x2="22.517" y1="47.686" y2="16.166" gradientTransform="matrix(0.7559621,0,0,0.7714099,10.050584,9.3394319)" gradientUnits="userSpaceOnUse" xlink:href="#linearGradient9920"/><filter id="filter6722" width="1.137" height="1.97" x="-.068" y="-.485"><feGaussianBlur id="feGaussianBlur6724" stdDeviation=".606"/></filter><linearGradient id="linearGradient6672"><stop id="stop6674" offset="0" stop-color="#000" stop-opacity="1"/><stop id="stop6676" offset="1" stop-color="#000" stop-opacity="0"/></linearGradient><radialGradient id="radialGradient7263" cx="15.459" cy="51.218" r="10.625" fx="15.459" fy="51.218" gradientTransform="matrix(1.8352941,1.6867995e-7,-2.324756e-8,0.2529412,-16.183821,36.232351)" gradientUnits="userSpaceOnUse" xlink:href="#linearGradient6672"/><linearGradient id="linearGradient3656"><stop id="stop3658" offset="0" stop-color="#fff" stop-opacity="1"/><stop id="stop3660" offset="1" stop-color="#fff" stop-opacity="0"/></linearGradient><linearGradient id="linearGradient5816" x1="-26.754" x2="-24.75" y1="11.566" y2="9.688" gradientUnits="userSpaceOnUse" xlink:href="#linearGradient3656"/><linearGradient id="linearGradient3520"><stop id="stop3522" offset="0" stop-color="#000" stop-opacity=".413"/><stop id="stop3524" offset="1" stop-color="#000" stop-opacity="0"/></linearGradient><linearGradient id="linearGradient5836" x1="-18.589" x2="-28.789" y1="11.053" y2="14.07" gradientTransform="matrix(0.9223058,0,0,0.9185751,-92.447368,61.3257)" gradientUnits="userSpaceOnUse" xlink:href="#linearGradient3520"/><linearGradient id="linearGradient3671"><stop id="stop3673" offset="0" stop-color="#fff" stop-opacity="1"/><stop id="stop3691" offset=".475" stop-color="#fff" stop-opacity="1"/><stop id="stop3675" offset="1" stop-color="#fff" stop-opacity="0"/></linearGradient><radialGradient id="radialGradient5839" cx="-26.305" cy="10.108" r="7.042" fx="-26.305" fy="10.108" gradientTransform="matrix(0.4073362,-0.2798276,0.7510293,1.0932492,-115.18484,51.56213)" gradientUnits="userSpaceOnUse" xlink:href="#linearGradient3671"/><linearGradient id="linearGradient6469"><stop id="stop6471" offset="0" stop-color="#000" stop-opacity="1"/><stop id="stop6473" offset="1" stop-color="#000" stop-opacity="0"/></linearGradient><linearGradient id="linearGradient6475" x1="58.282" x2="61.181" y1="70.752" y2="67.799" gradientTransform="translate(-180,0)" gradientUnits="userSpaceOnUse" xlink:href="#linearGradient6469"/><linearGradient id="linearGradient3741"><stop id="stop3743" offset="0" stop-color="#fff" stop-opacity="1"/><stop id="stop3745" offset="1" stop-color="#fff" stop-opacity="0"/></linearGradient><radialGradient id="radialGradient5810" cx="4" cy="5.3" r="17" fx="4" fy="5.3" gradientTransform="matrix(1.8860258,0,0,1.1764706,-3.5441033,-4.2352941)" gradientUnits="userSpaceOnUse" xlink:href="#linearGradient3741"/><linearGradient id="linearGradient3613"><stop id="stop3615" offset="0" stop-color="#888a85" stop-opacity="1"/><stop id="stop3617" offset="1" stop-color="#babdb6" stop-opacity="1"/></linearGradient><linearGradient id="linearGradient5845" x1="-47.5" x2="-62.75" y1="49.021" y2="-22.502" gradientTransform="translate(-90,60)" gradientUnits="userSpaceOnUse" xlink:href="#linearGradient3613"/><linearGradient id="linearGradient3683"><stop id="stop3685" offset="0" stop-color="#f6f6f5" stop-opacity="1"/><stop id="stop3689" offset="1" stop-color="#d3d7cf" stop-opacity="1"/></linearGradient><radialGradient id="radialGradient5843" cx="-30.25" cy="35.357" r="18" fx="-30.25" fy="35.357" gradientTransform="matrix(3.9957492,0,0,1.9350367,0.62141,28.832578)" gradientUnits="userSpaceOnUse" xlink:href="#linearGradient3683"/><linearGradient id="linearGradient5804" x1="25.058" x2="25.058" y1="47.028" y2="39.999" gradientUnits="userSpaceOnUse" xlink:href="#linearGradient3702"/><radialGradient id="radialGradient5802" cx="4.993" cy="43.5" r="2.5" fx="4.993" fy="43.5" gradientTransform="matrix(2.003784,0,0,1.4,-20.01187,-104.4)" gradientUnits="userSpaceOnUse" xlink:href="#linearGradient3688"/><radialGradient id="radialGradient5800" cx="4.993" cy="43.5" r="2.5" fx="4.993" fy="43.5" gradientTransform="matrix(2.003784,0,0,1.4,27.98813,-17.4)" gradientUnits="userSpaceOnUse" xlink:href="#linearGradient3688"/><linearGradient id="linearGradient3702"><stop id="stop3704" offset="0" stop-color="#000" stop-opacity="0"/><stop id="stop3710" offset=".5" stop-color="#000" stop-opacity="1"/><stop id="stop3706" offset="1" stop-color="#000" stop-opacity="0"/></linearGradient><linearGradient id="linearGradient5798" x1="25.058" x2="25.058" y1="47.028" y2="39.999" gradientUnits="userSpaceOnUse" xlink:href="#linearGradient3702"/><radialGradient id="radialGradient5796" cx="4.993" cy="43.5" r="2.5" fx="4.993" fy="43.5" gradientTransform="matrix(2.003784,0,0,1.4,-20.01187,-104.4)" gradientUnits="userSpaceOnUse" xlink:href="#linearGradient3688"/><linearGradient id="linearGradient3688"><stop id="stop3690" offset="0" stop-color="#000" stop-opacity="1"/><stop id="stop3692" offset="1" stop-color="#000" stop-opacity="0"/></linearGradient><radialGradient id="radialGradient5794" cx="4.993" cy="43.5" r="2.5" fx="4.993" fy="43.5" gradientTransform="matrix(2.003784,0,0,1.4,27.98813,-17.4)" gradientUnits="userSpaceOnUse" xlink:href="#linearGradient3688"/></defs><metadata id="metadata7705"/><g id="layer1"><g id="g6015" display="inline" transform="translate(150,-60)"><rect id="rect5504" width="48" height="48" x="-150" y="60" fill="#000" fill-opacity="1" stroke="none" stroke-dasharray="none" stroke-miterlimit="4" stroke-width="1" display="inline" opacity="0"/><g id="g5508" display="inline" opacity=".656" transform="matrix(1.0464281,0,0,0.8888889,-151.18572,65.72224)"><g id="g5511" opacity=".4" transform="matrix(1.052632,0,0,1.285713,-1.263158,-13.42854)"><rect id="rect5513" width="5" height="7" x="38" y="40" fill="url(#radialGradient5794)" fill-opacity="1" stroke="none" stroke-dasharray="none" stroke-linecap="round" stroke-linejoin="miter" stroke-miterlimit="4" stroke-opacity="1" stroke-width="1" opacity="1"/><rect id="rect5515" width="5" height="7" x="-10" y="-47" fill="url(#radialGradient5796)" fill-opacity="1" stroke="none" stroke-dasharray="none" stroke-linecap="round" stroke-linejoin="miter" stroke-miterlimit="4" stroke-opacity="1" stroke-width="1" opacity="1" transform="scale(-1,-1)"/><rect id="rect5517" width="28" height="7" x="10" y="40" fill="url(#linearGradient5798)" fill-opacity="1" stroke="none" stroke-dasharray="none" stroke-linecap="round" stroke-linejoin="miter" stroke-miterlimit="4" stroke-opacity="1" stroke-width="1" opacity="1"/></g></g><g id="g5519" display="inline" transform="matrix(0.9548466,0,0,0.5555562,-148.98776,79.888875)"><g id="g5521" opacity=".4" transform="matrix(1.052632,0,0,1.285713,-1.263158,-13.42854)"><rect id="rect5523" width="5" height="7" x="38" y="40" fill="url(#radialGradient5800)" fill-opacity="1" stroke="none" stroke-dasharray="none" stroke-linecap="round" stroke-linejoin="miter" stroke-miterlimit="4" stroke-opacity="1" stroke-width="1" opacity="1"/><rect id="rect5525" width="5" height="7" x="-10" y="-47" fill="url(#radialGradient5802)" fill-opacity="1" stroke="none" stroke-dasharray="none" stroke-linecap="round" stroke-linejoin="miter" stroke-miterlimit="4" stroke-opacity="1" stroke-width="1" opacity="1" transform="scale(-1,-1)"/><rect id="rect5527" width="28" height="7" x="10" y="40" fill="url(#linearGradient5804)" fill-opacity="1" stroke="none" stroke-dasharray="none" stroke-linecap="round" stroke-linejoin="miter" stroke-miterlimit="4" stroke-opacity="1" stroke-width="1" opacity="1"/></g></g><path id="path5529" fill="url(#radialGradient5843)" fill-opacity="1" stroke="url(#linearGradient5845)" stroke-miterlimit="4" stroke-width="1" d="M -141.47614,63.5 C -141.47614,63.5 -124,63.5 -122.5,63.5 C -118.62295,63.572942 -116,66 -113.5,68.5 C -111,71 -108.89232,73.752625 -108.5,77.5 C -108.5,79 -108.5,102.47614 -108.5,102.47614 C -108.5,103.59736 -109.40264,104.5 -110.52385,104.5 L -141.47614,104.5 C -142.59736,104.5 -143.5,103.59736 -143.5,102.47614 L -143.5,65.523858 C -143.5,64.402641 -142.59736,63.5 -141.47614,63.5 z" display="inline"/><path id="path5531" fill="url(#radialGradient5810)" fill-opacity="1" stroke="none" stroke-miterlimit="4" stroke-width="1" d="M 8.53125,4 C 7.6730803,4 7,4.6730802 7,5.53125 L 7,42.46875 C 7,43.32692 7.6730802,44 8.53125,44 L 39.46875,44 C 40.326919,44 41,43.326918 41,42.46875 C 41,42.46875 41,19 41,17.5 C 41,16.10803 40.513021,13.200521 38.65625,11.34375 C 36.65625,9.34375 35.65625,8.34375 33.65625,6.34375 C 31.799479,4.4869792 28.89197,4 27.5,4 C 26,4 8.53125,4 8.53125,4 z" display="inline" opacity=".68" transform="translate(-150,60)"/><path id="rect5857" fill="url(#linearGradient6475)" fill-opacity="1" fill-rule="evenodd" stroke="none" stroke-dasharray="none" stroke-dashoffset="0" stroke-linecap="round" stroke-linejoin="round" stroke-miterlimit="4" stroke-opacity="1" stroke-width="1" marker-end="none" marker-mid="none" marker-start="none" d="M -138.59375,69.125 C -138.81243,69.125 -139,69.312565 -139,69.53125 C -139,69.749934 -138.81243,69.937499 -138.59375,69.9375 L -117.40625,69.9375 C -117.18757,69.9375 -117,69.749934 -117,69.53125 C -117,69.312566 -117.18757,69.125 -117.40625,69.125 L -138.59375,69.125 z M -138.53125,71.0625 C -138.79094,71.0625 -139,71.271563 -139,71.53125 C -139,71.790937 -138.79094,72 -138.53125,72 L -116.46875,72 C -116.20906,72 -116,71.790937 -116,71.53125 C -116,71.271563 -116.20906,71.0625 -116.46875,71.0625 L -138.53125,71.0625 z M -138.53125,73.0625 C -138.79094,73.0625 -139,73.271563 -139,73.53125 C -139,73.790937 -138.79094,74 -138.53125,74 L -113.34375,74 C -113.08406,74 -112.875,73.790937 -112.875,73.53125 C -112.875,73.271563 -113.08406,73.0625 -113.34375,73.0625 L -138.53125,73.0625 z M -138.53125,75.0625 C -138.79094,75.0625 -139,75.271563 -139,75.53125 C -139,75.790937 -138.79094,76 -138.53125,76 L -113.34375,76 C -113.08406,76 -112.875,75.790937 -112.875,75.53125 C -112.875,75.271563 -113.08406,75.0625 -113.34375,75.0625 L -138.53125,75.0625 z M -138.53125,77.0625 C -138.79094,77.0625 -139,77.271563 -139,77.53125 C -139,77.790937 -138.79094,78 -138.53125,78 L -113.34375,78 C -113.08406,78 -112.875,77.790937 -112.875,77.53125 C -112.875,77.271563 -113.08406,77.0625 -113.34375,77.0625 L -138.53125,77.0625 z" display="inline" opacity=".15" overflow="visible" visibility="visible" style="marker:none"/><path id="path5533" fill="url(#radialGradient5839)" fill-opacity="1" stroke="none" stroke-miterlimit="4" stroke-width="1" d="M -122.5,64 C -123.88889,64 -122.54207,64.497088 -121.15625,65.125 C -119.77043,65.752912 -116.18337,68.340052 -117,72 C -112.67669,71.569417 -110.32087,75.122378 -110,76.28125 C -109.67913,77.440122 -109,78.888889 -109,77.5 C -108.97167,73.694419 -111.84543,71.068299 -113.84375,68.84375 C -115.84207,66.619201 -118.84621,64.476761 -122.5,64 z" display="inline"/><path id="path5535" fill="url(#linearGradient5836)" fill-opacity="1" stroke="none" stroke-miterlimit="4" stroke-width="1" d="M -121.39912,65.014353 C -120.47682,65.014353 -118.39068,71.210015 -119.31298,75.343603 C -115.01802,74.915844 -110.4596,75.43178 -110,76.28125 C -110.32087,75.122378 -112.67669,71.569417 -117,72 C -116.13534,68.124761 -120.18657,65.382702 -121.39912,65.014353 z" display="inline" opacity=".879"/><path id="path5537" fill="none" fill-opacity="1" stroke="url(#linearGradient5816)" stroke-miterlimit="4" stroke-width="1" d="M -51.46875,4.5 C -52.051916,4.5 -52.5,4.9480842 -52.5,5.53125 L -52.5,42.46875 C -52.5,43.051915 -52.051914,43.5 -51.46875,43.5 L -20.53125,43.5 C -19.948085,43.5 -19.5,43.051914 -19.5,42.46875 C -19.5,42.46875 -19.5,19 -19.5,17.5 C -19.5,16.220971 -19.980469,13.394531 -21.6875,11.6875 C -23.6875,9.6875 -24.6875,8.6875 -26.6875,6.6875 C -28.394531,4.9804687 -31.220971,4.5 -32.5,4.5 C -34,4.5 -51.46875,4.5 -51.46875,4.5 z" display="inline" transform="translate(-90,60)"/><g id="g5539" fill="#000" display="inline" opacity=".15" transform="matrix(0.928889,0,0,1,-148.28889,60)"><rect id="rect5549" width="28.125" height=".938" x="10" y="19.063" fill="#000" fill-opacity="1" fill-rule="evenodd" stroke="none" stroke-dasharray="none" stroke-dashoffset="0" stroke-linecap="round" stroke-linejoin="round" stroke-miterlimit="4" stroke-opacity="1" stroke-width="1" marker-end="none" marker-mid="none" marker-start="none" display="inline" opacity="1" overflow="visible" rx=".505" ry=".469" visibility="visible" style="marker:none"/><rect id="rect5553" width="28.125" height=".938" x="10" y="21.063" fill="#000" fill-opacity="1" fill-rule="evenodd" stroke="none" stroke-dasharray="none" stroke-dashoffset="0" stroke-linecap="round" stroke-linejoin="round" stroke-miterlimit="4" stroke-opacity="1" stroke-width="1" marker-end="none" marker-mid="none" marker-start="none" display="inline" opacity="1" overflow="visible" rx=".505" ry=".469" visibility="visible" style="marker:none"/><rect id="rect5555" width="28.125" height=".938" x="10" y="23.063" fill="#000" fill-opacity="1" fill-rule="evenodd" stroke="none" stroke-dasharray="none" stroke-dashoffset="0" stroke-linecap="round" stroke-linejoin="round" stroke-miterlimit="4" stroke-opacity="1" stroke-width="1" marker-end="none" marker-mid="none" marker-start="none" display="inline" opacity="1" overflow="visible" rx=".505" ry=".469" visibility="visible" style="marker:none"/><rect id="rect5557" width="28.125" height=".938" x="10" y="25.063" fill="#000" fill-opacity="1" fill-rule="evenodd" stroke="none" stroke-dasharray="none" stroke-dashoffset="0" stroke-linecap="round" stroke-linejoin="round" stroke-miterlimit="4" stroke-opacity="1" stroke-width="1" marker-end="none" marker-mid="none" marker-start="none" display="inline" opacity="1" overflow="visible" rx=".505" ry=".469" visibility="visible" style="marker:none"/><rect id="rect5559" width="28.125" height=".938" x="10" y="27.063" fill="#000" fill-opacity="1" fill-rule="evenodd" stroke="none" stroke-dasharray="none" stroke-dashoffset="0" stroke-linecap="round" stroke-linejoin="round" stroke-miterlimit="4" stroke-opacity="1" stroke-width="1" marker-end="none" marker-mid="none" marker-start="none" display="inline" opacity="1" overflow="visible" rx=".505" ry=".469" visibility="visible" style="marker:none"/><rect id="rect5561" width="28.125" height=".938" x="10" y="29.063" fill="#000" fill-opacity="1" fill-rule="evenodd" stroke="none" stroke-dasharray="none" stroke-dashoffset="0" stroke-linecap="round" stroke-linejoin="round" stroke-miterlimit="4" stroke-opacity="1" stroke-width="1" marker-end="none" marker-mid="none" marker-start="none" display="inline" opacity="1" overflow="visible" rx=".505" ry=".469" visibility="visible" style="marker:none"/><rect id="rect5563" width="28.125" height=".938" x="10" y="31.063" fill="#000" fill-opacity="1" fill-rule="evenodd" stroke="none" stroke-dasharray="none" stroke-dashoffset="0" stroke-linecap="round" stroke-linejoin="round" stroke-miterlimit="4" stroke-opacity="1" stroke-width="1" marker-end="none" marker-mid="none" marker-start="none" display="inline" opacity="1" overflow="visible" rx=".505" ry=".469" visibility="visible" style="marker:none"/><rect id="rect5565" width="28.125" height=".938" x="10" y="33.063" fill="#000" fill-opacity="1" fill-rule="evenodd" stroke="none" stroke-dasharray="none" stroke-dashoffset="0" stroke-linecap="round" stroke-linejoin="round" stroke-miterlimit="4" stroke-opacity="1" stroke-width="1" marker-end="none" marker-mid="none" marker-start="none" display="inline" opacity="1" overflow="visible" rx=".505" ry=".469" visibility="visible" style="marker:none"/><rect id="rect5567" width="28.125" height=".938" x="10" y="35.063" fill="#000" fill-opacity="1" fill-rule="evenodd" stroke="none" stroke-dasharray="none" stroke-dashoffset="0" stroke-linecap="round" stroke-linejoin="round" stroke-miterlimit="4" stroke-opacity="1" stroke-width="1" marker-end="none" marker-mid="none" marker-start="none" display="inline" opacity="1" overflow="visible" rx=".505" ry=".469" visibility="visible" style="marker:none"/><rect id="rect5569" width="13.813" height=".938" x="10" y="37.063" fill="#000" fill-opacity="1" fill-rule="evenodd" stroke="none" stroke-dasharray="none" stroke-dashoffset="0" stroke-linecap="round" stroke-linejoin="round" stroke-miterlimit="4" stroke-opacity="1" stroke-width="1" marker-end="none" marker-mid="none" marker-start="none" display="inline" opacity="1" overflow="visible" rx=".505" ry=".469" visibility="visible" style="marker:none"/></g></g><path id="path6670" fill="url(#radialGradient7263)" fill-opacity="1" fill-rule="evenodd" stroke="none" stroke-dasharray="none" stroke-linecap="butt" stroke-linejoin="miter" stroke-miterlimit="4" stroke-opacity="1" stroke-width="1.322" d="M 8.75,50 L 30,50 L 16.318493,47 L 8.75,50 z" display="inline" enable-background="new" filter="url(#filter6722)" opacity=".207" transform="matrix(1.3176471,0,0,1,4.4705884,-2.000001)"/><path id="path5731" fill="url(#XMLID_8_)" stroke-dasharray="none" stroke-miterlimit="4" stroke-width="1" d="M 37.850215,35.540295 C 37.726616,34.824884 37.472244,34.088404 37.174832,33.466275 C 37.159934,33.4285 37.140345,33.388155 37.114686,33.344984 C 37.007916,33.131697 36.897284,32.932801 36.784721,32.756261 C 36.610909,32.383394 36.486205,31.947057 36.486205,31.388658 C 36.486205,28.798123 36.713817,28.178564 37.111377,27.808526 C 37.827592,27.141426 38.171354,26.110969 37.442447,25.432051 C 37.156072,25.165314 36.829415,25.030147 36.471859,25.030147 C 36.012498,25.030147 35.520583,25.262193 35.049911,25.700843 C 34.021937,26.515443 34.378114,28.271845 34.378114,29.845798 C 34.378114,30.56609 32.8505,31.075923 32.237744,31.217771 C 30.450792,31.224709 25.369964,31.482196 23.717922,33.73481 C 22.229209,35.763859 16.094474,45.793986 16.094474,47.391579 C 16.094474,47.533427 16.218074,47.64855 16.370366,47.64855 C 18.952991,47.64855 36.533935,38.796642 37.240494,38.154726 C 37.840835,37.608918 38.051893,36.704891 37.850215,35.540295 z" display="inline" enable-background="new"/><path id="path5784" fill="url(#linearGradient7307)" fill-opacity="1" stroke="url(#linearGradient7309)" stroke-dasharray="none" stroke-linejoin="round" stroke-miterlimit="4" stroke-opacity="1" stroke-width="1" d="M 37.291254,25.777447 C 36.876444,25.774354 38.39514,25.650301 38.047562,26.005111 C 37.305448,26.762041 34.464375,26.040502 34.499999,29.999999 C 34.508675,30.96436 34.024912,31.51767 32.499999,31.499999 C 28.043082,31.447988 26.848157,30.967121 23.999999,34.999999 C 21.941386,37.914913 16.499886,46.027733 16.499886,47.500112 C 18.999181,47.500113 36.13187,40.933476 36.999999,39.499999 C 37.907698,38.001183 37.923278,38.009795 36.499999,31.499999 C 36.416666,28.874999 37.052082,28.937499 37.937499,26.906249 C 38.219983,26.258198 37.961138,25.815462 37.336091,25.177441 C 37.101697,24.938182 37.540138,25.779304 37.291254,25.777447 z" display="inline" enable-background="new"/><path id="path5791" fill="url(#XMLID_12_)" stroke-dasharray="none" stroke-miterlimit="4" stroke-width="1" d="M 36.72899,27.436686 C 36.152652,27.973244 35.719226,29.187179 35.719226,31.321845 C 35.719226,32.167539 36.469652,32.837978 36.858383,33.441862 C 37.651297,34.673016 31.313229,31.451873 32.073314,31.451873 C 32.592265,31.451873 34.654006,30.717447 34.654006,29.974284 C 34.654006,27.437971 34.466677,26.607182 35.244967,25.882521 C 35.828203,25.339027 36.591871,25.003164 37.247391,25.613987 C 37.902911,26.224808 37.247666,26.953322 36.72899,27.436686 z" display="inline" enable-background="new"/><path id="path5804" fill="url(#XMLID_13_)" stroke-dasharray="none" stroke-miterlimit="4" stroke-width="1" d="M 32.135939,31.474486 C 30.541283,31.474486 25.540465,31.705761 23.945533,33.879742 C 22.419574,35.959929 16.878559,45.080375 16.402921,47.156193 C 16.45065,47.608977 22.292939,44.990691 26.934548,42.790755 C 31.768176,40.499852 36.494481,38.225394 36.949428,37.811925 C 38.544359,36.362605 36.807619,32.817935 36.010567,32.455604 C 35.213238,32.09353 33.736942,31.210062 32.135939,31.474486 z" display="inline" enable-background="new"/><path id="path5811" fill="url(#XMLID_14_)" stroke-dasharray="none" stroke-miterlimit="4" stroke-width="1" d="M 32.391968,31.418979 C 33.232611,31.268136 34.654006,30.62468 34.654006,29.974284 L 35.838964,30.539365 C 35.838964,31.848894 36.13058,32.503658 36.600425,33.065141 C 36.67188,33.182321 32.271954,31.440308 32.391968,31.418979 z" display="inline" enable-background="new"/><path id="path9956" fill="none" fill-opacity="1" stroke="url(#linearGradient7301)" stroke-dasharray="none" stroke-linejoin="miter" stroke-miterlimit="4" stroke-opacity="1" stroke-width="1" d="M 36.293343,25.92932 C 35.182138,26.428636 35.587044,28.02983 35.55126,29.926489 C 35.485866,30.857099 34.452518,32.643126 32.80346,32.569798 C 29.936852,32.694522 27.701657,31.304109 25.288432,34.903707 C 22.736572,38.792559 20.611483,41.621316 18.082992,46.074034 C 24.191818,43.817472 29.733896,42.431141 35.882249,39.001554 C 37.21069,38.289731 36.312852,34.956459 35.932429,33.847078 C 35.774373,33.162746 35.520467,32.359989 35.520468,31.532573 C 35.520468,29.444048 35.500937,27.331118 36.013259,26.806158 C 36.575766,26.145418 36.817714,25.468188 36.293343,25.92932 z" display="inline" enable-background="new" opacity=".4"/><path id="path2746" fill="none" fill-opacity="1" fill-rule="evenodd" stroke="url(#linearGradient9013)" stroke-dasharray="none" stroke-dashoffset=".361" stroke-linecap="round" stroke-linejoin="round" stroke-miterlimit="4" stroke-opacity="1" stroke-width="2" d="M 36.162649,27.85146 C 37.094309,28.77139 37.300149,29.196919 37.499999,28.999999 C 37.860749,28.644529 43.098149,23.88867 43.999999,23 C 45.082229,21.9336 46.999999,20 46.999999,20 C 47.008688,19.647657 46.962159,18.588341 46.263419,17.898391 C 45.564659,17.208431 45.008698,17.013729 44.499999,17 C 44.499999,17 42.442969,18.57814 40.999999,20 C 39.872689,21.11084 35.360739,26.144539 34.999999,26.499999 C 34.800149,26.696929 35.230969,26.93151 36.162649,27.85146 z" display="inline" enable-background="new"/><path id="path2750" fill="url(#linearGradient9007)" fill-opacity="1" fill-rule="evenodd" stroke="none" stroke-dasharray="none" stroke-dashoffset=".361" stroke-linecap="round" stroke-linejoin="round" stroke-miterlimit="4" stroke-opacity="1" stroke-width="2" d="M 36.184756,27.829373 C 37.116416,28.749303 37.547829,29.037083 37.747679,28.840153 C 38.331075,28.554995 42.598153,24.38867 43.500003,23.5 C 44.582233,22.4336 46.961049,19.699221 46.961049,19.699221 C 47.273309,19.391521 46.962169,18.588351 46.263419,17.898391 C 45.564669,17.208441 44.750749,16.900701 44.438479,17.208401 C 44.438479,17.208401 41.942973,19.07813 40.500003,20.5 C 39.372683,21.61084 35.357195,25.829102 34.996455,26.184571 C 34.796605,26.381501 35.253076,26.909423 36.184756,27.829373 z" display="inline" enable-background="new"/><path id="path2752" fill="none" fill-opacity="1" fill-rule="evenodd" stroke="url(#linearGradient7227)" stroke-dashoffset=".361" stroke-linecap="round" stroke-linejoin="round" stroke-miterlimit="4" stroke-opacity="1" stroke-width=".972" d="M 36.526542,27.486127 C 36.971339,27.920837 37.490346,28.439726 37.550823,28.420493 C 37.839394,28.328719 43.167346,23.165787 43.56484,22.778107 C 44.574577,21.793304 46.587107,19.442413 46.592032,19.364634 C 46.612955,19.034186 46.177272,18.502689 45.857651,18.190317 C 45.538716,17.878614 45.00886,17.558344 44.74429,17.579865 C 44.663038,17.586474 42.542325,19.19706 41.168579,20.536887 C 40.135885,21.544071 35.617041,26.264131 35.501443,26.371158 C 35.51248,26.428182 36.082294,27.051954 36.526542,27.486127 z" display="inline" enable-background="new" opacity=".8"/><path id="path2754" fill="url(#radialGradient7288)" fill-opacity="1" fill-rule="evenodd" stroke="none" stroke-dasharray="none" stroke-dashoffset=".361" stroke-linecap="round" stroke-linejoin="round" stroke-miterlimit="4" stroke-opacity="1" stroke-width="2" d="M 36.778385,27.069455 C 37.179185,27.462215 37.455156,27.933377 37.654566,27.736007 C 38.014506,27.379747 38.750115,26.75798 39.469995,26.04545 C 40.791655,24.737311 42.207267,23.446002 43.107117,22.555352 C 44.186957,21.486572 45.848745,19.523724 45.848745,19.523724 C 46.160315,19.215334 45.871635,18.879543 45.571035,18.584983 C 45.270435,18.290413 44.920584,17.958975 44.609014,18.267365 C 44.609014,18.267365 42.830836,19.571159 41.391066,20.996209 C 40.266246,22.109519 39.217455,23.25816 37.987185,24.47584 C 37.267295,25.18836 36.644669,25.957574 36.284729,26.313834 C 36.085329,26.511204 36.377575,26.676705 36.778385,27.069455 z" display="inline" enable-background="new"/></g></svg>