<svg xmlns="http://www.w3.org/2000/svg" xmlns:svg="http://www.w3.org/2000/svg" xmlns:xlink="http://www.w3.org/1999/xlink" id="svg7614" width="48" height="48"><defs id="defs7616"><linearGradient id="linearGradient6028"><stop id="stop6030" offset="0" stop-color="#fff" stop-opacity="1"/><stop id="stop6032" offset="1" stop-color="#fff" stop-opacity="0"/></linearGradient><linearGradient id="linearGradient3515" x1="28.703" x2="17.743" y1="31.495" y2="18.367" gradientUnits="userSpaceOnUse" xlink:href="#linearGradient6028"/><linearGradient id="linearGradient6036"><stop id="stop6038" offset="0" stop-color="#fff" stop-opacity="1"/><stop id="stop6040" offset="1" stop-color="#fff" stop-opacity="0"/></linearGradient><linearGradient id="linearGradient3519" x1="10.502" x2="48.799" y1="3.61" y2="54.698" gradientTransform="matrix(0.639377,0,0,0.657102,17.56881,16.131)" gradientUnits="userSpaceOnUse" xlink:href="#linearGradient6036"/><linearGradient id="linearGradient4409"><stop id="stop4411" offset="0" stop-color="#fff" stop-opacity="1"/><stop id="stop4413" offset="1" stop-color="#fff" stop-opacity="0"/></linearGradient><linearGradient id="linearGradient4415" x1="25.986" x2="15.889" y1="24.92" y2="11.67" gradientTransform="matrix(0.655734,0,0,0.673717,17.553885,16.375703)" gradientUnits="userSpaceOnUse" xlink:href="#linearGradient4409"/><linearGradient id="aigrd2" x1="12.274" x2="35.391" y1="32.416" y2="14.203" gradientUnits="userSpaceOnUse"><stop id="stop3043" offset="0" stop-color="#FBFBFB"/><stop id="stop3045" offset=".5" stop-color="#B6B6B6"/><stop id="stop3047" offset="1" stop-color="#E4E4E4"/></linearGradient><linearGradient id="linearGradient3523" x1="12.274" x2="35.391" y1="32.416" y2="14.203" gradientTransform="matrix(0.780635,0,0,0.802044,14.400501,14.031322)" gradientUnits="userSpaceOnUse" xlink:href="#aigrd2"/><linearGradient id="aigrd1" x1="14.997" x2="32.511" y1="11.188" y2="34.307" gradientUnits="userSpaceOnUse"><stop id="stop3034" offset="0" stop-color="#EBEBEB"/><stop id="stop3036" offset=".5" stop-color="#FFF"/><stop id="stop3038" offset="1" stop-color="#EBEBEB"/></linearGradient><linearGradient id="linearGradient3526" x1="14.997" x2="32.511" y1="11.188" y2="34.307" gradientTransform="matrix(0.780636,0,0,0.802043,14.400496,14.031325)" gradientUnits="userSpaceOnUse" xlink:href="#aigrd1"/><linearGradient id="linearGradient23419"><stop id="stop23421" offset="0" stop-color="#000" stop-opacity="1"/><stop id="stop23423" offset="1" stop-color="#000" stop-opacity="0"/></linearGradient><radialGradient id="radialGradient3507" cx="23.335" cy="41.636" r="22.627" fx="23.335" fy="41.636" gradientTransform="matrix(1,0,0,0.25,0,31.22703)" gradientUnits="userSpaceOnUse" xlink:href="#linearGradient23419"/><linearGradient id="linearGradient3656"><stop id="stop3658" offset="0" stop-color="#fff" stop-opacity="1"/><stop id="stop3660" offset="1" stop-color="#fff" stop-opacity="0"/></linearGradient><linearGradient id="linearGradient5816" x1="-26.754" x2="-24.75" y1="11.566" y2="9.688" gradientUnits="userSpaceOnUse" xlink:href="#linearGradient3656"/><linearGradient id="linearGradient3520"><stop id="stop3522" offset="0" stop-color="#000" stop-opacity=".413"/><stop id="stop3524" offset="1" stop-color="#000" stop-opacity="0"/></linearGradient><linearGradient id="linearGradient5836" x1="-18.589" x2="-28.789" y1="11.053" y2="14.07" gradientTransform="matrix(0.9223058,0,0,0.9185751,-92.447368,61.3257)" gradientUnits="userSpaceOnUse" xlink:href="#linearGradient3520"/><linearGradient id="linearGradient3671"><stop id="stop3673" offset="0" stop-color="#fff" stop-opacity="1"/><stop id="stop3691" offset=".475" stop-color="#fff" stop-opacity="1"/><stop id="stop3675" offset="1" stop-color="#fff" stop-opacity="0"/></linearGradient><radialGradient id="radialGradient5839" cx="-26.305" cy="10.108" r="7.042" fx="-26.305" fy="10.108" gradientTransform="matrix(0.4073362,-0.2798276,0.7510293,1.0932492,-115.18484,51.56213)" gradientUnits="userSpaceOnUse" xlink:href="#linearGradient3671"/><linearGradient id="linearGradient6469"><stop id="stop6471" offset="0" stop-color="#000" stop-opacity="1"/><stop id="stop6473" offset="1" stop-color="#000" stop-opacity="0"/></linearGradient><linearGradient id="linearGradient6475" x1="58.282" x2="61.181" y1="70.752" y2="67.799" gradientTransform="translate(-180,0)" gradientUnits="userSpaceOnUse" xlink:href="#linearGradient6469"/><linearGradient id="linearGradient3741"><stop id="stop3743" offset="0" stop-color="#fff" stop-opacity="1"/><stop id="stop3745" offset="1" stop-color="#fff" stop-opacity="0"/></linearGradient><radialGradient id="radialGradient5810" cx="4" cy="5.3" r="17" fx="4" fy="5.3" gradientTransform="matrix(1.8860258,0,0,1.1764706,-3.5441033,-4.2352941)" gradientUnits="userSpaceOnUse" xlink:href="#linearGradient3741"/><linearGradient id="linearGradient3613"><stop id="stop3615" offset="0" stop-color="#888a85" stop-opacity="1"/><stop id="stop3617" offset="1" stop-color="#babdb6" stop-opacity="1"/></linearGradient><linearGradient id="linearGradient5845" x1="-47.5" x2="-62.75" y1="49.021" y2="-22.502" gradientTransform="translate(-90,60)" gradientUnits="userSpaceOnUse" xlink:href="#linearGradient3613"/><linearGradient id="linearGradient3683"><stop id="stop3685" offset="0" stop-color="#f6f6f5" stop-opacity="1"/><stop id="stop3689" offset="1" stop-color="#d3d7cf" stop-opacity="1"/></linearGradient><radialGradient id="radialGradient5843" cx="-30.25" cy="35.357" r="18" fx="-30.25" fy="35.357" gradientTransform="matrix(3.9957492,0,0,1.9350367,0.62141,28.832578)" gradientUnits="userSpaceOnUse" xlink:href="#linearGradient3683"/><linearGradient id="linearGradient5804" x1="25.058" x2="25.058" y1="47.028" y2="39.999" gradientUnits="userSpaceOnUse" xlink:href="#linearGradient3702"/><radialGradient id="radialGradient5802" cx="4.993" cy="43.5" r="2.5" fx="4.993" fy="43.5" gradientTransform="matrix(2.003784,0,0,1.4,-20.01187,-104.4)" gradientUnits="userSpaceOnUse" xlink:href="#linearGradient3688"/><radialGradient id="radialGradient5800" cx="4.993" cy="43.5" r="2.5" fx="4.993" fy="43.5" gradientTransform="matrix(2.003784,0,0,1.4,27.98813,-17.4)" gradientUnits="userSpaceOnUse" xlink:href="#linearGradient3688"/><linearGradient id="linearGradient3702"><stop id="stop3704" offset="0" stop-color="#000" stop-opacity="0"/><stop id="stop3710" offset=".5" stop-color="#000" stop-opacity="1"/><stop id="stop3706" offset="1" stop-color="#000" stop-opacity="0"/></linearGradient><linearGradient id="linearGradient5798" x1="25.058" x2="25.058" y1="47.028" y2="39.999" gradientUnits="userSpaceOnUse" xlink:href="#linearGradient3702"/><radialGradient id="radialGradient5796" cx="4.993" cy="43.5" r="2.5" fx="4.993" fy="43.5" gradientTransform="matrix(2.003784,0,0,1.4,-20.01187,-104.4)" gradientUnits="userSpaceOnUse" xlink:href="#linearGradient3688"/><linearGradient id="linearGradient3688"><stop id="stop3690" offset="0" stop-color="#000" stop-opacity="1"/><stop id="stop3692" offset="1" stop-color="#000" stop-opacity="0"/></linearGradient><radialGradient id="radialGradient5794" cx="4.993" cy="43.5" r="2.5" fx="4.993" fy="43.5" gradientTransform="matrix(2.003784,0,0,1.4,27.98813,-17.4)" gradientUnits="userSpaceOnUse" xlink:href="#linearGradient3688"/></defs><metadata id="metadata7619"/><g id="layer1"><g id="g6015" display="inline" transform="translate(150,-60)"><rect id="rect5504" width="48" height="48" x="-150" y="60" fill="#000" fill-opacity="1" stroke="none" stroke-dasharray="none" stroke-miterlimit="4" stroke-width="1" display="inline" opacity="0"/><g id="g5508" display="inline" opacity=".656" transform="matrix(1.0464281,0,0,0.8888889,-151.18572,65.72224)"><g id="g5511" opacity=".4" transform="matrix(1.052632,0,0,1.285713,-1.263158,-13.42854)"><rect id="rect5513" width="5" height="7" x="38" y="40" fill="url(#radialGradient5794)" fill-opacity="1" stroke="none" stroke-dasharray="none" stroke-linecap="round" stroke-linejoin="miter" stroke-miterlimit="4" stroke-opacity="1" stroke-width="1" opacity="1"/><rect id="rect5515" width="5" height="7" x="-10" y="-47" fill="url(#radialGradient5796)" fill-opacity="1" stroke="none" stroke-dasharray="none" stroke-linecap="round" stroke-linejoin="miter" stroke-miterlimit="4" stroke-opacity="1" stroke-width="1" opacity="1" transform="scale(-1,-1)"/><rect id="rect5517" width="28" height="7" x="10" y="40" fill="url(#linearGradient5798)" fill-opacity="1" stroke="none" stroke-dasharray="none" stroke-linecap="round" stroke-linejoin="miter" stroke-miterlimit="4" stroke-opacity="1" stroke-width="1" opacity="1"/></g></g><g id="g5519" display="inline" transform="matrix(0.9548466,0,0,0.5555562,-148.98776,79.888875)"><g id="g5521" opacity=".4" transform="matrix(1.052632,0,0,1.285713,-1.263158,-13.42854)"><rect id="rect5523" width="5" height="7" x="38" y="40" fill="url(#radialGradient5800)" fill-opacity="1" stroke="none" stroke-dasharray="none" stroke-linecap="round" stroke-linejoin="miter" stroke-miterlimit="4" stroke-opacity="1" stroke-width="1" opacity="1"/><rect id="rect5525" width="5" height="7" x="-10" y="-47" fill="url(#radialGradient5802)" fill-opacity="1" stroke="none" stroke-dasharray="none" stroke-linecap="round" stroke-linejoin="miter" stroke-miterlimit="4" stroke-opacity="1" stroke-width="1" opacity="1" transform="scale(-1,-1)"/><rect id="rect5527" width="28" height="7" x="10" y="40" fill="url(#linearGradient5804)" fill-opacity="1" stroke="none" stroke-dasharray="none" stroke-linecap="round" stroke-linejoin="miter" stroke-miterlimit="4" stroke-opacity="1" stroke-width="1" opacity="1"/></g></g><path id="path5529" fill="url(#radialGradient5843)" fill-opacity="1" stroke="url(#linearGradient5845)" stroke-miterlimit="4" stroke-width="1" d="M -141.47614,63.5 C -141.47614,63.5 -124,63.5 -122.5,63.5 C -118.62295,63.572942 -116,66 -113.5,68.5 C -111,71 -108.89232,73.752625 -108.5,77.5 C -108.5,79 -108.5,102.47614 -108.5,102.47614 C -108.5,103.59736 -109.40264,104.5 -110.52385,104.5 L -141.47614,104.5 C -142.59736,104.5 -143.5,103.59736 -143.5,102.47614 L -143.5,65.523858 C -143.5,64.402641 -142.59736,63.5 -141.47614,63.5 z" display="inline"/><path id="path5531" fill="url(#radialGradient5810)" fill-opacity="1" stroke="none" stroke-miterlimit="4" stroke-width="1" d="M 8.53125,4 C 7.6730803,4 7,4.6730802 7,5.53125 L 7,42.46875 C 7,43.32692 7.6730802,44 8.53125,44 L 39.46875,44 C 40.326919,44 41,43.326918 41,42.46875 C 41,42.46875 41,19 41,17.5 C 41,16.10803 40.513021,13.200521 38.65625,11.34375 C 36.65625,9.34375 35.65625,8.34375 33.65625,6.34375 C 31.799479,4.4869792 28.89197,4 27.5,4 C 26,4 8.53125,4 8.53125,4 z" display="inline" opacity=".68" transform="translate(-150,60)"/><path id="rect5857" fill="url(#linearGradient6475)" fill-opacity="1" fill-rule="evenodd" stroke="none" stroke-dasharray="none" stroke-dashoffset="0" stroke-linecap="round" stroke-linejoin="round" stroke-miterlimit="4" stroke-opacity="1" stroke-width="1" marker-end="none" marker-mid="none" marker-start="none" d="M -138.59375,69.125 C -138.81243,69.125 -139,69.312565 -139,69.53125 C -139,69.749934 -138.81243,69.937499 -138.59375,69.9375 L -117.40625,69.9375 C -117.18757,69.9375 -117,69.749934 -117,69.53125 C -117,69.312566 -117.18757,69.125 -117.40625,69.125 L -138.59375,69.125 z M -138.53125,71.0625 C -138.79094,71.0625 -139,71.271563 -139,71.53125 C -139,71.790937 -138.79094,72 -138.53125,72 L -116.46875,72 C -116.20906,72 -116,71.790937 -116,71.53125 C -116,71.271563 -116.20906,71.0625 -116.46875,71.0625 L -138.53125,71.0625 z M -138.53125,73.0625 C -138.79094,73.0625 -139,73.271563 -139,73.53125 C -139,73.790937 -138.79094,74 -138.53125,74 L -113.34375,74 C -113.08406,74 -112.875,73.790937 -112.875,73.53125 C -112.875,73.271563 -113.08406,73.0625 -113.34375,73.0625 L -138.53125,73.0625 z M -138.53125,75.0625 C -138.79094,75.0625 -139,75.271563 -139,75.53125 C -139,75.790937 -138.79094,76 -138.53125,76 L -113.34375,76 C -113.08406,76 -112.875,75.790937 -112.875,75.53125 C -112.875,75.271563 -113.08406,75.0625 -113.34375,75.0625 L -138.53125,75.0625 z M -138.53125,77.0625 C -138.79094,77.0625 -139,77.271563 -139,77.53125 C -139,77.790937 -138.79094,78 -138.53125,78 L -113.34375,78 C -113.08406,78 -112.875,77.790937 -112.875,77.53125 C -112.875,77.271563 -113.08406,77.0625 -113.34375,77.0625 L -138.53125,77.0625 z" display="inline" opacity=".15" overflow="visible" visibility="visible" style="marker:none"/><path id="path5533" fill="url(#radialGradient5839)" fill-opacity="1" stroke="none" stroke-miterlimit="4" stroke-width="1" d="M -122.5,64 C -123.88889,64 -122.54207,64.497088 -121.15625,65.125 C -119.77043,65.752912 -116.18337,68.340052 -117,72 C -112.67669,71.569417 -110.32087,75.122378 -110,76.28125 C -109.67913,77.440122 -109,78.888889 -109,77.5 C -108.97167,73.694419 -111.84543,71.068299 -113.84375,68.84375 C -115.84207,66.619201 -118.84621,64.476761 -122.5,64 z" display="inline"/><path id="path5535" fill="url(#linearGradient5836)" fill-opacity="1" stroke="none" stroke-miterlimit="4" stroke-width="1" d="M -121.39912,65.014353 C -120.47682,65.014353 -118.39068,71.210015 -119.31298,75.343603 C -115.01802,74.915844 -110.4596,75.43178 -110,76.28125 C -110.32087,75.122378 -112.67669,71.569417 -117,72 C -116.13534,68.124761 -120.18657,65.382702 -121.39912,65.014353 z" display="inline" opacity=".879"/><path id="path5537" fill="none" fill-opacity="1" stroke="url(#linearGradient5816)" stroke-miterlimit="4" stroke-width="1" d="M -51.46875,4.5 C -52.051916,4.5 -52.5,4.9480842 -52.5,5.53125 L -52.5,42.46875 C -52.5,43.051915 -52.051914,43.5 -51.46875,43.5 L -20.53125,43.5 C -19.948085,43.5 -19.5,43.051914 -19.5,42.46875 C -19.5,42.46875 -19.5,19 -19.5,17.5 C -19.5,16.220971 -19.980469,13.394531 -21.6875,11.6875 C -23.6875,9.6875 -24.6875,8.6875 -26.6875,6.6875 C -28.394531,4.9804687 -31.220971,4.5 -32.5,4.5 C -34,4.5 -51.46875,4.5 -51.46875,4.5 z" display="inline" transform="translate(-90,60)"/><g id="g5539" fill="#000" display="inline" opacity=".15" transform="matrix(0.928889,0,0,1,-148.28889,60)"><rect id="rect5549" width="28.125" height=".938" x="10" y="19.063" fill="#000" fill-opacity="1" fill-rule="evenodd" stroke="none" stroke-dasharray="none" stroke-dashoffset="0" stroke-linecap="round" stroke-linejoin="round" stroke-miterlimit="4" stroke-opacity="1" stroke-width="1" marker-end="none" marker-mid="none" marker-start="none" display="inline" opacity="1" overflow="visible" rx=".505" ry=".469" visibility="visible" style="marker:none"/><rect id="rect5553" width="28.125" height=".938" x="10" y="21.063" fill="#000" fill-opacity="1" fill-rule="evenodd" stroke="none" stroke-dasharray="none" stroke-dashoffset="0" stroke-linecap="round" stroke-linejoin="round" stroke-miterlimit="4" stroke-opacity="1" stroke-width="1" marker-end="none" marker-mid="none" marker-start="none" display="inline" opacity="1" overflow="visible" rx=".505" ry=".469" visibility="visible" style="marker:none"/><rect id="rect5555" width="28.125" height=".938" x="10" y="23.063" fill="#000" fill-opacity="1" fill-rule="evenodd" stroke="none" stroke-dasharray="none" stroke-dashoffset="0" stroke-linecap="round" stroke-linejoin="round" stroke-miterlimit="4" stroke-opacity="1" stroke-width="1" marker-end="none" marker-mid="none" marker-start="none" display="inline" opacity="1" overflow="visible" rx=".505" ry=".469" visibility="visible" style="marker:none"/><rect id="rect5557" width="28.125" height=".938" x="10" y="25.063" fill="#000" fill-opacity="1" fill-rule="evenodd" stroke="none" stroke-dasharray="none" stroke-dashoffset="0" stroke-linecap="round" stroke-linejoin="round" stroke-miterlimit="4" stroke-opacity="1" stroke-width="1" marker-end="none" marker-mid="none" marker-start="none" display="inline" opacity="1" overflow="visible" rx=".505" ry=".469" visibility="visible" style="marker:none"/><rect id="rect5559" width="28.125" height=".938" x="10" y="27.063" fill="#000" fill-opacity="1" fill-rule="evenodd" stroke="none" stroke-dasharray="none" stroke-dashoffset="0" stroke-linecap="round" stroke-linejoin="round" stroke-miterlimit="4" stroke-opacity="1" stroke-width="1" marker-end="none" marker-mid="none" marker-start="none" display="inline" opacity="1" overflow="visible" rx=".505" ry=".469" visibility="visible" style="marker:none"/><rect id="rect5561" width="28.125" height=".938" x="10" y="29.063" fill="#000" fill-opacity="1" fill-rule="evenodd" stroke="none" stroke-dasharray="none" stroke-dashoffset="0" stroke-linecap="round" stroke-linejoin="round" stroke-miterlimit="4" stroke-opacity="1" stroke-width="1" marker-end="none" marker-mid="none" marker-start="none" display="inline" opacity="1" overflow="visible" rx=".505" ry=".469" visibility="visible" style="marker:none"/><rect id="rect5563" width="28.125" height=".938" x="10" y="31.063" fill="#000" fill-opacity="1" fill-rule="evenodd" stroke="none" stroke-dasharray="none" stroke-dashoffset="0" stroke-linecap="round" stroke-linejoin="round" stroke-miterlimit="4" stroke-opacity="1" stroke-width="1" marker-end="none" marker-mid="none" marker-start="none" display="inline" opacity="1" overflow="visible" rx=".505" ry=".469" visibility="visible" style="marker:none"/><rect id="rect5565" width="28.125" height=".938" x="10" y="33.063" fill="#000" fill-opacity="1" fill-rule="evenodd" stroke="none" stroke-dasharray="none" stroke-dashoffset="0" stroke-linecap="round" stroke-linejoin="round" stroke-miterlimit="4" stroke-opacity="1" stroke-width="1" marker-end="none" marker-mid="none" marker-start="none" display="inline" opacity="1" overflow="visible" rx=".505" ry=".469" visibility="visible" style="marker:none"/><rect id="rect5567" width="28.125" height=".938" x="10" y="35.063" fill="#000" fill-opacity="1" fill-rule="evenodd" stroke="none" stroke-dasharray="none" stroke-dashoffset="0" stroke-linecap="round" stroke-linejoin="round" stroke-miterlimit="4" stroke-opacity="1" stroke-width="1" marker-end="none" marker-mid="none" marker-start="none" display="inline" opacity="1" overflow="visible" rx=".505" ry=".469" visibility="visible" style="marker:none"/><rect id="rect5569" width="13.813" height=".938" x="10" y="37.063" fill="#000" fill-opacity="1" fill-rule="evenodd" stroke="none" stroke-dasharray="none" stroke-dashoffset="0" stroke-linecap="round" stroke-linejoin="round" stroke-miterlimit="4" stroke-opacity="1" stroke-width="1" marker-end="none" marker-mid="none" marker-start="none" display="inline" opacity="1" overflow="visible" rx=".505" ry=".469" visibility="visible" style="marker:none"/></g></g><path id="path23417" fill="url(#radialGradient3507)" fill-opacity="1" fill-rule="evenodd" stroke="none" stroke-dasharray="none" stroke-dashoffset="0" stroke-linecap="butt" stroke-linejoin="miter" stroke-miterlimit="4" stroke-opacity="1" stroke-width="2" marker-end="none" marker-mid="none" marker-start="none" d="M 45.961941,41.63604 A 22.627417,5.6568542 0 1 1 0.70710754,41.63604 A 22.627417,5.6568542 0 1 1 45.961941,41.63604 z" display="inline" opacity=".55" overflow="visible" transform="matrix(0.655734,0,0,0.718377,17.826329,13.771873)" visibility="visible" style="marker:none"/><path id="path3040" fill="url(#linearGradient3526)" fill-rule="nonzero" stroke="none" stroke-miterlimit="4" d="M 33.135758,18.522767 C 25.563589,18.522767 19.47463,24.778705 19.47463,32.558525 C 19.47463,40.338345 25.563589,46.594283 33.135758,46.594283 C 40.707927,46.594283 46.796887,40.338345 46.796887,32.558525 C 46.796887,24.778705 40.707927,18.522767 33.135758,18.522767 L 33.135758,18.522767 z M 33.135758,35.927107 C 31.340296,35.927107 29.857087,34.403224 29.857087,32.558525 C 29.857087,30.713825 31.340296,29.189943 33.135758,29.189943 C 34.931221,29.189943 36.414429,30.713825 36.414429,32.558525 C 36.414429,34.403224 34.931221,35.927107 33.135758,35.927107 z"/><path id="path3049" fill="url(#linearGradient3523)" fill-rule="nonzero" stroke="gray" stroke-miterlimit="4" stroke-opacity="1" stroke-width="1" d="M 33.135743,18.522768 C 25.563582,18.522768 19.474629,24.778711 19.474629,32.558536 C 19.474629,40.338363 25.563582,46.594306 33.135743,46.594306 C 40.707904,46.594306 46.796858,40.338363 46.796858,32.558536 C 46.796858,24.778711 40.707904,18.522768 33.135743,18.522768 L 33.135743,18.522768 z M 33.135743,35.927122 C 31.340283,35.927122 29.857076,34.403238 29.857076,32.558536 C 29.857076,30.713836 31.340283,29.189952 33.135743,29.189952 C 34.931203,29.189952 36.414411,30.713836 36.414411,32.558536 C 36.414411,34.403238 34.931203,35.927122 33.135743,35.927122 z"/><path id="path3531" fill="url(#linearGradient4415)" fill-opacity="1" fill-rule="nonzero" stroke="none" stroke-miterlimit="4" stroke-opacity="1" d="M 32.577107,18.944136 C 25.520298,19.217604 19.921694,25.154017 19.921694,32.474 C 19.921694,35.792394 21.067342,38.808544 22.981895,41.155832 L 30.271922,34.815964 C 29.798915,34.247791 29.583903,33.439448 29.583903,32.64243 C 29.583903,30.358268 31.094904,28.891598 33.234621,28.891598 C 34.207681,28.891598 35.182864,29.345297 35.764749,30.068108 L 43.218711,23.812453 C 40.808775,20.831828 37.156924,18.944136 33.070688,18.944136 C 32.899698,18.944136 32.746471,18.937573 32.577107,18.944136 z"/><path id="path3051" fill="#eeeeec" fill-rule="nonzero" stroke="none" stroke-miterlimit="4" d="M 33.135758,25.751184 C 29.435722,25.751184 26.510111,28.84543 26.510111,32.558525 C 26.510111,36.360028 29.52177,39.365867 33.135758,39.365867 C 36.835794,39.365867 39.761405,36.271621 39.761405,32.558525 C 39.761405,28.757022 36.749747,25.751184 33.135758,25.751184 L 33.135758,25.751184 z M 33.135758,36.271621 C 31.156669,36.271621 29.52177,34.591888 29.52177,32.558525 C 29.52177,30.525163 31.156669,28.84543 33.135758,28.84543 C 35.114847,28.84543 36.749747,30.525163 36.749747,32.558525 C 36.749747,34.591888 35.114847,36.271621 33.135758,36.271621 z" opacity=".511"/><path id="path5264" fill="none" fill-rule="nonzero" stroke="url(#linearGradient3519)" stroke-miterlimit="4" stroke-opacity="1" stroke-width="1" d="M 33.135735,19.549483 C 26.119498,19.549483 20.477575,25.347807 20.477575,32.55854 C 20.477575,39.769274 26.119498,45.567597 33.135735,45.567597 C 40.151972,45.567597 45.793895,39.769274 45.793895,32.55854 C 45.793895,25.347807 40.151972,19.549483 33.135735,19.549483 L 33.135735,19.549483 z" opacity=".546"/><path id="path6026" fill="none" fill-opacity=".316" fill-rule="nonzero" stroke="url(#linearGradient3515)" stroke-dashoffset="0" stroke-linecap="butt" stroke-linejoin="miter" stroke-miterlimit="4" stroke-opacity="1" stroke-width="1.4" marker-end="none" marker-mid="none" marker-start="none" d="M 30.405591,24.930641 A 6.0987959,6.0987959 0 1 1 18.207999,24.930641 A 6.0987959,6.0987959 0 1 1 30.405591,24.930641 z" display="inline" opacity=".672" overflow="visible" transform="matrix(0.655734,0,0,0.673717,17.228554,15.775165)" visibility="visible" style="marker:none"/></g></svg>