<svg xmlns="http://www.w3.org/2000/svg" xmlns:svg="http://www.w3.org/2000/svg" xmlns:xlink="http://www.w3.org/1999/xlink" id="svg7678" width="16" height="16"><defs id="defs7680"><linearGradient id="linearGradient4788-7"><stop id="stop4790-8" offset="0" stop-color="#fff" stop-opacity="1"/><stop id="stop4792-6" offset="1" stop-color="#fff" stop-opacity="0"/></linearGradient><radialGradient id="radialGradient2940" cx="326.021" cy="58" r="12.5" fx="326.021" fy="58" gradientTransform="matrix(-0.52411,2.3029937e-7,2.554207e-2,-0.3734652,476.07755,243.74315)" gradientUnits="userSpaceOnUse" xlink:href="#linearGradient4788-7"/><linearGradient id="linearGradient4788"><stop id="stop4790" offset="0" stop-color="#fff" stop-opacity="1"/><stop id="stop4792" offset="1" stop-color="#fff" stop-opacity="0"/></linearGradient><radialGradient id="radialGradient2938" cx="327.5" cy="58" r="12.5" fx="327.5" fy="58" gradientTransform="matrix(2.0309539,1.5551012e-8,0,0.3850212,-353.09081,199.66878)" gradientUnits="userSpaceOnUse" xlink:href="#linearGradient4788"/><linearGradient id="linearGradient5687"><stop id="stop5689" offset="0" stop-color="#fff" stop-opacity="1"/><stop id="stop5691" offset="1" stop-color="#fff" stop-opacity="0"/></linearGradient><linearGradient id="linearGradient10654" x1="88" x2="178" y1="44.5" y2="202.5" gradientTransform="matrix(4.807689e-2,0,0,4.032257e-2,303.88461,219.09677)" gradientUnits="userSpaceOnUse" xlink:href="#linearGradient5687"/><linearGradient id="linearGradient7675"><stop id="stop7677" offset="0" stop-color="#729fcf" stop-opacity="1"/><stop id="stop7679" offset="1" stop-color="#204a87" stop-opacity="1"/></linearGradient><radialGradient id="radialGradient10657" cx="24.006" cy="37.922" r="19" fx="24.006" fy="37.922" gradientTransform="matrix(0.6853672,0,0,0.2728534,294.56158,217.4583)" gradientUnits="userSpaceOnUse" xlink:href="#linearGradient7675"/><linearGradient id="linearGradient5538"><stop id="stop5540" offset="0" stop-color="#555753" stop-opacity="1"/><stop id="stop5542" offset="1" stop-color="#babdb6" stop-opacity="1"/></linearGradient><linearGradient id="linearGradient10662" x1="317.924" x2="298.349" y1="92.351" y2="-18.469" gradientTransform="matrix(0.3333333,0,0,0.3335316,204.3333,201.3166)" gradientUnits="userSpaceOnUse" xlink:href="#linearGradient5538"/><linearGradient id="linearGradient4654"><stop id="stop4656" offset="0" stop-color="#eeeeec" stop-opacity="1"/><stop id="stop4658" offset="1" stop-color="#babdb6" stop-opacity="1"/></linearGradient><radialGradient id="radialGradient10660" cx="314.213" cy="56.925" r="23" fx="314.213" fy="56.925" gradientTransform="matrix(0.3084776,1.0273957,-0.3405166,9.124115e-2,231.8898,-107.29036)" gradientUnits="userSpaceOnUse" xlink:href="#linearGradient4654"/><linearGradient id="linearGradient3846"><stop id="stop3848" offset="0" stop-color="#fff" stop-opacity="1"/><stop id="stop3850" offset="1" stop-color="#fff" stop-opacity=".178"/></linearGradient><linearGradient id="linearGradient3852" x1="309.375" x2="309.375" y1="231.625" y2="230.345" gradientUnits="userSpaceOnUse" xlink:href="#linearGradient3846"/><linearGradient id="linearGradient2732"><stop id="stop2734" offset="0" stop-color="#555753" stop-opacity="1"/><stop id="stop2736" offset="1" stop-color="#888a85" stop-opacity="1"/></linearGradient><linearGradient id="linearGradient2738" x1="306.594" x2="306.594" y1="233.125" y2="232.499" gradientUnits="userSpaceOnUse" xlink:href="#linearGradient2732"/><linearGradient id="linearGradient3522"><stop id="stop3524" offset="0" stop-color="#eeeeec" stop-opacity="1"/><stop id="stop3526" offset="1" stop-color="#888a85" stop-opacity="1"/></linearGradient><radialGradient id="radialGradient3528" cx="308.506" cy="232.638" r="5" fx="308.506" fy="232.638" gradientTransform="matrix(2.5313598,6.322989e-6,-1.0787642e-6,0.4318749,-472.50113,131.0587)" gradientUnits="userSpaceOnUse" xlink:href="#linearGradient3522"/></defs><metadata id="metadata7683"/><g id="layer1"><g id="g10671" display="inline" transform="translate(-303,-219)"><g id="g2915"><path id="rect3813" fill="url(#radialGradient3528)" fill-opacity="1" stroke="url(#linearGradient2738)" stroke-dasharray="none" stroke-dashoffset="0" stroke-linecap="square" stroke-linejoin="round" stroke-miterlimit="4" stroke-opacity="1" stroke-width="1" d="M 308.5,226.5 L 308.5,231.5 L 307.5,231.65625 C 306.94117,231.65625 306.5,232.10225 306.5,232.65625 C 306.5,232.65625 306.75,233.5 306.75,233.5 L 315.3125,233.5 C 315.3125,233.5 315.5,232.65625 315.5,232.65625 C 315.5,232.10225 315.05884,231.65625 314.5,231.65625 L 313.5,231.5 L 313.5,226.5 L 308.5,226.5 z"/><rect id="rect2750" width="8" height="1" x="307" y="232" fill="#fff" fill-opacity="1" stroke="none" opacity=".425" rx=".751" ry=".745"/><path id="path3831" fill="none" stroke="url(#linearGradient3852)" stroke-dasharray="none" stroke-dashoffset="0" stroke-linecap="square" stroke-linejoin="round" stroke-miterlimit="4" stroke-opacity="1" stroke-width="1" d="M 309.4375,226.4375 L 309.4375,230.5 C 309.43745,231.01775 309.01775,231.43745 308.5,231.4375 L 307.5,231.4375 C 307.43998,231.4375 307.4375,231.44371 307.4375,231.5 C 307.4375,231.5563 307.43996,231.5625 307.5,231.5625 L 314.5,231.5625 C 314.56002,231.5625 314.5625,231.55629 314.5625,231.5 C 314.5625,231.4437 314.56004,231.4375 314.5,231.4375 L 313.5,231.4375 C 312.98225,231.43745 312.56255,231.01775 312.5625,230.5 L 312.5625,226.4375 L 309.4375,226.4375 z" display="inline" enable-background="new" opacity=".635" transform="translate(0,1)"/><g id="g3781" transform="translate(-13,47)"><path id="path3771" fill="#f9f9f9" fill-opacity="1" stroke="none" d="M 311.08279,195.50287 A 0.50823301,0.55242717 0 1 1 310.06632,195.50287 A 0.50823301,0.55242717 0 1 1 311.08279,195.50287 z" display="inline" enable-background="new" transform="matrix(1.2446752,0,0,1.1450853,-66.001924,-38.429955)"/><path id="path3773" fill="#f9f9f9" fill-opacity="1" stroke="none" d="M 311.08279,195.50287 A 0.50823301,0.55242717 0 1 1 310.06632,195.50287 A 0.50823301,0.55242717 0 1 1 311.08279,195.50287 z" display="inline" enable-background="new" transform="matrix(1.2446752,0,0,1.1450853,-59.001924,-38.429955)"/></g></g><rect id="rect3653" width="15" height="10" x="303.5" y="219.5" fill="url(#radialGradient10660)" fill-opacity="1" stroke="url(#linearGradient10662)" stroke-dasharray="none" stroke-dashoffset=".5" stroke-linecap="round" stroke-linejoin="round" stroke-miterlimit="4" stroke-opacity="1" stroke-width="1" display="inline" enable-background="new" rx="1.25" ry="1.25"/><rect id="rect3655" width="11.029" height="6" x="305.5" y="221.5" fill="url(#radialGradient10657)" fill-opacity="1" fill-rule="evenodd" stroke="#204a87" stroke-linecap="butt" stroke-linejoin="miter" stroke-opacity="1" stroke-width="1" display="inline" enable-background="new"/><rect id="rect3478" width="10" height="5" x="306" y="222" fill="url(#linearGradient10654)" fill-opacity="1" fill-rule="evenodd" stroke="none" display="inline" enable-background="new" opacity=".15"/><g id="g2923"><path id="path3659" fill="url(#radialGradient2938)" fill-opacity="1" stroke="none" d="M 312.83726,222 L 316,222 L 316,228.07462 L 309.042,228.07462 L 312.83726,222 z" display="inline" enable-background="new" opacity=".37"/><path id="path10743" fill="url(#radialGradient2940)" fill-opacity="1" stroke="none" d="M 308.81616,222.08224 L 310.53933,222.08224 L 308.6345,226.53338 L 307.7877,226.48338 L 308.81616,222.08225 L 308.81616,222.08224 z" display="inline" enable-background="new" opacity=".389"/></g></g></g></svg>