<svg xmlns="http://www.w3.org/2000/svg" xmlns:svg="http://www.w3.org/2000/svg" xmlns:xlink="http://www.w3.org/1999/xlink" id="svg7613" width="22" height="22" version="1.0"><defs id="defs7615"><linearGradient id="linearGradient3339"><stop id="stop3341" offset="0" stop-color="#fff" stop-opacity="1"/><stop id="stop3343" offset="1" stop-color="#fff" stop-opacity="0"/></linearGradient><linearGradient id="linearGradient3688" x1="31" x2="3.259" y1="12.875" y2="24.894" gradientTransform="matrix(0.6851223,0,0,0.6851223,51.710534,-3.7510698)" gradientUnits="userSpaceOnUse" xlink:href="#linearGradient3339"/><linearGradient id="linearGradient3220"><stop id="stop3222" offset="0" stop-color="#2e3436" stop-opacity="1"/><stop id="stop3228" offset=".644" stop-color="#888a85" stop-opacity="1"/><stop id="stop3224" offset="1" stop-color="#555753" stop-opacity="1"/></linearGradient><linearGradient id="linearGradient3486" x1="42.906" x2="44.813" y1="42.219" y2="41.406" gradientTransform="matrix(0.6348975,0,0,0.6897324,2.547621,-8.0024964)" gradientUnits="userSpaceOnUse" xlink:href="#linearGradient3220"/><linearGradient id="linearGradient3241"><stop id="stop3243" offset="0" stop-color="#1b1f20" stop-opacity="1"/><stop id="stop3245" offset="1" stop-color="#babdb6" stop-opacity="1"/></linearGradient><linearGradient id="linearGradient3484" x1="39.937" x2="37.443" y1="27.012" y2="22.395" gradientTransform="matrix(0.6348975,0,0,0.6897324,2.547621,-8.0024964)" gradientUnits="userSpaceOnUse" xlink:href="#linearGradient3241"/><linearGradient id="linearGradient3692"><stop id="stop3694" offset="0" stop-color="#fff" stop-opacity="1"/><stop id="stop3696" offset="1" stop-color="#fff" stop-opacity="0"/></linearGradient><radialGradient id="radialGradient3698" cx="15.391" cy="4.422" r="4.046" fx="15.391" fy="4.422" gradientTransform="matrix(1,0,0,0.9073222,0,0.4098097)" gradientUnits="userSpaceOnUse" xlink:href="#linearGradient3692"/><linearGradient id="linearGradient6264"><stop id="stop6266" offset="0" stop-color="#fff" stop-opacity=".6"/><stop id="stop6268" offset="1" stop-color="#fff" stop-opacity="0"/></linearGradient><linearGradient id="linearGradient9234" x1="26.29" x2="26.29" y1="-3.529" y2="57.305" gradientTransform="matrix(0.4359675,0,0,0.4358359,0.5383414,0.5382574)" gradientUnits="userSpaceOnUse" xlink:href="#linearGradient6264"/><linearGradient id="linearGradient8811"><stop id="stop8813" offset="0" stop-color="#3465a4" stop-opacity="1"/><stop id="stop8815" offset="1" stop-color="#204a87" stop-opacity="1"/></linearGradient><linearGradient id="linearGradient8817" x1="9" x2="9" y1="1" y2="21" gradientUnits="userSpaceOnUse" xlink:href="#linearGradient8811"/><linearGradient id="linearGradient6252"><stop id="stop6254" offset="0" stop-color="#8fb3d9" stop-opacity="1"/><stop id="stop8821" offset=".25" stop-color="#729fcf" stop-opacity="1"/><stop id="stop8823" offset=".68" stop-color="#3465a4" stop-opacity="1"/><stop id="stop6256" offset="1" stop-color="#204a87" stop-opacity="1"/></linearGradient><radialGradient id="radialGradient8819" cx="10.64" cy="2" r="9" fx="10.64" fy="2" gradientTransform="matrix(-2.3717095e-7,2.7777781,-3.2222222,-2.7511828e-7,17.444447,-28.555561)" gradientUnits="userSpaceOnUse" xlink:href="#linearGradient6252"/><radialGradient id="radialGradient9190" cx="605.714" cy="486.648" r="117.143" fx="605.714" fy="486.648" gradientTransform="matrix(-2.774389,0,0,1.969706,112.7623,-872.8854)" gradientUnits="userSpaceOnUse" xlink:href="#linearGradient5060"/><linearGradient id="linearGradient5060"><stop id="stop5062" offset="0" stop-color="#000" stop-opacity="1"/><stop id="stop5064" offset="1" stop-color="#000" stop-opacity="0"/></linearGradient><radialGradient id="radialGradient9188" cx="605.714" cy="486.648" r="117.143" fx="605.714" fy="486.648" gradientTransform="matrix(2.774389,0,0,1.969706,-1891.633,-872.8854)" gradientUnits="userSpaceOnUse" xlink:href="#linearGradient5060"/><linearGradient id="linearGradient5048"><stop id="stop5050" offset="0" stop-color="#000" stop-opacity="0"/><stop id="stop5056" offset=".5" stop-color="#000" stop-opacity="1"/><stop id="stop5052" offset="1" stop-color="#000" stop-opacity="0"/></linearGradient><linearGradient id="linearGradient9186" x1="302.857" x2="302.857" y1="366.648" y2="609.505" gradientTransform="matrix(2.774389,0,0,1.969706,-1892.179,-872.8854)" gradientUnits="userSpaceOnUse" xlink:href="#linearGradient5048"/></defs><metadata id="metadata7618"/><g id="layer1"><g id="g13071" display="inline" transform="matrix(1.0835123e-2,0,0,8.3619525e-3,20.637144,19.26012)"><rect id="rect13073" width="1339.633" height="478.357" x="-1559.252" y="-150.697" fill="url(#linearGradient9186)" fill-opacity="1" fill-rule="nonzero" stroke="none" stroke-dasharray="none" stroke-dashoffset="0" stroke-linecap="round" stroke-linejoin="miter" stroke-miterlimit="4" stroke-opacity="1" stroke-width="1" marker-end="none" marker-mid="none" marker-start="none" display="inline" opacity=".6" overflow="visible" visibility="visible" style="marker:none"/><path id="path13075" fill="url(#radialGradient9188)" fill-opacity="1" fill-rule="nonzero" stroke="none" stroke-dasharray="none" stroke-dashoffset="0" stroke-linecap="round" stroke-linejoin="miter" stroke-miterlimit="4" stroke-opacity="1" stroke-width="1" marker-end="none" marker-mid="none" marker-start="none" d="M -219.61876,-150.68038 C -219.61876,-150.68038 -219.61876,327.65041 -219.61876,327.65041 C -76.744594,328.55086 125.78146,220.48075 125.78138,88.454235 C 125.78138,-43.572302 -33.655436,-150.68036 -219.61876,-150.68038 z" display="inline" opacity=".6" overflow="visible" visibility="visible" style="marker:none"/><path id="path13077" fill="url(#radialGradient9190)" fill-opacity="1" fill-rule="nonzero" stroke="none" stroke-dasharray="none" stroke-dashoffset="0" stroke-linecap="round" stroke-linejoin="miter" stroke-miterlimit="4" stroke-opacity="1" stroke-width="1" marker-end="none" marker-mid="none" marker-start="none" d="M -1559.2523,-150.68038 C -1559.2523,-150.68038 -1559.2523,327.65041 -1559.2523,327.65041 C -1702.1265,328.55086 -1904.6525,220.48075 -1904.6525,88.454235 C -1904.6525,-43.572302 -1745.2157,-150.68036 -1559.2523,-150.68038 z" display="inline" opacity=".6" overflow="visible" visibility="visible" style="marker:none"/></g><rect id="rect5480" width="18.999" height="18.999" x="1.501" y="1.501" fill="url(#radialGradient8819)" fill-opacity="1" fill-rule="nonzero" stroke="url(#linearGradient8817)" stroke-dasharray="none" stroke-linecap="butt" stroke-linejoin="round" stroke-miterlimit="4" stroke-opacity="1" stroke-width="1" opacity="1" rx="1.509" ry="1.518"/><rect id="rect6260" width="17.002" height="17.005" x="2.497" y="2.498" fill="none" fill-opacity="1" fill-rule="nonzero" stroke="url(#linearGradient9234)" stroke-dasharray="none" stroke-linecap="butt" stroke-linejoin="round" stroke-miterlimit="4" stroke-opacity="1" stroke-width="1" opacity=".8" rx=".499" ry=".515"/><path id="path3690" fill="url(#radialGradient3698)" fill-opacity="1" stroke="none" stroke-dasharray="none" stroke-dashoffset="0" stroke-linecap="round" stroke-linejoin="round" stroke-miterlimit="4" stroke-opacity="1" stroke-width=".811" d="M 19.03125,4.421875 A 3.640625,3.265625 0 1 1 11.75,4.421875 A 3.640625,3.265625 0 1 1 19.03125,4.421875 z" display="inline" opacity="1" transform="matrix(1.1673821,0,0,1.3014354,-3.2167393,-4.5352094e-3)"/><g id="g3479" display="inline" transform="matrix(0.7724534,0,0,0.8165596,-3.8708174,1.4088194)"><path id="path3467" fill="none" fill-opacity="1" fill-rule="evenodd" stroke="url(#linearGradient3484)" stroke-dasharray="none" stroke-linecap="round" stroke-linejoin="miter" stroke-miterlimit="4" stroke-opacity="1" stroke-width="3.777" d="M 23.135139,1.3366206 L 31.435461,23.380327" display="inline"/><path id="path3469" fill="#fff" fill-opacity="1" fill-rule="evenodd" stroke="url(#linearGradient3486)" stroke-dasharray="none" stroke-linecap="round" stroke-linejoin="miter" stroke-miterlimit="4" stroke-opacity="1" stroke-width="1.637" d="M 23.135139,1.3366206 L 31.435461,23.380327" display="inline"/></g><path id="path3525" fill="#fff" fill-opacity="1" fill-rule="evenodd" stroke="none" stroke-dasharray="none" stroke-linecap="round" stroke-linejoin="miter" stroke-miterlimit="4" stroke-opacity="1" stroke-width="1.259" d="M 13.9375,0.4375 C 13.555304,0.44857102 13.273846,0.64135368 13.09375,0.9375 C 12.914043,1.2330028 12.912639,1.6102926 13.03125,1.90625 L 15,7.40625 C 15.062816,7.5752678 15.204933,7.7024424 15.379863,7.7461748 C 15.554792,7.7899073 15.740036,7.7445726 15.875,7.625 C 16.052193,7.4656606 16.245274,7.3552357 16.4375,7.34375 C 16.604103,7.328624 16.75461,7.2380532 16.845994,7.0979311 C 16.937378,6.957809 16.959579,6.7835599 16.90625,6.625 L 14.96875,1.15625 C 14.966912,1.1501699 14.939459,1.1622868 14.9375,1.15625 C 14.934938,1.1483558 14.940267,1.1328175 14.9375,1.125 C 14.79329,0.71757198 14.374864,0.4189509 13.9375,0.4375 z" display="inline" transform="translate(-6.5841759e-7,1.0002498)"/><g id="g3682" display="inline" transform="matrix(0.7203784,0,0,0.7136318,-38.874538,1.8957423)"><path id="path3674" fill="url(#linearGradient3688)" fill-opacity="1" fill-rule="evenodd" stroke="none" stroke-linecap="butt" stroke-linejoin="miter" stroke-opacity="1" stroke-width="1" d="M 51.967455,11.492902 C 70.631276,12.676486 58.869234,1.9019195 73.291888,1.5586275 L 76.915643,9.1737895 C 70.334042,6.1049135 65.832056,21.871158 51.881814,12.606225 L 51.967455,11.492902 z" display="inline" opacity=".444"/><path id="path3676" fill="#fff" fill-opacity="1" stroke="none" stroke-dasharray="none" stroke-dashoffset="0" stroke-linecap="round" stroke-linejoin="round" stroke-miterlimit="4" stroke-opacity="1" stroke-width="4" d="M 15.5,24.75 L 11.728554,24.195391 L 9.4510341,27.075687 L 8.8130572,23.317446 L 5.3699407,22.041456 L 8.7470953,20.273343 L 8.8966522,16.604442 L 11.621825,19.26993 L 15.157373,18.278415 L 13.464468,21.693889 L 15.5,24.75 z" display="inline" transform="matrix(0.7792021,0,0,0.7792021,59.136905,-9.8584215)"/><path id="path3678" fill="#fff" fill-opacity="1" stroke="none" stroke-dasharray="none" stroke-dashoffset="0" stroke-linecap="round" stroke-linejoin="round" stroke-miterlimit="4" stroke-opacity="1" stroke-width="4" d="M 15.5,24.75 L 11.728554,24.195391 L 9.4510341,27.075687 L 8.8130572,23.317446 L 5.3699407,22.041456 L 8.7470953,20.273343 L 8.8966522,16.604442 L 11.621825,19.26993 L 15.157373,18.278415 L 13.464468,21.693889 L 15.5,24.75 z" display="inline" transform="matrix(0.3575032,0.3575032,-0.3575032,0.3575032,66.234874,0.2806058)"/><path id="path3680" fill="#fff" fill-opacity="1" stroke="none" stroke-dasharray="none" stroke-dashoffset="0" stroke-linecap="round" stroke-linejoin="round" stroke-miterlimit="4" stroke-opacity="1" stroke-width="4" d="M 15.5,24.75 L 11.728554,24.195391 L 9.4510341,27.075687 L 8.8130572,23.317446 L 5.3699407,22.041456 L 8.7470953,20.273343 L 8.8966522,16.604442 L 11.621825,19.26993 L 15.157373,18.278415 L 13.464468,21.693889 L 15.5,24.75 z" display="inline" transform="matrix(0.3545759,7.8742123e-2,-7.8742123e-2,0.3545759,54.956531,4.3907625)"/></g></g></svg>