<svg xmlns="http://www.w3.org/2000/svg" xmlns:svg="http://www.w3.org/2000/svg" xmlns:xlink="http://www.w3.org/1999/xlink" id="svg7284" width="22" height="22" version="1.0"><defs id="defs7286"><linearGradient id="linearGradient4788-7"><stop id="stop4790-8" offset="0" stop-color="#fff" stop-opacity="1"/><stop id="stop4792-6" offset="1" stop-color="#fff" stop-opacity="0"/></linearGradient><radialGradient id="radialGradient2940" cx="326.021" cy="58" r="12.5" fx="326.021" fy="58" gradientTransform="matrix(-0.52411,2.3029937e-7,2.554207e-2,-0.3734652,476.07755,243.74315)" gradientUnits="userSpaceOnUse" xlink:href="#linearGradient4788-7"/><linearGradient id="linearGradient4788"><stop id="stop4790" offset="0" stop-color="#fff" stop-opacity="1"/><stop id="stop4792" offset="1" stop-color="#fff" stop-opacity="0"/></linearGradient><radialGradient id="radialGradient2938" cx="327.5" cy="58" r="12.5" fx="327.5" fy="58" gradientTransform="matrix(2.0309539,1.5551012e-8,0,0.3850212,-353.09081,199.66878)" gradientUnits="userSpaceOnUse" xlink:href="#linearGradient4788"/><linearGradient id="linearGradient5687"><stop id="stop5689" offset="0" stop-color="#fff" stop-opacity="1"/><stop id="stop5691" offset="1" stop-color="#fff" stop-opacity="0"/></linearGradient><linearGradient id="linearGradient10654" x1="88" x2="178" y1="44.5" y2="202.5" gradientTransform="matrix(4.807689e-2,0,0,4.032257e-2,303.88461,219.09677)" gradientUnits="userSpaceOnUse" xlink:href="#linearGradient5687"/><linearGradient id="linearGradient2722"><stop id="stop2724" offset="0" stop-color="#729fcf" stop-opacity="1"/><stop id="stop2726" offset="1" stop-color="#204a87" stop-opacity="1"/></linearGradient><radialGradient id="radialGradient10657" cx="24.006" cy="37.922" r="19" fx="24.006" fy="37.922" gradientTransform="matrix(0.6853672,0,0,0.2728534,294.56158,217.4583)" gradientUnits="userSpaceOnUse" xlink:href="#linearGradient2722"/><linearGradient id="linearGradient5538"><stop id="stop5540" offset="0" stop-color="#555753" stop-opacity="1"/><stop id="stop5542" offset="1" stop-color="#babdb6" stop-opacity="1"/></linearGradient><linearGradient id="linearGradient10662" x1="317.924" x2="298.349" y1="92.351" y2="-18.469" gradientTransform="matrix(0.3333333,0,0,0.3335316,204.3333,201.3166)" gradientUnits="userSpaceOnUse" xlink:href="#linearGradient5538"/><linearGradient id="linearGradient4654"><stop id="stop4656" offset="0" stop-color="#eeeeec" stop-opacity="1"/><stop id="stop4658" offset="1" stop-color="#babdb6" stop-opacity="1"/></linearGradient><radialGradient id="radialGradient10660" cx="314.213" cy="56.925" r="23" fx="314.213" fy="56.925" gradientTransform="matrix(0.3084776,1.0273957,-0.3405166,9.124115e-2,231.8898,-107.29036)" gradientUnits="userSpaceOnUse" xlink:href="#linearGradient4654"/><linearGradient id="linearGradient3846"><stop id="stop3848" offset="0" stop-color="#fff" stop-opacity="1"/><stop id="stop3850" offset="1" stop-color="#fff" stop-opacity=".178"/></linearGradient><linearGradient id="linearGradient3852" x1="309.375" x2="309.375" y1="231.625" y2="230.345" gradientUnits="userSpaceOnUse" xlink:href="#linearGradient3846"/><linearGradient id="linearGradient2732"><stop id="stop2734" offset="0" stop-color="#555753" stop-opacity="1"/><stop id="stop2736" offset="1" stop-color="#888a85" stop-opacity="1"/></linearGradient><linearGradient id="linearGradient2738" x1="306.594" x2="306.594" y1="233.125" y2="232.499" gradientUnits="userSpaceOnUse" xlink:href="#linearGradient2732"/><linearGradient id="linearGradient3522"><stop id="stop3524" offset="0" stop-color="#eeeeec" stop-opacity="1"/><stop id="stop3526" offset="1" stop-color="#888a85" stop-opacity="1"/></linearGradient><radialGradient id="radialGradient3528" cx="308.506" cy="232.638" r="5" fx="308.506" fy="232.638" gradientTransform="matrix(2.5313598,6.322989e-6,-1.0787642e-6,0.4318749,-472.50113,131.0587)" gradientUnits="userSpaceOnUse" xlink:href="#linearGradient3522"/><linearGradient id="linearGradient4612"><stop id="stop4614" offset="0" stop-color="#cecece" stop-opacity="1"/><stop id="stop4616" offset="1" stop-color="#fff" stop-opacity="1"/></linearGradient><linearGradient id="linearGradient2800" x1="42.381" x2="44.018" y1="42.278" y2="33.344" gradientTransform="matrix(1,0,0,1.0581711,0,-1.8585064)" gradientUnits="userSpaceOnUse" xlink:href="#linearGradient4612"/><linearGradient id="linearGradient8127"><stop id="stop8129" offset="0" stop-color="#e5e5e5" stop-opacity="1"/><stop id="stop8131" offset="1" stop-color="#767676" stop-opacity="1"/></linearGradient><linearGradient id="linearGradient2808" x1="141.082" x2="141.461" y1="24.998" y2="28.502" gradientTransform="matrix(1.0046231,0,0,1,-100.41099,0)" gradientUnits="userSpaceOnUse" xlink:href="#linearGradient8127"/><linearGradient id="linearGradient8137"><stop id="stop8139" offset="0" stop-color="#efefef" stop-opacity="1"/><stop id="stop8141" offset="1" stop-color="#d7d7d7" stop-opacity="1"/></linearGradient><linearGradient id="linearGradient2806" x1="142.902" x2="144.288" y1="26.125" y2="26.851" gradientTransform="matrix(1.0046231,0,0,1,-100.41099,0)" gradientUnits="userSpaceOnUse" xlink:href="#linearGradient8137"/><linearGradient id="linearGradient13090"><stop id="stop13092" offset="0" stop-color="#7b7b7b" stop-opacity="1"/><stop id="stop13094" offset="1" stop-color="#505050" stop-opacity="1"/></linearGradient><linearGradient id="linearGradient2804" x1="40.321" x2="44.09" y1="26.521" y2="32.121" gradientUnits="userSpaceOnUse" xlink:href="#linearGradient13090"/><linearGradient id="linearGradient8115"><stop id="stop8117" offset="0" stop-color="#e3e3e3" stop-opacity="1"/><stop id="stop8123" offset=".5" stop-color="#d4d4d4" stop-opacity="1"/><stop id="stop8125" offset=".5" stop-color="#848484" stop-opacity="1"/><stop id="stop8119" offset="1" stop-color="#c1c1c1" stop-opacity="1"/></linearGradient><linearGradient id="linearGradient2802" x1="138.241" x2="146.803" y1="29.455" y2="29.286" gradientTransform="matrix(1.0216677,0,0,1,-102.97348,0)" gradientUnits="userSpaceOnUse" xlink:href="#linearGradient8115"/><linearGradient id="linearGradient8100"><stop id="stop8102" offset="0" stop-color="#1c427b" stop-opacity="1"/><stop id="stop8104" offset="1" stop-color="#1c427b" stop-opacity=".979"/></linearGradient><linearGradient id="linearGradient3445" x1="135.059" x2="142.382" y1="25.485" y2="25.485" gradientTransform="matrix(0.8017816,0.296539,-0.3336958,0.8769733,-76.334573,-48.018947)" gradientUnits="userSpaceOnUse" xlink:href="#linearGradient8100"/><linearGradient id="linearGradient8090"><stop id="stop8092" offset="0" stop-color="#214e90" stop-opacity="1"/><stop id="stop8094" offset="1" stop-color="#0d1f3a" stop-opacity="1"/></linearGradient><linearGradient id="linearGradient3443" x1="139.814" x2="137.043" y1="26.582" y2="26.142" gradientTransform="matrix(0.8017816,0.296539,-0.3336958,0.8769733,-76.334573,-48.018947)" gradientUnits="userSpaceOnUse" xlink:href="#linearGradient8090"/><radialGradient id="radialGradient2509" cx="25.969" cy="17.258" r="9.822" fx="25.969" fy="17.258" gradientTransform="matrix(5.0420652e-2,1.8168786,-1.2228576,3.3892491e-2,50.069619,-36.844368)" gradientUnits="userSpaceOnUse" xlink:href="#linearGradient8918"/><radialGradient id="radialGradient2609" cx="24.653" cy="18.944" r="8.617" fx="24.652" fy="18.944" gradientTransform="matrix(5.5772624e-2,2.0097336,-1.434522,3.9778707e-2,54.922798,-38.96569)" gradientUnits="userSpaceOnUse" xlink:href="#linearGradient8918"/><linearGradient id="linearGradient8918"><stop id="stop8920" offset="0" stop-color="#abe14b" stop-opacity="1"/><stop id="stop8922" offset="1" stop-color="#8cb029" stop-opacity="1"/></linearGradient><radialGradient id="radialGradient2685" cx="25.135" cy="14.542" r="4.135" fx="25.135" fy="14.542" gradientTransform="matrix(0.1304562,4.7009044,-0.6598342,1.8278205e-2,36.344914,-107.3288)" gradientUnits="userSpaceOnUse" xlink:href="#linearGradient8918"/><linearGradient id="linearGradient5154"><stop id="stop5156" offset="0" stop-color="#bcd1f0" stop-opacity="1"/><stop id="stop5158" offset="1" stop-color="#89aee3" stop-opacity=".407"/></linearGradient><linearGradient id="linearGradient7065" x1="15.865" x2="15.877" y1="14.684" y2="52.398" gradientUnits="userSpaceOnUse" xlink:href="#linearGradient5154"/><linearGradient id="linearGradient4173"><stop id="stop4175" offset="0" stop-color="#4b81c7" stop-opacity="1"/><stop id="stop4177" offset="1" stop-color="#3364a3" stop-opacity="1"/></linearGradient><linearGradient id="linearGradient7063" x1="11.167" x2="17.795" y1="15.976" y2="48.41" gradientUnits="userSpaceOnUse" xlink:href="#linearGradient4173"/></defs><metadata id="metadata7289"/><g id="layer1"><g id="g7007" transform="matrix(0.4375013,0,0,0.4375061,1.5937374,16.906287)"><path id="path7009" fill="url(#linearGradient7063)" fill-opacity="1" fill-rule="nonzero" stroke="#1e4885" stroke-dasharray="none" stroke-dashoffset="0" stroke-linecap="round" stroke-linejoin="miter" stroke-miterlimit="4" stroke-opacity="1" stroke-width="2.334" d="M 32.872257,31.563871 A 16.335602,16.335602 0 1 1 0.20105362,31.563871 A 16.335602,16.335602 0 1 1 32.872257,31.563871 z" opacity="1" transform="matrix(0.9794558,0,0,0.9794558,13.303077,-52.415417)"/><path id="path7011" fill="none" fill-opacity="1" fill-rule="nonzero" stroke="url(#linearGradient7065)" stroke-dasharray="none" stroke-dashoffset="0" stroke-linecap="round" stroke-linejoin="miter" stroke-miterlimit="4" stroke-opacity="1" stroke-width="2.723" d="M 32.872257,31.563871 A 16.335602,16.335602 0 1 1 0.20105362,31.563871 A 16.335602,16.335602 0 1 1 32.872257,31.563871 z" opacity="1" transform="matrix(0.8395087,0,0,0.8395082,15.617333,-47.99813)"/><g id="g7013" transform="matrix(0.9224941,0,0,0.9224941,2.2917509,-38.618756)"><path id="path7017" fill="url(#radialGradient2685)" fill-opacity="1" fill-rule="nonzero" stroke="none" stroke-miterlimit="4" stroke-width="2.498" d="M 31.437887,5.0682654 C 30.518269,4.6194593 29.492668,4.3076469 28.479575,4.6254752 C 27.615045,4.8654873 26.595355,4.8765869 25.877186,5.3429665 C 25.273268,6.336844 27.117345,6.0573463 26.804704,7.048005 C 26.35638,7.6552765 26.355676,8.6293171 27.2122,8.9078039 C 27.867299,8.5671847 28.185053,7.597306 29.094535,7.5244976 C 29.970016,7.3476234 30.902397,6.9441615 31.105096,5.9703639 C 31.192828,5.6613932 31.31395,5.3641809 31.437887,5.0681839"/><path id="path7023" fill="url(#radialGradient2609)" fill-opacity="1" fill-rule="nonzero" stroke="none" stroke-miterlimit="4" stroke-width="2.498" d="M 18.860653,18.745916 C 15.926187,18.309101 17.912401,14.502305 20.074093,14.817475 C 21.593381,13.79069 25.316193,11.107579 23.290227,9.5314987 C 22.07838,10.066545 19.902296,9.8632551 20.760962,8.0367119 C 18.236073,8.9620868 17.41101,11.842813 16.166496,13.96697 C 15.549383,15.37314 15.162855,17.032745 15.789857,18.50625"/><path id="path7027" fill="url(#radialGradient2509)" fill-opacity="1" fill-rule="nonzero" stroke="none" stroke-miterlimit="4" stroke-width="2.498" d="M 43.842289,16.459602 C 41.688749,15.436151 42.561249,21.313593 40.067278,18.093446 C 45.07235,38.524863 33.215877,21.707765 31.594895,20.849607 C 27.693381,18.019192 32.163469,12.465556 36.028655,14.778847 C 39.95334,14.056326 34.630691,12.42946 33.038648,12.954988 C 29.969721,11.395194 38.38053,9.3830277 34.518435,8.237937 C 37.221686,5.0115818 41.245071,9.5739814 42.466633,12.155712 C 43.186421,13.495598 43.428291,15.013085 43.842289,16.459602 z"/></g></g><g id="g3439" transform="matrix(0.8951306,0,0,1,-7.9120772,-6.7637647)"><path id="path7111" fill="url(#linearGradient3443)" fill-opacity="1" fill-rule="evenodd" stroke="url(#linearGradient3445)" stroke-linecap="butt" stroke-linejoin="miter" stroke-opacity="1" stroke-width="1.057" d="M 30.623557,17.701485 C 29.363698,19.561218 25.339501,19.984184 23.920624,19.788321 L 23.97813,15.786393 C 26.185947,15.907383 29.11669,15.181392 30.559685,13.835514 L 30.623557,17.701485 z"/><path id="path8098" fill="#0d1f3a" fill-opacity="1" fill-rule="evenodd" stroke="none" stroke-linecap="butt" stroke-linejoin="miter" stroke-opacity="1" stroke-width="1" d="M 29.990664,17.420785 L 26.907317,16.035476 C 28.26572,15.747853 29.047176,15.383856 30.05489,14.906667 L 29.990664,17.420785 z"/></g><g id="g2788" transform="matrix(0.6922836,0,0,0.6420861,-10.68631,-6.3609859)"><path id="path8110" fill="url(#linearGradient2802)" fill-opacity="1" fill-rule="evenodd" stroke="url(#linearGradient2804)" stroke-linecap="butt" stroke-linejoin="miter" stroke-opacity="1" stroke-width="1.5" d="M 46.485403,27.455801 L 40.400487,24.716957 L 36.481512,26.036459 L 36.534514,28.654709 L 42.679312,32.447926 L 46.492962,30.816025 L 46.485403,27.455801 z"/><path id="path8108" fill="url(#linearGradient2806)" fill-opacity="1" fill-rule="evenodd" stroke="url(#linearGradient2808)" stroke-linecap="butt" stroke-linejoin="miter" stroke-opacity="1" stroke-width="1.5" d="M 45.882516,27.238585 L 40.661573,24.472035 L 37.52539,25.780807 L 42.667452,28.790841 L 45.882516,27.238585 z"/><rect id="rect13100" width=".97" height="3.484" x="-6.849" y="49.901" fill="#f57900" fill-opacity="1" fill-rule="nonzero" stroke="none" stroke-dasharray="none" stroke-dashoffset="0" stroke-linecap="round" stroke-linejoin="miter" stroke-miterlimit="4" stroke-opacity="1" stroke-width="3.5" opacity="1" rx=".875" ry="0" transform="matrix(0.9376924,-0.3474664,0.894154,0.4477595,0,0)"/><rect id="rect13120" width=".996" height="3.453" x="-7.945" y="49.878" fill="#73d216" fill-opacity="1" fill-rule="nonzero" stroke="none" stroke-dasharray="none" stroke-dashoffset="0" stroke-linecap="round" stroke-linejoin="miter" stroke-miterlimit="4" stroke-opacity="1" stroke-width="3.5" opacity="1" rx="0" ry="0" transform="matrix(0.9376924,-0.3474664,0.894154,0.4477595,0,0)"/></g><g id="g2796" transform="matrix(0.5206631,0,0,0.4180729,-3.6673191,1.5446153)"><path id="path8135" fill="none" fill-rule="evenodd" stroke="#7b7b7b" stroke-dasharray="none" stroke-linecap="butt" stroke-linejoin="miter" stroke-miterlimit="4" stroke-opacity="1" stroke-width="7.502" d="M 45.373757,30.443076 C 46.581676,34.033707 45.95728,39.442191 42.39278,41.589292 C 37.96269,44.257786 33.96556,38.847821 25.01389,41.371141"/><path id="path7035" fill="none" fill-rule="evenodd" stroke="url(#linearGradient2800)" stroke-dasharray="none" stroke-linecap="butt" stroke-linejoin="miter" stroke-miterlimit="4" stroke-opacity="1" stroke-width="2.786" d="M 45.455003,30.571355 C 46.770387,33.601226 45.95728,39.442191 42.39278,41.589292 C 37.96269,44.257786 33.96556,38.847821 25.01389,41.371141"/></g><g id="g10671" display="inline" transform="translate(-303,-212)"><g id="g2915"><path id="rect3813" fill="url(#radialGradient3528)" fill-opacity="1" stroke="url(#linearGradient2738)" stroke-dasharray="none" stroke-dashoffset="0" stroke-linecap="square" stroke-linejoin="round" stroke-miterlimit="4" stroke-opacity="1" stroke-width="1" d="M 308.5,226.5 L 308.5,231.5 L 307.5,231.65625 C 306.94117,231.65625 306.5,232.10225 306.5,232.65625 C 306.5,232.65625 306.75,233.5 306.75,233.5 L 315.3125,233.5 C 315.3125,233.5 315.5,232.65625 315.5,232.65625 C 315.5,232.10225 315.05884,231.65625 314.5,231.65625 L 313.5,231.5 L 313.5,226.5 L 308.5,226.5 z"/><rect id="rect2750" width="8" height="1" x="307" y="232" fill="#fff" fill-opacity="1" stroke="none" opacity=".425" rx=".751" ry=".745"/><path id="path3831" fill="none" stroke="url(#linearGradient3852)" stroke-dasharray="none" stroke-dashoffset="0" stroke-linecap="square" stroke-linejoin="round" stroke-miterlimit="4" stroke-opacity="1" stroke-width="1" d="M 309.4375,226.4375 L 309.4375,230.5 C 309.43745,231.01775 309.01775,231.43745 308.5,231.4375 L 307.5,231.4375 C 307.43998,231.4375 307.4375,231.44371 307.4375,231.5 C 307.4375,231.5563 307.43996,231.5625 307.5,231.5625 L 314.5,231.5625 C 314.56002,231.5625 314.5625,231.55629 314.5625,231.5 C 314.5625,231.4437 314.56004,231.4375 314.5,231.4375 L 313.5,231.4375 C 312.98225,231.43745 312.56255,231.01775 312.5625,230.5 L 312.5625,226.4375 L 309.4375,226.4375 z" display="inline" enable-background="new" opacity=".635" transform="translate(0,1)"/><g id="g3781" transform="translate(-13,47)"><path id="path3771" fill="#f9f9f9" fill-opacity="1" stroke="none" d="M 311.08279,195.50287 A 0.50823301,0.55242717 0 1 1 310.06632,195.50287 A 0.50823301,0.55242717 0 1 1 311.08279,195.50287 z" display="inline" enable-background="new" transform="matrix(1.2446752,0,0,1.1450853,-66.001924,-38.429955)"/><path id="path3773" fill="#f9f9f9" fill-opacity="1" stroke="none" d="M 311.08279,195.50287 A 0.50823301,0.55242717 0 1 1 310.06632,195.50287 A 0.50823301,0.55242717 0 1 1 311.08279,195.50287 z" display="inline" enable-background="new" transform="matrix(1.2446752,0,0,1.1450853,-59.001924,-38.429955)"/></g></g><rect id="rect3653" width="15" height="10" x="303.5" y="219.5" fill="url(#radialGradient10660)" fill-opacity="1" stroke="url(#linearGradient10662)" stroke-dasharray="none" stroke-dashoffset=".5" stroke-linecap="round" stroke-linejoin="round" stroke-miterlimit="4" stroke-opacity="1" stroke-width="1" display="inline" enable-background="new" rx="1.25" ry="1.25"/><rect id="rect3655" width="11.029" height="6" x="305.5" y="221.5" fill="url(#radialGradient10657)" fill-opacity="1" fill-rule="evenodd" stroke="#204a87" stroke-linecap="butt" stroke-linejoin="miter" stroke-opacity="1" stroke-width="1" display="inline" enable-background="new"/><rect id="rect3478" width="10" height="5" x="306" y="222" fill="url(#linearGradient10654)" fill-opacity="1" fill-rule="evenodd" stroke="none" display="inline" enable-background="new" opacity=".15"/><g id="g2923"><path id="path3659" fill="url(#radialGradient2938)" fill-opacity="1" stroke="none" d="M 312.83726,222 L 316,222 L 316,228.07462 L 309.042,228.07462 L 312.83726,222 z" display="inline" enable-background="new" opacity=".37"/><path id="path10743" fill="url(#radialGradient2940)" fill-opacity="1" stroke="none" d="M 308.81616,222.08224 L 310.53933,222.08224 L 308.6345,226.53338 L 307.7877,226.48338 L 308.81616,222.08225 L 308.81616,222.08224 z" display="inline" enable-background="new" opacity=".389"/></g></g></g></svg>