<svg xmlns="http://www.w3.org/2000/svg" xmlns:svg="http://www.w3.org/2000/svg" xmlns:xlink="http://www.w3.org/1999/xlink" id="svg11303" width="16" height="16"><defs id="defs11305"><linearGradient id="linearGradient4099-6-7-7-3-0"><stop id="stop4101-1-8-4-5-5" offset="0" stop-color="#ddd" stop-opacity="1"/><stop id="stop4107-2-2-1-7-0" offset=".345" stop-color="#fff" stop-opacity="1"/><stop id="stop4109-5-7-5-9-9" offset=".727" stop-color="#737373" stop-opacity="1"/><stop id="stop4103-9-2-9-9-9" offset="1" stop-color="#bbb" stop-opacity="1"/></linearGradient><linearGradient id="linearGradient924" x1="-158.75" x2="-158.75" y1="115.938" y2="134.25" gradientTransform="matrix(0.1272465,-0.1272845,0.1272465,0.1272845,31.393152,-23.626692)" gradientUnits="userSpaceOnUse" xlink:href="#linearGradient4099-6-7-7-3-0"/><linearGradient id="linearGradient4117-1-0-1-9-6"><stop id="stop4121-0-5-5-8-7" offset="0" stop-color="#f9a9a9" stop-opacity="1"/><stop id="stop4119-1-6-1-5-5" offset="1" stop-color="#ab5f5f" stop-opacity="1"/></linearGradient><radialGradient id="radialGradient736-9-2" cx="-138.837" cy="128.001" r="9.127" fx="-138.837" fy="128.001" gradientTransform="matrix(0.2154679,-0.2155172,0.2168264,0.216876,31.917507,-48.128825)" gradientUnits="userSpaceOnUse" xlink:href="#linearGradient4117-1-0-1-9-6"/><linearGradient id="linearGradient2275-7-7"><stop id="stop2277-5-4" offset="0" stop-color="#fcaf3e" stop-opacity="1"/><stop id="stop2279-9-4" offset="1" stop-color="#ce5c00"/></linearGradient><linearGradient id="linearGradient6432-5-3" x1="27.861" x2="30.432" y1="12.12" y2="14.691" gradientTransform="matrix(0.666667,0,0,0.666667,4.2615023,8.1230633)" gradientUnits="userSpaceOnUse" xlink:href="#linearGradient2275-7-7"/><linearGradient id="linearGradient1813-1-5-3"><stop id="stop1815-2-1-9" offset="0" stop-color="#000" stop-opacity="1"/><stop id="stop1817-4-8-3" offset="1" stop-color="#000" stop-opacity="0"/></linearGradient><linearGradient id="linearGradient6424-5-0" x1="18.188" x2="32.938" y1="18.538" y2="18.392" gradientTransform="matrix(0.666667,0,0,0.2766721,6.5064793,15.424562)" gradientUnits="userSpaceOnUse" xlink:href="#linearGradient1813-1-5-3"/></defs><metadata id="metadata11308"/><g id="layer1"><rect id="rect1355" width="12" height="15" x="1.5" y=".5" fill="#eeeeec" fill-opacity="1" stroke="#abaea6" stroke-dasharray="none" stroke-dashoffset="0" stroke-linecap="round" stroke-linejoin="round" stroke-miterlimit="4" stroke-opacity="1" stroke-width="1" rx="1.513" ry="1.412"/><rect id="rect2288" width="5" height="1" x="7" y="11" fill="#000" fill-opacity="1" stroke="none" stroke-dasharray="none" stroke-dashoffset="0" stroke-linecap="round" stroke-linejoin="round" stroke-miterlimit="4" stroke-opacity="1" stroke-width="1" opacity=".4"/><rect id="rect1369" width="10" height="13" x="2.5" y="1.5" fill="none" fill-opacity="1" stroke="#fff" stroke-dasharray="none" stroke-dashoffset="0" stroke-linecap="round" stroke-linejoin="round" stroke-miterlimit="4" stroke-opacity="1" stroke-width="1" rx=".51" ry=".471"/><rect id="rect3221" width="10.188" height="4.063" x="2.391" y="5.469" fill="#729fcf" fill-opacity="1" stroke="none" stroke-dasharray="none" stroke-dashoffset="0" stroke-linecap="round" stroke-linejoin="miter" stroke-miterlimit="4" stroke-opacity="1" stroke-width="1" opacity=".7" rx=".402" ry=".424"/><rect id="rect1391" width="5" height="1" x="7" y="3" fill="#000" fill-opacity="1" stroke="none" stroke-dasharray="none" stroke-dashoffset="0" stroke-linecap="round" stroke-linejoin="round" stroke-miterlimit="4" stroke-opacity="1" stroke-width="1" opacity=".4"/><rect id="rect2286" width="5" height="1" x="7" y="7" fill="#000" fill-opacity="1" stroke="none" stroke-dasharray="none" stroke-dashoffset="0" stroke-linecap="round" stroke-linejoin="round" stroke-miterlimit="4" stroke-opacity="1" stroke-width="1" opacity=".4"/><rect id="rect3213" width="2" height="2" x="3.5" y="10.5" fill="#888a85" fill-opacity="1" stroke="#000" stroke-dasharray="none" stroke-dashoffset="0" stroke-linecap="round" stroke-linejoin="miter" stroke-miterlimit="4" stroke-opacity="1" stroke-width="1" opacity=".2" rx=".531" ry=".531"/><rect id="rect3215" width="2" height="2" x="3.5" y="6.5" fill="#888a85" fill-opacity="1" stroke="#000" stroke-dasharray="none" stroke-dashoffset="0" stroke-linecap="round" stroke-linejoin="miter" stroke-miterlimit="4" stroke-opacity="1" stroke-width="1" opacity=".2" rx=".531" ry=".531"/><rect id="rect3217" width="2" height="2" x="3.5" y="2.5" fill="#888a85" fill-opacity="1" stroke="#000" stroke-dasharray="none" stroke-dashoffset="0" stroke-linecap="round" stroke-linejoin="miter" stroke-miterlimit="4" stroke-opacity="1" stroke-width="1" opacity=".2" rx=".531" ry=".531"/><g id="g771-4-4" display="inline" transform="matrix(0.9496087,0,0,0.9496087,-13.606881,-6.1351179)"><path id="path2334-5-8-2" fill="url(#linearGradient6424-5-0)" fill-opacity="1" fill-rule="evenodd" stroke="none" d="M 29.527324,16.557189 L 19.527319,19.539133 L 19.443989,19.582363 L 19.381489,19.634243 L 17.548155,21.536363 L 22.506491,20.974373 L 22.693991,20.957083 L 22.818991,20.905203 L 29.527328,19.116407 L 29.527328,16.557191 L 29.527324,16.557189 L 29.527324,16.557189 z" display="inline" opacity=".4"/><path id="path2273-6-2-0" fill="url(#linearGradient6432-5-3)" fill-opacity="1" fill-rule="evenodd" stroke="#ce5c00" stroke-dasharray="none" stroke-linecap="butt" stroke-linejoin="round" stroke-miterlimit="4" stroke-opacity="1" stroke-width="1.053" d="M 19.960792,17.19109 L 26.376098,10.91473 C 27.826131,11.154704 28.432578,12.069548 28.709432,13.248065 L 22.294126,19.524425 L 19.467147,19.795222 L 19.960792,17.19109 L 19.960792,17.19109 L 19.960792,17.19109 z"/><path id="path2298-0-7-3" fill="#fff" fill-opacity="1" fill-rule="evenodd" stroke="none" d="M 19.355595,19.926956 L 20.403186,17.29886 C 20.403186,17.29886 21.157316,17.453114 21.617917,17.911884 C 22.078517,18.370653 22.24559,19.133939 22.24559,19.133939 L 19.355595,19.926956 L 19.355595,19.926956 L 19.355595,19.926956 z"/><path id="path2313-6-7-7" fill="none" stroke="#fff" stroke-dasharray="none" stroke-linecap="butt" stroke-linejoin="miter" stroke-miterlimit="4" stroke-opacity="1" stroke-width="1.053" d="M 20.770388,17.66954 L 28.796386,9.8599434 C 29.363718,9.9528094 29.586288,10.374119 29.837606,10.900844 L 21.863671,18.762486 L 20.145656,19.230892 L 20.770388,17.66954 L 20.770388,17.66954 L 20.770388,17.66954 z" display="inline" opacity=".282"/><path id="path6416-5-1" fill="none" stroke="#e9b96e" stroke-dasharray="none" stroke-linecap="round" stroke-linejoin="miter" stroke-miterlimit="4" stroke-opacity="1" stroke-width="1.053" d="M 22.107968,19.710582 L 18.4413,20.710582 L 19.774634,17.377247"/><path id="path2283-1-5-3" fill="#000" fill-opacity="1" fill-rule="evenodd" stroke="none" d="M 18.420252,19.445417 L 17.60248,21.475747 L 19.717408,20.883568 C 19.719208,20.854838 19.717408,20.828158 19.717408,20.798968 C 19.717408,20.075156 19.135102,19.481689 18.420252,19.445415 L 18.420252,19.445417 L 18.420252,19.445417 z" display="inline"/><path id="path4113-1-6-3-3" fill="url(#radialGradient736-9-2)" fill-opacity="1" fill-rule="nonzero" stroke="#ef2929" stroke-width="1.053" d="M 26.741372,10.597989 C 27.974854,10.261295 29.354104,11.708869 29.061469,12.91861 L 30.537888,11.441849 C 31.255126,9.7826894 29.77644,8.4756072 28.187664,9.0910857 L 26.741372,10.597989 L 26.741372,10.597989 z" display="inline" enable-background="new" overflow="visible" visibility="visible" style="marker:none"/><path id="path4095-8-4-6-2" fill="url(#linearGradient924)" fill-opacity="1" fill-rule="nonzero" stroke="#888a85" stroke-width="1.053" d="M 25.221696,12.012979 C 26.523976,11.657491 27.980147,13.185906 27.671189,14.463209 L 29.229959,12.903973 C 29.73734,11.830553 27.854926,9.986304 26.748655,10.421926 L 25.221696,12.012979 L 25.221696,12.012979 z" display="inline" enable-background="new" overflow="visible" visibility="visible" style="marker:none"/></g></g></svg>