<svg xmlns="http://www.w3.org/2000/svg" xmlns:svg="http://www.w3.org/2000/svg" xmlns:xlink="http://www.w3.org/1999/xlink" id="svg7416" width="16" height="16"><defs id="defs7418"><linearGradient id="linearGradient3241"><stop id="stop3243" offset="0" stop-color="#1b1f20" stop-opacity="1"/><stop id="stop3245" offset="1" stop-color="#babdb6" stop-opacity="1"/></linearGradient><linearGradient id="linearGradient2704" x1="35.775" x2="33.568" y1="22.779" y2="18.985" gradientTransform="matrix(0.6575724,0,0,0.7088916,1.9577688,-8.2625222)" gradientUnits="userSpaceOnUse" xlink:href="#linearGradient3241"/><linearGradient id="linearGradient3692"><stop id="stop3694" offset="0" stop-color="#fff" stop-opacity="1"/><stop id="stop3696" offset="1" stop-color="#fff" stop-opacity="0"/></linearGradient><radialGradient id="radialGradient2660" cx="15.391" cy="4.422" r="4.046" fx="15.391" fy="4.422" gradientTransform="matrix(1,0,0,0.9073222,0,0.4098097)" gradientUnits="userSpaceOnUse" xlink:href="#linearGradient3692"/><linearGradient id="linearGradient6264"><stop id="stop6266" offset="0" stop-color="#fff" stop-opacity="1"/><stop id="stop6268" offset="1" stop-color="#fff" stop-opacity="0"/></linearGradient><linearGradient id="linearGradient9234" x1="23.996" x2="23.996" y1="-1.999" y2="57.808" gradientTransform="matrix(0.3846868,0,0,0.3845707,-1.2311077,-1.231183)" gradientUnits="userSpaceOnUse" xlink:href="#linearGradient6264"/><linearGradient id="linearGradient8010"><stop id="stop8012" offset="0" stop-color="#3465a4" stop-opacity="1"/><stop id="stop8014" offset="1" stop-color="#204a87" stop-opacity="1"/></linearGradient><linearGradient id="linearGradient8016" x1="6" x2="6" y1="0" y2="16" gradientUnits="userSpaceOnUse" xlink:href="#linearGradient8010"/><linearGradient id="linearGradient6252"><stop id="stop6254" offset="0" stop-color="#8fb3d9" stop-opacity="1"/><stop id="stop8022" offset=".25" stop-color="#729fcf" stop-opacity="1"/><stop id="stop8024" offset=".68" stop-color="#3465a4" stop-opacity="1"/><stop id="stop6256" offset="1" stop-color="#204a87" stop-opacity="1"/></linearGradient><radialGradient id="radialGradient8020" cx="8" cy="0" r="8" fx="8" fy="0" gradientTransform="matrix(-5.0000009e-8,2.2500003,-3.3750002,-7.5000008e-8,8.0000022,-18.000003)" gradientUnits="userSpaceOnUse" xlink:href="#linearGradient6252"/></defs><metadata id="metadata7421"/><g id="layer1"><rect id="rect5480" width="15" height="15" x=".5" y=".5" fill="url(#radialGradient8020)" fill-opacity="1" fill-rule="nonzero" stroke="url(#linearGradient8016)" stroke-dasharray="none" stroke-linecap="butt" stroke-linejoin="round" stroke-miterlimit="4" stroke-opacity="1" stroke-width="1" opacity="1" rx="1.489" ry="1.519"/><rect id="rect6260" width="13.005" height="13.006" x="1.499" y="1.498" fill="none" fill-opacity="1" fill-rule="nonzero" stroke="url(#linearGradient9234)" stroke-dasharray="none" stroke-linecap="butt" stroke-linejoin="round" stroke-miterlimit="4" stroke-opacity="1" stroke-width="1" opacity=".5" rx=".505" ry=".511"/><path id="path3690" fill="url(#radialGradient2660)" fill-opacity="1" stroke="none" stroke-dasharray="none" stroke-dashoffset="0" stroke-linecap="round" stroke-linejoin="round" stroke-miterlimit="4" stroke-opacity="1" stroke-width=".811" d="M 19.03125,4.421875 A 3.640625,3.265625 0 1 1 11.75,4.421875 A 3.640625,3.265625 0 1 1 19.03125,4.421875 z" display="inline" opacity=".705" transform="matrix(1.1673821,0,0,1.3014354,-9.7792392,0.2452148)"/><g id="g3479" display="inline" transform="matrix(0.4849662,0,0,0.5449121,-1.7451363,3.7597775)"><path id="path3467" fill="none" fill-opacity="1" fill-rule="evenodd" stroke="url(#linearGradient2704)" stroke-dasharray="none" stroke-linecap="round" stroke-linejoin="miter" stroke-miterlimit="4" stroke-opacity="1" stroke-width="4.863" d="M 19.063465,1.3584251 L 34.01296,18.33364" display="inline"/><path id="path3469" fill="#fff" fill-opacity="1" fill-rule="evenodd" stroke="#555753" stroke-dasharray="none" stroke-linecap="round" stroke-linejoin="miter" stroke-miterlimit="4" stroke-opacity="1" stroke-width="1.945" d="M 19.063465,1.3584251 L 33.49746,17.87485" display="inline"/></g><path id="path3696" fill="#fff" fill-opacity="1" fill-rule="evenodd" stroke="none" stroke-linecap="round" stroke-linejoin="miter" stroke-miterlimit="4" stroke-opacity="1" stroke-width="1.945" d="M 7.4062502,3.3749998 C 6.9865842,3.4117549 6.6863952,3.6911182 6.5312502,4.0624998 C 6.3927002,4.3941567 6.3797362,4.7847882 6.5937502,5.1249998 L 9.0312502,8.3124998 C 9.1303302,8.492447 9.3170222,8.6067455 9.5223432,8.6131618 C 9.7276632,8.619578 9.9211282,8.5171594 10.03125,8.3437498 C 10.156439,8.1522058 10.307182,8.0505762 10.5,7.9999998 C 10.670414,7.9503554 10.808811,7.8255772 10.875781,7.6611976 C 10.94275,7.4968179 10.930954,7.3108496 10.84375,7.1562498 L 8.4062502,3.9062498 C 8.2000142,3.5505289 7.7770032,3.3670196 7.4062502,3.4062498 L 7.4062502,3.3749998 z" display="inline"/><path id="path3715" fill="#fff" fill-opacity="1" stroke="none" stroke-dasharray="none" stroke-dashoffset="0" stroke-linecap="round" stroke-linejoin="round" stroke-miterlimit="4" stroke-opacity="1" stroke-width="1" d="M 6.5,5.5 A 1,1 0 1 1 4.5,5.5 A 1,1 0 1 1 6.5,5.5 z" display="inline" opacity="1" transform="matrix(1.5,0,0,1.5,-2.7500002,-1.7500002)"/><path id="path3717" fill="#fff" fill-opacity="1" stroke="none" stroke-dasharray="none" stroke-dashoffset="0" stroke-linecap="round" stroke-linejoin="round" stroke-miterlimit="4" stroke-opacity="1" stroke-width="1" d="M 6.5,5.5 A 1,1 0 1 1 4.5,5.5 A 1,1 0 1 1 6.5,5.5 z" display="inline" opacity="1" transform="translate(-2.0000002,2.9999998)"/></g></svg>