<svg xmlns="http://www.w3.org/2000/svg" xmlns:svg="http://www.w3.org/2000/svg" xmlns:xlink="http://www.w3.org/1999/xlink" id="svg9811" width="32" height="32"><defs id="defs9813"><linearGradient id="linearGradient4099-6-7-7"><stop id="stop4101-1-8-4" offset="0" stop-color="#ddd" stop-opacity="1"/><stop id="stop4107-2-2-1" offset=".345" stop-color="#fff" stop-opacity="1"/><stop id="stop4109-5-7-5" offset=".727" stop-color="#737373" stop-opacity="1"/><stop id="stop4103-9-2-9" offset="1" stop-color="#bbb" stop-opacity="1"/></linearGradient><linearGradient id="linearGradient649-9" x1="-158.75" x2="-158.75" y1="115.938" y2="134.25" gradientTransform="matrix(0.1272465,-0.1272845,0.1272465,0.1272845,31.393152,-23.626692)" gradientUnits="userSpaceOnUse" xlink:href="#linearGradient4099-6-7-7"/><linearGradient id="linearGradient4117-1-0-1"><stop id="stop4121-0-5-5" offset="0" stop-color="#f9a9a9" stop-opacity="1"/><stop id="stop4119-1-6-1" offset="1" stop-color="#ab5f5f" stop-opacity="1"/></linearGradient><radialGradient id="radialGradient736" cx="-138.837" cy="128.001" r="9.127" fx="-138.837" fy="128.001" gradientTransform="matrix(0.2154679,-0.2155172,0.2168264,0.216876,31.917507,-48.128825)" gradientUnits="userSpaceOnUse" xlink:href="#linearGradient4117-1-0-1"/><linearGradient id="linearGradient2275"><stop id="stop2277" offset="0" stop-color="#fcaf3e" stop-opacity="1"/><stop id="stop2279" offset="1" stop-color="#ce5c00"/></linearGradient><linearGradient id="linearGradient6432" x1="27.861" x2="30.432" y1="12.12" y2="14.691" gradientTransform="matrix(0.666667,0,0,0.666667,4.2615023,8.1230633)" gradientUnits="userSpaceOnUse" xlink:href="#linearGradient2275"/><linearGradient id="linearGradient1813-1"><stop id="stop1815-2" offset="0" stop-color="#000" stop-opacity="1"/><stop id="stop1817-4" offset="1" stop-color="#000" stop-opacity="0"/></linearGradient><linearGradient id="linearGradient6424" x1="18.188" x2="32.938" y1="18.538" y2="18.392" gradientTransform="matrix(0.666667,0,0,0.2766721,4.365669,17.844608)" gradientUnits="userSpaceOnUse" xlink:href="#linearGradient1813-1"/><linearGradient id="linearGradient2470"><stop id="stop2472" offset="0" stop-color="#000" stop-opacity="1"/><stop id="stop2474" offset="1" stop-color="#000" stop-opacity="0"/></linearGradient><linearGradient id="linearGradient2476" x1="15.38" x2="17.987" y1="21.659" y2="21" gradientTransform="matrix(0.8181818,0,0,1,2.8181818,-3.686e-4)" gradientUnits="userSpaceOnUse" xlink:href="#linearGradient2470"/><linearGradient id="linearGradient3540"><stop id="stop3542" offset="0" stop-color="#babdb6" stop-opacity="1"/><stop id="stop3544" offset="1" stop-color="#555753" stop-opacity="1"/></linearGradient><linearGradient id="linearGradient2426" x1="10.125" x2="13.958" y1="18.5" y2="103.934" gradientTransform="matrix(0.7100302,0,0,0.6976745,0.3048644,-0.5468796)" gradientUnits="userSpaceOnUse" xlink:href="#linearGradient3540"/><linearGradient id="linearGradient3268"><stop id="stop3270" offset="0" stop-color="#000" stop-opacity="0"/><stop id="stop3276" offset=".5" stop-color="#000" stop-opacity="1"/><stop id="stop3272" offset="1" stop-color="#000" stop-opacity="0"/></linearGradient><linearGradient id="linearGradient2436" x1="19.578" x2="19.578" y1="40.999" y2="47.001" gradientUnits="userSpaceOnUse" xlink:href="#linearGradient3268"/><radialGradient id="radialGradient2434" cx="2" cy="44" r="2.969" fx="2" fy="44" gradientTransform="matrix(1.6842105,0,0,1.0105263,-9.3684213,-88.463158)" gradientUnits="userSpaceOnUse" xlink:href="#linearGradient3254"/><linearGradient id="linearGradient3254"><stop id="stop3256" offset="0" stop-color="#000" stop-opacity="1"/><stop id="stop3258" offset="1" stop-color="#000" stop-opacity="0"/></linearGradient><radialGradient id="radialGradient2432" cx="2" cy="44" r="2.969" fx="2" fy="44" gradientTransform="matrix(1.6842105,0,0,1.0105263,29.631579,-0.4631579)" gradientUnits="userSpaceOnUse" xlink:href="#linearGradient3254"/></defs><metadata id="metadata9816"/><g id="layer1"><g id="g3580" opacity=".2" transform="matrix(0.7474598,0,0,0.6652278,0.2525402,0.7252934)"><rect id="rect3582" width="5" height="6" x="33" y="41" fill="url(#radialGradient2432)" fill-opacity="1" stroke="none" stroke-dasharray="none" stroke-dashoffset="0" stroke-linecap="round" stroke-linejoin="miter" stroke-miterlimit="4" stroke-opacity="1" stroke-width="1" opacity="1"/><rect id="rect3584" width="5" height="6" x="-6" y="-47" fill="url(#radialGradient2434)" fill-opacity="1" stroke="none" stroke-dasharray="none" stroke-dashoffset="0" stroke-linecap="round" stroke-linejoin="miter" stroke-miterlimit="4" stroke-opacity="1" stroke-width="1" opacity="1" transform="scale(-1,-1)"/><rect id="rect3586" width="27" height="6" x="6" y="41" fill="url(#linearGradient2436)" fill-opacity="1" stroke="none" stroke-dasharray="none" stroke-dashoffset="0" stroke-linecap="round" stroke-linejoin="miter" stroke-miterlimit="4" stroke-opacity="1" stroke-width="1" opacity="1"/></g><rect id="rect3588" width="22.011" height="30" x="3.5" y=".5" fill="#eeeeec" fill-opacity="1" stroke="url(#linearGradient2426)" stroke-dasharray="none" stroke-dashoffset="0" stroke-linecap="round" stroke-linejoin="round" stroke-miterlimit="4" stroke-opacity="1" stroke-width="1" rx="1.848" ry="1.757"/><rect id="rect3594" width="19.9" height="27.9" x="4.55" y="1.55" fill="none" fill-opacity="1" stroke="#fff" stroke-dasharray="none" stroke-dashoffset="0" stroke-linecap="round" stroke-linejoin="miter" stroke-miterlimit="4" stroke-opacity="1" stroke-width="1.1" rx="1.037" ry=".992"/><rect id="rect3616" width="11" height="1.043" x="11" y="4" fill="#000" fill-opacity="1" stroke="none" stroke-dasharray="none" stroke-dashoffset="0" stroke-linecap="round" stroke-linejoin="round" stroke-miterlimit="4" stroke-opacity="1" stroke-width="1" opacity=".4" rx=".382" ry=".326"/><rect id="rect3592" width="18" height="6" x="5.5" y="7.5" fill="#729fcf" fill-opacity="1" stroke="#3465a4" stroke-dasharray="none" stroke-dashoffset="0" stroke-linecap="round" stroke-linejoin="round" stroke-miterlimit="4" stroke-opacity="1" stroke-width="1" rx="1.037" ry="1.273"/><rect id="rect3618" width="10.891" height="1" x="11" y="10" fill="#000" fill-opacity="1" stroke="none" stroke-dasharray="none" stroke-dashoffset="0" stroke-linecap="round" stroke-linejoin="round" stroke-miterlimit="4" stroke-opacity="1" stroke-width="1" opacity=".4" rx=".34" ry=".281"/><path id="path3622" fill="none" fill-opacity="1" stroke="#fff" stroke-dasharray="none" stroke-dashoffset="0" stroke-linecap="round" stroke-linejoin="round" stroke-miterlimit="4" stroke-opacity="1" stroke-width="1.368" d="M 8,12.5 C 7.7145401,12.5 7.53125,12.68329 7.53125,12.96875 L 7.53125,17.03125 C 7.53125,17.31671 7.7145401,17.5 8,17.5 L 31.03125,17.5 C 31.31671,17.5 31.5,17.316711 31.5,17.03125 L 31.5,12.96875 C 31.5,12.683291 31.316708,12.5 31.03125,12.5 L 8,12.5 z" opacity=".4" transform="matrix(0.6675358,0,0,0.8,1.4726212,-1.5003686)"/><rect id="rect3630" width="2" height="2" x="7.5" y="9.5" fill="#888a85" fill-opacity="1" stroke="#2e3436" stroke-dasharray="none" stroke-dashoffset="0" stroke-linecap="round" stroke-linejoin="miter" stroke-miterlimit="4" stroke-opacity="1" stroke-width="1" opacity=".3" rx=".575" ry=".575"/><rect id="rect3632" width="2" height="2" x="7.5" y="3.5" fill="#888a85" fill-opacity="1" stroke="#2e3436" stroke-dasharray="none" stroke-dashoffset="0" stroke-linecap="round" stroke-linejoin="miter" stroke-miterlimit="4" stroke-opacity="1" stroke-width="1" opacity=".3" rx=".575" ry=".575"/><rect id="rect2450" width="11" height="1.043" x="11" y="16" fill="#000" fill-opacity="1" stroke="none" stroke-dasharray="none" stroke-dashoffset="0" stroke-linecap="round" stroke-linejoin="round" stroke-miterlimit="4" stroke-opacity="1" stroke-width="1" opacity=".4" rx=".382" ry=".326"/><rect id="rect2452" width="2" height="2" x="7.5" y="15.5" fill="#888a85" fill-opacity="1" stroke="#2e3436" stroke-dasharray="none" stroke-dashoffset="0" stroke-linecap="round" stroke-linejoin="miter" stroke-miterlimit="4" stroke-opacity="1" stroke-width="1" opacity=".3" rx=".575" ry=".575"/><rect id="rect2454" width="9" height="1.043" x="11" y="21" fill="url(#linearGradient2476)" fill-opacity="1" stroke="none" stroke-dasharray="none" stroke-dashoffset="0" stroke-linecap="round" stroke-linejoin="round" stroke-miterlimit="4" stroke-opacity="1" stroke-width="1" opacity=".4" rx=".382" ry=".326"/><rect id="rect2456" width="2" height="2" x="7.5" y="20.5" fill="#888a85" fill-opacity="1" stroke="#2e3436" stroke-dasharray="none" stroke-dashoffset="0" stroke-linecap="round" stroke-linejoin="miter" stroke-miterlimit="4" stroke-opacity="1" stroke-width="1" opacity=".3" rx=".575" ry=".575"/><rect id="rect2458" width="11" height="1.043" x="11" y="26" fill="#000" fill-opacity="1" stroke="none" stroke-dasharray="none" stroke-dashoffset="0" stroke-linecap="round" stroke-linejoin="round" stroke-miterlimit="4" stroke-opacity="1" stroke-width="1" opacity=".4" rx=".382" ry=".326"/><rect id="rect2460" width="2" height="2" x="7.5" y="25.5" fill="#888a85" fill-opacity="1" stroke="#2e3436" stroke-dasharray="none" stroke-dashoffset="0" stroke-linecap="round" stroke-linejoin="miter" stroke-miterlimit="4" stroke-opacity="1" stroke-width="1" opacity=".3" rx=".575" ry=".575"/><g id="g771" display="inline" transform="translate(-3.55e-4,-1.9179376)"><path id="path2334-5" fill="url(#linearGradient6424)" fill-opacity="1" fill-rule="evenodd" stroke="none" d="M 27.386514,18.977235 L 17.386509,21.959179 L 17.303179,22.002409 L 17.240679,22.054289 L 15.407345,23.956409 L 20.365681,23.394419 L 20.553181,23.377129 L 20.678181,23.325249 L 27.386518,21.536453 L 27.386518,18.977237 L 27.386514,18.977235 L 27.386514,18.977235 z" display="inline" opacity=".4"/><path id="path2273-6" fill="url(#linearGradient6432)" fill-opacity="1" fill-rule="evenodd" stroke="#ce5c00" stroke-dasharray="none" stroke-linecap="butt" stroke-linejoin="round" stroke-miterlimit="4" stroke-opacity="1" stroke-width="1" d="M 17.261509,20.123069 L 26.376098,10.91473 C 27.826131,11.154704 28.432578,12.069548 28.709432,13.248065 L 19.594843,22.456404 L 16.767864,22.727201 L 17.261509,20.123069 L 17.261509,20.123069 z"/><path id="path2298-0" fill="#fff" fill-opacity="1" fill-rule="evenodd" stroke="none" d="M 16.516694,22.952014 L 17.564285,20.323918 C 17.564285,20.323918 18.318415,20.478172 18.779016,20.936942 C 19.239616,21.395711 19.406689,22.158997 19.406689,22.158997 L 16.516694,22.952014 L 16.516694,22.952014 L 16.516694,22.952014 z"/><path id="path2313-6" fill="none" stroke="#fff" stroke-dasharray="none" stroke-linecap="butt" stroke-linejoin="miter" stroke-miterlimit="4" stroke-opacity="1" stroke-width="1" d="M 17.931487,20.648059 L 28.796386,9.8599434 C 29.363718,9.9528094 29.586288,10.374119 29.837606,10.900844 L 19.02477,21.741005 L 17.306755,22.209411 L 17.931487,20.648059 L 17.931487,20.648059 L 17.931487,20.648059 z" display="inline" opacity=".282"/><path id="path6416" fill="none" stroke="#e9b96e" stroke-dasharray="none" stroke-linecap="round" stroke-linejoin="miter" stroke-miterlimit="4" stroke-opacity="1" stroke-width="1" d="M 19.594843,22.456404 L 15.928175,23.456404 L 17.261509,20.123069"/><path id="path2283-1" fill="#000" fill-opacity="1" fill-rule="evenodd" stroke="none" d="M 15.907127,22.191239 L 15.089355,24.221569 L 17.204283,23.62939 C 17.206083,23.60066 17.204283,23.57398 17.204283,23.54479 C 17.204283,22.820978 16.621977,22.227511 15.907127,22.191237 L 15.907127,22.191239 L 15.907127,22.191239 z" display="inline"/><path id="path4113-1-6" fill="url(#radialGradient736)" fill-opacity="1" fill-rule="nonzero" stroke="#ef2929" stroke-width="1" d="M 26.741372,10.597989 C 27.974854,10.261295 29.354104,11.708869 29.061469,12.91861 L 30.537888,11.441849 C 31.255126,9.7826894 29.77644,8.4756072 28.187664,9.0910857 L 26.741372,10.597989 L 26.741372,10.597989 z" display="inline" enable-background="new" overflow="visible" visibility="visible" style="marker:none"/><path id="path4095-8-4" fill="url(#linearGradient649-9)" fill-opacity="1" fill-rule="nonzero" stroke="#888a85" stroke-width="1" d="M 25.221696,12.012979 C 26.523976,11.657491 27.980147,13.185906 27.671189,14.463209 L 29.229959,12.903973 C 29.73734,11.830553 27.854926,9.986304 26.748655,10.421926 L 25.221696,12.012979 L 25.221696,12.012979 z" display="inline" enable-background="new" overflow="visible" visibility="visible" style="marker:none"/></g></g></svg>