<svg xmlns="http://www.w3.org/2000/svg" xmlns:svg="http://www.w3.org/2000/svg" xmlns:xlink="http://www.w3.org/1999/xlink" id="svg7625" width="32" height="32"><defs id="defs7627"><linearGradient id="linearGradient3338"><stop id="stop3340" offset="0" stop-color="#eeeeec" stop-opacity="1"/><stop id="stop2627" offset=".789" stop-color="#fff" stop-opacity="1"/><stop id="stop3342" offset="1" stop-color="#eeeeec" stop-opacity="1"/></linearGradient><linearGradient id="linearGradient10475" x1="31.994" x2="37.724" y1="16.859" y2="16.859" gradientUnits="userSpaceOnUse" xlink:href="#linearGradient3338"/><linearGradient id="linearGradient3220"><stop id="stop3222" offset="0" stop-color="#2e3436" stop-opacity="1"/><stop id="stop3228" offset=".644" stop-color="#888a85" stop-opacity="1"/><stop id="stop3224" offset="1" stop-color="#555753" stop-opacity="1"/></linearGradient><linearGradient id="linearGradient10473" x1="42.906" x2="44.813" y1="42.219" y2="41.406" gradientTransform="matrix(0.6348975,0,0,0.6897324,1.3328087,-1.3768228)" gradientUnits="userSpaceOnUse" xlink:href="#linearGradient3220"/><linearGradient id="linearGradient3241"><stop id="stop3243" offset="0" stop-color="#1b1f20" stop-opacity="1"/><stop id="stop3245" offset="1" stop-color="#babdb6" stop-opacity="1"/></linearGradient><linearGradient id="linearGradient10471" x1="39.173" x2="36.296" y1="25.791" y2="20.287" gradientTransform="matrix(0.6348975,0,0,0.6897324,1.3328087,-1.3768228)" gradientUnits="userSpaceOnUse" xlink:href="#linearGradient3241"/><linearGradient id="linearGradient3251"><stop id="stop3253" offset="0" stop-color="#fff" stop-opacity="1"/><stop id="stop3255" offset="1" stop-color="#fff" stop-opacity="0"/></linearGradient><radialGradient id="radialGradient10469" cx="32.5" cy="16.563" r="14.438" fx="32.5" fy="16.563" gradientUnits="userSpaceOnUse" xlink:href="#linearGradient3251"/><linearGradient id="linearGradient3339"><stop id="stop3341" offset="0" stop-color="#fff" stop-opacity="1"/><stop id="stop3343" offset="1" stop-color="#fff" stop-opacity="0"/></linearGradient><linearGradient id="linearGradient10467" x1="31" x2="3.259" y1="12.875" y2="24.894" gradientTransform="matrix(0.6851223,0,0,0.6851223,0.4957207,2.8746032)" gradientUnits="userSpaceOnUse" xlink:href="#linearGradient3339"/><linearGradient id="linearGradient6264"><stop id="stop6266" offset="0" stop-color="#fff" stop-opacity="1"/><stop id="stop6268" offset="1" stop-color="#fff" stop-opacity="0"/></linearGradient><linearGradient id="linearGradient9234" x1="23.996" x2="23.996" y1=".89" y2="50.007" gradientTransform="matrix(0.6924265,0,0,0.6922174,-0.6157515,-0.6158878)" gradientUnits="userSpaceOnUse" xlink:href="#linearGradient6264"/><linearGradient id="linearGradient7964"><stop id="stop7966" offset="0" stop-color="#3465a4" stop-opacity="1"/><stop id="stop7968" offset="1" stop-color="#204a87" stop-opacity="1"/></linearGradient><linearGradient id="linearGradient7970" x1="12" x2="12" y1="2" y2="30" gradientUnits="userSpaceOnUse" xlink:href="#linearGradient7964"/><linearGradient id="linearGradient6252"><stop id="stop6254" offset="0" stop-color="#8fb3d9" stop-opacity="1"/><stop id="stop7960" offset=".25" stop-color="#729fcf" stop-opacity="1"/><stop id="stop7962" offset=".68" stop-color="#3465a4" stop-opacity="1"/><stop id="stop6256" offset="1" stop-color="#204a87" stop-opacity="1"/></linearGradient><radialGradient id="radialGradient7958" cx="16" cy="2" r="14" fx="16" fy="2" gradientTransform="matrix(-4.4000001e-8,2.5000001,-2.5765049,-3.0774894e-8,21.153011,-38.000002)" gradientUnits="userSpaceOnUse" xlink:href="#linearGradient6252"/><radialGradient id="radialGradient9190" cx="605.714" cy="486.648" r="117.143" fx="605.714" fy="486.648" gradientTransform="matrix(-2.774389,0,0,1.969706,112.7623,-872.8854)" gradientUnits="userSpaceOnUse" xlink:href="#linearGradient5060"/><linearGradient id="linearGradient5060"><stop id="stop5062" offset="0" stop-color="#000" stop-opacity="1"/><stop id="stop5064" offset="1" stop-color="#000" stop-opacity="0"/></linearGradient><radialGradient id="radialGradient9188" cx="605.714" cy="486.648" r="117.143" fx="605.714" fy="486.648" gradientTransform="matrix(2.774389,0,0,1.969706,-1891.633,-872.8854)" gradientUnits="userSpaceOnUse" xlink:href="#linearGradient5060"/><linearGradient id="linearGradient5048"><stop id="stop5050" offset="0" stop-color="#000" stop-opacity="0"/><stop id="stop5056" offset=".5" stop-color="#000" stop-opacity="1"/><stop id="stop5052" offset="1" stop-color="#000" stop-opacity="0"/></linearGradient><linearGradient id="linearGradient9186" x1="302.857" x2="302.857" y1="366.648" y2="609.505" gradientTransform="matrix(2.774389,0,0,1.969706,-1892.179,-872.8854)" gradientUnits="userSpaceOnUse" xlink:href="#linearGradient5048"/></defs><metadata id="metadata7630"/><g id="layer1"><g id="g13071" display="inline" transform="matrix(1.5760178e-2,0,0,1.5678661e-2,30.017662,26.862725)"><rect id="rect13073" width="1339.633" height="478.357" x="-1559.252" y="-150.697" fill="url(#linearGradient9186)" fill-opacity="1" fill-rule="nonzero" stroke="none" stroke-dasharray="none" stroke-dashoffset="0" stroke-linecap="round" stroke-linejoin="miter" stroke-miterlimit="4" stroke-opacity="1" stroke-width="1" marker-end="none" marker-mid="none" marker-start="none" display="inline" opacity=".402" overflow="visible" visibility="visible" style="marker:none"/><path id="path13075" fill="url(#radialGradient9188)" fill-opacity="1" fill-rule="nonzero" stroke="none" stroke-dasharray="none" stroke-dashoffset="0" stroke-linecap="round" stroke-linejoin="miter" stroke-miterlimit="4" stroke-opacity="1" stroke-width="1" marker-end="none" marker-mid="none" marker-start="none" d="M -219.61876,-150.68038 C -219.61876,-150.68038 -219.61876,327.65041 -219.61876,327.65041 C -76.744594,328.55086 125.78146,220.48075 125.78138,88.454235 C 125.78138,-43.572302 -33.655436,-150.68036 -219.61876,-150.68038 z" display="inline" opacity=".402" overflow="visible" visibility="visible" style="marker:none"/><path id="path13077" fill="url(#radialGradient9190)" fill-opacity="1" fill-rule="nonzero" stroke="none" stroke-dasharray="none" stroke-dashoffset="0" stroke-linecap="round" stroke-linejoin="miter" stroke-miterlimit="4" stroke-opacity="1" stroke-width="1" marker-end="none" marker-mid="none" marker-start="none" d="M -1559.2523,-150.68038 C -1559.2523,-150.68038 -1559.2523,327.65041 -1559.2523,327.65041 C -1702.1265,328.55086 -1904.6525,220.48075 -1904.6525,88.454235 C -1904.6525,-43.572302 -1745.2157,-150.68036 -1559.2523,-150.68038 z" display="inline" opacity=".402" overflow="visible" visibility="visible" style="marker:none"/></g><rect id="rect5480" width="27" height="27" x="2.5" y="2.5" fill="url(#radialGradient7958)" fill-opacity="1" fill-rule="nonzero" stroke="url(#linearGradient7970)" stroke-dasharray="none" stroke-linecap="butt" stroke-linejoin="round" stroke-miterlimit="4" stroke-opacity="1" stroke-width="1" opacity="1" rx="1.501" ry="1.507"/><rect id="rect6260" width="24.993" height="24.998" x="3.501" y="3.497" fill="none" fill-opacity="1" fill-rule="nonzero" stroke="url(#linearGradient9234)" stroke-dasharray="none" stroke-linecap="butt" stroke-linejoin="round" stroke-miterlimit="4" stroke-opacity="1" stroke-width="1" opacity=".6" rx=".497" ry=".531"/><path id="path3337" fill="url(#linearGradient10467)" fill-opacity="1" fill-rule="evenodd" stroke="none" stroke-linecap="butt" stroke-linejoin="miter" stroke-opacity="1" stroke-width="1" d="M 0.75264173,18.118575 C 19.416462,19.302159 7.6544204,8.5275932 22.077074,8.1843012 L 25.700829,15.799463 C 19.119228,12.730587 14.617242,28.496831 0.66700073,19.231899 L 0.75264173,18.118575 z" display="inline" opacity=".444"/><path id="path3249" fill="url(#radialGradient10469)" fill-opacity="1" stroke="none" stroke-dasharray="none" stroke-dashoffset="0" stroke-linecap="round" stroke-linejoin="round" stroke-miterlimit="4" stroke-opacity="1" stroke-width="5" d="M 46.9375,16.5625 A 14.4375,14.4375 0 1 1 18.0625,16.5625 A 14.4375,14.4375 0 1 1 46.9375,16.5625 z" display="inline" transform="matrix(0.4562434,0,0,0.4562434,6.9967844,3.9690362)"/><path id="path3218" fill="none" fill-opacity="1" fill-rule="evenodd" stroke="url(#linearGradient10471)" stroke-dasharray="none" stroke-linecap="round" stroke-linejoin="miter" stroke-miterlimit="4" stroke-opacity="1" stroke-width="3.7" d="M 21.966978,10.003762 L 30.220647,30.006" display="inline"/><path id="path2243" fill="#fff" fill-opacity="1" fill-rule="evenodd" stroke="url(#linearGradient10473)" stroke-dasharray="none" stroke-linecap="round" stroke-linejoin="miter" stroke-miterlimit="4" stroke-opacity="1" stroke-width="2" d="M 21.966978,10.003762 L 30.220647,30.006" display="inline"/><path id="path3331" fill="#fff" fill-opacity="1" stroke="none" stroke-dasharray="none" stroke-dashoffset="0" stroke-linecap="round" stroke-linejoin="round" stroke-miterlimit="4" stroke-opacity="1" stroke-width="4" d="M 15.5,24.75 L 11.728554,24.195391 L 9.4510341,27.075687 L 8.8130572,23.317446 L 5.3699407,22.041456 L 8.7470953,20.273343 L 8.8966522,16.604442 L 11.621825,19.26993 L 15.157373,18.278415 L 13.464468,21.693889 L 15.5,24.75 z" display="inline" transform="matrix(0.7792021,0,0,0.7792021,7.9220914,-3.2327478)"/><path id="path3333" fill="#fff" fill-opacity="1" stroke="none" stroke-dasharray="none" stroke-dashoffset="0" stroke-linecap="round" stroke-linejoin="round" stroke-miterlimit="4" stroke-opacity="1" stroke-width="4" d="M 15.5,24.75 L 11.728554,24.195391 L 9.4510341,27.075687 L 8.8130572,23.317446 L 5.3699407,22.041456 L 8.7470953,20.273343 L 8.8966522,16.604442 L 11.621825,19.26993 L 15.157373,18.278415 L 13.464468,21.693889 L 15.5,24.75 z" display="inline" transform="matrix(0.3575032,0.3575032,-0.3575032,0.3575032,15.02006,6.9062792)"/><path id="path3335" fill="#fff" fill-opacity="1" stroke="none" stroke-dasharray="none" stroke-dashoffset="0" stroke-linecap="round" stroke-linejoin="round" stroke-miterlimit="4" stroke-opacity="1" stroke-width="4" d="M 15.5,24.75 L 11.728554,24.195391 L 9.4510341,27.075687 L 8.8130572,23.317446 L 5.3699407,22.041456 L 8.7470953,20.273343 L 8.8966522,16.604442 L 11.621825,19.26993 L 15.157373,18.278415 L 13.464468,21.693889 L 15.5,24.75 z" display="inline" transform="matrix(0.3545759,7.8742123e-2,-7.8742123e-2,0.3545759,3.7417177,11.016436)"/><path id="path3336" fill="url(#linearGradient10475)" fill-opacity="1" fill-rule="evenodd" stroke="none" stroke-dasharray="none" stroke-linecap="round" stroke-linejoin="miter" stroke-miterlimit="4" stroke-opacity="1" stroke-width="2" d="M 33.21875,11.28125 C 32.980685,11.251052 32.773233,11.277329 32.625,11.3125 C 32.105564,11.44299 31.707677,11.83623 31.5,12.28125 C 31.292323,12.726272 31.278181,13.26121 31.5,13.71875 L 35.25,22.03125 C 35.360789,22.259802 35.587238,22.409896 35.840893,22.422904 C 36.094548,22.435912 36.335162,22.30977 36.46875,22.09375 C 36.622344,21.827926 36.81059,21.696134 37.09375,21.625 C 37.231076,21.592417 37.370898,21.590796 37.53125,21.625 C 37.788597,21.680756 38.055383,21.586568 38.220681,21.381598 C 38.38598,21.176628 38.42151,20.895944 38.3125,20.65625 L 34.5625,12.3125 C 34.322906,11.728021 33.824857,11.358133 33.21875,11.28125 z" display="inline" transform="matrix(0.6348975,0,0,0.6897324,0.9961027,1.0372402)"/></g></svg>