<svg xmlns="http://www.w3.org/2000/svg" xmlns:svg="http://www.w3.org/2000/svg" xmlns:xlink="http://www.w3.org/1999/xlink" id="svg7298" width="32" height="32"><defs id="defs7300"><linearGradient id="linearGradient4788-7"><stop id="stop4790-8" offset="0" stop-color="#fff" stop-opacity="1"/><stop id="stop4792-6" offset="1" stop-color="#fff" stop-opacity="0"/></linearGradient><radialGradient id="radialGradient8049" cx="326.021" cy="58" r="12.5" fx="326.021" fy="58" gradientTransform="matrix(-0.8608208,3.7825356e-7,4.195139e-2,-0.6133953,586.48445,215.55548)" gradientUnits="userSpaceOnUse" xlink:href="#linearGradient4788-7"/><linearGradient id="linearGradient4788"><stop id="stop4790" offset="0" stop-color="#fff" stop-opacity="1"/><stop id="stop4792" offset="1" stop-color="#fff" stop-opacity="0"/></linearGradient><radialGradient id="radialGradient8047" cx="327.5" cy="58" r="12.5" fx="327.5" fy="58" gradientTransform="matrix(2.9199174,2.560001e-8,0,0.6338204,-639.95678,143.23841)" gradientUnits="userSpaceOnUse" xlink:href="#linearGradient4788"/><linearGradient id="linearGradient5687"><stop id="stop5689" offset="0" stop-color="#fff" stop-opacity="1"/><stop id="stop5691" offset="1" stop-color="#fff" stop-opacity="0"/></linearGradient><linearGradient id="linearGradient8045" x1="88" x2="178" y1="44.5" y2="202.5" gradientTransform="matrix(7.692331e-2,0,0,7.258063e-2,302.61531,174.77419)" gradientUnits="userSpaceOnUse" xlink:href="#linearGradient5687"/><linearGradient id="linearGradient2711"><stop id="stop2713" offset="0" stop-color="#729fcf" stop-opacity="1"/><stop id="stop2715" offset="1" stop-color="#204a87" stop-opacity="1"/></linearGradient><radialGradient id="radialGradient8043" cx="24.006" cy="37.922" r="19" fx="24.006" fy="37.922" gradientTransform="matrix(1.1011252,0,0,0.4728361,287.58732,172.07816)" gradientUnits="userSpaceOnUse" xlink:href="#linearGradient2711"/><linearGradient id="linearGradient5538"><stop id="stop5540" offset="0" stop-color="#555753" stop-opacity="1"/><stop id="stop5542" offset="1" stop-color="#babdb6" stop-opacity="1"/></linearGradient><linearGradient id="linearGradient8041" x1="315.04" x2="291.661" y1="89.237" y2="45.184" gradientTransform="matrix(0.4667846,0,0,0.4669448,164.62624,152.04321)" gradientUnits="userSpaceOnUse" xlink:href="#linearGradient5538"/><linearGradient id="linearGradient4654"><stop id="stop4656" offset="0" stop-color="#eeeeec" stop-opacity="1"/><stop id="stop4658" offset="1" stop-color="#babdb6" stop-opacity="1"/></linearGradient><radialGradient id="radialGradient8039" cx="314.31" cy="61.655" r="23" fx="314.31" fy="61.655" gradientTransform="matrix(0.525761,1.962839,-0.5015999,0.1344494,175.37799,-445.23546)" gradientUnits="userSpaceOnUse" xlink:href="#linearGradient4654"/><linearGradient id="linearGradient3380"><stop id="stop3382" offset="0" stop-color="#555753" stop-opacity="1"/><stop id="stop3410" offset=".479" stop-color="#babdb6" stop-opacity="1"/><stop id="stop3412" offset=".769" stop-color="#888a85" stop-opacity="1"/><stop id="stop3384" offset="1" stop-color="#555753" stop-opacity="1"/></linearGradient><linearGradient id="linearGradient8037" x1="336.563" x2="336.563" y1="192.875" y2="196.993" gradientTransform="translate(-20,-1)" gradientUnits="userSpaceOnUse" xlink:href="#linearGradient3380"/><linearGradient id="linearGradient4693"><stop id="stop4695" offset="0" stop-color="#555753" stop-opacity="1"/><stop id="stop4701" offset=".301" stop-color="#babdb6" stop-opacity="1"/><stop id="stop3408" offset=".48" stop-color="#eeeeec" stop-opacity="1"/><stop id="stop4699" offset=".643" stop-color="#fff" stop-opacity="1"/><stop id="stop4697" offset="1" stop-color="#555753" stop-opacity="1"/></linearGradient><linearGradient id="linearGradient8035" x1="333.563" x2="333.563" y1="192.913" y2="196.265" gradientTransform="translate(-20,-1)" gradientUnits="userSpaceOnUse" xlink:href="#linearGradient4693"/><filter id="filter6655" width="1.122" height="2.339" x="-.061" y="-.669"><feGaussianBlur id="feGaussianBlur6657" stdDeviation="1.168"/></filter><filter id="filter4768" width="1.228" height="2.135" x="-.114" y="-.568"><feGaussianBlur id="feGaussianBlur4770" stdDeviation=".946"/></filter><linearGradient id="linearGradient4772"><stop id="stop4774" offset="0" stop-color="#000" stop-opacity="1"/><stop id="stop4776" offset="1" stop-color="#000" stop-opacity="0"/></linearGradient><linearGradient id="linearGradient8033" x1="327.92" x2="327.92" y1="93.75" y2="88.849" gradientUnits="userSpaceOnUse" xlink:href="#linearGradient4772"/><linearGradient id="linearGradient4612"><stop id="stop4614" offset="0" stop-color="#cecece" stop-opacity="1"/><stop id="stop4616" offset="1" stop-color="#fff" stop-opacity="1"/></linearGradient><linearGradient id="linearGradient2800" x1="42.381" x2="44.018" y1="42.278" y2="33.344" gradientTransform="matrix(1,0,0,1.0581711,0,-1.8585064)" gradientUnits="userSpaceOnUse" xlink:href="#linearGradient4612"/><linearGradient id="linearGradient8127"><stop id="stop8129" offset="0" stop-color="#e5e5e5" stop-opacity="1"/><stop id="stop8131" offset="1" stop-color="#767676" stop-opacity="1"/></linearGradient><linearGradient id="linearGradient2808" x1="141.082" x2="141.461" y1="24.998" y2="28.502" gradientTransform="matrix(1.0046231,0,0,1,-100.41099,0)" gradientUnits="userSpaceOnUse" xlink:href="#linearGradient8127"/><linearGradient id="linearGradient8137"><stop id="stop8139" offset="0" stop-color="#efefef" stop-opacity="1"/><stop id="stop8141" offset="1" stop-color="#d7d7d7" stop-opacity="1"/></linearGradient><linearGradient id="linearGradient2806" x1="142.902" x2="144.288" y1="26.125" y2="26.851" gradientTransform="matrix(1.0046231,0,0,1,-100.41099,0)" gradientUnits="userSpaceOnUse" xlink:href="#linearGradient8137"/><linearGradient id="linearGradient13090"><stop id="stop13092" offset="0" stop-color="#7b7b7b" stop-opacity="1"/><stop id="stop13094" offset="1" stop-color="#505050" stop-opacity="1"/></linearGradient><linearGradient id="linearGradient2804" x1="40.321" x2="44.09" y1="26.521" y2="32.121" gradientUnits="userSpaceOnUse" xlink:href="#linearGradient13090"/><linearGradient id="linearGradient8115"><stop id="stop8117" offset="0" stop-color="#e3e3e3" stop-opacity="1"/><stop id="stop8123" offset=".5" stop-color="#d4d4d4" stop-opacity="1"/><stop id="stop8125" offset=".5" stop-color="#848484" stop-opacity="1"/><stop id="stop8119" offset="1" stop-color="#c1c1c1" stop-opacity="1"/></linearGradient><linearGradient id="linearGradient2802" x1="138.241" x2="146.803" y1="29.455" y2="29.286" gradientTransform="matrix(1.0216677,0,0,1,-102.97348,0)" gradientUnits="userSpaceOnUse" xlink:href="#linearGradient8115"/><linearGradient id="linearGradient8100"><stop id="stop8102" offset="0" stop-color="#1c427b" stop-opacity="1"/><stop id="stop8104" offset="1" stop-color="#1c427b" stop-opacity=".979"/></linearGradient><linearGradient id="linearGradient8106" x1="135.059" x2="142.382" y1="25.485" y2="25.485" gradientTransform="matrix(0.8617129,0.296539,-0.3586388,0.8769733,-84.903122,-48.062934)" gradientUnits="userSpaceOnUse" xlink:href="#linearGradient8100"/><linearGradient id="linearGradient8090"><stop id="stop8092" offset="0" stop-color="#214e90" stop-opacity="1"/><stop id="stop8094" offset="1" stop-color="#0d1f3a" stop-opacity="1"/></linearGradient><linearGradient id="linearGradient8096" x1="139.814" x2="137.043" y1="26.582" y2="26.142" gradientTransform="matrix(0.8617129,0.296539,-0.3586388,0.8769733,-84.903122,-48.062934)" gradientUnits="userSpaceOnUse" xlink:href="#linearGradient8090"/><radialGradient id="radialGradient2732" cx="25.969" cy="17.258" r="9.822" fx="25.969" fy="17.258" gradientTransform="matrix(5.0420652e-2,1.8168786,-1.2228576,3.3892491e-2,50.069619,-36.844368)" gradientUnits="userSpaceOnUse" xlink:href="#linearGradient8918"/><radialGradient id="radialGradient2802" cx="24.479" cy="17.574" r="2.972" fx="24.479" fy="17.574" gradientTransform="matrix(0.1814985,6.5401739,-0.4881366,1.3531535e-2,34.418516,-149.3207)" gradientUnits="userSpaceOnUse" xlink:href="#linearGradient8918"/><radialGradient id="radialGradient2767" cx="24.653" cy="18.944" r="8.617" fx="24.652" fy="18.944" gradientTransform="matrix(5.5772624e-2,2.0097336,-1.434522,3.9778707e-2,54.922798,-38.96569)" gradientUnits="userSpaceOnUse" xlink:href="#linearGradient8918"/><linearGradient id="linearGradient8918"><stop id="stop8920" offset="0" stop-color="#abe14b" stop-opacity="1"/><stop id="stop8922" offset="1" stop-color="#8cb029" stop-opacity="1"/></linearGradient><radialGradient id="radialGradient2842" cx="25.135" cy="14.542" r="4.135" fx="25.135" fy="14.542" gradientTransform="matrix(0.1304562,4.7009044,-0.6598342,1.8278205e-2,36.344914,-107.3288)" gradientUnits="userSpaceOnUse" xlink:href="#linearGradient8918"/><linearGradient id="linearGradient5154"><stop id="stop5156" offset="0" stop-color="#bcd1f0" stop-opacity="1"/><stop id="stop5158" offset="1" stop-color="#89aee3" stop-opacity=".407"/></linearGradient><linearGradient id="linearGradient7065" x1="15.865" x2="15.877" y1="14.684" y2="52.398" gradientUnits="userSpaceOnUse" xlink:href="#linearGradient5154"/><linearGradient id="linearGradient4173"><stop id="stop4175" offset="0" stop-color="#4b81c7" stop-opacity="1"/><stop id="stop4177" offset="1" stop-color="#3364a3" stop-opacity="1"/></linearGradient><linearGradient id="linearGradient7063" x1="11.167" x2="17.795" y1="15.976" y2="48.41" gradientUnits="userSpaceOnUse" xlink:href="#linearGradient4173"/><filter id="filter14190"><feGaussianBlur id="feGaussianBlur14192" stdDeviation=".789"/></filter><linearGradient id="linearGradient13101"><stop id="stop13103" offset="0" stop-color="#000" stop-opacity="1"/><stop id="stop13105" offset="1" stop-color="#000" stop-opacity="0"/></linearGradient><radialGradient id="radialGradient7061" cx="16.537" cy="31.564" r="16.336" fx="16.537" fy="31.564" gradientUnits="userSpaceOnUse" xlink:href="#linearGradient13101"/></defs><metadata id="metadata7303"/><g id="layer1"><path id="path7005" fill="url(#radialGradient7061)" fill-opacity="1" fill-rule="nonzero" stroke="none" stroke-dasharray="none" stroke-dashoffset="0" stroke-linecap="round" stroke-linejoin="miter" stroke-miterlimit="4" stroke-opacity="1" stroke-width="1.021" d="M 32.872257,31.563871 A 16.335602,16.335602 0 1 1 0.20105362,31.563871 A 16.335602,16.335602 0 1 1 32.872257,31.563871 z" filter="url(#filter14190)" opacity="1" transform="matrix(0.6291488,0,0,0.226634,8.7239991,14.130132)"/><g id="g7007" opacity="1" transform="matrix(0.6556049,0,0,0.6553404,1.669978,25.075258)"><path id="path7009" fill="url(#linearGradient7063)" fill-opacity="1" fill-rule="nonzero" stroke="#1e4885" stroke-dasharray="none" stroke-dashoffset="0" stroke-linecap="round" stroke-linejoin="miter" stroke-miterlimit="4" stroke-opacity="1" stroke-width="1.558" d="M 32.872257,31.563871 A 16.335602,16.335602 0 1 1 0.20105362,31.563871 A 16.335602,16.335602 0 1 1 32.872257,31.563871 z" opacity="1" transform="matrix(0.9794558,0,0,0.9794558,13.303077,-52.415417)"/><path id="path7011" fill="none" fill-opacity="1" fill-rule="nonzero" stroke="url(#linearGradient7065)" stroke-dasharray="none" stroke-dashoffset="0" stroke-linecap="round" stroke-linejoin="miter" stroke-miterlimit="4" stroke-opacity="1" stroke-width="1.722" d="M 32.872257,31.563871 A 16.335602,16.335602 0 1 1 0.20105362,31.563871 A 16.335602,16.335602 0 1 1 32.872257,31.563871 z" opacity="1" transform="matrix(0.8860454,0,0,0.8860448,14.847772,-49.467005)"/><g id="g7013" transform="matrix(0.9224941,0,0,0.9224941,2.2917509,-38.618756)"><path id="path7017" fill="url(#radialGradient2842)" fill-opacity="1" fill-rule="nonzero" stroke="none" stroke-miterlimit="4" stroke-width="1.667" d="M 31.437887,5.0682654 C 30.303003,4.3940966 28.879133,4.3976367 27.650827,4.7976348 C 26.557083,4.4443491 25.229698,5.9000606 26.640684,6.4979049 C 27.039585,7.2116235 25.882165,8.5698328 27.181448,8.77863 C 28.124515,8.509926 28.462187,7.3076646 29.609658,7.3712449 C 30.597727,7.2097985 31.1463,6.2731801 31.326292,5.3689273 C 31.358959,5.2670896 31.394905,5.1661767 31.437887,5.0681839"/><path id="path7023" fill="url(#radialGradient2767)" fill-opacity="1" fill-rule="nonzero" stroke="none" stroke-dasharray="none" stroke-miterlimit="4" stroke-width="0" d="M 18.251614,18.489321 C 18.596142,17.272187 15.678335,18.228548 16.850375,16.585259 C 17.398218,15.008727 19.324921,16.425001 20.025292,15.400768 C 20.626712,14.26456 21.462707,13.242207 22.634225,12.661432 C 23.251503,12.377165 23.533258,12.036429 23.189461,11.536357 C 24.785246,11.531962 25.061263,9.8162068 23.595394,9.2231634 C 21.957546,8.1172835 22.324111,11.438465 20.688421,10.358692 C 19.189953,9.2626263 22.242007,8.7198346 21.618426,7.613406 C 20.10368,7.4142441 19.180233,9.4165834 18.151304,10.354379 C 16.651143,12.458528 15.563875,14.952487 15.367345,17.540929 L 15.409284,17.803146"/><path id="path7025" fill="url(#radialGradient2802)" fill-opacity="1" fill-rule="nonzero" stroke="none" stroke-miterlimit="4" stroke-width="1.667" d="M 22.427233,6.9315114 C 21.87352,7.3396656 22.639247,8.1420451 22.875431,7.3200639 C 23.124848,6.7630159 23.780301,6.2658353 24.37906,6.6609255 C 24.881732,6.8393492 25.373802,7.7462769 25.920464,7.20935 C 26.211747,6.7635673 25.343706,6.7040347 25.296169,6.2523678 C 24.934541,5.8359117 24.280263,6.1152779 23.874667,5.6782268 C 23.532851,5.5351608 23.263745,6.3162335 23.002597,5.7879575 C 22.704178,6.1434993 23.068551,6.7721075 22.427233,6.9315114 z"/><path id="path7027" fill="url(#radialGradient2732)" fill-opacity="1" fill-rule="nonzero" stroke="none" stroke-dasharray="none" stroke-miterlimit="4" stroke-width="0" d="M 43.842289,16.459602 C 41.04264,15.417027 44.037221,19.81049 41.070836,18.897639 C 39.969623,18.483534 39.055523,16.450534 39.858169,18.521277 C 42.788286,20.380732 40.282868,22.783948 39.907029,25.216225 C 40.198991,27.63192 36.648356,31.827122 35.42561,27.932233 C 34.578612,25.671555 36.551608,21.808159 33.124902,21.099951 C 28.702895,21.725518 29.493502,14.87425 33.050533,14.271616 C 34.367419,14.004939 38.617952,16.420769 37.622504,13.731263 C 36.070166,12.219398 33.127791,13.493183 32.055061,13.072294 C 31.453459,10.47374 36.792662,10.493191 35.846862,8.7814294 C 32.312506,10.202959 35.362978,5.2631559 37.366763,7.2314247 C 41.150849,8.667471 43.202115,12.668447 43.842289,16.459602 z"/></g></g><path id="path7111" fill="url(#linearGradient8096)" fill-opacity="1" fill-rule="evenodd" stroke="url(#linearGradient8106)" stroke-linecap="butt" stroke-linejoin="miter" stroke-opacity="1" stroke-width="1" d="M 28.526751,17.129732 C 27.059108,18.299551 24.19018,18.975527 22.845913,19.480451 L 22.907717,15.478523 C 25.280563,14.894291 26.663549,14.311211 28.458105,13.263761 L 28.526751,17.129732 z" opacity="1"/><path id="path8098" fill="#0d1f3a" fill-opacity="1" fill-rule="evenodd" stroke="none" stroke-linecap="butt" stroke-linejoin="miter" stroke-opacity="1" stroke-width="1" d="M 28.018427,17.276663 L 24.673456,15.531065 C 25.870859,15.117342 26.925259,14.731953 27.953098,14.128664 L 28.018427,17.276663 z" opacity="1"/><g id="g2788" opacity="1" transform="matrix(0.6922836,0,0,0.6420861,-1.7171456,0.8947768)"><path id="path8110" fill="url(#linearGradient2802)" fill-opacity="1" fill-rule="evenodd" stroke="url(#linearGradient2804)" stroke-linecap="butt" stroke-linejoin="miter" stroke-opacity="1" stroke-width="1.5" d="M 46.485403,27.455801 L 40.400487,24.716957 L 36.481512,26.036459 L 36.534514,28.654709 L 42.679312,32.447926 L 46.492962,30.816025 L 46.485403,27.455801 z"/><path id="path8108" fill="url(#linearGradient2806)" fill-opacity="1" fill-rule="evenodd" stroke="url(#linearGradient2808)" stroke-linecap="butt" stroke-linejoin="miter" stroke-opacity="1" stroke-width="1.5" d="M 45.882516,27.238585 L 40.661573,24.472035 L 37.52539,25.780807 L 42.667452,28.790841 L 45.882516,27.238585 z"/><rect id="rect13100" width=".97" height="3.484" x="-6.849" y="49.901" fill="#f57900" fill-opacity="1" fill-rule="nonzero" stroke="none" stroke-dasharray="none" stroke-dashoffset="0" stroke-linecap="round" stroke-linejoin="miter" stroke-miterlimit="4" stroke-opacity="1" stroke-width="3.5" opacity="1" rx=".875" ry="0" transform="matrix(0.9376924,-0.3474664,0.894154,0.4477595,0,0)"/><rect id="rect13120" width=".996" height="3.453" x="-7.945" y="49.878" fill="#73d216" fill-opacity="1" fill-rule="nonzero" stroke="none" stroke-dasharray="none" stroke-dashoffset="0" stroke-linecap="round" stroke-linejoin="miter" stroke-miterlimit="4" stroke-opacity="1" stroke-width="3.5" opacity="1" rx="0" ry="0" transform="matrix(0.9376924,-0.3474664,0.894154,0.4477595,0,0)"/></g><g id="g2796" opacity="1" transform="matrix(0.6423453,0,0,0.6420861,0.1788284,0.8947768)"><path id="path8135" fill="none" fill-rule="evenodd" stroke="#7b7b7b" stroke-dasharray="none" stroke-linecap="butt" stroke-linejoin="miter" stroke-miterlimit="4" stroke-opacity="1" stroke-width="5.45" d="M 45.373757,30.443076 C 46.581676,34.033707 45.95728,39.442191 42.39278,41.589292 C 37.96269,44.257786 30.851375,38.847821 21.899705,41.371141"/><path id="path7035" fill="none" fill-rule="evenodd" stroke="url(#linearGradient2800)" stroke-dasharray="none" stroke-linecap="butt" stroke-linejoin="miter" stroke-miterlimit="4" stroke-opacity="1" stroke-width="2.024" d="M 45.455003,30.571355 C 46.770387,33.601226 45.95728,39.442191 42.39278,41.589292 C 37.96269,44.257786 30.851375,38.847821 21.899705,41.371141"/></g><g id="g10635" display="inline" transform="translate(-302.99469,-166.99999)"><path id="path3416" fill="url(#linearGradient8033)" fill-opacity="1" stroke="none" d="M 316.05693,91 L 323.83253,91 L 329.21687,95 L 310.62455,95 L 316.05693,91 L 316.05693,91 z" display="inline" enable-background="new" filter="url(#filter4768)" opacity=".526" transform="matrix(0.666447,0,0,0.741913,100.76278,126.5244)"/><rect id="rect3414" width="46" height="4.188" x="297" y="90.813" fill="#2e3436" fill-opacity="1" fill-rule="nonzero" stroke="none" stroke-width="1" display="inline" enable-background="accumulate" filter="url(#filter6655)" opacity=".06" overflow="visible" rx="1.581" ry="1.439" transform="matrix(0.4293482,0,0,0.4328354,176.60856,156.63063)" visibility="visible" style="marker:none"/><path id="path3576" fill="url(#linearGradient8035)" fill-opacity="1" stroke="url(#linearGradient8037)" stroke-dashoffset="0" stroke-linecap="square" stroke-linejoin="round" stroke-miterlimit="4" stroke-opacity="1" stroke-width="1" d="M 311.90625,189.5 C 311.65546,189.5876 311.49085,189.82824 311.5,190.09375 L 311.5,193.90625 C 311.49973,193.91665 311.49973,193.92705 311.5,193.93755 L 310.34375,194.6563 C 310.11972,194.76524 309.9231,194.832 309.75,195 C 309.7167,195.0323 309.63787,195.0953 309.5625,195.25 C 309.4871,195.40465 309.5,195.55668 309.5,195.65625 C 309.5,195.65625 309.5,196.53125 309.5,196.53125 L 318.5,196.53125 C 318.5,196.53125 318.5,195.65625 318.5,195.65625 C 318.5,195.55665 318.5129,195.40465 318.4375,195.25 C 318.3621,195.09535 318.28328,195.0323 318.25,195 C 318.0769,194.832 317.88028,194.76524 317.65625,194.65625 L 316.5,193.9375 L 316.5,190.09375 C 316.493,189.76875 316.23125,189.50693 315.90625,189.5 L 312.09375,189.5 C 312.03165,189.49 311.96837,189.49 311.90625,189.5 L 311.90625,189.5 z"/><path id="path3559" fill="none" stroke="#fff" stroke-dasharray="none" stroke-dashoffset="0" stroke-linecap="square" stroke-linejoin="round" stroke-miterlimit="4" stroke-opacity="1" stroke-width="1" d="M 312.5625,191.5625 L 312.5625,194.9375 C 312.56834,195.348 312.33719,195.72515 311.96875,195.90625 L 310.8125,196.46875 L 317.1875,196.46875 L 316.03125,195.90625 C 315.66281,195.72515 315.43166,195.348 315.4375,194.9375 L 315.4375,191.5625 L 312.5625,191.5625 z" display="inline" enable-background="new" opacity=".196" transform="translate(0,-1)"/><rect id="rect3428" width="8" height="1" x="310" y="195" fill="#eeeeec" fill-opacity="1" stroke="none" display="inline" enable-background="new" rx=".5" ry=".5"/><path id="path3759" fill="#f9f9f9" fill-opacity="1" stroke="none" d="M 311.08279,195.50287 A 0.50823301,0.55242717 0 1 1 310.06632,195.50287 A 0.50823301,0.55242717 0 1 1 311.08279,195.50287 z" transform="matrix(1.2446752,0,0,1.1450853,-76.064424,-28.367455)"/><path id="path3761" fill="#f9f9f9" fill-opacity="1" stroke="none" d="M 311.08279,195.50287 A 0.50823301,0.55242717 0 1 1 310.06632,195.50287 A 0.50823301,0.55242717 0 1 1 311.08279,195.50287 z" display="inline" enable-background="new" transform="matrix(1.2446752,0,0,1.1450853,-69.064424,-28.367455)"/><rect id="rect3420" width="21.005" height="14" x="303.495" y="177.5" fill="url(#radialGradient8039)" fill-opacity="1" stroke="url(#linearGradient8041)" stroke-dasharray="none" stroke-dashoffset=".5" stroke-linecap="round" stroke-linejoin="round" stroke-miterlimit="4" stroke-opacity="1" stroke-width="1" display="inline" enable-background="new" rx=".496" ry=".496"/><rect id="rect3432" width="19" height="12" x="304.5" y="178.5" fill="none" stroke="#fff" stroke-dasharray="none" stroke-dashoffset=".5" stroke-linecap="round" stroke-linejoin="round" stroke-miterlimit="4" stroke-opacity="1" stroke-width="1" display="inline" enable-background="new" opacity=".15" rx="0" ry="0"/><rect id="rect3422" width="17.042" height="10" x="305.5" y="179.5" fill="url(#radialGradient8043)" fill-opacity="1" fill-rule="evenodd" stroke="#204a87" stroke-linecap="butt" stroke-linejoin="miter" stroke-opacity="1" stroke-width="1" display="inline" enable-background="new"/><rect id="rect3474" width="16" height="9" x="306" y="180" fill="url(#linearGradient8045)" fill-opacity="1" fill-rule="evenodd" stroke="none" display="inline" enable-background="new" opacity=".15"/><path id="path3430" fill="url(#radialGradient8047)" fill-opacity="1" stroke="none" d="M 317.45292,180 L 322,180 L 322,190 L 311.99643,190 L 317.45292,180 L 317.45292,180 z" display="inline" enable-background="new" opacity=".356"/><path id="path10739" fill="url(#radialGradient8049)" fill-opacity="1" stroke="none" d="M 311.76717,179.97868 L 314.59738,179.97868 L 311.4688,187.28942 L 310.07798,187.20732 L 311.76717,179.97872 L 311.76717,179.97868 z" display="inline" enable-background="new" opacity=".389"/></g></g></svg>