<svg xmlns="http://www.w3.org/2000/svg" xmlns:svg="http://www.w3.org/2000/svg" xmlns:xlink="http://www.w3.org/1999/xlink" id="svg7526" width="48" height="48"><defs id="defs7528"><linearGradient id="linearGradient10176" x1="71.999" x2="71.999" y1="14.258" y2="19.958" gradientTransform="matrix(1.0033404,0,0,1,-8.2374684,8)" gradientUnits="userSpaceOnUse"><stop id="stop10178" offset=".004" stop-color="#feebd6" stop-opacity="0"/><stop id="stop10180" offset=".461" stop-color="#f5f5f5" stop-opacity=".53"/><stop id="stop10182" offset="1" stop-color="#f5f5f5" stop-opacity="0"/></linearGradient><linearGradient id="linearGradient9649" x1="7.238" x2="132.86" y1="36.005" y2="35.858" gradientTransform="matrix(0.4550303,0,0,0.942809,-5.399878,-22.279208)" gradientUnits="userSpaceOnUse" xlink:href="#linearGradient10176"/><linearGradient id="linearGradient9087"><stop id="stop9089" offset="0" stop-color="#3465a4" stop-opacity="1"/><stop id="stop9091" offset="1" stop-color="#204a87" stop-opacity="1"/></linearGradient><linearGradient id="linearGradient9647" x1="163.026" x2="162.992" y1="17" y2="45" gradientTransform="translate(-133.9995,-6.9999956)" gradientUnits="userSpaceOnUse" xlink:href="#linearGradient9087"/><linearGradient id="linearGradient9073"><stop id="stop9075" offset="0" stop-color="#8fb3d9" stop-opacity="1"/><stop id="stop9077" offset="1" stop-color="#3465a4" stop-opacity="1"/></linearGradient><linearGradient id="linearGradient9645" x1="28.272" x2="28.272" y1="324.689" y2="409.099" gradientTransform="matrix(0.3515659,0,0,0.3552688,14.060973,-107.34001)" gradientUnits="userSpaceOnUse" xlink:href="#linearGradient9073"/><linearGradient id="linearGradient9101" x1="71.999" x2="71.999" y1="14.258" y2="19.958" gradientTransform="matrix(1.0033404,0,0,1,-8.2374684,8)" gradientUnits="userSpaceOnUse"><stop id="stop9103" offset=".25" stop-color="#729fcf" stop-opacity="0"/><stop id="stop9105" offset="1" stop-color="#3465a4" stop-opacity="1"/></linearGradient><linearGradient id="linearGradient9133" x1="71.999" x2="71.999" y1="14.258" y2="19.958" gradientTransform="matrix(0.3707962,0,0,0.1666666,-2.696087,6.6666714)" gradientUnits="userSpaceOnUse" xlink:href="#linearGradient9101"/><linearGradient id="linearGradient17648"><stop id="stop17650" offset="0" stop-color="#fff" stop-opacity=".6"/><stop id="stop17652" offset="1" stop-color="#fff" stop-opacity="0"/></linearGradient><linearGradient id="linearGradient17646" x1="23.959" x2="23.985" y1="10" y2="42" gradientTransform="translate(4.9301119e-4,-4.9999316)" gradientUnits="userSpaceOnUse" xlink:href="#linearGradient17648"/><linearGradient id="linearGradient6293"><stop id="stop6295" offset="0" stop-color="#888a85" stop-opacity="1"/><stop id="stop6297" offset="1" stop-color="#555753" stop-opacity="0"/></linearGradient><linearGradient id="linearGradient17644" x1="25.063" x2="25.063" y1="9" y2="28.083" gradientTransform="translate(4.9301119e-4,-4.9999316)" gradientUnits="userSpaceOnUse" xlink:href="#linearGradient6293"/><linearGradient id="linearGradient9347"><stop id="stop9349" offset="0" stop-color="#7a7a7a" stop-opacity="1"/><stop id="stop9351" offset=".198" stop-color="#ebebeb" stop-opacity="1"/><stop id="stop9353" offset=".599" stop-color="#b9b9b9" stop-opacity="1"/><stop id="stop9355" offset="1" stop-color="#878787" stop-opacity="1"/></linearGradient><linearGradient id="linearGradient7755" x1="23.1" x2="23.144" y1="38.297" y2="46.038" gradientTransform="matrix(0.7312763,0,0,0.6969978,6.8684642,14.121769)" gradientUnits="userSpaceOnUse" xlink:href="#linearGradient9347"/><linearGradient id="linearGradient178"><stop id="stop179" offset="0" stop-color="#fff" stop-opacity="0"/><stop id="stop180" offset=".108" stop-color="#d9d9d9" stop-opacity="1"/><stop id="stop181" offset=".921" stop-color="#d9d9d9" stop-opacity="1"/><stop id="stop182" offset="1" stop-color="#fff" stop-opacity="0"/></linearGradient><linearGradient id="linearGradient7832" x1="1.642" x2="15.343" y1="117.827" y2="117.827" gradientTransform="matrix(3.1119049,0,0,9.1235758e-2,28.948795,19.750004)" gradientUnits="userSpaceOnUse" xlink:href="#linearGradient178"/><linearGradient id="linearGradient7834" x1=".612" x2="5.086" y1="372.578" y2="372.578" gradientTransform="matrix(9.3885418,0,0,0.2235361,29.130383,-45.865211)" gradientUnits="userSpaceOnUse" xlink:href="#linearGradient272"/><linearGradient id="linearGradient272"><stop id="stop273" offset="0" stop-color="#474747" stop-opacity="0"/><stop id="stop275" offset=".1" stop-color="#474747" stop-opacity="1"/><stop id="stop276" offset=".9" stop-color="#474747" stop-opacity="1"/><stop id="stop274" offset="1" stop-color="#474747" stop-opacity="0"/></linearGradient><linearGradient id="linearGradient7830" x1=".612" x2="5.086" y1="372.578" y2="372.578" gradientTransform="matrix(9.3885424,0,0,0.2235366,29.130395,-51.784906)" gradientUnits="userSpaceOnUse" xlink:href="#linearGradient272"/><linearGradient id="linearGradient6704"><stop id="stop6706" offset="0" stop-color="#000" stop-opacity="1"/><stop id="stop6708" offset="1" stop-color="#000" stop-opacity="0"/></linearGradient><radialGradient id="radialGradient7753" cx="1120.375" cy="394.781" r="20.625" fx="1120.375" fy="394.781" gradientTransform="matrix(1,0,0,0.1166667,0,348.72344)" gradientUnits="userSpaceOnUse" xlink:href="#linearGradient6704"/></defs><metadata id="metadata7531"/><g id="layer1"><rect id="rect8955" width="3" height="3" x="22.5" y="37.5" fill="#d9d9d9" fill-opacity="1" stroke="#707070" stroke-dasharray="none" stroke-miterlimit="4" stroke-opacity="1" stroke-width="1"/><path id="path6774" fill="url(#radialGradient7753)" fill-opacity="1" fill-rule="evenodd" stroke="none" d="M 1141,394.78125 A 20.625,2.40625 0 1 1 1099.75,394.78125 A 20.625,2.40625 0 1 1 1141,394.78125 z" display="inline" enable-background="new" opacity=".3" transform="matrix(1.0181815,0,0,1.2467532,-1116.7447,-447.19479)"/><g id="g7753" display="inline" transform="translate(-31.876607,12.999559)"><rect id="rect8601" width="42" height="1" x="34.877" y="31" fill="url(#linearGradient7830)" fill-opacity="1" fill-rule="nonzero" stroke="none" stroke-width="1" display="block" opacity=".65" overflow="visible" visibility="visible" style="marker:none"/><rect id="rect8603" width="42" height="1" x="34.877" y="29" fill="url(#linearGradient7834)" fill-opacity="1" fill-rule="nonzero" stroke="none" stroke-width="1" display="block" opacity=".65" overflow="visible" visibility="visible" style="marker:none"/><rect id="rect8605" width="41.5" height="1" x="34.627" y="30" fill="url(#linearGradient7832)" fill-opacity="1" fill-rule="nonzero" stroke="none" stroke-width="1" display="block" overflow="visible" visibility="visible" style="marker:none"/></g><path id="path8607" fill="url(#linearGradient7755)" fill-opacity="1" fill-rule="nonzero" stroke="#555753" stroke-dasharray="none" stroke-dashoffset="0" stroke-linecap="butt" stroke-linejoin="miter" stroke-miterlimit="4" stroke-opacity="1" stroke-width="1" d="M 21.779213,40.50006 L 18.545815,40.50006 C 17.963443,40.50006 17.500527,40.9271 17.500527,41.464335 L 17.500527,45.535418 C 17.500527,46.072648 17.963443,46.499993 18.545815,46.499993 L 29.455169,46.499993 C 30.037536,46.499993 30.500459,46.072648 30.500459,45.535418 L 30.500459,41.464335 C 30.500459,40.9271 30.037536,40.50006 29.455169,40.50006 L 26.634004,40.50006 L 21.779213,40.50006 z" display="block" enable-background="new" overflow="visible" visibility="visible" style="marker:none"/><rect id="rect8615" width="8" height="1.5" x="21" y="41.25" fill="#fff" fill-opacity=".72" fill-rule="nonzero" stroke="none" stroke-width="1.14" display="block" enable-background="new" overflow="visible" rx=".5" ry=".5" visibility="visible" style="marker:none"/><path id="path8617" fill="#fff" fill-opacity=".72" fill-rule="nonzero" stroke="none" stroke-width="1.14" d="M 19,40.625 A 0.53125,0.53125 0 1 1 17.9375,40.625 A 0.53125,0.53125 0 1 1 19,40.625 z" display="block" enable-background="new" overflow="visible" transform="matrix(1.4117647,0,0,1.4117647,-6.573036,-15.352915)" visibility="visible" style="marker:none"/><path id="path15" fill="#eeeeec" fill-opacity="1" stroke="url(#linearGradient17644)" stroke-dasharray="none" stroke-miterlimit="4" stroke-width="1" d="M 44.500495,9.5000034 C 44.510046,8.0061514 44.008307,7.5000684 42.500495,7.5000684 L 19.500495,7.5000684 L 17.000495,5.0000684 C 16.734219,4.7406644 16.376979,4.5000034 16.000495,4.5000034 L 5.5004932,4.5000034 C 4.0131522,4.5000034 3.4692432,5.0164724 3.5004932,6.5000044 L 3.5004932,37.500004 L 44.500495,37.500004 L 44.500495,9.5000034 z"/><path id="path7263" fill="none" fill-opacity="1" stroke="url(#linearGradient17646)" stroke-dasharray="none" stroke-miterlimit="4" stroke-opacity="1" stroke-width="1" d="M 43.500495,9.5000674 C 43.492367,8.5865544 43.445053,8.5111164 42.500495,8.5000674 L 19.000495,8.5000674 L 16.500495,6.0000684 C 16.061316,5.3837614 15.951425,5.5313184 15.000495,5.5000684 L 5.0004922,5.5000684 C 4.2861412,5.5000684 4.5004922,5.8123844 4.5004922,6.5000684 L 4.5004932,36.500004 L 43.500495,36.500004 L 43.500495,9.5000674 z" opacity="1"/><path id="path39053" fill="url(#linearGradient9133)" fill-opacity="1" d="M 4.0012352,9.0000044 C 4.0043232,9.2916704 4.0074112,9.6258374 4.0104992,10.000004 L 43.991231,10.000004 C 43.994319,9.6258374 43.997407,9.2916704 44.000495,9.0000044 L 4.0004942,9.0000044 L 4.0012352,9.0000044 z" display="inline" enable-background="new" opacity=".5"/><path id="path39063" fill="url(#linearGradient9645)" fill-opacity="1" stroke="url(#linearGradient9647)" stroke-dasharray="none" stroke-miterlimit="4" stroke-width="1" d="M 45.250495,36.500004 C 45.220125,37.085488 44.582545,37.500213 44.000495,37.500213 L 4.0004952,37.500213 C 3.4184552,37.500213 2.781185,37.085488 2.750495,36.500004 L 1.500495,11.500004 C 1.458155,10.915587 1.918445,10.499795 2.500495,10.499795 L 45.500495,10.499795 C 46.082545,10.499795 46.544935,10.915587 46.500495,11.500004 L 45.250495,36.500004 L 45.250495,36.500004 z" display="inline" enable-background="new" opacity=".9"/><rect id="rect3521-5" width="44" height="1" x="2" y="11" fill="url(#linearGradient9649)" fill-opacity="1" stroke="none" display="inline" enable-background="new" rx="0" ry="0"/></g></svg>