<svg xmlns="http://www.w3.org/2000/svg" xmlns:svg="http://www.w3.org/2000/svg" xmlns:xlink="http://www.w3.org/1999/xlink" id="svg7223" width="48" height="48"><defs id="defs7225"><linearGradient id="linearGradient7221" x1="7.974" x2="59.198" y1="54.456" y2="-6.173" gradientTransform="matrix(0.2721672,0.1957367,0.2299489,-0.2316737,9.3077286,32.125369)" gradientUnits="userSpaceOnUse" xlink:href="#linearGradient8532"/><linearGradient id="linearGradient8532"><stop id="stop8534" offset="0" stop-color="#fff" stop-opacity="1"/><stop id="stop8536" offset="1" stop-color="#fff" stop-opacity="0"/></linearGradient><linearGradient id="linearGradient8540" x1="50.499" x2="-7.255" y1="8.065" y2="76.828" gradientUnits="userSpaceOnUse" xlink:href="#linearGradient8532"/><linearGradient id="linearGradient10176" x1="71.999" x2="71.999" y1="14.258" y2="19.958" gradientTransform="matrix(1.0033404,0,0,1,-8.2374684,8)" gradientUnits="userSpaceOnUse"><stop id="stop10178" offset=".004" stop-color="#feebd6" stop-opacity="0"/><stop id="stop10180" offset=".461" stop-color="#f5f5f5" stop-opacity=".53"/><stop id="stop10182" offset="1" stop-color="#f5f5f5" stop-opacity="0"/></linearGradient><linearGradient id="linearGradient9649" x1="7.238" x2="132.86" y1="36.005" y2="35.858" gradientTransform="matrix(0.4550303,0,0,0.942809,-5.4003752,-18.279212)" gradientUnits="userSpaceOnUse" xlink:href="#linearGradient10176"/><linearGradient id="linearGradient9087"><stop id="stop9089" offset="0" stop-color="#3465a4" stop-opacity="1"/><stop id="stop9091" offset="1" stop-color="#204a87" stop-opacity="1"/></linearGradient><linearGradient id="linearGradient9647" x1="163.026" x2="162.992" y1="17" y2="45" gradientTransform="translate(-134,-2.9999998)" gradientUnits="userSpaceOnUse" xlink:href="#linearGradient9087"/><linearGradient id="linearGradient9073"><stop id="stop9075" offset="0" stop-color="#8fb3d9" stop-opacity="1"/><stop id="stop9077" offset="1" stop-color="#3465a4" stop-opacity="1"/></linearGradient><linearGradient id="linearGradient9645" x1="28.272" x2="28.272" y1="324.689" y2="409.099" gradientTransform="matrix(0.3515659,0,0,0.3552688,14.060478,-103.34001)" gradientUnits="userSpaceOnUse" xlink:href="#linearGradient9073"/><linearGradient id="linearGradient9101" x1="71.999" x2="71.999" y1="14.258" y2="19.958" gradientTransform="matrix(1.0033404,0,0,1,-8.2374684,8)" gradientUnits="userSpaceOnUse"><stop id="stop9103" offset=".25" stop-color="#729fcf" stop-opacity="0"/><stop id="stop9105" offset="1" stop-color="#3465a4" stop-opacity="1"/></linearGradient><linearGradient id="linearGradient9133" x1="71.999" x2="71.999" y1="14.258" y2="19.958" gradientTransform="matrix(0.3707962,0,0,0.1666666,-2.6965844,10.666667)" gradientUnits="userSpaceOnUse" xlink:href="#linearGradient9101"/><radialGradient id="radialGradient2099" cx="605.714" cy="486.648" r="117.143" fx="605.714" fy="486.648" gradientTransform="matrix(-2.774389,0,0,1.969706,112.7623,-872.8854)" gradientUnits="userSpaceOnUse" xlink:href="#linearGradient5060"/><linearGradient id="linearGradient5060"><stop id="stop5062" offset="0" stop-color="#000" stop-opacity="1"/><stop id="stop5064" offset="1" stop-color="#000" stop-opacity="0"/></linearGradient><radialGradient id="radialGradient2097" cx="605.714" cy="486.648" r="117.143" fx="605.714" fy="486.648" gradientTransform="matrix(2.774389,0,0,1.969706,-1891.633,-872.8854)" gradientUnits="userSpaceOnUse" xlink:href="#linearGradient5060"/><linearGradient id="linearGradient5048"><stop id="stop5050" offset="0" stop-color="#000" stop-opacity="0"/><stop id="stop5056" offset=".5" stop-color="#000" stop-opacity="1"/><stop id="stop5052" offset="1" stop-color="#000" stop-opacity="0"/></linearGradient><linearGradient id="linearGradient2095" x1="302.857" x2="302.857" y1="366.648" y2="609.505" gradientTransform="matrix(2.774389,0,0,1.969706,-1892.179,-872.8854)" gradientUnits="userSpaceOnUse" xlink:href="#linearGradient5048"/><linearGradient id="linearGradient17648"><stop id="stop17650" offset="0" stop-color="#fff" stop-opacity=".6"/><stop id="stop17652" offset="1" stop-color="#fff" stop-opacity="0"/></linearGradient><linearGradient id="linearGradient17646" x1="23.959" x2="23.985" y1="10" y2="42" gradientTransform="translate(-4.3577825e-6,-0.9999358)" gradientUnits="userSpaceOnUse" xlink:href="#linearGradient17648"/><linearGradient id="linearGradient6293"><stop id="stop6295" offset="0" stop-color="#888a85" stop-opacity="1"/><stop id="stop6297" offset="1" stop-color="#555753" stop-opacity="0"/></linearGradient><linearGradient id="linearGradient17644" x1="25.063" x2="25.063" y1="9" y2="28.083" gradientTransform="translate(-4.3577825e-6,-0.9999358)" gradientUnits="userSpaceOnUse" xlink:href="#linearGradient6293"/></defs><metadata id="metadata7228"/><g id="layer1"><path id="path15" fill="#eeeeec" fill-opacity="1" stroke="url(#linearGradient17644)" stroke-dasharray="none" stroke-miterlimit="4" stroke-width="1" d="M 44.5,13.499999 C 44.509551,12.006147 44.007812,11.500064 42.5,11.500064 L 19.5,11.500064 L 17,9.0000652 C 16.733724,8.7406612 16.376484,8.5000002 16,8.5000002 L 5.4999956,8.5000002 C 4.0126546,8.5000002 3.4687456,9.0164692 3.4999956,10.5 L 3.4999956,41.5 L 44.5,41.5 L 44.5,13.499999 z"/><path id="path7263" fill="none" fill-opacity="1" stroke="url(#linearGradient17646)" stroke-dasharray="none" stroke-miterlimit="4" stroke-opacity="1" stroke-width="1" d="M 43.5,13.500063 C 43.491872,12.58655 43.444558,12.511112 42.5,12.500063 L 19,12.500063 L 16.5,10.000064 C 16.060821,9.3837582 15.95093,9.5313152 15,9.5000652 L 4.9999946,9.5000652 C 4.2856436,9.5000652 4.4999946,9.8123812 4.4999946,10.500064 L 4.4999956,40.5 L 43.5,40.5 L 43.5,13.500063 z" opacity="1"/><g id="g13071" display="inline" transform="matrix(2.3640267e-2,0,0,2.1950125e-2,45.026494,37.807815)"><rect id="rect13073" width="1339.633" height="478.357" x="-1559.252" y="-150.697" fill="url(#linearGradient2095)" fill-opacity="1" fill-rule="nonzero" stroke="none" stroke-dasharray="none" stroke-dashoffset="0" stroke-linecap="round" stroke-linejoin="miter" stroke-miterlimit="4" stroke-opacity="1" stroke-width="1" marker-end="none" marker-mid="none" marker-start="none" display="inline" opacity=".402" overflow="visible" visibility="visible" style="marker:none"/><path id="path13075" fill="url(#radialGradient2097)" fill-opacity="1" fill-rule="nonzero" stroke="none" stroke-dasharray="none" stroke-dashoffset="0" stroke-linecap="round" stroke-linejoin="miter" stroke-miterlimit="4" stroke-opacity="1" stroke-width="1" marker-end="none" marker-mid="none" marker-start="none" d="M -219.61876,-150.68038 C -219.61876,-150.68038 -219.61876,327.65041 -219.61876,327.65041 C -76.744594,328.55086 125.78146,220.48075 125.78138,88.454235 C 125.78138,-43.572302 -33.655436,-150.68036 -219.61876,-150.68038 z" display="inline" opacity=".402" overflow="visible" visibility="visible" style="marker:none"/><path id="path13077" fill="url(#radialGradient2099)" fill-opacity="1" fill-rule="nonzero" stroke="none" stroke-dasharray="none" stroke-dashoffset="0" stroke-linecap="round" stroke-linejoin="miter" stroke-miterlimit="4" stroke-opacity="1" stroke-width="1" marker-end="none" marker-mid="none" marker-start="none" d="M -1559.2523,-150.68038 C -1559.2523,-150.68038 -1559.2523,327.65041 -1559.2523,327.65041 C -1702.1265,328.55086 -1904.6525,220.48075 -1904.6525,88.454235 C -1904.6525,-43.572302 -1745.2157,-150.68036 -1559.2523,-150.68038 z" display="inline" opacity=".402" overflow="visible" visibility="visible" style="marker:none"/></g><path id="path39053" fill="url(#linearGradient9133)" fill-opacity="1" d="M 4.0007376,13 C 4.0038256,13.291666 4.0069136,13.625833 4.0100016,14 L 43.990736,14 C 43.993824,13.625833 43.996912,13.291666 44,13 L 3.9999966,13 L 4.0007376,13 z" display="inline" enable-background="new" opacity=".5"/><path id="path39063" fill="url(#linearGradient9645)" fill-opacity="1" stroke="url(#linearGradient9647)" stroke-dasharray="none" stroke-miterlimit="4" stroke-width="1" d="M 45.25,40.5 C 45.21963,41.085484 44.58205,41.500209 44,41.500209 L 3.9999976,41.500209 C 3.4179576,41.500209 2.7806876,41.085484 2.7499976,40.5 L 1.4999976,15.5 C 1.4576576,14.915583 1.9179476,14.499791 2.4999976,14.499791 L 45.5,14.499791 C 46.08205,14.499791 46.54444,14.915583 46.5,15.5 L 45.25,40.5 L 45.25,40.5 z" display="inline" enable-background="new" opacity=".9"/><rect id="rect3521-5" width="44" height="1" x="2" y="15" fill="url(#linearGradient9649)" fill-opacity="1" stroke="none" display="inline" enable-background="new" rx="0" ry="0"/><g id="g1878" fill="#fff" fill-opacity="1" stroke="none" stroke-opacity="1" transform="matrix(-0.2721761,-0.1957367,-0.2299564,0.2316737,38.692489,25.874632)"><path id="path1880" fill="url(#linearGradient8540)" fill-opacity="1" fill-rule="nonzero" stroke="none" stroke-dasharray="none" stroke-dashoffset="0" stroke-linecap="butt" stroke-linejoin="miter" stroke-miterlimit="4" stroke-opacity="1" stroke-width="3.541" marker-end="none" marker-mid="none" marker-start="none" d="M 42.85753,47.520441 C 59.919399,31.677279 51.901991,12.373903 24.76778,12.834135 L 24.720106,-0.15539083 L 7.6968521,19.993311 L 24.847235,34.483344 C 24.847235,34.483344 23.735608,22.753112 23.735608,22.753112 C 42.565368,23.752089 49.279651,32.765173 42.85753,47.520441 z" display="block" opacity="1" overflow="visible" visibility="visible" style="marker:none"/></g><path id="path7219" fill="url(#linearGradient7221)" fill-opacity="1" fill-rule="nonzero" stroke="none" stroke-dasharray="none" stroke-dashoffset="0" stroke-linecap="butt" stroke-linejoin="miter" stroke-miterlimit="4" stroke-opacity="1" stroke-width="3.541" marker-end="none" marker-mid="none" marker-start="none" d="M 31.899419,29.504924 C 32.899982,36.515002 26.279116,39.417785 18.999902,34.000001 L 16,37 L 16,29.000001 L 23.99974,29 C 23.99974,29 20.999837,31.5 20.999837,31.5 C 26.354395,34.954239 30.254351,34.180376 31.899419,29.504924 z" display="block" opacity="1" overflow="visible" visibility="visible" style="marker:none"/></g></svg>