<svg xmlns="http://www.w3.org/2000/svg" xmlns:svg="http://www.w3.org/2000/svg" xmlns:xlink="http://www.w3.org/1999/xlink" id="svg8365" width="32" height="32"><defs id="defs8367"><linearGradient id="linearGradient8359" x1="16" x2="16" y1="14.027" y2="30.055" gradientTransform="matrix(1.0909091,0,0,1,-2.0909088,-3.5686186e-7)" gradientUnits="userSpaceOnUse" xlink:href="#linearGradient8353"/><linearGradient id="linearGradient8363" x1="16" x2="16" y1="14.027" y2="30.055" gradientTransform="matrix(0.8333333,0,0,0.6666667,1.666667,7.3333336)" gradientUnits="userSpaceOnUse" xlink:href="#linearGradient8353"/><linearGradient id="linearGradient8353"><stop id="stop8355" offset="0" stop-color="#fff" stop-opacity="1"/><stop id="stop8357" offset="1" stop-color="#fff" stop-opacity="0"/></linearGradient><linearGradient id="linearGradient8361" x1="16" x2="16" y1="14.027" y2="30.055" gradientUnits="userSpaceOnUse" xlink:href="#linearGradient8353"/><linearGradient id="linearGradient8372"><stop id="stop8374" offset="0" stop-color="#fff" stop-opacity="1"/><stop id="stop8376" offset="1" stop-color="#fff" stop-opacity="0"/></linearGradient><linearGradient id="linearGradient8378" x1="11.045" x2="11" y1="8" y2="22.938" gradientTransform="translate(5.9999594,6.0000416)" gradientUnits="userSpaceOnUse" xlink:href="#linearGradient8372"/><linearGradient id="linearGradient4305-4-8" x1="71.999" x2="71.999" y1="14.258" y2="19.958" gradientTransform="matrix(1.0033404,0,0,1,-8.2374684,8)" gradientUnits="userSpaceOnUse"><stop id="stop4307-0-1" offset=".004" stop-color="#feebd6" stop-opacity="0"/><stop id="stop4309-8-0" offset=".461" stop-color="#f5f5f5" stop-opacity=".53"/><stop id="stop4311-0-3" offset="1" stop-color="#f5f5f5" stop-opacity="0"/></linearGradient><linearGradient id="linearGradient10810" x1="7.238" x2="132.86" y1="36.005" y2="35.858" gradientTransform="matrix(0.3102479,0,0,0.942809,-4.0456946,-23.279211)" gradientUnits="userSpaceOnUse" xlink:href="#linearGradient4305-4-8"/><linearGradient id="linearGradient10580" x1="71.999" x2="71.999" y1="14.258" y2="19.958" gradientTransform="matrix(1.0033404,0,0,1,-8.2374684,8)" gradientUnits="userSpaceOnUse"><stop id="stop10582" offset=".25" stop-color="#729fcf" stop-opacity="0"/><stop id="stop10584" offset="1" stop-color="#3465a4" stop-opacity="1"/></linearGradient><linearGradient id="linearGradient10808" x1="65.307" x2="65.307" y1="22" y2="28.004" gradientTransform="matrix(0.2402106,0,0,0.1666666,0.6255477,4.3333326)" gradientUnits="userSpaceOnUse" xlink:href="#linearGradient10580"/><linearGradient id="linearGradient10572"><stop id="stop10574" offset="0" stop-color="#3465a4" stop-opacity="1"/><stop id="stop10576" offset="1" stop-color="#204a87" stop-opacity="1"/></linearGradient><linearGradient id="linearGradient10806" x1="151" x2="151" y1="64" y2="83" gradientTransform="matrix(0.9997295,0,0,1.0000073,-133.95958,-55.000537)" gradientUnits="userSpaceOnUse" xlink:href="#linearGradient10572"/><linearGradient id="linearGradient10566"><stop id="stop10568" offset="0" stop-color="#8fb3d9" stop-opacity="1"/><stop id="stop10570" offset="1" stop-color="#3465a4" stop-opacity="1"/></linearGradient><linearGradient id="linearGradient10804" x1="28.273" x2="28.272" y1="325.342" y2="409.804" gradientTransform="matrix(0.2421199,0,0,0.2368403,9.1546054,-69.058011)" gradientUnits="userSpaceOnUse" xlink:href="#linearGradient10566"/><linearGradient id="linearGradient17648"><stop id="stop17650" offset="0" stop-color="#fff" stop-opacity=".6"/><stop id="stop17652" offset="1" stop-color="#fff" stop-opacity="0"/></linearGradient><linearGradient id="linearGradient17646" x1="24.001" x2="24" y1="10.239" y2="38.763" gradientTransform="matrix(0.6666651,0,0,0.6666659,-1.0003883,-1.8332974)" gradientUnits="userSpaceOnUse" xlink:href="#linearGradient17648"/><linearGradient id="linearGradient6293"><stop id="stop6295" offset="0" stop-color="#888a85" stop-opacity="1"/><stop id="stop6297" offset="1" stop-color="#555753" stop-opacity="0"/></linearGradient><linearGradient id="linearGradient17644" x1="24" x2="24.046" y1="8.765" y2="31.23" gradientTransform="matrix(0.6792506,0,0,0.6663604,-1.3024413,-1.8258144)" gradientUnits="userSpaceOnUse" xlink:href="#linearGradient6293"/><radialGradient id="radialGradient2099" cx="605.714" cy="486.648" r="117.143" fx="605.714" fy="486.648" gradientTransform="matrix(-2.774389,0,0,1.969706,112.7623,-872.8854)" gradientUnits="userSpaceOnUse" xlink:href="#linearGradient5060"/><linearGradient id="linearGradient5060"><stop id="stop5062" offset="0" stop-color="#000" stop-opacity="1"/><stop id="stop5064" offset="1" stop-color="#000" stop-opacity="0"/></linearGradient><radialGradient id="radialGradient2097" cx="605.714" cy="486.648" r="117.143" fx="605.714" fy="486.648" gradientTransform="matrix(2.774389,0,0,1.969706,-1891.633,-872.8854)" gradientUnits="userSpaceOnUse" xlink:href="#linearGradient5060"/><linearGradient id="linearGradient5048"><stop id="stop5050" offset="0" stop-color="#000" stop-opacity="0"/><stop id="stop5056" offset=".5" stop-color="#000" stop-opacity="1"/><stop id="stop5052" offset="1" stop-color="#000" stop-opacity="0"/></linearGradient><linearGradient id="linearGradient2095" x1="302.857" x2="302.857" y1="366.648" y2="609.505" gradientTransform="matrix(2.774389,0,0,1.969706,-1892.179,-872.8854)" gradientUnits="userSpaceOnUse" xlink:href="#linearGradient5048"/></defs><metadata id="metadata8370"/><g id="layer1"><g id="g13071" display="inline" transform="matrix(1.5760178e-2,0,0,1.4633417e-2,30.017662,25.20521)"><rect id="rect13073" width="1339.633" height="478.357" x="-1559.252" y="-150.697" fill="url(#linearGradient2095)" fill-opacity="1" fill-rule="nonzero" stroke="none" stroke-dasharray="none" stroke-dashoffset="0" stroke-linecap="round" stroke-linejoin="miter" stroke-miterlimit="4" stroke-opacity="1" stroke-width="1" marker-end="none" marker-mid="none" marker-start="none" display="inline" opacity=".402" overflow="visible" visibility="visible" style="marker:none"/><path id="path13075" fill="url(#radialGradient2097)" fill-opacity="1" fill-rule="nonzero" stroke="none" stroke-dasharray="none" stroke-dashoffset="0" stroke-linecap="round" stroke-linejoin="miter" stroke-miterlimit="4" stroke-opacity="1" stroke-width="1" marker-end="none" marker-mid="none" marker-start="none" d="M -219.61876,-150.68038 C -219.61876,-150.68038 -219.61876,327.65041 -219.61876,327.65041 C -76.744594,328.55086 125.78146,220.48075 125.78138,88.454235 C 125.78138,-43.572302 -33.655436,-150.68036 -219.61876,-150.68038 z" display="inline" opacity=".402" overflow="visible" visibility="visible" style="marker:none"/><path id="path13077" fill="url(#radialGradient2099)" fill-opacity="1" fill-rule="nonzero" stroke="none" stroke-dasharray="none" stroke-dashoffset="0" stroke-linecap="round" stroke-linejoin="miter" stroke-miterlimit="4" stroke-opacity="1" stroke-width="1" marker-end="none" marker-mid="none" marker-start="none" d="M -1559.2523,-150.68038 C -1559.2523,-150.68038 -1559.2523,327.65041 -1559.2523,327.65041 C -1702.1265,328.55086 -1904.6525,220.48075 -1904.6525,88.454235 C -1904.6525,-43.572302 -1745.2157,-150.68036 -1559.2523,-150.68038 z" display="inline" opacity=".402" overflow="visible" visibility="visible" style="marker:none"/></g><path id="path15" fill="#eeeeec" fill-opacity="1" stroke="url(#linearGradient17644)" stroke-dasharray="none" stroke-miterlimit="4" stroke-width="1.009" d="M 29.499569,7.4999986 C 29.493768,6.9999986 28.985772,6.4999986 28.499569,6.4999986 L 13.499569,6.4999986 L 11.749569,4.9999986 C 11.568702,4.8271416 11.255297,4.4999986 10.999569,4.4999986 L 3.4995717,4.4999986 C 2.9881197,4.4999986 2.4995717,5.0112016 2.4995717,5.4999986 L 2.4995707,6.4999986 L 2.4995707,27.5 L 29.499569,27.5 L 29.499569,7.4999986 z"/><path id="path7263" fill="none" fill-opacity="1" stroke="url(#linearGradient17646)" stroke-dasharray="none" stroke-miterlimit="4" stroke-opacity="1" stroke-width="1" d="M 28.499569,7.9999986 C 28.509409,7.4588206 28.498796,7.4684246 27.999544,7.4999986 L 13.099569,7.4999986 L 11.399569,5.9999986 C 10.919284,5.5891276 10.852271,5.4583316 9.9995704,5.4999986 L 3.9995714,5.4999986 C 3.5233397,5.4999986 3.4995717,5.5415426 3.4995717,5.9999986 L 3.4995707,26.5 L 28.499569,26.5 L 28.499569,7.9999986 z" opacity="1"/><path id="path40085" fill="url(#linearGradient10804)" fill-opacity="1" stroke="url(#linearGradient10806)" stroke-dasharray="none" stroke-miterlimit="4" stroke-opacity="1" stroke-width="1" d="M 30.745848,27.000062 C 30.724993,27.39038 30.396882,27.499936 29.99605,27.499936 L 2.0036267,27.499936 C 1.6027747,27.499936 1.2749637,27.39038 1.2538297,27.000062 L 0.50403273,9.9999368 C 0.47486973,9.6103276 0.60304573,9.5000626 1.0038967,9.5000626 L 30.99578,9.5000626 C 31.396631,9.5000626 31.526246,9.6103286 31.495645,9.9999368 L 30.745848,27.000062 L 30.745848,27.000062 z" display="inline" enable-background="new" opacity=".9"/><path id="path50" fill="url(#linearGradient10808)" fill-opacity="1" d="M 3.0000017,7.9999986 C 3.0018627,8.2916656 3.0046557,8.6258326 3.0065167,8.9999986 L 28.993485,8.9999986 C 28.995347,8.6258326 28.998139,8.2916656 29,7.9999986 L 3.0004947,7.9999986 L 3.0000017,7.9999986 z" display="inline" enable-background="new" opacity=".5"/><rect id="rect3521-5-0" width="30" height="1" x="1" y="10" fill="url(#linearGradient10810)" fill-opacity="1" stroke="none" display="inline" enable-background="new" rx="0" ry="0"/><path id="rect7600" fill="none" fill-opacity="1" stroke="url(#linearGradient8378)" stroke-linecap="round" stroke-linejoin="round" stroke-miterlimit="4" stroke-opacity="1" stroke-width="1" d="M 9.4999594,13.500041 L 22.499959,13.500041 L 22.499959,23.500041 L 9.4999594,23.500041 L 9.4999594,13.500041 z"/><rect id="rect1324" width="12" height="1" x="10" y="22" fill="url(#linearGradient8361)" fill-opacity="1" stroke="none" stroke-dasharray="none" stroke-dashoffset="0" stroke-linecap="round" stroke-linejoin="round" stroke-miterlimit="4" stroke-opacity="1" stroke-width="1" rx="0" ry="0"/><path id="path6991" fill="url(#linearGradient8363)" fill-opacity="1" fill-rule="evenodd" stroke="none" stroke-dasharray="none" stroke-dashoffset="0" stroke-linecap="round" stroke-linejoin="round" stroke-miterlimit="4" stroke-opacity="1" stroke-width="1" marker-end="none" marker-mid="none" marker-start="none" d="M 12.342271,20.001128 C 11.037848,20.06356 10,20.887331 10,21.886969 C 10,21.925573 10.004848,21.961969 10.007888,22 L 14.992113,22 C 14.995152,21.961969 15,21.925573 15,21.886969 C 15,20.846695 13.879058,20.001128 12.500001,20.001128 C 12.446129,20.001128 12.395296,19.99859 12.342271,20.001128 z" display="inline" overflow="visible" visibility="visible" style="marker:none"/><path id="path6000" fill="url(#linearGradient8359)" fill-opacity="1" fill-rule="evenodd" stroke="none" stroke-linecap="butt" stroke-linejoin="miter" stroke-opacity="1" stroke-width="1" d="M 17.974486,22 C 17.974486,22 17.707159,21.525529 17.707159,20.622243 C 17.714572,20.210177 21.453868,17.000041 21.463515,16.52188 L 20.594161,17.274821 L 19.985407,15.628874 L 22.037664,15.840212 L 23,14.883806 L 21.910076,15.679015 L 21.535232,15.59448 L 21.075331,13.927399 L 21.309243,15.552213 L 19.610563,15.467678 L 20.142183,16.812367 L 18.669492,15.362009 L 20.227242,17.380726 C 20.227284,17.830968 17.156972,20.579523 17.162195,20.105591 L 15.888811,18.408171 L 15.782488,16.113471 L 16.744823,15.840212 L 17.587902,13.774077 L 16.47654,15.683694 L 15.608914,15.644622 L 13.666736,14.014423 L 11,13 L 13.278248,14.244406 L 11.451979,14.405603 L 13.857819,14.405603 L 15.30132,15.840212 L 15.471438,18.318251 L 12.895483,15.840212 L 13.978736,17.134759 L 12.414315,18.231227 L 14.132771,17.274821 L 16.851145,20.67777 L 16.744823,22 L 17.974486,22 z"/></g></svg>