<svg xmlns="http://www.w3.org/2000/svg" xmlns:svg="http://www.w3.org/2000/svg" xmlns:xlink="http://www.w3.org/1999/xlink" id="svg8028" width="32" height="32"><defs id="defs8030"><linearGradient id="linearGradient4305-4-8" x1="71.999" x2="71.999" y1="14.258" y2="19.958" gradientTransform="matrix(1.0033404,0,0,1,-8.2374684,8)" gradientUnits="userSpaceOnUse"><stop id="stop4307-0-1" offset=".004" stop-color="#feebd6" stop-opacity="0"/><stop id="stop4309-8-0" offset=".461" stop-color="#f5f5f5" stop-opacity=".53"/><stop id="stop4311-0-3" offset="1" stop-color="#f5f5f5" stop-opacity="0"/></linearGradient><linearGradient id="linearGradient10810" x1="7.238" x2="132.86" y1="36.005" y2="35.858" gradientTransform="matrix(0.3102479,0,0,0.942809,-4.0456964,-26.278778)" gradientUnits="userSpaceOnUse" xlink:href="#linearGradient4305-4-8"/><linearGradient id="linearGradient10580" x1="71.999" x2="71.999" y1="14.258" y2="19.958" gradientTransform="matrix(1.0033404,0,0,1,-8.2374684,8)" gradientUnits="userSpaceOnUse"><stop id="stop10582" offset=".25" stop-color="#729fcf" stop-opacity="0"/><stop id="stop10584" offset="1" stop-color="#3465a4" stop-opacity="1"/></linearGradient><linearGradient id="linearGradient10808" x1="65.307" x2="65.307" y1="22" y2="28.004" gradientTransform="matrix(0.2402106,0,0,0.1666666,0.6255459,1.3337661)" gradientUnits="userSpaceOnUse" xlink:href="#linearGradient10580"/><linearGradient id="linearGradient10572"><stop id="stop10574" offset="0" stop-color="#3465a4" stop-opacity="1"/><stop id="stop10576" offset="1" stop-color="#204a87" stop-opacity="1"/></linearGradient><linearGradient id="linearGradient10806" x1="151" x2="151" y1="64" y2="83" gradientTransform="matrix(0.9997295,0,0,1.0000073,-133.95958,-58.000104)" gradientUnits="userSpaceOnUse" xlink:href="#linearGradient10572"/><linearGradient id="linearGradient10566"><stop id="stop10568" offset="0" stop-color="#8fb3d9" stop-opacity="1"/><stop id="stop10570" offset="1" stop-color="#3465a4" stop-opacity="1"/></linearGradient><linearGradient id="linearGradient10804" x1="28.273" x2="28.272" y1="325.342" y2="409.804" gradientTransform="matrix(0.2421199,0,0,0.2368403,9.1546041,-72.057578)" gradientUnits="userSpaceOnUse" xlink:href="#linearGradient10566"/><linearGradient id="linearGradient17648"><stop id="stop17650" offset="0" stop-color="#fff" stop-opacity=".6"/><stop id="stop17652" offset="1" stop-color="#fff" stop-opacity="0"/></linearGradient><linearGradient id="linearGradient17646" x1="24.001" x2="24" y1="10.239" y2="38.763" gradientTransform="matrix(0.6666651,0,0,0.6666659,-1.0003901,-4.8328639)" gradientUnits="userSpaceOnUse" xlink:href="#linearGradient17648"/><linearGradient id="linearGradient6293"><stop id="stop6295" offset="0" stop-color="#888a85" stop-opacity="1"/><stop id="stop6297" offset="1" stop-color="#555753" stop-opacity="0"/></linearGradient><linearGradient id="linearGradient17644" x1="24" x2="24.046" y1="8.765" y2="31.23" gradientTransform="matrix(0.6792506,0,0,0.6663604,-1.3024431,-4.8253809)" gradientUnits="userSpaceOnUse" xlink:href="#linearGradient6293"/><linearGradient id="linearGradient9347"><stop id="stop9349" offset="0" stop-color="#7a7a7a" stop-opacity="1"/><stop id="stop9351" offset=".198" stop-color="#ebebeb" stop-opacity="1"/><stop id="stop9353" offset=".599" stop-color="#b9b9b9" stop-opacity="1"/><stop id="stop9355" offset="1" stop-color="#878787" stop-opacity="1"/></linearGradient><linearGradient id="linearGradient8026" x1="23.1" x2="23.144" y1="38.297" y2="46.038" gradientTransform="matrix(0.5065613,0,0,0.4581256,43.136236,11.218305)" gradientUnits="userSpaceOnUse" xlink:href="#linearGradient9347"/><linearGradient id="linearGradient178"><stop id="stop179" offset="0" stop-color="#fff" stop-opacity="0"/><stop id="stop180" offset=".108" stop-color="#d9d9d9" stop-opacity="1"/><stop id="stop181" offset=".921" stop-color="#d9d9d9" stop-opacity="1"/><stop id="stop182" offset="1" stop-color="#fff" stop-opacity="0"/></linearGradient><linearGradient id="linearGradient8024" x1="1.642" x2="15.343" y1="117.827" y2="117.827" gradientTransform="matrix(2.1370913,0,0,9.1235758e-2,36.727542,19.750004)" gradientUnits="userSpaceOnUse" xlink:href="#linearGradient178"/><linearGradient id="linearGradient8022" x1=".612" x2="5.086" y1="372.578" y2="372.578" gradientTransform="matrix(6.706103,0,0,0.2235361,35.772302,-45.865211)" gradientUnits="userSpaceOnUse" xlink:href="#linearGradient272"/><linearGradient id="linearGradient272"><stop id="stop273" offset="0" stop-color="#474747" stop-opacity="0"/><stop id="stop275" offset=".1" stop-color="#474747" stop-opacity="1"/><stop id="stop276" offset=".9" stop-color="#474747" stop-opacity="1"/><stop id="stop274" offset="1" stop-color="#474747" stop-opacity="0"/></linearGradient><linearGradient id="linearGradient8020" x1=".612" x2="5.086" y1="372.578" y2="372.578" gradientTransform="matrix(6.7061034,0,0,0.2235366,35.77231,-51.784906)" gradientUnits="userSpaceOnUse" xlink:href="#linearGradient272"/><linearGradient id="linearGradient6704"><stop id="stop6706" offset="0" stop-color="#000" stop-opacity="1"/><stop id="stop6708" offset="1" stop-color="#000" stop-opacity="0"/></linearGradient><radialGradient id="radialGradient8018" cx="1120.375" cy="394.781" r="20.625" fx="1120.375" fy="394.781" gradientTransform="matrix(1,0,0,0.1166667,0,348.72344)" gradientUnits="userSpaceOnUse" xlink:href="#linearGradient6704"/></defs><metadata id="metadata8033"/><g id="layer1"><rect id="rect8955" width="3" height="3" x="14.5" y="23.5" fill="#d9d9d9" fill-opacity="1" stroke="#707070" stroke-dasharray="none" stroke-miterlimit="4" stroke-opacity="1" stroke-width="1"/><path id="path6774" fill="url(#radialGradient8018)" fill-opacity="1" fill-rule="evenodd" stroke="none" d="M 1141,394.78125 A 20.625,2.40625 0 1 1 1099.75,394.78125 A 20.625,2.40625 0 1 1 1141,394.78125 z" display="inline" enable-background="new" opacity=".4" transform="matrix(0.7272727,0,0,0.8701298,-798.81815,-314.29268)"/><g id="g7753" display="inline" transform="translate(-38.8771,-2.000475)"><rect id="rect8601" width="30" height="1" x="39.877" y="31" fill="url(#linearGradient8020)" fill-opacity="1" fill-rule="nonzero" stroke="none" stroke-width="1" display="block" opacity=".65" overflow="visible" visibility="visible" style="marker:none"/><rect id="rect8603" width="30" height="1" x="39.877" y="29" fill="url(#linearGradient8022)" fill-opacity="1" fill-rule="nonzero" stroke="none" stroke-width="1" display="block" opacity=".65" overflow="visible" visibility="visible" style="marker:none"/><rect id="rect8605" width="28.5" height="1" x="40.627" y="30" fill="url(#linearGradient8024)" fill-opacity="1" fill-rule="nonzero" stroke="none" stroke-width="1" display="block" overflow="visible" visibility="visible" style="marker:none"/><path id="path8607" fill="url(#linearGradient8026)" fill-opacity="1" fill-rule="nonzero" stroke="#555753" stroke-dashoffset="0" stroke-linecap="butt" stroke-linejoin="miter" stroke-miterlimit="4" stroke-opacity="1" stroke-width="1" d="M 53.465041,28.556339 L 51.22524,28.556339 C 50.821825,28.556339 50.501159,28.837025 50.501159,29.190142 L 50.501159,31.866 C 50.501159,32.219113 50.821825,32.5 51.22524,32.5 L 58.782242,32.5 C 59.185653,32.5 59.506324,32.219113 59.506324,31.866 L 59.506324,29.190142 C 59.506324,28.837025 59.185653,28.556339 58.782242,28.556339 L 56.827996,28.556339 L 53.465041,28.556339 z" display="block" overflow="visible" visibility="visible" style="marker:none"/><g id="g8613" fill="#fff" fill-opacity=".72" transform="matrix(0.544365,0,0,0.9411763,42.076688,-8.6470511)"><rect id="rect8615" width="10" height="1" x="20" y="40" fill-rule="nonzero" stroke="none" stroke-width="1.14" display="block" overflow="visible" rx=".919" ry=".531" visibility="visible" style="marker:none"/><path id="path8617" fill-rule="nonzero" stroke="none" stroke-width="1.14" d="M 19,40.625 A 0.53125,0.53125 0 1 1 17.9375,40.625 A 0.53125,0.53125 0 1 1 19,40.625 z" display="block" overflow="visible" transform="matrix(1.7289449,0,0,1,-14.326309,-9.375e-2)" visibility="visible" style="marker:none"/></g></g><path id="path15" fill="#eeeeec" fill-opacity="1" stroke="url(#linearGradient17644)" stroke-dasharray="none" stroke-miterlimit="4" stroke-width="1.009" d="M 29.499567,4.5004318 C 29.493766,4.000432 28.98577,3.5004321 28.499567,3.5004321 L 13.499567,3.5004321 L 11.749567,2.0004321 C 11.5687,1.8275751 11.255295,1.5004321 10.999567,1.5004321 L 3.4995701,1.5004321 C 2.9881181,1.5004321 2.4995701,2.0116351 2.4995701,2.5004321 L 2.4995691,3.5004321 L 2.4995691,24.500433 L 29.499567,24.500433 L 29.499567,4.5004318 z"/><path id="path7263" fill="none" fill-opacity="1" stroke="url(#linearGradient17646)" stroke-dasharray="none" stroke-miterlimit="4" stroke-opacity="1" stroke-width="1" d="M 28.499567,5.0004318 C 28.509407,4.4592542 28.498794,4.4688583 27.999542,4.5004318 L 13.099567,4.5004318 L 11.399567,3.0004321 C 10.919282,2.5895611 10.852269,2.4587651 9.9995691,2.5004321 L 3.9995701,2.5004321 C 3.5233381,2.5004321 3.4995701,2.5419761 3.4995701,3.0004321 L 3.4995691,23.500433 L 28.499567,23.500433 L 28.499567,5.0004318 z" opacity="1"/><path id="path40085" fill="url(#linearGradient10804)" fill-opacity="1" stroke="url(#linearGradient10806)" stroke-dasharray="none" stroke-miterlimit="4" stroke-opacity="1" stroke-width="1" d="M 30.745846,24.000495 C 30.724991,24.390813 30.39688,24.500369 29.996048,24.500369 L 2.0036251,24.500369 C 1.6027731,24.500369 1.2749621,24.390813 1.2538281,24.000495 L 0.50403088,7.0003703 C 0.47486788,6.6107613 0.60304388,6.5004963 1.0038951,6.5004963 L 30.995778,6.5004963 C 31.396629,6.5004963 31.526244,6.6107623 31.495643,7.0003703 L 30.745846,24.000495 L 30.745846,24.000495 z" display="inline" enable-background="new" opacity=".9"/><path id="path50" fill="url(#linearGradient10808)" fill-opacity="1" d="M 3.0000001,5.0004324 C 3.0018611,5.2920991 3.0046541,5.6262664 3.0065151,6.0004324 L 28.993483,6.0004324 C 28.995345,5.6262664 28.998137,5.2920991 28.999998,5.0004324 L 3.0004931,5.0004324 L 3.0000001,5.0004324 z" display="inline" enable-background="new" opacity=".5"/><rect id="rect3521-5-0" width="30" height="1" x="1" y="7" fill="url(#linearGradient10810)" fill-opacity="1" stroke="none" display="inline" enable-background="new" rx="0" ry="0"/></g></svg>