<svg xmlns="http://www.w3.org/2000/svg" xmlns:svg="http://www.w3.org/2000/svg" xmlns:xlink="http://www.w3.org/1999/xlink" id="svg7244" width="32" height="32"><defs id="defs7246"><linearGradient id="linearGradient7782"><stop id="stop7784" offset="0" stop-color="#fff" stop-opacity="1"/><stop id="stop7786" offset="1" stop-color="#fff" stop-opacity="0"/></linearGradient><linearGradient id="linearGradient7788" x1="16" x2="16.063" y1="14.978" y2="28" gradientTransform="translate(7.28145e-7,-1.0000002)" gradientUnits="userSpaceOnUse" xlink:href="#linearGradient7782"/><linearGradient id="linearGradient4305-4-8" x1="71.999" x2="71.999" y1="14.258" y2="19.958" gradientTransform="matrix(1.0033404,0,0,1,-8.2374684,8)" gradientUnits="userSpaceOnUse"><stop id="stop4307-0-1" offset=".004" stop-color="#feebd6" stop-opacity="0"/><stop id="stop4309-8-0" offset=".461" stop-color="#f5f5f5" stop-opacity=".53"/><stop id="stop4311-0-3" offset="1" stop-color="#f5f5f5" stop-opacity="0"/></linearGradient><linearGradient id="linearGradient10810" x1="7.238" x2="132.86" y1="36.005" y2="35.858" gradientTransform="matrix(0.3102479,0,0,0.942809,-4.0456943,-23.279211)" gradientUnits="userSpaceOnUse" xlink:href="#linearGradient4305-4-8"/><linearGradient id="linearGradient10580" x1="71.999" x2="71.999" y1="14.258" y2="19.958" gradientTransform="matrix(1.0033404,0,0,1,-8.2374684,8)" gradientUnits="userSpaceOnUse"><stop id="stop10582" offset=".25" stop-color="#729fcf" stop-opacity="0"/><stop id="stop10584" offset="1" stop-color="#3465a4" stop-opacity="1"/></linearGradient><linearGradient id="linearGradient10808" x1="65.307" x2="65.307" y1="22" y2="28.004" gradientTransform="matrix(0.2402106,0,0,0.1666666,0.6255478,4.3333322)" gradientUnits="userSpaceOnUse" xlink:href="#linearGradient10580"/><linearGradient id="linearGradient10572"><stop id="stop10574" offset="0" stop-color="#3465a4" stop-opacity="1"/><stop id="stop10576" offset="1" stop-color="#204a87" stop-opacity="1"/></linearGradient><linearGradient id="linearGradient10806" x1="151" x2="151" y1="64" y2="83" gradientTransform="matrix(0.9997295,0,0,1.0000073,-133.95958,-55.000537)" gradientUnits="userSpaceOnUse" xlink:href="#linearGradient10572"/><linearGradient id="linearGradient10566"><stop id="stop10568" offset="0" stop-color="#8fb3d9" stop-opacity="1"/><stop id="stop10570" offset="1" stop-color="#3465a4" stop-opacity="1"/></linearGradient><linearGradient id="linearGradient10804" x1="28.273" x2="28.272" y1="325.342" y2="409.804" gradientTransform="matrix(0.2421199,0,0,0.2368403,9.1546058,-69.058011)" gradientUnits="userSpaceOnUse" xlink:href="#linearGradient10566"/><linearGradient id="linearGradient17648"><stop id="stop17650" offset="0" stop-color="#fff" stop-opacity=".6"/><stop id="stop17652" offset="1" stop-color="#fff" stop-opacity="0"/></linearGradient><linearGradient id="linearGradient17646" x1="24.001" x2="24" y1="10.239" y2="38.763" gradientTransform="matrix(0.6666651,0,0,0.6666659,-1.000388,-1.8332982)" gradientUnits="userSpaceOnUse" xlink:href="#linearGradient17648"/><linearGradient id="linearGradient6293"><stop id="stop6295" offset="0" stop-color="#888a85" stop-opacity="1"/><stop id="stop6297" offset="1" stop-color="#555753" stop-opacity="0"/></linearGradient><linearGradient id="linearGradient17644" x1="24" x2="24.046" y1="8.765" y2="31.23" gradientTransform="matrix(0.6792506,0,0,0.6663604,-1.302441,-1.8258152)" gradientUnits="userSpaceOnUse" xlink:href="#linearGradient6293"/><radialGradient id="radialGradient2099" cx="605.714" cy="486.648" r="117.143" fx="605.714" fy="486.648" gradientTransform="matrix(-2.774389,0,0,1.969706,112.7623,-872.8854)" gradientUnits="userSpaceOnUse" xlink:href="#linearGradient5060"/><linearGradient id="linearGradient5060"><stop id="stop5062" offset="0" stop-color="#000" stop-opacity="1"/><stop id="stop5064" offset="1" stop-color="#000" stop-opacity="0"/></linearGradient><radialGradient id="radialGradient2097" cx="605.714" cy="486.648" r="117.143" fx="605.714" fy="486.648" gradientTransform="matrix(2.774389,0,0,1.969706,-1891.633,-872.8854)" gradientUnits="userSpaceOnUse" xlink:href="#linearGradient5060"/><linearGradient id="linearGradient5048"><stop id="stop5050" offset="0" stop-color="#000" stop-opacity="0"/><stop id="stop5056" offset=".5" stop-color="#000" stop-opacity="1"/><stop id="stop5052" offset="1" stop-color="#000" stop-opacity="0"/></linearGradient><linearGradient id="linearGradient2095" x1="302.857" x2="302.857" y1="366.648" y2="609.505" gradientTransform="matrix(2.774389,0,0,1.969706,-1892.179,-872.8854)" gradientUnits="userSpaceOnUse" xlink:href="#linearGradient5048"/></defs><metadata id="metadata7249"/><g id="layer1"><g id="g13071" display="inline" transform="matrix(1.5760178e-2,0,0,1.4633417e-2,30.017662,25.20521)"><rect id="rect13073" width="1339.633" height="478.357" x="-1559.252" y="-150.697" fill="url(#linearGradient2095)" fill-opacity="1" fill-rule="nonzero" stroke="none" stroke-dasharray="none" stroke-dashoffset="0" stroke-linecap="round" stroke-linejoin="miter" stroke-miterlimit="4" stroke-opacity="1" stroke-width="1" marker-end="none" marker-mid="none" marker-start="none" display="inline" opacity=".402" overflow="visible" visibility="visible" style="marker:none"/><path id="path13075" fill="url(#radialGradient2097)" fill-opacity="1" fill-rule="nonzero" stroke="none" stroke-dasharray="none" stroke-dashoffset="0" stroke-linecap="round" stroke-linejoin="miter" stroke-miterlimit="4" stroke-opacity="1" stroke-width="1" marker-end="none" marker-mid="none" marker-start="none" d="M -219.61876,-150.68038 C -219.61876,-150.68038 -219.61876,327.65041 -219.61876,327.65041 C -76.744594,328.55086 125.78146,220.48075 125.78138,88.454235 C 125.78138,-43.572302 -33.655436,-150.68036 -219.61876,-150.68038 z" display="inline" opacity=".402" overflow="visible" visibility="visible" style="marker:none"/><path id="path13077" fill="url(#radialGradient2099)" fill-opacity="1" fill-rule="nonzero" stroke="none" stroke-dasharray="none" stroke-dashoffset="0" stroke-linecap="round" stroke-linejoin="miter" stroke-miterlimit="4" stroke-opacity="1" stroke-width="1" marker-end="none" marker-mid="none" marker-start="none" d="M -1559.2523,-150.68038 C -1559.2523,-150.68038 -1559.2523,327.65041 -1559.2523,327.65041 C -1702.1265,328.55086 -1904.6525,220.48075 -1904.6525,88.454235 C -1904.6525,-43.572302 -1745.2157,-150.68036 -1559.2523,-150.68038 z" display="inline" opacity=".402" overflow="visible" visibility="visible" style="marker:none"/></g><path id="path15" fill="#eeeeec" fill-opacity="1" stroke="url(#linearGradient17644)" stroke-dasharray="none" stroke-miterlimit="4" stroke-width="1.009" d="M 29.499569,7.4999979 C 29.493768,6.9999981 28.985772,6.4999982 28.499569,6.4999982 L 13.499569,6.4999982 L 11.749569,4.9999982 C 11.568702,4.8271412 11.255297,4.4999983 10.999569,4.4999983 L 3.4995718,4.4999983 C 2.9881198,4.4999983 2.4995718,5.0112012 2.4995718,5.4999982 L 2.4995708,6.4999982 L 2.4995708,27.5 L 29.499569,27.5 L 29.499569,7.4999979 z"/><path id="path7263" fill="none" fill-opacity="1" stroke="url(#linearGradient17646)" stroke-dasharray="none" stroke-miterlimit="4" stroke-opacity="1" stroke-width="1" d="M 28.499569,7.9999979 C 28.509409,7.4588203 28.498796,7.4684244 27.999544,7.4999979 L 13.099569,7.4999979 L 11.399569,5.9999982 C 10.919284,5.5891272 10.852271,5.4583312 9.9995708,5.4999982 L 3.9995718,5.4999982 C 3.5233398,5.4999982 3.4995718,5.5415422 3.4995718,5.9999982 L 3.4995708,26.5 L 28.499569,26.5 L 28.499569,7.9999979 z" opacity="1"/><path id="path40085" fill="url(#linearGradient10804)" fill-opacity="1" stroke="url(#linearGradient10806)" stroke-dasharray="none" stroke-miterlimit="4" stroke-opacity="1" stroke-width="1" d="M 30.745848,27.000062 C 30.724993,27.39038 30.396882,27.499936 29.99605,27.499936 L 2.0036269,27.499936 C 1.6027749,27.499936 1.2749639,27.39038 1.2538299,27.000062 L 0.50403289,9.9999364 C 0.47486989,9.6103274 0.60304589,9.5000624 1.0038969,9.5000624 L 30.99578,9.5000624 C 31.396631,9.5000624 31.526246,9.6103284 31.495645,9.9999364 L 30.745848,27.000062 L 30.745848,27.000062 z" display="inline" enable-background="new" opacity=".9"/><path id="path50" fill="url(#linearGradient10808)" fill-opacity="1" d="M 3.0000018,7.9999985 C 3.0018628,8.2916652 3.0046558,8.6258325 3.0065168,8.9999985 L 28.993485,8.9999985 C 28.995347,8.6258325 28.998139,8.2916652 29,7.9999985 L 3.0004948,7.9999985 L 3.0000018,7.9999985 z" display="inline" enable-background="new" opacity=".5"/><rect id="rect3521-5-0" width="30" height="1" x="1" y="10" fill="url(#linearGradient10810)" fill-opacity="1" stroke="none" display="inline" enable-background="new" rx="0" ry="0"/><path id="path892" fill="url(#linearGradient7788)" fill-opacity="1" fill-rule="evenodd" stroke-width="4" d="M 11,19.005 L 11,24 L 15,24 L 15,20 L 18,20 L 18,24 L 21,24 L 21,19.005 L 23,19.005 L 16,13 L 9.0000008,19.005 L 11,19.005 z" display="inline" opacity="1"/></g></svg>