<svg xmlns="http://www.w3.org/2000/svg" xmlns:svg="http://www.w3.org/2000/svg" xmlns:xlink="http://www.w3.org/1999/xlink" id="svg7826" width="48" height="48"><defs id="defs7828"><linearGradient id="linearGradient7808" x1="7.238" x2="132.86" y1="36.005" y2="35.858" gradientTransform="matrix(0.3102479,0,0,0.942809,7.9543064,-7.2792122)" gradientUnits="userSpaceOnUse" xlink:href="#linearGradient4305-4-8"/><linearGradient id="linearGradient7810" x1="65.307" x2="65.307" y1="22" y2="28.004" gradientTransform="matrix(0.2402106,0,0,0.1666666,12.625548,20.333332)" gradientUnits="userSpaceOnUse" xlink:href="#linearGradient10580"/><linearGradient id="linearGradient7814" x1="151" x2="151" y1="64" y2="83" gradientTransform="matrix(0.9997295,0,0,1.0000073,-121.95958,-39.000537)" gradientUnits="userSpaceOnUse" xlink:href="#linearGradient10572"/><linearGradient id="linearGradient7812" x1="28.273" x2="28.272" y1="325.342" y2="409.804" gradientTransform="matrix(0.2421199,0,0,0.2368403,21.154605,-53.058011)" gradientUnits="userSpaceOnUse" xlink:href="#linearGradient10566"/><linearGradient id="linearGradient7816" x1="24.001" x2="24" y1="10.239" y2="38.763" gradientTransform="matrix(0.6666651,0,0,0.6666659,10.999612,14.166703)" gradientUnits="userSpaceOnUse" xlink:href="#linearGradient17648"/><linearGradient id="linearGradient7818" x1="24" x2="24.046" y1="8.765" y2="31.23" gradientTransform="matrix(0.6792506,0,0,0.6663604,10.697559,14.174186)" gradientUnits="userSpaceOnUse" xlink:href="#linearGradient6293"/><linearGradient id="linearGradient4305-4-8" x1="71.999" x2="71.999" y1="14.258" y2="19.958" gradientTransform="matrix(1.0033404,0,0,1,-8.2374684,8)" gradientUnits="userSpaceOnUse"><stop id="stop4307-0-1" offset=".004" stop-color="#feebd6" stop-opacity="0"/><stop id="stop4309-8-0" offset=".461" stop-color="#f5f5f5" stop-opacity=".53"/><stop id="stop4311-0-3" offset="1" stop-color="#f5f5f5" stop-opacity="0"/></linearGradient><linearGradient id="linearGradient7802" x1="7.238" x2="132.86" y1="36.005" y2="35.858" gradientTransform="matrix(0.3102479,0,0,0.942809,-4.5693572e-2,-23.279212)" gradientUnits="userSpaceOnUse" xlink:href="#linearGradient4305-4-8"/><linearGradient id="linearGradient10580" x1="71.999" x2="71.999" y1="14.258" y2="19.958" gradientTransform="matrix(1.0033404,0,0,1,-8.2374684,8)" gradientUnits="userSpaceOnUse"><stop id="stop10582" offset=".25" stop-color="#729fcf" stop-opacity="0"/><stop id="stop10584" offset="1" stop-color="#3465a4" stop-opacity="1"/></linearGradient><linearGradient id="linearGradient7800" x1="65.307" x2="65.307" y1="22" y2="28.004" gradientTransform="matrix(0.2402106,0,0,0.1666666,4.6255494,4.3333318)" gradientUnits="userSpaceOnUse" xlink:href="#linearGradient10580"/><linearGradient id="linearGradient10572"><stop id="stop10574" offset="0" stop-color="#3465a4" stop-opacity="1"/><stop id="stop10576" offset="1" stop-color="#204a87" stop-opacity="1"/></linearGradient><linearGradient id="linearGradient7798" x1="151" x2="151" y1="64" y2="83" gradientTransform="matrix(0.9997295,0,0,1.0000073,-129.95958,-55.000537)" gradientUnits="userSpaceOnUse" xlink:href="#linearGradient10572"/><linearGradient id="linearGradient10566"><stop id="stop10568" offset="0" stop-color="#8fb3d9" stop-opacity="1"/><stop id="stop10570" offset="1" stop-color="#3465a4" stop-opacity="1"/></linearGradient><linearGradient id="linearGradient7796" x1="28.273" x2="28.272" y1="325.342" y2="409.804" gradientTransform="matrix(0.2421199,0,0,0.2368403,13.154605,-69.058011)" gradientUnits="userSpaceOnUse" xlink:href="#linearGradient10566"/><linearGradient id="linearGradient17648"><stop id="stop17650" offset="0" stop-color="#fff" stop-opacity=".6"/><stop id="stop17652" offset="1" stop-color="#fff" stop-opacity="0"/></linearGradient><linearGradient id="linearGradient7794" x1="24.001" x2="24" y1="10.239" y2="38.763" gradientTransform="matrix(0.6666651,0,0,0.6666659,2.9996134,-1.8332982)" gradientUnits="userSpaceOnUse" xlink:href="#linearGradient17648"/><linearGradient id="linearGradient6293"><stop id="stop6295" offset="0" stop-color="#888a85" stop-opacity="1"/><stop id="stop6297" offset="1" stop-color="#555753" stop-opacity="0"/></linearGradient><linearGradient id="linearGradient7792" x1="24" x2="24.046" y1="8.765" y2="31.23" gradientTransform="matrix(0.6792506,0,0,0.6663604,2.6975604,-1.8258152)" gradientUnits="userSpaceOnUse" xlink:href="#linearGradient6293"/><radialGradient id="radialGradient7790" cx="605.714" cy="486.648" r="117.143" fx="605.714" fy="486.648" gradientTransform="matrix(-2.774389,0,0,1.969706,112.7623,-872.8854)" gradientUnits="userSpaceOnUse" xlink:href="#linearGradient5060"/><radialGradient id="radialGradient7788" cx="605.714" cy="486.648" r="117.143" fx="605.714" fy="486.648" gradientTransform="matrix(2.774389,0,0,1.969706,-1891.633,-872.8854)" gradientUnits="userSpaceOnUse" xlink:href="#linearGradient5060"/><linearGradient id="linearGradient7786" x1="302.857" x2="302.857" y1="366.648" y2="609.505" gradientTransform="matrix(2.774389,0,0,1.969706,-1892.179,-872.8854)" gradientUnits="userSpaceOnUse" xlink:href="#linearGradient5048"/><radialGradient id="radialGradient7824" cx="605.714" cy="486.648" r="117.143" fx="605.714" fy="486.648" gradientTransform="matrix(-2.774389,0,0,1.969706,112.7623,-872.8854)" gradientUnits="userSpaceOnUse" xlink:href="#linearGradient5060"/><linearGradient id="linearGradient5060"><stop id="stop5062" offset="0" stop-color="#000" stop-opacity="1"/><stop id="stop5064" offset="1" stop-color="#000" stop-opacity="0"/></linearGradient><radialGradient id="radialGradient7822" cx="605.714" cy="486.648" r="117.143" fx="605.714" fy="486.648" gradientTransform="matrix(2.774389,0,0,1.969706,-1891.633,-872.8854)" gradientUnits="userSpaceOnUse" xlink:href="#linearGradient5060"/><linearGradient id="linearGradient5048"><stop id="stop5050" offset="0" stop-color="#000" stop-opacity="0"/><stop id="stop5056" offset=".5" stop-color="#000" stop-opacity="1"/><stop id="stop5052" offset="1" stop-color="#000" stop-opacity="0"/></linearGradient><linearGradient id="linearGradient7820" x1="302.857" x2="302.857" y1="366.648" y2="609.505" gradientTransform="matrix(2.774389,0,0,1.969706,-1892.179,-872.8854)" gradientUnits="userSpaceOnUse" xlink:href="#linearGradient5048"/></defs><metadata id="metadata7831"/><g id="layer1"><g id="g13071" display="inline" transform="matrix(1.5760178e-2,0,0,1.4633417e-2,42.017662,41.20521)"><rect id="rect13073" width="1339.633" height="478.357" x="-1559.252" y="-150.697" fill="url(#linearGradient7820)" fill-opacity="1" fill-rule="nonzero" stroke="none" stroke-dasharray="none" stroke-dashoffset="0" stroke-linecap="round" stroke-linejoin="miter" stroke-miterlimit="4" stroke-opacity="1" stroke-width="1" marker-end="none" marker-mid="none" marker-start="none" display="inline" opacity=".402" overflow="visible" visibility="visible" style="marker:none"/><path id="path13075" fill="url(#radialGradient7822)" fill-opacity="1" fill-rule="nonzero" stroke="none" stroke-dasharray="none" stroke-dashoffset="0" stroke-linecap="round" stroke-linejoin="miter" stroke-miterlimit="4" stroke-opacity="1" stroke-width="1" marker-end="none" marker-mid="none" marker-start="none" d="M -219.61876,-150.68038 C -219.61876,-150.68038 -219.61876,327.65041 -219.61876,327.65041 C -76.744594,328.55086 125.78146,220.48075 125.78138,88.454235 C 125.78138,-43.572302 -33.655436,-150.68036 -219.61876,-150.68038 z" display="inline" opacity=".402" overflow="visible" visibility="visible" style="marker:none"/><path id="path13077" fill="url(#radialGradient7824)" fill-opacity="1" fill-rule="nonzero" stroke="none" stroke-dasharray="none" stroke-dashoffset="0" stroke-linecap="round" stroke-linejoin="miter" stroke-miterlimit="4" stroke-opacity="1" stroke-width="1" marker-end="none" marker-mid="none" marker-start="none" d="M -1559.2523,-150.68038 C -1559.2523,-150.68038 -1559.2523,327.65041 -1559.2523,327.65041 C -1702.1265,328.55086 -1904.6525,220.48075 -1904.6525,88.454235 C -1904.6525,-43.572302 -1745.2157,-150.68036 -1559.2523,-150.68038 z" display="inline" opacity=".402" overflow="visible" visibility="visible" style="marker:none"/></g><g id="g7768" display="inline" transform="matrix(1.5760178e-2,0,0,1.4633417e-2,34.017662,25.205209)"><rect id="rect7770" width="1339.633" height="478.357" x="-1559.252" y="-150.697" fill="url(#linearGradient7786)" fill-opacity="1" fill-rule="nonzero" stroke="none" stroke-dasharray="none" stroke-dashoffset="0" stroke-linecap="round" stroke-linejoin="miter" stroke-miterlimit="4" stroke-opacity="1" stroke-width="1" marker-end="none" marker-mid="none" marker-start="none" display="inline" opacity=".402" overflow="visible" visibility="visible" style="marker:none"/><path id="path7772" fill="url(#radialGradient7788)" fill-opacity="1" fill-rule="nonzero" stroke="none" stroke-dasharray="none" stroke-dashoffset="0" stroke-linecap="round" stroke-linejoin="miter" stroke-miterlimit="4" stroke-opacity="1" stroke-width="1" marker-end="none" marker-mid="none" marker-start="none" d="M -219.61876,-150.68038 C -219.61876,-150.68038 -219.61876,327.65041 -219.61876,327.65041 C -76.744594,328.55086 125.78146,220.48075 125.78138,88.454235 C 125.78138,-43.572302 -33.655436,-150.68036 -219.61876,-150.68038 z" display="inline" opacity=".402" overflow="visible" visibility="visible" style="marker:none"/><path id="path7774" fill="url(#radialGradient7790)" fill-opacity="1" fill-rule="nonzero" stroke="none" stroke-dasharray="none" stroke-dashoffset="0" stroke-linecap="round" stroke-linejoin="miter" stroke-miterlimit="4" stroke-opacity="1" stroke-width="1" marker-end="none" marker-mid="none" marker-start="none" d="M -1559.2523,-150.68038 C -1559.2523,-150.68038 -1559.2523,327.65041 -1559.2523,327.65041 C -1702.1265,328.55086 -1904.6525,220.48075 -1904.6525,88.454235 C -1904.6525,-43.572302 -1745.2157,-150.68036 -1559.2523,-150.68038 z" display="inline" opacity=".402" overflow="visible" visibility="visible" style="marker:none"/></g><path id="path7776" fill="#eeeeec" fill-opacity="1" stroke="url(#linearGradient7792)" stroke-dasharray="none" stroke-miterlimit="4" stroke-width="1.009" d="M 33.499569,7.4999978 C 33.493768,6.9999978 32.985772,6.4999978 32.499569,6.4999978 L 17.499569,6.4999978 L 15.749569,4.9999978 C 15.568702,4.8271408 15.255297,4.4999978 14.999569,4.4999978 L 7.4995724,4.4999978 C 6.9881204,4.4999978 6.4995724,5.0112008 6.4995724,5.4999978 L 6.4995714,6.4999978 L 6.4995714,27.499999 L 33.499569,27.499999 L 33.499569,7.4999978 z"/><path id="path7778" fill="none" fill-opacity="1" stroke="url(#linearGradient7794)" stroke-dasharray="none" stroke-miterlimit="4" stroke-opacity="1" stroke-width="1" d="M 32.499569,7.9999978 C 32.509409,7.4588198 32.498796,7.4684238 31.999544,7.4999978 L 17.099569,7.4999978 L 15.399569,5.9999978 C 14.919284,5.5891268 14.852271,5.4583308 13.99957,5.4999978 L 7.9995724,5.4999978 C 7.5233404,5.4999978 7.4995724,5.5415418 7.4995724,5.9999978 L 7.4995714,26.499999 L 32.499569,26.499999 L 32.499569,7.9999978 z" opacity="1"/><path id="path7780" fill="url(#linearGradient7796)" fill-opacity="1" stroke="url(#linearGradient7798)" stroke-dasharray="none" stroke-miterlimit="4" stroke-opacity="1" stroke-width="1" d="M 34.745848,27.000061 C 34.724993,27.390379 34.396882,27.499935 33.99605,27.499935 L 6.0036274,27.499935 C 5.6027764,27.499935 5.2749654,27.390379 5.2538314,27.000061 L 4.5040344,9.9999358 C 4.4748714,9.6103268 4.6030474,9.5000618 5.0038984,9.5000618 L 34.99578,9.5000618 C 35.396631,9.5000618 35.526246,9.6103278 35.495645,9.9999358 L 34.745848,27.000061 L 34.745848,27.000061 z" display="inline" enable-background="new" opacity=".9"/><path id="path7782" fill="url(#linearGradient7800)" fill-opacity="1" d="M 7.0000024,7.9999978 C 7.0018634,8.2916648 7.0046564,8.6258318 7.0065174,8.9999978 L 32.993485,8.9999978 C 32.995347,8.6258318 32.998139,8.2916648 33,7.9999978 L 7.0004954,7.9999978 L 7.0000024,7.9999978 z" display="inline" enable-background="new" opacity=".5"/><rect id="rect7784" width="30" height="1" x="5" y="10" fill="url(#linearGradient7802)" fill-opacity="1" stroke="none" display="inline" enable-background="new" rx="0" ry="0"/><path id="path15" fill="#eeeeec" fill-opacity="1" stroke="url(#linearGradient7818)" stroke-dasharray="none" stroke-miterlimit="4" stroke-width="1.009" d="M 41.499569,23.499998 C 41.493768,22.999998 40.985772,22.499998 40.499569,22.499998 L 25.499569,22.499998 L 23.749569,20.999998 C 23.568702,20.827141 23.255297,20.499998 22.999569,20.499998 L 15.499571,20.499998 C 14.988119,20.499998 14.499571,21.011201 14.499571,21.499998 L 14.49957,22.499998 L 14.49957,43.5 L 41.499569,43.5 L 41.499569,23.499998 z"/><path id="path7263" fill="none" fill-opacity="1" stroke="url(#linearGradient7816)" stroke-dasharray="none" stroke-miterlimit="4" stroke-opacity="1" stroke-width="1" d="M 40.499569,23.999998 C 40.509409,23.45882 40.498796,23.468424 39.999544,23.499998 L 25.099569,23.499998 L 23.399569,21.999998 C 22.919284,21.589127 22.852271,21.458331 21.99957,21.499998 L 15.999571,21.499998 C 15.523339,21.499998 15.499571,21.541542 15.499571,21.999998 L 15.49957,42.5 L 40.499569,42.5 L 40.499569,23.999998 z" opacity="1"/><path id="path40085" fill="url(#linearGradient7812)" fill-opacity="1" stroke="url(#linearGradient7814)" stroke-dasharray="none" stroke-miterlimit="4" stroke-opacity="1" stroke-width="1" d="M 42.745848,43.000062 C 42.724993,43.39038 42.396882,43.499936 41.99605,43.499936 L 14.003626,43.499936 C 13.602775,43.499936 13.274964,43.39038 13.25383,43.000062 L 12.504033,25.999936 C 12.47487,25.610327 12.603046,25.500062 13.003897,25.500062 L 42.99578,25.500062 C 43.396631,25.500062 43.526246,25.610328 43.495645,25.999936 L 42.745848,43.000062 L 42.745848,43.000062 z" display="inline" enable-background="new" opacity=".9"/><path id="path50" fill="url(#linearGradient7810)" fill-opacity="1" d="M 15.000001,23.999998 C 15.001862,24.291665 15.004655,24.625832 15.006516,24.999998 L 40.993485,24.999998 C 40.995347,24.625832 40.998139,24.291665 41,23.999998 L 15.000494,23.999998 L 15.000001,23.999998 z" display="inline" enable-background="new" opacity=".5"/><rect id="rect3521-5-0" width="30" height="1" x="13" y="26" fill="url(#linearGradient7808)" fill-opacity="1" stroke="none" display="inline" enable-background="new" rx="0" ry="0"/></g></svg>