<svg xmlns="http://www.w3.org/2000/svg" xmlns:svg="http://www.w3.org/2000/svg" xmlns:xlink="http://www.w3.org/1999/xlink" id="svg8422" width="48" height="48"><defs id="defs8424"><linearGradient id="linearGradient5113"><stop id="stop5115" offset="0" stop-color="#fff" stop-opacity="1"/><stop id="stop5117" offset="1" stop-color="#fff" stop-opacity="0"/></linearGradient><linearGradient id="linearGradient5862" x1="58.749" x2="105.324" y1="2.048" y2="58.048" gradientTransform="matrix(1.004639,0,0,1,-55.021352,-4.0477895)" gradientUnits="userSpaceOnUse" xlink:href="#linearGradient5113"/><linearGradient id="linearGradient3163"><stop id="stop3165" offset="0" stop-color="#729fcf" stop-opacity="1"/><stop id="stop3167" offset="1" stop-color="#3465a4" stop-opacity="1"/></linearGradient><linearGradient id="linearGradient3169" x1="25" x2="25" y1="9" y2="37" gradientTransform="translate(-2.07875e-5,-0.9999995)" gradientUnits="userSpaceOnUse" xlink:href="#linearGradient3163"/><linearGradient id="linearGradient5105"><stop id="stop5107" offset="0" stop-color="#000" stop-opacity="1"/><stop id="stop5109" offset="1" stop-color="#000" stop-opacity="0"/></linearGradient><radialGradient id="radialGradient5855" cx="11.25" cy="19.031" r="8.063" fx="11.25" fy="19.031" gradientTransform="matrix(1,0,0,0.282946,0,13.64644)" gradientUnits="userSpaceOnUse" xlink:href="#linearGradient5105"/></defs><metadata id="metadata8427"/><g id="layer1"><path id="path4346" fill="url(#radialGradient5855)" fill-opacity="1" fill-rule="nonzero" stroke="none" stroke-dasharray="none" stroke-dashoffset="0" stroke-linecap="butt" stroke-linejoin="miter" stroke-miterlimit="4" stroke-opacity="1" stroke-width="1" marker-end="none" marker-mid="none" marker-start="none" d="M 19.3125,19.03125 A 8.0625,2.28125 0 1 1 3.1875,19.03125 A 8.0625,2.28125 0 1 1 19.3125,19.03125 z" display="inline" opacity=".163" overflow="visible" transform="matrix(2.5121226,0,0,2.410961,-4.5153908,-14.87225)" visibility="visible" style="marker:none"/><path id="path4972" fill="url(#linearGradient3169)" fill-opacity="1" fill-rule="nonzero" stroke="#204a87" stroke-dasharray="none" stroke-dashoffset="0" stroke-linecap="butt" stroke-linejoin="miter" stroke-miterlimit="4" stroke-opacity="1" stroke-width="1" marker-end="none" marker-mid="none" marker-start="none" d="M 42.499979,24.52548 L 30.464729,38.5 L 18.489799,24.52548 L 24.581589,24.52548 C 26.628889,19.03951 22.424889,15.54768 17.550519,15.54768 C 14.086759,15.54768 9.3872892,17.45264 7.7998392,22.18908 C 6.9741792,24.6526 5.5198992,23.5734 5.5760992,21.43234 C 5.7936292,13.17053 11.918979,6.5633302 21.063119,6.5633302 C 30.207259,6.5633302 36.999979,13.66192 36.486889,24.52548 L 42.499979,24.52548 z" display="inline" overflow="visible" visibility="visible" style="marker:none"/><path id="path4980" fill="none" fill-opacity="1" fill-rule="nonzero" stroke="url(#linearGradient5862)" stroke-dasharray="none" stroke-dashoffset="0" stroke-linecap="butt" stroke-linejoin="miter" stroke-miterlimit="4" stroke-opacity="1" stroke-width="1" marker-end="none" marker-mid="none" marker-start="none" d="M 40.382129,25.52548 L 30.464729,37.06788 L 20.607659,25.52548 L 25.306609,25.52548 C 27.784369,20 24.207889,14.62862 17.999979,14.52859 C 14.100729,14.46576 12.053029,15.76164 9.3375792,18 C 7.8495692,19.22658 7.0898592,21.63896 6.7393592,22.51309 C 6.2587992,22.53771 6.5413392,19.83259 6.9999792,18.15015 C 8.6718892,12.01699 13.846599,7.4993702 21.183859,7.4856702 C 28.521119,7.4719702 36.485229,12.51017 35.486889,25.52548 L 40.382129,25.52548 z" display="inline" enable-background="accumulate" opacity=".354" overflow="visible" visibility="visible" style="marker:none"/></g></svg>